<svg xmlns="http://www.w3.org/2000/svg" width="981.312" height="964.523" viewBox="0 0 981.312 964.523"><defs><style>.a{fill:#fff;stroke:#000;}</style></defs><g transform="translate(-5.624 -4.889)"><g transform="translate(6.012 5.379)"><path class="a" d="M123.652,145.247l.309-5.414-3.743,1.238,2.009,4.17Z" transform="translate(583.554 678.589)"/><path class="a" d="M101.778,170.228c-16.858-14.13-34.1-28.592-53.873-39.013,1.765,1.719,3.557,3.484,5.33,5.276,4.234,4.288,8.522,8.874,11.953,12.564l4.819,5.144L87.6,166.093,92.486,171l18.159,9.577-18.424,1.46-1.447,1.427h.013L89.765,184.5l13.062,9.245,11.728-12.909C110.227,177.3,105.959,173.732,101.778,170.228Z" transform="translate(208.989 630.014)"/><path class="a" d="M776.2,375.578c-4.683-37.2-24-69.354-42.676-100.45-3.965-6.589-7.532-12.537-11.038-18.583-21.389-36.984-48-71.822-73.739-105.515-10.3-13.482-21.848-28.579-32.609-43.316l-6.494.92,4.152-2.828c-2.5-1.865-5.015-3.706-7.538-5.546-7.768-5.65-15.788-11.495-23.1-18.029-8.643-7.716-17.442-14.914-30.062-18.2-19.2-5-39.453-10.7-57.444-20.412-31.619-17.084-66.569-21.289-100.367-25.355l-.688-.079c-7.574-.908-15.414-1.853-23.1-2.938-6.3-.878-13.972.823-18.734,4.132a70.384,70.384,0,0,1-18.281,9.081c-8.226,8.313-21.745,12.811-33.725,4.309-4.225-.122-8.467-.372-12.6-.756a9.484,9.484,0,0,1-2.969-.908c-.453-.2-.947-.408-1.515-.616l-6.59-2.426,10.357-3.1c-2.867-.457-6.108-.695-9.276-.926l-1.273-.1L275.307,32.7l-2.185-.286c-12.807-1.694-18.788,1.512-24.648,13.2-5.909,11.739-17.279,23.484-31.2,32.23-11.823,7.436-25,12.982-37.727,18.34l-.314.134c-5.16,2.176-10.5,4.425-15.656,6.765L136.8,130.259l4.044.268,7.761-7.747.048,9.039L152,136.494l-4.086,2.712-4.5,4.632v.433l16.494-12.36a18.3,18.3,0,0,1-1.1-1.871c-1-1.956.706-3.066,2.082-3.949l.622-.4,4.581-4.7.133-6.412,14.044.055.193,5.217,8.455-.049,12.891-6.3-.042,5.7,17.243-4.285L219,113.132l-26.024-.049,26.887-9.13,8.576-6.235,3.8,8.935-9.512.8.115,2.078,5.631,1.115a181.125,181.125,0,0,1,22.982-15.127c4.949-2.81,10.139-5.51,15.849-8.265l.978-5.15,4.207,2.706c5.432-2.493,10.851-4.821,16.132-6.912,2.631-1,5.251-1.975,7.888-2.913l-.133-1.505,7.109-.823c8.015-2.73,16.307-5.193,24.642-7.326h-4.689l-.489-8.38,21.721-1.335-.187,5.778h1.237c8.468-1.731,16.718-3.054,25.053-4.017a303.105,303.105,0,0,1,88.652,1.987c8.3,1.512,16.754,3.462,25.167,5.821l-.64-.634L534.27,80.842l-7.786.091c2.577,1.231,5.118,2.493,7.586,3.761l.99-1.883,2.577,1.377-.965,1.859c3.3,1.737,6.584,3.553,9.789,5.412a286.652,286.652,0,0,1,32.373,23.173h.018l-.054-5.985,21.926,9.794H596.18l7.435,7.46,9.119,4.468,7.333.055v5.345l1.3.006-.024-8.124,11.473,11.964-8.329.171-4.231,12.574-3.748-13.549-4.587-4.449-4.708.1.042.043-1.629.049,8.763,15.335,2.2,2.3c3.084,3.584,6.928,8,11.232,12.927l4.194,4.8-.012-.116,16.838,17.565-1.581.177c11.129,13.037,19.289,23.081,24.908,30.67.688.92,1.31,1.792,1.931,2.657L721.883,280.6l17.738,48.692-26.742-38.349c-1.086-1.335-2.257-2.785-3.458-4.3l-2.879.884v-4.547c-18.021-23.106-41.221-56.28-43.81-60-10.562-12.08-25.107-26.909-35.723-37.74l-.211-.207c-8.733-8.911-16.989-17.328-22.252-23.228l-15.106-16.109a73.779,73.779,0,0,0-5.353-5.333c-.815-.756-1.611-1.512-2.414-2.286-.929-.847-1.883-1.761-2.837-2.682-1.666-1.6-3.337-3.2-5.082-4.6a261.069,261.069,0,0,0-35.168-25.525c-11.159-2.5-19.663-6.692-26.749-13.177l-.266-.238-.513.073c-19.977,2.9-35.487-6.412-49.67-16.249l-1.189-.262c-.766-.171-1.545-.347-2.33-.5a286.692,286.692,0,0,0-44.329-4.839l4.176,1.408,14.8,1.731-3.5,8.265-11.8-6.089H402.628l.978-5.491h-.326c-3.537,0-6.892.055-10.224.158l-1.738.262-5.2.012c-4.635.238-8.745.518-12.517.847a365.015,365.015,0,0,0-80.577,16.566c-29.271,9.411-52.634,20.845-71.41,34.948l-.688.524-2.269-2.724q-4.834,3.639-9.687,7.259l-.3.225c-9.771,7.314-19.88,14.884-29.664,22.5-13.157,10.233-26.308,21.759-30.134,40.062l.772.725-.018.024,2.227,2.151,3.838-4.449c3.639-4.169,7.4-8.484,11.02-12.793,15.2-18.1,32.808-35.5,58.542-40.263l4.539-.841-6.4,13.019,5.975,5.04-10.514,3.242.048-4.9c-9.337,3.633-17.352,7.582-21.431,16.316l12.6-.11L175.6,202.453l-10.532,15.859c1.569,10.136-5.4,14.676-11.02,17.212l-2.408,9.222,2.565-3.407q9.768-12.982,19.548-25.958c2.143-2.846,4.261-5.735,6.361-8.624,13.06-17.9,26.555-36.417,49.737-44.42,16.41-25.2,43.014-35.82,66.883-42.884,12.807-3.785,26.254-5.7,39.26-7.552,9.137-1.3,18.583-2.651,27.69-4.632,19.88-4.321,39.616-2.133,58.7-.012,4.913.549,9.994,1.115,14.986,1.56a82.064,82.064,0,0,1,8.516,1.2l-8.944-9.49,4.587-.549c.127-.018.272-.043.416-.073a5.412,5.412,0,0,1,2.83-.018c1.213.4,1.624,1.28,2.348,2.889.38.835.942,2.066,1.847,3.895l2.257,4.565.3.067c1.165.28,115.377,28.957,174.656,133.539l1.141,2.036,7.538,12.171c12.819,20.649,26.079,42.012,37.7,64.069,13.585,25.8,13.779,54.415,13.972,82.086l.006,1.012c.03,4.705.066,9.417.169,14.1.09,3.949-.151,7.881-.386,11.684-.236,3.956-.477,8.045-.338,12.037.163,5.089.664,10.313,1.147,15.365.851,8.935,1.738,18.09.929,27.1-4.345,48.82-15.523,93.861-33.206,133.868-13.054,29.542-35.282,55.713-69.931,82.348l-2.993,5.028c-.03.03-1.3,1.182-3.724,3.181,1.949-1.243,3.893-2.474,5.848-3.712l26.905-17.09,4.895-5.034,5.854-4.327.133-.366c5.184-14.67,15.487-26.744,31.48-36.9l5.227-3.322-1.78,5.973c-5.335,17.785-19.035,28.408-31.45,36.965l-.525.366-4.345,5.778-5.046,5.424c-6.832,13.427-18.583,21.247-29.935,28.8-2.7,1.792-5.456,3.627-8.172,5.553-7.761,5.522-15.553,11.532-22.433,16.84-1.491,1.146-2.97,2.285-4.454,3.425l7.544-.049-2.052,3.565c-6.512,10.721-16.476,16-31.323,16.584a7.7,7.7,0,0,1-3.048,5.3c-2.631,1.822-6.005,1.182-9,.366L504.4,781.51l-4.436-8.746,11.914-2.194,8.835-4.382.024-2.127-17.333.183,2.064-3.56c.284-.469.525-.957.772-1.444.936-1.81,1.865-3.627,3.627-4.754q4.554-2.907,9.1-5.827-9.252,4.544-18.625,8.375l-.664.262c-8.232,3.34-16.555,6.272-24.733,8.728-3.573,5.156-9.125,4.394-13.646,3.718-2.36.555-4.925,1.152-7.526,1.7-9.614,3.3-20.882,4.943-29.392,4.23-5.371.482-10.3.756-14.913.829a36.217,36.217,0,0,1-18.51-.634A210.293,210.293,0,0,1,337.718,765.4l-2.372-.792.223-.524a216.178,216.178,0,0,1-56.985-22.515c-58.8-33.272-105.3-75.644-138.227-125.957-7.707-11.781-13.38-25.05-18.866-37.892-4.128-9.673-8.341-19.552-13.38-28.75-16.5-30.066-17.43-61.784-16.169-88.839,2.028-43.67,13.024-84.737,32.675-122.068a16.58,16.58,0,0,1,1.255-1.944A6.756,6.756,0,0,0,127,334.133c3.428-18.3,6.723-36.447,10.369-56.554l.652-3.584c-5.9,9.148-8.214,19.723-10.646,30.84a171.912,171.912,0,0,1-4.8,18.589c-1,2.907-1.835,5.942-2.656,8.88-3.247,11.641-6.6,23.66-18.9,30.877l-.018.11c-.338,1.737-.64,3.48-.948,5.223a105.176,105.176,0,0,1-3.144,14.165C71.718,461.016,76.9,528.944,112.77,590.344a47.918,47.918,0,0,1,4.056,10.3l.109.354c.447,1.475.893,2.944,1.406,4.376l7.792,14.744-1.008.658,2.058,1.207c13.8,8.088,22.56,18.644,26.785,32.266l.066.213.374.378,39.948,40.153-13.815-.42-.121,6.119-21.2-9.148,14.889-.689-.736-.835a98.758,98.758,0,0,1-8.908-11,90.022,90.022,0,0,1-6.385-12.208l-.5-1.085c-.38-.823-.76-1.64-1.147-2.456l-2.167-4.577-3.476-1.621c-14.056-6.577-23.139-17.5-27-32.486l-.652-2.511-.754.494-9.958-12.994c-.833-.774-1.907-1.64-2.849-2.4-2.565-2.085-5.172-4.206-6.536-7.18-2.348-5.108-4.774-10.209-7.206-15.3-7.429-15.566-15.112-31.663-20.092-48.387-9.234-31.035-10.163-65.746-2.921-109.233l.356-2.164c3.7-22.319,7.526-45.395,23.845-63.624l.26-.3.085-.292c2.173-7.936,4.3-16.328,6.011-23.075,8.624-34.016,17.551-69.165,39.392-99.03a22,22,0,0,1,5.48-4.827l.29-.2c.422-.3.851-.61,1.267-.92l.2-5.443-12.378,8.051-10.411,16.182-26.06,68.348-.115,1.073C98.66,344.567,90.1,366.838,74.863,388.938l.139.689a8.288,8.288,0,0,1-.03,4.845C59.931,430.9,62.412,469.738,64.82,507.3l.326,5.193c.646,10.227,3.832,20.613,6.922,30.657l.139.445c1.382,4.529,2.825,9.209,4.013,13.86l6.687,22.758L70.149,562.978h-.036a5.448,5.448,0,0,1-4.46-2.231l-1.243-1.621.483-.494c-19.005-59.346-20.411-109.22-4.43-156.9,1.334-4,4.285-7.2,7.128-10.3,1.111-1.2,2.112-2.286,3.036-3.419v-9.831l-5.4,5.376,5.009-11.312q1.955-4.425,3.863-8.868l.682-1.566c3.579-8.265,7.23-16.694,11.2-24.837a118.3,118.3,0,0,1,7.888-13.141l.223-.335c.905-1.377,1.823-2.767,2.716-4.157l.362-.567.3-19.6-.392-.134.169-2.42,4.84-14.146-.1-.085.247-1.56,5.426-15.134.326-1.408,5.74-10.861,9.687-4.754c-.718-7.893,2.915-13.36,10.8-16.261l.235-8.033-.8-.433.935-2.152,7.387-12.056-4.629-.073-.875.884c-14.3,14.494-27.8,28.183-29.983,49.033l.923.616-1.5,1.987c-8.818,11.629-13.815,25.97-15.7,45.09l.809.25-.978,2.542L87.2,315.19c-2.366,4.273-4.81,8.685-7.435,12.994a32.7,32.7,0,0,0-2.535,5.967c-2.01,5.717-4.46,12.7-13.332,13.336.163.707.344,1.426.519,2.139l.09.4c1.056,4.254,2.137,8.618.851,12.543-6.12,18.663-12.982,37.441-19.615,55.6l-.948,2.584q-3.2,8.786-6.464,17.8l-3.187,8.825-1.273-9.307C29.459,406.022,42.5,379.607,55.1,354.057c1.4-2.834,2.794-5.68,4.176-8.515l.477-1.109,1.605-5.766c11.425-40.69,23.224-82.708,48.18-118.887,2.945-4.266,5.661-8.966,8.136-13.391C97.483,225.8,86.776,251.413,76.782,278.158c-4.249,11.367-8.19,23.118-12,34.485l-.181.524c-6.886,20.595-14.008,41.884-23.272,61.888-16.241,35.1-14.7,71.316-11.733,105.4a45.779,45.779,0,0,0,1.37,7,45.242,45.242,0,0,1,1.563,8.71c2.879,56.56,27.147,108.318,76.371,162.88l8.86,9.843c4.689,5.229,9.7,10.806,14.859,16.468l11.9,2.377c.066.012.151.018.223.024a3.488,3.488,0,0,1,2.788,1.255,5.531,5.531,0,0,1,.754,1.512l2.36,6.442-17.726-11.282c4.931,5.406,9.988,10.886,15.04,16.194,1.5,1.579,4,2.523,6.639,3.517l.332.128.266.1-.03-.884.036.024-.085-3.986,22.481,9.831-13.809.024,12.807,9.764v-5.571l5.317,5.223.012-2.334,3.326,5.6,3.41,3.358h-1.587a6.447,6.447,0,0,1,.3,1.018,2.482,2.482,0,0,1-.054,1.341h.742l-1.231,1.1c29.06,28.628,65.821,49.222,119.052,66.721a36.57,36.57,0,0,1,7.973,4.138c.791.5,1.581.993,2.384,1.469l.326.195h15.07l-3.585,10.453-12.113-6.369-.664.061c-20.236,1.737-37.684-5.961-54.607-13.433-6.132-2.712-12.36-5.467-18.571-7.716-3.85-1.4-8.063-2.609-11.449-3.578-.616-.177-1.225-.353-1.841-.536l.042,9.075-.561-.744v.03l-2.674,2.706-3.265-3.316,1.328-1.335.018-3.255-14.774-8.679,9.892-.323q-4.264-3.328-8.437-6.778l-5.9,13.043a1.345,1.345,0,0,0-.091.262c-.066.195-.145.427-.247.67l16.682,8.222.006-.006.616.256,3.531,1.828-.115.128,8.021,4.443,1.78,1.213c14.968,10.325,29.132,20.095,47.287,20.095.392,0,.785-.006,1.195-.012l.314-.884,2.342.792c1.955,1.024,3.76,2.017,5.571,3.023a136.131,136.131,0,0,0,13.591,6.875c10.773,4.449,21.757,8.637,32.385,12.69q6.256,2.4,12.439,4.766l14.1-.731c11.684-.6,23.526-1.213,35.361-1.8,7.086-.353,14.274-.4,21.226-.439,15.348-.1,31.178-.2,45.838-3.62,27.02-6.314,53.63-16.743,79.376-26.824l7.013-2.743c6.524-2.554,12.511-7.29,18.305-11.873,1.708-1.347,3.446-2.724,5.215-4.053l-3.645-2.03c.042,2.219-.181,4.126-1.792,5.1-16.663,10.093-31.583,14.853-46.949,14.969l-.368.006-12.577,7.113-3.41-9.283,14.811-1.962c8.5-9.746,19.868-12.891,30.871-15.938a104.711,104.711,0,0,0,16.03-5.358l.64-.317,10.091-5.449,3.645-3.377-2.2.731c-8.522,2.84-17.038,5.674-25.535,8.576-6.114,2.085-12.215,4.242-18.311,6.406L526.044,797.6,488.4,812.685l-1.956-8.758,13.676-.829.06-5.729L527.9,792.59,548.64,775.5l.447.152,6.391-3.31-3.675-2.237,1.267-.792-1.322-.006,9.982-5.217v.177l17.756-8.9,1.75-7.021,5.275,5.882,7.8-3.949a8.5,8.5,0,0,1-.573-2.072c-.012-.073-.018-.152-.024-.232l-1.485-.018,6.6-7.094v.262l5.112-5.242.253,8.234,7.363-.213,4.019-8.167-5.631-4.76,7.23-2.651,13.429-13.793v4.986l2.149-2.164.272.012,10.683-10.5,15.04-8.2-2.8,6.284c-7.116,15.981-18.3,35.277-41.873,42.719l-.187.134L601.358,764.98l5.064-.232c3.482-4.443,5.836-7.186,9.1-7.564,3.893-.439,7.454,2.505,13.435,7.338.953-.317,1.937-.6,2.921-.872,2.68-.75,5.2-1.463,6.76-2.9,17.744-16.225,36.966-34.32,58.754-55.335,1.123-1.079,1.762-3.047,2.444-5.138l.042-.128-3.917-.1-.1-10.337-1.865.561-14.2,9.532L689.4,685.15,707.447,662.2l-3.591,1.1,14.4-26.019-.634-.152.5-2.164,1.817-.713,2.094-3.779-.465,4.309,1.123,1.079-.6,2.365-.912-.225-.712,5.936c-.736,6.589-1.642,14.762-11.117,17.675l-1.6.494L700,687.009l3.2,7.57c1.7-1.646,3.47-3.249,5.19-4.809l.253-.225c5.577-5.034,11.334-10.239,14.111-16.4,16.977-37.8,31.975-71.962,43.7-107.288C787.988,501.029,783.461,433.291,776.2,375.578ZM267.3,70.517l4.611.414-.223,2.7-4.611-.366ZM253.646,85.98l-8.564,8.362.374-8.771L239.415,82.1l6.8-4.443,8.5-7.936L254.7,77.27l17.376.177Zm38.083-16.4-.416-7.265,17.889-1.53,1.159,8.795Zm-2.71-21.716-.121-5.985,2.342-.037h21.323l2.227,6.022ZM324.664,44.1l-.881-7.7L339.7,34.514l.887,7.808Zm26.109-5.668-3.247-8,4.46-.213a19.709,19.709,0,0,1,3.513-.024,3.548,3.548,0,0,1,2.6,2.115c.115.2.169.293.217.366l1.907,2.59Zm85.937,13.781,13.265-1.56c.9-.11,1.793-.238,2.7-.372,5.782-.853,12.976-1.914,17.822,5.68l3.09,4.839Zm77.548,12.818c-.718.03-1.46.1-2.2.183-.99.1-2.016.2-3.066.2-4.641,0-7.49-2.237-8.7-6.832l-1.2-4.5,25.976,10.532ZM557,96.694l-1.684-1.316,2.782-3.736,1.774,1.384Zm2.408-10.367-.917-5.04C547.083,83.121,539.1,76.6,532.532,70.279l-3.344-3.224,4.563-.768c11.974-2.03,20.448,4.309,27.165,10.776l.1.091,7.858,3.639Zm44.329,29.42a3.453,3.453,0,0,1-2.342-1.384,4.492,4.492,0,0,1-.428-.89l-2.6-6.863,7.562,5.028,14.08,9.74Zm79.684,97.92-.495,9.386-6.452-7.491-.018.024-.718-.719-3.531-4.352h.954l-3.808-7.363-8.3-8.356,11.841-.28-.066,6.357,6.832,3.035.048-4.1,4.52,7.85-.048.049a19.25,19.25,0,0,1,1.159,2.432C685.967,211.979,684.639,212.93,683.426,213.668ZM704.719,253.2l-.03.018.03.049-.091.055.356.36h-.948l-.507.323-.042-.061-.8.445-.652-1.067-.736-.744.205-.128-.374-.616H702.5l3.03-1.835,1.087,1.92-1.907,1.28Zm-456-116.516,4.345-13.256a3.494,3.494,0,0,1,1.5-2.511,5.435,5.435,0,0,1,1.34-.561l6.916-2.072Zm105.763-35.466-.03-.939-5.48,2.8c-8.733,4.455-17.1,7.789-23.339-.463l-18.166-.225V104l13.948.737-2.577,9.155-13.966-6.028-13.012-.707-.549-6.637,12.354-1.822.066-2.621-2.287-1.713,2.275-3.791,1,.4a3.51,3.51,0,0,1,1.967,1.444l.519,1.274,19.4,5.01,27.811-.03-.121-4.486h55.464l.187,7.04Zm149.567-3.492,23.634,10.751-26.29-1.908Zm-59.363-12.69,2.8-8.582,21.443,10.514Zm49.459,9.892-3.561,7.966L471.828,91.215Zm-.622,24.794-7.653,3.084-6.331-13.927,8.769-4.035,3.85,10.971,7.424,1.56a3.663,3.663,0,0,1,2.71,1.121,5.974,5.974,0,0,1,.779,1.28l3.259,6.924-13.109-7.856Zm47.383-2.182-14.02-4.888,14.575-2.164Zm41.348,61.631-11.757-11,12.855-.329ZM34.837,459.87a12.883,12.883,0,0,0-.785,1.036l-4.87,7.168,2.287-30.237,3.844,15.006a24.922,24.922,0,0,1,.851,3.84,4.153,4.153,0,0,1-1.261,3.1Zm.495,28.372,6.409-1.408-1.008,12.647-5.4-.189Zm5.058,26.074,6.222-.073V536.4l-6.222.037ZM63.42,585.407l-7.7-19.558c-3.893-.951-6.639-2.871-8.178-5.7-1.974-3.663-1.8-8.654.531-15.249l2.2-6.217,8.3,23.709,5.305.652Zm32.8,26.744-.429-3.206h.217a2.016,2.016,0,0,1,.791-1.115l1.044-.835,1.249.518a1.976,1.976,0,0,1,1.038.8l.2-.067.489,3.249Zm206.92,202.9a5.918,5.918,0,0,0-.579.311,4.7,4.7,0,0,1-2.348.823,2.734,2.734,0,0,1-1.1-.232,4.834,4.834,0,0,1-2.155-2.225c-.121-.2-.2-.335-.284-.457l-2.42-3.364,4.08-.354c.145-.012.284-.036.416-.055a6.554,6.554,0,0,1,2.541-.042,4.138,4.138,0,0,1,2.148,1.42,3.34,3.34,0,0,0,.284.293l2.68,2.4Zm14.418,6.869-7.454-2.133,3.694-2.822c.175-.128.344-.274.5-.414a7.752,7.752,0,0,1,2.6-1.67c1.623-.493,2.77.628,3.464,1.3.157.158.3.3.435.414l2.812,2.243Zm192.11-2.761-10.682,1.956c-.471.079-.863.171-1.2.244a9.561,9.561,0,0,1-1.992.286c-.157,0-.314-.012-.489-.024-1.684-.177-2.179-1.712-2.426-2.444l.736-.707h0l-.839.372-1.889-4.333Zm-30.14-44.377-22.071,11-3.048-8.49ZM215.2,732.1c-.32.012-.628.018-.941.018-9.85,0-16.585-5.12-21.148-16.1-3.187-.238-7.194-.951-9.554-3.882-1.672-2.091-2.257-4.961-1.726-8.539l.682-4.608,13.024,13.134c10.375,1.341,17.683,6.979,21.715,16.749l1.286,3.121Zm13.736-5.022-14.557-11.324-4.7-3.175.543-.067-1.853-1.438-15.251-12.458,2.758-3.675,16.567,11.94,3.989,4.9c8.3-.731,13.929,3.23,16.971,11.763l2.372,6.674-9.548-6.455Zm36.912,37.209L260.46,759.3l2.1-1.7c.121-.1.247-.244.386-.378a4.482,4.482,0,0,1,3.132-1.676h.06a4.193,4.193,0,0,1,3,1.987c.163.207.278.354.4.481l1.774,1.841Zm21.353,10.9-15.143-9.862,18.824.994Zm13.827-10.148-8.673-6.613-2.915.3a42.977,42.977,0,0,1-4.629.262c-9.21,0-15.112-3.931-18.04-12.025l-1-2.779,2.9-.341c9.711-1.182,17.291,2.645,22.506,11.349l1.527,2.542,60.166,18.6h24.28l-1.66,10.831-22.783-6.844-1.961.1C332.172,781.248,315.5,776.091,301.03,765.041Zm39.314,59.5a3.249,3.249,0,0,1-2.656,2.072,7.472,7.472,0,0,1-2.173-.372l-3.76-.945,1.877-2.779a3.356,3.356,0,0,1,2.662-2.1,7.9,7.9,0,0,1,2.215.39l3.8.975Zm-2.746-8.484-.03-6.845H355.9l.06,6.845Zm47.2,16.572H355.474l.018-7.04h32.874Zm17.454-11.16H371.431l3.537-7.186h29.573l.03,7.162Zm-8.335-31.7-.006-7.113h53.34l.036,7.113ZM431.8,814.319h24.008l.157,6.863h-25.59Zm7.514,17.645,2.915-7.131h18.691l.423,7.131Zm15.782-24.49,25.1,1.262-2.909,9.4Zm16.446,24.581-3.247-8.393,14.213-5.217,2.963,7.789Zm25.155-49.4c-.121.1-.253.232-.374.354a4.142,4.142,0,0,1-2.843,1.481l-.266-.012a3.939,3.939,0,0,1-2.728-1.822c-.151-.189-.236-.3-.326-.39l-1.835-1.871,2.064-1.615a4.256,4.256,0,0,0,.344-.329,4.282,4.282,0,0,1,2.921-1.475h.042a4.021,4.021,0,0,1,2.855,1.8c.169.2.253.317.344.409l1.859,1.834Zm75.357-36.99,2.034-6.381c2.535-7.942,8.142-11.769,16.7-11.343l6.965.366Zm79.684-14.609c-.2,4.413-1.394,7.5-3.645,9.447a9.839,9.839,0,0,1-6.621,2.188,15.315,15.315,0,0,1-1.871-.11l-4.907-.543,17.315-16.834Zm126.132-303.4-8.437,1.536-.151-.926-5.4-32.248,6.977-1.274Zm-17.865-57.572h.012a3.643,3.643,0,0,1,2.094-2.609,3.158,3.158,0,0,0,.38-.238l2.559-1.9,3.114,9.5-7.985,3.364L760,373.652A20.092,20.092,0,0,1,760.008,370.087Zm.024,61.1a5.455,5.455,0,0,1,.688-2.34,3.391,3.391,0,0,1,2.6-1.444l2.336-.6,2.245,6.436-8.546,1.889Zm-26.266-12.659,6.6-.165v26.324l-6.6.11ZM708.9,335.029l.012-.006a3.484,3.484,0,0,0,.326-.268l1.955-1.883,3.6,5.315-4.5,5.138-1.678-2.456a3.554,3.554,0,0,0-.26-.317,3.86,3.86,0,0,1-1.195-2.919A3.956,3.956,0,0,1,708.9,335.029Zm-15.71-38.873c12.65,1.987,12.071,11.525,11.642,18.486-.06.975-.115,1.938-.133,2.889l-.314,9.087-15.656-31.157Zm-18.5-29.706L688.4,276.3l-15.837-5.754a3.639,3.639,0,0,1-2.438-1.432,4.034,4.034,0,0,1-.453-.926l-2.818-7.216ZM625.3,214.429l-.3,17.754-9.427-21.753,5.468-.122-2.2-13.08,8.691-1.109,2.843,18.809Zm70.209,339.314-5.317,5.37.193-.439-5.945,5.839.38-6.04q.923-14.829,1.889-29.652l.078-1.195c1.449-22.563,2.945-45.9,4.219-68.836.392-7.162.911-14.445,1.406-21.491l.936-.232h0l-.917-.067c1.448-20.656,2.939-42.012,1.684-62.765-1.2-19.973-9.047-39.154-15.414-51.727-8.492-16.785-18.812-33.047-28.789-48.771-4.623-7.289-9.844-15.511-14.726-23.605a24.4,24.4,0,0,1-2.547-7.332c-.145-.616-.284-1.225-.441-1.822l-1.78-7.04,5.51,4.669c1.684,1.426,3.44,2.8,5.215,4.175,4.786,3.73,9.668,7.545,13.145,12.476,8.932,12.677,17.05,26.22,24.9,39.312l4.659,7.765c20.689,34.326,28.04,72.621,23.139,120.52-2.994,29.225-4.388,59.09-5.727,87.973-.368,7.85-.724,15.591-1.117,23.307,7.562-24.2,8.854-49.576,10.007-72.176.531-10.446.942-20.814,1.388-32.315.966-25,1.967-50.843,4.677-76.631l1.762-16.633,2.819,16.48c.591,3.444,1.394,6.942,2.161,10.331,1.732,7.619,3.513,15.475,3.2,23.276-1.8,44.7-4.792,89.546-7.677,132.917l-.073,1.146a33.335,33.335,0,0,1-2.48,9.356,31.275,31.275,0,0,0-2.209,7.759c-.35,3.578.26,7.271.9,11.172.048.323.1.64.157.963l7.647-6.948,4.647-31.956-.012-45.3,4.514,14.061c5.046,15.719,5.571,17.358-.091,30.127l-1.092,2.444.4,4.772c.115,1.353.29,2.706.471,4.065l.072.615c1.014,7.619,2.058,15.505-4.888,22.472l-.229.232.006.164c.4,9.788-.483,22.167-10.9,31.34l.06.567c.054.561.127,1.121.205,1.682l.073.518c.652,4.571,1.527,10.794-6.15,13.433l-.947,10.27-7.629-3.37,5.239-9.868,5.082-14.177.151-15.969-11.606,10.776c4.738,7.954,4.364,16.992-1.134,27.622-4.164,8.076-9.385,15.627-14.431,22.935l-1.195,1.737q-1.575,2.286-3.132,4.577l-10.363,15.353,25.988-72.243Zm33.327,72.365-7.731-5.747,8.673-4.205Zm2.179-8.74-2.891-10.66,8.281,1.054ZM743.1,582.585V559.814l10.139,3.553Zm13.386-31.443h-6.222V534.71h6.222Zm6.548-62.015-.006.031c-.785,5.309-1.533,10.331-.344,14.81.531,1.975.036,3.9-.791,7.088-.477,1.883-1.074,4.212-1.714,7.381l-3.368,16.73-2.939-41.549c-.6,3.785-1.189,7.558-1.756,11.275l-.133.847c-2.613,17.023-5.317,34.631-9.765,51.569-10.652,40.6-28.861,80.3-54.118,117.985-1.811,2.688-4.587,4.455-7.279,6.168-.851.53-1.63,1.024-2.372,1.542l-7,4.791,3.6-7.716q5.069-10.87,10.115-21.746l1.611-3.474c8.166-17.6,17.418-37.551,26.7-57.079,17.611-37.045,26.779-78.807,28.01-127.688.785-31.114,1.78-67.336,3.742-103.5l.942-17.328L751.2,372.7c4.08,18.644,7.93,36.252,5.2,56.225-.676,4.943-.966,10.142-1.249,15.17-.3,5.388-.61,10.8-1.309,16.1C766.176,468.08,764.438,479.74,763.038,489.126Zm9.294,25.282-7.116.28V466.593l7.116-.3Z" transform="translate(116.283 48.961)"/><path class="a" d="M120.558,31.995l7.5,5.04L128,31.988Z" transform="translate(585.116 144.616)"/><path class="a" d="M53.779,139.054l.046.033,1.694.424-.013-.594Z" transform="translate(240.621 673.427)"/><path class="a" d="M136.111,186.917l-3.631-3.67-12.312-.85-5.953-10.7-8.416.086c-1.181,2.117-2.648,3.2-4.374,3.232-2.947-.013-4.692-2.9-5.894-5.409l-.133-.285-4.619-5.661,1.135-.564-9.206-4.553.524-.7-4.268-4.354-8.681-4.029a4.743,4.743,0,0,1-3.564,2.111c-.186,0-.385-.007-.577-.02l-.04,1.985-2.051-2.748a12.551,12.551,0,0,1-3.478-4.268L56,141.964h-.6l-.02-.611-5.23-5.223h-.591l-.04-.631-4.765-4.633-5.3-1.918c23.2,28.9,64.18,57.928,93.3,65.846l3.445-3.464Z" transform="translate(165.062 617.24)"/><path class="a" d="M119.572,138.23l1.312-1.348-1.312.006Z" transform="translate(580.346 661.96)"/><path class="a" d="M143.245,117.19l-1.043-.215,1.018.252Z" transform="translate(686.474 570.886)"/><path class="a" d="M122.2,135.131l.018,1.486,1.456-1.474Z" transform="translate(593.886 652.088)"/><path class="a" d="M16.539,362.675c4.161,10.221,6.106,20.973,7.984,31.387,3.146,17.422,6.133,33.942,18.809,47.116Q42.3,431.651,41.249,422.2c-1.951-17.621-3.962-35.853-5.648-53.734-1.845-19.613,1.367-36.086,9.816-50.375l.571-.962-.358-2.15c-.929-5.535-2.084-12.424,5.781-16.168l3.179-1.507-6.2,19.712-.119,1.951c-2.2,35.17.027,72.039,6.6,109.578,2,11.442,3.259,23.177,4.48,34.526l.889,8.217c.153,1.394-.8,2.442-2.111,3.9-.617.677-1.354,1.487-2.131,2.509l-1.779,2.323-2.124-6.61c-.9-2.821-1.673-5.223-2.489-7.606a4.873,4.873,0,0,0-.531-1.049c-.206.086-.445.173-.717.279.292,2.92.551,5.88.816,8.867.677,7.719,1.374,15.71,2.754,23.489.471,2.635.83,5.449,1.188,8.31,1.155,9.06,2.343,18.424,7.287,23.21,13.075,12.657,21.77,27.862,30.179,42.57,2.3,4.022,4.6,8.038,6.989,12.026.8,1.341,3.066,2.217,5.25,3.066.2.073.4.153.6.232v-.12l.027.007.458-10.314,9.053,3.843q-2.877-6.411-5.774-12.816c-5.907-13.082-12.013-26.615-17.714-40.074-1.832-4.321-3.77-8.622-5.708-12.929-5.854-13.035-11.914-26.508-14.986-40.473-3.71-16.891-5.794-34.393-7.805-51.311-1.228-10.347-2.5-21.046-4.135-31.486-6.345-40.586-1.646-75.616,14.369-107.089a672.685,672.685,0,0,0,28.957-65.528c5.615-14.734,10.241-30.146,14.721-45.052,1.805-6.026,3.617-12.046,5.489-18.04l-5.648-1.168,9.67-18.345.033,10.626,7.805-15.624-.159-.139,12.279-16.958-.511-.252,1.759-1.54,27.922-22.758L183.74,63.868l3.83,16.46,20.3-24.511-.2-.08.08-.086c-1.327-.7-2.575-1.719-2.582-3.212-.007-1.945,2.091-3.08,3.73-3.77l-.027-1.785-.066.066V44.707l-12.259-.358,4.347-9.664c-17.86,4.586-27.783,18.212-35.163,31.108-.923,1.613-1.832,3.259-2.741,4.9-3.757,6.816-7.646,13.865-13.015,19.433-31.5,32.674-49.937,73.665-67.771,113.3-8.343,18.557-16.971,37.745-26.84,55.851-3.451,6.345-6.737,12.942-9.9,19.32-7.341,14.754-14.913,29.986-25.327,43.5.624,2.469,1.42,4.991,2.19,7.44C26,341.224,29.806,353.3,16.539,362.675ZM99.675,563.612l2.389,4.991-2.741,1.367-1.407-2.622-1.022-2.456Zm-17.4-26.847c10.38,1.692,12.259,9.7,12.723,17.309l.113,1.845-1.838-.226c-10.135-1.281-11.442-9.179-12.591-16.154l-.518-3.113ZM61.631,483.582l16.845,44.09-3.332-1.434c-12.285-5.263-14.748-15.106-17.13-24.63-1.128-4.507-2.2-8.768-4.261-12.6l-.77-1.434Zm44.574-310.043c.2-.425.392-.856.571-1.288L107.7,170l4.2,4.646-3.557,8.157-1.58-2.031c-.153-.186-.352-.392-.544-.591-.717-.73-1.613-1.646-1.374-2.854A17.368,17.368,0,0,1,106.206,173.539Zm-5.33,15.916a5.079,5.079,0,0,0,.438-.358l1.288-1.248,1.035,1.46a4.2,4.2,0,0,0,.365.431,2.725,2.725,0,0,1-.3,4.586c-.153.133-.305.265-.431.4l-1.281,1.387-1.1-1.54c-.126-.179-.285-.352-.431-.524a3.267,3.267,0,0,1-1.108-2.423A3.313,3.313,0,0,1,100.876,189.454Zm-7.712,19.188,1.507.352h0l1.427.564-.332.85-1.427-.558h0l-1.427-.557Z" transform="translate(53.331 130.185)"/><path class="a" d="M111.831,27.309h.006l.353-.674Z" transform="translate(540.42 114.44)"/><path class="a" d="M120.894,138.68l-4.853-.042.018,2.33.018-.006v.21Z" transform="translate(561.942 671.856)"/><path class="a" d="M122.672,137.815l-4.871-.054.03,2.318.036-.018v.234Z" transform="translate(571.027 666.915)"/><path class="a" d="M137.035,48.427l.012-1.393-1.383,1.4Z" transform="translate(649.615 209.702)"/><path class="a" d="M122.877,138.959l-1.24,1.264h1.246Z" transform="translate(591.014 673.668)"/><path class="a" d="M64.292,29.227l3.472-.033.048-3.487-3.532.006Z" transform="translate(294.793 109.207)"/><path class="a" d="M45.861,37.088l.021,1.435,1.411-1.42Z" transform="translate(199.743 158.34)"/><path class="a" d="M50.249,33.582l.015,1.486,1.45-1.477Z" transform="translate(222.398 153.602)"/><path class="a" d="M53.184,131.635l1.456,1.456.006-1.462Z" transform="translate(237.555 632.35)"/><path class="a" d="M123.93,33.582h-1.438l1.432,1.45Z" transform="translate(595.417 153.602)"/><path class="a" d="M46.741,34.466l0,3.52,3.484,0,.009-3.522Z" transform="translate(204.233 158.549)"/><path class="a" d="M47.724,45.165h0l.03,2.612L49.314,45Z" transform="translate(209.343 199.158)"/><path class="a" d="M59.041,40.319C52.4,45.708,47.566,52.9,44.453,62.049Z" transform="translate(192.244 174.695)"/><path class="a" d="M59.312,32.721l-4.631.033-.042,1.83.057-.036-.027.587Z" transform="translate(244.995 148.746)"/><path class="a" d="M51.122,36.209l9.3-.1.1-3.343-9.4-.051Z" transform="translate(226.715 148.687)"/><path class="a" d="M61.773,33.59l-6.321.054L52.34,39.914Z" transform="translate(233.027 153.646)"/><path class="a" d="M126.571,131.631l.006,1.438,1.438-1.438Z" transform="translate(616.479 632.36)"/><path class="a" d="M46.174,37.069l1.4-.081.012-1.336Z" transform="translate(201.36 165.268)"/><path class="a" d="M69.355,70.923l2.515-.491,17.562-29.5C70.244,51.3,57.183,68.016,48.654,93.024l7.925-4.142C56.871,81.051,58.769,72.974,69.355,70.923Z" transform="translate(213.382 177.314)"/><path class="a" d="M125.7,132.519l.006,1.384,1.4-1.4Z" transform="translate(611.974 637.296)"/><path class="a" d="M124.291,61.02V52.1l-6.1-.033Z" transform="translate(572.969 235.535)"/><path class="a" d="M610.233,594.513c.478-.425.949-.85,1.42-1.268l.279-.246c3.883-3.458,7.52-6.69,9.358-10.639,22.858-49.035,43.267-97.472,41.973-150.867-1.108-45.55-3.6-92.136-7.433-138.469-1.142-13.752-7.4-27.816-13.374-39.749-7.287-14.555-15.4-29.037-23.25-43.035l-.319-.571c-5.5-9.8-11.19-19.944-16.553-30.046a45.8,45.8,0,0,1-2.589-6.007c-3.153-4.487-62.348-87.271-157.988-125.852a41.621,41.621,0,0,1-8.356-2c-39.3-14.482-81.762-17.489-129.881-9.206C254.035,45.078,218.162,59.042,187.2,81.84c-1.892,1.394-4.208,1.706-6.451,2.011-.65.086-1.294.173-1.918.292-3.557,3.73-7.175,7.42-10.785,11.11-8.051,8.217-16.374,16.712-24.02,25.7-34.327,40.294-52.8,79.127-58.134,122.215-1.56,12.624-5.814,26.688-12.664,41.807A371.4,371.4,0,0,0,41.7,404.1c-6.279,67.9,24.975,122.806,56.382,167.559,54.377,77.5,129.25,129.23,228.892,158.135,38.88,8.416,116.56,13.407,199.769-47.541l-.936-1.115,6.312-2.914c4.46-3.471,9.312-7.42,14.283-11.668l1.8-3.577-.166-.3.013-.027L548,662.57a9.541,9.541,0,0,1-1.168-2.927,2.7,2.7,0,0,1-.033-.69l-1.042-.027,2.051-2c.126-.139.279-.279.418-.418l15.511-15.385.007,7.739a34.64,34.64,0,0,0,3.431-1.38c4.878-4.852,9.3-9.465,13.52-14.091l.8-.876c.378-.829.73-1.692,1.055-2.608l-6.378.06.684-1.055,16.048-24.53-.013,3.65,17.057-26.435Zm6.372-16.3-1.454-2.064a2.449,2.449,0,0,0-.252-.312,3.947,3.947,0,0,1-1.334-3.066,3.861,3.861,0,0,1,1.819-2.6l.159-.126a2.07,2.07,0,0,0,.259-.206l1.865-1.746,3.863,5.535Zm9.6-15.385-3.5,3.657-1.56-2.1c-.086-.113-.179-.212-.272-.318a4.094,4.094,0,0,1-1.493-3.126,3.946,3.946,0,0,1,1.845-2.761c.206-.166.325-.259.425-.358l1.8-1.766,3.936,5.283Zm5.409-10.8-5.794-.146V540.554l6.365.139Zm6.511-17.051-8.442-3.511,9.942-15.152ZM661.63,415.9l1.122,16.958-7.706.332v-17.1ZM649.2,368.309h6.444v23.1l-6.444.06Zm-2.064,88.319,4.009,5.708c5.163,7.341,10.745,18.079-.392,26.648l.146,1.181c.066.611.159,1.215.259,1.825l.053.378c.757,4.9,1.8,11.615-6.77,14.475l-4.254,1.42,6.949-20.037Zm-1.467,4.055-2.648,9.173-2.535-1.819c-.352-.259-.737-.5-1.115-.737l-.272-.173a12.1,12.1,0,0,1-4-3.445c-1.115-1.739.246-3.464,1.692-5.3.4-.491.777-.969,1.062-1.387l1.42-2.117ZM632.646,287.934l.557.378-.551-.385c.113-.166.232-.338.332-.511l2.569-4.46,2.436,8.31-4.234,7.414-1.487-4.918c-.04-.119-.093-.252-.139-.385l-.073-.212a5.488,5.488,0,0,1-.531-2.708A5.312,5.312,0,0,1,632.646,287.934Zm-7.288,150.98,7.175.046v18.385l-7.175-.033Zm1.586,33.318-2.834,7.42-2.761-4.626a18.989,18.989,0,0,1-1.48-2.734c-.763-1.726.757-2.774,1.666-3.4l2.569-1.965ZM614.414,286.421h5.522v14h-5.522Zm-13.095-97.067,2.788,9.909-8.781-1.533Zm-4.234,36.252L595.9,235.09l-7.453-5.748Zm-10.022-.279-2.542-10.347,8.037,1.228Zm-6.538-21.371.02-.013a4.317,4.317,0,0,0,.392-.292l1.765-1.626,4.022,5.283-4.9,4.473-1.454-1.925a2.9,2.9,0,0,0-.239-.265,3.889,3.889,0,0,1-1.434-3.007A3.792,3.792,0,0,1,580.525,203.956ZM472.2,90.17l.047.166.053.166.856,2.223-7.022,2.157-2.3-8.655,3.465.677c.219.04.451.073.7.106a7.99,7.99,0,0,1,2.542.677A3.471,3.471,0,0,1,472.2,90.17ZM461.921,71.314a16.8,16.8,0,0,1,1.341-3.518l.166-.345c.139-.3.279-.591.4-.889l2.3-5.276,2.223,6.577a17.851,17.851,0,0,1,1.069,3.81c.206,1.573-1,2.555-1.805,3.2-.2.159-.358.292-.484.411l-1.712,1.746-1.56-1.9a4.485,4.485,0,0,0-.431-.445C462.664,73.929,461.576,72.847,461.921,71.314ZM401.544,41.932l.558,4.792-11.721.836-.226-5.628Zm-59.415,4.234.1,6.962H313.185l-.053-6.962ZM264,56.241l7.513,9.909-11.5-2.8Zm-8.31,8.847-5.608,7.931-4.168-8.774ZM237.7,61.942l-.451,9.9-2.031.272-15.949.007h-2.98ZM248.56,127.5l.5,1.055-9.75-.843,5.582-7.858,2.728,5.7,1.739-2.695c11.449-17.747,24.026-22.739,42.132-16.646l5.7,1.911L248.553,127.49Zm-1.46,11.389c24.086-13.188,45.683-20.25,72.218-23.6.929-.126,1.912-.285,2.914-.451,8.09-1.334,13.427-1.234,15.962.312,9.265,5.575,18.969,4.414,29.236,3.179,2.462-.3,5-.6,7.533-.8a16.312,16.312,0,0,1,5.336.69,17.762,17.762,0,0,0,4.639.7c6.5-.226,13.214,1.381,17.1,4.122,7.035,4.984,14.641,7.122,22.686,9.385a106.211,106.211,0,0,1,17.011,5.874c23.515,11.164,47.8,22.685,64.174,45.358,2.774,3.83,5.681,7.7,8.5,11.442l.239.325c15.352,20.4,31.227,41.495,35.077,68.866a37.246,37.246,0,0,0,2.947,10.493c12.816,27.471,16.281,51.265,10.918,74.879l-.252,1.062-6.113,2.794,6.425,6.186v.936a42.622,42.622,0,0,1-.259,4.838c-.266,2.794-.558,5.9.438,7.361,12.212,17.774,7.526,39.351,3,60.218-1.148,5.3-2.237,10.3-3.033,15.192-.83,5.144-1.487,9.876-2.117,14.462-2.967,21.551-5.111,37.121-21.438,58.764-6.033,8-15.285,16.825-24.238,25.367-6.969,6.657-13.546,12.936-18.444,18.623l-2.827,3.312a27.82,27.82,0,0,0-2.144,2.954c-1.188,1.825-2.223,3.4-4.56,4.414-25.665,11.091-46.367,19.838-69.211,29.236a36.636,36.636,0,0,1-12.909,2.582v.02l-1.46-.04-9.172-.319c-56.687-1.938-115.312-3.942-166.358-40.393-5.688-4.068-11.535-10.048-17.183-15.829-1.533-1.566-3.046-3.12-4.56-4.633-41.641-41.667-62.2-81.842-68.727-134.334-2.642-21.232-.737-39.212,1.46-60.032v-2.4c.3-2.821.471-5.608.637-8.3.677-10.845,1.261-20.256,9.365-22.871-.246-.425-.5-.856-.757-1.288-1.653-2.774-.066-5.661,1.334-8.21a15.039,15.039,0,0,0,1.58-3.484c13.633-58.32,24.4-104.381,67.472-142.783a19.306,19.306,0,0,0,2.044-2.263,14.443,14.443,0,0,1,4.566-4.161c4.082-2,7.473-5.555,10.745-8.987C240.011,144.381,243.237,141,247.1,138.886Zm-17.11-21.836-10.267,1.42-1.693,6.272-8.389-6.684,7.772-2.973,8.369-7.015ZM206.673,88.789c.1-.086.206-.179.305-.279a4.253,4.253,0,0,1,3.146-1.527,3.9,3.9,0,0,1,2.715,1.971l.1.139a3.611,3.611,0,0,0,.239.3l1.573,1.772-1.885,1.447a4.139,4.139,0,0,0-.365.332,4.2,4.2,0,0,1-2.814,1.48c-.086,0-.179-.007-.259-.013a3.871,3.871,0,0,1-2.715-1.971l-.126-.166a2.4,2.4,0,0,0-.219-.279l-1.56-1.765Zm-57.417,35.774c.04-.113.073-.239.106-.372a3.542,3.542,0,0,1,1.673-2.5,5.323,5.323,0,0,1,1.58-.478l6.093-1.069L144.544,136.57Zm-8.489,159.17q.587-5.854,1.175-11.694l.538-5.376c1.52-15.219,3.08-30.955,4.918-46.473.8-6.757,2.217-13.6,3.458-19.639.431-2.15.869-4.294,1.294-6.445l-3.139-.372.757.478-1.679,2.668-.093-.06a1.6,1.6,0,0,1-1.268.524l-1.5-.06-.6-1.128a1.715,1.715,0,0,1-.166-1.633l-.06-.04,1.619-2.628.066.046,5-9.325-1.361.013,2.874-2.834,3.438-6.4v3.007l5.814-5.728.027,5.276,2.794-2.761h.451l10.566-8.887c8.469-7.122,18.073-15.192,27.617-23.117l.9-.757c6.929-5.781,14.787-12.312,25.951-8.1l3.245,1.228-2.489,2.423c-3.06,2.973-6.133,5.927-9.206,8.894-6.929,6.657-14.031,13.493-20.827,20.376-32.077,32.435-43.6,73.884-50.05,106.372-.743,3.723-2.628,7.214-4.294,10.287-.544,1.015-1.1,2.044-1.619,3.073l-5.389,10.792Zm-5.5,18.239,4.58-2.575-1.374,5.071c-1.042,3.856-2.23,7.745-3.372,11.509l-.139.445c-2.8,9.192-5.7,18.69-6.77,28.161-7.241,64.26,4.706,118.823,36.53,166.809,46.572,70.22,112.226,109.538,195.149,116.865,74.654,6.591,137.168-24.438,180.78-89.647a244.487,244.487,0,0,0,40.665-112.226c.1-1.016.3-2.051.485-3.053l.04-.226a17.292,17.292,0,0,0,.5-4.858c-1.307-11.648-2.409-23.535-3.465-35.024l-.053-.551c-4.36-47.442-8.874-96.5-28.871-141.688a175.751,175.751,0,0,0-10.141-18.6c-1.752-2.934-3.564-5.967-5.263-8.993l-2.409-4.248c-2.509-4.407-5.071-8.914-7.321-13.513a48.577,48.577,0,0,1-2.721-8.091l-.153-.558c-.557-2-1.241-4.42-2.17-7.48l-1.44-4.752a8.485,8.485,0,0,1-4.672,1.692h-.252c-4.135,0-7.181-3.345-9.869-6.292l-.305-.339c-.338-.372-.664-.737-1-1.082-23.88-24.949-54.975-39.464-85.027-51.437-9.7-3.869-20.688-5.4-31.314-6.883l-.3-.04c-3.245-.458-6.471-.9-9.67-1.427-7.978-1.288-15.8-2.117-24.836-3.08-4.274-.451-8.741-.936-13.533-1.493l-3.531-.411,1.951-2.98c5.907-9.06,11.887-13.055,17.92-14.356H316.112l7.56,16.44-25.154,5.051-.133-.657L294.74,89.758H277.185l-41.568,24.278.013-3.856c.033-9.8,1.971-16.194,6.113-20.143,3.538-3.385,8.595-4.872,15.65-4.633q5.794.249,11.575.451l7.639.292.6-.418c1.772-1.195,3.511-2.423,5.25-3.644l.305-.219c5.4-3.81,10.991-7.752,17.057-10.712,5.071-2.469,13.095-3.75,17.986-1.288,12.962,6.531,24.743,3.192,37.214-.352,22.367-6.325,42.6,3.02,59.442,13l6.922,4.1h-56.84c2.15.358,4.314.883,6.491,1.467,9.757,2.642,19.845,4.852,29.595,6.989l.252.053q5.784,1.264,11.568,2.562a10.824,10.824,0,0,0,1.746.186,9.58,9.58,0,0,1,4.573,1c10.493,6.312,21.73,11.913,32.595,17.336,24.663,12.292,50.163,25.008,69.4,47.09,1.188,1.367,1.254,3.265,1.3,4.792l.007.186a14.194,14.194,0,0,0,.1,1.44l.146.949-.6.75a18.252,18.252,0,0,1-2.622,2.734l4.069,2.907c18.3,13.048,26.568,23.19,31.579,38.754,4.374,13.6,10.533,26.893,16.493,39.749l.073.159c5.9,12.73,11.993,25.891,16.4,39.431a247.7,247.7,0,0,1,10.9,100.883,20.038,20.038,0,0,1-1.885,5.874,22.094,22.094,0,0,0-1.294,3.491c15.318,19.8,8,37.493.909,54.6-2.695,6.491-5.429,13.1-6.8,19.626-.4,1.885.219,4.294,1.234,8.283.3,1.188.637,2.5.982,3.962.923-1.712,1.766-3.259,2.549-4.679,2.7-4.9,4.473-8.124,5.422-11.542,7.321-26.09,13.825-54.039,6.139-83.673a144.888,144.888,0,0,1-4.852-40.294c1.248-38.906-11.947-73.452-25.022-102.1-1.978-4.341-3.923-8.708-5.867-13.082l-.392-.889c-13.7-30.849-27.862-62.753-55-85.346-11.987-9.989-25.088-19.135-37.765-27.982-4.52-3.146-8.94-6.239-13.327-9.365-4.181-2.98-8.668-5.721-13.009-8.369l-.856-.531q-1.822-1.115-3.63-2.237l-2.17-1.188-11.17-4.9-9.9-2.476,3.046-6.863,7.5,5.728.71-.153c2.748-.611,6.5-1.44,9.4.418a8.442,8.442,0,0,1,3.4,5.323l.5.033c26.382,1.838,45.451,10.394,60,26.913,4.812,5.476,11.376,9.79,17.708,13.964,2.21,1.453,4.679,3.08,7.049,4.752l.206-.312,1.945,1.805,11.011,11,.657.385,2.389,2.33.026-5.708,11.608,12.219v-3.8l5.8,11.821V172.7l4.633,9.876h-.053l5.369,11.621-5.33.126c3.193,7.394,6.551,14.847,9.8,22.062,8.674,19.287,17.635,39.218,24.411,59.561,5.29,15.909,7.493,33.039,9.624,49.605.664,5.157,1.321,10.2,2.064,15.3,2.522,17.15,4.712,35.568,7.095,59.727,2.894,29.17-3.5,57.464-9.67,84.835l-.378,1.666c-.246,1.122-.5,2.237-.75,3.352l7.487-3.478-.962,9.664-6.8-4.944q-.9,4.022-1.765,8.044l.166.285-.392,1.274-.391.69,1.818-.458.445,1.892H612.1a2.105,2.105,0,0,1-.65,1.3l-.909.889-1.228-.358a2.066,2.066,0,0,1-.9-.5c-.743,1.268-1.493,2.522-2.237,3.783l-.77,1.294c-3.664,6.153-7.818,13.128-11.4,20.157-32.13,63.078-80.527,104.308-147.953,126.058a180.112,180.112,0,0,1-56.037,8.4c-20.422,0-40.26-2.688-61.26-5.535-2.509-.338-4.075-2.5-5.456-4.407-.265-.378-.538-.75-.8-1.1l-.1.013c-16.248,2.768-32.05-.339-49.731-9.757-9.8-5.2-20.263-9.643-30.378-13.937l-2.336-.989L255.323,643.3l7.221,4.394-.73,1.454,16.4,1.5-3.577,8.715-13.725-8.422-.013.04-.285.551L252,648.081c-25.745-6.4-46.818-21.989-64.333-47.627l-1.746-2.549-.5.5-5.788-5.675,2.927-3.172,2.323,1.785,3.65,3.982-1.619,1.606,9.478.285c-1.128-1.288-2.257-2.562-3.392-3.843l-.922-1.042c-6.133-6.942-12.385-14.011-18.152-21.3l-.869-1.089h.02c-3.684-4.792-6.949-9.942-10.121-14.94-1.175-1.865-2.323-3.677-3.491-5.462l-8.363-12.849,11.655,9.969q2.887,2.469,5.748,4.984c5.555,4.845,11.3,9.849,17.309,14.323,3.119,2.323,6.438,4.453,9.723,6.445l-3.319-3.624c-9.67-10.56-19.672-21.484-29.137-32.667-28.48-33.623-43.984-67.811-47.4-104.494a155.362,155.362,0,0,0-3.6-19.958c-.743,8.1.133,15.962,1.221,23.316,1.673,11.184,3.624,22.526,5.515,33.5l4.606,27.026-6.684-13.566c-1.692-3.445-3.63-6.929-5.509-10.307-5.084-9.113-10.254-18.391-11.7-28.26-2.814-19.261-3.524-39.1-4.208-58.28-.279-7.958-.564-16.088-.989-24.053l-.066-1.115-1.035.252-.564-2.277,4.307-1.015.219.942,10.546-7.009v30.823l.7-3.684c.9-4.792,1.819-9.684,2.854-14.469.325-1.487.631-2.98.936-4.473l.046-.2a149.772,149.772,0,0,1,4.38-17.575,89.787,89.787,0,0,0,2.675-11.091C121.4,319.507,123.564,308.522,135.272,301.972ZM597.908,546.819l-8.5-.79,5.137-9.431ZM492.325,650.4l-1.035,8.4-8.934-5.343Zm-12.484,13.944H460.979l16.188-8.761Zm-55.652,4.049,36.218-1.639-2.834,3.743c-3.239,4.274-6.909,6.272-11.562,6.272-3.942,0-8.714-1.5-14.608-4.586Zm1.082,12.916H369.387l-.046-7.254h53.136ZM350.4,675.239l-4.009-.451a7.789,7.789,0,0,1-2.15-.392,3.094,3.094,0,0,1-1.772-2.1l-1.135-2.376,2.522-.909c.232-.053.372-.093.5-.133a4.621,4.621,0,0,1,2.954-.159,3.33,3.33,0,0,1,1.918,2.8,3.944,3.944,0,0,0,.1.418Zm-22.46-5.986H311.273l-.173-7.115,16.52-.757Zm-29.25-12.232-.372,6.75-13.792-.677.352-6.863Zm-175.6-134.872-6.418-3.8c-7.852-4.646-11.562-12.06-11.011-22.028l.438-8.376Zm-9.969-196.563,1.493,9.172L96.392,336.9l-1.785-9.856Zm-.69-5.237,4.9-17.349,2.416,13.48ZM114.146,199l2.257.319a2.849,2.849,0,0,1,2.754,1.639,8.381,8.381,0,0,1,.4,2.3l.365,3.451-7.865-1.254ZM108.8,317.243l-5.336,5.5-1.022-3.717c-.106-.392-.232-.783-.358-1.181a16.994,16.994,0,0,1-.83-3.664,3.789,3.789,0,0,1,1.659-3.06,4.3,4.3,0,0,0,.458-.418l2.661-2.954ZM94.759,216.586l9.77-23.435-2.423,26.668L94.48,217.25Zm-4.666,18.829h6.285v12.126l-6.285-.013ZM69.857,422.228l2.821-1.911,5.29,9.239-4.653.319c-.7.066-1.44.139-2.184.139a10.151,10.151,0,0,1-1.48-.106c-1.168-.179-2.124-1.188-2.708-2.854a2.652,2.652,0,0,1,.378-2.841A12.325,12.325,0,0,1,69.857,422.228Zm-1.447-54.49-1.2-4.951q-.05-.209-.119-.418a6.074,6.074,0,0,1-.418-2.794,5.089,5.089,0,0,1,1.188-2.389c.139-.173.252-.319.345-.458l2.734-4.241,1.248,4.9c.033.113.073.239.119.358l.06.2a5.405,5.405,0,0,1,.392,2.668,5.151,5.151,0,0,1-1.195,2.4c-.153.186-.265.339-.372.484Zm4.546,83,6.7.02v13.1h-6.7Zm6.478,27.756c.093-.119.179-.259.285-.411l.186-.272c.677-1.022,1.706-2.622,3.484-2.111a21.076,21.076,0,0,1,3.7,1.573l3.67,1.772-1.732,2.164c-.106.133-.212.3-.325.471l-.153.212c-.69,1.022-1.473,2.184-2.827,2.184a2.369,2.369,0,0,1-.684-.1,21.219,21.219,0,0,1-3.7-1.58l-3.577-1.752Zm-2.4-64.008c-10.42-5.144-6.458-13.407-3.564-19.46a28.365,28.365,0,0,0,2.549-6.544l.113-.611,4.261.385v7.652l10.354-40.831v85.552Zm2.057-102.3,7.7,5.688-8.96,3.438Zm-11.562.737.883-3.212,2.456,1.3a.63.63,0,0,0,.179.086c.81.339,2.223.923,2.3,2.509a6.289,6.289,0,0,1-.4,2.27l-.869,3.186-2.8-1.44a2.849,2.849,0,0,1-2.144-2.456A6.46,6.46,0,0,1,67.527,312.923ZM63.14,335.641l.086-.06a1.731,1.731,0,0,1,.073-1.573l.511-1.168,1.261-.146a1.707,1.707,0,0,1,1.613.471l.06-.027,1.188,1.566,9.67-5.35V342.73l-15.869-4.6,2.31-1.274Zm-1.566,46.187,5.2-.292.956,11.754-6.153.212Zm-6.265-29.648,5.841-.033v12.219l-3.378-1.175c-.664-.179-2.33-.624-2.4-2.369-.08-1.706-.073-3.445-.066-5.124ZM59.536,409.7l.77.3.557-.757L68.2,414.6l-4.195-1.679L62.2,414.755c-3.6,3.677-5.98,5.25-7.945,5.25a3.592,3.592,0,0,1-1.347-.272c-2.615-1.1-2.555-4.447-2.5-7.686a15.173,15.173,0,0,0-.212-3.883l-5.27-9ZM46.654,466.935l6.093-31.8L50.8,436.571l2.814-5.973,1.181-6.179.942,2.237,3.757,1.334-.139.843a3.467,3.467,0,0,1-.936,2.137l-.657.478L71,462.894l-9.2,4.015-3.63-9.3L54.24,468.449Zm8.555,10.274h6.159v11.4H55.209Zm4.5,22.38,5.416-9.292,2.781,10.4Zm22.964,31.234-.425-10.984-5.449-.757V518.5l-.106-10.6-5.648.06-.166-18.77-6.226-9.836,8.535-3.684,1.274,13.188,6.471,18.205L86.443,519.2l6.318,12.132Zm9.77-29.369-9.564-5.4,11.037-2.8Zm1.58-31.692.664.126-.657-.126.073-.372c.186-.956.372-1.858.458-2.748l.066-.564c-3.431-1.387-5.608-3.431-6.451-6.086-1.527-4.746,1.6-10.128,4.493-14.283l3.445-4.938,2.263,23.966,6.491,20.555-4-1.215C91.713,481.292,93.107,474.356,94.022,469.763Zm179.785,236.08-10.719-6.464-16.606-8.754,20.137-.484-.219,6.245h10.214Zm13.9,4.055a6.761,6.761,0,0,1-2.33-.518,3.3,3.3,0,0,1-1.666-2.4l-.79-2.111,2.1-1.055c.279-.086.418-.139.564-.192,1.148-.405,2.668-.956,3.856.246a4.951,4.951,0,0,1,1.188,2.708l.046.232a2.849,2.849,0,0,0,.08.358l.9,3.266Zm33.457,7.951.153-6.876-.08-.013-.239-.047-1.9-.338.053-.126a1.773,1.773,0,0,1-.929-1.155l-.451-1.195.836-.976a1.792,1.792,0,0,1,1.294-.763v-.1l2.894.5-.119.65,14.9,3.471Zm44.3,11.283a11.172,11.172,0,0,0-.617.949l-.106.179c-.843,1.407-1.792,3.007-3.624,3.206-.153.013-.3.026-.458.026-1.44,0-2.681-.757-4.128-1.633-.69-.418-1.427-.869-2.3-1.314l-6.756-3.471,21.013-1.925ZM594.31,580.024c-5.363,7.918-11.111,15.73-17.177,23.343l5.555-6.743-4.009,11.595a1.789,1.789,0,0,0-.073.3,3.789,3.789,0,0,1-1.579,2.715,6.039,6.039,0,0,1-1.832.657l-6.126,1.254c-.392.458-.77.909-1.155,1.361l2.071-.033-9.876,22.858.139-14.19c-4.832,5.3-9.511,10.135-14.217,14.7l8.788.179-12.245,11.27.066-8.217c-1.553,1.46-3.159,2.934-4.878,4.467a280.387,280.387,0,0,1-72.656,48.212,242.133,242.133,0,0,1-41.853,14.011,231.573,231.573,0,0,1-44,5.17,241.412,241.412,0,0,1-30.876-2.29l-3.146,8.814c-.027.086-.04.186-.06.285a3.477,3.477,0,0,1-1.54,2.469,5.574,5.574,0,0,1-1.673.557l-6.179,1.155,11.475-13.447q-6.173-.9-12.079-2.137c-2.343-.391-4.692-1.029-6.976-1.639-1.308-.352-2.516-.67-3.73-.962-.909-.252-1.765-.471-2.622-.684l-.431-.113a71.629,71.629,0,0,1-7.686-2.243l-20.382-6.943c-33.119-12.73-57.085-24.65-77.733-38.674a337.918,337.918,0,0,1-65.76-56.229c-3.252-3.392-6.226-7.128-9.086-10.745l-.431-.544c-1.414-1.779-2.834-3.551-4.274-5.283l-3.033-4.095c-3.239-4.38-6.6-8.914-9.591-13.613a209.12,209.12,0,0,1-16.765-29.535l-6.869-6.531,5,2.3c-.611-1.427-1.195-2.861-1.746-4.261l-.239-.6,3.969-1.785.285.577c1.56,3.073,3.279,6.246,5.124,9.425a3.51,3.51,0,0,1,2.336,1.739,5.057,5.057,0,0,1,.392,1.546l.192,1.606c4.215,6.816,8.98,13.725,14.582,21.126,3.159,4.327,6.67,8.489,10.075,12.511l3.219,3.83c1.7,1.765,3.465,3.723,5.018,5.449,3.026,3.332,6.066,6.7,9.325,9.683a357.088,357.088,0,0,0,65.786,51.676c21.053,13.115,45.769,24.683,75.576,35.356l19.924,6.517a58.51,58.51,0,0,0,6.677,1.925l.431.106c.936.219,1.865.445,2.8.7,1.155.272,2.383.591,3.611.916,1.945.511,4.148,1.1,6.245,1.427a212.977,212.977,0,0,0,40.745,3.982,216.425,216.425,0,0,0,40.552-4.493,240.355,240.355,0,0,0,38.986-12.69c23.8-10.2,47.316-25.028,69.895-44.077A374.248,374.248,0,0,0,585.815,574c19.181-25.38,32.608-49.287,41.044-73.1l.219-.6,4.155,1.241-.146.624c-3.073,12.75-8.038,25.984-15.179,40.453a336.294,336.294,0,0,1-21.6,37.406Z" transform="translate(150.36 105.708)"/><path class="a" d="M124.05,129.944l8.8-11.666-8.773,4.216Z" transform="translate(603.066 577.02)"/><path class="a" d="M95.872,118.69c-.438,0,.438.013,0,0Z" transform="translate(457.365 579.756)"/><path class="a" d="M60.7,54.589l-2.564.024.015,4.85Z" transform="translate(263.105 248.627)"/><path class="a" d="M119.273,126.4l-1.468-.018.024,1.468Z" transform="translate(571.217 619.379)"/><path class="a" d="M77.176,126.463,66.362,115.625l3.609,10.616Z" transform="translate(305.343 563.379)"/><path class="a" d="M89.518,208.5c16.387,8.144,33.564,15.438,50.176,22.5,6.591,2.8,13.175,5.6,19.732,8.456l.644.279.723.033c3.571.153,7.141.259,10.719.358,8.529.239,17.336.491,25.951,1.513,39.829,4.712,80.2-4.274,123.4-27.53,29.727-16.029,56.627-40.745,79.943-73.479,7.453-10.467,14.595-22.009,17.1-35.814a60.572,60.572,0,0,0-5.568,7.447L411.15,114c-22.38,32.794-47.747,69.955-90.1,92.335C244.3,246.877,169.806,246.472,93.281,205.13c-7.361-3.976-15.212-7.394-22.812-10.706l-.631-.266.186.146C76.151,199.562,82.483,205,89.518,208.5Z" transform="translate(308.736 500.866)"/><path class="a" d="M88.94,137.673,73.914,117.928l-8.582-.3C70.224,125.587,77.252,134.368,88.94,137.673Z" transform="translate(299.676 573.231)"/><path class="a" d="M122.22,59.406l.006-4.8-2.523-.018Z" transform="translate(580.964 248.645)"/><path class="a" d="M120.169,125.511l-1.492-.006.012,1.486Z" transform="translate(575.718 614.867)"/><path class="a" d="M71.715,164.405c5.416-14.708,11.018-29.92,17.5-44.468,6.75-15.126,15.265-29.727,23.489-43.851,4.128-7.082,8.4-14.409,12.385-21.7a57.317,57.317,0,0,0,3.5-8.515c.073-.2.139-.4.206-.6-16.493,11.064-25.148,28-30.9,41.767C88.7,109.1,79.54,131.611,70.687,153.388c-10.44,25.665-21.232,52.2-32.176,78.171C24.9,263.842,21.187,292.208,26.8,320.841c3.3,16.818,4.832,34.241,6.312,51.1.611,6.936,1.221,13.878,1.951,20.8C39.1,431.049,53.238,466.464,78.2,500.678q-.647-1.732-1.288-3.485c-4.507-12.186-9.166-24.8-15.431-36.225-11.754-21.431-18.371-43.061-20.23-66.132A483.164,483.164,0,0,0,34.7,346.5c-8.582-46.957-3.312-89.574,16.108-130.272C58.806,199.462,65.37,181.642,71.715,164.405Z" transform="translate(96.987 185.852)"/><path class="a" d="M40.937,45.146,40.661,50.7l4.922-7.839L40.941,45.14v0Z" transform="translate(172.842 188.031)"/><path class="a" d="M40.7,43.209h0v0h0Z" transform="translate(173.133 189.94)"/><path class="a" d="M73.959,156.163c-10.765-10.925-22.128-21.65-33.112-32.011-1.248-1.188-2.5-2.369-3.757-3.557,8.695,14.668,21.683,25.812,34.307,36.637q3.056,2.628,6.1,5.263l-.013-.04.305.279A19.413,19.413,0,0,0,73.959,156.163Z" transform="translate(153.886 587.286)"/><path class="a" d="M144.2,138.781l.081-.048-15.729.078-5.464,10.131.258,2.252,20.882-12.413Z" transform="translate(597.453 672.396)"/><path class="a" d="M126.3,138.781l.08-.048h-.027l-.081.048Z" transform="translate(615.008 672.396)"/><path class="a" d="M47.5,141.057l-4.46-13.646-4.712-4.652-7.964-3.889C33.166,128.154,37.54,136.809,47.5,141.057Z" transform="translate(131.235 579.507)"/><path class="a" d="M44.893,131.165l-3.462-3.449-.581-.579-5.727-2.828,8.63,13.564Z" transform="translate(158.086 608.031)"/><path class="a" d="M36.322,130.271l4.2,4.182,7.084-.437L36.34,123.381Z" transform="translate(150.357 603.378)"/><path class="a" d="M119.747,141.363l-.09,6.758,6.884-3.4-3.4-3.343Z" transform="translate(580.498 687.218)"/><path class="a" d="M121.421,142.242l1.725-.868-1.7.006Z" transform="translate(589.875 687.279)"/><path class="a" d="M31.938,118.725l0,1.258.6.006-.006-.012h.009Z" transform="translate(140.118 579.871)"/><path class="a" d="M132.765,142.916h.641l-.21-.533Z" transform="translate(648.506 692.968)"/><path class="a" d="M409.677,212.107a31.433,31.433,0,0,0-2.807,4.533c-1.234,2.615-2.754,5.263-4.221,7.825-4.195,7.327-8.164,14.25-6.212,20.615,1.354,4.414,5.489,8.256,12.65,11.761,1.911.942,2.489,4.586,2.509,4.732.212,1.361.027,2.263-.577,2.834-6.83,6.531-4.062,12.026-.87,18.391,1.958,3.9,3.989,7.938,3.591,12.285-.119,1.307-.192,2.675-.272,4.075-.325,5.827-.657,11.847-3.909,15.67-3.478,4.1-3.63,8.237-3.783,12.624a31.494,31.494,0,0,1-.816,7.161c-8.8,32.422-18.683,60.331-50.641,73.519l-1.765,1.706-.126-.923-3.863,1.586,3.5-4.221-1-7.155-.126.106c-12.265,9.962-23.854,19.393-41.329,11.714l-2.27-.989,1.9-1.593c1.8-1.48,3.5-2.98,5.184-4.447a115.988,115.988,0,0,1,10.739-8.661c50.521-34.466,67.366-81.005,53.01-146.453-4.288-19.579-2.788-40.632-1.341-61,.63-8.834,1.274-17.973,1.44-26.834a5.718,5.718,0,0,1,.83-2.668l-.013-.007.053-.073.027-.06c-11.117-1.805-15.471-11.449-19.334-20.031l-.073-.173c-15.584-34.626-40.533-57.192-74.149-67.081-3.989-1.168-7.978-2.383-11.98-3.6-35.621-10.832-72.463-22.042-110.587-3.7-10.234,4.931-16.891,8.542-23.024,17.07-4.945,6.869-11.854,12.338-18.544,17.621-3.936,3.119-8.011,6.345-11.615,9.8-18.61,17.867-29.674,36.982-33.822,58.433a104.325,104.325,0,0,1-5.1,16.433c-2.011,5.422-4.088,11.024-5.091,16.652-6.936,39.1-3.757,72.848,9.723,103.16,1.526,3.438,3.013,6.883,4.5,10.321,7.692,17.82,14.96,34.652,27.484,50.176C134.923,397.155,168.645,416,213.7,422.588c31.028,4.533,59.521-3.332,86.023-11.8l.916-.292.657.7c3.266,3.425,3.763,7.971,4.2,11.98.617,5.668,1.069,9.79,7.984,10.493l5.708-2.847-2.509,3.119,2.1.173-4.082,2.316c-3.816,4.712-7.507,6.79-11.336,6.5-4.553-.4-8.854-4.188-13.951-12.445v17.031L247.62,456,245.5,449.05l13.546-6.232-.471-2.661-29.827,2.137.644,14.628-28.831-19.938c-.3,1.208-.544,2.423-.79,3.617-.8,3.949-1.493,7.361-3.876,8.628-11.708,6.206-19.135-1.44-24.856-9.737l-.6-.869,5.641-8.2c-2.442-1.015-4.865-2.051-7.3-3.08-7.646-3.245-15.564-6.6-23.475-9.484a118.236,118.236,0,0,0-14.675-3.916c-2.96-.664-6.206-1.394-9.863-2.31l-.438-.106L71.857,360.479l.013.06-.192-.213c.06.385.119.763.179,1.148.9,5.847,1.759,11.376,4.513,15.63,24.776,38.336,55.818,62.747,94.91,74.634C207.7,462.809,243.525,472.127,281,464.654a12.071,12.071,0,0,1,7.029,1.055l.04-.026.027.02c4.088-2.1,7.772-4.022,11.19-5.794,7.048-3.664,12.956-6.737,18.922-9.664,60.682-29.774,95.1-79.758,102.3-148.557,2.144-20.482-.823-41.926-3.7-62.674-1.221-8.807-2.476-17.907-3.338-26.834a18.17,18.17,0,0,0-1.858-.73c-.385-.139-.783-.285-1.175-.431C410.188,211.384,409.936,211.742,409.677,212.107Zm-257.458,168.7a3.062,3.062,0,0,1-2-.67l-.358-.445-2.13-2.409-4.307-3.969,8.17-3.4-.71,7.075,2.2.9Zm-1.367-13.646-1.215-.617c-14.781-7.473-22.825-19.36-31.8-34.128-1.4-2.3-2.827-4.56-4.254-6.823-6.126-9.7-12.464-19.739-15.292-31.493-2.144-8.9-3.816-18.053-5.436-26.9-.69-3.757-1.374-7.513-2.1-11.256l-.445-.345.007-.033-6.63-5.4,5.681.929a4.212,4.212,0,0,0,.524.04,4.193,4.193,0,0,1,1.679.338L102.447,222.7,75.574,200.917,96.3,180.455l-10.54-9.292,9.431-24.073,23.827,7.646a32.236,32.236,0,0,1-.066-7.115c.239-3.843.465-7.46-1.533-9.67-1.513-1.673-4.274-2.562-8.449-2.721l-1.653-.066.186-1.639c1.9-16.672,13.414-24.55,23.575-31.493l2.064-1.42c15.929-11,33.9-20.973,54.955-30.451,10.155-4.58,23.429-2.841,28.652-1.872,11.044,2.031,22.075,5.3,33.756,8.761,5.263,1.56,10.745,3.179,16.566,4.805l6.564,1.819-6.71,1.161c-50.926,8.841-55.486,9.637-71.043,2.31l5.874,9.006-33.285,9.77-46.32,51.211-5.668,32.422-.737.332c-2.11.969-3.949,1.108-5.449.412-2.555-1.195-3.4-4.274-4.228-7.261-.584-2.091-1.241-4.48-2.316-4.818-.431-.12-1.732-.173-4.838,2.323l-.305,1.566c-1.527,7.759,3.989,10.805,9.816,14.037,1.281.7,2.542,1.407,3.71,2.15l.783.485-.066.916c-6.491,90.848-1.659,100.04,44.309,156.1l.723.876ZM84.932,222.919,90.979,222l2.615,13.964-6.737,1.082ZM236.2,114.888l-5.263,1.653-1.692-6.425,2.223.239c.2.027.411.033.624.04a5.322,5.322,0,0,1,2.25.445,2.714,2.714,0,0,1,1.268,2.124,3.97,3.97,0,0,0,.106.445Zm47.11,272.551q-3.3,1.1-6.584,2.217c-2.4.823-5.057-1.115-7.892-3.173-.843-.611-1.679-1.214-2.482-1.726-24.239,13.553-50.787,13.314-73.824,11.037l8.1,16.712-23.2-14.363,11.933-4.42c-.312-8.927-4.6-13.865-13.1-15.106-7.4-1.082-10.692-5.031-10.062-12.066l-5.33-1.726,5.5-5.807,1.971,5.323c.212-.033.425-.06.63-.1,1.586-.246,3.372-.524,4.759.338,27.464,16.845,57.935,17.794,91.923,17.263l.617-.007c1.228-.816,2.442-1.659,3.657-2.5,2.967-2.044,6.04-4.161,9.245-5.987,4.1-2.323,8.363-4.507,12.484-6.617,7.6-3.9,15.458-7.925,22.393-12.9,31.38-22.473,37.055-54.663,35.92-96.078a124.428,124.428,0,0,0-2.157-17.4q-.309-1.792-.611-3.571a96.86,96.86,0,0,0-19.984,42.683,5.2,5.2,0,0,0,.75-.212,4.806,4.806,0,0,0,.544-.677,5.4,5.4,0,0,1,1.427-1.5,31.608,31.608,0,0,1,3.471-1.858l3.438-1.732.113,2.369c1.971,42.238-16.075,65.926-52.167,68.607l-.033.617-.478-.438c-9.816,12.564-23.256,12.624-36.258,12.657-5.88.013-11.947.026-17.429,1.274-6.219,1.407-13.294-1.951-20.143-5.2-.5-.246-1.022-.491-1.546-.73l-7.626-2.841-.04.013V349.8l-17.077-6.358-1.308-.869,1.115-1.122,4.971-7.015-8.522-1.978.047,5.615-1.8-.292c-23.031-3.83-35.349-23.548-40.639-34.964-16.9-36.471-31.38-75.649-7.1-118.279l.863-1.513,1.394,1.055c11.6,8.787,7.606,20.98,4.958,29.044l-.259.79c-7.613,23.349-2.522,45.125,2.874,68.163l.352,1.5a8.466,8.466,0,0,0,2.243,3.371,55.831,55.831,0,0,0-.5-6.126c-.79-6.637-1.679-14.13,5.416-19.878l-.033-.066.617-.425c-.491-3.113-1.062-6.226-1.639-9.338-1.44-7.838-2.934-15.942-3.066-24.006a35.374,35.374,0,0,0-1.507-7.872c-1.44-5.409-2.927-11-.166-15.75,1.779-3.046,5.071-5.257,10.055-6.723-.007-.126-.013-.252-.027-.392-.212-3.285-.65-10.108,2.482-15.272l1.812-2.993,8.714,30.311,1.845-24.909,6.438.166-.02,13.885c-.013,9.139-.033,18.278.04,27.411.232,30.132,9.584,38.893,41.648,53.382,24.5,11.057,45.849-1.447,59.441-13.885,9.172-8.389,19.553-19.984,19.779-35.973-3.252,2.442-5.436,6.219-7.732,10.181-4.248,7.347-9.053,15.683-21.955,18.77l-3.358.8,27.982-51.218.272.717-7.015-32.96L265.46,164.393l3.318-1c6.106-1.858,10.407-1.759,13.135.312,2.356,1.772,3.438,4.8,3.418,9.5l8.416,3.644.007-.033.02.013.757-8.31c-.119-.226-.246-.451-.372-.677a14.668,14.668,0,0,1-1.5-3.305c-.305-1.108.478-1.865,1.334-2.509-6.551-9-16.221-11.655-26.442-14.462-6.159-1.7-12.531-3.445-18.146-6.717-14.721,13.5-29.953,8.5-43.413,4.075-2.509-.83-4.971-1.639-7.387-2.316L165.36,158.327l8.973-18.517-28.1,26.668L145.2,165.1c-3.969-5.336-5.449-10.042-4.533-14.376.883-4.181,4.068-7.845,9.464-10.891,6.172-3.484,12.378-6.9,18.584-10.321l8.422-4.646,10.5-5.057-1.022,1.659,3.358-2.343c4.613-3.226,9.478-6.033,13.493-4.792,2.21.677,3.942,2.449,5.27,5.4l.046-.02.4,1.042,31.785,4.673,8.144-35.548L275.8,95.965l-2.841-9.391,1.752-.266c19.028-2.914,32.1,8.037,43.858,19.486,36.013,35.07,51.636,76.32,46.42,122.6-.173,1.56-.365,3.133-.557,4.7-1.752,14.309-3.411,27.816,6.318,40.094,1.825,2.31,3.378,6.378,2.668,9.372-1.268,5.316-2.343,10.878-3.392,16.248-2.8,14.416-5.695,29.329-12.584,41.94-7.367,13.46-23.236,22.951-37.247,31.32C308.773,378.89,295.831,383.237,283.314,387.438Zm-64.7-200.532-13.739,2.064.67-2.3c3.6-12.332,4.321-12.776,19.314-12.206l2.489.093-6.1,11.011,11,10.978L220.541,203.9c-1.228,1.115-2.409,2.336-3.577,3.551-2.788,2.867-5.668,5.834-9.232,7.586a130.573,130.573,0,0,1-17.655,6.584c-2.841.916-5.814,1.865-8.927,2.947l-2.038.7V188.539l4.261-1.082.657,1.48,3.81,17.854c4.978,1.54,9.073-1.1,13.427-3.9,5.024-3.239,10.666-6.869,17.416-2.628Zm42.975,11.7c2.648,1.852,4.341,4.984,5.164,9.6h10.553l-2.429,7.3-10.022-5.21-33.4-10.274,8.867-1.659C249.518,196.623,256.779,195.236,261.591,198.607Zm-18.776-24.139,7.194.71-4.241,6.252Zm7.971-16.287,5.2-1.115,2.383,3.883-2.754.531a7.606,7.606,0,0,1-1.726.252l-.226-.007c-1.108-.06-1.54-1.029-1.792-1.606ZM261.179,264.52l-1.746.365c-.664.133-1.307.305-1.945.471a17.648,17.648,0,0,1-4.434.77,6.537,6.537,0,0,1-.876-.053c-1.553-.166-2.038-1.878-2.6-3.869-.166-.571-.325-1.155-.5-1.619l-.551-1.44,9.345-3.484Zm-59.787-14.137c-6.982.4-15.7.876-16.652-15.624l-.212-3.723,17.88,16.1,20.031-30.491,1.175,2.422c4.088,8.356.664,15.756-2.363,22.281-3.126,6.743-5.827,12.577-1.175,18.962l.007.007,12.6-2.894-2,14-11.323-8.668-.557-.013c-1.161-.033-2.4.027-3.63.066-4.633.186-9.418.345-12.106-2.867-1.732-2.064-2.243-5.21-1.566-9.571Z" transform="translate(270.863 229.592)"/><path class="a" d="M87.548,97.509l.08.425-3.259-3.086L74.9,89.81c2.277,9.365,6.929,15.438,14.429,18.843l-.491-9.584Z" transform="translate(349.296 429.881)"/><path class="a" d="M86.321,105.994c-4.228-5.88-7.341-12.617-10.281-19.221L80.294,110l1.931,1.892-.007-.1,2.25,2.3.358.259c1.208.856,2.442,1.679,3.677,2.509a81.607,81.607,0,0,1,7.805,5.7c32.522,28.008,65.607,31.1,100.923,9.345a77.453,77.453,0,0,0-11.4,2.894C149.459,147.681,107.612,135.582,86.321,105.994Z" transform="translate(351.317 412.598)"/><path class="a" d="M80.949,69.808l1.737-1.65-2.312,4.625,19.453-7.875-15.313-.863Z" transform="translate(377.334 297.333)"/><path class="a" d="M115.667,87.488l-2.325-11.149L96.777,84.4l.024.06,4.823,12.923Z" transform="translate(461.918 360.36)"/><path class="a" d="M128.74,94.472l-6.119,5.854-1.958-6.046-12.909,1.8,10.706,12.956-.783.969C96.3,136.757,80.88,169.962,70.526,211.51c-1.414,5.668-4.812,10.805-8.091,15.77-1.108,1.673-2.243,3.392-3.292,5.111.106.757.239,1.507.378,2.263a22.389,22.389,0,0,1,.544,6.252c-4.746,46.751-1.1,84.271,11.449,118.073.883,2.389,1.613,4.931,2.316,7.4,2.635,9.219,5.137,17.96,15.776,20.389l-1.122-3.816c-1.447-4.971-2.9-9.942-4.453-14.88q-4.649-14.8-9.338-29.581Q68.611,319.3,62.582,300.075a12.864,12.864,0,0,1-.372-6.544c3.717-15.65,5.754-31.971,7.726-47.767,3.239-25.931,6.591-52.738,17.429-77.388,7.719-17.548,17.429-35.03,36.046-44.044,4.208-2.038,7.453-4.639,7.56-6.053,1.321-17.236,12.982-25.134,24.265-32.774,5.29-3.584,10.765-7.288,14.92-11.887,3.139-3.471,7.925-5.31,10.493-6.093,24.856-7.573,49.068-3.119,67.572,1.772l10.035-12.531,1.168,1.706c17.741,25.772,40.944,31.247,72.835,17.11-40.552-17.94-79.054-26.86-117.6-27.272l-3.086-.033.524-.677-1.321.007-85.93,45.311Z" transform="translate(254.146 202.952)"/><path class="a" d="M112.531,65.932c13.181,14.031,24.285,29.946,35.017,45.338,6.8,9.743,13.832,19.825,21.292,29.289,5.522,7,5.21,14.986-.869,23.19,5.854,3.226,5.562,8.861,5.3,13.9-.146,2.861-.285,5.562.617,7.752,4.1,9.856,7.334,17.635,18.9,19.214-4.2-31.254-11.223-67.18-30.411-98.806-16.115-26.562-36.743-44.5-61.386-53.388l.339.418C104.912,57.224,108.615,61.757,112.531,65.932Z" transform="translate(480.171 233.707)"/><path class="a" d="M171.494,119.738c-10.268-24.013-29.621-43.081-53.11-52.333-5.615-2.21-11.635-3.3-18.013-4.453-2.409-.438-4.832-.876-7.261-1.381-.445,13.633,4.009,20.475,14.7,22.758,14.15,3.027,25.553,12.146,33.909,27.106,7.5,13.453,14.1,27.67,20.489,41.409,2.482,5.356,4.978,10.7,7.526,16.022l1-.823-.518,1.838c.119.252.232.5.352.75l3.511,7.314L172,176.014l2.681,7.427C181.669,163.443,180.574,140.99,171.494,119.738Zm-12.159,6.9-1.925-9.982,5.356.458Z" transform="translate(439.95 281.255)"/><path class="a" d="M88.1,102.272l.106-.146,1.261.046c3.192,1.055,6.491,2.462,9.683,3.823,7.52,3.219,15.285,6.531,21.4,4.991a59.089,59.089,0,0,1,11.323-1.274c11.449-.591,22.281-1.142,24.431-15.916-2.509.3-5.018.624-7.533.942C127.636,97.454,105.8,100.268,85.657,89c-2.416,3.352-5,7.586-3.982,10.042C82.312,100.566,84.469,101.648,88.1,102.272Z" transform="translate(380.816 425.554)"/><path class="a" d="M94.136,137.129l2.257,4.586c.843-.186,2.263-.584,3.65-.962,1.029-.292,2.2-.611,3.471-.956-19.765-15.7-21.458-36.57-20.489-60.2C75,88.864,76.163,96.278,78.214,101.826,82.674,113.879,88.5,125.693,94.136,137.129Z" transform="translate(358.205 375.654)"/><path class="a" d="M93.657,116.293c.259.02.524.046.79.06,3.425.272,6.949.531,8.615-.81,10.467-8.476,16.825-18.955,18.969-31.221Z" transform="translate(445.443 401.081)"/><path class="a" d="M97.815,107.175c-1.354,1.8-1.533,4.726-1.719,7.832l-.007.126c12.192-7.268,18.046-15.683,18.544-26.721Q113.319,89.786,112,91.16A180.482,180.482,0,0,0,97.815,107.175Z" transform="translate(458.385 422.362)"/><path class="a" d="M103.92,91.067l3.445-12.146C103.21,82.631,102.652,84.6,103.92,91.067Z" transform="translate(496.308 373.977)"/><path class="a" d="M99.342,108.623l8.363-13.587-7.189-3.283Z" transform="translate(475.595 439.976)"/><path class="a" d="M91.793,66.431l.516-.036-.054-.2Z" transform="translate(436.94 308.68)"/><path class="a" d="M85.628,66.457h0Z" transform="translate(405.127 310.024)"/><path class="a" d="M88.117,66.529l.006-.117-1.552-.072Z" transform="translate(409.943 309.418)"/><path class="a" d="M83.732,98.508l1.3-.312-1.24-.491Z" transform="translate(395.289 471.354)"/><path class="a" d="M100.177,84.736v0Z" transform="translate(480.255 404.401)"/><path class="a" d="M133.687,142.776l-.226.153c.026.279-.02.557-.013.836h.63Z" transform="translate(637.124 695.184)"/><path class="a" d="M68.07,152.159a14.5,14.5,0,0,0-4.453,1.248l3.119,2.4,3.073-2.25A6.441,6.441,0,0,0,68.07,152.159Z" transform="translate(291.301 748.076)"/><path class="a" d="M30.293,132.117l1.1,2.548,4.341-1.805a7.893,7.893,0,0,0-2.814-1.872,7.526,7.526,0,0,0-2.27.936C30.532,131.991,30.412,132.057,30.293,132.117Z" transform="translate(130.863 628.72)"/><path class="a" d="M156.679,69.857a9.2,9.2,0,0,0-.491-1.234c-.119.04-.246.086-.372.133Z" transform="translate(763.214 321.174)"/><path class="a" d="M154.289,60.2a9.668,9.668,0,0,0-1.241.485c.04.119.093.252.133.378Z" transform="translate(747.61 277.702)"/><path class="a" d="M151.336,55.537l1.1-.856a8.69,8.69,0,0,0-1.235.485C151.243,55.285,151.3,55.411,151.336,55.537Z" transform="translate(737.21 249.194)"/><path class="a" d="M154.649,113.588l-.533.209.533.431Z" transform="translate(753.631 553.378)"/><path class="a" d="M143.575,136.308v-.635l-.533.21Z" transform="translate(691.207 655.146)"/><path class="a" d="M46,143.3l.869,1.108a10.389,10.389,0,0,0-.491-1.248Z" transform="translate(200.477 697.349)"/><path class="a" d="M46.8,144.271c.418.339.83.664,1.254.949l.046-.053-.989-1.208Z" transform="translate(204.621 701.853)"/><path class="a" d="M48.072,145.882l-.06-.046-1.208.976.319.319C47.461,146.705,47.78,146.294,48.072,145.882Z" transform="translate(204.616 712.433)"/><path class="a" d="M54.478,147.675l-1.215.982.319.319c.339-.418.664-.83.949-1.248Z" transform="translate(237.967 722.8)"/><path class="a" d="M46.8,148.879c.418.332.83.657,1.254.942l.046-.053-.989-1.208Z" transform="translate(204.621 727.789)"/><path class="a" d="M60.765,153.421l.869,1.108a8.876,8.876,0,0,0-.484-1.248Z" transform="translate(276.712 754.407)"/><path class="a" d="M45.758,19.725l-.533.213.533.431Z" transform="translate(196.473 75.489)"/><path class="a" d="M30.96,122.961l-.881-.875v.875Z" transform="translate(129.657 597.249)"/><path class="a" d="M39.307,132.209v.875h.878Z" transform="translate(165.914 635.617)"/><rect class="a" width="0.729" height="0.023" transform="translate(296.229 97.532)"/><path class="a" d="M203.373,453.4c-1.374,6.9-3.471,10.52-6.557,11.356-4.487,1.241-8.894-3.863-13.174-8.781a107.647,107.647,0,0,1-7.58-10.254c-3.783-5.562-7.354-10.825-12.192-14.548-3.856-2.953-6.345-7.022-8.754-10.951-3.458-5.648-6.73-10.984-13.725-12.6l-2.057-.471,1.088-1.812a17.381,17.381,0,0,0,.79-1.573c.684-1.467,1.454-3.126,2.947-3.9a9.953,9.953,0,0,1,3.319-.776,8.085,8.085,0,0,0,2.018-.392,14.561,14.561,0,0,0-1.473-2.4q-16.785-22.54-33.776-44.92l-11.409-15.119c-.757.843-1.553,1.779-2.343,2.715-3.916,4.633-6.265,7.2-8.555,6.4-3.962-1.4-6.5-3.717-7.553-6.909-1.467-4.467.133-10.248,4.752-17.19-1.308-12.425-15.763-51.968-23.595-61.91-.5-.631-1.015-1.254-1.52-1.865-3.332-4.062-6.776-8.243-5.675-15,.007-.471-1.195-1.832-1.845-2.562l-.013-.013a9.76,9.76,0,0,0-.936,2.608c-.644,4.128-1.135,8.276-1.633,12.431l-1.108,9.066-2.283-3.491c-1.035-1.573-2.184-3.113-3.332-4.653-2.6-3.478-5.27-7.068-6.69-11.157-2.071-5.92-3.033-12.172-3.962-18.219-1.381-8.993-2.807-18.292-7.938-26.469-2.515-4.009,2.98-12.955,4.108-14.708,2.442-3.8,4.759-5.449,6.962-4.891,2.177.564,3.385,3.119,3.7,7.805a6.118,6.118,0,0,0,1.381,2.5,8.936,8.936,0,0,0,1.4-1.779c-.836-3.026-1.938-6.338-3.007-9.537-.982-2.954-2-6.007-2.827-9.086-.6-2.217.916-4.6,2.383-6.9,1.009-1.593,2.389-3.757,1.951-4.58-.179-.332-1.208-1.414-6.949-1.493l-2.515-.033,1.188-2.217c.259-.5.491-1.035.717-1.58a9.773,9.773,0,0,1,2.515-3.956,15.788,15.788,0,0,1,3.372-2.038,13.971,13.971,0,0,1-4.361-1.958c-1.367-1.009-1.434-2.94-1.493-4.805a16.2,16.2,0,0,0-.133-1.951c-.305-1.845-.657-3.684-1.015-5.529a94.008,94.008,0,0,1-1.792-12.139,77.2,77.2,0,0,1,.206-9.358c.325-5.217.631-10.141-.8-14.482-1.493-4.533-5.044-8.429-8.8-12.551-1.234-1.354-2.5-2.748-3.69-4.161-1.221,1.394-2.482,2.768-3.743,4.142-3.889,4.234-7.9,8.622-10.633,13.513-1.467,2.622-.385,7.334.571,11.5l.445,1.965a28.29,28.29,0,0,0,2.111,5.588,23.024,23.024,0,0,1,2.542,7.865c.119,1.752.113,3.551.106,5.336-.033,7.9-.066,14.15,10.672,15.239l1.513.153-.139,1.513c-.226,2.482,1.334,5.071,2.98,7.825,3.2,5.323,7.181,11.953-3,19.055-2.336,1.639-3.856,7-4.161,14.728-.153,3.836-.7,7.759-1.234,11.548-1.779,12.677-3.458,24.657,8.23,34.951,1.978,1.746,2.2,4.819,2.423,7.8.166,2.283.345,4.652,1.281,6.086,1.069,1.619,3.372,3.046,5.6,4.427,3.02,1.865,5.874,3.624,5.973,6.245.358,9.949,4.672,13.7,13.6,17.9,5.9,2.788,9.756,5.243,10.706,8.9,1.009,3.876-1.341,8.077-6.65,15.471l-.352.5c-1.307,1.812-4.779,6.63-4.208,7.918,1.653,3.71,3.173,7.526,4.686,11.343,5.774,14.528,11.741,29.555,26.044,38.74a11.972,11.972,0,0,0,1.765-.876,11.854,11.854,0,0,1,3.81-1.56c10.52-1.46,20.847,4.606,24.358,11.024,2.124,3.876,1.872,7.692-.723,10.759-8.144,9.617-4.341,16.9-.325,24.617,2.316,4.434,4.706,9.013,4.745,14.057a17.819,17.819,0,0,0,5.708,2.509c4.248-4.175,8.011-4.42,10.42-3.863,4.5,1.029,7.414,5.283,8.548,8.615,3.265,9.67,11.237,14.966,19.679,20.575,9.431,6.272,19.181,12.756,21.584,25.765a2.975,2.975,0,0,0,.531.246c10.573-7.2,20.648-4.228,28.5-.392.246-.392.511-.79.777-1.195.723-1.1,1.925-2.92,1.746-3.531-1.9-6.272-4.228-11.037-7.108-14.562C209.6,452.5,205.005,452.895,203.373,453.4ZM16.54,103.474c.365-.186.73-.385,1.1-.591a12.812,12.812,0,0,1,3.358-1.447c1.248-.272,2.124.757,2.867,1.666.192.239.385.471.564.657l1.513,1.5-1.9.956c-.358.179-.717.378-1.069.577a12.843,12.843,0,0,1-3.392,1.46,1.936,1.936,0,0,1-.425.046c-1.042,0-1.785-.9-2.442-1.712-.192-.239-.385-.471-.564-.657l-1.52-1.507Zm4.892,29.873-6.743-3.71,1.454-1.447c.179-.186.372-.418.564-.657.75-.916,1.606-1.912,2.867-1.666a12.813,12.813,0,0,1,3.358,1.447c.372.206.73.4,1.1.591l1.918.949ZM126.151,389.358a8.668,8.668,0,0,0-.657.577l-1.44,1.44-3.73-6.73,4.5-4.493.956,1.9c.179.365.385.723.584,1.088a12.753,12.753,0,0,1,1.454,3.352C128.1,387.765,127.066,388.615,126.151,389.358Z" transform="translate(-6.012 344.745)"/><path class="a" d="M133.713,30.141a14.887,14.887,0,0,0-.843-1.354,11.07,11.07,0,0,0-1.188,2.389c-.385.976.577,4.168,1.241,5.641,5.5-.285,8.462,4.215,11,8.177,3.518,5.476,6.006,8.681,12.5,6.053,3.823-1.546,11.416,10.706,11.489,10.832,3.936,6.83,6.418,12.929,7.58,18.657.166.816,3.246,2.535,4.9,3.458,3.677,2.057,7.155,4,6.743,6.9-.339,2.429-3.279,4.208-10.015,5.967l.046.093a9.322,9.322,0,0,0,1.374,2.124c.777.007,1.819.02,2.854.027,3.737.046,7.606.1,9.929,2.781,1.686,1.938,2.23,4.951,1.672,9.192-.438,3.352-.438,3.352,9.823,6.219l1.945.538c2.389.644,4.865,1.307,5.369,3.153,3.511,12.8,11.675,22.194,20.309,32.137l2.973,3.438c3.518,4.1,5.973,7.221,7.772,9.5,4.533,5.768,4.825,6.226,8.86,6.192.206-.007.4-.007.6-.007,7.779,0,13.812,1.978,19.48,6.385a45.539,45.539,0,0,0,4.228-1.9c.976-.478,2.024-.976,3.106-1.454-1.9-2.827-3.657-5.5-5.316-8.037A191.3,191.3,0,0,0,260.726,151c-5.628-6.9-11.568-13.739-17.316-20.356-6.372-7.341-12.956-14.927-19.155-22.626-.113-.139-10.964-14.256-7.666-18.119,1.8-2.117,2.582-3.869,2.316-5.217-.245-1.268-1.447-2.416-3.79-3.624C206.037,76.348,200.349,68.6,194.86,61.1c-3.3-4.493-6.7-9.139-10.759-12.956l-.518-.485.027-.71c.365-7.745-4.347-9.265-12.053-11.1-6.013-1.427-12.743-3.033-14.164-10.314-.451.4-.916.81-1.367,1.215a66.911,66.911,0,0,1-9.71,7.546c-1.659.982-3.757.378-5.774-.212a14.216,14.216,0,0,0-3.173-.677C135.6,33.367,134.6,31.648,133.713,30.141Zm75.251,72.3c.372-.179.737-.385,1.1-.584a12.857,12.857,0,0,1,3.365-1.447c1.281-.3,2.111.75,2.854,1.659a7.387,7.387,0,0,0,.564.657l1.46,1.447-6.756,3.723-4.507-4.5Z" transform="translate(626.672 108.238)"/><path class="a" d="M29.517,181.933c2.35,1.7,3.75,2.993,4,4.526.219,1.407-.551,2.456-1.44,3.664-.319.431-.684.923-1.055,1.507-1.128,1.759-1.381,4.234-1.646,6.849-.046.431-.086.856-.133,1.281.71-.179,1.447-.339,2.164-.5,2.356-.544,5.92-1.354,6.325-2.4,3.982-10.175,5.967-18.743,6.066-26.2.119-8.648,3.133-12.5,11.489-14.588.378-1.055.484-4.513.046-7.6h-3.08l1.746-1.387a13.7,13.7,0,0,1-2.754-2.821l-1.387-1.785,2.164-.631c.372-.113.823-.279,1.274-.445,1.779-.664,3.192-1.188,4.082-.027a7.97,7.97,0,0,1,1.035,1.872,65.474,65.474,0,0,0,7.228-8.555l.186.133.378-.9,2.144-3c4.706-6.637,9.551-13.48,17.223-17.734-2.091-1.666-3.166-3.411-3.265-5.31-.186-3.451,2.94-6.272,6.02-8.575,2.648-1.984,5.323-3.936,7.991-5.894l3.173-2.323a30.049,30.049,0,0,0,.259-4.726c.013-5.349.02-10.885,9.471-16.274,11.8-6.737,22.652-20.867,20.94-37.572l-26.283,1.779c.411,1.6.856,3.206,1.294,4.812a89.006,89.006,0,0,1,3.2,14.913c.431,4.493-.1,6.816-1.772,7.772-2.084,1.208-4.533-.584-6.9-2.31a16.8,16.8,0,0,0-2.934-1.858c0,.119-.033.338-.06.664-.451,6.83-5.2,10.294-9.391,13.347-3.63,2.655-7.068,5.157-7.858,9.584C79,83.7,74.643,85.1,72.087,85.709c-6.385,1.513-10.035,2.383-10.818,3.71-.65,1.1.04,3.591,1.195,7.712l.252.923c.046.166,3.83,16.46.119,17.548-6.584,1.951-9.936,5.542-11.217,12.013l-.584,2.96-2.044-2.21c-.425-.458-.909-.889-1.394-1.327a9.871,9.871,0,0,1-3.153-4,47.474,47.474,0,0,1-1.606-7.546,39.419,39.419,0,0,0-4,6.876c-3.929,9.617-8.383,20.515-15.955,30.351-4.361,5.668-6.119,10.214-5.529,14.309C18.035,171.725,21.792,176.325,29.517,181.933Zm6.69-31.413,1.44,1.434c.186.179.425.372.664.564.916.743,1.951,1.593,1.673,2.861a12.813,12.813,0,0,1-1.467,3.385c-.2.352-.4.71-.577,1.075l-.949,1.885-4.5-4.48Z" transform="translate(57.323 132.271)"/><path class="a" d="M25.6,51.162c-.027-.179-.033-.365-.066-.544a13.123,13.123,0,0,1-1.268-.843l-1.746,1.387Z" transform="translate(87.052 223.851)"/><path class="a" d="M161.365,100.819l.073.305,1.951-.737c-.013-.916-.033-1.865-.04-2.861C162.639,98.662,161.982,99.764,161.365,100.819Z" transform="translate(794.494 470.318)"/><path class="a" d="M199.576,113.921c5.548-.5,6.2-3.723,7.022-7.818.531-2.628,1.122-5.555,3.325-7.487L197.685,82.581l-3.518,13.467a51.724,51.724,0,0,0-.976,5.429c-.219,1.5-.438,3.026-.743,4.453l1.088-1.075a8.666,8.666,0,0,0,.571-.657c.743-.909,1.56-1.925,2.847-1.666h.013a12.968,12.968,0,0,1,3.365,1.454c.358.206.724.4,1.089.584l1.911.949-4.5,4.5-6.491-3.577c-.637,2.768-1.613,5.157-3.538,6.411-3.75,2.429-8.668,2.788-13.427,3.133a60.259,60.259,0,0,0-6.889.757c-.418.08-1.135.936-1.679,1.573,2.788,1.938,4.407,4.009,4.945,6.305.889,3.783-1.347,7.241-3.511,10.58-1.991,3.08-3.883,5.987-3.246,8.827,1.334,6.02,3.577,16.082-5.243,23.787-1.195,1.049-.83,2.117,1.055,5.243,2.137,3.544,5.376,8.907-1.819,13.984a4,4,0,0,0-1.885,2.363c-.245,1.453,1.115,3.345,2.555,5.35,2.708,3.783,6.411,8.967,1.241,15.059-2.462,2.9-3.325,5.648-2.555,8.157,1.042,3.4,5.077,6.318,11.057,7.991l.843.239.511,1.069c.338,1.228-.6,2.2-1.885,3.544-.75.783-2.741,2.861-2.489,3.577.02.04.425,1.029,4.732,1.513,6.378.644,11.124-1.626,13.34-6.564.139-.77-1.945-3.524-3.06-5a38.84,38.84,0,0,1-2.9-4.188l-.816-1.394c-1.294-2.177-2.628-4.434-2.807-6.909-.5-6.922-.279-13.759,7.407-27.265a33.889,33.889,0,0,1-1.221-8.19c.027-1.845,1.407-3.319,2.734-4.739a17.778,17.778,0,0,0,1.354-1.546l1.911-2.569.81,3.133c1.281-23.787.67-26.82-.013-27.7l-1.407-1.779,2.177-.637c.372-.106.823-.279,1.274-.445,1.779-.677,3.2-1.195,4.1-.02a11.759,11.759,0,0,1,1.666,3.777c.113.378.226.757.352,1.122a32.26,32.26,0,0,1,9.571-11.867,4.317,4.317,0,0,0-.206-1.434c-.591-1.639-1.241-3.246-1.9-4.858a13.028,13.028,0,0,1-1.692,3.962c-.949,1.414-2.993,1.221-5.157,1.015a13.851,13.851,0,0,0-2-.133l-2.124.02.65-2.024c.431-1.334.179-3.265-.08-5.137-.4-2.92-.81-5.933.969-8.157C195.182,114.95,196.988,114.147,199.576,113.921Zm-26.814,77.063-.956-1.9c-.179-.365-.385-.723-.578-1.075a12.862,12.862,0,0,1-1.467-3.378c-.272-1.281.77-2.13,1.686-2.874a8.3,8.3,0,0,0,.65-.564l1.44-1.42,3.73,6.717Zm5.389-56.534-4.513-4.493,1.918-.956c.365-.186.73-.378,1.1-.584a12.638,12.638,0,0,1,3.365-1.447c1.281-.252,2.117.75,2.861,1.659.2.239.392.478.571.657l1.46,1.447Z" transform="translate(770.32 386.951)"/><path class="a" d="M162.711,94.576c.186-.757.411-1.513.67-2.263h-.066A15.806,15.806,0,0,0,162.711,94.576Z" transform="translate(802.081 443.455)"/><path class="a" d="M165.391,93.15c-.836,4.945-1.925,12.929-3.246,23.9l-.007.1c-.013,1.447-.013,2.907-.013,4.327l1.374,5.19-1.274.485c.305,10.042,1.334,14.124,1.991,15.736.584-1.493,1.235-3.02,1.892-4.573,2.688-6.292,5.462-12.79,3.989-17.5C167.2,111.568,164.243,102.137,165.391,93.15Z" transform="translate(798.784 445.777)"/><path class="a" d="M61.314,59.6c1.546-.445,3.146.411,4.546,1.161a14.18,14.18,0,0,0,1.5.737l1.56.611-1.374,2.8a30.08,30.08,0,0,1-1.566,3.013c-4.566,7.4-11.5,7.1-17.621,6.823l-.949-.04a12.709,12.709,0,0,0,4.181,2.88,12.087,12.087,0,0,0,3.471.345c2.967.033,7.327.08,8.084,5.681,1.022-.385,2.376-1.513,4.653-4.785,1.792-3.956,2.575-5.509,3.624-5.721L77,63.883l-2.071,6.471c1.792-1.414,3.265-2.018,4.48-1.765A2.7,2.7,0,0,1,81.418,70.6c.524,1.931.717,5.575-1.009,7.168a82.436,82.436,0,0,1-8.449,6.544L70.3,85.494a32.075,32.075,0,0,0-.83,4.128c10.56-1.838,21.132-4.188,26.561-14.8a9.181,9.181,0,0,1-4.062-.392A13.874,13.874,0,0,1,87.8,71.5c-.485-.438-.969-.876-1.467-1.274l-2.1-1.666,2.5-.969c.511-.192,1.015-.411,1.52-.637A17.288,17.288,0,0,1,92.223,65.6a22.084,22.084,0,0,1,4.48-.146l.239.013v-.332l.577.126c.372-.9.8-1.845,1.248-2.794.763-1.619,2.35-5,1.938-5.721-2.728-4.009-3.478-6.438-2.515-8.117,1.1-1.918,3.65-1.726,6.133-1.546,1.029.073,3.173.226,3.551-.139a20.98,20.98,0,0,1,3.876-6.345,18.238,18.238,0,0,0,3.392-5.449c.83-2.648,1.726-4.52,3.392-5.071,1.726-.564,3.285.564,5.25,2l.923.677c5.27,3.776,10.991,7.161,16.533,10.433,1.765,1.049,3.531,2.091,5.283,3.153.226-2.608-1.381-5.376-3.06-8.276-3.239-5.575-7.261-12.517,2.9-19.314.319-.6-.153-3.843-.431-5.774-.106-.69-.206-1.381-.292-2.044-.418.232-.843.458-1.268.7-2.436,1.341-4.965,2.734-7.58,3.883-2.423,1.055-4.958,1.965-7.407,2.841-4.706,1.679-9.139,3.265-12.929,5.861-4.155,2.847-7.639,6.584-11.323,10.533-1.945,2.084-3.9,4.175-5.947,6.126a8.348,8.348,0,0,1-5.1,1.726l-.717-.086-.611-.7c-1.1-1.706-2.13-2.655-2.987-2.754-1.2-.139-2.635,1.3-4.062,2.688-2.27,2.2-5.336,5.19-9.239,3.239-.6.538-1.613,1.692-2.462,2.655-2.887,3.279-6.484,7.36-9.956,8.084-1.454.305-2.914.524-4.347.73-5.263.783-9.81,1.454-12.883,6.245a10.352,10.352,0,0,0-.9,1.845c.591-.206,1.188-.412,1.785-.617C52.135,62.417,56.708,60.844,61.314,59.6Zm23-5.807,4.513,4.5-1.911.949c-.372.186-.737.385-1.1.584a12.652,12.652,0,0,1-3.365,1.454,2.282,2.282,0,0,1-.418.04c-1.042,0-1.779-.9-2.442-1.706a8.66,8.66,0,0,0-.564-.657l-1.453-1.44Z" transform="translate(198.1 25.926)"/><path class="a" d="M124.759,24.933c-1.653.471-3.186,1.918-4.812,3.451-.385.365-.777.73-1.168,1.088l4.414,4.4c6.544-.737,11.256,2.277,16.294,5.947.617.458,3.3-.584,5.071-1.274,2.715-1.069,5.827-2.263,8.376-1.759,18.57,3.65,19.194,4.573,31.314,26.708l.617-.611.365,1.978,15.5,5.144V65.061l.876-.418c1.7-.81,3.65-.445,5.369-.113,1.5.279,2.927.544,3.684.007.724-.518,1.042-1.865,1.181-2.907-.193-1.314-5.715-21.385-6.7-24.112-2.144-1.892-4.248-3.856-6.352-5.827-4.911-4.586-9.982-9.332-15.564-13-3.272-2.164-6.843-.67-10.964,1.042C167.4,21.741,161.966,24,156.6,19.869c-5.562,10.341-13.686,8.15-20.88,6.212C131.754,25.013,128.011,24,124.759,24.933Zm72.709,16.141c.232-.192.471-.385.651-.564l1.44-1.427,3.723,6.717-4.5,4.48-.956-1.885c-.179-.365-.378-.723-.577-1.075a12.985,12.985,0,0,1-1.467-3.378C195.51,42.66,196.552,41.818,197.468,41.074Zm-7.321,13.759c.372-.113.823-.279,1.274-.445,1.779-.657,3.186-1.195,4.088-.027a11.527,11.527,0,0,1,1.659,3.75c.133.438.266.869.411,1.288l.246.69a34.763,34.763,0,0,1,3.717,3.086l.226.219-2.117,2.217a30.29,30.29,0,0,0-5.661-4.374,13.86,13.86,0,0,1-1.54-.923l-3.226-1.931h1.069c-.338-.385-.63-.763-.923-1.128l-1.387-1.779Z" transform="translate(571.16 63.576)"/><path class="a" d="M42.429,77.914a103.214,103.214,0,0,1,9.916-7.434l2.124-1.367c4.38-2.854,8.92-5.807,13.772-6.146,9.007-.624,20.263-2.522,27.371-11.794,5.522-7.195,12.225-7.035,18.71-6.9,1.221.027,2.442.053,3.677.027l11.11-16.619L124.822,23.4c-.777.584-1.54,1.188-2.31,1.792a49.581,49.581,0,0,1-8.29,5.668c-1.3.65-2.661,1.181-4.022,1.706-2.642,1.015-5.137,1.978-7.042,3.869l-.1,1.234-1.115-.265a20.26,20.26,0,0,1-11.177,3.126c-1.361-.086-1.765-1.327-2.223-3.557-.113-.518-.219-1.029-.319-1.427l-.411-1.58,1.6-.312c.737-.146,1.467-.319,2.21-.484a32.277,32.277,0,0,1,5.934-.969,4.365,4.365,0,0,1,2.489,1.029l.226.159c.113-4.679-.777-7.865-2.668-9.484s-4.945-1.9-9.358-.863a29.083,29.083,0,0,0-7.825,3.684c-1.241.737-2.489,1.473-3.757,2.117L74.6,29.908l-.166-2.31c-.193-2.721-1.181-4.54-2.781-5.117a3.353,3.353,0,0,0-1.155-.2,5.035,5.035,0,0,0-3.524,1.626A130.266,130.266,0,0,0,56.633,36.724c-4.221,5.715-8.588,11.621-13.971,16.334-10.865,9.5-9.285,17.814-3.1,27.179C40.525,79.467,41.474,78.69,42.429,77.914ZM58.684,46.209c.206-.365.4-.717.558-1.022,1.507-3.02,3.046-6.033,4.586-9.033l2.622-5.137,1.487,1.493a14.979,14.979,0,0,1,1,1.128,5.364,5.364,0,0,0,1.527,1.454c7.679,3.246,10.805,4.56,11.3,7.254.5,2.622-1.872,4.918-7.055,9.942-1.221,1.188-2.5,2.423-3.936,2.423a2.514,2.514,0,0,1-.936-.179c-1.274-.484-2.084-1.838-2.588-4.546-1.9,2.376-3.6,3.5-5.3,3.551-2.124.146-3.65-1.858-4.241-2.688C56.8,49.567,57.715,47.934,58.684,46.209Z" transform="translate(140.828 89.901)"/><path class="a" d="M124.783,28.418a3.473,3.473,0,0,1,3.723.093l.982.81-.511,1.327a19.367,19.367,0,0,1-2.17,3.027l-1.746,2.21-.923-.916c-.5,1.573-.9,3.239-.551,3.77,3.4,5.1,17.794,10.971,29.064,11.867,4.672.358,8.11-.226,9.4-1.626,2.084-2.257,2.7-6.093,3.352-10.161.166-1.055.345-2.137.544-3.2a6.89,6.89,0,0,1-4.454-.684c-2.515-1.427-3.2-4.407-3.81-7.042-.717-3.073-1.208-4.546-2.668-4.726-4.58-.584-9.81.378-12.975,2.376-2.7,1.706-4.593,2.768-6.365,2.038s-2.4-2.993-2.987-5.648c-.571-2.555-2.462-5.429-5.794-8.787-2.111-2.13-4.022-3.06-5.476-2.708-1.586.431-2.934,2.575-3.8,6.026a8.563,8.563,0,0,0-.06,2.569,10.864,10.864,0,0,1-.113,3.458,13.02,13.02,0,0,1-1.918,3.969c-.292.465-.584.936-.85,1.414l-1.254,2.29a48.2,48.2,0,0,0,7.832-.531C122.467,28.657,123.6,27.735,124.783,28.418Z" transform="translate(546.019 22.73)"/><path class="a" d="M107.4,20.6c.451.352.923.75,1.414,1.161,1.354,1.142,3.617,2.967,4.546,2.854a50.631,50.631,0,0,1,9.823-.909c7.327,0,14.489,1.341,21.491,2.655s14.137,2.655,21.517,2.7l-1.142-2.369c-.358-.73-.684-1.493-1-2.257a18.361,18.361,0,0,0-2.33-4.414,18.055,18.055,0,0,0-3.783-3.2q-.4-.279-.777-.558l-4.819,5.96-2.6-6.511-.77.04a17.331,17.331,0,0,1-4.453-.159,16.739,16.739,0,0,1-4.965-2.35c-1.838-1.115-3.929-2.376-4.965-1.858-.63.312-1.785,1.633-2.369,6.969a4.471,4.471,0,0,1-4.022,3.9c-3.159.511-7.513-1.367-9.571-5.953a19.957,19.957,0,0,0-3.7-4.911c-.259-.279-.511-.558-.763-.83-.1.173-.206.338-.319.511-1.234,2.011-2.509,4.1-4.5,4.334-4.878.591-5.316,1.473-5.336,1.513C104.01,16.92,103.924,17.883,107.4,20.6Z" transform="translate(497.149 23.835)"/><path class="a" d="M159.506,51.113c-.8-.146-1.991.8-3.3,1.792l-1.248.929c-6.146,4.42-4.155,7.215-1.142,11.436a19.251,19.251,0,0,1,3.013,5.4l.372-.133v1.573c8.33,9.033,12.318,20.548,12.245,35.07h.007v.458c-.007.425.02.823.013,1.254,1.175,1.653,2.4,3.279,3.637,4.9a78.043,78.043,0,0,1,8.25,12.5c4.872,10.015,9.816,16.526,19.427,18.053,2.443.385,5.748.073,7.035-1.128,1.075-.989,1.566-4.473.883-6.219a103.4,103.4,0,0,0-4.447-9.385c-2.277-4.427-4.633-9.006-5.973-13.871-4.374-15.882-14.057-28.9-23.422-41.495-4.546-6.126-9.252-12.451-13.321-19.055C160.768,51.949,160.051,51.212,159.506,51.113Zm13.852,41.6c.365-.186.73-.385,1.089-.584a12.784,12.784,0,0,1,3.385-1.454c1.288-.3,2.111.75,2.847,1.659.2.239.392.478.571.657l1.52,1.507-1.912.956c-.365.179-.717.378-1.075.577a12.885,12.885,0,0,1-3.4,1.46,2.233,2.233,0,0,1-.411.046c-1.042,0-1.779-.9-2.442-1.712-.193-.232-.385-.471-.571-.657l-1.513-1.507Z" transform="translate(735.769 228.57)"/><path class="a" d="M196.079,121.505c-1.122-2.575-2.821-6.471-3.69-6.69l-.093-.013c-.69,0-2.6,1.48-4.453,2.914l-1.387,1.062c-9.113,6.976-9.265,16.34-6.63,22.241,3.624,8.1-.863,13.858-4.818,18.936-3.9,5-7.261,9.318-3.538,15.478l.372.617-.246.79a6.283,6.283,0,0,1-2.98,2.841l-1.387.524a31.035,31.035,0,0,1-7.566,2.131c-4.672.491-8.29,2.549-10.188,5.807a11.415,11.415,0,0,0-.524,9.8,14.314,14.314,0,0,0,2.721-.79c.119-.611.219-1.248.318-1.872.451-2.914.876-5.661,3.066-6.265,1.792-.491,3.763.79,6.624,4.268,2.237,2.715,3.763,1.918,7-.173,3.146-2.051,7.46-4.825,12.63-.3l.159.133c.106-.8.126-2.038.139-2.96.033-2.462.08-5.024,1.049-6.684,2.243-3.836,4.215-6.916,6.192-9.71,5.064-7.128,5.256-15.378,5.462-24.112.192-8.237.392-16.745,4.951-24.378l-.047-.046A9.953,9.953,0,0,1,196.079,121.505Z" transform="translate(719.738 555.169)"/><path class="a" d="M180.048,165.19a5.692,5.692,0,0,0-1.892-.153c-.5,4.4-1.819,7.36-4.029,9.113-3.345,2.668-7.858,1.945-12.212,1.248-2.9-.458-5.642-.9-7.739-.312-3.743,1.029-7.659.624-11.436.239-6.046-.637-11.761-1.234-16.473,4l-1.327,1.467-1.1-1.653c-.471-.723-.916-1.487-1.354-2.25a15.973,15.973,0,0,0-3.146-4.327c-.445-.372-1.9-.325-2.947-.285-.153,0-.312.007-.478.013.027.385.04.77.066,1.155a20.051,20.051,0,0,1-.358,6.8c-.723,2.522-3.113,6.465-5.94,6.9s-7.759-1.613-8.754-4.241a164.942,164.942,0,0,1-5.416-18.059l-1-3.85c-1.3-4.9-3.889-4.553-7.805-4.015a20.354,20.354,0,0,1-4.606.259c-.239.71-.5,1.453-.783,2.2-.6,1.653-1.619,4.42-1.155,5.124,1.586,2.376,3.053,4.964,4.467,7.467,6.106,10.792,11.907,20.973,27.9,17.117L128.412,188c16.075-1.128,32.7-2.3,49.035-3.67,4.314-.365,8.124-1.852,8.489-2.641C187.11,177.582,187.907,169.956,180.048,165.19Z" transform="translate(372.381 773.58)"/><path class="a" d="M163.38,69.123c-1.759,1.168-3,3.345-4.321,5.648-.106.2-.212.392-.325.584a8.591,8.591,0,0,1,3.664.411,13.888,13.888,0,0,1,4.168,2.92c.484.445.969.883,1.467,1.281l2.111,1.666-2.509.969c-.511.2-1.015.418-1.52.637a16.765,16.765,0,0,1-3.969,1.354,20.782,20.782,0,0,1-4.487.153l-.232-.007v.319c9.245,4.009,10.241,6.883,7.281,18.663-.08.325-.173.684-.226.942,8.781,7.692,5.071,15.079,1.8,21.6a53.247,53.247,0,0,0-2.535,5.569c-1.593,4.407-1.135,10.354,4.911,13.805a36.863,36.863,0,0,0,5.96,2.98,15.358,15.358,0,0,0,4.088-7.759c1.049-6.086-.5-11.436-5.19-17.907-2.376-3.272-2.1-6.106-1.44-7.9,1.434-3.942,6.212-7.2,13.121-8.947a14.847,14.847,0,0,0,3.624-1.142,11.792,11.792,0,0,0-.232-2.137l-.113-.79c-1.122-7.792-5.23-14.051-9.571-20.668A81.942,81.942,0,0,1,171.152,67.7C169.613,67.53,165.119,67.962,163.38,69.123Z" transform="translate(772.295 313.753)"/><path class="a" d="M174.012,111.059c-1.739-1.268-3.484-2.542-5.2-3.849-.332.133-.684.265-1.029.4-.411.166-.976.385-1.381.557.929,14.874-2.867,26.608-11.595,35.787l.179.106a8.8,8.8,0,0,0,3.445,1.56c1.367.139,2.88-.863,4.533-1.878,2.21-1.354,4.706-2.914,7.48-2.19,1.918.484,3.591,1.971,5.124,4.526a7.2,7.2,0,0,0,3.677-.491c3.1-1.911,9.916-20.84,8.469-23.555A134.894,134.894,0,0,0,174.012,111.059Z" transform="translate(757.509 518.595)"/><path class="a" d="M65.464,165.527h-.007c-1.294-.558-2.615-1.049-3.9-1.526-4.493-1.653-8.741-3.212-10.214-7.075-1.055-2.768-.491-6.159,1.792-10.646a26.716,26.716,0,0,0-7.487-5.987c-1.088-.5-4.785.6-5.788,1.965-1.135,1.54-.179,3.305,1.48,6.053,1.447,2.416,3.1,5.15,2.31,8.057-.5,1.885-1.938,3.5-4.374,4.931a5.078,5.078,0,0,0,.2,1.387c.126.4.246.823.365,1.261.285,1.035.723,2.615,1.241,2.934,7.872,4.918,16.028,9.763,24.663,14.887l6.723,4,.013-.1a40.023,40.023,0,0,1,.77-4.613C75.247,172.914,70.3,167.6,65.464,165.527Z" transform="translate(165.224 680.497)"/><path class="a" d="M163.563,132.554c-1.347-1.1-2.728-2.23-3.929-3.325l-.305.345a7.364,7.364,0,0,0-1.526,2.084c1.785,14.641.611,19.951-10.606,26.847-3.624,2.23-3.557,4.44-3.458,7.513a21.826,21.826,0,0,1-.046,3.08l6.445,5.19-6.551,2.6v2.834l4.693-1.819-2.768,2.768a4.043,4.043,0,0,0,1.792-.186c14.714-7.493,18.385-22.081,21.935-36.192.4-1.586.8-3.172,1.208-4.739C170.644,138.355,166.038,134.578,163.563,132.554Z" transform="translate(694.267 631.122)"/><path class="a" d="M152.993,156.75c-9.962,6.385-20.734,6.192-31.181,6.013a119,119,0,0,0-12.511.206c-2.874.246-6.192,3.332-8.615,5.6a9.767,9.767,0,0,0,.239,3.285c6.239,1.825,12.571,3.365,19.871,5.137l5.675,1.381,5.17-2.695c7.679-4.009,16.367-8.542,24.75-13.241a7.791,7.791,0,0,0-.591-3.737A6.571,6.571,0,0,0,152.993,156.75Z" transform="translate(480.059 773.956)"/><path class="a" d="M101.706,164.87l-2.31-1.706c-6.146-4.553-12.5-9.272-18.889-13.692a6.163,6.163,0,0,0-2.648-.013,11.935,11.935,0,0,0,1.228,2.768,15.71,15.71,0,0,0,2.529,2.708c.445.425.9.836,1.321,1.268l1.626,1.639-2.144.863c-.757.3-1.633.75-2.5,1.2-2.761,1.407-4.925,2.535-6.385,1.308a66.984,66.984,0,0,1-8.349-8.8c-.79-.936-1.573-1.865-2.376-2.788h-.929v-.033l-.285-.013a26.485,26.485,0,0,0-3.863.073c-2.6.325-5.177.763-7.759,1.208l-1.1.186c.206.358.4.724.611,1.088,1.075,1.965,2.19,4,3.491,4.5,10.148,3.9,20.668,7.414,30.842,10.805q4.51,1.513,9.02,3.02a7.034,7.034,0,0,1,2.137-4.148C96.854,164.67,99.389,164.71,101.706,164.87Z" transform="translate(214.229 732.08)"/><path class="a" d="M108.49,156.772l-.173.02c-3.007.305-10.679,1.1-12.584,1.938-.458,4.931-1.261,8.144-3.67,8.94-2.124.7-4.527-.743-8.3-5.011-.471-.538-.942-1.108-1.414-1.7-1.3-1.606-2.642-3.259-4.035-3.883-2.3,2.091-6.737,15.332-6.518,19.075a4.972,4.972,0,0,0,1.818-.584c1.4-1.341,3.358-2.98,5.277-2.98a3.015,3.015,0,0,1,1.148.219c2.223.876,2.668,3.869,2.8,6.378.133,2.389,1.46,3.949,1.951,4.108a7.252,7.252,0,0,0,.365-1.52c1.035-8.276,5.223-8.947,9.279-9.584a23.108,23.108,0,0,0,3.677-.8c3.6-1.208,6.843-4.108,9.976-6.922,1.1-.976,2.17-1.945,3.265-2.847-.611-1-1.128-1.918-1.586-2.721S108.808,157.21,108.49,156.772Z" transform="translate(332.434 774.08)"/><path class="a" d="M131.635,165.985l-.139,1.46c-.186,1.911-2.157,2.628-3.73,3.206a9.046,9.046,0,0,0-1.772.783,18.563,18.563,0,0,0,1.984,1.812,5.177,5.177,0,0,0,4.042.7c10.891-4.068,16.891-12.444,18.836-26.3a10.98,10.98,0,0,0-4.062-1.022C133.315,146.578,132.638,155.538,131.635,165.985Z" transform="translate(612.207 716.875)"/><path class="a" d="M141.87,153.21c-.319.332-.69.743-.982,1.1-6.465,7.825-15.325,11.542-23.893,15.139-2.018.843-4.029,1.679-6.02,2.582a7.614,7.614,0,0,0-.558,3.67,3.556,3.556,0,0,0,.431,1.228c2.754-.531,5.482-.982,8.164-1.427,6.644-1.088,12.922-2.117,18.71-4.334,6.876-2.635,7.115-10.307,6.113-16.281C143.735,154.484,142.54,153.661,141.87,153.21Z" transform="translate(531.31 754.001)"/><path class="a" d="M95.225,162.718c-7.175-2.874-14.927-4.812-22.42-6.684-2.35-.6-4.7-1.181-7.035-1.792-1.653-.445-2.827-.418-3.465-.02l.013.04h-.159l-.08.02c-.637.558-.823,2.071-.524,4.268a11.059,11.059,0,0,0,.71,3.219c.5.206,3.033-.684,3.863-.969a8.48,8.48,0,0,1,2.728-.418c7.254,0,17.708,7.36,23.621,13,1.208,1.148,3.776,1.9,6.876,2,.08-.119.843-1.108,1.453-1.9.451-.584.956-1.234,1.533-1.918-.584-.843-1.155-1.759-1.726-2.688C98.995,166.263,97.322,163.555,95.225,162.718Z" transform="translate(279.039 757.986)"/><path class="a" d="M98.163,166.2c.159-.013.319-.027.478-.046-.053-.69-.08-1.347-.106-1.951a10.72,10.72,0,0,0-.305-2.648c-.637-.412-1.4-.962-2.164-1.507-3.8-2.715-7.739-5.522-11.834-6.365-4.56-.942-9.544-.724-14.363-.5-1.566.066-3.126.139-4.679.173.989,3.962,3.524,3.677,7.387,3.232,2.748-.312,5.854-.67,8.25,1.155,4.407,3.352,9.491,5.907,14.4,8.376A6.366,6.366,0,0,0,98.163,166.2Z" transform="translate(298.668 752.763)"/><path class="a" d="M129.966,150.43a92.009,92.009,0,0,0-6.617,8.92c.458.6,1.427,1.633,2.23,2.5.684.723,1.434,1.526,2.19,2.376l9.79-9.358-6.186-6.2C130.909,149.256,130.437,149.84,129.966,150.43Z" transform="translate(599.16 728.381)"/><path class="a" d="M123.993,152.161c-.737,0-2.137,1.447-3.066,2.4l-.2.2c1.546,2.1,6.053,7.453,8.131,9.663,1.885-2.29,3.856-4.752,6.571-8.11l1.679-2.1c-1.374-.252-2.635-.5-3.8-.73A51.491,51.491,0,0,0,123.993,152.161Z" transform="translate(585.527 748.088)"/><path class="a" d="M143.649,141.648a59.127,59.127,0,0,1-4.507,5.409,30.277,30.277,0,0,1-4.361,3.465c-.312.226-.63.445-.942.67l.392.989H133.6c.013.9.007,1.812-.06,2.708-.166,2.077-.305,4.029.63,5.1a5.124,5.124,0,0,0,3.345,1.288l10.964-10.938-4.546-9.06C143.842,141.4,143.749,141.529,143.649,141.648Z" transform="translate(636.971 686.768)"/><path class="a" d="M151.251,142.117a6.815,6.815,0,0,0-2.223-.8,141.006,141.006,0,0,0-12.8,9.962,23.1,23.1,0,0,0,1.779,3.465,3.755,3.755,0,0,0,.624.239c4.009-2.7,7.938-5.489,11.316-7.9l1.692-1.208c-.139-1.082-.212-1.958-.272-2.642C151.33,142.82,151.3,142.4,151.251,142.117Z" transform="translate(652.812 686.976)"/><path class="a" d="M117.786,17.622l4.254-6.494L110.8,9.675l2.78,7.947Z" transform="translate(534.585 18.835)"/><path class="a" d="M42.859,150.747a3.343,3.343,0,0,0,3.584.823,4.491,4.491,0,0,0,2.887-3.644,7.248,7.248,0,0,1-4.54-2.21c-1.792-2.044-1.58-4.865-1.394-7.354.046-.6.093-1.2.113-1.772-2.277,1.128-3.67,2.549-4.161,4.234C38.4,144.063,40.735,148.012,42.859,150.747Z" transform="translate(164.859 660.313)"/><path class="a" d="M171.78,142.8l-.232.936-.942.2c-2.774.591-5.562,1.155-8.343,1.719-8.622,1.759-17.542,3.571-26.09,6.007a25.857,25.857,0,0,0-.7,5.2c-.053.644-.106,1.274-.159,1.885,2.263-.6,4.706-1.407,7.075-2.2,7.659-2.549,14.9-4.945,19.188-1.971,3.757,2.615,6.5,3.65,8.137,3.139,1.666-.524,2.549-2.96,3.491-5.529a30.2,30.2,0,0,1,1.872-4.4l.252-.332,9.225-9.206c-1.055-.086-2.117-.265-3.159-.438C176.552,136.984,173.333,136.447,171.78,142.8Z" transform="translate(647.654 664.445)"/><path class="a" d="M19.174,117.324c-.571,3.883-.1,6.617,1.42,8.13s4.268,2,8.164,1.427c.571-3.883.1-6.617-1.414-8.13S23.077,116.759,19.174,117.324Z" transform="translate(66.864 571.001)"/><path class="a" d="M154.685,67.71a25.009,25.009,0,0,0,2.4,5.549l.558,1.055,4.068-1.692L155.913,65.8A7.486,7.486,0,0,0,154.685,67.71Z" transform="translate(756.838 306.421)"/><path class="a" d="M46.1,154.282c1.082.936,3.04.8,5.13.637.9-.066,1.805-.133,2.721-.119v-8.051l-9.093,4.527A4.794,4.794,0,0,0,46.1,154.282Z" transform="translate(194.43 717.58)"/><path class="a" d="M97.013,158.4a13.557,13.557,0,0,0,4.646,2.018,10.8,10.8,0,0,0,4.613-.863l-3.83-2.98Z" transform="translate(463.537 772.987)"/><path class="a" d="M135.059,25.4l-7.818,7.8c2.881.153,4.951-.378,6.192-1.626S135.225,28.256,135.059,25.4Z" transform="translate(619.586 107.489)"/><path class="a" d="M131.262,144.193a11.092,11.092,0,0,0-2.077.883l-.265.126c.192.358.392.717.584,1.075,1.049,1.938,2.031,3.776,3.431,4.719a15.79,15.79,0,0,0,3.246-1.294c.259-.113.524-.232.783-.352-.285-.285-.564-.571-.83-.843A28.456,28.456,0,0,0,131.262,144.193Z" transform="translate(628.234 703.172)"/><path class="a" d="M132.255,144.518c-1.248,1.248-1.792,3.325-1.626,6.172l7.818-7.8c-.332-.02-.657-.033-.969-.033C135.109,142.859,133.356,143.416,132.255,144.518Z" transform="translate(636.918 695.652)"/><path class="a" d="M12.76,104.866c.113.06.232.126.352.193a6.31,6.31,0,0,0,2.263.936,7.862,7.862,0,0,0,2.814-1.878l-4.341-1.8Z" transform="translate(32.028 495.042)"/><path class="a" d="M60.32,151.566v-2.887c-.949-.027-1.825-.06-2.721-.126-2.091-.166-4.049-.305-5.124.644a4.118,4.118,0,0,0-1.142,2.369H60.32Z" transform="translate(227.843 727.073)"/><path class="a" d="M158.381,89.8a4.719,4.719,0,0,0,1.055,1.633l2.044-3.949-1.52-2.283A15.227,15.227,0,0,0,158.381,89.8Z" transform="translate(777.673 406.575)"/><path class="a" d="M58.235,152.193c-.159.013-.319.027-.471.033v3.113h2.827l-.08.066a11.507,11.507,0,0,0,1.453-.119,12.192,12.192,0,0,0,2.6-.863,10.444,10.444,0,0,0-2.94-2.091A8.472,8.472,0,0,0,58.235,152.193Z" transform="translate(261.078 747.731)"/><path class="a" d="M57.966,155.444l2.987-2.4h-4.8Z" transform="translate(252.801 753.087)"/><path class="a" d="M64.346,155.119a38.839,38.839,0,0,0-5.349.007c-.007.358-.013.737-.013,1.069,1.593.246,3.265.365,5.144.5l.312.027-.027-.458C64.392,155.843,64.372,155.451,64.346,155.119Z" transform="translate(267.401 764.264)"/><path class="a" d="M69.792,159.892a6.077,6.077,0,0,0,.936,2.243l.192.358,2.562-1.1-1.812-4.321A7.862,7.862,0,0,0,69.792,159.892Z" transform="translate(323.194 775.805)"/><path class="a" d="M157.713,69.308h-.881l.881.881Z" transform="translate(768.941 324.722)"/><path class="a" d="M134.471,145.2c.425.332.843.657,1.261.942l.047-.053-.989-1.208Z" transform="translate(642.891 707.039)"/><path class="a" d="M74.608,156.182l.869,1.108a10.4,10.4,0,0,0-.485-1.248Z" transform="translate(348.192 769.971)"/><path class="a" d="M100.046,10.414H99.4l.215.533Z" transform="translate(476.214 23.002)"/><path class="a" d="M102.744,8.031l-.431.533h.641Z" transform="translate(491.256 9.569)"/><path class="a" d="M82.97,17.668c-5.031.465-8.535,3.889-12.252,7.507-4.507,4.394-9.139,8.96-16.646,8.091v2.774h.737l-.013.027h.1c7.951.1,14.88.219,20.256-7.294,1.825-2.542,5.635-3.246,9.325-3.923,1.062-.192,2.144-.4,3.153-.637-.4-3.7-.737-6.5-1.168-6.969-.126.013-.916.093-1.546.186C84.357,17.5,83.72,17.595,82.97,17.668Z" transform="translate(241.425 61.496)"/><path class="a" d="M72.678,51.557c2.847-4.825,8.19-4.792,12.856-4.765,6.451-.027,10.546-.292,11.887-7.175.79-4.088,15.2-3.75,15.345-3.723,7.872.418,14.336,1.666,19.765,3.816.823.292,3.9-1.347,5.575-2.223,3.737-1.965,7.248-3.81,9.464-1.892,1.845,1.613,1.726,5.044-.471,11.648l.1.013a9.426,9.426,0,0,0,2.535.007c.431-.65,1.009-1.52,1.58-2.376,2.077-3.106,4.228-6.318,7.745-6.81,2.529-.332,5.363.83,8.608,3.611,2.582,2.2,2.575,2.2,10.586-4.845l1.513-1.341c1.838-1.653,3.743-3.365,5.555-2.774,12.65,4.035,24.949,2.316,37.977.5l4.54-.617c5.35-.717,9.319-1.075,12.212-1.334,7.3-.65,7.9-.7,10.015-4.055,4.307-6.823,9.332-10.938,16.294-13.354a41.245,41.245,0,0,0,.717-4.573c.139-1.082.285-2.23.478-3.4-3.411.053-6.6.066-9.637.073a188.907,188.907,0,0,0-19.845.717C229.2,7.639,220.2,8.894,211.5,10.1c-9.6,1.334-19.533,2.715-29.342,3.717-.186.013-17.933,1.407-19.374-3.458-.783-2.661-1.825-4.268-3.1-4.785-1.181-.471-2.821-.1-5.111,1.195-8.9,5.051-18.491,5.588-27.776,6.113-5.562.305-11.31.631-16.725,1.951l-.684.166-.577-.411c-6.3-4.526-10.135-1.407-15.876,4.055-4.48,4.261-9.5,9.04-16.367,6.239.086.611.173,1.221.265,1.832a66.507,66.507,0,0,1,1.029,12.232c-.08,1.931-1.726,3.352-3.325,4.732a13.6,13.6,0,0,0-2.3,2.29c-1,1.467-2.98,1.367-4.732,1.281a15.916,15.916,0,0,0-1.593-.027,11.133,11.133,0,0,0,1.354,2.3C67.873,50.369,71.072,51.3,72.678,51.557Zm96.476-27.949c.04-.4.073-.81.093-1.215a12.8,12.8,0,0,1,.624-3.644l.007-.013c.458-1.208,1.785-1.354,2.954-1.48.305-.033.611-.066.863-.119l2-.425-.571,7.679-6.212,1.327Z" transform="translate(296.636 -5.379)"/><path class="a" d="M8.658,131.6c6.876-.876,8.854,3.843,10.327,7.281,1.513,3.544,2.3,5.084,5.715,4.049,4.3-1.294,6.664-1.248,7.865.146,1.493,1.726.312,4.241-.936,6.916-.272.571-.544,1.155-.783,1.726a13.472,13.472,0,0,0,1.825,2.17,11.446,11.446,0,0,0,5.024-8.436c.239-3.757-1.619-7.493-5.23-10.5a31.2,31.2,0,0,1-5.137-6.053l-.816-1.142a6.281,6.281,0,0,1-.889-4.022l.179-.7.71-.4c6.518-3.04,6.133-8.5,5.681-14.82-.458-6.425-.976-13.7,6.551-18.411,5.476-3.425,10.56-11.283,6.876-22.155l-.558-1.666c-.77-2.33-1.573-4.732-2.157-4.938-.83-.332-4.42,1.984-6.8,3.5a9.936,9.936,0,0,1-4.58,1.2l-.06.007C31,74.245,26.432,81.42,22,88.369c-4.7,7.367-9.133,14.323-8.9,23.064.086,3.425,0,7.075-.265,11.515-.119,1.925-1.513,4.069-2.861,6.146a28.8,28.8,0,0,0-1.527,2.529l.2-.02Z" transform="translate(7.744 277.302)"/></g></g></svg>