<svg xmlns="http://www.w3.org/2000/svg" width="996.502" height="979.456" viewBox="0 0 996.502 979.456"><defs><style>.a{fill:#fff;stroke:#000;}</style></defs><g transform="translate(0.386 0.49)"><g transform="translate(0 0)"><path class="a" d="M123.705,145.33l.313-5.5-3.8,1.257,2.041,4.235Z" transform="translate(594.461 691.273)"/><path class="a" d="M102.613,170.832c-17.119-14.349-34.63-29.036-54.708-39.617,1.793,1.746,3.613,3.538,5.412,5.358,4.3,4.354,8.654,9.011,12.139,12.759l4.893,5.223,17.868,12.078,4.961,4.988,18.44,9.726-18.71,1.483-1.469,1.449h.013l-1.038,1.045,13.264,9.389L115.587,181.6C111.193,178.017,106.859,174.391,102.613,170.832Z" transform="translate(212.97 641.811)"/><path class="a" d="M787.8,381.166c-4.756-37.774-24.374-70.429-43.337-102.007-4.027-6.691-7.649-12.731-11.21-18.871-21.721-37.557-48.749-72.935-74.882-107.15-10.462-13.691-22.186-29.022-33.114-43.988l-6.595.935,4.217-2.872c-2.537-1.894-5.093-3.763-7.655-5.632-7.888-5.738-16.033-11.673-23.461-18.308-8.777-7.836-17.712-15.145-30.528-18.481-19.5-5.075-40.064-10.862-58.334-20.728C470.793,26.715,435.3,22.444,400.98,18.316l-.7-.08c-7.692-.922-15.653-1.882-23.461-2.983-6.4-.891-14.188.836-19.024,4.2a71.476,71.476,0,0,1-18.564,9.222c-8.354,8.442-22.082,13.01-34.248,4.376-4.29-.124-8.6-.378-12.8-.767a9.631,9.631,0,0,1-3.015-.922c-.46-.2-.962-.415-1.538-.625l-6.693-2.463,10.517-3.144c-2.911-.464-6.2-.706-9.42-.941l-1.293-.1-1.6,8.894-2.219-.291c-13.005-1.721-19.079,1.535-25.03,13.4-6,11.921-17.547,23.848-31.686,32.729C208.2,86.368,194.824,92,181.9,97.44l-.319.136c-5.24,2.21-10.658,4.493-15.9,6.87l-27.187,27.6,4.106.272,7.882-7.867.049,9.179,3.4,4.747-4.149,2.754-4.566,4.7v.439l16.75-12.552a18.586,18.586,0,0,1-1.122-1.9c-1.011-1.987.717-3.113,2.114-4.011l.631-.408,4.652-4.772.135-6.511,14.262.056.2,5.3,8.587-.05,13.091-6.394-.043,5.787,17.51-4.351-.006-1.813-26.428-.05,27.3-9.272L231.554,99l3.855,9.074-9.659.811.116,2.111,5.718,1.133a183.932,183.932,0,0,1,23.339-15.362c5.026-2.853,10.3-5.6,16.094-8.393l.993-5.23,4.272,2.748c5.516-2.531,11.02-4.9,16.382-7.019,2.672-1.015,5.332-2.005,8.01-2.959l-.135-1.529,7.22-.836c8.139-2.773,16.56-5.273,25.024-7.44h-4.762l-.5-8.51,22.058-1.355-.19,5.867h1.256c8.6-1.758,16.977-3.1,25.441-4.079a307.8,307.8,0,0,1,90.026,2.018c8.433,1.535,17.014,3.516,25.557,5.911l-.65-.644,51.1,16.544-7.906.093c2.617,1.25,5.2,2.531,7.7,3.819l1.005-1.912,2.617,1.4-.98,1.888c3.346,1.764,6.686,3.608,9.941,5.5a291.1,291.1,0,0,1,32.875,23.532h.018l-.055-6.078,22.266,9.946H604.99l7.551,7.576,9.261,4.537,7.447.056v5.428l1.324.006-.025-8.25,11.651,12.15-8.458.173-4.3,12.769-3.806-13.759-4.658-4.518-4.781.1.043.043-1.655.05,8.9,15.572,2.231,2.34c3.132,3.639,7.036,8.12,11.406,13.128l4.259,4.877-.012-.118,17.1,17.838-1.606.179c11.3,13.239,19.588,23.439,25.294,31.145.7.935,1.33,1.82,1.961,2.7l48.522,60.649,18.013,49.447L723.5,295.215c-1.1-1.355-2.292-2.828-3.512-4.37l-2.924.9v-4.617c-18.3-23.464-41.86-57.152-44.489-60.928-10.725-12.267-25.5-27.326-36.276-38.324l-.215-.21c-8.868-9.049-17.253-17.6-22.6-23.588l-15.341-16.358a74.928,74.928,0,0,0-5.436-5.416c-.827-.767-1.636-1.535-2.452-2.321-.944-.86-1.912-1.789-2.881-2.723-1.691-1.622-3.389-3.249-5.16-4.673A265.113,265.113,0,0,0,546.5,106.662c-11.332-2.538-19.968-6.8-27.163-13.381l-.27-.241-.521.074c-20.286,2.946-36.038-6.511-50.44-16.5l-1.207-.266c-.778-.173-1.569-.353-2.366-.508a291.136,291.136,0,0,0-45.016-4.914l4.241,1.43,15.028,1.758-3.555,8.393-11.988-6.183H408.438l.993-5.577H409.1c-3.591,0-7,.056-10.382.161l-1.765.266-5.283.012c-4.707.241-8.881.526-12.711.86a370.672,370.672,0,0,0-81.826,16.823c-29.725,9.556-53.45,21.168-72.516,35.49l-.7.532-2.3-2.767q-4.909,3.7-9.837,7.371l-.306.229c-9.923,7.427-20.188,15.114-30.123,22.845-13.361,10.392-26.716,22.1-30.6,40.683l.784.736-.018.025,2.262,2.185,3.9-4.518c3.7-4.234,7.514-8.616,11.191-12.991,15.432-18.376,33.316-36.053,59.45-40.887l4.609-.854-6.5,13.22,6.068,5.119-10.676,3.293.049-4.976c-9.481,3.689-17.62,7.7-21.764,16.569l12.8-.111-35.008,35.3-10.695,16.1c1.594,10.293-5.479,14.9-11.191,17.479l-2.445,9.364,2.6-3.46q9.92-13.183,19.851-26.36c2.176-2.89,4.327-5.824,6.46-8.758,13.263-18.178,26.967-36.981,50.508-45.108,16.664-25.593,43.68-36.375,67.92-43.548,13.005-3.844,26.66-5.787,39.868-7.669,9.279-1.325,18.871-2.692,28.119-4.7,20.188-4.388,40.23-2.166,59.609-.012,4.989.557,10.149,1.133,15.218,1.584a83.33,83.33,0,0,1,8.648,1.219l-9.083-9.637,4.658-.557c.129-.019.276-.043.423-.074a5.5,5.5,0,0,1,2.874-.019c1.232.4,1.649,1.3,2.384,2.934.386.848.956,2.1,1.875,3.955l2.292,4.636.3.068c1.183.285,117.165,29.406,177.362,135.609l1.158,2.067,7.655,12.36c13.018,20.969,26.483,42.663,38.281,65.062,13.8,26.2,13.992,55.258,14.188,83.358l.006,1.028c.031,4.778.067,9.563.172,14.316.092,4.011-.153,8-.392,11.865-.239,4.017-.484,8.17-.343,12.224.165,5.168.674,10.472,1.165,15.6.864,9.074,1.765,18.37.944,27.524-4.413,49.577-15.763,95.316-33.721,135.943-13.257,30-35.829,56.577-71.015,83.624l-3.04,5.106c-.031.031-1.324,1.2-3.782,3.231,1.98-1.263,3.953-2.513,5.939-3.769l27.322-17.355,4.971-5.112,5.945-4.394.135-.371c5.265-14.9,15.727-27.159,31.968-37.47l5.308-3.373-1.808,6.066c-5.418,18.06-19.33,28.849-31.937,37.538l-.533.371-4.413,5.868-5.124,5.508c-6.938,13.635-18.871,21.576-30.4,29.251-2.74,1.82-5.541,3.683-8.3,5.639-7.882,5.608-15.794,11.71-22.781,17.1-1.514,1.164-3.016,2.321-4.523,3.478l7.661-.05-2.084,3.621c-6.613,10.887-16.732,16.247-31.809,16.841a7.822,7.822,0,0,1-3.1,5.378c-2.672,1.851-6.1,1.2-9.138.371l-8.249,6.536-4.5-8.882,12.1-2.228,8.972-4.45.025-2.16-17.6.186,2.1-3.615c.288-.477.533-.972.784-1.467.95-1.838,1.894-3.683,3.683-4.828q4.624-2.952,9.242-5.917-9.4,4.614-18.914,8.5l-.674.266c-8.36,3.392-16.811,6.369-25.116,8.863-3.628,5.236-9.267,4.462-13.857,3.776-2.4.563-5,1.17-7.643,1.727-9.763,3.349-21.206,5.02-29.847,4.3-5.455.489-10.462.768-15.144.842a36.778,36.778,0,0,1-18.8-.644,213.553,213.553,0,0,1-54.062-10.627l-2.409-.8.227-.532a219.522,219.522,0,0,1-57.868-22.864C222.765,719.042,175.536,676.014,142.1,624.921c-7.827-11.964-13.588-25.438-19.159-38.479-4.192-9.822-8.47-19.855-13.588-29.2-16.756-30.532-17.7-62.741-16.419-90.216,2.059-44.347,13.226-86.05,33.182-123.96a16.832,16.832,0,0,1,1.275-1.974,6.861,6.861,0,0,0,1.146-2.018c3.481-18.587,6.827-37.012,10.529-57.431l.662-3.639c-5.994,9.29-8.341,20.029-10.811,31.318a174.574,174.574,0,0,1-4.872,18.878c-1.011,2.952-1.863,6.035-2.7,9.018-3.3,11.822-6.7,24.027-19.189,31.355l-.018.111c-.343,1.764-.65,3.534-.962,5.3a106.8,106.8,0,0,1-3.193,14.384C72.4,467.928,77.665,536.909,114.089,599.26a48.662,48.662,0,0,1,4.119,10.46l.11.359c.454,1.5.907,2.989,1.428,4.444l7.912,14.972-1.024.668,2.09,1.226c14.011,8.213,22.91,18.933,27.2,32.766l.067.217.38.384,40.567,40.775-14.029-.427-.123,6.214-21.531-9.29,15.12-.7-.748-.848a100.3,100.3,0,0,1-9.046-11.172,91.42,91.42,0,0,1-6.484-12.4l-.509-1.1c-.386-.836-.772-1.665-1.164-2.494l-2.2-4.648-3.53-1.646c-14.274-6.678-23.5-17.776-27.414-32.989l-.662-2.55-.766.5-10.113-13.2c-.846-.786-1.937-1.665-2.893-2.439-2.6-2.117-5.252-4.271-6.638-7.291-2.384-5.187-4.848-10.367-7.318-15.542-7.545-15.807-15.347-32.154-20.4-49.137-9.377-31.516-10.321-66.765-2.966-110.925l.362-2.2c3.757-22.665,7.643-46.1,24.215-64.611l.264-.3.086-.3c2.206-8.059,4.37-16.581,6.1-23.433,8.758-34.543,17.823-70.237,40-100.565a22.34,22.34,0,0,1,5.565-4.9l.294-.2c.429-.31.864-.619,1.287-.935l.2-5.527-12.57,8.176-10.572,16.433L102.3,324.5l-.116,1.089c-2.421,24.089-11.118,46.7-26.587,69.147l.141.7a8.416,8.416,0,0,1-.031,4.921C60.431,437.347,62.95,476.785,65.4,514.93l.331,5.273c.656,10.386,3.892,20.932,7.03,31.132l.141.452c1.4,4.6,2.868,9.352,4.076,14.075l6.791,23.111-12.956-17.5H70.77a5.533,5.533,0,0,1-4.529-2.265l-1.263-1.646.49-.5c-19.3-60.266-20.728-110.913-4.5-159.332,1.354-4.066,4.352-7.316,7.238-10.46,1.128-1.219,2.145-2.321,3.083-3.472v-9.983l-5.485,5.459,5.087-11.487q1.986-4.493,3.922-9.005l.693-1.591c3.634-8.393,7.342-16.953,11.369-25.222a120.13,120.13,0,0,1,8.01-13.344l.227-.34c.919-1.4,1.851-2.81,2.758-4.221l.368-.576.306-19.9-.4-.136.172-2.457,4.915-14.365-.1-.087.251-1.584,5.51-15.368.331-1.43,5.828-11.029,9.837-4.828c-.729-8.015,2.96-13.567,10.971-16.513l.239-8.158-.809-.439.95-2.185,7.5-12.243-4.7-.074-.889.9c-14.519,14.718-28.229,28.62-30.448,49.793l.938.625-1.526,2.018c-8.954,11.809-14.029,26.373-15.941,45.789l.821.254-.993,2.581-2.887,5.2c-2.4,4.339-4.885,8.82-7.551,13.2A33.205,33.205,0,0,0,78,339.1c-2.041,5.806-4.529,12.892-13.539,13.542.165.718.349,1.448.527,2.172l.092.4c1.073,4.32,2.17,8.752.864,12.738-6.215,18.952-13.183,38.021-19.919,56.465l-.962,2.624q-3.245,8.922-6.564,18.079l-3.236,8.962-1.293-9.451c-4.48-32.55,8.758-59.374,21.555-85.32,1.422-2.878,2.838-5.769,4.241-8.647l.484-1.126,1.63-5.855c11.6-41.32,23.584-83.989,48.927-120.729,2.991-4.333,5.749-9.1,8.262-13.6-20.5,19.707-31.374,45.721-41.523,72.88-4.315,11.543-8.317,23.476-12.184,35.019l-.184.532C58.181,338.7,50.949,360.32,41.542,380.634c-16.493,35.644-14.93,72.421-11.914,107.032a46.489,46.489,0,0,0,1.391,7.112,45.942,45.942,0,0,1,1.587,8.845c2.923,57.437,27.568,110,77.554,165.4l9,10c4.762,5.31,9.849,10.974,15.089,16.723l12.08,2.414c.067.012.153.019.227.025a3.543,3.543,0,0,1,2.832,1.275,5.617,5.617,0,0,1,.766,1.535l2.4,6.542-18-11.456c5.007,5.49,10.143,11.054,15.273,16.445,1.526,1.6,4.063,2.562,6.742,3.571l.337.13.27.1-.031-.9.037.025-.086-4.048,22.83,9.984-14.023.025,13.005,9.915v-5.657l5.4,5.3.012-2.371,3.377,5.688,3.463,3.41h-1.612a6.537,6.537,0,0,1,.306,1.034,2.521,2.521,0,0,1-.055,1.362h.754l-1.25,1.114c29.51,29.071,66.841,49.985,120.9,67.755a37.129,37.129,0,0,1,8.1,4.2c.8.508,1.606,1.009,2.421,1.491l.331.2h15.3L332.7,825.474l-12.3-6.468-.674.062c-20.55,1.764-38.268-6.053-55.454-13.641-6.227-2.754-12.552-5.552-18.859-7.836-3.91-1.417-8.188-2.649-11.626-3.633-.625-.179-1.244-.359-1.869-.545l.043,9.216-.57-.755v.031l-2.715,2.748-3.316-3.367,1.348-1.356.018-3.305-15-8.814,10.045-.328q-4.33-3.379-8.568-6.883l-5.994,13.245a1.366,1.366,0,0,0-.092.266c-.067.2-.147.433-.251.681l16.94,8.349.006-.006.625.26,3.585,1.857-.116.13,8.145,4.512,1.808,1.232c15.2,10.485,29.584,20.406,48.02,20.406.4,0,.8-.006,1.214-.013l.319-.9,2.378.8c1.986,1.04,3.818,2.049,5.657,3.07a138.256,138.256,0,0,0,13.8,6.981c10.94,4.518,22.095,8.771,32.887,12.886q6.353,2.433,12.632,4.84l14.317-.743c11.865-.607,23.89-1.232,35.909-1.832,7.2-.359,14.495-.4,21.555-.445,15.586-.1,31.662-.2,46.549-3.676,27.439-6.412,54.461-17,80.606-27.239l7.122-2.785c6.625-2.593,12.705-7.4,18.589-12.057,1.735-1.368,3.5-2.767,5.3-4.116l-3.7-2.061c.043,2.253-.184,4.19-1.82,5.174-16.922,10.25-32.072,15.083-47.676,15.2l-.374.006-12.772,7.223-3.463-9.426,15.04-1.993c8.63-9.9,20.176-13.091,31.349-16.185a106.316,106.316,0,0,0,16.278-5.441l.65-.322,10.247-5.533,3.7-3.429-2.237.743c-8.654,2.884-17.3,5.762-25.931,8.708-6.208,2.117-12.4,4.308-18.595,6.505l-11.639,4.246-38.232,15.319-1.986-8.894,13.888-.842.061-5.818,28.156-4.852,21.059-17.355.454.155,6.49-3.361-3.732-2.272,1.287-.8L559.87,781l10.137-5.3v.18l18.031-9.036,1.777-7.13,5.357,5.973,7.925-4.011a8.627,8.627,0,0,1-.582-2.1c-.012-.074-.018-.155-.025-.235l-1.508-.018,6.7-7.2v.266l5.191-5.323.257,8.362,7.477-.217,4.082-8.294-5.718-4.834,7.342-2.693,13.637-14.006v5.063l2.182-2.2.276.012,10.848-10.664,15.273-8.324-2.844,6.381c-7.226,16.229-18.589,35.824-42.522,43.381l-.19.136L610.249,776.6l5.142-.235c3.536-4.512,5.926-7.3,9.236-7.681,3.953-.446,7.569,2.544,13.643,7.452.968-.322,1.967-.607,2.966-.885,2.721-.761,5.277-1.486,6.864-2.94,18.019-16.476,37.539-34.852,59.664-56.193,1.14-1.1,1.79-3.095,2.482-5.218l.043-.13-3.978-.105-.1-10.5-1.894.569-14.421,9.68,9.757-14.885,18.331-23.309-3.647,1.12,14.623-26.422-.644-.155.509-2.2,1.845-.724,2.127-3.837-.472,4.376,1.14,1.1-.613,2.4-.926-.229-.723,6.028c-.748,6.691-1.667,14.99-11.289,17.949l-1.624.5-7.869,25.29,3.248,7.687c1.722-1.671,3.524-3.3,5.271-4.883l.257-.229c5.663-5.113,11.51-10.4,14.329-16.649,17.24-38.386,32.471-73.078,44.379-108.951C799.771,508.562,795.174,439.773,787.8,381.166ZM271.018,71.377l4.682.421-.227,2.742-4.682-.371Zm-13.87,15.7-8.7,8.492.38-8.906L242.7,83.143l6.907-4.512,8.636-8.059-.025,7.662,17.645.179ZM295.821,70.43l-.423-7.378L313.564,61.5l1.177,8.931Zm-2.752-22.053-.122-6.078,2.378-.037h21.653l2.261,6.115Zm36.2-3.825-.895-7.823,16.162-1.912.9,7.929ZM355.779,38.8l-3.3-8.127,4.529-.217a20.014,20.014,0,0,1,3.567-.025,3.6,3.6,0,0,1,2.642,2.148c.116.2.172.3.221.371l1.937,2.63ZM443.048,52.79l13.471-1.584c.913-.111,1.82-.241,2.74-.378,5.871-.866,13.177-1.943,18.1,5.768l3.138,4.914ZM521.8,65.807c-.729.031-1.483.105-2.231.186-1.005.1-2.047.2-3.113.2-4.713,0-7.606-2.271-8.832-6.938l-1.22-4.574,26.378,10.7Zm43.41,32.154-1.71-1.337,2.826-3.794,1.8,1.405Zm2.445-10.528-.932-5.119c-11.59,1.863-19.692-4.76-26.366-11.178l-3.4-3.274,4.633-.78c12.16-2.061,20.764,4.376,27.586,10.943l.1.093,7.98,3.7Zm45.016,29.876a3.507,3.507,0,0,1-2.378-1.4,4.559,4.559,0,0,1-.435-.9l-2.635-6.969,7.679,5.106,14.3,9.891Zm80.919,99.438-.5,9.532-6.552-7.607-.018.025-.729-.73-3.585-4.419h.968L679.3,206.07l-8.433-8.486,12.025-.285-.067,6.456,6.938,3.082.049-4.165,4.59,7.972-.049.05a19.556,19.556,0,0,1,1.177,2.47C696.169,215.032,694.82,216,693.589,216.746Zm21.623,40.144-.031.019.031.049-.092.056.361.365h-.962l-.515.328-.043-.062-.815.452-.662-1.083-.748-.755.208-.13-.38-.625h1.4l3.076-1.863,1.1,1.95-1.937,1.3ZM252.147,138.569l4.413-13.462a3.548,3.548,0,0,1,1.52-2.55,5.52,5.52,0,0,1,1.361-.569l7.024-2.1Zm107.4-36.016-.031-.953-5.565,2.847c-8.869,4.524-17.369,7.91-23.7-.47l-18.448-.229v1.628l14.164.749-2.617,9.3L309.17,109.3l-13.214-.718-.558-6.74,12.546-1.851.067-2.661-2.323-1.739L308,91.74l1.011.4a3.564,3.564,0,0,1,2,1.467l.527,1.294,19.7,5.088,28.242-.031-.123-4.555h56.324l.19,7.149Zm151.885-3.547,24,10.918-26.7-1.937ZM451.15,86.12l2.844-8.715L475.77,88.082Zm50.226,10.045-3.616,8.089L478.712,92.4Zm-.631,25.178-7.771,3.132-6.429-14.143,8.905-4.1,3.91,11.141,7.539,1.584a3.72,3.72,0,0,1,2.752,1.139,6.066,6.066,0,0,1,.791,1.3l3.31,7.031-13.312-7.978Zm48.117-2.216-14.237-4.964,14.8-2.2Zm41.989,62.587-11.939-11.166,13.055-.334Zm-555.9,285.05a13.089,13.089,0,0,0-.8,1.052L29.2,475.1l2.323-30.705,3.9,15.238a25.308,25.308,0,0,1,.864,3.9,4.217,4.217,0,0,1-1.281,3.15Zm.5,28.811,6.509-1.43-1.023,12.843L35.45,506.8Zm5.136,26.478,6.319-.074v22.5l-6.319.037Zm23.388,72.193-7.814-19.862c-3.953-.966-6.742-2.915-8.3-5.787-2-3.72-1.826-8.789.539-15.486l2.237-6.313,8.427,24.076,5.387.662Zm33.31,27.159-.435-3.256h.221a2.048,2.048,0,0,1,.8-1.133l1.06-.848,1.269.526a2.006,2.006,0,0,1,1.054.817l.2-.068.5,3.3Zm210.127,206.05a6.027,6.027,0,0,0-.588.316,4.774,4.774,0,0,1-2.384.835,2.776,2.776,0,0,1-1.115-.235,4.909,4.909,0,0,1-2.188-2.259c-.123-.2-.2-.34-.288-.464l-2.458-3.417,4.143-.359c.147-.012.288-.037.423-.056a6.658,6.658,0,0,1,2.58-.043,4.2,4.2,0,0,1,2.182,1.442,3.4,3.4,0,0,0,.288.3l2.721,2.432Zm14.642,6.975-7.569-2.166,3.751-2.866c.178-.13.349-.279.509-.421a7.872,7.872,0,0,1,2.635-1.7c1.649-.5,2.813.638,3.518,1.318.159.161.306.309.441.421l2.856,2.278Zm195.087-2.8-10.848,1.987c-.478.081-.876.173-1.214.248a9.71,9.71,0,0,1-2.022.291c-.159,0-.319-.012-.5-.025-1.71-.179-2.212-1.739-2.464-2.482l.748-.718h0l-.852.378-1.918-4.4Zm-30.607-45.065-22.413,11.172-3.1-8.622ZM218.107,743.218c-.325.012-.637.018-.956.018-10,0-16.842-5.2-21.475-16.352-3.236-.242-7.306-.966-9.7-3.943-1.7-2.123-2.292-5.038-1.753-8.671l.693-4.679,13.226,13.338c10.535,1.362,17.957,7.087,22.052,17.008l1.305,3.169Zm13.949-5.1-14.783-11.5-4.774-3.224.552-.068-1.882-1.461-15.488-12.651,2.8-3.732,16.824,12.125,4.051,4.976c8.427-.743,14.145,3.28,17.234,11.945L239,741.305l-9.7-6.555ZM269.54,775.9l-5.473-5.069,2.133-1.727c.123-.105.251-.248.392-.383a4.551,4.551,0,0,1,3.181-1.7h.061a4.258,4.258,0,0,1,3.046,2.018c.165.211.282.359.4.489l1.8,1.869Zm21.684,11.067-15.377-10.015,19.116,1.009Zm14.041-10.305-8.807-6.716-2.96.31a43.65,43.65,0,0,1-4.7.266c-9.353,0-15.347-3.992-18.319-12.212l-1.017-2.822,2.948-.347c9.861-1.2,17.559,2.686,22.854,11.525l1.551,2.581,61.1,18.89h24.656l-1.685,11-23.136-6.95-1.992.1C336.89,793.123,319.956,787.886,305.266,776.665Zm39.923,60.427a3.3,3.3,0,0,1-2.7,2.1,7.592,7.592,0,0,1-2.206-.377l-3.818-.959,1.906-2.822a3.408,3.408,0,0,1,2.7-2.129,8.022,8.022,0,0,1,2.249.4l3.855.99Zm-2.789-8.616-.031-6.951h18.613l.061,6.951Zm47.934,16.829h-29.78l.018-7.149h33.384Zm17.725-11.333h-31.3l3.592-7.3h30.031l.031,7.273Zm-8.464-32.191-.006-7.223h54.167l.037,7.223Zm38.471,24.925h24.38l.159,6.969H436.619Zm7.63,17.918,2.96-7.242h18.981l.429,7.242Zm16.027-24.869,25.49,1.281-2.954,9.55Zm16.7,24.962-3.3-8.523,14.433-5.3,3.009,7.91Zm25.545-50.165c-.123.105-.257.235-.38.359a4.206,4.206,0,0,1-2.887,1.5l-.27-.012a4,4,0,0,1-2.77-1.851c-.153-.192-.239-.3-.331-.4l-1.863-1.9,2.1-1.64a4.3,4.3,0,0,0,.349-.334,4.349,4.349,0,0,1,2.966-1.5h.043a4.083,4.083,0,0,1,2.9,1.826c.172.2.257.322.349.415l1.888,1.863Zm76.525-37.563,2.065-6.48c2.574-8.065,8.268-11.952,16.959-11.518l7.073.371Zm80.919-14.836c-.2,4.481-1.416,7.613-3.7,9.593a9.992,9.992,0,0,1-6.723,2.222,15.544,15.544,0,0,1-1.9-.112l-4.983-.551,17.584-17.095ZM789.5,434.054l-8.568,1.56-.153-.941L775.3,401.925l7.085-1.294ZM771.357,375.59h.012a3.7,3.7,0,0,1,2.127-2.649,3.215,3.215,0,0,0,.386-.241l2.6-1.931,3.162,9.643-8.108,3.417-.184-4.617A20.4,20.4,0,0,1,771.357,375.59Zm.024,62.042a5.539,5.539,0,0,1,.7-2.377,3.444,3.444,0,0,1,2.642-1.467l2.372-.607,2.28,6.536-8.678,1.919Zm-26.673-12.855,6.7-.167v26.732l-6.7.111Zm-25.251-84.788.012-.006a3.527,3.527,0,0,0,.331-.272l1.986-1.913,3.653,5.4-4.572,5.218-1.7-2.494a3.629,3.629,0,0,0-.263-.322,3.92,3.92,0,0,1-1.213-2.965A4.017,4.017,0,0,1,719.458,339.988Zm-15.953-39.476c12.846,2.018,12.258,11.7,11.823,18.772-.061.99-.116,1.968-.135,2.934l-.319,9.228-15.9-31.64Zm-18.791-30.167,13.925,10.008-16.082-5.843a3.7,3.7,0,0,1-2.476-1.454,4.1,4.1,0,0,1-.46-.941l-2.862-7.328ZM634.562,217.52l-.3,18.03-9.573-22.09,5.553-.124L628,200.054l8.826-1.126,2.887,19.1Zm71.3,344.573-5.4,5.453.2-.445-6.037,5.929L695,566.9q.937-15.059,1.918-30.111l.08-1.213c1.471-22.913,2.991-46.612,4.284-69.9.4-7.273.925-14.669,1.428-21.824l.95-.235h0l-.932-.068c1.471-20.976,2.985-42.663,1.71-63.738-1.22-20.282-9.187-39.76-15.653-52.529-8.623-17.046-19.1-33.559-29.235-49.527-4.694-7.4-10-15.752-14.954-23.971a24.781,24.781,0,0,1-2.586-7.446c-.147-.625-.288-1.244-.447-1.851l-1.808-7.149,5.6,4.741c1.71,1.448,3.494,2.847,5.3,4.24,4.86,3.788,9.818,7.662,13.349,12.67,9.071,12.874,17.314,26.626,25.287,39.921l4.731,7.885c21.01,34.858,28.475,73.746,23.5,122.388-3.04,29.678-4.456,60.006-5.816,89.337-.374,7.972-.736,15.833-1.134,23.668,7.68-24.572,8.991-50.344,10.162-73.294.539-10.608.956-21.137,1.41-32.816.981-25.389,2-51.631,4.75-77.819l1.79-16.891,2.862,16.736c.6,3.5,1.416,7.05,2.194,10.491,1.759,7.737,3.567,15.715,3.248,23.637-1.833,45.393-4.866,90.934-7.8,134.977l-.074,1.164a33.847,33.847,0,0,1-2.519,9.5,31.759,31.759,0,0,0-2.243,7.879c-.355,3.633.264,7.384.913,11.345.049.328.1.65.16.978l7.765-7.056,4.719-32.451-.012-46,4.584,14.279c5.124,15.962,5.657,17.627-.092,30.594l-1.109,2.482.4,4.846c.116,1.374.294,2.748.478,4.128l.073.625c1.03,7.737,2.09,15.746-4.964,22.82l-.233.235.006.167c.41,9.94-.49,22.511-11.069,31.826l.061.576c.055.569.129,1.139.209,1.708l.074.526c.662,4.642,1.551,10.961-6.245,13.641l-.962,10.429-7.747-3.423L716.682,598l5.16-14.4L722,567.391,710.21,578.334c4.811,8.077,4.431,17.256-1.152,28.05-4.229,8.2-9.531,15.869-14.654,23.291l-1.213,1.764q-1.6,2.321-3.181,4.648l-10.523,15.591,26.391-73.362ZM739.7,635.579l-7.851-5.837,8.807-4.271Zm2.213-8.875-2.936-10.825,8.409,1.071Zm12.276-35.323V568.258l10.3,3.608Zm13.594-31.931h-6.319V542.764h6.319Zm6.65-62.977-.006.031c-.8,5.391-1.557,10.491-.349,15.04.539,2.005.037,3.961-.8,7.2-.484,1.912-1.091,4.277-1.74,7.5l-3.42,16.99-2.985-42.193c-.613,3.844-1.207,7.675-1.784,11.45l-.135.86c-2.654,17.287-5.4,35.168-9.917,52.368-10.818,41.233-29.308,81.545-54.957,119.813-1.839,2.729-4.658,4.524-7.391,6.263-.864.539-1.655,1.04-2.409,1.566l-7.109,4.865,3.659-7.836q5.148-11.039,10.272-22.083L697,664.774c8.292-17.875,17.688-38.133,27.114-57.963,17.884-37.619,27.194-80.028,28.444-129.667.8-31.6,1.808-68.38,3.8-105.107l.956-17.6,5.105,23.8c4.143,18.933,8.053,36.814,5.283,57.1-.687,5.019-.981,10.3-1.269,15.405-.306,5.471-.619,10.968-1.33,16.346C777.621,475.1,775.856,486.942,774.434,496.474Zm9.438,25.674-7.226.285v-48.84l7.226-.31Z" transform="translate(118.515 49.953)"/><path class="a" d="M120.558,32l7.616,5.118-.06-5.125Z" transform="translate(596.053 147.353)"/><path class="a" d="M53.779,139.056l.047.033,1.721.43-.013-.6Z" transform="translate(245.184 686.017)"/><path class="a" d="M137.609,187.815l-3.687-3.727-12.5-.863-6.046-10.865-8.546.088c-1.2,2.15-2.689,3.248-4.442,3.282-2.993-.013-4.765-2.945-5.985-5.493l-.135-.29L91.576,164.2l1.153-.573L83.38,159l.532-.708-4.334-4.421-8.816-4.091a4.817,4.817,0,0,1-3.619,2.143c-.189,0-.391-.007-.586-.02l-.04,2.015-2.083-2.79A12.746,12.746,0,0,1,60.9,146.8l-4.651-4.63h-.613l-.02-.62-5.311-5.3h-.6l-.04-.64-4.839-4.7-5.378-1.948c23.556,29.352,65.175,58.826,94.75,66.867l3.5-3.518Z" transform="translate(168.231 628.805)"/><path class="a" d="M119.572,138.251l1.333-1.369-1.333.006Z" transform="translate(591.193 674.34)"/><path class="a" d="M143.261,117.194l-1.059-.219,1.034.255Z" transform="translate(699.317 581.546)"/><path class="a" d="M122.2,135.131l.018,1.509,1.478-1.5Z" transform="translate(604.984 664.289)"/><path class="a" d="M16.539,367.758c4.226,10.379,6.2,21.3,8.108,31.873,3.195,17.692,6.228,34.468,19.1,47.847Q42.7,437.8,41.632,428.2c-1.982-17.894-4.024-36.409-5.736-54.566-1.874-19.917,1.388-36.645,9.968-51.156l.58-.977-.364-2.184c-.944-5.621-2.116-12.617,5.87-16.418l3.228-1.53-6.3,20.018-.121,1.981c-2.231,35.715.027,73.155,6.7,111.276,2.035,11.62,3.309,23.536,4.549,35.061l.9,8.344c.155,1.415-.809,2.48-2.143,3.963-.627.688-1.375,1.51-2.164,2.548L54.8,486.92l-2.157-6.713c-.917-2.864-1.7-5.3-2.527-7.724a4.95,4.95,0,0,0-.539-1.065c-.209.088-.452.175-.728.283.3,2.965.559,5.972.829,9,.687,7.839,1.4,15.953,2.8,23.853.479,2.676.842,5.533,1.206,8.438,1.173,9.2,2.379,18.71,7.4,23.57C74.361,549.419,83.19,564.86,91.729,579.8c2.332,4.084,4.671,8.162,7.1,12.213.816,1.362,3.114,2.251,5.331,3.114.2.074.411.155.613.236v-.121l.027.007.465-10.474,9.193,3.9q-2.922-6.511-5.864-13.015c-6-13.284-12.2-27.027-17.989-40.7-1.86-4.388-3.828-8.755-5.8-13.129-5.945-13.237-12.1-26.919-15.219-41.1-3.768-17.153-5.884-34.926-7.926-52.106-1.247-10.507-2.541-21.372-4.2-31.974C51.02,355.438,55.792,319.864,72.056,287.9a683.11,683.11,0,0,0,29.406-66.543c5.7-14.963,10.4-30.613,14.949-45.751,1.833-6.12,3.673-12.233,5.574-18.319l-5.736-1.186,9.82-18.629.034,10.791,7.926-15.866-.162-.142,12.469-17.22-.519-.256,1.786-1.564,28.355-23.111L186.331,64.32l3.889,16.715,20.617-24.891-.2-.081.081-.088c-1.348-.714-2.615-1.746-2.622-3.262-.007-1.975,2.123-3.127,3.788-3.828l-.027-1.813-.067.067V44.862L199.339,44.5l4.415-9.813c-18.137,4.657-28.213,18.494-35.708,31.59-.937,1.638-1.86,3.309-2.784,4.981-3.815,6.922-7.764,14.08-13.217,19.734-31.988,33.181-50.711,74.806-68.821,115.057-8.472,18.845-17.234,38.33-27.256,56.716-3.5,6.443-6.841,13.143-10.056,19.62-7.454,14.983-15.145,30.451-25.719,44.173.634,2.507,1.442,5.068,2.224,7.555C26.15,345.975,30.012,358.235,16.539,367.758Zm84.424,204.051,2.426,5.068-2.784,1.388L99.177,575.6l-1.038-2.494ZM83.291,544.546c10.541,1.719,12.449,9.847,12.92,17.578L96.326,564l-1.867-.229c-10.292-1.3-11.62-9.321-12.786-16.4l-.526-3.161ZM62.33,490.539l17.106,44.773-3.383-1.456c-12.476-5.345-14.976-15.34-17.4-25.012-1.146-4.576-2.231-8.9-4.327-12.792l-.782-1.456ZM107.6,175.691c.2-.431.4-.869.58-1.308l.937-2.285,4.266,4.718-3.613,8.283-1.6-2.062c-.155-.189-.357-.4-.553-.6-.728-.741-1.638-1.672-1.4-2.9A17.638,17.638,0,0,1,107.6,175.691Zm-5.412,16.162a5.158,5.158,0,0,0,.445-.364l1.308-1.267,1.051,1.483a4.266,4.266,0,0,0,.371.438,2.767,2.767,0,0,1-.3,4.657c-.155.135-.31.27-.438.4l-1.3,1.409L102.2,197.05c-.128-.182-.29-.357-.438-.532a3.318,3.318,0,0,1-1.126-2.46A3.365,3.365,0,0,1,102.183,191.853Zm-7.832,19.485,1.53.357h0l1.449.573-.337.863-1.449-.566h0L94.1,212Z" transform="translate(54.414 132.74)"/><path class="a" d="M111.831,27.32h.006l.359-.684Z" transform="translate(550.529 116.627)"/><path class="a" d="M120.969,138.68l-4.928-.042L116.06,141l.018-.006v.213Z" transform="translate(572.449 684.418)"/><path class="a" d="M122.748,137.816l-4.946-.055.03,2.354.036-.018v.238Z" transform="translate(581.703 679.386)"/><path class="a" d="M137.057,48.449l.012-1.414-1.4,1.418Z" transform="translate(661.785 213.681)"/><path class="a" d="M122.9,138.959l-1.259,1.284H122.9Z" transform="translate(602.058 686.262)"/><path class="a" d="M64.292,29.281l3.526-.033.049-3.541-3.587.006Z" transform="translate(300.358 111.298)"/><path class="a" d="M45.861,37.088l.021,1.457L47.315,37.1Z" transform="translate(203.549 161.369)"/><path class="a" d="M50.249,33.582l.015,1.509,1.473-1.5Z" transform="translate(226.623 156.503)"/><path class="a" d="M53.184,131.636l1.478,1.478.006-1.484Z" transform="translate(242.061 644.191)"/><path class="a" d="M123.952,33.582h-1.46l1.454,1.473Z" transform="translate(606.543 156.503)"/><path class="a" d="M46.741,34.466l0,3.574,3.538,0,.009-3.577Z" transform="translate(208.122 161.54)"/><path class="a" d="M47.724,45.167h0l.03,2.652L49.339,45Z" transform="translate(213.327 202.942)"/><path class="a" d="M59.267,40.319c-6.747,5.473-11.653,12.772-14.814,22.066Z" transform="translate(195.912 178.027)"/><path class="a" d="M59.384,32.721l-4.7.033-.043,1.859.058-.036-.028.6Z" transform="translate(249.639 151.558)"/><path class="a" d="M51.122,36.263l9.439-.106.1-3.395-9.543-.052Z" transform="translate(231.021 151.499)"/><path class="a" d="M61.919,33.59l-6.419.055L52.34,40.012Z" transform="translate(237.45 156.547)"/><path class="a" d="M126.571,131.631l.006,1.46,1.46-1.46Z" transform="translate(627.995 644.201)"/><path class="a" d="M46.174,37.091l1.423-.082.012-1.357Z" transform="translate(205.197 168.382)"/><path class="a" d="M69.676,71.388l2.554-.5L90.064,40.93c-19.485,10.534-32.749,27.506-41.41,52.9L56.7,89.626C57,81.673,58.926,73.47,69.676,71.388Z" transform="translate(217.443 180.697)"/><path class="a" d="M125.7,132.519l.006,1.405,1.424-1.417Z" transform="translate(623.406 649.227)"/><path class="a" d="M124.385,61.159V52.1l-6.2-.033Z" transform="translate(583.68 239.992)"/><path class="a" d="M619.056,603.231c.485-.431.964-.863,1.442-1.287l.283-.249c3.943-3.511,7.636-6.794,9.5-10.8,23.212-49.795,43.938-98.982,42.623-153.205-1.125-46.256-3.66-93.564-7.549-140.615-1.159-13.965-7.515-28.247-13.581-40.365-7.4-14.781-15.637-29.487-23.61-43.7l-.324-.58c-5.587-9.955-11.363-20.253-16.809-30.512a46.5,46.5,0,0,1-2.629-6.1c-3.2-4.556-63.315-88.623-160.437-127.8a42.265,42.265,0,0,1-8.485-2.029c-39.907-14.706-83.029-17.76-131.894-9.348-50.253,8.647-86.682,22.828-118.124,45.98-1.921,1.415-4.273,1.732-6.551,2.042-.66.088-1.314.175-1.948.3-3.613,3.788-7.286,7.535-10.952,11.283-8.175,8.344-16.627,16.971-24.392,26.1C110.766,163.249,92.008,202.684,86.59,246.44c-1.584,12.819-5.9,27.1-12.86,42.455A377.16,377.16,0,0,0,41.708,409.869c-6.376,68.956,25.362,124.709,57.256,170.156,55.22,78.7,131.253,131.233,232.44,160.585,39.482,8.546,118.366,13.615,202.865-48.278l-.95-1.132,6.41-2.959c4.529-3.525,9.456-7.535,14.5-11.849l1.826-3.633-.168-.3.013-.027-.047-.088a9.688,9.688,0,0,1-1.186-2.972,2.739,2.739,0,0,1-.034-.7l-1.058-.027,2.083-2.036c.128-.141.283-.283.425-.425l15.751-15.623.007,7.859a35.158,35.158,0,0,0,3.485-1.4c4.954-4.927,9.443-9.611,13.729-14.309l.816-.89c.384-.842.741-1.719,1.072-2.649l-6.477.06.694-1.072,16.3-24.911-.013,3.707,17.322-26.845Zm6.47-16.553-1.476-2.1a2.482,2.482,0,0,0-.256-.317,4.008,4.008,0,0,1-1.355-3.114,3.92,3.92,0,0,1,1.847-2.635l.162-.128a2.1,2.1,0,0,0,.263-.209l1.894-1.773,3.923,5.621Zm9.746-15.623-3.552,3.714-1.584-2.13c-.088-.115-.182-.216-.276-.323a4.157,4.157,0,0,1-1.516-3.175,4.007,4.007,0,0,1,1.874-2.8c.209-.169.33-.263.431-.364l1.827-1.793,4,5.365Zm5.493-10.972-5.884-.148v-11.5l6.463.141Zm6.612-17.315L638.8,539.2l10.1-15.387ZM671.25,421.853l1.139,17.221-7.825.337V422.041Zm-12.624-48.332h6.544v23.462l-6.544.061Zm-2.1,89.688,4.071,5.8c5.243,7.454,10.912,18.36-.4,27.061l.148,1.2c.067.62.162,1.233.263,1.854l.054.384c.768,4.974,1.827,11.795-6.875,14.7l-4.32,1.442L656.53,495.3Zm-1.489,4.118-2.689,9.315-2.575-1.847c-.357-.263-.748-.505-1.132-.748l-.276-.175a12.286,12.286,0,0,1-4.057-3.5c-1.132-1.766.249-3.518,1.719-5.378.4-.5.789-.984,1.078-1.409l1.443-2.15ZM641.817,291.9l.566.384-.56-.391c.115-.168.236-.344.337-.519l2.608-4.529,2.473,8.438-4.3,7.528-1.51-4.994c-.041-.121-.094-.256-.141-.391l-.074-.216a5.574,5.574,0,0,1-.539-2.75A5.4,5.4,0,0,1,641.817,291.9Zm-7.4,153.32,7.286.047v18.67l-7.286-.034Zm1.611,33.834-2.878,7.535-2.8-4.7a19.276,19.276,0,0,1-1.5-2.777c-.775-1.752.768-2.817,1.692-3.458l2.608-1.995ZM623.3,290.364h5.608v14.214H623.3ZM610,191.792l2.831,10.063-8.917-1.557Zm-4.3,36.813-1.206,9.631-7.569-5.837Zm-10.177-.283-2.581-10.508,8.162,1.247Zm-6.639-21.7.02-.013a4.377,4.377,0,0,0,.4-.3l1.793-1.651,4.084,5.365-4.981,4.543-1.476-1.955a2.958,2.958,0,0,0-.242-.27,3.95,3.95,0,0,1-1.456-3.053A3.85,3.85,0,0,1,588.889,206.62Zm-110-115.549.047.168.054.169.869,2.258-7.131,2.19-2.339-8.789,3.518.688c.222.04.458.074.708.108a8.114,8.114,0,0,1,2.581.687A3.525,3.525,0,0,1,478.886,91.071Zm-10.44-19.148a17.062,17.062,0,0,1,1.361-3.572l.168-.35c.142-.3.283-.6.4-.9l2.339-5.358,2.258,6.679a18.13,18.13,0,0,1,1.085,3.869c.209,1.6-1.018,2.595-1.833,3.249-.2.162-.364.3-.492.418L472,77.726,470.414,75.8a4.556,4.556,0,0,0-.438-.452C469.2,74.579,468.1,73.48,468.446,71.923ZM407.133,42.085l.566,4.866-11.9.849-.229-5.715Zm-60.336,4.3.1,7.07H317.4l-.054-7.07ZM267.455,56.617l7.63,10.063L263.4,63.835ZM259.017,65.6l-5.7,8.054-4.233-8.91Zm-18.265-3.195-.458,10.049-2.062.276-16.2.007h-3.026Zm11.027,66.57.506,1.072-9.9-.856,5.668-7.98,2.77,5.79,1.766-2.736c11.626-18.023,24.4-23.091,42.785-16.9l5.79,1.941-49.39,19.667ZM250.3,140.542c24.459-13.392,46.391-20.563,73.337-23.967.944-.128,1.941-.29,2.959-.458,8.216-1.355,13.635-1.254,16.209.317,9.409,5.662,19.263,4.482,29.689,3.228,2.5-.3,5.082-.613,7.65-.816a16.564,16.564,0,0,1,5.419.7,18.037,18.037,0,0,0,4.711.708c6.605-.229,13.419,1.4,17.369,4.186,7.144,5.062,14.868,7.232,23.037,9.53a107.859,107.859,0,0,1,17.274,5.965c23.879,11.337,48.541,23.037,65.168,46.061,2.817,3.889,5.769,7.818,8.634,11.62l.242.33c15.59,20.712,31.711,42.138,35.621,69.933a37.825,37.825,0,0,0,2.993,10.656c13.015,27.9,16.533,52.059,11.087,76.04l-.256,1.078-6.207,2.838,6.524,6.282v.95a43.291,43.291,0,0,1-.263,4.913c-.27,2.837-.566,5.992.445,7.475,12.4,18.05,7.643,39.961,3.046,61.151-1.166,5.379-2.271,10.46-3.08,15.428-.842,5.223-1.51,10.029-2.15,14.686-3.013,21.885-5.19,37.7-21.77,59.675-6.127,8.122-15.522,17.086-24.614,25.76-7.077,6.76-13.756,13.136-18.73,18.912l-2.871,3.363a28.256,28.256,0,0,0-2.177,3c-1.206,1.853-2.258,3.458-4.63,4.482-26.063,11.262-47.085,20.146-70.284,29.689a37.2,37.2,0,0,1-13.109,2.622v.02l-1.483-.041-9.315-.324c-57.566-1.968-117.1-4-168.936-41.019-5.776-4.131-11.714-10.2-17.45-16.075-1.557-1.591-3.094-3.168-4.63-4.7-42.286-42.313-63.16-83.11-69.792-136.416-2.682-21.561-.748-39.819,1.483-60.963v-2.44c.3-2.865.479-5.7.647-8.425.687-11.013,1.281-20.57,9.51-23.226-.249-.431-.512-.869-.768-1.308-1.678-2.817-.067-5.749,1.355-8.337a15.271,15.271,0,0,0,1.6-3.538c13.844-59.224,24.783-106,68.518-145a19.607,19.607,0,0,0,2.076-2.3,14.667,14.667,0,0,1,4.637-4.226c4.145-2.035,7.589-5.641,10.912-9.126C243.1,146.123,246.373,142.692,250.3,140.542ZM232.92,118.368l-10.427,1.442-1.719,6.369-8.519-6.787,7.892-3.019,8.5-7.124Zm-23.677-28.7c.1-.088.209-.182.31-.283a4.319,4.319,0,0,1,3.195-1.55,3.961,3.961,0,0,1,2.757,2l.1.142a3.662,3.662,0,0,0,.243.3l1.6,1.8-1.914,1.469a4.2,4.2,0,0,0-.371.337,4.265,4.265,0,0,1-2.858,1.5c-.088,0-.182-.007-.263-.013a3.931,3.931,0,0,1-2.757-2l-.128-.169a2.441,2.441,0,0,0-.222-.283l-1.584-1.793ZM150.936,126c.04-.115.074-.243.108-.377a3.6,3.6,0,0,1,1.7-2.541,5.406,5.406,0,0,1,1.6-.485l6.187-1.085L146.15,138.19Zm-8.62,161.637q.6-5.945,1.193-11.876l.546-5.459c1.543-15.455,3.127-31.435,4.994-47.193.816-6.861,2.251-13.81,3.511-19.943.438-2.184.883-4.361,1.314-6.544l-3.188-.377.768.485-1.705,2.709-.094-.061a1.628,1.628,0,0,1-1.287.532l-1.523-.061-.607-1.146a1.741,1.741,0,0,1-.169-1.658l-.061-.04,1.645-2.669.067.047,5.082-9.47-1.382.013,2.918-2.878,3.491-6.5V178.6l5.9-5.817.027,5.358,2.837-2.8h.458l10.73-9.025c8.6-7.232,18.353-15.428,28.045-23.475l.917-.768c7.036-5.87,15.016-12.5,26.353-8.223l3.3,1.247-2.527,2.46c-3.107,3.019-6.228,6.019-9.348,9.031-7.036,6.76-14.248,13.7-21.15,20.692C170.8,200.211,159.1,242.3,152.546,275.293c-.755,3.781-2.669,7.326-4.361,10.447-.553,1.031-1.112,2.076-1.645,3.121l-5.473,10.959Zm-5.581,18.521,4.651-2.615-1.4,5.149c-1.058,3.916-2.265,7.866-3.424,11.687l-.142.452c-2.844,9.335-5.79,18.98-6.875,28.6-7.353,65.256,4.779,120.665,37.1,169.394C213.94,590.128,280.612,630.056,364.82,637.5c75.811,6.693,139.294-24.816,183.582-91.036A248.275,248.275,0,0,0,589.7,432.5c.1-1.031.3-2.083.492-3.1l.04-.229a17.563,17.563,0,0,0,.505-4.934c-1.328-11.829-2.447-23.9-3.518-35.567l-.054-.559c-4.428-48.177-9.011-97.992-29.318-143.884a178.479,178.479,0,0,0-10.3-18.892c-1.779-2.979-3.619-6.059-5.345-9.133l-2.447-4.314c-2.548-4.475-5.149-9.052-7.434-13.722a49.332,49.332,0,0,1-2.763-8.216l-.155-.566c-.566-2.029-1.26-4.489-2.2-7.6l-1.463-4.826a8.617,8.617,0,0,1-4.745,1.719h-.256c-4.2,0-7.293-3.4-10.022-6.389l-.31-.344c-.344-.377-.674-.748-1.018-1.1-24.25-25.335-55.827-40.076-86.345-52.234-9.847-3.929-21.008-5.486-31.8-6.989l-.3-.04c-3.3-.465-6.571-.917-9.82-1.449-8.1-1.308-16.041-2.15-25.221-3.127-4.34-.458-8.876-.95-13.743-1.516l-3.586-.418,1.982-3.026c6-9.2,12.071-13.257,18.2-14.578h-38.37l7.677,16.695-25.544,5.129-.135-.667-3.7-17.969H280.847l-42.212,24.655.013-3.916c.034-9.948,2-16.445,6.208-20.456,3.592-3.437,8.728-4.947,15.893-4.7q5.884.253,11.754.458l7.758.3.613-.425c1.8-1.213,3.565-2.46,5.331-3.7l.31-.222c5.486-3.869,11.161-7.872,17.322-10.878,5.149-2.507,13.3-3.808,18.265-1.308,13.163,6.632,25.126,3.242,37.791-.357,22.713-6.423,43.257,3.067,60.363,13.2l7.03,4.165H369.565c2.184.364,4.381.9,6.592,1.49,9.908,2.682,20.152,4.927,30.053,7.1l.256.054q5.874,1.284,11.748,2.6a10.99,10.99,0,0,0,1.773.189,9.729,9.729,0,0,1,4.644,1.018c10.656,6.41,22.067,12.1,33.1,17.6,25.045,12.482,50.94,25.4,70.479,47.82,1.206,1.388,1.274,3.316,1.321,4.866l.007.189a14.392,14.392,0,0,0,.1,1.463l.148.964-.613.762a18.535,18.535,0,0,1-2.662,2.777l4.132,2.952c18.582,13.251,26.98,23.549,32.068,39.354,4.442,13.81,10.7,27.31,16.749,40.365l.074.162c5.992,12.927,12.179,26.292,16.654,40.042A251.537,251.537,0,0,1,607.255,401.68a20.348,20.348,0,0,1-1.914,5.965,22.438,22.438,0,0,0-1.314,3.545c15.556,20.112,8.122,38.074.923,55.442-2.736,6.592-5.513,13.3-6.9,19.93-.4,1.914.222,4.361,1.253,8.411.3,1.206.647,2.541,1,4.024.937-1.739,1.793-3.31,2.588-4.752,2.743-4.981,4.543-8.249,5.506-11.721,7.434-26.495,14.039-54.877,6.234-84.97a147.135,147.135,0,0,1-4.927-40.918c1.267-39.509-12.132-74.591-25.409-103.687-2.009-4.408-3.983-8.843-5.958-13.284l-.4-.9c-13.911-31.327-28.294-63.726-55.854-86.669-12.172-10.144-25.477-19.431-38.35-28.415-4.59-3.195-9.079-6.336-13.534-9.51-4.246-3.026-8.8-5.81-13.21-8.5l-.869-.539q-1.85-1.132-3.687-2.271l-2.2-1.206-11.343-4.974-10.056-2.514,3.094-6.969,7.616,5.817.721-.155c2.79-.62,6.6-1.463,9.544.425a8.573,8.573,0,0,1,3.458,5.405l.505.034c26.791,1.867,46.155,10.555,60.929,27.33,4.886,5.56,11.552,9.941,17.982,14.181,2.245,1.476,4.752,3.127,7.158,4.826l.209-.317,1.975,1.833L553.2,157.742l.667.391,2.426,2.366.027-5.8,11.788,12.408v-3.855l5.891,12v-.377l4.7,10.029h-.054l5.453,11.8-5.412.128c3.242,7.508,6.652,15.077,9.948,22.4,8.809,19.586,17.908,39.826,24.789,60.484,5.372,16.156,7.609,33.551,9.773,50.374.674,5.237,1.341,10.359,2.1,15.535,2.561,17.416,4.785,36.119,7.2,60.652,2.939,29.622-3.552,58.354-9.82,86.15l-.384,1.692c-.249,1.139-.512,2.271-.762,3.4l7.6-3.532-.977,9.813-6.908-5.021q-.91,4.084-1.793,8.169l.168.29-.4,1.294-.4.7,1.847-.465.452,1.921h-.182a2.138,2.138,0,0,1-.661,1.321l-.923.9-1.247-.364a2.1,2.1,0,0,1-.917-.512c-.755,1.287-1.516,2.561-2.271,3.842l-.782,1.314c-3.72,6.248-7.939,13.332-11.572,20.469C569.949,601.734,520.8,643.6,452.331,665.69a182.9,182.9,0,0,1-56.905,8.533c-20.739,0-40.884-2.73-62.209-5.621-2.548-.344-4.138-2.541-5.54-4.475-.27-.384-.546-.762-.816-1.119l-.1.013c-16.5,2.811-32.547-.344-50.5-9.908-9.948-5.284-20.577-9.793-30.849-14.154l-2.372-1,15.61,14.821,7.333,4.462-.741,1.476,16.654,1.523-3.633,8.85-13.938-8.553-.014.04-.29.559-8.748-3.5c-26.144-6.5-47.543-22.329-65.33-48.366l-1.773-2.588-.512.505-5.877-5.763,2.972-3.222,2.359,1.813,3.707,4.044-1.645,1.631,9.625.29c-1.146-1.308-2.292-2.6-3.444-3.9l-.937-1.058c-6.228-7.05-12.577-14.228-18.434-21.635l-.883-1.105h.02c-3.741-4.866-7.057-10.1-10.278-15.172-1.193-1.894-2.359-3.734-3.545-5.547L152.8,544.506l11.835,10.124q2.932,2.507,5.837,5.062c5.641,4.92,11.471,10,17.578,14.545,3.168,2.359,6.538,4.522,9.874,6.544l-3.37-3.68c-9.82-10.723-19.977-21.817-29.588-33.174-28.921-34.144-44.665-68.862-48.136-106.113a157.767,157.767,0,0,0-3.66-20.267c-.755,8.229.135,16.209,1.24,23.677,1.7,11.357,3.68,22.875,5.6,34.016l4.677,27.445L117.9,488.908c-1.719-3.5-3.687-7.036-5.594-10.467-5.163-9.254-10.413-18.676-11.882-28.7-2.858-19.559-3.579-39.7-4.273-59.183-.283-8.081-.573-16.338-1-24.426L95.082,365l-1.051.256-.573-2.312,4.374-1.031.222.957,10.71-7.117v31.3l.714-3.741c.917-4.866,1.847-9.834,2.9-14.693.33-1.51.64-3.026.95-4.543l.047-.2a152.091,152.091,0,0,1,4.448-17.847,91.176,91.176,0,0,0,2.716-11.262C122.648,323.962,124.845,312.808,136.734,306.155ZM606.54,554.8l-8.634-.8,5.217-9.577ZM499.322,659.981l-1.051,8.526-9.072-5.426Zm-12.678,14.161H467.489l16.439-8.9Zm-56.514,4.111,36.78-1.665-2.878,3.8c-3.289,4.341-7.016,6.369-11.741,6.369-4,0-8.849-1.523-14.835-4.657Zm1.1,13.116h-56.75L374.431,684h53.96Zm-76.033-6.16-4.071-.458a7.91,7.91,0,0,1-2.184-.4,3.142,3.142,0,0,1-1.8-2.136l-1.152-2.413,2.561-.924c.236-.054.377-.094.512-.135a4.692,4.692,0,0,1,3-.162,3.382,3.382,0,0,1,1.948,2.844,4,4,0,0,0,.1.424Zm-22.808-6.079H315.464l-.175-7.225,16.776-.768Zm-29.7-12.422-.377,6.854-14.005-.688.357-6.969ZM124.367,529.745l-6.517-3.862c-7.973-4.718-11.741-12.246-11.182-22.37l.445-8.506ZM114.243,330.136l1.516,9.314-18.508,2.177-1.813-10.009Zm-.7-5.318,4.974-17.618,2.453,13.689Zm1.739-123.233,2.292.324a2.893,2.893,0,0,1,2.8,1.665,8.512,8.512,0,0,1,.411,2.332l.371,3.5-7.987-1.274Zm-5.426,120.078-5.419,5.581L103.4,323.47c-.108-.4-.236-.8-.364-1.2a17.259,17.259,0,0,1-.842-3.72,3.848,3.848,0,0,1,1.685-3.107,4.361,4.361,0,0,0,.465-.425l2.7-3ZM95.594,219.446l9.921-23.8-2.46,27.081-7.744-2.608Zm-4.738,19.121h6.383v12.314l-6.383-.013ZM70.306,428.276l2.864-1.941,5.372,9.382-4.725.324c-.714.067-1.463.142-2.217.142a10.313,10.313,0,0,1-1.5-.108c-1.186-.182-2.157-1.206-2.75-2.9a2.693,2.693,0,0,1,.384-2.885A12.518,12.518,0,0,1,70.306,428.276Zm-1.469-55.335-1.22-5.028q-.051-.212-.121-.425a6.168,6.168,0,0,1-.425-2.838,5.168,5.168,0,0,1,1.206-2.426c.142-.175.256-.324.35-.465l2.777-4.307,1.267,4.974c.034.115.074.243.121.364l.061.2a5.489,5.489,0,0,1,.4,2.709,5.231,5.231,0,0,1-1.213,2.433c-.155.189-.27.344-.377.492Zm4.617,84.283,6.807.02v13.3H73.453Zm6.578,28.186c.094-.121.182-.263.29-.418l.189-.276c.687-1.038,1.732-2.662,3.538-2.143a21.4,21.4,0,0,1,3.761,1.6l3.727,1.8-1.759,2.2c-.108.135-.216.3-.33.479l-.155.216c-.7,1.038-1.5,2.217-2.871,2.217a2.4,2.4,0,0,1-.694-.1,21.542,21.542,0,0,1-3.761-1.6l-3.633-1.779Zm-2.44-65c-10.582-5.223-6.558-13.615-3.619-19.761A28.806,28.806,0,0,0,76.561,394l.115-.62,4.327.391v7.771l10.514-41.464v86.877Zm2.089-103.882L87.5,322.3,78.4,325.8Zm-11.741.748.9-3.262,2.494,1.321a.64.64,0,0,0,.182.088c.822.344,2.258.937,2.332,2.548a6.387,6.387,0,0,1-.4,2.305l-.883,3.235-2.844-1.463a2.893,2.893,0,0,1-2.177-2.494A6.559,6.559,0,0,1,67.94,317.276Zm-4.455,23.071.088-.061a1.758,1.758,0,0,1,.074-1.6l.519-1.186,1.281-.148a1.734,1.734,0,0,1,1.638.479l.061-.027,1.206,1.591,9.82-5.432v13.581l-16.115-4.671L64.4,341.58Zm-1.591,46.9,5.277-.3.971,11.936-6.248.216Zm-6.362-30.107,5.931-.034v12.408l-3.431-1.193c-.674-.182-2.366-.634-2.44-2.406-.081-1.732-.074-3.5-.067-5.2Zm4.293,58.415.782.3.566-.768,7.454,5.439-4.26-1.705-1.833,1.86c-3.66,3.734-6.073,5.331-8.068,5.331a3.648,3.648,0,0,1-1.368-.276c-2.656-1.112-2.595-4.516-2.534-7.8a15.408,15.408,0,0,0-.216-3.943L45,404.855ZM46.743,473.676l6.187-32.291-1.975,1.456,2.858-6.066,1.2-6.275.957,2.271,3.815,1.355-.142.856a3.521,3.521,0,0,1-.95,2.17l-.667.485,13.439,31.934-9.342,4.078-3.687-9.443-3.99,11.006Zm8.688,10.433h6.255v11.572H55.431ZM60,506.836l5.5-9.436,2.824,10.561Zm23.32,31.718L82.889,527.4l-5.533-.768v-.593l-.108-10.763-5.736.061-.168-19.061-6.322-9.988,8.668-3.741,1.294,13.392,6.571,18.487,5.594,12.321,6.416,12.32Zm9.921-29.824-9.712-5.48,11.208-2.844Zm1.6-32.183.674.128-.667-.128.074-.378c.189-.97.377-1.887.465-2.79l.067-.573c-3.485-1.409-5.7-3.484-6.551-6.18-1.55-4.819,1.624-10.285,4.563-14.5l3.5-5.015,2.3,24.338,6.592,20.874-4.064-1.233C92.5,488.254,93.916,481.211,94.846,476.547ZM277.417,716.286l-10.885-6.565-16.863-8.89,20.449-.492-.222,6.342h10.373ZM291.53,720.4a6.863,6.863,0,0,1-2.366-.526,3.355,3.355,0,0,1-1.692-2.433l-.8-2.143,2.13-1.072c.283-.088.425-.141.573-.2,1.166-.411,2.71-.971,3.916.249a5.028,5.028,0,0,1,1.206,2.75l.047.236a2.906,2.906,0,0,0,.081.364l.917,3.316Zm33.976,8.075.155-6.983-.081-.013-.243-.047-1.934-.344.054-.128a1.8,1.8,0,0,1-.944-1.173l-.458-1.213.849-.991a1.821,1.821,0,0,1,1.314-.775v-.1l2.939.506-.121.66,15.131,3.525Zm44.982,11.458a11.359,11.359,0,0,0-.627.964l-.108.182c-.856,1.429-1.82,3.053-3.68,3.255-.155.013-.3.027-.465.027-1.463,0-2.723-.768-4.192-1.658-.7-.425-1.449-.883-2.332-1.334l-6.861-3.525,21.339-1.955Zm232.4-151.419c-5.446,8.041-11.283,15.974-17.443,23.7l5.641-6.848-4.071,11.775a1.807,1.807,0,0,0-.074.3,3.848,3.848,0,0,1-1.6,2.757,6.13,6.13,0,0,1-1.86.667l-6.221,1.274c-.4.465-.782.923-1.173,1.382l2.1-.034L568.156,646.71l.142-14.41c-4.907,5.378-9.658,10.292-14.437,14.929l8.924.182L550.35,658.855l.067-8.344c-1.577,1.483-3.208,2.979-4.954,4.536a284.729,284.729,0,0,1-73.782,48.959,245.877,245.877,0,0,1-42.5,14.228,235.158,235.158,0,0,1-44.679,5.25,245.129,245.129,0,0,1-31.354-2.325l-3.195,8.951c-.027.087-.04.189-.061.29a3.531,3.531,0,0,1-1.564,2.507,5.663,5.663,0,0,1-1.7.566l-6.275,1.173,11.653-13.655q-6.268-.909-12.267-2.17c-2.379-.4-4.765-1.045-7.084-1.665-1.328-.357-2.555-.681-3.788-.977-.923-.256-1.793-.478-2.662-.694l-.438-.115a72.761,72.761,0,0,1-7.8-2.278l-20.7-7.05c-33.632-12.927-57.97-25.032-78.938-39.273a343.157,343.157,0,0,1-66.779-57.1c-3.3-3.444-6.322-7.238-9.227-10.912l-.438-.553c-1.436-1.806-2.878-3.606-4.34-5.365l-3.08-4.158c-3.289-4.448-6.7-9.052-9.739-13.824A212.361,212.361,0,0,1,107.7,544.863l-6.976-6.632,5.075,2.332c-.62-1.449-1.213-2.905-1.773-4.327l-.243-.607,4.03-1.813.29.586c1.584,3.121,3.329,6.342,5.2,9.571a3.564,3.564,0,0,1,2.372,1.766,5.136,5.136,0,0,1,.4,1.57l.2,1.631c4.28,6.922,9.119,13.938,14.808,21.453,3.208,4.394,6.774,8.62,10.231,12.7l3.269,3.889c1.725,1.793,3.518,3.781,5.1,5.534,3.073,3.383,6.16,6.8,9.47,9.833a362.624,362.624,0,0,0,66.806,52.477c21.379,13.318,46.478,25.066,76.747,35.9l20.233,6.618a59.421,59.421,0,0,0,6.78,1.955l.438.108c.95.223,1.894.452,2.844.708,1.173.276,2.42.6,3.667.93,1.975.519,4.212,1.112,6.342,1.449a216.276,216.276,0,0,0,41.376,4.044,219.772,219.772,0,0,0,41.181-4.563A244.069,244.069,0,0,0,465.15,689.1c24.169-10.359,48.049-25.416,70.978-44.76A380.048,380.048,0,0,0,594.26,582.4c19.478-25.773,33.113-50.051,41.68-74.233l.222-.613,4.219,1.26-.148.634c-3.12,12.947-8.162,26.387-15.414,41.08a341.519,341.519,0,0,1-21.932,37.986Z" transform="translate(153.324 107.842)"/><path class="a" d="M124.05,130.125l8.936-11.847-8.909,4.281Z" transform="translate(614.335 587.796)"/><path class="a" d="M95.874,118.69c-.445,0,.445.013,0,0Z" transform="translate(465.937 590.58)"/><path class="a" d="M60.741,54.589l-2.6.024.015,4.925Z" transform="translate(268.083 253.327)"/><path class="a" d="M119.3,126.4l-1.49-.018.025,1.491Z" transform="translate(581.895 630.937)"/><path class="a" d="M77.344,126.631,66.362,115.625l3.665,10.78Z" transform="translate(311.104 573.903)"/><path class="a" d="M89.823,210.1c16.641,8.27,34.084,15.677,50.954,22.848,6.693,2.844,13.379,5.682,20.038,8.587l.654.283.735.034c3.626.155,7.252.263,10.885.364,8.661.243,17.6.5,26.353,1.537,40.446,4.785,81.438-4.341,125.309-27.957,30.188-16.277,57.5-41.376,81.182-74.618,7.569-10.629,14.821-22.35,17.362-36.369a61.507,61.507,0,0,0-5.655,7.562l-1.2,1.773c-22.727,33.3-48.487,71.039-91.5,93.766C247,249.079,171.356,248.668,93.644,206.685c-7.475-4.037-15.448-7.508-23.165-10.871l-.64-.27.189.148C76.249,201.03,82.679,206.55,89.823,210.1Z" transform="translate(314.603 510.253)"/><path class="a" d="M89.306,137.984,74.047,117.932l-8.715-.3C70.3,125.71,77.437,134.627,89.306,137.984Z" transform="translate(305.333 583.938)"/><path class="a" d="M122.259,59.48l.006-4.87-2.562-.018Z" transform="translate(591.823 253.345)"/><path class="a" d="M120.192,125.511l-1.515-.006.012,1.509Z" transform="translate(586.48 626.341)"/><path class="a" d="M72.45,166.252c5.5-14.936,11.188-30.384,17.773-45.157,6.854-15.36,15.5-30.188,23.853-44.531,4.192-7.191,8.526-14.632,12.577-22.033a58.2,58.2,0,0,0,3.559-8.647c.074-.2.142-.411.209-.613C113.672,56.505,104.883,73.7,99.046,87.684c-9.348,22.4-18.649,45.265-27.64,67.379-10.6,26.063-21.561,53.009-32.675,79.383-13.817,32.783-17.591,61.589-11.889,90.665,3.35,17.079,4.907,34.771,6.41,51.891.62,7.043,1.24,14.093,1.982,21.123,4.1,38.9,18.454,74.867,43.8,109.611q-.657-1.759-1.308-3.539c-4.576-12.374-9.308-25.187-15.67-36.786C50.121,445.648,43.4,423.683,41.514,400.255a490.654,490.654,0,0,0-6.652-49.087C26.147,303.483,31.5,260.206,51.22,218.877,59.341,201.852,66.007,183.755,72.45,166.252Z" transform="translate(98.866 189.433)"/><path class="a" d="M40.941,45.182l-.28,5.638,5-7.961-4.714,2.317v0Z" transform="translate(176.151 191.609)"/><path class="a" d="M40.7,43.209h0v0h0Z" transform="translate(176.447 193.554)"/><path class="a" d="M74.53,156.714C63.6,145.62,52.059,134.729,40.9,124.208c-1.267-1.206-2.541-2.406-3.815-3.613,8.829,14.9,22.019,26.212,34.839,37.2q3.1,2.669,6.194,5.345l-.014-.04.31.283A19.714,19.714,0,0,0,74.53,156.714Z" transform="translate(156.846 598.257)"/><path class="a" d="M144.531,138.782l.082-.049-15.973.079L123.091,149.1l.262,2.287,21.206-12.606Z" transform="translate(608.62 684.967)"/><path class="a" d="M126.3,138.782l.081-.048h-.028l-.082.049Z" transform="translate(626.496 684.967)"/><path class="a" d="M47.761,141.4l-4.529-13.857-4.785-4.725-8.088-3.95C33.21,128.3,37.652,137.087,47.761,141.4Z" transform="translate(133.739 590.331)"/><path class="a" d="M45.044,131.271l-3.516-3.5-.59-.588-5.816-2.872,8.764,13.774Z" transform="translate(161.08 619.381)"/><path class="a" d="M36.322,130.378l4.265,4.246,7.194-.444-11.441-10.8Z" transform="translate(153.25 614.641)"/><path class="a" d="M119.748,141.363l-.091,6.863,6.99-3.456-3.449-3.395Z" transform="translate(591.349 700.059)"/><path class="a" d="M121.421,142.256l1.752-.882-1.728.006Z" transform="translate(600.898 700.122)"/><path class="a" d="M31.938,118.725l0,1.277.614.006L32.543,120h.01Z" transform="translate(142.785 590.698)"/><path class="a" d="M132.765,142.924h.651l-.213-.541Z" transform="translate(660.615 705.914)"/><path class="a" d="M415.061,214.56a31.918,31.918,0,0,0-2.851,4.6c-1.254,2.656-2.8,5.345-4.287,7.946-4.26,7.441-8.29,14.471-6.309,20.934,1.375,4.482,5.574,8.384,12.846,11.943,1.941.957,2.528,4.657,2.548,4.806.216,1.382.027,2.3-.586,2.878-6.935,6.632-4.125,12.213-.883,18.676,1.988,3.956,4.051,8.061,3.646,12.476-.121,1.328-.2,2.716-.276,4.138-.33,5.918-.667,12.031-3.97,15.913-3.532,4.165-3.687,8.364-3.842,12.819a31.984,31.984,0,0,1-.829,7.272c-8.937,32.924-18.973,61.266-51.426,74.658l-1.793,1.732-.128-.937L353,416.03l3.552-4.287-1.018-7.266-.128.108c-12.455,10.117-24.223,19.694-41.97,11.9l-2.3-1,1.934-1.618c1.827-1.5,3.559-3.026,5.264-4.516a117.786,117.786,0,0,1,10.905-8.8c51.3-35,68.41-82.261,53.832-148.723-4.354-19.883-2.831-41.262-1.361-61.947.64-8.971,1.294-18.252,1.462-27.25a5.806,5.806,0,0,1,.843-2.709l-.013-.007.054-.074.027-.061c-11.289-1.833-15.711-11.626-19.633-20.341l-.074-.175c-15.825-35.162-41.161-58.078-75.3-68.12-4.051-1.186-8.1-2.42-12.165-3.66-36.173-11-73.586-22.383-112.3-3.754-10.393,5.008-17.153,8.674-23.381,17.335-5.021,6.976-12.038,12.53-18.831,17.895-4,3.168-8.135,6.443-11.795,9.955-18.9,18.144-30.134,37.555-34.347,59.338a105.941,105.941,0,0,1-5.183,16.688c-2.042,5.507-4.152,11.195-5.17,16.91-7.043,39.7-3.815,73.977,9.874,104.759,1.55,3.491,3.06,6.989,4.57,10.481,7.812,18.1,15.192,35.189,27.91,50.954,27.8,34.434,62.041,53.576,107.791,60.262,31.509,4.6,60.444-3.383,87.356-11.984l.93-.3.667.708c3.316,3.478,3.822,8.095,4.266,12.166.627,5.756,1.085,9.941,8.108,10.656l5.8-2.891-2.548,3.168,2.13.175-4.145,2.352c-3.875,4.785-7.623,6.895-11.512,6.605-4.623-.411-8.991-4.253-14.167-12.637v17.295l-42.435,8.614-2.157-7.057,13.756-6.329-.479-2.7-30.289,2.17.654,14.855L202.7,442.922c-.3,1.227-.553,2.46-.8,3.673-.816,4.01-1.517,7.475-3.936,8.762-11.889,6.3-19.431-1.463-25.241-9.887l-.613-.883,5.729-8.331c-2.48-1.031-4.94-2.083-7.414-3.127-7.764-3.3-15.805-6.706-23.839-9.631a120.07,120.07,0,0,0-14.9-3.976c-3.006-.674-6.3-1.415-10.016-2.345l-.445-.108L72.006,365.231l.013.061-.2-.216c.061.391.121.775.182,1.166.917,5.938,1.786,11.552,4.583,15.872,25.16,38.93,56.683,63.719,96.381,75.79,36.989,11.242,73.364,20.705,111.418,13.116a12.258,12.258,0,0,1,7.138,1.072l.04-.027.027.02c4.152-2.136,7.892-4.084,11.363-5.884,7.158-3.72,13.156-6.841,19.216-9.813,61.623-30.235,96.569-80.994,103.889-150.86,2.177-20.8-.836-42.576-3.754-63.645-1.24-8.944-2.514-18.184-3.39-27.249a18.449,18.449,0,0,0-1.887-.741c-.391-.142-.8-.29-1.193-.438C415.58,213.826,415.323,214.19,415.061,214.56ZM153.613,385.876a3.11,3.11,0,0,1-2.035-.681l-.364-.452L149.05,382.3l-4.374-4.03,8.3-3.458-.721,7.185,2.231.91Zm-1.388-13.857-1.233-.627c-15.01-7.589-23.178-19.66-32.291-34.657-1.422-2.332-2.871-4.63-4.32-6.929-6.221-9.854-12.658-20.045-15.529-31.981-2.177-9.038-3.875-18.333-5.52-27.317-.7-3.815-1.4-7.63-2.13-11.431l-.452-.35.007-.034-6.733-5.48,5.769.944a4.278,4.278,0,0,0,.532.04,4.258,4.258,0,0,1,1.705.344l11.04-29.224L75.78,203.2l21.049-20.779-10.7-9.436L95.7,148.536l24.2,7.764a32.736,32.736,0,0,1-.067-7.225c.243-3.9.472-7.576-1.557-9.82-1.537-1.7-4.341-2.6-8.58-2.763l-1.678-.067.189-1.665c1.928-16.931,13.621-24.931,23.94-31.981l2.1-1.442c16.176-11.175,34.428-21.3,55.807-30.923,10.312-4.651,23.792-2.885,29.1-1.9,11.215,2.062,22.417,5.385,34.279,8.9,5.345,1.584,10.912,3.228,16.823,4.88l6.666,1.847L270.1,85.316c-51.715,8.978-56.346,9.786-72.144,2.345l5.965,9.146-33.8,9.921-47.038,52.005-5.756,32.924-.748.337c-2.143.984-4.01,1.126-5.533.418-2.595-1.213-3.458-4.341-4.293-7.373-.593-2.123-1.26-4.549-2.352-4.893-.438-.121-1.759-.175-4.913,2.359l-.31,1.591c-1.55,7.879,4.051,10.973,9.968,14.255,1.3.714,2.581,1.429,3.768,2.184l.8.492-.067.93c-6.592,92.256-1.685,101.591,45,158.516l.735.89ZM85.283,225.54l6.14-.93,2.655,14.181-6.841,1.1ZM238.9,115.834l-5.345,1.678-1.719-6.524,2.258.243c.2.027.418.034.634.04a5.4,5.4,0,0,1,2.285.452,2.756,2.756,0,0,1,1.287,2.157,4.038,4.038,0,0,0,.108.452Zm47.84,276.775q-3.346,1.122-6.686,2.251c-2.44.836-5.136-1.132-8.014-3.222-.856-.62-1.705-1.233-2.521-1.752-24.614,13.763-51.574,13.52-74.968,11.208l8.223,16.971L179.218,403.48l12.118-4.489c-.317-9.065-4.671-14.08-13.3-15.34-7.515-1.1-10.858-5.109-10.218-12.253l-5.412-1.752,5.581-5.9,2,5.406c.216-.034.431-.061.64-.1,1.611-.249,3.424-.532,4.833.344,27.89,17.106,58.833,18.07,93.348,17.531l.627-.007c1.247-.829,2.48-1.685,3.714-2.534,3.013-2.076,6.133-4.226,9.389-6.079,4.158-2.359,8.492-4.576,12.678-6.72,7.717-3.963,15.7-8.047,22.741-13.1,31.866-22.821,37.629-55.51,36.477-97.567a126.351,126.351,0,0,0-2.191-17.665q-.313-1.82-.62-3.626a98.361,98.361,0,0,0-20.294,43.344,5.29,5.29,0,0,0,.762-.216,4.882,4.882,0,0,0,.553-.688,5.488,5.488,0,0,1,1.449-1.523,32.1,32.1,0,0,1,3.525-1.887L341.1,276.9l.115,2.406c2,42.893-16.324,66.948-52.976,69.671l-.034.627-.485-.445c-9.968,12.759-23.617,12.819-36.82,12.853-5.972.013-12.132.027-17.7,1.294-6.315,1.429-13.5-1.982-20.456-5.284-.512-.249-1.038-.5-1.57-.741l-7.744-2.885-.04.014v-.027l-17.342-6.457-1.328-.883,1.132-1.139,5.048-7.124-8.654-2.009.047,5.7-1.827-.3c-23.388-3.889-35.9-23.913-41.269-35.506-17.167-37.036-31.866-76.822-7.212-120.112l.876-1.537,1.415,1.072c11.781,8.924,7.724,21.3,5.035,29.494l-.263.8c-7.731,23.711-2.561,45.825,2.918,69.219l.357,1.523a8.6,8.6,0,0,0,2.278,3.424,56.7,56.7,0,0,0-.512-6.221c-.8-6.74-1.705-14.349,5.5-20.186l-.034-.067.627-.431c-.5-3.161-1.078-6.322-1.665-9.483-1.463-7.96-2.979-16.189-3.114-24.378a35.921,35.921,0,0,0-1.53-7.993c-1.463-5.493-2.972-11.175-.169-15.994,1.806-3.094,5.149-5.338,10.211-6.828-.007-.128-.013-.256-.027-.4-.216-3.336-.66-10.265,2.521-15.509l1.84-3.04,8.849,30.781,1.874-25.295,6.538.168-.02,14.1c-.013,9.281-.034,18.562.04,27.836.236,30.6,9.732,39.5,42.293,54.209,24.877,11.229,46.559-1.469,60.363-14.1,9.315-8.519,19.856-20.294,20.085-36.53-3.3,2.48-5.52,6.315-7.852,10.339-4.314,7.461-9.193,15.926-22.3,19.06l-3.41.816L293.136,209.4l.276.728-7.124-33.47-17.679-10.555,3.37-1.018c6.2-1.887,10.568-1.786,13.338.317,2.393,1.8,3.491,4.873,3.471,9.652l8.546,3.7.007-.034.02.013.768-8.438c-.121-.229-.249-.458-.377-.687a14.893,14.893,0,0,1-1.523-3.357c-.31-1.126.485-1.894,1.355-2.548-6.652-9.139-16.472-11.835-26.852-14.686-6.255-1.725-12.725-3.5-18.427-6.821-14.949,13.709-30.417,8.627-44.086,4.138-2.548-.843-5.048-1.665-7.5-2.352l-33.76,15.96,9.112-18.8-28.537,27.081-1.051-1.4c-4.03-5.419-5.534-10.2-4.6-14.6.9-4.246,4.132-7.967,9.611-11.06,6.268-3.538,12.57-7.01,18.872-10.481l8.553-4.718,10.663-5.136-1.038,1.685,3.41-2.379c4.684-3.276,9.625-6.127,13.7-4.866,2.244.687,4,2.487,5.352,5.48l.047-.02.4,1.058,32.277,4.745,8.27-36.1,27.108,6.187-2.885-9.537,1.779-.27c19.323-2.959,32.6,8.162,44.537,19.788,36.571,35.614,52.437,77.5,47.139,124.5-.175,1.584-.371,3.181-.566,4.772-1.779,14.531-3.464,28.247,6.416,40.716,1.853,2.346,3.431,6.477,2.71,9.517-1.287,5.4-2.379,11.047-3.444,16.5-2.844,14.639-5.783,29.784-12.779,42.589-7.481,13.669-23.6,23.307-37.824,31.806C312.594,383.928,299.451,388.342,286.739,392.609Zm-65.7-203.64-13.952,2.1.681-2.339c3.653-12.523,4.388-12.974,19.613-12.395l2.527.094-6.194,11.181,11.168,11.148-11.889,7.468c-1.247,1.132-2.447,2.373-3.633,3.606-2.831,2.912-5.756,5.924-9.375,7.7a132.6,132.6,0,0,1-17.928,6.686c-2.885.93-5.9,1.894-9.065,2.993l-2.069.714v-37.3l4.327-1.1.667,1.5,3.869,18.13c5.055,1.564,9.213-1.119,13.635-3.956,5.1-3.289,10.831-6.976,17.686-2.669Zm43.641,11.882c2.689,1.88,4.408,5.062,5.244,9.746H280.64l-2.467,7.414L268,212.72,234.08,202.287l9-1.685C252.42,198.836,259.793,197.427,264.68,200.851Zm-19.067-24.513,7.306.721-4.307,6.349Zm8.095-16.54,5.277-1.132,2.42,3.943-2.8.539a7.724,7.724,0,0,1-1.752.256l-.229-.007c-1.126-.061-1.564-1.045-1.82-1.631Zm10.555,107.987-1.773.371c-.674.135-1.328.31-1.975.479a17.922,17.922,0,0,1-4.5.782,6.645,6.645,0,0,1-.89-.054c-1.577-.169-2.069-1.907-2.635-3.929-.168-.58-.33-1.173-.505-1.645l-.559-1.463,9.49-3.538Zm-60.713-14.356c-7.09.411-15.947.89-16.91-15.866l-.216-3.781,18.157,16.351,20.341-30.963,1.193,2.46c4.152,8.486.674,16-2.4,22.626-3.175,6.848-5.918,12.772-1.193,19.256l.007.007,12.8-2.939L233.3,274.8,221.8,266l-.566-.014c-1.179-.034-2.44.027-3.687.067-4.7.189-9.564.35-12.294-2.912-1.759-2.1-2.278-5.291-1.591-9.719Z" transform="translate(276.026 233.985)"/><path class="a" d="M87.744,97.628l.081.431-3.309-3.134L74.9,89.81c2.312,9.51,7.036,15.677,14.653,19.135l-.5-9.732Z" transform="translate(355.87 437.935)"/><path class="a" d="M86.48,106.292c-4.293-5.972-7.454-12.813-10.44-19.519l4.32,23.583,1.961,1.921-.007-.1,2.285,2.332.364.263c1.227.869,2.48,1.705,3.734,2.548a82.876,82.876,0,0,1,7.926,5.79c33.026,28.442,66.624,31.583,102.487,9.49a78.656,78.656,0,0,0-11.572,2.939C150.6,148.625,108.1,136.338,86.48,106.292Z" transform="translate(357.94 420.337)"/><path class="a" d="M80.958,69.9l1.764-1.676-2.348,4.7,19.754-8-15.551-.876Z" transform="translate(384.428 302.934)"/><path class="a" d="M115.96,87.661,113.6,76.339,96.777,84.521l.024.061,4.9,13.123Z" transform="translate(470.576 367.128)"/><path class="a" d="M129.835,95.2l-6.214,5.945L121.633,95l-13.109,1.827,10.871,13.156-.8.984c-21.7,27.169-37.366,60.888-47.88,103.08-1.436,5.756-4.886,10.973-8.216,16.014-1.126,1.7-2.278,3.444-3.343,5.19.108.768.243,1.53.384,2.3A22.736,22.736,0,0,1,60.1,243.9c-4.819,47.476-1.119,85.577,11.626,119.9.9,2.426,1.638,5.008,2.352,7.515,2.676,9.362,5.217,18.238,16.021,20.7l-1.139-3.875c-1.469-5.048-2.945-10.1-4.522-15.111Q79.714,358,74.952,343q-6.177-19.492-12.3-39.011a13.064,13.064,0,0,1-.377-6.646c3.774-15.893,5.844-32.466,7.845-48.507,3.289-26.333,6.693-53.555,17.7-78.587,7.838-17.82,17.7-35.573,36.6-44.726,4.273-2.069,7.569-4.711,7.677-6.147,1.341-17.5,13.183-25.524,24.641-33.282,5.372-3.64,10.932-7.4,15.151-12.071,3.188-3.525,8.047-5.392,10.656-6.187,25.241-7.69,49.828-3.168,68.619,1.8l10.191-12.725,1.186,1.732c18.016,26.171,41.579,31.732,73.964,17.376C295.327,57.8,256.229,48.74,217.083,48.322l-3.134-.034.532-.687-1.341.007L125.879,93.621Z" transform="translate(258.985 206.835)"/><path class="a" d="M112.71,66.141c13.385,14.248,24.661,30.41,35.56,46.04,6.9,9.894,14.046,20.132,21.622,29.743,5.608,7.1,5.291,15.219-.883,23.549,5.945,3.276,5.648,9,5.385,14.113-.148,2.9-.29,5.648.627,7.872,4.165,10.009,7.448,17.908,19.189,19.512-4.266-31.738-11.4-68.221-30.882-100.337-16.365-26.973-37.312-45.191-62.337-54.216l.344.425C104.972,57.3,108.733,61.9,112.71,66.141Z" transform="translate(489.177 238.141)"/><path class="a" d="M172.71,120.64c-10.427-24.385-30.08-43.749-53.933-53.144-5.7-2.244-11.815-3.35-18.292-4.522-2.447-.445-4.907-.89-7.373-1.4-.452,13.844,4.071,20.793,14.929,23.111,14.37,3.073,25.949,12.334,34.434,27.526,7.616,13.662,14.316,28.1,20.806,42.05,2.521,5.439,5.055,10.865,7.643,16.27l1.011-.836-.526,1.867c.121.256.236.512.357.762l3.565,7.427-2.11-1.961,2.723,7.542C183.042,165.022,181.93,142.221,172.71,120.64Zm-12.348,7-1.955-10.137,5.439.465Z" transform="translate(448.211 286.569)"/><path class="a" d="M88.2,102.478l.108-.148,1.281.047c3.242,1.072,6.592,2.5,9.834,3.882,7.636,3.269,15.522,6.632,21.73,5.068a60,60,0,0,1,11.5-1.294c11.626-.6,22.626-1.159,24.81-16.162-2.548.3-5.1.634-7.65.957-21.46,2.757-43.634,5.614-64.09-5.83-2.453,3.4-5.075,7.7-4.044,10.2C82.325,100.746,84.516,101.844,88.2,102.478Z" transform="translate(387.98 433.529)"/><path class="a" d="M94.406,138.021l2.292,4.657c.856-.189,2.3-.593,3.707-.977,1.045-.3,2.231-.62,3.525-.971C83.858,124.783,82.139,103.593,83.123,79.6c-8.149,9.409-6.969,16.937-4.886,22.572C82.766,114.411,88.684,126.408,94.406,138.021Z" transform="translate(364.945 382.71)"/><path class="a" d="M93.657,116.788c.263.02.533.047.8.061,3.478.276,7.057.539,8.748-.822,10.629-8.607,17.086-19.249,19.263-31.7Z" transform="translate(453.798 408.604)"/><path class="a" d="M97.841,107.466c-1.375,1.827-1.557,4.8-1.746,7.953l-.007.128c12.381-7.38,18.326-15.926,18.831-27.135q-1.335,1.4-2.676,2.79A183.285,183.285,0,0,0,97.841,107.466Z" transform="translate(466.978 430.278)"/><path class="a" d="M103.929,91.255l3.5-12.334C103.208,82.689,102.642,84.684,103.929,91.255Z" transform="translate(505.601 380.996)"/><path class="a" d="M99.342,108.885l8.493-13.8-7.3-3.334Z" transform="translate(484.505 448.217)"/><path class="a" d="M91.793,66.435l.523-.037-.055-.2Z" transform="translate(445.135 314.49)"/><path class="a" d="M85.628,66.457h0Z" transform="translate(412.733 315.859)"/><path class="a" d="M88.141,66.532l.006-.119-1.576-.073Z" transform="translate(417.638 315.241)"/><path class="a" d="M83.732,98.52l1.32-.316-1.259-.5Z" transform="translate(402.713 480.174)"/><path class="a" d="M100.177,84.736v0Z" transform="translate(489.25 411.981)"/><path class="a" d="M133.691,142.776l-.229.155c.027.283-.02.566-.013.849h.64Z" transform="translate(649.066 708.171)"/><path class="a" d="M68.14,152.159a14.724,14.724,0,0,0-4.523,1.267l3.168,2.44,3.121-2.285A6.54,6.54,0,0,0,68.14,152.159Z" transform="translate(296.801 762.028)"/><path class="a" d="M30.293,132.135l1.112,2.588,4.408-1.833a8.014,8.014,0,0,0-2.858-1.9,7.642,7.642,0,0,0-2.305.95C30.536,132.006,30.414,132.074,30.293,132.135Z" transform="translate(133.36 640.494)"/><path class="a" d="M156.692,69.877a9.342,9.342,0,0,0-.5-1.254c-.121.04-.249.088-.377.135Z" transform="translate(777.457 327.215)"/><path class="a" d="M154.308,60.2a9.82,9.82,0,0,0-1.26.492c.04.121.094.256.135.384Z" transform="translate(761.569 282.939)"/><path class="a" d="M151.338,55.55l1.119-.869a8.826,8.826,0,0,0-1.254.492C151.243,55.294,151.3,55.422,151.338,55.55Z" transform="translate(750.979 253.904)"/><path class="a" d="M154.657,113.588l-.541.213.541.438Z" transform="translate(767.699 563.714)"/><path class="a" d="M143.583,136.318v-.645l-.541.213Z" transform="translate(704.136 667.402)"/><path class="a" d="M46,143.3l.883,1.126a10.55,10.55,0,0,0-.5-1.267Z" transform="translate(204.297 710.375)"/><path class="a" d="M46.8,144.276c.425.344.842.674,1.274.964l.047-.054-1-1.227Z" transform="translate(208.517 714.961)"/><path class="a" d="M48.091,145.883l-.061-.047-1.227.991.324.324C47.471,146.719,47.795,146.3,48.091,145.883Z" transform="translate(208.512 725.735)"/><path class="a" d="M54.5,147.675l-1.233,1,.324.324c.344-.425.674-.843.964-1.267Z" transform="translate(242.48 736.291)"/><path class="a" d="M46.8,148.883c.425.337.842.667,1.274.957l.047-.054-1-1.227Z" transform="translate(208.517 741.37)"/><path class="a" d="M60.765,153.423l.883,1.126a9.015,9.015,0,0,0-.492-1.267Z" transform="translate(281.943 768.474)"/><path class="a" d="M45.766,19.725l-.541.216.541.438Z" transform="translate(200.218 76.964)"/><path class="a" d="M30.973,122.975l-.894-.888v.888Z" transform="translate(132.132 608.397)"/><path class="a" d="M39.307,132.209v.888H40.2Z" transform="translate(169.094 647.517)"/><rect class="a" width="0.74" height="0.023" transform="translate(300.82 99.044)"/><path class="a" d="M206.431,459.177c-1.4,7.01-3.525,10.683-6.659,11.532-4.556,1.26-9.032-3.923-13.379-8.917a109.318,109.318,0,0,1-7.7-10.413c-3.842-5.648-7.468-10.993-12.381-14.774-3.916-3-6.443-7.131-8.89-11.121-3.512-5.736-6.834-11.155-13.938-12.8l-2.089-.478,1.105-1.84a17.648,17.648,0,0,0,.8-1.6c.694-1.49,1.476-3.175,2.992-3.963a10.108,10.108,0,0,1,3.37-.789,8.207,8.207,0,0,0,2.049-.4,14.788,14.788,0,0,0-1.5-2.44q-17.045-22.889-34.3-45.616L104.335,340.21c-.768.856-1.577,1.806-2.379,2.757-3.977,4.7-6.362,7.313-8.688,6.5-4.024-1.422-6.605-3.774-7.67-7.016-1.49-4.536.135-10.406,4.826-17.456-1.328-12.617-16.007-52.773-23.96-62.87-.512-.64-1.031-1.274-1.543-1.894-3.383-4.125-6.881-8.371-5.763-15.232.007-.478-1.213-1.86-1.874-2.6l-.013-.013a9.911,9.911,0,0,0-.95,2.649c-.654,4.192-1.153,8.4-1.658,12.624l-1.126,9.207-2.319-3.545c-1.051-1.6-2.217-3.161-3.383-4.725-2.635-3.532-5.351-7.178-6.794-11.33-2.1-6.012-3.08-12.361-4.024-18.5-1.4-9.133-2.851-18.575-8.061-26.879-2.554-4.071,3.026-13.156,4.172-14.936,2.48-3.855,4.833-5.533,7.07-4.967,2.211.573,3.437,3.168,3.754,7.926a6.213,6.213,0,0,0,1.4,2.541,9.075,9.075,0,0,0,1.422-1.806c-.849-3.073-1.968-6.437-3.053-9.685-1-3-2.029-6.1-2.871-9.227-.607-2.251.93-4.671,2.42-7,1.024-1.618,2.426-3.815,1.982-4.651-.182-.337-1.227-1.436-7.057-1.516l-2.554-.034,1.206-2.251c.263-.505.5-1.051.728-1.6a9.925,9.925,0,0,1,2.554-4.017,16.032,16.032,0,0,1,3.424-2.069,14.187,14.187,0,0,1-4.428-1.988c-1.388-1.024-1.456-2.986-1.516-4.88a16.456,16.456,0,0,0-.135-1.982c-.31-1.874-.667-3.741-1.031-5.614a95.465,95.465,0,0,1-1.82-12.327,78.4,78.4,0,0,1,.209-9.5c.33-5.3.64-10.3-.809-14.706-1.516-4.6-5.122-8.56-8.937-12.745-1.254-1.375-2.541-2.79-3.747-4.226-1.24,1.415-2.521,2.811-3.8,4.206-3.95,4.3-8.027,8.755-10.8,13.722-1.49,2.662-.391,7.448.58,11.674l.452,1.995a28.729,28.729,0,0,0,2.143,5.675,23.381,23.381,0,0,1,2.581,7.987c.121,1.779.115,3.606.108,5.419-.034,8.027-.067,14.37,10.838,15.475l1.537.155-.142,1.537c-.229,2.521,1.355,5.149,3.026,7.946,3.249,5.405,7.293,12.139-3.046,19.35-2.372,1.665-3.916,7.111-4.226,14.956-.155,3.9-.714,7.879-1.254,11.728-1.806,12.873-3.511,25.039,8.357,35.492,2.008,1.773,2.238,4.893,2.46,7.919.169,2.319.35,4.725,1.3,6.18,1.085,1.645,3.424,3.094,5.682,4.5,3.067,1.894,5.965,3.68,6.066,6.342.364,10.1,4.745,13.911,13.81,18.177,5.992,2.831,9.908,5.325,10.871,9.038,1.024,3.936-1.361,8.2-6.753,15.711l-.357.505c-1.328,1.84-4.853,6.733-4.273,8.041,1.678,3.768,3.222,7.643,4.758,11.519,5.864,14.754,11.923,30.013,26.447,39.341a12.154,12.154,0,0,0,1.793-.89,12.037,12.037,0,0,1,3.869-1.584c10.683-1.483,21.17,4.678,24.736,11.2,2.157,3.936,1.9,7.812-.735,10.925-8.27,9.766-4.408,17.16-.33,25,2.352,4.5,4.779,9.153,4.819,14.275a18.1,18.1,0,0,0,5.8,2.548c4.314-4.24,8.135-4.489,10.582-3.923,4.57,1.045,7.528,5.365,8.681,8.749,3.316,9.82,11.411,15.2,19.984,20.894,9.577,6.369,19.478,12.954,21.918,26.164a3.016,3.016,0,0,0,.539.249c10.737-7.313,20.968-4.293,28.941-.4.249-.4.519-.8.789-1.213.735-1.112,1.955-2.966,1.773-3.586-1.934-6.369-4.293-11.209-7.218-14.787C212.76,458.267,208.089,458.664,206.431,459.177ZM16.7,103.828c.371-.189.741-.391,1.112-.6a13.011,13.011,0,0,1,3.41-1.469c1.267-.276,2.157.768,2.912,1.692.2.243.391.478.573.667l1.537,1.523-1.934.971c-.364.182-.728.384-1.085.586a13.042,13.042,0,0,1-3.444,1.483,1.966,1.966,0,0,1-.431.047c-1.058,0-1.813-.917-2.48-1.739-.2-.243-.391-.479-.573-.667l-1.543-1.53Zm4.967,30.336L14.822,130.4l1.476-1.469c.182-.189.377-.425.573-.667.762-.93,1.631-1.941,2.912-1.692a13.012,13.012,0,0,1,3.41,1.469c.377.209.741.411,1.112.6l1.948.964ZM128.013,394.143a8.81,8.81,0,0,0-.667.586l-1.463,1.463-3.788-6.834,4.57-4.563.971,1.934c.182.371.391.735.593,1.105a12.952,12.952,0,0,1,1.476,3.4C129.994,392.526,128.943,393.388,128.013,394.143Z" transform="translate(-6.012 351.337)"/><path class="a" d="M133.746,30.213a15.112,15.112,0,0,0-.856-1.375,11.242,11.242,0,0,0-1.206,2.426c-.391.991.586,4.233,1.26,5.729,5.581-.29,8.593,4.28,11.175,8.3,3.572,5.56,6.1,8.816,12.691,6.147,3.882-1.57,11.593,10.871,11.667,11,4,6.935,6.518,13.129,7.7,18.946.169.829,3.3,2.575,4.974,3.512,3.734,2.089,7.266,4.057,6.848,7-.344,2.467-3.33,4.273-10.171,6.059l.047.094a9.466,9.466,0,0,0,1.4,2.157c.789.007,1.847.02,2.9.027,3.795.047,7.724.1,10.083,2.824,1.712,1.968,2.265,5.028,1.7,9.335-.445,3.4-.445,3.4,9.975,6.315l1.975.546c2.426.654,4.94,1.328,5.453,3.2,3.565,13,11.856,22.538,20.624,32.635l3.019,3.491c3.572,4.159,6.066,7.333,7.892,9.652,4.6,5.857,4.9,6.322,9,6.288.209-.007.411-.007.613-.007,7.9,0,14.026,2.009,19.782,6.484a46.247,46.247,0,0,0,4.293-1.928c.991-.485,2.056-.991,3.154-1.476-1.934-2.871-3.714-5.581-5.4-8.162a194.279,194.279,0,0,0-11.6-16.5c-5.715-7-11.748-13.952-17.584-20.671-6.47-7.454-13.156-15.158-19.451-22.976-.115-.142-11.134-14.477-7.785-18.4,1.827-2.15,2.622-3.929,2.352-5.3-.249-1.287-1.469-2.453-3.848-3.68-9.22-4.779-15-12.651-20.57-20.26-3.35-4.563-6.807-9.281-10.925-13.156l-.526-.492.027-.721c.371-7.865-4.415-9.409-12.24-11.276-6.106-1.449-12.941-3.08-14.383-10.474-.458.411-.93.822-1.388,1.233a67.948,67.948,0,0,1-9.86,7.663c-1.685,1-3.815.384-5.864-.216a14.436,14.436,0,0,0-3.222-.687C135.66,33.488,134.642,31.742,133.746,30.213Zm76.417,73.418c.378-.182.748-.391,1.119-.593a13.056,13.056,0,0,1,3.417-1.469c1.3-.3,2.143.762,2.9,1.685a7.5,7.5,0,0,0,.573.667l1.483,1.469-6.861,3.781-4.576-4.57Z" transform="translate(638.423 110.311)"/><path class="a" d="M29.707,184.249c2.386,1.725,3.808,3.04,4.057,4.6.222,1.429-.559,2.494-1.463,3.721-.324.438-.694.937-1.072,1.53-1.146,1.786-1.4,4.3-1.672,6.956-.047.438-.088.869-.135,1.3.721-.182,1.469-.344,2.2-.512,2.393-.553,6.012-1.375,6.423-2.433,4.044-10.332,6.059-19.034,6.16-26.609.121-8.782,3.181-12.7,11.667-14.814.384-1.072.492-4.583.047-7.717H52.792l1.773-1.409a13.914,13.914,0,0,1-2.8-2.865l-1.409-1.813,2.2-.64c.377-.115.836-.283,1.294-.452,1.806-.674,3.242-1.206,4.145-.027a8.093,8.093,0,0,1,1.051,1.9,66.488,66.488,0,0,0,7.34-8.688l.189.135.384-.917,2.177-3.046c4.779-6.74,9.7-13.689,17.49-18.009-2.123-1.692-3.215-3.464-3.316-5.392-.189-3.5,2.986-6.369,6.113-8.708,2.689-2.015,5.405-4,8.115-5.985l3.222-2.359a30.516,30.516,0,0,0,.263-4.8c.013-5.432.02-11.053,9.618-16.526,11.984-6.841,23-21.19,21.264-38.155l-26.69,1.806c.418,1.624.869,3.255,1.314,4.886a90.386,90.386,0,0,1,3.249,15.145c.438,4.563-.1,6.922-1.8,7.892-2.116,1.227-4.6-.593-7.01-2.345A17.062,17.062,0,0,0,97.99,58.01c0,.121-.034.344-.061.674-.458,6.935-5.277,10.454-9.537,13.554-3.687,2.7-7.178,5.237-7.98,9.732-.458,2.527-4.88,3.943-7.475,4.563-6.484,1.537-10.191,2.42-10.986,3.768-.661,1.119.04,3.646,1.213,7.832l.256.937c.047.168,3.889,16.715.121,17.82-6.686,1.982-10.09,5.628-11.39,12.2l-.593,3.006-2.076-2.244c-.431-.465-.923-.9-1.415-1.348a10.024,10.024,0,0,1-3.2-4.057,48.209,48.209,0,0,1-1.631-7.663,40.03,40.03,0,0,0-4.057,6.983c-3.99,9.766-8.512,20.833-16.2,30.822-4.428,5.756-6.214,10.373-5.614,14.531C18.047,173.883,21.862,178.553,29.707,184.249Zm6.794-31.9,1.463,1.456c.189.182.431.377.674.573.93.755,1.982,1.618,1.7,2.9a13.012,13.012,0,0,1-1.49,3.437c-.2.357-.4.721-.586,1.092l-.964,1.914-4.57-4.549Z" transform="translate(58.479 134.825)"/><path class="a" d="M25.648,51.184c-.027-.182-.034-.371-.067-.553a13.327,13.327,0,0,1-1.287-.856l-1.773,1.409Z" transform="translate(88.75 228.091)"/><path class="a" d="M161.365,100.87l.074.31,1.981-.748c-.013-.93-.034-1.894-.04-2.9C162.659,98.68,161.992,99.8,161.365,100.87Z" transform="translate(809.308 479.119)"/><path class="a" d="M200.235,114.407c5.634-.506,6.295-3.781,7.131-7.94.539-2.669,1.139-5.641,3.377-7.6L198.314,82.581l-3.572,13.675a52.519,52.519,0,0,0-.991,5.513c-.222,1.523-.445,3.073-.755,4.522L194.1,105.2a8.791,8.791,0,0,0,.58-.667c.755-.923,1.584-1.955,2.891-1.692h.014A13.17,13.17,0,0,1,201,104.317c.364.209.735.4,1.105.593l1.941.964-4.57,4.57-6.592-3.633c-.647,2.811-1.638,5.237-3.592,6.511-3.808,2.467-8.8,2.831-13.635,3.181a61.2,61.2,0,0,0-7,.768c-.425.081-1.153.95-1.705,1.6,2.831,1.968,4.475,4.071,5.021,6.4.9,3.842-1.368,7.353-3.565,10.743-2.022,3.127-3.943,6.079-3.3,8.964,1.355,6.113,3.633,16.331-5.325,24.156-1.213,1.065-.843,2.15,1.072,5.324,2.17,3.6,5.459,9.045-1.847,14.2a4.064,4.064,0,0,0-1.914,2.4c-.249,1.476,1.132,3.4,2.595,5.432,2.75,3.842,6.511,9.106,1.26,15.293-2.5,2.945-3.377,5.736-2.595,8.283,1.058,3.458,5.156,6.416,11.229,8.115l.856.243.519,1.085c.344,1.247-.606,2.231-1.914,3.6-.762.8-2.784,2.9-2.527,3.633.02.04.431,1.045,4.806,1.537,6.477.654,11.3-1.651,13.547-6.666.142-.782-1.975-3.579-3.107-5.082a39.444,39.444,0,0,1-2.945-4.253L178,220.864c-1.314-2.211-2.669-4.5-2.851-7.016-.505-7.03-.283-13.972,7.522-27.688a34.415,34.415,0,0,1-1.24-8.317c.027-1.874,1.429-3.37,2.777-4.812a18.051,18.051,0,0,0,1.375-1.57l1.941-2.608.822,3.181c1.3-24.156.681-27.236-.013-28.126L186.9,142.1l2.211-.647c.377-.108.836-.283,1.294-.452,1.806-.687,3.249-1.213,4.158-.02a11.94,11.94,0,0,1,1.692,3.835c.115.384.229.768.357,1.139a32.76,32.76,0,0,1,9.719-12.051,4.385,4.385,0,0,0-.209-1.456c-.6-1.665-1.26-3.3-1.934-4.934a13.229,13.229,0,0,1-1.719,4.024c-.964,1.436-3.04,1.24-5.237,1.031a14.063,14.063,0,0,0-2.029-.135l-2.157.02.66-2.056c.438-1.355.182-3.316-.081-5.217-.4-2.966-.822-6.025.984-8.283C195.773,115.452,197.606,114.636,200.235,114.407Zm-27.229,78.257-.97-1.928c-.182-.371-.391-.735-.586-1.092a13.062,13.062,0,0,1-1.489-3.431c-.276-1.3.782-2.163,1.712-2.918a8.433,8.433,0,0,0,.661-.573l1.463-1.442,3.788,6.821Zm5.473-57.411L173.9,130.69l1.948-.971c.371-.189.741-.384,1.112-.593a12.833,12.833,0,0,1,3.417-1.469c1.3-.256,2.15.762,2.9,1.685.2.243.4.485.58.667l1.483,1.469Z" transform="translate(784.693 394.228)"/><path class="a" d="M162.711,94.611c.189-.768.418-1.537.681-2.3h-.067A16.052,16.052,0,0,0,162.711,94.611Z" transform="translate(817.034 451.759)"/><path class="a" d="M165.442,93.15c-.849,5.021-1.955,13.129-3.3,24.27l-.007.1c-.013,1.469-.013,2.952-.013,4.394l1.4,5.271-1.294.492c.31,10.2,1.355,14.343,2.022,15.98.593-1.516,1.254-3.067,1.921-4.644,2.73-6.389,5.547-12.988,4.051-17.773C167.275,111.853,164.276,102.276,165.442,93.15Z" transform="translate(813.676 454.129)"/><path class="a" d="M61.553,60.357c1.57-.452,3.195.418,4.617,1.179a14.4,14.4,0,0,0,1.523.748l1.584.62-1.4,2.844a30.55,30.55,0,0,1-1.591,3.06C61.654,76.324,54.617,76.02,48.4,75.737l-.964-.04a12.906,12.906,0,0,0,4.246,2.925,12.274,12.274,0,0,0,3.525.351c3.013.034,7.441.081,8.209,5.769,1.038-.391,2.413-1.537,4.725-4.859,1.82-4.017,2.615-5.594,3.68-5.81L77.479,64.7l-2.1,6.571c1.82-1.436,3.316-2.049,4.549-1.793a2.741,2.741,0,0,1,2.042,2.042c.532,1.961.728,5.662-1.024,7.279a83.71,83.71,0,0,1-8.58,6.646l-1.685,1.2a32.575,32.575,0,0,0-.842,4.192c10.723-1.867,21.46-4.253,26.973-15.03a9.323,9.323,0,0,1-4.125-.4,14.089,14.089,0,0,1-4.233-2.972c-.492-.445-.984-.89-1.49-1.294l-2.137-1.692,2.541-.984c.519-.2,1.031-.418,1.543-.647a17.556,17.556,0,0,1,4.03-1.382,22.426,22.426,0,0,1,4.549-.148l.243.013v-.337l.586.128c.377-.917.816-1.874,1.267-2.837.775-1.645,2.386-5.082,1.968-5.81-2.77-4.071-3.532-6.538-2.554-8.243,1.119-1.948,3.707-1.752,6.228-1.57,1.045.074,3.222.229,3.606-.142a21.305,21.305,0,0,1,3.936-6.443,18.521,18.521,0,0,0,3.444-5.533c.842-2.689,1.752-4.59,3.444-5.149,1.752-.573,3.336.573,5.331,2.035l.937.687c5.352,3.835,11.161,7.272,16.789,10.6,1.793,1.065,3.586,2.123,5.365,3.2.229-2.649-1.4-5.459-3.107-8.4-3.289-5.662-7.373-12.711,2.945-19.613.324-.613-.155-3.9-.438-5.864-.108-.7-.209-1.4-.3-2.076-.425.236-.856.465-1.287.708-2.474,1.361-5.041,2.777-7.7,3.943-2.46,1.072-5.035,2-7.522,2.885-4.779,1.705-9.281,3.316-13.129,5.951-4.219,2.891-7.758,6.686-11.5,10.7-1.975,2.116-3.956,4.239-6.039,6.221a8.477,8.477,0,0,1-5.183,1.752L94.1,43l-.62-.708c-1.112-1.732-2.164-2.7-3.033-2.8-1.22-.142-2.676,1.321-4.125,2.73C84.017,44.464,80.9,47.5,76.94,45.515c-.607.546-1.638,1.719-2.5,2.7-2.932,3.33-6.585,7.475-10.11,8.209-1.476.31-2.959.532-4.415.741-5.345.8-9.962,1.476-13.082,6.342a10.512,10.512,0,0,0-.91,1.874c.6-.209,1.206-.418,1.813-.627C52.232,63.215,56.875,61.617,61.553,60.357Zm23.354-5.9,4.583,4.57-1.941.964c-.377.189-.748.391-1.119.593a12.848,12.848,0,0,1-3.417,1.476,2.318,2.318,0,0,1-.425.04c-1.058,0-1.806-.917-2.48-1.732a8.791,8.791,0,0,0-.573-.667L78.059,58.24Z" transform="translate(201.882 26.497)"/><path class="a" d="M124.852,25.046c-1.678.479-3.235,1.948-4.887,3.5-.391.371-.789.741-1.186,1.105l4.482,4.469c6.646-.748,11.431,2.312,16.546,6.039.627.465,3.35-.593,5.149-1.294,2.757-1.085,5.918-2.3,8.506-1.786,18.858,3.707,19.492,4.644,31.8,27.121l.627-.62.371,2.008L202,70.817V65.8l.89-.425c1.726-.822,3.707-.452,5.453-.115,1.523.283,2.972.553,3.741.007.735-.526,1.058-1.894,1.2-2.952-.2-1.335-5.8-21.716-6.807-24.486-2.177-1.921-4.314-3.916-6.45-5.918-4.988-4.657-10.137-9.476-15.805-13.2-3.323-2.2-6.949-.681-11.134,1.058-4.927,2.042-10.447,4.334-15.9.142-5.648,10.5-13.9,8.277-21.2,6.309C131.956,25.127,128.154,24.1,124.852,25.046Zm73.836,16.391c.236-.2.479-.391.661-.573l1.463-1.449,3.781,6.821-4.57,4.549-.971-1.914c-.182-.371-.384-.735-.586-1.092a13.185,13.185,0,0,1-1.49-3.431C196.7,43.049,197.757,42.193,198.687,41.438ZM191.253,55.41c.377-.115.836-.283,1.294-.452,1.806-.667,3.235-1.213,4.152-.027a11.707,11.707,0,0,1,1.685,3.808c.135.445.27.883.418,1.308l.249.7a35.307,35.307,0,0,1,3.774,3.134l.229.222-2.15,2.251a30.76,30.76,0,0,0-5.749-4.442,14.078,14.078,0,0,1-1.564-.937l-3.276-1.961H191.4c-.344-.391-.64-.775-.937-1.146l-1.409-1.806Z" transform="translate(581.852 64.834)"/><path class="a" d="M42.549,78.776a104.813,104.813,0,0,1,10.069-7.549l2.157-1.388c4.448-2.9,9.058-5.9,13.985-6.241,9.146-.634,20.577-2.561,27.8-11.977,5.608-7.306,12.415-7.144,19-7.01,1.24.027,2.48.054,3.734.027l11.283-16.877-4.354-4.34c-.789.593-1.564,1.206-2.345,1.82A50.35,50.35,0,0,1,115.455,31c-1.321.66-2.7,1.2-4.084,1.732-2.683,1.031-5.217,2.008-7.151,3.929l-.1,1.254-1.132-.27a20.574,20.574,0,0,1-11.35,3.174c-1.382-.088-1.793-1.348-2.258-3.613-.115-.526-.222-1.045-.324-1.449l-.418-1.6,1.624-.317c.748-.148,1.49-.324,2.244-.492a32.777,32.777,0,0,1,6.025-.984,4.433,4.433,0,0,1,2.527,1.045l.229.162c.115-4.752-.789-7.987-2.709-9.631s-5.021-1.934-9.5-.876A29.534,29.534,0,0,0,81.128,26.8c-1.26.748-2.527,1.5-3.815,2.15l-2.1,1.078-.168-2.345c-.2-2.763-1.2-4.61-2.824-5.2a3.4,3.4,0,0,0-1.173-.2,5.113,5.113,0,0,0-3.579,1.651,132.286,132.286,0,0,0-10.5,13.015c-4.287,5.8-8.721,11.8-14.187,16.587-11.033,9.652-9.429,18.09-3.148,27.6C40.615,80.353,41.579,79.565,42.549,78.776Zm16.506-32.2c.209-.371.411-.728.566-1.038,1.53-3.067,3.094-6.127,4.657-9.173l2.662-5.217,1.51,1.516a15.209,15.209,0,0,1,1.018,1.146,5.447,5.447,0,0,0,1.55,1.476c7.8,3.3,10.973,4.63,11.478,7.367.505,2.662-1.9,4.994-7.165,10.1-1.24,1.206-2.534,2.46-4,2.46a2.553,2.553,0,0,1-.95-.182c-1.294-.492-2.116-1.867-2.629-4.617-1.934,2.413-3.66,3.552-5.378,3.606-2.157.148-3.707-1.887-4.307-2.73C57.141,49.99,58.071,48.332,59.055,46.579Z" transform="translate(143.548 91.64)"/><path class="a" d="M124.959,28.7a3.526,3.526,0,0,1,3.781.094l1,.822-.519,1.348a19.669,19.669,0,0,1-2.2,3.073l-1.773,2.244-.937-.93c-.505,1.6-.917,3.289-.559,3.828,3.451,5.176,18.07,11.141,29.514,12.051,4.745.364,8.236-.229,9.55-1.651,2.116-2.292,2.743-6.187,3.4-10.319.168-1.072.35-2.17.553-3.249a7,7,0,0,1-4.523-.694c-2.554-1.449-3.249-4.475-3.869-7.151-.728-3.121-1.227-4.617-2.709-4.8-4.651-.593-9.962.384-13.177,2.413-2.743,1.732-4.664,2.811-6.464,2.069s-2.433-3.04-3.033-5.736c-.58-2.595-2.5-5.513-5.884-8.924-2.143-2.164-4.084-3.107-5.56-2.75-1.611.438-2.979,2.615-3.862,6.12a8.7,8.7,0,0,0-.061,2.608,11.032,11.032,0,0,1-.115,3.511,13.221,13.221,0,0,1-1.948,4.03c-.3.472-.593.95-.863,1.436l-1.274,2.325a48.946,48.946,0,0,0,7.953-.539C122.607,28.941,123.759,28,124.959,28.7Z" transform="translate(556.239 23.243)"/><path class="a" d="M107.448,20.753c.458.357.937.762,1.436,1.179,1.375,1.159,3.673,3.013,4.617,2.9a51.416,51.416,0,0,1,9.975-.923c7.441,0,14.713,1.361,21.824,2.7s14.356,2.7,21.851,2.743L165.99,26.94c-.364-.741-.694-1.516-1.011-2.292a18.645,18.645,0,0,0-2.366-4.482,18.334,18.334,0,0,0-3.842-3.249q-.4-.283-.789-.566L153.09,22.4l-2.642-6.612-.782.04a17.6,17.6,0,0,1-4.522-.162,17,17,0,0,1-5.041-2.386c-1.867-1.132-3.99-2.413-5.042-1.887-.64.317-1.813,1.658-2.406,7.077a4.54,4.54,0,0,1-4.084,3.963c-3.208.519-7.63-1.388-9.719-6.046A20.266,20.266,0,0,0,115.1,11.4c-.263-.283-.519-.566-.775-.842-.1.175-.209.344-.324.519-1.254,2.042-2.548,4.159-4.57,4.4-4.954.6-5.4,1.5-5.419,1.537C104.01,17.019,103.923,18,107.448,20.753Z" transform="translate(506.466 24.368)"/><path class="a" d="M159.639,51.113c-.815-.148-2.022.816-3.35,1.82l-1.267.944c-6.241,4.489-4.219,7.326-1.159,11.613a19.549,19.549,0,0,1,3.06,5.48l.377-.135v1.6c8.459,9.173,12.509,20.867,12.435,35.614h.007v.465c-.007.431.02.836.014,1.274,1.193,1.678,2.44,3.329,3.693,4.981a79.253,79.253,0,0,1,8.378,12.7c4.947,10.171,9.968,16.782,19.728,18.333,2.48.391,5.837.074,7.144-1.146,1.092-1,1.591-4.543.9-6.315a105,105,0,0,0-4.516-9.53c-2.312-4.5-4.7-9.146-6.066-14.086-4.442-16.129-14.275-29.352-23.785-42.138-4.617-6.221-9.4-12.644-13.527-19.35C160.92,51.962,160.192,51.214,159.639,51.113Zm14.066,42.246c.371-.189.741-.391,1.105-.593a12.982,12.982,0,0,1,3.437-1.476c1.307-.3,2.143.762,2.891,1.685.2.243.4.485.58.667l1.543,1.53-1.941.97c-.371.182-.728.384-1.092.586a13.085,13.085,0,0,1-3.451,1.483,2.267,2.267,0,0,1-.418.047c-1.058,0-1.806-.917-2.48-1.739-.2-.236-.391-.479-.58-.667l-1.537-1.53Z" transform="translate(749.512 232.904)"/><path class="a" d="M196.823,121.609c-1.139-2.615-2.865-6.571-3.747-6.794l-.094-.013c-.7,0-2.642,1.5-4.522,2.959l-1.409,1.078c-9.254,7.084-9.409,16.594-6.733,22.585,3.68,8.23-.876,14.073-4.893,19.229-3.956,5.075-7.373,9.463-3.592,15.717l.377.627-.249.8a6.38,6.38,0,0,1-3.026,2.885l-1.409.532a31.515,31.515,0,0,1-7.683,2.164c-4.745.5-8.418,2.588-10.346,5.9a11.592,11.592,0,0,0-.532,9.955,14.536,14.536,0,0,0,2.763-.8c.121-.62.222-1.267.323-1.9.458-2.959.89-5.749,3.114-6.362,1.82-.5,3.822.8,6.726,4.334,2.271,2.757,3.822,1.948,7.1-.175,3.195-2.083,7.576-4.9,12.826-.3l.162.135c.108-.809.128-2.069.142-3.006.034-2.5.081-5.1,1.065-6.787,2.278-3.9,4.28-7.023,6.288-9.86,5.143-7.239,5.338-15.616,5.547-24.486.2-8.364.4-17,5.028-24.756l-.047-.047A10.107,10.107,0,0,1,196.823,121.609Z" transform="translate(733.188 565.552)"/><path class="a" d="M181.6,165.322a5.78,5.78,0,0,0-1.921-.155c-.505,4.469-1.847,7.475-4.091,9.254-3.4,2.709-7.98,1.975-12.4,1.267-2.945-.465-5.729-.917-7.859-.317-3.8,1.045-7.778.634-11.613.243-6.14-.647-11.943-1.254-16.728,4.057l-1.348,1.49-1.112-1.678c-.479-.735-.93-1.51-1.375-2.285a16.221,16.221,0,0,0-3.195-4.394c-.452-.377-1.934-.33-2.993-.29-.155,0-.317.007-.485.013.027.391.04.782.067,1.173a20.362,20.362,0,0,1-.364,6.908c-.735,2.561-3.161,6.565-6.032,7.01s-7.879-1.638-8.89-4.307a167.5,167.5,0,0,1-5.5-18.339l-1.018-3.909c-1.321-4.981-3.95-4.623-7.926-4.078a20.673,20.673,0,0,1-4.678.263c-.243.721-.512,1.476-.8,2.231-.613,1.678-1.644,4.489-1.173,5.2,1.611,2.413,3.1,5.041,4.536,7.582,6.2,10.959,12.091,21.3,28.328,17.382l16.129-1.159c16.324-1.146,33.208-2.332,49.795-3.727,4.381-.371,8.25-1.88,8.62-2.682C188.769,177.906,189.578,170.161,181.6,165.322Z" transform="translate(379.393 787.997)"/><path class="a" d="M163.473,69.146c-1.786,1.186-3.047,3.4-4.388,5.736-.108.2-.216.4-.33.593a8.724,8.724,0,0,1,3.72.418,14.1,14.1,0,0,1,4.233,2.966c.492.452.984.9,1.489,1.3l2.143,1.692-2.548.984c-.519.2-1.031.425-1.543.647a17.024,17.024,0,0,1-4.03,1.375,21.1,21.1,0,0,1-4.556.155L157.427,85v.324c9.389,4.071,10.4,6.989,7.394,18.953-.081.33-.175.694-.229.957,8.917,7.812,5.149,15.313,1.827,21.938a54.07,54.07,0,0,0-2.575,5.655c-1.618,4.475-1.153,10.514,4.988,14.019a37.437,37.437,0,0,0,6.052,3.026A15.6,15.6,0,0,0,179.035,142c1.065-6.181-.512-11.613-5.271-18.184-2.413-3.323-2.13-6.2-1.462-8.027,1.456-4,6.309-7.313,13.325-9.085a15.076,15.076,0,0,0,3.68-1.159,11.973,11.973,0,0,0-.236-2.17l-.115-.8c-1.139-7.913-5.311-14.268-9.719-20.988A83.215,83.215,0,0,1,171.365,67.7C169.8,67.528,165.238,67.966,163.473,69.146Z" transform="translate(786.704 319.664)"/><path class="a" d="M174.309,111.119c-1.766-1.287-3.538-2.581-5.284-3.909-.337.135-.694.27-1.045.4-.418.168-.991.391-1.4.566.944,15.1-2.912,27.02-11.775,36.342l.182.108a8.938,8.938,0,0,0,3.5,1.584c1.388.142,2.925-.876,4.6-1.907,2.244-1.375,4.779-2.959,7.6-2.224,1.948.492,3.646,2,5.2,4.6a7.316,7.316,0,0,0,3.734-.5c3.148-1.941,10.069-21.163,8.6-23.92A136.985,136.985,0,0,0,174.309,111.119Z" transform="translate(771.648 528.294)"/><path class="a" d="M65.87,165.919h-.007c-1.314-.566-2.656-1.065-3.963-1.55-4.563-1.678-8.876-3.262-10.373-7.185-1.072-2.811-.5-6.255,1.82-10.811a27.13,27.13,0,0,0-7.6-6.079c-1.105-.505-4.859.613-5.877,2-1.153,1.564-.182,3.357,1.5,6.147,1.469,2.453,3.148,5.23,2.346,8.182-.512,1.914-1.968,3.552-4.442,5.008a5.157,5.157,0,0,0,.2,1.409c.128.4.249.836.371,1.281.29,1.051.735,2.655,1.26,2.979,7.994,4.994,16.277,9.914,25.046,15.118l6.828,4.057.013-.1a40.642,40.642,0,0,1,.782-4.684C75.8,173.421,70.783,168.029,65.87,165.919Z" transform="translate(168.393 693.216)"/><path class="a" d="M163.872,132.606c-1.368-1.119-2.77-2.265-3.99-3.377l-.31.35a7.478,7.478,0,0,0-1.55,2.116c1.813,14.868.62,20.26-10.771,27.263-3.68,2.265-3.612,4.509-3.511,7.63a22.172,22.172,0,0,1-.047,3.127l6.544,5.271-6.652,2.642v2.878l4.765-1.847-2.811,2.81a4.106,4.106,0,0,0,1.82-.189c14.942-7.609,18.669-22.424,22.275-36.753.4-1.611.816-3.222,1.227-4.812C171.064,138.5,166.386,134.661,163.872,132.606Z" transform="translate(707.252 642.906)"/><path class="a" d="M153.8,156.75c-10.117,6.484-21.056,6.288-31.664,6.107a120.844,120.844,0,0,0-12.7.209c-2.918.249-6.288,3.383-8.748,5.682a9.918,9.918,0,0,0,.243,3.336c6.336,1.854,12.765,3.417,20.179,5.217l5.763,1.4,5.25-2.737c7.8-4.071,16.621-8.674,25.133-13.446a7.913,7.913,0,0,0-.6-3.795A6.673,6.673,0,0,0,153.8,156.75Z" transform="translate(489.058 788.38)"/><path class="a" d="M102.524,165.11l-2.345-1.732c-6.241-4.624-12.7-9.416-19.182-13.9a6.258,6.258,0,0,0-2.689-.013,12.12,12.12,0,0,0,1.247,2.811,15.954,15.954,0,0,0,2.568,2.75c.452.431.91.849,1.341,1.287l1.651,1.665-2.177.876c-.768.3-1.658.762-2.541,1.22-2.8,1.429-5,2.575-6.484,1.328a68.022,68.022,0,0,1-8.479-8.937c-.8-.95-1.6-1.894-2.413-2.831h-.944V149.6l-.29-.013a26.9,26.9,0,0,0-3.923.074c-2.635.33-5.257.775-7.879,1.227l-1.119.189c.209.364.411.735.62,1.105,1.092,2,2.224,4.057,3.545,4.57,10.305,3.963,20.988,7.528,31.32,10.973q4.58,1.537,9.16,3.067a7.143,7.143,0,0,1,2.17-4.212C97.6,164.908,100.172,164.949,102.524,165.11Z" transform="translate(218.307 745.74)"/><path class="a" d="M109.059,156.772l-.175.02c-3.053.31-10.845,1.112-12.779,1.968-.465,5.008-1.281,8.27-3.727,9.079-2.157.708-4.6-.755-8.432-5.089-.479-.546-.957-1.126-1.436-1.725-1.321-1.631-2.683-3.309-4.1-3.943-2.332,2.123-6.841,15.569-6.619,19.371a5.049,5.049,0,0,0,1.847-.593c1.422-1.362,3.41-3.026,5.358-3.026a3.062,3.062,0,0,1,1.166.222c2.258.89,2.709,3.929,2.844,6.477.135,2.426,1.483,4.01,1.982,4.172a7.367,7.367,0,0,0,.371-1.543c1.051-8.4,5.3-9.085,9.422-9.732a23.466,23.466,0,0,0,3.734-.816c3.66-1.227,6.949-4.172,10.13-7.03,1.112-.991,2.2-1.975,3.316-2.891-.62-1.011-1.146-1.948-1.611-2.763S109.382,157.217,109.059,156.772Z" transform="translate(338.698 788.507)"/><path class="a" d="M131.723,166.285l-.142,1.483c-.189,1.941-2.19,2.669-3.788,3.255a9.186,9.186,0,0,0-1.8.8,18.85,18.85,0,0,0,2.015,1.84,5.257,5.257,0,0,0,4.1.715c11.06-4.132,17.153-12.637,19.128-26.71a11.151,11.151,0,0,0-4.125-1.038C133.428,146.577,132.741,155.676,131.723,166.285Z" transform="translate(623.648 730.258)"/><path class="a" d="M142.358,153.21c-.324.337-.7.755-1,1.112C134.8,162.268,125.8,166.043,117.1,169.7c-2.049.856-4.091,1.705-6.113,2.622a7.732,7.732,0,0,0-.566,3.727,3.611,3.611,0,0,0,.438,1.247c2.8-.539,5.567-1,8.29-1.449,6.747-1.105,13.123-2.15,19-4.4,6.983-2.676,7.225-10.467,6.207-16.533C144.252,154.5,143.039,153.668,142.358,153.21Z" transform="translate(541.255 768.061)"/><path class="a" d="M95.749,162.855c-7.286-2.918-15.158-4.886-22.767-6.787-2.386-.607-4.772-1.2-7.144-1.82-1.678-.452-2.871-.425-3.518-.02l.013.04h-.162l-.081.02c-.647.566-.836,2.1-.532,4.334a11.231,11.231,0,0,0,.721,3.269c.512.209,3.08-.694,3.923-.984a8.611,8.611,0,0,1,2.77-.425c7.367,0,17.982,7.475,23.987,13.2,1.227,1.166,3.835,1.928,6.983,2.029.081-.121.856-1.126,1.476-1.928.458-.593.971-1.254,1.557-1.948-.593-.856-1.173-1.786-1.752-2.73C99.577,166.454,97.879,163.7,95.749,162.855Z" transform="translate(284.315 772.118)"/><path class="a" d="M98.674,166.407c.162-.013.324-.027.485-.047-.054-.7-.081-1.368-.108-1.982a10.886,10.886,0,0,0-.31-2.689c-.647-.418-1.422-.977-2.2-1.53-3.862-2.757-7.859-5.608-12.017-6.464-4.63-.957-9.692-.735-14.585-.512-1.591.068-3.174.142-4.752.175,1,4.024,3.579,3.734,7.5,3.282,2.79-.317,5.945-.681,8.378,1.173,4.475,3.4,9.638,6,14.626,8.506A6.465,6.465,0,0,0,98.674,166.407Z" transform="translate(304.307 766.8)"/><path class="a" d="M130.069,150.458a93.432,93.432,0,0,0-6.72,9.058c.465.607,1.449,1.658,2.265,2.534.694.735,1.456,1.55,2.224,2.413l9.941-9.5-6.282-6.3C131.026,149.265,130.547,149.858,130.069,150.458Z" transform="translate(610.357 741.973)"/><path class="a" d="M124.044,152.161c-.748,0-2.17,1.469-3.114,2.433l-.2.2c1.57,2.137,6.147,7.569,8.257,9.813,1.914-2.325,3.916-4.826,6.672-8.236l1.705-2.13c-1.4-.256-2.676-.512-3.855-.741A52.289,52.289,0,0,0,124.044,152.161Z" transform="translate(596.473 762.04)"/><path class="a" d="M143.808,141.654a60.046,60.046,0,0,1-4.576,5.493,30.746,30.746,0,0,1-4.428,3.518c-.317.229-.64.452-.957.681l.4,1h-.64c.014.917.007,1.84-.061,2.75-.169,2.11-.31,4.091.64,5.183a5.2,5.2,0,0,0,3.4,1.308l11.134-11.107-4.617-9.2C144,141.4,143.909,141.532,143.808,141.654Z" transform="translate(648.911 699.601)"/><path class="a" d="M151.483,142.129a6.92,6.92,0,0,0-2.258-.809,143.183,143.183,0,0,0-12.995,10.117,23.454,23.454,0,0,0,1.806,3.518,3.809,3.809,0,0,0,.634.243c4.071-2.743,8.061-5.574,11.492-8.021l1.719-1.227c-.142-1.1-.216-1.988-.276-2.683C151.564,142.843,151.531,142.412,151.483,142.129Z" transform="translate(665.041 699.813)"/><path class="a" d="M117.895,17.745l4.32-6.595L110.8,9.675l2.823,8.07Z" transform="translate(544.587 19.277)"/><path class="a" d="M42.917,150.966a3.4,3.4,0,0,0,3.64.836,4.56,4.56,0,0,0,2.932-3.7,7.36,7.36,0,0,1-4.61-2.244c-1.82-2.076-1.6-4.94-1.415-7.468.047-.613.094-1.22.115-1.8-2.312,1.146-3.727,2.588-4.226,4.3C38.387,144.179,40.76,148.189,42.917,150.966Z" transform="translate(168.02 672.664)"/><path class="a" d="M172.345,142.883l-.236.95-.957.2c-2.817.6-5.648,1.173-8.472,1.746-8.755,1.786-17.814,3.626-26.495,6.1a26.258,26.258,0,0,0-.708,5.284c-.054.654-.108,1.294-.162,1.914,2.3-.607,4.779-1.429,7.185-2.231,7.778-2.588,15.131-5.021,19.485-2,3.815,2.656,6.6,3.707,8.263,3.188,1.692-.532,2.588-3.006,3.545-5.614a30.668,30.668,0,0,1,1.9-4.469l.256-.337,9.368-9.348c-1.072-.088-2.15-.27-3.208-.445C177.191,136.979,173.922,136.433,172.345,142.883Z" transform="translate(659.789 676.871)"/><path class="a" d="M19.178,117.327c-.58,3.943-.1,6.72,1.442,8.256s4.334,2.035,8.29,1.449c.58-3.943.1-6.72-1.436-8.256S23.141,116.754,19.178,117.327Z" transform="translate(68.193 581.665)"/><path class="a" d="M154.685,67.739a25.4,25.4,0,0,0,2.433,5.635l.566,1.072,4.132-1.719L155.932,65.8A7.6,7.6,0,0,0,154.685,67.739Z" transform="translate(770.965 312.19)"/><path class="a" d="M46.118,154.4c1.1.95,3.087.809,5.21.647.91-.067,1.833-.135,2.763-.121v-8.176l-9.234,4.6A4.868,4.868,0,0,0,46.118,154.4Z" transform="translate(198.139 730.975)"/><path class="a" d="M97.013,158.431a13.766,13.766,0,0,0,4.718,2.049,10.971,10.971,0,0,0,4.684-.876l-3.889-3.026Z" transform="translate(472.225 787.393)"/><path class="a" d="M135.181,25.4l-7.94,7.919c2.925.155,5.028-.384,6.288-1.651S135.349,28.3,135.181,25.4Z" transform="translate(631.16 109.548)"/><path class="a" d="M131.3,144.193a11.263,11.263,0,0,0-2.11.9l-.269.128c.2.364.4.728.593,1.092,1.065,1.968,2.062,3.835,3.484,4.792a16.034,16.034,0,0,0,3.3-1.314c.263-.115.532-.236.8-.357-.29-.29-.573-.58-.842-.856A28.9,28.9,0,0,0,131.3,144.193Z" transform="translate(639.969 716.304)"/><path class="a" d="M132.28,144.544c-1.267,1.267-1.82,3.377-1.651,6.268l7.94-7.919c-.337-.02-.667-.034-.984-.034C135.179,142.859,133.4,143.425,132.28,144.544Z" transform="translate(648.813 708.647)"/><path class="a" d="M12.76,104.905c.115.061.236.128.357.2a6.408,6.408,0,0,0,2.3.95,7.984,7.984,0,0,0,2.858-1.907l-4.408-1.827Z" transform="translate(32.722 504.3)"/><path class="a" d="M60.459,151.614v-2.932c-.964-.027-1.853-.061-2.763-.128-2.123-.169-4.111-.31-5.2.654a4.182,4.182,0,0,0-1.159,2.406h9.126Z" transform="translate(232.169 740.641)"/><path class="a" d="M158.381,89.869a4.793,4.793,0,0,0,1.072,1.658l2.076-4.01L159.985,85.2A15.463,15.463,0,0,0,158.381,89.869Z" transform="translate(792.18 414.197)"/><path class="a" d="M58.243,152.194c-.162.013-.324.027-.479.034v3.161h2.871l-.081.067a11.681,11.681,0,0,0,1.476-.121,12.383,12.383,0,0,0,2.642-.876,10.605,10.605,0,0,0-2.986-2.123A8.6,8.6,0,0,0,58.243,152.194Z" transform="translate(266.019 761.676)"/><path class="a" d="M57.995,155.481l3.033-2.434H56.152Z" transform="translate(257.59 767.13)"/><path class="a" d="M64.429,155.121a39.447,39.447,0,0,0-5.432.007c-.007.364-.013.748-.013,1.085,1.618.249,3.316.371,5.223.506l.317.027-.027-.465C64.476,155.855,64.456,155.458,64.429,155.121Z" transform="translate(272.46 778.511)"/><path class="a" d="M69.793,159.936a6.171,6.171,0,0,0,.95,2.278l.2.364,2.6-1.112-1.84-4.388A7.984,7.984,0,0,0,69.793,159.936Z" transform="translate(329.284 790.263)"/><path class="a" d="M157.726,69.308h-.894l.894.894Z" transform="translate(783.289 330.828)"/><path class="a" d="M134.471,145.2c.431.337.856.667,1.281.957l.047-.054-1-1.227Z" transform="translate(654.939 720.242)"/><path class="a" d="M74.608,156.184l.883,1.126A10.565,10.565,0,0,0,75,156.043Z" transform="translate(354.745 784.322)"/><path class="a" d="M100.056,10.414H99.4l.219.541Z" transform="translate(485.135 23.52)"/><path class="a" d="M102.75,8.031l-.438.541h.651Z" transform="translate(500.455 9.842)"/><path class="a" d="M83.418,17.674c-5.109.472-8.668,3.95-12.442,7.623-4.576,4.462-9.281,9.1-16.9,8.216V36.33h.748l-.013.027h.1c8.074.1,15.111.222,20.57-7.407,1.853-2.581,5.722-3.3,9.47-3.983,1.078-.2,2.177-.4,3.2-.647-.4-3.754-.748-6.6-1.186-7.077-.128.013-.93.094-1.57.189C84.826,17.506,84.179,17.6,83.418,17.674Z" transform="translate(246.004 62.716)"/><path class="a" d="M72.783,52.273c2.891-4.9,8.317-4.866,13.055-4.839,6.551-.027,10.71-.3,12.071-7.286.8-4.152,15.434-3.808,15.583-3.781,7.994.425,14.558,1.692,20.071,3.875.836.3,3.963-1.368,5.662-2.258,3.795-2,7.36-3.869,9.611-1.921,1.874,1.638,1.752,5.122-.479,11.829l.1.013a9.572,9.572,0,0,0,2.575.007c.438-.66,1.024-1.543,1.6-2.413,2.11-3.154,4.293-6.416,7.865-6.915,2.568-.337,5.446.842,8.742,3.667,2.622,2.238,2.615,2.231,10.75-4.92l1.537-1.361c1.867-1.678,3.8-3.417,5.641-2.817,12.846,4.1,25.335,2.352,38.566.505l4.61-.627c5.432-.728,9.463-1.092,12.4-1.355,7.414-.661,8.021-.714,10.171-4.118C257.295,20.629,262.4,16.45,269.467,14a41.882,41.882,0,0,0,.728-4.644c.142-1.1.29-2.265.485-3.451-3.464.054-6.706.067-9.786.074a191.835,191.835,0,0,0-20.152.728c-9.011.971-18.151,2.244-26.987,3.471-9.753,1.355-19.836,2.757-29.8,3.774-.189.013-18.211,1.429-19.674-3.511-.8-2.7-1.854-4.334-3.148-4.859-1.2-.479-2.865-.1-5.19,1.213-9.038,5.129-18.777,5.675-28.207,6.207-5.648.31-11.485.64-16.985,1.982l-.694.169-.586-.418c-6.4-4.6-10.292-1.429-16.122,4.118-4.549,4.327-9.645,9.18-16.621,6.336.088.62.175,1.24.27,1.86a67.537,67.537,0,0,1,1.045,12.422c-.081,1.961-1.752,3.4-3.377,4.806A13.815,13.815,0,0,0,72.338,46.6c-1.011,1.49-3.026,1.388-4.806,1.3a16.164,16.164,0,0,0-1.618-.027A11.305,11.305,0,0,0,67.29,50.2C67.9,51.066,71.152,52.016,72.783,52.273Zm97.971-28.382c.04-.411.074-.822.094-1.233a13,13,0,0,1,.634-3.7l.007-.013c.465-1.227,1.813-1.375,3-1.5.31-.034.62-.067.876-.121l2.035-.431-.58,7.8-6.309,1.348Z" transform="translate(302.255 -5.379)"/><path class="a" d="M8.661,132.7c6.983-.89,8.991,3.9,10.487,7.394,1.537,3.6,2.339,5.163,5.8,4.111,4.367-1.314,6.767-1.267,7.987.148,1.516,1.752.317,4.307-.95,7.023-.276.58-.553,1.173-.8,1.752a13.681,13.681,0,0,0,1.853,2.2,11.623,11.623,0,0,0,5.1-8.566c.243-3.815-1.645-7.609-5.311-10.663a31.684,31.684,0,0,1-5.217-6.147l-.829-1.159a6.378,6.378,0,0,1-.9-4.084l.182-.708.721-.4c6.619-3.087,6.228-8.634,5.769-15.05-.465-6.524-.991-13.911,6.652-18.7,5.56-3.478,10.723-11.458,6.983-22.5l-.566-1.692c-.782-2.366-1.6-4.806-2.19-5.014-.843-.337-4.489,2.015-6.9,3.559a10.09,10.09,0,0,1-4.651,1.22l-.061.007c-.472,9.018-5.116,16.3-9.611,23.361-4.772,7.481-9.274,14.545-9.038,23.421.088,3.478,0,7.185-.27,11.694-.121,1.955-1.537,4.132-2.9,6.241a29.247,29.247,0,0,0-1.55,2.568l.2-.02Z" transform="translate(7.995 282.539)"/></g></g></svg>