<svg xmlns="http://www.w3.org/2000/svg" width="197.491" height="35.991" viewBox="0 0 197.491 35.991"><defs><style>.a,.b,.c{fill:#161616;}.b{stroke:#000;stroke-width:0.5px;}.c{font-size:14px;font-family:Usual-Medium, Usual;font-weight:500;letter-spacing:0.1em;}</style></defs><g transform="translate(-1102.509 -3070.121)"><g transform="translate(22 44)"><path class="a" d="M11.708,0c6.466,0,11.708,4.959,11.708,11.075S18.174,22.15,11.708,22.15,0,17.192,0,11.075,5.242,0,11.708,0Z" transform="translate(1109.23 3032.361) rotate(90)"/><g transform="translate(1115.558 3026.365) rotate(90)"><path class="b" d="M6.621,12.506c-.046.231-.116.353-.22.381-.151.042-.3-.13-.442-.295a3.615,3.615,0,0,1-.254-.344A2.03,2.03,0,0,0,5.3,11.76,1.281,1.281,0,0,1,5,11.393a.758.758,0,0,0-.46-.423l-.069-.016.037-.061c.01-.016.018-.035.026-.053a.257.257,0,0,1,.1-.131.334.334,0,0,1,.111-.026.283.283,0,0,0,.068-.013.468.468,0,0,0-.049-.081Q4.2,9.834,3.631,9.083l-.383-.507c-.025.028-.052.06-.079.091-.131.155-.21.242-.287.215a.375.375,0,0,1-.253-.232.7.7,0,0,1,.159-.577A7.076,7.076,0,0,0,2,6l-.051-.063a.6.6,0,0,1-.19-.5c0-.016-.04-.061-.062-.086h0a.333.333,0,0,0-.031.087c-.022.138-.038.278-.055.417l-.037.3-.077-.117c-.035-.053-.073-.1-.112-.156A1.441,1.441,0,0,1,1.157,5.5a3.412,3.412,0,0,1-.133-.611,2.255,2.255,0,0,0-.266-.888c-.084-.134.1-.435.138-.493.082-.127.16-.183.234-.164s.114.1.124.262a.205.205,0,0,0,.046.084.294.294,0,0,0,.047-.06c-.028-.1-.065-.213-.1-.32s-.067-.2-.1-.3a.32.32,0,0,1,.08-.232c.034-.053.08-.126.065-.154-.006-.011-.041-.047-.233-.05H.979l.04-.074c.009-.017.016-.035.024-.053a.327.327,0,0,1,.084-.133.539.539,0,0,1,.113-.068.468.468,0,0,1-.146-.066c-.046-.034-.048-.1-.05-.161a.5.5,0,0,0,0-.065c-.01-.062-.022-.124-.034-.186a3.147,3.147,0,0,1-.06-.407,2.586,2.586,0,0,1,.007-.314A1.313,1.313,0,0,0,.925.56,1.27,1.27,0,0,0,.63.139C.589.094.546.047.506,0,.465.047.423.093.381.139A2.5,2.5,0,0,0,.024.592.641.641,0,0,0,.043.978l.015.066a.943.943,0,0,0,.071.187.775.775,0,0,1,.085.264c0,.059,0,.119,0,.179,0,.265,0,.475.358.511l.051.005,0,.051a.481.481,0,0,0,.1.263c.107.179.241.4-.1.639-.078.055-.129.235-.14.494-.005.129-.024.26-.041.387A1.142,1.142,0,0,0,.716,5.2.375.375,0,0,1,.8,5.458a.468.468,0,0,0,.043.2.628.628,0,0,0,.188.149c.1.063.2.122.2.21.012.334.157.459.456.6.2.093.327.176.359.3S2,7.19,1.821,7.439l-.012.016c-.044.061-.16.222-.141.266.055.125.106.252.157.381A2.484,2.484,0,0,0,2.7,9.4a.423.423,0,0,0,.059-.029.393.393,0,0,1,.128-.053.853.853,0,0,1,.817.37.3.3,0,0,1-.024.361c-.273.323-.146.567-.011.826a1.064,1.064,0,0,1,.159.472.6.6,0,0,0,.191.084.371.371,0,0,1,.35-.129.434.434,0,0,1,.287.289,1.425,1.425,0,0,0,.66.69,1.361,1.361,0,0,1,.724.865l.018.008a.892.892,0,0,1,.956-.013l.026-.04c.024-.037.065-.1.059-.118a1.41,1.41,0,0,0-.238-.488A.563.563,0,0,0,6.621,12.506ZM.353.767.39.747A.43.43,0,0,1,.5.7C.544.69.574.724.6.754L.618.776l.051.05L.6.859.569.878A.424.424,0,0,1,.455.927l-.014,0C.406.929.381.9.359.871L.34.849.289.8Zm.164,1L.291,1.644.34,1.6l.019-.022c.025-.031.054-.064.1-.056a.431.431,0,0,1,.113.049l.037.02.064.032ZM4.03,10.357l-.022.019-.048.048L3.835,10.2l.151-.151.032.064c.006.012.013.024.02.037a.425.425,0,0,1,.049.113C4.1,10.3,4.061,10.332,4.03,10.357Z" transform="translate(0 16.75)"/><path class="b" d="M.071.154A.491.491,0,0,0,.043.109.371.371,0,0,0,0,.189.41.41,0,0,0,.045.378C.229.369.328.52.414.653c.118.184.2.291.419.2.128-.052.383.359.385.363a2.1,2.1,0,0,1,.254.626c.006.027.109.085.164.116.123.069.24.134.226.232-.011.081-.11.141-.336.2l0,0a.322.322,0,0,0,.046.071h.1A.425.425,0,0,1,2,2.561a.382.382,0,0,1,.056.308c-.015.112-.015.112.329.209l.065.018c.08.022.163.044.18.106A2.793,2.793,0,0,0,3.316,4.28l.1.115c.118.137.2.242.261.319.152.193.162.209.3.208h.02a1,1,0,0,1,.653.214,1.5,1.5,0,0,0,.142-.064c.033-.016.068-.033.1-.049-.064-.095-.123-.184-.179-.27a6.417,6.417,0,0,0-.383-.545c-.189-.231-.388-.461-.581-.683-.214-.246-.435-.5-.643-.759,0,0-.368-.478-.257-.608a.232.232,0,0,0,.078-.175C2.921,1.941,2.88,1.9,2.8,1.862a2.033,2.033,0,0,1-.68-.669A3.131,3.131,0,0,0,1.761.758L1.744.742V.718c.012-.26-.146-.311-.4-.373C1.139.3.913.244.865,0L.82.041A2.242,2.242,0,0,1,.494.294.25.25,0,0,1,.3.287.453.453,0,0,0,.194.264C.134.262.1.205.071.154ZM2.6,2.58l.037-.02a.43.43,0,0,1,.113-.048c.043-.01.071.025.1.055l.019.022.049.049-.227.125-.151-.151Z" transform="translate(27.96 4.488)"/><path class="b" d="M.411,5.012c.079.057.126.1.134.152A.165.165,0,0,1,.5,5.287c-.011.014-.023.031-.035.051a.54.54,0,0,0-.055.23l0,.043.073-.017c.079-.018.2-.045.212-.08a2.546,2.546,0,0,0,.2-.879.432.432,0,0,1,.385-.489.749.749,0,0,0,0-.255h-.1l.059-.047a.46.46,0,0,1-.092-.095l-.047-.06.073-.021.043-.015c.06-.022.107-.04.137,0a.272.272,0,0,1,.035.063,2.178,2.178,0,0,0,.242-.287l.006,0,.013-.03.072-.1a1.827,1.827,0,0,1,.578-.595.248.248,0,0,1-.11-.178c-.006-.116.1-.211.2-.288l.268-.2.106-.078a.978.978,0,0,0,.009-.159.524.524,0,0,1,.318-.546A1.344,1.344,0,0,0,3.787,0L2.906.059c.014.054.029.108.043.161a2.99,2.99,0,0,1,.107.5c.014.151,0,.229-.059.261S2.845.962,2.765.9a.548.548,0,0,0-.1-.062s0,.011,0,.022a.6.6,0,0,1-.315.448.537.537,0,0,0-.264.321c-.015.083-.161.13-.247.151-.214.051-.337.08-.363.124s0,.12.04.259l.008.031c0,.005.128.552,0,.588a.478.478,0,0,0-.376.4l-.02.1-.069-.074c-.014-.015-.031-.03-.047-.044a.333.333,0,0,1-.106-.134,1.565,1.565,0,0,1-.054-.253,1.311,1.311,0,0,0-.134.231A4.218,4.218,0,0,1,.189,4.032.658.658,0,0,0,0,4.512C.026,4.67.152,4.824.411,5.012ZM.636,3.958l.048.048.022.019c.031.025.065.053.056.1a.423.423,0,0,1-.049.114l-.019.036-.032.063-.151-.15Z" transform="translate(2.502 6.041)"/><path class="b" d="M.1.047C.1.041.1.034.1.028A.466.466,0,0,1,.059,0L0,.047Z" transform="translate(3.676 9.885)"/><path class="b" d="M0,.11l0,.01L.068.1c0-.031,0-.063,0-.1C.043.038.021.075,0,.11Z" transform="translate(34.589 20.516)"/><path class="b" d="M1.426,1.051c.186-.016.208-.125.236-.262A.426.426,0,0,1,1.773.538L1.362,0,1.244.452a1.739,1.739,0,0,0-.033.182c-.007.051-.015.1-.025.15L1.223.747,1.242.725c.025-.03.052-.065.1-.056h0a.434.434,0,0,1,.113.049l.037.02.064.032L1.4.92,1.183.8a.333.333,0,0,1-.119.215.949.949,0,0,1-.45.105,2.071,2.071,0,0,0-.231.025c-.014,0-.038.031-.056.053a.37.37,0,0,1,.166.212.476.476,0,0,1-.118.355.428.428,0,0,0-.109.3.746.746,0,0,1-.176.8c-.04.035-.028.071.035.176s.18.3-.061.469A.133.133,0,0,0,0,3.583c-.008.049.037.112.086.179.091.127.215.3.042.505a.29.29,0,0,0-.086.273.5.5,0,0,0,.371.268l.028.008.017.036c.011.041-.02.074-.063.119-.025.026-.092.1-.084.12,0,0,.014.035.159.051a.4.4,0,0,0,.448-.22c0-.026-.065-.118-.1-.168a1.333,1.333,0,0,1-.1-.141L.691,4.568A.55.55,0,0,1,.6,4.336a1.414,1.414,0,0,1,.248-.914A1.14,1.14,0,0,1,.8,3.147.258.258,0,0,1,.9,2.988c.016-.017.032-.035.045-.052l.064-.086.027.1c.043-.8.023-.9,0-.929l-.047-.06.073-.022L1.1,1.93c.06-.023.107-.04.137,0a.39.39,0,0,1,.056.126c0,.013.008.025.012.038a1.08,1.08,0,0,1,.321-.4.147.147,0,0,0-.007-.048c-.02-.055-.042-.109-.064-.163a.439.439,0,0,1-.057.133c-.032.047-.1.041-.173.034a.5.5,0,0,0-.067,0H1.188L1.21,1.58a.436.436,0,0,0,0-.172.35.35,0,0,1,.033-.274A.252.252,0,0,1,1.426,1.051Zm-.9,2.585L.494,3.573C.488,3.561.481,3.549.475,3.537a.429.429,0,0,1-.049-.113c-.009-.043.026-.071.057-.1L.5,3.308.552,3.26l.125.226Zm.181-1.9L.556,1.589.62,1.557l.037-.02a.431.431,0,0,1,.113-.049c.043-.008.071.025.1.056l.019.022.049.049Z" transform="translate(33.634 17.189)"/><path class="b" d="M0,.076C.006.051.014.025.022,0h0A.526.526,0,0,0,0,.076Z" transform="translate(34.888 19.355)"/><path class="b" d="M.11,0C.082.166.045.434,0,.8v0C0,.854,0,.9,0,.95l.046.174L0,1.141a1.7,1.7,0,0,0,.067.528c.02-.05.041-.1.063-.153A.986.986,0,0,0,.267.928,2.253,2.253,0,0,1,.11,0Z" transform="translate(34.758 19.542)"/><path class="b" d="M.516,1.633a.215.215,0,0,1,.152.039.475.475,0,0,0,.05.024l.052.021-.046.094a1.02,1.02,0,0,1-.053.1.564.564,0,0,1-.591.229H.05a.423.423,0,0,0,.14.1.406.406,0,0,0,.116.012c.1,0,.246,0,.271.191.034-.013.08-.051.156-.161.06-.133.086-.185.122-.192l.187-.309-.069.217a.2.2,0,0,1,.15-.059A.091.091,0,0,1,1.191,2a.272.272,0,0,1-.034.24,2.788,2.788,0,0,1-.283.22L.818,2.5A1.06,1.06,0,0,0,.79,2.64a1.082,1.082,0,0,0,.891-.5.311.311,0,0,1-.136-.013.474.474,0,0,1-.14-.1c-.016-.015-.033-.03-.049-.043l-.071-.056L1.369,1.9l.051-.022a.58.58,0,0,1,.133-.046.741.741,0,0,1,.15,0h.008V1.818l.019,0c.012-.03.027-.062.042-.094.026-.054.079-.168.065-.192-.092-.134-.117-.216-.084-.272s.122-.058.206-.052a.3.3,0,0,0,.119,0A.7.7,0,0,1,2.208,1,.612.612,0,0,0,2.322.812c.028-.089.058-.152.114-.17s.11.019.176.067l.031.022c.177.127.369.24.555.35l.177.106a.526.526,0,0,0-.1-.278c-.109-.187-.244-.42.1-.648A.734.734,0,0,0,3.355.069c0-.023-.007-.046-.01-.069L3.3.023c-.082.045-.166.092-.254.13S2.882.22,2.8.249a1.865,1.865,0,0,0-.434.2A2.386,2.386,0,0,0,1.986.8c-.065.07-.131.14-.2.206a.28.28,0,0,1-.171.058l-.024,0-.02-.023C1.534.979,1.5.947,1.471.944s-.088.043-.136.09c-.076.074-.179.174-.31.109C1,1.161.971,1.2.942,1.231A.794.794,0,0,1,.608,1.5c-.049.01-.1.018-.146.025a.53.53,0,0,0-.432.209A.361.361,0,0,0,0,1.8l.06-.02C.208,1.727.362,1.674.516,1.633Zm.771-.195.151.151-.064.032-.037.02a.431.431,0,0,1-.113.049H1.211c-.035,0-.06-.03-.082-.057-.006-.008-.013-.016-.019-.022l-.049-.048Z" transform="translate(8.886 1.236)"/><path class="b" d="M.2.245A.447.447,0,0,0,.039.361L0,.4.148.545a.752.752,0,0,1,.547.2C.715.76.805.726.865.7A.557.557,0,0,1,1.146.643c.623.122.644.153,1.051.9l.021-.021.012.066.52.173V1.592l.029-.014a.291.291,0,0,1,.18,0c.05.01.1.018.124,0a.153.153,0,0,0,.04-.1C3.115,1.432,2.93.759,2.9.668,2.825.6,2.754.538,2.684.472A4.083,4.083,0,0,0,2.162.036c-.11-.072-.23-.022-.368.035a.485.485,0,0,1-.525,0C1.082.422.81.349.568.284A.721.721,0,0,0,.2.245ZM2.64.787,2.662.768,2.71.72l.125.225-.151.15-.032-.063L2.633,1A.426.426,0,0,1,2.583.883C2.574.84,2.609.812,2.64.787Zm-.246.462.043-.015c.06-.022.107-.04.137,0a.387.387,0,0,1,.056.126c0,.015.009.029.014.043l.008.023a1.19,1.19,0,0,1,.125.1l.008.007-.071.074a1.027,1.027,0,0,0-.19-.147.466.466,0,0,1-.051-.031l-.108-.065H2.4c-.012-.013-.021-.026-.031-.038l-.047-.06Z" transform="translate(25.107 2.724)"/><path class="b" d="M.259,1.866a3.5,3.5,0,0,1,.333-.249l.071-.046a1.036,1.036,0,0,1,.462-.206,1.2,1.2,0,0,0,.918-.4A.661.661,0,0,1,2.671.738c.041,0,.082,0,.123,0L3.167.181,3.023.038,2.946.1a1.663,1.663,0,0,1-.278.19c-.044.022-.089.04-.135.057A.652.652,0,0,0,2.3.475l0,.042L2.256.508a.679.679,0,0,1-.375.1c-.046,0-.059-.045-.075-.119C1.8.476,1.8.458,1.8.445L1.782.392l.054-.01L1.909.365a1.082,1.082,0,0,1,.2-.033.146.146,0,0,1,.083.035L2.2.373A.4.4,0,0,0,2.11.055.35.35,0,0,0,1.8.026a.99.99,0,0,0-.263.124C1.492.174,1.45.2,1.408.22L1.339.256,1.333.178C1.326.087,1.293.026,1.239.007A.112.112,0,0,0,1.2,0a.169.169,0,0,0-.118.055,4.35,4.35,0,0,0-.347.43,3.385,3.385,0,0,1-.469.548.6.6,0,0,0-.1.912ZM.8.8C.811.791.818.779.823.768c.051-.1.1-.2.154-.3L1.065.293l.05.05a.5.5,0,0,1,.034.038A.184.184,0,0,0,1.2.43c.258.109.362.153.379.243s-.063.165-.237.334c-.041.04-.084.081-.132.081a.084.084,0,0,1-.031-.006c-.043-.016-.07-.062-.087-.152a.255.255,0,0,1-.178.119A.18.18,0,0,1,.772.958C.741.915.772.861.8.8Z" transform="translate(6.388 3.763)"/><path class="b" d="M.381.606a.116.116,0,0,1,.125,0L.539.636.522.68a.651.651,0,0,1-.073.1L.39.856.359.825C.343.878.329.934.341.952a1.618,1.618,0,0,0,.975.4A.433.433,0,0,0,1.632,1.3.672.672,0,0,0,1.744.955c.006-.036.012-.072.018-.108A.231.231,0,0,1,1.613.824.333.333,0,0,1,1.485.588C1.461.485,1.444.435,1.4.429A.712.712,0,0,0,.96.509C.869.566.806.6.747.577s-.08-.1-.1-.189A.661.661,0,0,0,.452.093C.381.022.317-.01.268,0S.17.089.141.2a.3.3,0,0,0,0,.086.364.364,0,0,1,0,.116A.435.435,0,0,1,.071.54C.061.556.051.571.042.587L0,.664A1.644,1.644,0,0,0,.263.646C.3.614.341.583.381.606Z" transform="translate(23.916 1.11)"/><path class="b" d="M.114.337.161.376c.045.038.121.1.153.1A1.7,1.7,0,0,1,.643.441,3.9,3.9,0,0,1,1.364.53a4.069,4.069,0,0,0,.722.091L2.047.541C2.035.517,2.025.491,2.014.465A.61.61,0,0,0,1.936.317.6.6,0,0,0,1.809.21L1.783.191l-.162.2L1.534.173H1.508A.581.581,0,0,1,1.359.169.555.555,0,0,1,1.192.09C1.131.053,1.061.01,1.026.028S.966.082.946.262A.15.15,0,0,1,.811.393.318.318,0,0,1,.49.193.663.663,0,0,0,.366.028L.341,0,.33.017C.289.085.246.155.179.163.015.182,0,.212,0,.213S0,.246.114.337Z" transform="translate(21.819 1.154)"/><path class="b" d="M.287,0C.26,0,.22.027.176.061L.135.092C-.072.24,0,.334.1.475A.646.646,0,0,1,.2.656l.012,0V.7A1.642,1.642,0,0,1,.621,1.881h0V1.9c0,.014,0,.028,0,.042.039.056.081.11.122.165a2.627,2.627,0,0,1,.277.42c.163.336.329.554.651.605a.333.333,0,0,0,.236-.038.251.251,0,0,0,.029-.209,3.463,3.463,0,0,0-.149-.315,2.478,2.478,0,0,1-.2-.465A4.294,4.294,0,0,0,.8.71C.65.5.492.292.355.07.329.029.305,0,.287,0ZM.752,1.4l.037-.02A.428.428,0,0,1,.9,1.328c.043-.01.071.025.1.056a.287.287,0,0,0,.019.022l.051.051L1,1.488l-.036.019a.425.425,0,0,1-.114.049l-.014,0C.8,1.558.78,1.528.758,1.5a.283.283,0,0,0-.019-.022L.688,1.428Z" transform="translate(32.269 10.179)"/><path class="b" d="M1.609.225C1.572.138,1.515.008,1.486,0h0a.528.528,0,0,0-.149.1L1.287.134a.61.61,0,0,0-.222.746A.578.578,0,0,1,.9,1.515c-.131.167-.244.312-.119.519L.8,2.055l-.008.027a.211.211,0,0,1-.1.1l-.047.018a1.031,1.031,0,0,1-.254.071.43.43,0,0,0-.342.195.384.384,0,0,0-.018.329A.464.464,0,0,0,.12,2.763c0-.02.007-.042.011-.063.015-.1.029-.19.1-.21s.126.026.222.143c.075.091.126.064.235-.006a.309.309,0,0,1,.424-.01l.005,0a.95.95,0,0,0,0-.1A.492.492,0,0,1,1.159,2.3c.075-.128.141-.232.208-.326a1.375,1.375,0,0,0,.183-.809A1.6,1.6,0,0,1,1.716.346h0A.337.337,0,0,1,1.609.225Z" transform="translate(31.636 24.363)"/><path class="b" d="M3.355.285A.2.2,0,0,0,3.291.28a.431.431,0,0,1-.135.306.509.509,0,0,1-.41.042.667.667,0,0,0-.26-.01A1.043,1.043,0,0,1,2.1.625.572.572,0,0,0,1.55.759L1.506.809,1.469.753C1.453.729,1.438.7,1.424.678A.539.539,0,0,0,1.318.532a.208.208,0,0,0-.1-.009H1.2c0,.013,0,.026,0,.039A.671.671,0,0,1,1.193.79c-.024.085-.1.217-.2.232A.318.318,0,0,1,.7.88,5.527,5.527,0,0,1,.519.274L.485.145C.442-.02.355-.008.223.01A.669.669,0,0,1,.069.019C.061.042.052.067.043.092.022.148-.012.241,0,.264c.053.08.1.167.15.251.2.362.4.7.936.574l.533-.039c.539-.038,1.1-.077,1.645-.123A.52.52,0,0,0,3.552.839.459.459,0,0,0,3.355.285Z" transform="translate(16.484 33.687)"/><path class="b" d="M.2.049A.551.551,0,0,0,.055.238L.044.258A.291.291,0,0,1,.167.272a.462.462,0,0,1,.14.1C.323.385.339.4.356.413L.427.469.342.5.291.523A.571.571,0,0,1,.158.568a.711.711,0,0,1-.151,0H0V.584c.31.134.344.231.244.626,0,.011-.006.023-.008.032.295.258.17.506.06.725a1.76,1.76,0,0,0-.085.187.365.365,0,0,0,.165.463,1.232,1.232,0,0,0,.2.1.515.515,0,0,0,.137-.26.749.749,0,0,0-.174-.6A.275.275,0,0,1,.491,1.59a.594.594,0,0,1,.44-.3.511.511,0,0,0,.122-.038.407.407,0,0,0-.008-.072l0-.026A1.722,1.722,0,0,0,.72.46,2.739,2.739,0,0,1,.46,0,.557.557,0,0,0,.2.049Z" transform="translate(33.712 13.867)"/><path class="b" d="M.644.129C.586.087.527.044.47,0L.435.014.389.032A1.512,1.512,0,0,1,0,1.233l.006,0a.3.3,0,0,0,.116.052.284.284,0,0,0,.152-.063.329.329,0,0,1,.251-.073A.3.3,0,0,1,.7,1.3.244.244,0,0,0,.82,1.288,1.568,1.568,0,0,0,1.1.5,4.527,4.527,0,0,0,.644.129Z" transform="translate(33.128 22.672)"/><path class="b" d="M.879.85h0C.835.832.791.815.747.8.6.744.454.691.4.562A.443.443,0,0,1,.465.2.894.894,0,0,0,.214,0,.244.244,0,0,0,.02.07c-.038.052-.006.111.05.2a.359.359,0,0,1,.078.27A.287.287,0,0,1,0,.709.179.179,0,0,0,.007.755C.011.768.015.783.019.8c.01.035.024.088.042.1.264.165.538.327.827.5l.226.134v0a1.351,1.351,0,0,1,.026-.155A.435.435,0,0,0,.879.85Z" transform="translate(7.406 30.011)"/><path class="b" d="M.67.112C.625.074.579.037.538,0L.528.011a.252.252,0,0,0-.051.07c.06.491.02.669-.356.9a.228.228,0,0,0-.116.252.729.729,0,0,1,0,.1l.216.174L0,1.6v.1l.157-.061-.093.093a.136.136,0,0,0,.06-.006A1.624,1.624,0,0,0,.861.505L.9.346C.908.306.753.179.67.112Z" transform="translate(30.63 27.575)"/><path class="b" d="M1.757,0A1.766,1.766,0,0,1,.711.2a4.054,4.054,0,0,0-.42.007A.621.621,0,0,0,0,.4.322.322,0,0,0,.01.507C.219.568.432.619.677.679l.19.047L1.041.635C1.3.5,1.59.348,1.871.191a.261.261,0,0,0-.02-.125A.221.221,0,0,0,1.757,0Z" transform="translate(21.065 33.702)"/><path class="b" d="M1.772.522,1.7.464C1.489.312,1.276.154,1.061.005A.207.207,0,0,0,.973,0,.408.408,0,0,0,1.014.1.544.544,0,0,0,1.1.188l.044.042L1.2.286,1.125.315c-.025.01-.055.025-.084.04C.949.4.877.44.827.4A2.277,2.277,0,0,1,.547.1L.468.01H.427a.858.858,0,0,0-.13,0C.21.022.124.037.037.052L0,.058.02.094C.057.16.094.228.138.245c.34.131.693.249,1.035.362l.3.1A.238.238,0,0,1,1.546.57.3.3,0,0,1,1.772.522Z" transform="translate(9.542 32.048)"/><path class="b" d="M1.231,0H1.225A2.562,2.562,0,0,0,.8.066C.788.231.761.339.68.366S.528.341.4.2C.386.18.37.16.354.14A.455.455,0,0,0,.219.01,1.576,1.576,0,0,0,0,.65.171.171,0,0,0,.061.631a.3.3,0,0,1,.177-.1A.1.1,0,0,1,.277.538c.074.029.089.13.094.214A.174.174,0,0,0,.436.89.239.239,0,0,0,.448.839C.483.561.624.539.76.517A.775.775,0,0,0,.883.49,1.044,1.044,0,0,0,1.218.258c.037-.033.073-.065.11-.1C1.307.129,1.289.1,1.274.071S1.242.015,1.231,0Z" transform="translate(14.644 33.707)"/><path class="b" d="M.189.649.185.7C.178.763.112.787.059.806A.3.3,0,0,0,0,.832.67.67,0,0,0,.067.893.175.175,0,0,0,.2.917.981.981,0,0,0,.834.034.374.374,0,0,0,.7,0C.246,0,.223.3.189.649Z" transform="translate(26.714 31.448)"/><path class="b" d="M1.057,0c-.011.011-.023.025-.033.037a1.931,1.931,0,0,1-.8.508C.154.573.087.6.02.631A.252.252,0,0,0,0,.754.122.122,0,0,0,.016.8C.108.778.2.762.29.747A3.2,3.2,0,0,0,.917.6c.231-.088.239-.346.205-.546C1.119.043,1.079.015,1.057,0Z" transform="translate(23.237 32.914)"/><path class="b" d="M1.134.3A5.835,5.835,0,0,0,.382.071L.146.011A.159.159,0,0,0,.03.01H.022C0,.031-.005.082,0,.155A.374.374,0,0,0,.028.264.453.453,0,0,0,.158.231.285.285,0,0,1,.25.217a1.489,1.489,0,0,1,.792.436A.375.375,0,0,0,1.273.72L1.321.656c.015-.02.032-.041.051-.064C1.353.564,1.334.533,1.315.5A.5.5,0,0,0,1.134.3Z" transform="translate(12.335 33.071)"/><path class="b" d="M1.106.443l.016,0c0-.023,0-.045,0-.065a.375.375,0,0,0-.01-.089C1.087.273,1.061.255,1.036.237a1.141,1.141,0,0,0-.4-.214A1.993,1.993,0,0,0,.157.006L0,.012C.033.145.118.136.248.12A.373.373,0,0,1,.525.159,3.042,3.042,0,0,0,1.008.44.213.213,0,0,0,1.106.443Z" transform="translate(13.176 32.865)"/><path class="b" d="M.222.059A3.143,3.143,0,0,0,0,.358c.015.02.048.055.075.084L.148.522.477.208.269,0Z" transform="translate(26.125 31.902)"/><path class="b" d="M.11,0C.085,0,.038.048.007.08L0,.087c.052.07.2.25.273.324C.336.334.4.252.493.139L.55.069.422.044A1.706,1.706,0,0,0,.11,0Z" transform="translate(25.541 32.681)"/><path class="b" d="M.343.012A2.016,2.016,0,0,1,.192.194,1.035,1.035,0,0,1,.046.31L.014.332.027.366H.006c0,.03,0,.061,0,.091A.248.248,0,0,0,.025.628.171.171,0,0,0,.137.671L.505.3.353,0Z" transform="translate(28.367 30.259)"/><path class="b" d="M.5.027A.235.235,0,0,0,.429,0,4.737,4.737,0,0,0,0,.334.762.762,0,0,0,.059.451L.08.458C.215.368.347.274.46.193L.517.153C.512.117.51.087.508.065S.505.036.5.027Z" transform="translate(28.993 30.267)"/><path class="b" d="M.234.267.377.049,0,0,.093.267Z" transform="translate(23.331 0.956)"/><path class="b" d="M.125.475A.112.112,0,0,0,.245.5.151.151,0,0,0,.342.38.243.243,0,0,1,.19.306.322.322,0,0,1,.143.059c0-.02,0-.04,0-.059a.244.244,0,0,0-.14.142A.424.424,0,0,0,.125.475Z" transform="translate(7.374 29.214)"/><path class="b" d="M1.223.184,1.215.215,1.184.222.9.279C.615.338.316.4.029.481A.867.867,0,0,0,.005.655C0,.677,0,.7,0,.719.076.7.158.672.237.645.494.56.737.479.881.579c.126.088.218.122.273.105S1.24.585,1.271.5A1,1,0,0,1,1.334.351L1.342.34l.31-.309c-.035,0-.071-.009-.106-.015C1.383-.011,1.275-.029,1.223.184Z" transform="translate(28.789 29.377)"/><path class="b" d="M.008.008A.315.315,0,0,0,.055.28.316.316,0,0,0,.329.328.316.316,0,0,0,.282.055.32.32,0,0,0,.008.008Z" transform="translate(2.878 24.873)"/><path class="b" d="M0,.064A.83.83,0,0,0,.08.25L.1.286.235.229.041,0A.244.244,0,0,0,0,.064Z" transform="translate(33.102 13.454)"/><path class="b" d="M.042.253A.251.251,0,0,0,.214.274c.03,0,.061,0,.091,0V0L0,.152A.161.161,0,0,0,.042.253Z" transform="translate(8.649 31.475)"/><path class="b" d="M0,.061A.454.454,0,0,0,.156.129.362.362,0,0,0,.311.1L.182,0Z" transform="translate(20.261 33.664)"/><path class="b" d="M.262,0,0,.262A.265.265,0,0,0,.208.207.263.263,0,0,0,.262,0Z" transform="translate(26.991 4.458)"/><path class="b" d="M.079,0a.374.374,0,0,0-.07.03L0,.034.02.07A.439.439,0,0,0,.135.228.531.531,0,0,0,.244.185L.27.173.242.145A.954.954,0,0,0,.079,0Z" transform="translate(27.365 30.906)"/><path class="b" d="M.056.056A.262.262,0,0,0,0,.262L.263,0H.231A.24.24,0,0,0,.056.056Z" transform="translate(27.739 30.61)"/><path class="b" d="M0,.085.012.092A.211.211,0,0,0,.088.123.264.264,0,0,0,.182.06L.037,0Z" transform="translate(1.502 21.583)"/><path class="b" d="M.3.1v-.1L.21,0A.246.246,0,0,0,.038.025.139.139,0,0,0,0,.1H.3Z" transform="translate(10.091 31.851)"/><path class="b" d="M0,.154A.161.161,0,0,0,.035.209L.1.077.053,0A.511.511,0,0,0,0,.154Z" transform="translate(33.924 17.771)"/><path class="b" d="M.016,0H0v.1H.095l0,0a.427.427,0,0,0,.049,0A.409.409,0,0,0,.228.078a.344.344,0,0,0-.1-.07A.283.283,0,0,0,.016,0Z" transform="translate(11.522 32.666)"/><path class="b" d="M.061.08.161,0H0Z" transform="translate(11.163 32.878)"/><path class="b" d="M.18,0A1.236,1.236,0,0,0,0,0C0,.015,0,.028,0,.039.053.047.11.051.173.056H.183V.041Z" transform="translate(11.794 33.319)"/><path class="b" d="M0,.094A.2.2,0,0,0,.032.17L.038.182.124.145.063,0A.264.264,0,0,0,0,.094Z" transform="translate(14.198 33.775)"/><path class="b" d="M.03,0H0L.03.03Z" transform="translate(33.58 14.234)"/><path class="b" d="M0,.011.042.042l0,0L.011,0Z" transform="translate(28.601 31.059)"/><path class="b" d="M0,0,.029.042A.349.349,0,0,0,.013,0Z" transform="translate(15.273 33.545)"/><path class="b" d="M.022,0H0L.007.018Z" transform="translate(20.792 1.121)"/><path class="b" d="M.014,0,0,.018H.021Z" transform="translate(21.441 0.59)"/><path class="b" d="M.969.014A.7.7,0,0,0,.558.266.671.671,0,0,1,0,.537V.631H.028c.267,0,.5.007.68-.245A.481.481,0,0,1,1.02.255c.036-.006.072-.013.106-.021A.884.884,0,0,0,1.087,0L1.035.006Z" transform="translate(10.7 2.641)"/><path class="b" d="M.227,1.549c.1-.162.275-.161.431-.16.216,0,.354-.01.4-.241.027-.137.51-.126.515-.125a2.1,2.1,0,0,1,.663.128c.028.01.131-.045.187-.075.125-.066.243-.128.318-.063s.058.169-.016.391h0a.307.307,0,0,0,.085,0l.053-.079c.07-.1.142-.212.26-.229a.384.384,0,0,1,.289.121c.087.074.086.074.355-.163l.051-.045C3.881.955,3.945.9,4.006.917A2.79,2.79,0,0,0,5.28.934L5.432.913c.179-.024.313-.036.41-.045.245-.022.265-.024.336-.136A1.006,1.006,0,0,1,6.724.285,1.343,1.343,0,0,0,6.748.131c0-.036.01-.075.016-.114l-.323,0a6.4,6.4,0,0,0-.666.024c-.3.032-.6.074-.892.115C4.562.2,4.228.25,3.9.283c-.006,0-.6.047-.65-.116-.026-.089-.061-.143-.1-.161a.211.211,0,0,0-.171.04,2.034,2.034,0,0,1-.932.205,3.118,3.118,0,0,0-.561.065L1.458.323,1.439.309C1.228.157,1.1.262.906.445c-.15.143-.318.3-.549.21L.366.716a2.249,2.249,0,0,1,.035.41c0,.065-.058.113-.112.159a.475.475,0,0,0-.077.077c-.033.049-.1.046-.159.043A.534.534,0,0,0,0,1.4a.372.372,0,0,0,.045.077A.412.412,0,0,0,.227,1.549ZM3.463.612c0-.014,0-.027,0-.041A.43.43,0,0,1,3.487.449h0C3.5.408,3.547.4,3.587.4l.029,0L3.683.38,3.664.638,3.455.683Z" transform="translate(13.337 0)"/><path class="b" d="M.007,2.381c.231-.029.3.129.346.244s.077.171.192.136c.144-.043.224-.042.264,0S.819,2.908.778,3c-.009.019-.018.039-.026.058a.462.462,0,0,0,.061.073.385.385,0,0,0,.169-.283.43.43,0,0,0-.175-.352,1.047,1.047,0,0,1-.172-.2L.606,2.252a.21.21,0,0,1-.03-.135l.006-.024.024-.013c.219-.1.206-.285.191-.5a.578.578,0,0,1,.22-.618A.609.609,0,0,0,1.247.223L1.228.167C1.2.089,1.176.008,1.156,0S1.007.068.928.119A.334.334,0,0,1,.774.159h0A1.6,1.6,0,0,1,.455.931a1.373,1.373,0,0,0-.3.774c0,.115,0,.237-.009.386a.5.5,0,0,1-.1.206A.942.942,0,0,0,0,2.382Z" transform="translate(0.543 12.299)"/></g></g><text class="c" transform="translate(1151 3080)"><tspan x="0" y="14">TRUE NATURE</tspan></text></g></svg>