<svg xmlns="http://www.w3.org/2000/svg" width="249.011" height="244.773" viewBox="0 0 249.011 244.773"><defs><style>.a{fill:#161616;font-size:20px;font-family:LexendExa-Regular, Lexend Exa;}</style></defs><g transform="translate(-740.989 -4947.101)"><text class="a" transform="translate(741 5056.267)"><tspan x="88.02" y="20">Anger</tspan></text><g transform="translate(740.989 4947.101)"><path d="M230.912,171.776c-.324,1.627-.819,2.48-1.547,2.678-1.059.293-2.1-.911-3.108-2.072a25.383,25.383,0,0,1-1.788-2.419,14.279,14.279,0,0,0-2.876-3.431,9.006,9.006,0,0,1-2.065-2.584c-.816-1.334-1.588-2.593-3.238-2.975l-.485-.111.257-.426c.067-.114.127-.244.186-.373a1.807,1.807,0,0,1,.7-.919,2.35,2.35,0,0,1,.783-.185,2,2,0,0,0,.476-.091,3.3,3.3,0,0,0-.348-.567q-3.96-5.318-7.969-10.6l-2.692-3.567c-.179.2-.365.42-.553.641-.924,1.093-1.478,1.7-2.018,1.509a2.635,2.635,0,0,1-1.78-1.63c-.348-1.054.03-2.418,1.12-4.056-.308-2.931-3.719-12.26-5.566-14.606-.119-.149-.24-.3-.359-.44a4.192,4.192,0,0,1-1.339-3.539c0-.111-.282-.432-.435-.6l0,0a2.341,2.341,0,0,0-.221.615c-.152.974-.268,1.953-.383,2.933l-.262,2.14-.54-.825c-.244-.371-.515-.734-.786-1.1a10.132,10.132,0,0,1-1.579-2.632,23.993,23.993,0,0,1-.935-4.3A15.862,15.862,0,0,0,189.68,112c-.593-.946.7-3.057.969-3.47.576-.9,1.123-1.286,1.643-1.152s.8.734.872,1.84a1.445,1.445,0,0,0,.326.59,2.067,2.067,0,0,0,.33-.42c-.2-.714-.457-1.5-.708-2.25-.233-.7-.473-1.417-.669-2.142a2.25,2.25,0,0,1,.562-1.628c.238-.374.564-.886.46-1.08-.042-.077-.285-.334-1.639-.352l-.593-.008.28-.523c.061-.118.116-.244.169-.371a2.3,2.3,0,0,1,.593-.935,3.79,3.79,0,0,1,.8-.481,3.293,3.293,0,0,1-1.029-.462c-.323-.238-.338-.692-.352-1.134a3.5,3.5,0,0,0-.031-.459c-.072-.435-.155-.871-.24-1.306A22.132,22.132,0,0,1,191,93.392a18.191,18.191,0,0,1,.049-2.208,9.235,9.235,0,0,0-.188-3.417,8.933,8.933,0,0,0-2.076-2.961c-.291-.32-.59-.647-.871-.98-.288.327-.586.653-.882.976a17.579,17.579,0,0,0-2.51,3.19,4.505,4.505,0,0,0,.135,2.71l.1.464a6.626,6.626,0,0,0,.5,1.318,5.454,5.454,0,0,1,.6,1.856c.028.413.027.838.025,1.259-.008,1.865-.014,3.338,2.52,3.6l.355.038-.033.355a3.384,3.384,0,0,0,.7,1.846c.755,1.256,1.694,2.82-.708,4.5-.551.387-.91,1.653-.982,3.475-.036.9-.166,1.831-.291,2.725-.42,2.991-.816,5.817,1.941,8.247a2.638,2.638,0,0,1,.572,1.838,3.292,3.292,0,0,0,.3,1.436,4.418,4.418,0,0,0,1.32,1.045c.713.44,1.386.855,1.409,1.475.086,2.346,1.1,3.23,3.208,4.223,1.394.656,2.3,1.237,2.526,2.1.238.914-.316,1.906-1.569,3.652l-.083.116c-.309.427-1.128,1.564-.993,1.868.39.877.748,1.776,1.105,2.676,1.362,3.429,2.77,6.974,6.144,9.14a2.969,2.969,0,0,0,.417-.205,2.763,2.763,0,0,1,.9-.37,6,6,0,0,1,5.747,2.6,2.129,2.129,0,0,1-.171,2.538c-1.92,2.269-1.024,3.987-.075,5.808a7.483,7.483,0,0,1,1.118,3.318,4.235,4.235,0,0,0,1.347.59,2.612,2.612,0,0,1,2.458-.91,3.054,3.054,0,0,1,2.017,2.033c.77,2.28,2.651,3.529,4.643,4.853,2.225,1.48,4.525,3.009,5.092,6.08a.828.828,0,0,0,.125.056c2.495-1.7,4.871-1,6.724-.092.058-.092.121-.186.183-.282.171-.258.454-.689.412-.833a9.922,9.922,0,0,0-1.677-3.436A3.961,3.961,0,0,0,230.912,171.776ZM186.833,89.219c.086-.044.172-.091.258-.138a3.024,3.024,0,0,1,.792-.343c.295-.063.5.178.677.393.045.056.091.111.133.155l.357.354-.449.227c-.085.042-.169.088-.252.135a2.978,2.978,0,0,1-.8.344.462.462,0,0,1-.1.012c-.246,0-.42-.214-.576-.4-.045-.058-.091-.113-.133-.157l-.357-.354Zm1.154,7.049-1.591-.877.343-.341c.042-.044.088-.1.133-.155.177-.216.38-.451.676-.393a3.03,3.03,0,0,1,.792.343c.088.047.172.094.258.138l.453.226Zm24.706,60.4a2.051,2.051,0,0,0-.155.136l-.34.34-.88-1.588,1.063-1.059.224.448c.042.086.091.171.138.257a2.987,2.987,0,0,1,.343.792C213.154,156.29,212.909,156.49,212.693,156.666Z" transform="translate(-184.35 33.973)"/><path d="M310.432,29.837a3.452,3.452,0,0,0-.2-.319,2.616,2.616,0,0,0-.281.564,2.883,2.883,0,0,0,.293,1.331c1.3-.067,2,.994,2.6,1.929.83,1.292,1.417,2.048,2.949,1.43.9-.366,2.693,2.524,2.71,2.555a14.733,14.733,0,0,1,1.788,4.4c.039.193.766.6,1.156.816.867.485,1.688.943,1.591,1.628-.08.573-.774.991-2.363,1.406l.011.022a2.264,2.264,0,0,0,.324.5c.183,0,.429,0,.673.006a2.987,2.987,0,0,1,2.343.655,2.685,2.685,0,0,1,.395,2.169c-.1.791-.1.791,2.317,1.469l.459.125c.564.152,1.148.308,1.267.744.828,3.022,2.754,5.236,4.791,7.582l.7.811c.83.966,1.409,1.7,1.834,2.242,1.07,1.361,1.139,1.47,2.091,1.461.049,0,.1,0,.142,0a7.039,7.039,0,0,1,4.6,1.506,10.515,10.515,0,0,0,1-.448c.23-.111.478-.23.735-.343-.451-.667-.864-1.3-1.256-1.9a45.106,45.106,0,0,0-2.693-3.832c-1.329-1.627-2.731-3.243-4.087-4.8-1.5-1.73-3.057-3.522-4.519-5.338-.027-.033-2.587-3.363-1.809-4.275a1.63,1.63,0,0,0,.546-1.229c-.058-.3-.341-.571-.892-.856a14.3,14.3,0,0,1-4.78-4.707,22.048,22.048,0,0,0-2.538-3.057l-.122-.114.006-.166c.086-1.829-1.026-2.187-2.844-2.621-1.419-.337-3.006-.716-3.341-2.432-.107.094-.216.189-.323.285a15.77,15.77,0,0,1-2.291,1.78,1.755,1.755,0,0,1-1.362-.049,3.183,3.183,0,0,0-.748-.16C310.876,30.6,310.64,30.194,310.432,29.837ZM328.185,46.9c.088-.044.174-.092.26-.139a3.026,3.026,0,0,1,.794-.34c.3-.072.5.175.673.39.045.056.091.113.133.155l.345.341-1.594.878-1.063-1.062Z" transform="translate(-113.291 2.81)"/><path d="M198.48,70.98c.554.4.886.706.943,1.068a1.157,1.157,0,0,1-.34.866c-.075.1-.16.218-.249.355a3.8,3.8,0,0,0-.388,1.616c-.011.1-.02.2-.031.3.167-.042.341-.081.51-.121.556-.127,1.4-.319,1.492-.565a17.9,17.9,0,0,0,1.431-6.18c.028-2.042.739-2.952,2.71-3.442a5.268,5.268,0,0,0,.011-1.794h-.727l.412-.327a3.235,3.235,0,0,1-.65-.665l-.327-.421.51-.149c.088-.025.194-.066.3-.1.42-.157.753-.28.963-.006a1.912,1.912,0,0,1,.244.442A15.311,15.311,0,0,0,207,59.835l.044.031.089-.213.506-.708a12.852,12.852,0,0,1,4.063-4.184,1.746,1.746,0,0,1-.77-1.251c-.044-.816.694-1.481,1.42-2.025.625-.467,1.256-.929,1.885-1.389l.748-.55a6.884,6.884,0,0,0,.061-1.115c0-1.262,0-2.566,2.235-3.839,2.784-1.588,5.346-4.921,4.94-8.863l-6.2.418c.1.379.2.758.305,1.135a21.013,21.013,0,0,1,.755,3.518c.1,1.06-.024,1.608-.418,1.834-.492.285-1.07-.138-1.629-.545a3.857,3.857,0,0,0-.692-.437c0,.027-.008.078-.014.155-.106,1.611-1.226,2.429-2.214,3.149a3.779,3.779,0,0,0-1.855,2.261c-.1.587-1.134.916-1.737,1.06-1.506.359-2.368.562-2.552.875-.154.26.009.847.282,1.821l.06.218c.011.038.9,3.882.028,4.139a3.361,3.361,0,0,0-2.646,2.834l-.138.7-.482-.521c-.1-.108-.215-.21-.329-.312a2.345,2.345,0,0,1-.744-.944,11,11,0,0,1-.377-1.78,9.214,9.214,0,0,0-.944,1.622,29.665,29.665,0,0,1-3.764,7.161c-1.029,1.337-1.444,2.41-1.3,3.376C195.772,68.574,196.657,69.657,198.48,70.98Zm1.578-7.411.34.338a1.976,1.976,0,0,0,.156.133c.216.177.46.376.395.675a2.973,2.973,0,0,1-.346.8c-.045.085-.094.169-.136.254l-.224.446-1.061-1.057Z" transform="translate(-177.993 6.758)"/><path d="M201.586,53.318c-.006-.042-.008-.086-.016-.128a3.272,3.272,0,0,1-.3-.2l-.412.327Z" transform="translate(-175.009 16.525)"/><path d="M339.7,101.52l.017.074.46-.175c0-.215-.008-.44-.009-.675C340,101.012,339.849,101.271,339.7,101.52Z" transform="translate(-96.445 43.545)"/><path d="M345.441,93.191c1.309-.116,1.463-.878,1.657-1.843a3,3,0,0,1,.785-1.768L344.995,85.8l-.83,3.177a12.261,12.261,0,0,0-.23,1.281c-.052.356-.1.714-.176,1.052l.258-.255c.042-.042.089-.1.134-.155.176-.214.368-.454.672-.391h0a3.052,3.052,0,0,1,.793.341c.085.049.171.1.257.139l.451.222-1.062,1.062-1.532-.844a2.34,2.34,0,0,1-.835,1.513,6.676,6.676,0,0,1-3.168.739,14.558,14.558,0,0,0-1.625.179c-.1.02-.268.221-.4.371a2.6,2.6,0,0,1,1.166,1.488,3.348,3.348,0,0,1-.828,2.5,3.006,3.006,0,0,0-.766,2.084c.315,1.419.844,3.792-1.237,5.61-.282.247-.2.5.249,1.237.5.836,1.269,2.1-.428,3.3a.938.938,0,0,0-.446.556c-.058.343.263.789.6,1.262.639.893,1.513,2.116.293,3.555a2.043,2.043,0,0,0-.6,1.923c.246.8,1.2,1.491,2.609,1.885l.2.056.121.252c.08.29-.141.518-.445.836-.177.185-.647.675-.587.844,0,.011.1.244,1.116.357a2.834,2.834,0,0,0,3.147-1.549c.035-.182-.458-.83-.722-1.179a9.35,9.35,0,0,1-.684-.99l-.192-.329a3.867,3.867,0,0,1-.662-1.63c-.118-1.633-.066-3.246,1.747-6.431a8.02,8.02,0,0,1-.288-1.934,1.816,1.816,0,0,1,.647-1.116c.113-.122.227-.244.32-.366l.45-.6.191.738c.3-5.612.158-6.328,0-6.533l-.332-.42.514-.152c.087-.025.194-.066.3-.105.42-.16.755-.28.966,0a2.748,2.748,0,0,1,.393.889c.027.089.054.179.083.265a7.6,7.6,0,0,1,2.258-2.8,1.03,1.03,0,0,0-.048-.34c-.14-.385-.293-.766-.45-1.146a3.086,3.086,0,0,1-.4.936c-.224.334-.706.287-1.216.238a3.522,3.522,0,0,0-.47-.031l-.5,0,.154-.477a3.06,3.06,0,0,0-.019-1.212,2.464,2.464,0,0,1,.229-1.924A1.769,1.769,0,0,1,345.441,93.191Zm-6.326,18.183-.226-.449c-.042-.086-.089-.171-.136-.254a3.022,3.022,0,0,1-.346-.8c-.064-.3.182-.5.4-.677.055-.045.111-.091.155-.133l.338-.337.88,1.586Zm1.271-13.339-1.063-1.06.451-.224c.086-.044.173-.091.258-.139a3.035,3.035,0,0,1,.794-.341c.3-.06.5.177.675.391.047.056.092.113.135.155l.344.343Z" transform="translate(-98.872 35.088)"/><path d="M341.049,96.065c.044-.18.1-.359.158-.536h-.016A3.685,3.685,0,0,0,341.049,96.065Z" transform="translate(-95.684 40.595)"/><path d="M341.235,96.366c-.2,1.167-.454,3.05-.766,5.639l0,.023c0,.341,0,.686,0,1.021l.324,1.226-.3.113a11.968,11.968,0,0,0,.47,3.713c.138-.352.291-.713.446-1.079.634-1.483,1.289-3.017.942-4.129C341.661,100.711,340.964,98.486,341.235,96.366Z" transform="translate(-96.015 41.069)"/><path d="M227.892,25.631a1.511,1.511,0,0,1,1.072.276,3.34,3.34,0,0,0,.354.172l.368.146-.324.661a7.175,7.175,0,0,1-.369.709c-1.077,1.746-2.712,1.675-4.157,1.61l-.224-.009a2.975,2.975,0,0,0,.987.68,2.852,2.852,0,0,0,.819.081c.7.008,1.729.019,1.907,1.342.241-.091.561-.359,1.1-1.131.423-.933.607-1.3.855-1.35l1.315-2.177-.489,1.527a1.388,1.388,0,0,1,1.057-.417.637.637,0,0,1,.475.474,1.912,1.912,0,0,1-.238,1.691,19.6,19.6,0,0,1-1.992,1.544l-.393.279a7.464,7.464,0,0,0-.2.976c2.491-.434,4.985-.99,6.266-3.493a2.188,2.188,0,0,1-.958-.091,3.329,3.329,0,0,1-.983-.691c-.114-.1-.229-.208-.346-.3l-.5-.393.59-.227c.121-.047.24-.1.359-.152a4.08,4.08,0,0,1,.936-.321,5.208,5.208,0,0,1,1.057-.034l.056,0v-.078l.136.03c.088-.211.189-.435.294-.659.18-.382.554-1.179.457-1.35-.644-.946-.82-1.519-.594-1.913.26-.454.861-.409,1.447-.366a2.127,2.127,0,0,0,.838-.033,4.939,4.939,0,0,1,.916-1.5,4.308,4.308,0,0,0,.8-1.286c.2-.625.407-1.066.8-1.2s.775.133,1.238.474l.218.158c1.243.891,2.593,1.69,3.9,2.463.416.246.833.492,1.248.742a3.7,3.7,0,0,0-.723-1.953c-.764-1.315-1.713-2.952.684-4.557a5.174,5.174,0,0,0-.1-1.362c-.025-.163-.049-.326-.069-.482l-.3.164c-.575.318-1.171.645-1.788.916-.571.251-1.17.463-1.748.67a13.116,13.116,0,0,0-3.05,1.383,16.775,16.775,0,0,0-2.671,2.485c-.459.492-.919.985-1.4,1.445a1.969,1.969,0,0,1-1.2.407l-.169-.02-.144-.164c-.259-.4-.5-.625-.7-.648-.284-.034-.622.305-.958.633-.535.52-1.259,1.224-2.18.764-.141.128-.38.4-.581.626a5.584,5.584,0,0,1-2.347,1.907c-.344.072-.689.124-1.027.174-1.242.183-2.314.341-3.039,1.472a2.534,2.534,0,0,0-.212.435c.139-.049.28-.1.423-.144C225.727,26.3,226.806,25.924,227.892,25.631Zm5.426-1.369,1.065,1.06-.451.225c-.087.042-.172.089-.26.138a3.032,3.032,0,0,1-.794.341.54.54,0,0,1-.1.009c-.246,0-.42-.211-.576-.4-.045-.055-.091-.113-.133-.155l-.343-.34Z" transform="translate(-161.767 -5.453)"/><path d="M298.528,22.555a3.145,3.145,0,0,0-1.134.814c-.092.086-.184.174-.277.257l1.041,1.038a5.287,5.287,0,0,1,3.844,1.4c.146.11.779-.136,1.2-.3a3.919,3.919,0,0,1,1.976-.415c4.381.861,4.529,1.079,7.389,6.3l.144-.146.086.467,3.656,1.215V32.022l.207-.1a2.048,2.048,0,0,1,1.267-.027c.354.067.691.128.869,0a1.076,1.076,0,0,0,.279-.686c-.046-.31-1.348-5.044-1.582-5.687-.506-.448-1-.911-1.5-1.376a28.717,28.717,0,0,0-3.67-3.067c-.774-.509-1.616-.158-2.588.246-1.145.474-2.427,1.007-3.694.034-1.312,2.438-3.229,1.921-4.926,1.464A5.073,5.073,0,0,0,298.528,22.555Zm17.154,3.808c.055-.045.111-.091.153-.133l.34-.335.88,1.583-1.063,1.057-.225-.445c-.042-.085-.09-.169-.135-.254a3,3,0,0,1-.348-.8C315.22,26.737,315.466,26.538,315.682,26.363Zm-1.727,3.246c.088-.025.194-.066.3-.1.42-.155.752-.282.965-.006a2.72,2.72,0,0,1,.391.885c.031.1.063.205.1.3l.058.163a8.362,8.362,0,0,1,.877.728l.053.052-.5.523a7.222,7.222,0,0,0-1.336-1.03,3.291,3.291,0,0,1-.361-.218l-.763-.456h.253c-.081-.092-.15-.182-.218-.268l-.329-.42Z" transform="translate(-120.542 -1.674)"/><path d="M214.866,38.623a24.644,24.644,0,0,1,2.339-1.754l.5-.323a7.288,7.288,0,0,1,3.249-1.45c2.126-.147,4.78-.6,6.458-2.783,1.3-1.7,2.884-1.658,4.414-1.628.288.006.576.013.867.008l2.621-3.921-1.012-1.01c-.183.139-.363.28-.545.423a11.7,11.7,0,0,1-1.956,1.337c-.307.153-.628.279-.949.4a4.585,4.585,0,0,0-1.662.913l-.023.293-.263-.063a4.774,4.774,0,0,1-2.637.736c-.321-.02-.417-.313-.525-.839-.026-.122-.05-.243-.075-.337l-.1-.373.378-.074c.174-.034.348-.074.521-.114a7.613,7.613,0,0,1,1.4-.229,1.029,1.029,0,0,1,.586.243l.053.038a2.808,2.808,0,0,0-.629-2.238,2.461,2.461,0,0,0-2.208-.2,6.961,6.961,0,0,0-1.846.869c-.293.174-.587.348-.885.5l-.487.249-.041-.545c-.045-.642-.279-1.071-.656-1.207a.79.79,0,0,0-.272-.047,1.188,1.188,0,0,0-.832.384,30.583,30.583,0,0,0-2.439,3.025,23.8,23.8,0,0,1-3.3,3.852c-2.563,2.242-2.191,4.2-.731,6.412C214.416,38.989,214.64,38.806,214.866,38.623Zm3.835-7.48c.048-.085.1-.168.131-.241.356-.712.719-1.422,1.082-2.131l.619-1.212.351.352a3.5,3.5,0,0,1,.236.266,1.3,1.3,0,0,0,.36.344c1.812.764,2.549,1.076,2.669,1.71.116.619-.443,1.16-1.666,2.346-.288.28-.589.572-.929.572a.6.6,0,0,1-.221-.042c-.3-.114-.492-.434-.611-1.071a1.794,1.794,0,0,1-1.249.836,1.264,1.264,0,0,1-1-.634C218.256,31.935,218.472,31.55,218.7,31.143Z" transform="translate(-168.115 0.969)"/><path d="M294.444,17.842a.816.816,0,0,1,.878.02l.232.191-.121.313a4.582,4.582,0,0,1-.512.716l-.412.52-.218-.216c-.117.371-.213.764-.128.889.8,1.2,4.2,2.59,6.855,2.8a3.047,3.047,0,0,0,2.221-.384,4.726,4.726,0,0,0,.789-2.4c.039-.251.081-.5.128-.756a1.625,1.625,0,0,1-1.051-.16,2.345,2.345,0,0,1-.9-1.661c-.169-.727-.285-1.074-.63-1.116a5.009,5.009,0,0,0-3.061.561c-.638.4-1.084.653-1.5.481s-.566-.706-.7-1.333a4.651,4.651,0,0,0-1.367-2.073c-.5-.5-.949-.722-1.292-.637-.374.1-.692.606-.9,1.42a2.077,2.077,0,0,0-.014.606,2.553,2.553,0,0,1-.027.816,3.06,3.06,0,0,1-.452.936c-.069.111-.138.221-.2.334l-.3.542a11.564,11.564,0,0,0,1.848-.127C293.9,17.9,294.166,17.679,294.444,17.842Z" transform="translate(-123.57 -5.774)"/><path d="M283.147,16.147c.106.081.218.175.333.272.32.269.854.7,1.073.673a11.945,11.945,0,0,1,2.317-.215,27.393,27.393,0,0,1,5.072.628,28.618,28.618,0,0,0,5.075.637l-.27-.559c-.085-.174-.16-.354-.235-.534a4.285,4.285,0,0,0-.55-1.04,4.216,4.216,0,0,0-.892-.756c-.063-.044-.124-.086-.183-.13l-1.137,1.4-.614-1.536-.182.009a4.09,4.09,0,0,1-1.051-.038,3.906,3.906,0,0,1-1.171-.554c-.432-.263-.926-.559-1.171-.438-.149.074-.421.385-.559,1.646a1.055,1.055,0,0,1-.949.921,2.233,2.233,0,0,1-2.258-1.406,4.663,4.663,0,0,0-.872-1.159l-.18-.2c-.024.041-.049.081-.075.121-.291.476-.592.966-1.061,1.023-1.151.139-1.254.348-1.259.357S282.329,15.505,283.147,16.147Z" transform="translate(-128.899 -5.663)"/><path d="M331.3,54.317c-.189-.034-.47.189-.778.424l-.294.218c-1.45,1.043-.98,1.7-.269,2.7a4.542,4.542,0,0,1,.711,1.273l.088-.03v.37a11.547,11.547,0,0,1,2.889,8.275l0,0v.108c0,.1,0,.194,0,.3.277.391.567.774.858,1.157a18.463,18.463,0,0,1,1.948,2.952c1.148,2.361,2.315,3.9,4.582,4.258a2.34,2.34,0,0,0,1.661-.265,1.766,1.766,0,0,0,.207-1.469,24.368,24.368,0,0,0-1.049-2.214,17.412,17.412,0,0,1-1.409-3.273c-1.032-3.747-3.317-6.819-5.526-9.79-1.073-1.444-2.183-2.937-3.143-4.5C331.6,54.516,331.433,54.341,331.3,54.317Zm3.268,9.815c.088-.044.172-.091.257-.138a3.013,3.013,0,0,1,.8-.343c.3-.069.5.179.673.392a2,2,0,0,0,.133.155l.36.355-.452.225c-.085.042-.169.089-.254.136a2.987,2.987,0,0,1-.8.344.42.42,0,0,1-.1.011c-.246,0-.42-.213-.576-.4a1.986,1.986,0,0,0-.135-.157l-.355-.355Z" transform="translate(-102.34 17.274)"/><path d="M337.76,119.6c-.265-.608-.665-1.525-.871-1.578l-.022,0a3.711,3.711,0,0,0-1.049.687l-.329.252a4.29,4.29,0,0,0-1.564,5.246c.855,1.912-.2,3.269-1.137,4.469-.919,1.178-1.713,2.2-.835,3.65l.089.146-.06.186a1.482,1.482,0,0,1-.7.67l-.327.124a7.255,7.255,0,0,1-1.785.5,3.022,3.022,0,0,0-2.4,1.37,2.7,2.7,0,0,0-.124,2.313,3.267,3.267,0,0,0,.642-.186c.028-.144.052-.293.075-.442.106-.687.207-1.334.724-1.477.423-.118.888.186,1.562,1.005.528.64.888.452,1.651-.041.742-.484,1.76-1.138,2.98-.071l.038.033a6.679,6.679,0,0,0,.033-.7,3.464,3.464,0,0,1,.247-1.578c.529-.9.995-1.632,1.461-2.291,1.195-1.682,1.24-3.628,1.29-5.689a11.236,11.236,0,0,1,1.167-5.751l-.011-.009A2.371,2.371,0,0,1,337.76,119.6Z" transform="translate(-103.949 53.32)"/><path d="M281.979,161.906a1.385,1.385,0,0,0-.446-.036,3.03,3.03,0,0,1-.951,2.15,3.577,3.577,0,0,1-2.881.294,4.69,4.69,0,0,0-1.826-.074,7.338,7.338,0,0,1-2.7.056c-1.427-.15-2.775-.291-3.886.943l-.314.346-.258-.39c-.111-.171-.216-.351-.32-.531a3.792,3.792,0,0,0-.74-1.021,1.46,1.46,0,0,0-.7-.066h-.113c.006.091.011.182.016.272a4.726,4.726,0,0,1-.085,1.6c-.17.6-.734,1.525-1.4,1.629a2.24,2.24,0,0,1-2.066-1,38.88,38.88,0,0,1-1.278-4.261l-.236-.908c-.307-1.156-.918-1.074-1.842-.948a4.7,4.7,0,0,1-1.087.061c-.057.168-.119.343-.184.518-.143.39-.382,1.043-.273,1.209.374.56.72,1.171,1.054,1.763,1.44,2.545,2.809,4.947,6.581,4.038l3.747-.271c3.792-.266,7.715-.542,11.568-.866a3.656,3.656,0,0,0,2-.623A3.227,3.227,0,0,0,281.979,161.906Z" transform="translate(-142.457 77.018)"/><path d="M337.17,71.223a3.876,3.876,0,0,0-1.019,1.333c-.025.047-.05.092-.077.138a2.048,2.048,0,0,1,.864.1,3.248,3.248,0,0,1,.983.691c.114.1.229.207.348.3l.5.395-.592.227c-.121.047-.24.1-.359.152a4.021,4.021,0,0,1-.936.319,5,5,0,0,1-1.059.035l-.055,0v.075c2.181.946,2.416,1.624,1.719,4.4-.02.078-.042.161-.055.224,2.072,1.815,1.2,3.558.424,5.1a12.4,12.4,0,0,0-.6,1.312,2.569,2.569,0,0,0,1.159,3.258,8.662,8.662,0,0,0,1.406.7,3.621,3.621,0,0,0,.964-1.83,5.271,5.271,0,0,0-1.224-4.225,1.933,1.933,0,0,1-.34-1.865c.338-.93,1.466-1.7,3.1-2.111a3.6,3.6,0,0,0,.855-.268,2.892,2.892,0,0,0-.054-.506l-.028-.186a12.1,12.1,0,0,0-2.258-4.876A19.273,19.273,0,0,1,339,70.886,3.917,3.917,0,0,0,337.17,71.223Z" transform="translate(-98.674 26.646)"/><path d="M337.674,111.334c-.41-.3-.822-.6-1.228-.908l-.243.1c-.1.038-.23.089-.326.13a10.634,10.634,0,0,1-2.735,8.443l.042.025a2.079,2.079,0,0,0,.813.368,2,2,0,0,0,1.069-.443,2.315,2.315,0,0,1,1.765-.517,2.086,2.086,0,0,1,1.209,1.07,1.716,1.716,0,0,0,.867-.116c.731-.451,2.339-4.918,2-5.559A31.862,31.862,0,0,0,337.674,111.334Z" transform="translate(-100.158 49.024)"/><path d="M223.791,149.368h0c-.305-.132-.617-.246-.921-.36-1.06-.39-2.062-.758-2.41-1.669a3.114,3.114,0,0,1,.423-2.512,6.285,6.285,0,0,0-1.764-1.411,1.713,1.713,0,0,0-1.367.463c-.268.363-.042.778.349,1.426a2.522,2.522,0,0,1,.546,1.9,2.02,2.02,0,0,1-1.033,1.163,1.255,1.255,0,0,0,.047.327c.03.094.058.194.086.3.067.246.171.617.293.694,1.857,1.16,3.781,2.3,5.819,3.511l1.586.943,0-.023a9.509,9.509,0,0,1,.18-1.088A3.058,3.058,0,0,0,223.791,149.368Z" transform="translate(-165.529 67.675)"/><path d="M326.636,133.23c-.318-.261-.644-.526-.927-.784l-.072.08a1.773,1.773,0,0,0-.36.492c.421,3.454.144,4.707-2.5,6.334a1.6,1.6,0,0,0-.816,1.772,5.16,5.16,0,0,1-.011.727l1.52,1.225-1.546.614v.669l1.107-.427-.653.651a.954.954,0,0,0,.423-.044c3.472-1.768,4.337-5.208,5.175-8.537.094-.374.19-.75.285-1.118C328.307,134.6,327.22,133.708,326.636,133.23Z" transform="translate(-106.506 61.484)"/><path d="M291.316,159.966c-2.35,1.506-4.892,1.461-7.356,1.419a28.51,28.51,0,0,0-2.952.049,4.37,4.37,0,0,0-2.032,1.32,2.268,2.268,0,0,0,.058.775c1.47.431,2.964.794,4.686,1.212l1.339.327,1.22-.637c1.812-.946,3.863-2.015,5.839-3.124a1.837,1.837,0,0,0-.14-.882A1.55,1.55,0,0,0,291.316,159.966Z" transform="translate(-130.816 77.056)"/><path d="M239.672,156.206l-.544-.4c-1.451-1.074-2.952-2.186-4.458-3.23a1.453,1.453,0,0,0-.625,0,2.872,2.872,0,0,0,.29.654,3.828,3.828,0,0,0,.6.639c.1.1.211.2.312.3l.384.387-.506.2c-.178.072-.385.177-.59.283-.651.332-1.16.6-1.506.31a16,16,0,0,1-1.97-2.076c-.186-.222-.371-.441-.56-.659h-.219V152.6l-.067,0a6.028,6.028,0,0,0-.911.016c-.612.077-1.221.18-1.83.285l-.26.044c.049.085.1.171.144.257.254.464.517.943.824,1.062,2.394.922,4.876,1.751,7.276,2.549l2.128.712a1.675,1.675,0,0,1,.5-.979A2.107,2.107,0,0,1,239.672,156.206Z" transform="translate(-160.101 72.853)"/><path d="M258.783,159.988l-.041,0a18.025,18.025,0,0,0-2.969.459c-.108,1.162-.3,1.92-.866,2.108-.5.164-1.068-.175-1.959-1.181-.111-.127-.222-.263-.333-.4a3.2,3.2,0,0,0-.952-.916,11.085,11.085,0,0,0-1.538,4.5,1.2,1.2,0,0,0,.429-.139,2.091,2.091,0,0,1,1.245-.7.724.724,0,0,1,.273.052c.523.207.628.913.661,1.5a1.222,1.222,0,0,0,.459.971,1.671,1.671,0,0,0,.086-.36c.244-1.951,1.232-2.109,2.189-2.261a5.445,5.445,0,0,0,.867-.19,7.337,7.337,0,0,0,2.354-1.633c.258-.23.512-.459.77-.672-.144-.235-.266-.452-.374-.642S258.858,160.092,258.783,159.988Z" transform="translate(-147.133 77.069)"/><path d="M305.663,154.408l-.033.344c-.044.451-.509.622-.88.756a2.134,2.134,0,0,0-.418.186,4.716,4.716,0,0,0,.468.426,1.232,1.232,0,0,0,.955.168c2.568-.961,3.984-2.938,4.443-6.207a2.629,2.629,0,0,0-.957-.241C306.061,149.829,305.9,151.943,305.663,154.408Z" transform="translate(-116.46 71.326)"/><path d="M296.149,156.427c-.077.077-.164.174-.233.257-1.525,1.848-3.615,2.723-5.637,3.572-.476.2-.95.4-1.419.609a1.77,1.77,0,0,0-.133.866.852.852,0,0,0,.1.29c.65-.125,1.294-.232,1.926-.337a22.5,22.5,0,0,0,4.414-1.022c1.622-.62,1.678-2.432,1.442-3.841C296.588,156.726,296.306,156.532,296.149,156.427Z" transform="translate(-125.294 75.054)"/><path d="M247.732,159.209a41.048,41.048,0,0,0-5.291-1.577c-.554-.139-1.109-.279-1.66-.423a1.122,1.122,0,0,0-.817,0l0,.009h-.037l-.019,0c-.15.132-.194.49-.124,1.007a2.636,2.636,0,0,0,.168.761,3.186,3.186,0,0,0,.911-.23,2,2,0,0,1,.644-.1c1.711,0,4.178,1.738,5.573,3.067a2.64,2.64,0,0,0,1.622.473c.019-.03.2-.261.343-.449.108-.138.225-.291.362-.451-.138-.2-.273-.416-.407-.636A3.489,3.489,0,0,0,247.732,159.209Z" transform="translate(-153.001 75.453)"/><path d="M251.307,159.325c.037,0,.075-.008.113-.012-.013-.161-.019-.318-.025-.46a2.638,2.638,0,0,0-.07-.625c-.152-.1-.332-.225-.512-.354a8.021,8.021,0,0,0-2.792-1.5,14.017,14.017,0,0,0-3.388-.119c-.37.016-.737.033-1.1.041.233.935.831.869,1.743.763a2.624,2.624,0,0,1,1.946.272,21.385,21.385,0,0,0,3.4,1.976A1.493,1.493,0,0,0,251.307,159.325Z" transform="translate(-150.865 74.929)"/><path d="M303.248,152.3a22.111,22.111,0,0,0-1.561,2.1c.108.141.336.387.526.59.162.171.338.36.517.559l2.309-2.208-1.459-1.461C303.471,152.02,303.359,152.159,303.248,152.3Z" transform="translate(-117.956 72.482)"/><path d="M299.837,155.378c-.174,0-.5.34-.723.565l-.047.047c.365.495,1.428,1.757,1.918,2.278.445-.54.91-1.12,1.55-1.913l.4-.495c-.324-.059-.621-.117-.9-.172A11.994,11.994,0,0,0,299.837,155.378Z" transform="translate(-119.439 74.46)"/><path d="M314.172,144.586a14.2,14.2,0,0,1-1.063,1.275,7.288,7.288,0,0,1-1.029.819c-.074.052-.149.1-.222.157l.092.235H311.8c0,.213,0,.428-.014.639a1.743,1.743,0,0,0,.149,1.2,1.2,1.2,0,0,0,.789.3l2.587-2.58-1.073-2.136C314.218,144.528,314.2,144.558,314.172,144.586Z" transform="translate(-112.257 68.305)"/><path d="M318.112,144.724a1.652,1.652,0,0,0-.524-.188,33.3,33.3,0,0,0-3.018,2.35,5.34,5.34,0,0,0,.418.819,1.22,1.22,0,0,0,.147.055c.946-.636,1.873-1.295,2.669-1.863l.4-.283c-.033-.257-.05-.464-.064-.623C318.131,144.89,318.123,144.79,318.112,144.724Z" transform="translate(-110.667 68.325)"/><path d="M290.787,14.766l1-1.532-2.652-.343.656,1.875Z" transform="translate(-125.057 -6.165)"/><path d="M218.348,143.147a.791.791,0,0,0,.846.193,1.06,1.06,0,0,0,.681-.858,1.712,1.712,0,0,1-1.071-.523,2.265,2.265,0,0,1-.329-1.735c.011-.142.022-.282.027-.416a1.716,1.716,0,0,0-.982,1A2.979,2.979,0,0,0,218.348,143.147Z" transform="translate(-165.611 65.649)"/><path d="M322.257,141.832l-.055.221-.223.045c-.654.139-1.312.274-1.968.406-2.034.415-4.139.842-6.155,1.417a6.1,6.1,0,0,0-.165,1.227c-.011.152-.025.3-.038.446.534-.142,1.11-.332,1.669-.52,1.807-.6,3.515-1.167,4.527-.465.886.617,1.533.861,1.92.741s.6-.7.824-1.3a7.058,7.058,0,0,1,.441-1.037l.059-.08,2.177-2.17c-.249-.022-.5-.064-.745-.1C323.383,140.459,322.623,140.332,322.257,141.832Z" transform="translate(-111.185 66.064)"/><path d="M197.333,120.364a1.7,1.7,0,0,0,2.261,2.255,2.224,2.224,0,0,0-.334-1.918A2.251,2.251,0,0,0,197.333,120.364Z" transform="translate(-177.035 54.618)"/><path d="M333.024,69.47a5.839,5.839,0,0,0,.564,1.309l.132.251.96-.4-1.367-1.608A1.71,1.71,0,0,0,333.024,69.47Z" transform="translate(-100.225 25.596)"/><path d="M223.489,151.742a1.764,1.764,0,0,0,1.21.152c.211-.016.426-.031.642-.03v-1.9l-2.145,1.07A1.132,1.132,0,0,0,223.489,151.742Z" transform="translate(-162.37 71.397)"/><path d="M275.351,160.226a3.2,3.2,0,0,0,1.1.474,2.549,2.549,0,0,0,1.088-.2l-.9-.7Z" transform="translate(-132.858 76.959)"/><path d="M307.424,28.618l-1.845,1.841a1.864,1.864,0,0,0,1.461-.385A1.847,1.847,0,0,0,307.424,28.618Z" transform="translate(-115.754 2.734)"/><path d="M307.81,147.409a2.628,2.628,0,0,0-.49.21l-.062.028.138.254a3.087,3.087,0,0,0,.809,1.113,3.732,3.732,0,0,0,.766-.306l.185-.083c-.067-.066-.132-.135-.2-.2A6.706,6.706,0,0,0,307.81,147.409Z" transform="translate(-114.805 69.951)"/><path d="M309.328,146.467a1.847,1.847,0,0,0-.384,1.455l1.844-1.84c-.078,0-.155-.006-.229-.006A1.689,1.689,0,0,0,309.328,146.467Z" transform="translate(-113.854 69.197)"/><path d="M191.1,106.134l.083.045a1.488,1.488,0,0,0,.534.221,1.856,1.856,0,0,0,.664-.443l-1.023-.423Z" transform="translate(-180.532 46.256)"/><path d="M231.791,152.388v-.681c-.224-.006-.431-.012-.642-.028a1.731,1.731,0,0,0-1.209.15.978.978,0,0,0-.269.559h2.12Z" transform="translate(-158.706 72.35)"/><path d="M336.719,89.5a1.138,1.138,0,0,0,.249.385l.482-.93-.359-.54A3.6,3.6,0,0,0,336.719,89.5Z" transform="translate(-98.134 36.569)"/><path d="M236.213,155.336c-.038,0-.076.006-.111.008v.734h.667l-.019.016a3,3,0,0,0,.343-.027,2.882,2.882,0,0,0,.614-.205,2.421,2.421,0,0,0-.694-.492A1.994,1.994,0,0,0,236.213,155.336Z" transform="translate(-155.067 74.424)"/><path d="M234.918,156.83l.7-.565H234.49Z" transform="translate(-155.979 74.961)"/><path d="M238.588,158.269a8.692,8.692,0,0,0-1.264,0c0,.083,0,.172,0,.25.376.058.771.086,1.213.117l.075.006-.006-.108C238.6,158.438,238.593,158.346,238.588,158.269Z" transform="translate(-154.377 76.083)"/><path d="M248.123,160.958a1.435,1.435,0,0,0,.221.529l.045.084.6-.258-.427-1.019A1.854,1.854,0,0,0,248.123,160.958Z" transform="translate(-148.266 77.242)"/><path d="M335.378,72.524h-.208l.208.208Z" transform="translate(-99.01 27.578)"/><path d="M312.809,148.17c.1.078.2.155.3.223l.011-.013-.233-.285Z" transform="translate(-111.663 70.339)"/><path d="M252.946,159.292l.205.262a2.461,2.461,0,0,0-.114-.295Z" transform="translate(-145.536 76.656)"/><path d="M277.89,13.631h-.153l.051.126Z" transform="translate(-131.508 -5.746)"/><path d="M280.752,11.248l-.1.126h.151Z" transform="translate(-129.86 -7.095)"/><path d="M239.228,20.559a4.957,4.957,0,0,0-2.891,1.771c-1.062,1.037-2.156,2.114-3.927,1.909v.655h.174l0,.006h.023c1.876.023,3.511.052,4.779-1.721a3.386,3.386,0,0,1,2.2-.925c.25-.045.506-.092.744-.149a6.215,6.215,0,0,0-.276-1.646c-.03,0-.216.023-.365.044C239.555,20.522,239.4,20.542,239.228,20.559Z" transform="translate(-157.156 -1.883)"/><path d="M245.849,19.49c.672-1.138,1.932-1.129,3.033-1.124,1.522,0,2.49-.069,2.8-1.693.186-.965,3.586-.885,3.62-.878a14.734,14.734,0,0,1,4.663.9c.194.069.921-.316,1.315-.525.882-.463,1.71-.9,2.233-.445.435.379.407,1.188-.111,2.746l.023,0a2.159,2.159,0,0,0,.6,0c.1-.153.238-.359.373-.559.49-.734,1-1.492,1.827-1.608a2.7,2.7,0,0,1,2.031.852c.609.52.607.518,2.5-1.143l.357-.315c.434-.39.885-.8,1.311-.656,2.986.952,5.886.548,8.96.119l1.071-.147c1.262-.169,2.2-.252,2.881-.315,1.722-.153,1.865-.166,2.363-.955a7.075,7.075,0,0,1,3.844-3.15,9.452,9.452,0,0,0,.169-1.08c.033-.254.067-.526.113-.8-.805.013-1.558.016-2.274.017a44.991,44.991,0,0,0-4.682.169c-2.094.225-4.217.521-6.27.806-2.266.316-4.608.642-6.922.877-.042,0-4.231.334-4.571-.816-.185-.628-.43-1.007-.731-1.129a1.481,1.481,0,0,0-1.206.282,14.3,14.3,0,0,1-6.553,1.442,21.928,21.928,0,0,0-3.946.46l-.161.039-.136-.1c-1.486-1.068-2.391-.332-3.745.957-1.057,1.005-2.239,2.133-3.861,1.473.02.144.041.287.062.431a15.818,15.818,0,0,1,.244,2.886c-.021.456-.409.792-.786,1.116a3.342,3.342,0,0,0-.542.54c-.235.346-.7.323-1.116.3a3.752,3.752,0,0,0-.376-.006,2.606,2.606,0,0,0,.319.542A2.894,2.894,0,0,0,245.849,19.49ZM268.61,12.9c.009-.1.017-.189.022-.285a3.018,3.018,0,0,1,.147-.861v0c.11-.285.421-.319.7-.351.072-.008.144-.014.2-.027l.473-.1-.135,1.813-1.466.313Z" transform="translate(-150.455 -8.595)"/><path d="M186.839,80.583c1.622-.207,2.089.907,2.436,1.718.358.836.543,1.2,1.348.955,1.015-.305,1.572-.294,1.855.034.352.407.074,1-.221,1.632-.064.136-.129.272-.185.407a3.249,3.249,0,0,0,.431.514,2.706,2.706,0,0,0,1.185-1.99,3.021,3.021,0,0,0-1.234-2.479,7.367,7.367,0,0,1-1.212-1.428l-.192-.269a1.479,1.479,0,0,1-.21-.947l.042-.166.168-.094c1.538-.717,1.447-2,1.341-3.5-.107-1.514-.23-3.232,1.546-4.344a4.285,4.285,0,0,0,1.622-5.227l-.132-.393c-.181-.548-.37-1.116-.507-1.165-.2-.078-1.045.468-1.605.827a2.346,2.346,0,0,1-1.08.285l-.014,0a11.262,11.262,0,0,1-2.233,5.427c-1.109,1.738-2.155,3.379-2.1,5.441.02.806,0,1.669-.063,2.715a3.487,3.487,0,0,1-.675,1.452,6.6,6.6,0,0,0-.36.6l.049,0Z" transform="translate(-182.97 22.662)"/></g></g></svg>