<svg xmlns="http://www.w3.org/2000/svg" width="1078.657" height="1164.377" viewBox="0 0 1078.657 1164.377"><defs><style>.a,.b,.c,.d{fill:#161616;stroke:#fff;}.a{stroke-width:10px;}.b{stroke-width:15px;}.c{stroke-width:6px;}.d{stroke-width:3px;}</style></defs><g transform="matrix(-0.259, 0.966, -0.966, -0.259, 1171.722, 237.258)"><path class="a" d="M381.964,457.1c-1.376,6.9-3.476,10.527-6.566,11.364-4.493,1.243-8.9-3.868-13.191-8.792a107.883,107.883,0,0,1-7.59-10.267c-3.788-5.569-7.363-10.839-12.208-14.56-3.861-2.964-6.353-7.038-8.766-10.965-3.462-5.662-6.738-11.005-13.743-12.627l-2.06-.472,1.089-1.808c.286-.485.538-1.036.791-1.581.684-1.469,1.455-3.13,2.951-3.9a9.977,9.977,0,0,1,3.323-.784,8.468,8.468,0,0,0,2.021-.385,14,14,0,0,0-1.475-2.405q-16.807-22.569-33.82-44.985L281.3,339.789c-.758.844-1.548,1.781-2.346,2.719-3.921,4.638-6.274,7.21-8.566,6.406-3.968-1.4-6.506-3.722-7.556-6.918-1.475-4.473.126-10.261,4.751-17.212-1.309-12.441-15.783-52.035-23.625-61.99-.505-.631-1.017-1.256-1.522-1.867-3.33-4.061-6.779-8.254-5.682-15.019.007-.472-1.2-1.834-1.847-2.565l-.014-.013a9.949,9.949,0,0,0-.937,2.612c-.644,4.133-1.136,8.287-1.628,12.447l-1.11,9.085-2.292-3.5c-1.037-1.575-2.187-3.117-3.336-4.659-2.6-3.482-5.277-7.077-6.7-11.171-2.073-5.928-3.037-12.188-3.967-18.242-1.382-9.005-2.811-18.315-7.948-26.5-2.519-4.014,2.984-12.972,4.114-14.727,2.445-3.8,4.765-5.456,6.971-4.892,2.179.565,3.39,3.117,3.7,7.809a6.125,6.125,0,0,0,1.382,2.505,8.758,8.758,0,0,0,1.4-1.781c-.837-3.03-1.94-6.347-3-9.55-.991-2.957-2.007-6.015-2.838-9.091-.6-2.227.917-4.612,2.386-6.912,1.01-1.589,2.393-3.762,1.954-4.585-.179-.326-1.21-1.416-6.958-1.5l-2.519-.033,1.19-2.219c.259-.5.491-1.037.717-1.575a9.766,9.766,0,0,1,2.519-3.967,16.08,16.08,0,0,1,3.376-2.04,13.976,13.976,0,0,1-4.366-1.96c-1.369-1.01-1.436-2.938-1.5-4.812a14.881,14.881,0,0,0-.133-1.947c-.306-1.847-.658-3.7-1.017-5.542a93.941,93.941,0,0,1-1.794-12.155,77.124,77.124,0,0,1,.207-9.371c.325-5.217.638-10.154-.8-14.5-1.5-4.532-5.051-8.44-8.812-12.567-1.237-1.356-2.506-2.745-3.7-4.16-1.223,1.389-2.486,2.771-3.741,4.141-3.9,4.24-7.922,8.633-10.653,13.537-1.463,2.618-.386,7.343.571,11.5l.445,1.967a28.143,28.143,0,0,0,2.114,5.6,23.14,23.14,0,0,1,2.545,7.875c.12,1.754.113,3.555.106,5.343-.033,7.915-.06,14.168,10.693,15.258l1.508.16-.139,1.509c-.226,2.486,1.336,5.084,2.984,7.835,3.2,5.33,7.191,11.969-3,19.08-2.34,1.642-3.861,7.018-4.167,14.746-.153,3.841-.7,7.769-1.236,11.564-1.781,12.693-3.463,24.689,8.24,35,1.981,1.741,2.207,4.818,2.425,7.8.166,2.293.346,4.658,1.283,6.094,1.07,1.628,3.376,3.051,5.6,4.433,3.024,1.867,5.882,3.628,5.982,6.26.365,9.955,4.679,13.71,13.616,17.923,5.915,2.785,9.769,5.25,10.72,8.905,1.01,3.881-1.342,8.087-6.659,15.5l-.351.492c-1.31,1.814-4.786,6.639-4.214,7.928,1.654,3.722,3.176,7.536,4.692,11.358,5.782,14.554,11.756,29.6,26.077,38.791a12.608,12.608,0,0,0,1.768-.871,11.725,11.725,0,0,1,3.815-1.568c10.533-1.455,20.874,4.612,24.39,11.038,2.126,3.881,1.874,7.709-.725,10.773-8.148,9.63-4.346,16.92-.319,24.649,2.313,4.439,4.706,9.031,4.745,14.082a17.977,17.977,0,0,0,5.715,2.505c4.253-4.173,8.021-4.419,10.433-3.861,4.506,1.024,7.424,5.283,8.56,8.626,3.27,9.676,11.251,14.979,19.7,20.595,9.444,6.28,19.206,12.773,21.612,25.8a3.48,3.48,0,0,0,.531.24c10.587-7.2,20.675-4.233,28.536-.392.247-.392.511-.791.778-1.2.724-1.1,1.927-2.924,1.747-3.535-1.907-6.28-4.233-11.052-7.118-14.581C388.21,456.194,383.6,456.586,381.964,457.1ZM194.889,106.714c.365-.186.731-.385,1.1-.585a12.84,12.84,0,0,1,3.362-1.455c1.25-.266,2.127.758,2.871,1.668.192.24.386.472.564.658l1.516,1.5-1.907.964c-.359.18-.718.372-1.071.572a12.633,12.633,0,0,1-3.4,1.462,1.95,1.95,0,0,1-.425.053c-1.044,0-1.781-.91-2.446-1.714a8.646,8.646,0,0,0-.565-.664l-1.515-1.5Zm4.9,29.919-6.752-3.722,1.455-1.449c.18-.186.373-.419.565-.658.751-.917,1.615-1.914,2.871-1.668a12.861,12.861,0,0,1,3.363,1.455c.372.2.731.4,1.1.585l1.921.957ZM304.641,392.968a8.741,8.741,0,0,0-.658.578l-1.441,1.442-3.736-6.738,4.513-4.493.95,1.9c.179.366.385.724.585,1.09a12.682,12.682,0,0,1,1.455,3.363C306.6,391.373,305.559,392.223,304.641,392.968Z" transform="translate(-184.351 416.128)"/><path class="b" d="M312.053,33.357A14.593,14.593,0,0,0,311.21,32a11.085,11.085,0,0,0-1.191,2.392c-.384.977.58,4.174,1.243,5.649,5.5-.286,8.473,4.22,11.019,8.187C325.8,53.713,328.3,56.923,334.8,54.3c3.828-1.555,11.431,10.713,11.5,10.846,3.948,6.832,6.426,12.939,7.59,18.674.167.817,3.25,2.538,4.906,3.462,3.682,2.06,7.162,4,6.752,6.911-.341,2.432-3.284,4.207-10.029,5.968l.047.093a9.613,9.613,0,0,0,1.376,2.133c.777,0,1.82.013,2.858.026,3.741.047,7.616.093,9.941,2.778,1.688,1.947,2.233,4.958,1.676,9.2-.44,3.356-.44,3.356,9.834,6.234l1.947.532c2.394.645,4.872,1.309,5.377,3.157,3.516,12.826,11.689,22.223,20.335,32.178l2.977,3.443c3.523,4.1,5.981,7.23,7.782,9.517,4.54,5.775,4.832,6.24,8.873,6.2.206-.007.4-.007.6-.007,7.79,0,13.831,1.987,19.506,6.393a44.682,44.682,0,0,0,4.233-1.9c.976-.472,2.026-.977,3.118-1.455-1.915-2.831-3.668-5.5-5.332-8.048a191.417,191.417,0,0,0-11.43-16.262c-5.642-6.9-11.589-13.763-17.345-20.389-6.381-7.343-12.973-14.946-19.179-22.655-.113-.14-10.978-14.275-7.675-18.143,1.8-2.113,2.586-3.868,2.319-5.217-.246-1.269-1.448-2.425-3.787-3.635-9.1-4.712-14.793-12.474-20.289-19.977-3.3-4.5-6.713-9.151-10.773-12.972l-.519-.485.027-.7c.366-7.762-4.353-9.284-12.068-11.125-6.021-1.429-12.759-3.037-14.181-10.321-.452.4-.918.8-1.37,1.209a66.924,66.924,0,0,1-9.723,7.556c-1.66.984-3.76.379-5.781-.206a13.517,13.517,0,0,0-3.177-.678C313.94,36.587,312.938,34.872,312.053,33.357Zm75.349,72.4c.373-.186.738-.392,1.1-.592a12.843,12.843,0,0,1,3.37-1.442c1.283-.306,2.114.744,2.857,1.655.193.239.387.478.566.658l1.462,1.449-6.766,3.728-4.512-4.506Z" transform="translate(524.635 105.201)"/><path class="c" d="M207.867,185.336c2.353,1.708,3.762,3,4,4.532.219,1.409-.552,2.459-1.443,3.675-.319.432-.677.924-1.057,1.509-1.129,1.754-1.376,4.233-1.648,6.858-.047.425-.087.857-.132,1.283.71-.18,1.448-.346,2.166-.512,2.359-.538,5.928-1.356,6.333-2.4,3.988-10.181,5.975-18.767,6.075-26.23.119-8.666,3.137-12.527,11.5-14.607.386-1.063.485-4.526.047-7.616h-3.083l1.748-1.389a13.74,13.74,0,0,1-2.759-2.824l-1.388-1.788,2.166-.631c.372-.106.824-.279,1.276-.445,1.781-.665,3.2-1.19,4.088-.027a8.119,8.119,0,0,1,1.036,1.874,64.98,64.98,0,0,0,7.237-8.566l.187.133.378-.9,2.147-3c4.711-6.646,9.563-13.5,17.245-17.757-2.093-1.668-3.17-3.416-3.27-5.31-.186-3.462,2.944-6.287,6.028-8.593,2.651-1.98,5.33-3.941,8-5.895l3.176-2.333a29.225,29.225,0,0,0,.259-4.732c.014-5.356.021-10.892,9.484-16.3,11.816-6.739,22.687-20.887,20.966-37.614L282.318,37.5c.412,1.608.857,3.216,1.3,4.818a89.226,89.226,0,0,1,3.2,14.933c.432,4.5-.1,6.825-1.774,7.782-2.088,1.21-4.54-.585-6.912-2.313a16.374,16.374,0,0,0-2.938-1.854c0,.113-.033.332-.06.658-.452,6.838-5.2,10.307-9.4,13.364-3.643,2.658-7.084,5.164-7.875,9.6-.446,2.492-4.812,3.888-7.371,4.5C244.1,90.51,240.444,91.374,239.66,92.7c-.652,1.1.04,3.6,1.2,7.729l.253.924c.046.16,3.834,16.474.119,17.564-6.592,1.954-9.948,5.556-11.231,12.028l-.585,2.964-2.046-2.213c-.426-.459-.91-.891-1.4-1.322a9.953,9.953,0,0,1-3.156-4.007,46.684,46.684,0,0,1-1.6-7.556A39.112,39.112,0,0,0,217.2,125.7c-3.934,9.629-8.393,20.548-15.976,30.39-4.366,5.675-6.127,10.228-5.529,14.328C196.377,175.122,200.132,179.721,207.867,185.336Zm6.7-31.454,1.442,1.436a8.4,8.4,0,0,0,.665.565c.917.751,1.953,1.595,1.674,2.864a12.619,12.619,0,0,1-1.468,3.389c-.193.359-.4.718-.578,1.077l-.951,1.894-4.5-4.486Z" transform="translate(-143.054 130.192)"/><path class="d" d="M203.943,54.38c-.027-.179-.034-.366-.067-.545a13.944,13.944,0,0,1-1.269-.844l-1.748,1.389Z" transform="translate(-91.148 242.045)"/><path class="d" d="M339.7,104.039l.074.312,1.953-.744c-.013-.91-.033-1.868-.039-2.865C340.98,101.886,340.322,102.983,339.7,104.039Z" transform="translate(692.712 511.635)"/><path class="d" d="M377.969,117.178c5.555-.491,6.207-3.728,7.03-7.822.532-2.638,1.125-5.569,3.33-7.5L376.075,85.8l-3.522,13.484a51.913,51.913,0,0,0-.977,5.436c-.22,1.509-.439,3.03-.745,4.466l1.092-1.084c.178-.179.378-.418.57-.658.745-.91,1.561-1.927,2.851-1.661h.014a12.96,12.96,0,0,1,3.368,1.449c.359.206.725.405,1.091.591l1.915.943-4.506,4.506-6.5-3.582c-.638,2.772-1.615,5.164-3.542,6.42-3.755,2.439-8.679,2.8-13.444,3.137a61.851,61.851,0,0,0-6.9.758c-.419.086-1.137.937-1.681,1.575,2.79,1.941,4.411,4.014,4.95,6.313.891,3.788-1.35,7.25-3.515,10.593-1.994,3.084-3.888,6-3.251,8.846,1.336,6.021,3.582,16.1-5.249,23.811-1.2,1.05-.831,2.12,1.056,5.25,2.14,3.549,5.383,8.919-1.814,14.009a3.979,3.979,0,0,0-1.894,2.359c-.246,1.456,1.117,3.35,2.559,5.356,2.712,3.788,6.42,8.979,1.242,15.086-2.464,2.9-3.329,5.649-2.559,8.161,1.046,3.409,5.083,6.327,11.073,8l.843.239.512,1.07c.339,1.229-.6,2.2-1.887,3.549-.752.784-2.746,2.864-2.492,3.582.019.047.426,1.037,4.738,1.515,6.387.645,11.138-1.628,13.358-6.573.146-.771-1.946-3.522-3.064-5a39.794,39.794,0,0,1-2.9-4.2l-.815-1.4c-1.3-2.18-2.631-4.439-2.811-6.918-.5-6.931-.28-13.776,7.416-27.294a33.986,33.986,0,0,1-1.223-8.207c.032-1.841,1.408-3.316,2.744-4.738.48-.518.964-1.037,1.356-1.555l1.908-2.565.811,3.13c1.282-23.818.671-26.855-.015-27.726l-1.409-1.781,2.18-.644c.372-.107.824-.279,1.276-.445,1.782-.678,3.2-1.19,4.1-.013a11.647,11.647,0,0,1,1.668,3.775c.113.379.227.758.353,1.123a32.231,32.231,0,0,1,9.583-11.876,4.37,4.37,0,0,0-.206-1.442c-.593-1.635-1.243-3.249-1.909-4.864a13.117,13.117,0,0,1-1.7,3.974c-.95,1.416-3,1.216-5.163,1.01a14.971,14.971,0,0,0-1.994-.133l-2.132.02.652-2.026c.431-1.336.178-3.27-.081-5.144-.4-2.917-.81-5.935.97-8.168C373.569,118.208,375.377,117.4,377.969,117.178Zm-26.847,77.169-.958-1.907c-.18-.366-.378-.724-.578-1.076a12.8,12.8,0,0,1-1.469-3.383c-.272-1.276.77-2.133,1.688-2.871.232-.193.472-.385.657-.565l1.436-1.429,3.734,6.732Zm5.4-56.614-4.512-4.5,1.913-.95c.365-.186.733-.385,1.1-.592a12.887,12.887,0,0,1,3.369-1.449c1.283-.253,2.127.751,2.865,1.661.2.24.392.479.571.658l1.461,1.456Z" transform="translate(668.503 427.255)"/><path class="d" d="M341.049,97.8c.186-.765.412-1.522.671-2.273h-.066A15.646,15.646,0,0,0,341.049,97.8Z" transform="translate(700.312 482.198)"/><path class="d" d="M343.734,96.366c-.836,4.951-1.929,12.946-3.25,23.931l-.006.1c-.015,1.449-.015,2.911-.015,4.333l1.377,5.2-1.277.479c.305,10.061,1.337,14.142,1.994,15.757.586-1.5,1.237-3.024,1.894-4.579,2.692-6.293,5.469-12.806,4-17.525C345.542,114.808,342.585,105.364,343.734,96.366Z" transform="translate(697.01 486.924)"/><path class="d" d="M239.673,62.881c1.548-.439,3.15.419,4.552,1.17a14.121,14.121,0,0,0,1.5.731l1.562.618-1.376,2.8a30.427,30.427,0,0,1-1.568,3.01c-4.573,7.41-11.51,7.111-17.644,6.832l-.951-.04a12.628,12.628,0,0,0,4.187,2.884,12.107,12.107,0,0,0,3.476.346c2.971.033,7.337.08,8.094,5.7,1.024-.385,2.38-1.522,4.659-4.8,1.794-3.961,2.578-5.509,3.628-5.729l5.582-9.237L253.3,73.647c1.794-1.415,3.269-2.014,4.486-1.768a2.7,2.7,0,0,1,2.014,2.014c.525,1.934.717,5.589-1.01,7.177a83.2,83.2,0,0,1-8.454,6.553l-1.667,1.183a31.7,31.7,0,0,0-.831,4.14c10.572-1.841,21.159-4.2,26.6-14.826a9.285,9.285,0,0,1-4.067-.385A14.122,14.122,0,0,1,266.2,74.8c-.485-.445-.971-.884-1.469-1.283l-2.107-1.668,2.505-.964c.512-.2,1.018-.419,1.522-.645a17.316,17.316,0,0,1,3.974-1.362,22.106,22.106,0,0,1,4.486-.146l.239.013v-.332l.579.126c.371-.9.8-1.847,1.249-2.8.764-1.622,2.352-5,1.94-5.729C276.383,56,275.632,53.571,276.6,51.9c1.1-1.927,3.655-1.735,6.141-1.555,1.029.073,3.176.226,3.556-.14a20.959,20.959,0,0,1,3.888-6.353,18.275,18.275,0,0,0,3.389-5.456c.831-2.652,1.727-4.526,3.4-5.077,1.727-.565,3.289.565,5.256,2.014l.925.671c5.277,3.781,11,7.171,16.554,10.454,1.768,1.043,3.535,2.087,5.3,3.15.22-2.612-1.388-5.383-3.07-8.287-3.243-5.582-7.271-12.527,2.9-19.339.318-.6-.153-3.848-.433-5.782-.106-.691-.207-1.382-.292-2.047-.418.233-.844.465-1.27.7-2.438,1.349-4.97,2.738-7.589,3.888-2.425,1.063-4.965,1.967-7.417,2.844-4.711,1.681-9.151,3.27-12.945,5.868-4.161,2.858-7.65,6.592-11.337,10.547-1.948,2.087-3.9,4.18-5.955,6.134a8.357,8.357,0,0,1-5.109,1.728l-.718-.086-.611-.7c-1.1-1.7-2.134-2.652-2.991-2.751-1.2-.146-2.639,1.3-4.068,2.685-2.272,2.206-5.343,5.2-9.251,3.243-.6.545-1.614,1.695-2.466,2.658-2.891,3.283-6.492,7.37-9.961,8.094-1.462.306-2.924.525-4.36.738-5.27.778-9.822,1.449-12.9,6.247a10.794,10.794,0,0,0-.9,1.847c.592-.206,1.19-.412,1.794-.611C230.481,65.7,235.061,64.124,239.673,62.881ZM262.7,57.073l4.52,4.5-1.915.957c-.371.179-.731.379-1.1.585a12.864,12.864,0,0,1-3.369,1.449,2.294,2.294,0,0,1-.418.04c-1.044,0-1.781-.9-2.445-1.708-.193-.233-.385-.478-.566-.658l-1.455-1.442Z" transform="translate(-4.39 41.774)"/><path class="b" d="M303.1,28.156c-1.655.472-3.19,1.921-4.811,3.456-.392.365-.783.738-1.177,1.09l4.418,4.406c6.554-.738,11.271,2.28,16.316,5.955.618.465,3.3-.578,5.077-1.276,2.719-1.063,5.835-2.26,8.387-1.761,18.6,3.655,19.22,4.579,31.361,26.749l.612-.618.363,1.98,15.519,5.157V68.335l.878-.419c1.7-.811,3.654-.439,5.376-.113,1.5.286,2.932.545,3.688.007.726-.518,1.044-1.867,1.184-2.911-.193-1.316-5.722-21.406-6.712-24.137-2.147-1.9-4.253-3.868-6.36-5.842-4.918-4.592-9.994-9.344-15.576-13.019-3.284-2.16-6.859-.671-10.986,1.043-4.858,2.014-10.3,4.273-15.677.146-5.569,10.347-13.7,8.154-20.907,6.214C310.109,28.242,306.367,27.226,303.1,28.156Zm72.8,16.162c.233-.193.473-.385.651-.565L378,42.331l3.734,6.719-4.512,4.486-.956-1.887c-.179-.359-.381-.718-.572-1.077a12.741,12.741,0,0,1-1.476-3.383C373.947,45.906,374.992,45.062,375.907,44.318Zm-7.33,13.776c.373-.106.823-.279,1.276-.445,1.782-.658,3.19-1.2,4.094-.027a11.558,11.558,0,0,1,1.662,3.755c.132.438.266.871.411,1.289l.247.691a35.482,35.482,0,0,1,3.721,3.09l.226.219-2.12,2.22a30.642,30.642,0,0,0-5.67-4.373,14,14,0,0,1-1.534-.924l-3.236-1.934h1.075c-.345-.392-.638-.771-.924-1.136l-1.4-1.781Z" transform="translate(452.289 60.467)"/><path class="d" d="M303.137,31.661a3.465,3.465,0,0,1,3.728.086l.984.811-.512,1.329a19.473,19.473,0,0,1-2.173,3.037l-1.747,2.206-.925-.917c-.5,1.575-.9,3.243-.544,3.775,3.4,5.1,17.811,10.992,29.094,11.882,4.679.359,8.127-.226,9.424-1.628,2.081-2.253,2.7-6.1,3.35-10.168.166-1.063.344-2.14.544-3.21a6.9,6.9,0,0,1-4.459-.678c-2.518-1.435-3.2-4.419-3.814-7.051-.719-3.084-1.209-4.559-2.672-4.738-4.585-.585-9.82.379-12.992,2.379-2.705,1.715-4.6,2.771-6.372,2.04s-2.4-3-2.991-5.655c-.572-2.559-2.466-5.436-5.8-8.8-2.114-2.133-4.028-3.064-5.483-2.7-1.588.432-2.936,2.572-3.808,6.028a8.83,8.83,0,0,0-.06,2.572,10.863,10.863,0,0,1-.114,3.462,12.992,12.992,0,0,1-1.92,3.974c-.292.472-.586.937-.851,1.415l-1.256,2.3a49.081,49.081,0,0,0,7.844-.538C300.817,31.9,301.953,30.97,303.137,31.661Z" transform="translate(422.073 19.56)"/><path class="d" d="M285.736,23.833c.452.346.924.744,1.416,1.156,1.356,1.143,3.622,2.971,4.553,2.858a50.688,50.688,0,0,1,9.834-.91c7.337,0,14.508,1.342,21.525,2.665,6.992,1.309,14.149,2.652,21.54,2.7l-1.144-2.373c-.359-.738-.678-1.5-1-2.266a18.213,18.213,0,0,0-2.333-4.413,17.879,17.879,0,0,0-3.787-3.21c-.266-.186-.526-.365-.778-.552l-4.826,5.961-2.6-6.519-.771.04a17.354,17.354,0,0,1-4.459-.159,16.563,16.563,0,0,1-4.97-2.353c-1.835-1.117-3.929-2.373-4.972-1.861-.632.312-1.788,1.635-2.373,6.985a4.475,4.475,0,0,1-4.028,3.908c-3.163.5-7.522-1.376-9.583-5.968a19.8,19.8,0,0,0-3.7-4.918c-.26-.279-.512-.552-.765-.831-.1.173-.207.346-.32.512-1.235,2.02-2.51,4.1-4.5,4.34-4.886.591-5.323,1.475-5.343,1.515C282.348,20.144,282.268,21.108,285.736,23.833Z" transform="translate(368.909 20.663)"/><path class="b" d="M337.856,54.329c-.8-.146-1.993.8-3.3,1.8l-1.249.924c-6.155,4.426-4.159,7.224-1.143,11.45a19.281,19.281,0,0,1,3.017,5.4l.372-.126v1.568c8.34,9.045,12.334,20.575,12.261,35.122l.007-.007v.459c-.007.425.019.824.012,1.256,1.177,1.662,2.407,3.283,3.644,4.911a78.4,78.4,0,0,1,8.266,12.527c4.872,10.021,9.823,16.541,19.445,18.069,2.445.392,5.755.08,7.052-1.123,1.069-.99,1.561-4.486.877-6.234a103.394,103.394,0,0,0-4.454-9.4c-2.278-4.433-4.639-9.018-5.98-13.889C372.3,101.141,362.6,88.1,353.227,75.5c-4.552-6.127-9.263-12.467-13.338-19.08C339.118,55.173,338.4,54.428,337.856,54.329Zm13.869,41.655c.373-.186.731-.386,1.091-.585a12.79,12.79,0,0,1,3.389-1.456c1.289-.292,2.114.758,2.858,1.662a8.665,8.665,0,0,0,.564.658l1.529,1.509-1.919.957c-.359.18-.72.379-1.077.578a12.678,12.678,0,0,1-3.4,1.462,1.778,1.778,0,0,1-.411.047c-1.043,0-1.781-.9-2.446-1.708a8.542,8.542,0,0,0-.572-.665l-1.508-1.508Z" transform="translate(633.9 249.512)"/><path class="d" d="M374.478,124.73c-1.123-2.579-2.824-6.473-3.695-6.7l-.094-.013c-.69,0-2.606,1.482-4.452,2.918l-1.4,1.07c-9.125,6.978-9.277,16.356-6.64,22.263,3.628,8.114-.863,13.876-4.824,18.966-3.9,5-7.27,9.324-3.543,15.491l.38.618-.253.791a6.289,6.289,0,0,1-2.984,2.844l-1.39.525a30.778,30.778,0,0,1-7.576,2.133c-4.678.491-8.3,2.559-10.2,5.815a11.456,11.456,0,0,0-.526,9.815,13.856,13.856,0,0,0,2.725-.79c.12-.611.22-1.243.319-1.874.451-2.917.877-5.662,3.071-6.267,1.794-.5,3.767.791,6.631,4.267,2.24,2.718,3.769,1.92,7.005-.173,3.15-2.054,7.469-4.832,12.647-.3l.16.14a28.221,28.221,0,0,0,.139-2.964c.033-2.472.079-5.038,1.049-6.7,2.247-3.835,4.223-6.925,6.2-9.723,5.071-7.137,5.265-15.4,5.477-24.144.186-8.247.387-16.767,4.951-24.41l-.047-.039A10.066,10.066,0,0,1,374.478,124.73Z" transform="translate(617.845 609.163)"/><path class="d" d="M358.516,168.416a5.875,5.875,0,0,0-1.893-.153c-.5,4.406-1.822,7.376-4.034,9.124-3.35,2.672-7.869,1.954-12.229,1.25-2.9-.459-5.641-.9-7.749-.313-3.747,1.03-7.669.625-11.45.24-6.055-.638-11.776-1.236-16.492,4l-1.331,1.469-1.1-1.655c-.471-.724-.917-1.489-1.356-2.252a16.1,16.1,0,0,0-3.143-4.334c-.452-.372-1.914-.325-2.958-.278-.153,0-.313.006-.478.006.026.385.047.771.067,1.156a20.054,20.054,0,0,1-.36,6.812c-.724,2.526-3.117,6.473-5.947,6.912-2.825.459-7.77-1.615-8.766-4.246a165.014,165.014,0,0,1-5.423-18.083l-1-3.854c-1.3-4.905-3.895-4.559-7.816-4.021a19.963,19.963,0,0,1-4.611.26c-.241.711-.505,1.455-.783,2.2-.605,1.655-1.622,4.426-1.157,5.13,1.588,2.379,3.056,4.971,4.473,7.483,6.113,10.8,11.922,20.994,27.931,17.139l15.9-1.149c16.1-1.13,32.743-2.3,49.1-3.675,4.32-.365,8.141-1.854,8.507-2.645C365.586,180.824,366.384,173.188,358.516,168.416Z" transform="translate(233.634 845.61)"/><path class="d" d="M341.726,72.341c-1.761,1.17-3,3.356-4.326,5.656-.107.2-.214.392-.326.585a8.7,8.7,0,0,1,3.668.412,13.8,13.8,0,0,1,4.174,2.931c.485.439.97.877,1.476,1.276l2.106,1.675-2.512.964c-.512.2-1.017.418-1.523.644a17.071,17.071,0,0,1-3.974,1.356,21.227,21.227,0,0,1-4.492.146l-.232-.007V88.3c9.258,4.014,10.254,6.892,7.3,18.688-.087.332-.18.684-.234.95,8.793,7.7,5.079,15.1,1.8,21.631a52.541,52.541,0,0,0-2.537,5.569c-1.6,4.413-1.137,10.367,4.917,13.83,1.555.884,4.751,2.711,5.968,2.977a15.371,15.371,0,0,0,4.093-7.768c1.051-6.094-.5-11.45-5.2-17.93-2.38-3.277-2.094-6.107-1.442-7.915,1.436-3.947,6.22-7.211,13.139-8.958a15.263,15.263,0,0,0,3.628-1.137,12.163,12.163,0,0,0-.226-2.146l-.118-.791c-1.123-7.8-5.237-14.062-9.583-20.695a81.833,81.833,0,0,1-7.763-13.69C347.965,70.746,343.467,71.178,341.726,72.341Z" transform="translate(670.481 343.027)"/><path class="d" d="M352.375,114.28c-1.741-1.269-3.489-2.545-5.21-3.854-.332.133-.684.273-1.03.405-.412.159-.978.379-1.382.552.93,14.893-2.871,26.642-11.609,35.833l.178.106a8.825,8.825,0,0,0,3.45,1.562c1.368.14,2.884-.864,4.539-1.881,2.211-1.355,4.711-2.917,7.49-2.193,1.921.486,3.6,1.974,5.13,4.539a7.28,7.28,0,0,0,3.682-.492c3.1-1.914,9.929-20.874,8.48-23.592A135.051,135.051,0,0,0,352.375,114.28Z" transform="translate(655.671 566.301)"/><path class="d" d="M243.836,168.77h-.007c-1.3-.558-2.618-1.044-3.908-1.528-4.5-1.655-8.753-3.216-10.228-7.085-1.057-2.771-.491-6.16,1.794-10.66A26.678,26.678,0,0,0,224,143.51c-1.1-.5-4.8.6-5.8,1.967-1.136,1.542-.179,3.3,1.482,6.054,1.455,2.419,3.1,5.164,2.319,8.068-.512,1.886-1.946,3.508-4.386,4.937a5.337,5.337,0,0,0,.2,1.389c.126.4.245.824.365,1.262.286,1.044.724,2.619,1.243,2.945,7.882,4.924,16.049,9.769,24.7,14.9l6.731,4,.02-.1a40.278,40.278,0,0,1,.764-4.619C253.632,176.173,248.681,170.85,243.836,168.77Z" transform="translate(3.433 752.39)"/><path class="d" d="M341.928,135.775c-1.35-1.11-2.731-2.233-3.935-3.329l-.306.339a7.508,7.508,0,0,0-1.529,2.087c1.788,14.66.612,19.977-10.62,26.881-3.628,2.24-3.562,4.452-3.463,7.523a21.708,21.708,0,0,1-.045,3.084l6.453,5.2-6.561,2.6V183l4.7-1.813-2.772,2.764a4.047,4.047,0,0,0,1.795-.186c14.735-7.5,18.409-22.1,21.963-36.232.4-1.589.805-3.183,1.211-4.745C349.018,141.577,344.406,137.8,341.928,135.775Z" transform="translate(592.334 690.618)"/><path class="d" d="M331.4,159.966c-9.975,6.393-20.761,6.2-31.221,6.021a121.024,121.024,0,0,0-12.527.206c-2.878.247-6.2,3.343-8.625,5.6a9.6,9.6,0,0,0,.245,3.29c6.241,1.828,12.58,3.369,19.89,5.144l5.683,1.388,5.177-2.7c7.689-4.014,16.395-8.553,24.782-13.258a7.791,7.791,0,0,0-.592-3.742A6.586,6.586,0,0,0,331.4,159.966Z" transform="translate(349.783 845.985)"/><path class="d" d="M280.112,168.105l-2.307-1.707c-6.16-4.559-12.526-9.277-18.92-13.71a6.167,6.167,0,0,0-2.651-.013,12.151,12.151,0,0,0,1.229,2.778A16.242,16.242,0,0,0,260,158.164c.446.419.9.831,1.323,1.262l1.628,1.641-2.147.865c-.757.3-1.635.751-2.5,1.2-2.765,1.409-4.925,2.539-6.393,1.316a67.88,67.88,0,0,1-8.36-8.812c-.791-.944-1.575-1.874-2.379-2.8h-.931v-.033l-.286-.007a25.646,25.646,0,0,0-3.868.067c-2.6.325-5.183.764-7.768,1.209l-1.1.186c.206.359.4.724.611,1.09,1.077,1.967,2.193,4,3.5,4.506,10.161,3.915,20.694,7.43,30.882,10.819q4.515,1.515,9.031,3.024a7.1,7.1,0,0,1,2.14-4.154C275.254,167.913,277.792,167.946,280.112,168.105Z" transform="translate(57.597 804.046)"/><path class="d" d="M286.876,159.988l-.173.02c-3.011.306-10.693,1.1-12.6,1.948-.459,4.931-1.263,8.147-3.676,8.945-2.125.7-4.532-.744-8.314-5.011-.472-.539-.944-1.117-1.415-1.708-1.3-1.609-2.644-3.263-4.041-3.888-2.3,2.093-6.745,15.351-6.526,19.106a5.087,5.087,0,0,0,1.821-.591c1.4-1.343,3.362-2.985,5.283-2.985a3.08,3.08,0,0,1,1.157.22c2.219.877,2.664,3.875,2.8,6.387.127,2.392,1.456,3.954,1.948,4.12a7.09,7.09,0,0,0,.366-1.529c1.036-8.28,5.23-8.951,9.29-9.6a23.058,23.058,0,0,0,3.682-.8c3.609-1.2,6.851-4.113,9.989-6.93,1.1-.978,2.173-1.948,3.269-2.852-.611-1-1.129-1.92-1.588-2.724S287.194,160.427,286.876,159.988Z" transform="translate(186.983 846.11)"/><path class="d" d="M309.98,169.226l-.139,1.462c-.186,1.914-2.16,2.638-3.735,3.21a9.036,9.036,0,0,0-1.774.791,19.907,19.907,0,0,0,1.987,1.807,5.228,5.228,0,0,0,4.053.711c10.9-4.08,16.907-12.467,18.855-26.343a11.147,11.147,0,0,0-4.06-1.023C311.669,149.794,310.984,158.766,309.98,169.226Z" transform="translate(493.021 788.817)"/><path class="d" d="M320.257,156.427c-.326.326-.7.738-.99,1.09-6.472,7.841-15.344,11.557-23.925,15.158-2.02.844-4.033,1.682-6.02,2.586a7.506,7.506,0,0,0-.566,3.675,3.616,3.616,0,0,0,.432,1.23c2.759-.531,5.49-.985,8.175-1.429,6.651-1.09,12.938-2.12,18.734-4.339,6.884-2.632,7.123-10.321,6.121-16.3C322.118,157.7,320.921,156.873,320.257,156.427Z" transform="translate(404.874 826.005)"/><path class="d" d="M273.614,165.944c-7.19-2.878-14.952-4.819-22.455-6.693-2.353-.591-4.706-1.183-7.043-1.794-1.656-.438-2.832-.419-3.469-.02l.013.04H240.5l-.081.02c-.637.559-.823,2.08-.525,4.273A11.172,11.172,0,0,0,240.6,165c.505.2,3.037-.69,3.868-.977a8.5,8.5,0,0,1,2.732-.419c7.263,0,17.73,7.377,23.652,13.019,1.209,1.15,3.781,1.9,6.885,2.007.079-.126.843-1.11,1.456-1.908.458-.584.956-1.235,1.535-1.914-.585-.851-1.157-1.767-1.728-2.7C277.382,169.493,275.706,166.781,273.614,165.944Z" transform="translate(128.438 829.992)"/><path class="d" d="M308.313,153.643a93.815,93.815,0,0,0-6.625,8.931c.459.6,1.428,1.642,2.232,2.506.685.724,1.436,1.529,2.194,2.373l9.8-9.37-6.195-6.2C309.257,152.467,308.784,153.058,308.313,153.643Z" transform="translate(478.089 800.347)"/><path class="d" d="M302.337,155.378c-.739,0-2.14,1.443-3.071,2.4l-.2.2c1.549,2.1,6.061,7.456,8.141,9.67,1.888-2.293,3.862-4.752,6.58-8.121l1.682-2.1c-1.376-.253-2.638-.5-3.8-.731A50.9,50.9,0,0,0,302.337,155.378Z" transform="translate(463.292 820.084)"/><path class="d" d="M322,144.866a60.119,60.119,0,0,1-4.512,5.409,30.891,30.891,0,0,1-4.366,3.475c-.312.22-.632.439-.944.664l.392,1h-.632c.014.9.007,1.815-.06,2.712-.165,2.073-.305,4.027.631,5.11a5.1,5.1,0,0,0,3.35,1.282l10.979-10.952-4.551-9.065C322.193,144.62,322.1,144.746,322,144.866Z" transform="translate(534.951 758.67)"/><path class="d" d="M329.6,145.334a7.009,7.009,0,0,0-2.226-.8,141.387,141.387,0,0,0-12.807,9.975,22.758,22.758,0,0,0,1.775,3.476,5.113,5.113,0,0,0,.626.232c4.014-2.7,7.948-5.5,11.329-7.908l1.7-1.2c-.139-1.09-.212-1.967-.271-2.645C329.682,146.038,329.649,145.613,329.6,145.334Z" transform="translate(550.822 758.874)"/><path class="d" d="M296.134,20.848l4.259-6.5L289.14,12.891l2.783,7.957Z" transform="translate(407.246 15.658)"/><path class="d" d="M221.2,153.982a3.358,3.358,0,0,0,3.589.818,4.5,4.5,0,0,0,2.892-3.641,7.265,7.265,0,0,1-4.546-2.22c-1.794-2.047-1.581-4.864-1.4-7.364.047-.6.094-1.2.113-1.767-2.278,1.123-3.675,2.545-4.166,4.233C216.736,147.284,219.075,151.238,221.2,153.982Z" transform="translate(-31.238 756.341)"/><path class="d" d="M350.166,146.027l-.233.937-.944.193c-2.776.591-5.568,1.162-8.352,1.721-8.632,1.761-17.564,3.575-26.123,6.015a25.85,25.85,0,0,0-.7,5.209c-.047.645-.105,1.283-.16,1.894,2.267-.6,4.712-1.409,7.085-2.206,7.669-2.545,14.919-4.951,19.213-1.974,3.761,2.618,6.506,3.655,8.147,3.143,1.668-.525,2.553-2.964,3.5-5.535a29.963,29.963,0,0,1,1.873-4.4l.252-.339,9.239-9.211c-1.058-.092-2.114-.272-3.164-.445C354.943,140.2,351.72,139.661,350.166,146.027Z" transform="translate(545.65 736.309)"/><path class="d" d="M197.513,120.538c-.572,3.887-.1,6.625,1.422,8.141s4.273,2.007,8.175,1.429c.571-3.888.1-6.619-1.416-8.141S201.42,119.979,197.513,120.538Z" transform="translate(-111.367 622.108)"/><path class="d" d="M333.023,70.928a24.812,24.812,0,0,0,2.393,5.556l.559,1.063,4.074-1.7-5.8-6.825A7.28,7.28,0,0,0,333.023,70.928Z" transform="translate(655.006 332.544)"/><path class="d" d="M224.439,157.508c1.083.943,3.043.8,5.137.645.9-.067,1.807-.132,2.724-.126v-8.061l-9.1,4.539A4.8,4.8,0,0,0,224.439,157.508Z" transform="translate(34.958 789.523)"/><path class="d" d="M275.351,161.628A13.568,13.568,0,0,0,280,163.642a10.813,10.813,0,0,0,4.619-.864l-3.835-2.984Z" transform="translate(329.407 845.015)"/><path class="d" d="M313.409,28.618l-7.83,7.815c2.885.153,4.958-.385,6.2-1.635S313.575,31.482,313.409,28.618Z" transform="translate(500.061 104.444)"/><path class="d" d="M309.6,147.409a11.154,11.154,0,0,0-2.081.89l-.265.119c.192.358.391.718.584,1.077,1.051,1.947,2.033,3.781,3.435,4.726a15.839,15.839,0,0,0,3.251-1.3c.258-.113.525-.232.784-.352-.286-.28-.559-.572-.831-.844A28.507,28.507,0,0,0,309.6,147.409Z" transform="translate(509.535 775.093)"/><path class="d" d="M310.6,147.737c-1.25,1.243-1.795,3.323-1.629,6.174L316.8,146.1c-.331-.013-.658-.027-.97-.027C313.455,146.076,311.7,146.635,310.6,147.737Z" transform="translate(519.022 767.568)"/><path class="d" d="M191.1,108.08c.113.059.233.126.352.192a6.309,6.309,0,0,0,2.266.937,7.881,7.881,0,0,0,2.818-1.88l-4.34-1.795Z" transform="translate(-146.255 538.683)"/><path class="d" d="M238.67,154.783v-2.891c-.951-.026-1.827-.053-2.725-.119-2.093-.173-4.054-.306-5.131.637a4.155,4.155,0,0,0-1.143,2.373h9Z" transform="translate(71.514 799.033)"/><path class="d" d="M336.719,93.02a4.812,4.812,0,0,0,1.057,1.634l2.047-3.947L338.3,88.414A15.257,15.257,0,0,0,336.719,93.02Z" transform="translate(675.867 442.03)"/><path class="d" d="M236.575,155.406c-.16.02-.32.027-.473.034v3.117h2.831l-.08.066a12.776,12.776,0,0,0,1.456-.113,12.217,12.217,0,0,0,2.6-.87,10.271,10.271,0,0,0-2.944-2.087A8.461,8.461,0,0,0,236.575,155.406Z" transform="translate(107.821 819.723)"/><path class="d" d="M236.307,158.664l2.991-2.4H234.49Z" transform="translate(98.718 825.086)"/><path class="d" d="M242.7,158.341a36.943,36.943,0,0,0-5.363.007c-.007.353-.014.731-.014,1.063,1.6.246,3.27.365,5.15.5l.319.027-.027-.458C242.738,159.059,242.718,158.666,242.7,158.341Z" transform="translate(114.703 836.28)"/><path class="d" d="M248.131,163.112c-.1.372.571,1.595.937,2.247l.193.358,2.565-1.1-1.814-4.326A7.858,7.858,0,0,0,248.131,163.112Z" transform="translate(175.672 847.837)"/><path class="d" d="M336.052,72.524h-.882l.882.882Z" transform="translate(667.122 352.322)"/><path class="d" d="M312.81,148.414c.426.332.845.659,1.262.944l.047-.054-.99-1.209Z" transform="translate(540.878 778.966)"/><path class="d" d="M252.946,159.4l.87,1.11a10.44,10.44,0,0,0-.484-1.249Z" transform="translate(202.915 841.994)"/><path class="d" d="M278.385,13.631h-.648l.216.534Z" transform="translate(342.879 19.831)"/><path class="d" d="M281.083,11.248l-.433.534h.642Z" transform="translate(359.324 6.377)"/><path class="b" d="M251.025,54.833c2.851-4.831,8.2-4.792,12.873-4.772,6.458-.02,10.566-.292,11.9-7.184.791-4.094,15.219-3.755,15.365-3.728,7.881.419,14.355,1.668,19.79,3.821.825.292,3.909-1.342,5.583-2.226,3.741-1.967,7.256-3.815,9.477-1.887,1.847,1.608,1.728,5.044-.471,11.656l.1.013a9.166,9.166,0,0,0,2.538.007c.433-.651,1.011-1.522,1.583-2.372,2.079-3.117,4.233-6.333,7.755-6.825,2.532-.332,5.369.831,8.62,3.615,2.585,2.206,2.578,2.2,10.6-4.851l1.516-1.336c1.84-1.655,3.754-3.376,5.562-2.785,12.673,4.041,24.981,2.326,38.026.505l4.546-.625c5.356-.718,9.33-1.07,12.228-1.336,7.31-.651,7.916-.7,10.028-4.054,4.313-6.832,9.35-10.959,16.315-13.371a40.19,40.19,0,0,0,.718-4.585c.139-1.077.286-2.233.479-3.4-3.416.053-6.613.066-9.65.073a190.954,190.954,0,0,0-19.87.718c-8.885.957-17.9,2.213-26.61,3.422-9.616,1.342-19.558,2.725-29.379,3.722-.18.02-17.957,1.415-19.4-3.462-.783-2.665-1.827-4.273-3.1-4.791-1.183-.472-2.824-.1-5.117,1.2-8.912,5.057-18.515,5.6-27.812,6.121-5.569.312-11.324.631-16.747,1.954l-.685.166-.578-.412c-6.306-4.532-10.148-1.409-15.9,4.061-4.486,4.266-9.5,9.051-16.387,6.254.084.611.172,1.216.264,1.828a67.151,67.151,0,0,1,1.037,12.248c-.087,1.934-1.735,3.363-3.336,4.738a14.177,14.177,0,0,0-2.3,2.293c-1,1.469-2.984,1.369-4.738,1.283a15.924,15.924,0,0,0-1.595-.027,11.072,11.072,0,0,0,1.356,2.3C246.213,53.643,249.417,54.58,251.025,54.833Zm96.6-27.985c.04-.405.074-.8.094-1.21a12.828,12.828,0,0,1,.624-3.655l.006-.007c.466-1.209,1.788-1.356,2.958-1.489.306-.033.612-.06.864-.113l2.007-.432-.571,7.7-6.22,1.329Z" transform="translate(153.838 -8.596)"/><path class="d" d="M187,134.91c6.884-.877,8.865,3.848,10.341,7.29,1.521,3.549,2.306,5.091,5.722,4.054,4.306-1.3,6.672-1.25,7.875.146,1.5,1.728.313,4.247-.937,6.925-.273.578-.545,1.156-.784,1.728a13.779,13.779,0,0,0,1.827,2.18,11.486,11.486,0,0,0,5.031-8.447c.239-3.768-1.622-7.5-5.237-10.52a31.268,31.268,0,0,1-5.145-6.061l-.817-1.143a6.274,6.274,0,0,1-.89-4.021l.179-.7.711-.4c6.527-3.044,6.141-8.507,5.689-14.84-.453-6.427-.977-13.717,6.559-18.435,5.482-3.429,10.579-11.3,6.884-22.183l-.559-1.668c-.77-2.326-1.568-4.738-2.153-4.945-.837-.332-4.433,1.987-6.813,3.509a9.957,9.957,0,0,1-4.585,1.21l-.06.006c-.466,8.885-5.044,16.076-9.477,23.034-4.706,7.376-9.144,14.341-8.912,23.093.087,3.422,0,7.084-.266,11.523-.119,1.927-1.514,4.074-2.864,6.16a27.992,27.992,0,0,0-1.529,2.525l.206-.02Z" transform="translate(-170.577 303.273)"/></g></svg>