<svg xmlns="http://www.w3.org/2000/svg" width="199.298" height="195.906" viewBox="0 0 199.298 195.906"><defs><style>.a{fill:#fff;}</style></defs><g transform="translate(-6.012 -5.379)"><g transform="translate(6.012 5.379)"><path class="a" d="M120.916,140.933l.063-1.1-.761.252.409.848Z" transform="translate(22.87 26.565)"/><path class="a" d="M58.858,139.147a63.79,63.79,0,0,0-10.953-7.932c.359.35.723.708,1.084,1.073.861.872,1.733,1.8,2.43,2.554l.98,1.046,3.577,2.418.993,1,3.692,1.947-3.746.3-.294.29h0l-.208.209,2.656,1.88,2.384-2.625C60.576,140.585,59.708,139.859,58.858,139.147Z" transform="translate(4.325 23.554)"/><path class="a" d="M179.887,88.326c-.952-7.563-4.88-14.1-8.677-20.423-.806-1.34-1.531-2.549-2.244-3.778-4.349-7.519-9.76-14.6-14.992-21.453-2.095-2.741-4.442-5.811-6.63-8.807l-1.32.187.844-.575c-.508-.379-1.02-.753-1.533-1.128-1.579-1.149-3.21-2.337-4.7-3.665a14.521,14.521,0,0,0-6.112-3.7,52.1,52.1,0,0,1-11.679-4.15c-6.429-3.473-13.535-4.328-20.406-5.155l-.14-.016c-1.54-.185-3.134-.377-4.7-.6a5.808,5.808,0,0,0-3.809.84,14.31,14.31,0,0,1-3.717,1.846,5.216,5.216,0,0,1-6.857.876c-.859-.025-1.722-.076-2.562-.154a1.928,1.928,0,0,1-.6-.185c-.092-.041-.193-.083-.308-.125l-1.34-.493,2.106-.63c-.583-.093-1.242-.141-1.886-.188l-.259-.02-.32,1.781-.444-.058c-2.6-.344-3.82.307-5.011,2.683a17.639,17.639,0,0,1-6.344,6.553,52.737,52.737,0,0,1-7.67,3.729l-.064.027c-1.049.442-2.134.9-3.183,1.375l-5.443,5.526.822.055,1.578-1.575.01,1.838.68.95-.831.551-.914.942V41.3l3.354-2.513a3.719,3.719,0,0,1-.225-.38c-.2-.4.144-.623.423-.8l.126-.082.931-.955.027-1.3,2.855.011.039,1.061,1.719-.01,2.621-1.28L63.1,36.2,66.6,35.33v-.363l-5.291-.01L66.776,33.1l1.744-1.268.772,1.817-1.934.162.023.423,1.145.227A36.827,36.827,0,0,1,73.2,31.386c1.006-.571,2.061-1.12,3.222-1.68l.2-1.047.855.55c1.1-.507,2.206-.98,3.28-1.405.535-.2,1.068-.4,1.6-.592l-.027-.306,1.445-.167c1.63-.555,3.316-1.056,5.01-1.489h-.953l-.1-1.7,4.416-.271-.038,1.175h.252c1.722-.352,3.4-.621,5.094-.817a61.626,61.626,0,0,1,18.024.4c1.688.307,3.406.7,5.117,1.183l-.13-.129L130.7,28.4l-1.583.019c.524.25,1.041.507,1.542.765l.2-.383.524.28-.2.378c.67.353,1.339.722,1.99,1.1a58.28,58.28,0,0,1,6.582,4.711h0l-.011-1.217,4.458,1.991h-.924l1.512,1.517,1.854.908,1.491.011V39.57h.265l0-1.652,2.333,2.433-1.693.035-.86,2.556-.762-2.755-.933-.9-.957.02.009.009-.331.01,1.782,3.118.447.468c.627.729,1.409,1.626,2.284,2.628l.853.976,0-.024,3.423,3.571-.321.036c2.263,2.651,3.922,4.693,5.064,6.236.14.187.266.364.393.54l9.715,12.143,3.606,9.9-5.437-7.8c-.221-.271-.459-.566-.7-.875l-.585.18V69.5c-3.664-4.7-8.381-11.443-8.907-12.2-2.147-2.456-5.1-5.471-7.263-7.673l-.043-.042c-1.776-1.812-3.454-3.523-4.524-4.723l-3.071-3.275a15,15,0,0,0-1.088-1.084c-.166-.154-.328-.307-.491-.465-.189-.172-.383-.358-.577-.545-.339-.325-.679-.651-1.033-.936a53.08,53.08,0,0,0-7.15-5.19,11.389,11.389,0,0,1-5.438-2.679l-.054-.048-.1.015c-4.062.59-7.215-1.3-10.1-3.3l-.242-.053c-.156-.035-.314-.071-.474-.1a58.29,58.29,0,0,0-9.013-.984L107,26.5l3.009.352-.712,1.68-2.4-1.238h-2.965l.2-1.117h-.066c-.719,0-1.4.011-2.079.032l-.353.053-1.058,0c-.942.048-1.778.105-2.545.172A74.213,74.213,0,0,0,81.649,29.8,48.624,48.624,0,0,0,67.13,36.91l-.14.107-.461-.554q-.983.74-1.969,1.476l-.061.046c-1.987,1.487-4.042,3.026-6.031,4.574-2.675,2.081-5.349,4.424-6.127,8.145l.157.147,0,0,.453.437.78-.9c.74-.848,1.5-1.725,2.241-2.6,3.09-3.679,6.67-7.218,11.9-8.186l.923-.171-1.3,2.647L68.707,43.1l-2.138.659.01-1c-1.9.739-3.528,1.542-4.357,3.317l2.562-.022-7.009,7.067-2.141,3.224c.319,2.061-1.1,2.984-2.241,3.5l-.49,1.875.521-.693q1.986-2.639,3.974-5.278c.436-.579.866-1.166,1.293-1.753,2.655-3.639,5.4-7.4,10.112-9.031,3.336-5.124,8.745-7.283,13.6-8.719a56.058,56.058,0,0,1,7.982-1.535c1.858-.265,3.778-.539,5.63-.942,4.042-.879,8.054-.434,11.934,0,1,.112,2.032.227,3.047.317a16.684,16.684,0,0,1,1.731.244L110.91,32.4l.933-.112c.026,0,.055-.009.085-.015a1.1,1.1,0,0,1,.575,0c.247.081.33.26.477.587.077.17.191.42.375.792l.459.928.06.014c.237.057,23.458,5.887,35.51,27.151l.232.414,1.533,2.475c2.606,4.2,5.3,8.542,7.664,13.026,2.762,5.245,2.8,11.063,2.841,16.689v.206c.006.957.013,1.915.034,2.866.018.8-.031,1.6-.079,2.376-.048.8-.1,1.636-.069,2.447.033,1.035.135,2.1.233,3.124a30.067,30.067,0,0,1,.189,5.511,86.068,86.068,0,0,1-6.751,27.217c-2.654,6.006-7.173,11.327-14.218,16.743l-.609,1.022c-.006.006-.265.24-.757.647.4-.253.791-.5,1.189-.755l5.47-3.475,1-1.024,1.19-.88.027-.074a14.677,14.677,0,0,1,6.4-7.5l1.063-.675-.362,1.214c-1.085,3.616-3.87,5.776-6.394,7.516l-.107.074-.883,1.175-1.026,1.1c-1.389,2.73-3.778,4.32-6.086,5.856-.548.364-1.109.737-1.661,1.129-1.578,1.123-3.162,2.345-4.561,3.424l-.906.7,1.534-.01-.417.725c-1.324,2.18-3.35,3.253-6.368,3.372a1.566,1.566,0,0,1-.62,1.077,2.173,2.173,0,0,1-1.83.074l-1.652,1.309-.9-1.778,2.422-.446,1.8-.891,0-.432-3.524.037.42-.724c.058-.1.107-.195.157-.294a2.3,2.3,0,0,1,.737-.967q.926-.591,1.85-1.185-1.881.924-3.787,1.7l-.135.053c-1.674.679-3.366,1.275-5.029,1.775-.726,1.048-1.855.893-2.774.756-.48.113-1,.234-1.53.346a15.793,15.793,0,0,1-5.976.86c-1.092.1-2.095.154-3.032.169a7.363,7.363,0,0,1-3.763-.129,42.755,42.755,0,0,1-10.824-2.128l-.482-.161.045-.107a43.952,43.952,0,0,1-11.586-4.578c-11.954-6.765-21.41-15.379-28.1-25.609a49.439,49.439,0,0,1-3.836-7.7c-.839-1.967-1.7-3.975-2.72-5.845-3.355-6.113-3.544-12.562-3.287-18.062A58.694,58.694,0,0,1,47.41,80.7a3.37,3.37,0,0,1,.255-.4,1.373,1.373,0,0,0,.229-.4c.7-3.721,1.367-7.41,2.108-11.5l.133-.729a18.535,18.535,0,0,0-2.165,6.27A34.953,34.953,0,0,1,47,77.723c-.2.591-.373,1.208-.54,1.805-.66,2.367-1.341,4.811-3.842,6.278l0,.022c-.069.353-.13.708-.193,1.062a21.382,21.382,0,0,1-.639,2.88C36.655,105.7,37.709,119.508,45,131.992a9.743,9.743,0,0,1,.825,2.094l.022.072c.091.3.182.6.286.89l1.584,3-.2.134.418.245a11.338,11.338,0,0,1,5.446,6.56l.013.043.076.077,8.122,8.164-2.809-.085-.025,1.244-4.311-1.86,3.027-.14-.15-.17a20.077,20.077,0,0,1-1.811-2.237,18.3,18.3,0,0,1-1.3-2.482l-.1-.221c-.077-.167-.155-.333-.233-.5l-.441-.931-.707-.33a9.653,9.653,0,0,1-5.489-6.6l-.133-.511-.153.1L44.931,135.9c-.169-.157-.388-.333-.579-.488a4.352,4.352,0,0,1-1.329-1.46c-.477-1.038-.971-2.076-1.465-3.112A68.823,68.823,0,0,1,37.473,121c-1.877-6.31-2.066-13.367-.594-22.209l.072-.44c.752-4.538,1.53-9.229,4.848-12.936l.053-.061.017-.059c.442-1.613.875-3.32,1.222-4.692,1.753-6.916,3.568-14.062,8.009-20.134a4.473,4.473,0,0,1,1.114-.981l.059-.041c.086-.062.173-.124.258-.187l.04-1.107-2.517,1.637-2.117,3.29-5.3,13.9-.023.218a29.134,29.134,0,0,1-5.323,13.844l.028.14a1.685,1.685,0,0,1-.006.985c-3.058,7.407-2.554,15.3-2.064,22.94l.066,1.056a27.7,27.7,0,0,0,1.407,6.233l.028.09c.281.921.574,1.872.816,2.818l1.36,4.627-2.594-3.5h-.007a1.108,1.108,0,0,1-.907-.454l-.253-.33.1-.1c-3.864-12.066-4.15-22.206-.9-31.9a6.117,6.117,0,0,1,1.449-2.094c.226-.244.429-.465.617-.7v-2l-1.1,1.093,1.018-2.3q.4-.9.785-1.8l.139-.318c.728-1.68,1.47-3.394,2.276-5.05a24.051,24.051,0,0,1,1.6-2.672l.045-.068c.184-.28.371-.563.552-.845l.074-.115.061-3.984-.08-.027.034-.492.984-2.876-.02-.017.05-.317,1.1-3.077.066-.286L45.2,63.492l1.969-.967a2.979,2.979,0,0,1,2.2-3.306l.048-1.633-.162-.088.19-.437,1.5-2.451L50,54.595l-.178.18c-2.907,2.947-5.652,5.73-6.1,9.969l.188.125-.306.4a17.393,17.393,0,0,0-3.192,9.167l.164.051-.2.517L39.8,76.049c-.481.869-.978,1.766-1.512,2.642a6.649,6.649,0,0,0-.515,1.213c-.409,1.162-.907,2.581-2.711,2.711.033.144.07.29.106.435l.018.081a4.714,4.714,0,0,1,.173,2.55c-1.244,3.794-2.639,7.612-3.988,11.305l-.193.525q-.65,1.786-1.314,3.62l-.648,1.794-.259-1.892c-.9-6.517,1.753-11.887,4.316-17.082.285-.576.568-1.155.849-1.731l.1-.226.326-1.172c2.323-8.273,4.722-16.816,9.8-24.172.6-.867,1.151-1.823,1.654-2.722-4.1,3.946-6.281,9.154-8.313,14.591-.864,2.311-1.665,4.7-2.439,7.011l-.037.107A121.823,121.823,0,0,1,30.477,88.22c-3.3,7.136-2.989,14.5-2.385,21.429a9.307,9.307,0,0,0,.279,1.424,9.2,9.2,0,0,1,.318,1.771c.585,11.5,5.519,22.023,15.527,33.116l1.8,2c.953,1.063,1.972,2.2,3.021,3.348l2.419.483.045,0a.709.709,0,0,1,.567.255,1.124,1.124,0,0,1,.153.307l.48,1.31-3.6-2.294c1,1.1,2.031,2.213,3.058,3.293a3.67,3.67,0,0,0,1.35.715l.067.026.054.02-.006-.18.007,0-.017-.81,4.571,2-2.808,0,2.6,1.985V157.3l1.081,1.062,0-.475.676,1.139.693.683h-.323a1.311,1.311,0,0,1,.061.207.5.5,0,0,1-.011.273h.151l-.25.223c5.908,5.82,13.382,10.008,24.205,13.565a7.435,7.435,0,0,1,1.621.841c.161.1.321.2.485.3l.066.04H89.5l-.729,2.125-2.463-1.295-.135.012c-4.114.353-7.662-1.212-11.1-2.731-1.247-.551-2.513-1.112-3.776-1.569-.783-.284-1.639-.53-2.328-.727l-.374-.109.009,1.845-.114-.151v.006l-.544.55-.664-.674.27-.271,0-.662-3-1.765,2.011-.066q-.867-.677-1.715-1.378l-1.2,2.652a.273.273,0,0,0-.018.053c-.013.04-.029.087-.05.136l3.392,1.672h0l.125.052.718.372-.023.026,1.631.9.362.247c3.043,2.1,5.923,4.086,9.614,4.086l.243,0,.064-.18.476.161c.4.208.764.41,1.133.615a27.684,27.684,0,0,0,2.763,1.4c2.19.9,4.424,1.756,6.584,2.58q1.272.487,2.529.969l2.866-.149c2.376-.121,4.783-.247,7.189-.367,1.441-.072,2.9-.081,4.316-.089a42.625,42.625,0,0,0,9.32-.736,119.806,119.806,0,0,0,16.138-5.454l1.426-.558a15.438,15.438,0,0,0,3.722-2.414c.347-.274.7-.554,1.06-.824l-.741-.413c.009.451-.037.839-.364,1.036a18.335,18.335,0,0,1-9.545,3.043H128.5l-2.557,1.446-.693-1.887,3.011-.4c1.728-1.981,4.04-2.621,6.276-3.24a21.291,21.291,0,0,0,3.259-1.089l.13-.064,2.052-1.108.741-.686-.448.149c-1.733.577-3.464,1.154-5.192,1.744-1.243.424-2.484.862-3.723,1.3l-2.33.85-7.654,3.067-.4-1.781,2.781-.169.012-1.165,5.637-.972,4.216-3.475.091.031,1.3-.673-.747-.455.258-.161h-.269l2.03-1.061v.036l3.61-1.809.356-1.428,1.072,1.2,1.587-.8a1.727,1.727,0,0,1-.117-.421c0-.015,0-.031,0-.047l-.3,0,1.342-1.442v.053l1.039-1.066.052,1.674,1.5-.043.817-1.661-1.145-.968,1.47-.539,2.73-2.8v1.014l.437-.44.055,0,2.172-2.135,3.058-1.667-.569,1.278c-1.447,3.249-3.722,7.172-8.513,8.685l-.038.027-2.549,3.492,1.03-.047c.708-.9,1.187-1.461,1.849-1.538.791-.089,1.515.509,2.731,1.492.194-.064.394-.121.594-.177a3.454,3.454,0,0,0,1.374-.589c3.608-3.3,7.516-6.978,11.946-11.251a2.644,2.644,0,0,0,.5-1.045l.009-.026-.8-.021-.021-2.1-.379.114-2.887,1.938,1.953-2.98,3.67-4.667-.73.224,2.928-5.29-.129-.031.1-.44.369-.145.426-.768-.095.876.228.219-.123.481-.185-.046-.145,1.207c-.15,1.34-.334,3-2.26,3.594l-.325.1-1.576,5.063.65,1.539c.345-.335.706-.661,1.055-.978l.052-.046a11.207,11.207,0,0,0,2.869-3.333,231.454,231.454,0,0,0,8.885-21.813C182.283,113.833,181.363,100.06,179.887,88.326ZM76.42,26.3l.937.084-.045.549-.937-.074Zm-2.777,3.144-1.741,1.7.076-1.783-1.228-.705,1.383-.9,1.729-1.613,0,1.534,3.533.036Zm7.743-3.333L81.3,24.636l3.637-.311.236,1.788ZM80.835,21.7l-.025-1.217.476-.007h4.335l.453,1.224Zm7.247-.766L87.9,19.366l3.236-.383.18,1.587Zm5.308-1.152-.66-1.627.907-.043a4.007,4.007,0,0,1,.714,0,.721.721,0,0,1,.529.43c.023.04.034.059.044.074l.388.527Zm17.472,2.8,2.7-.317c.183-.022.364-.048.549-.076,1.176-.173,2.638-.389,3.624,1.155l.628.984Zm15.767,2.606c-.146.006-.3.021-.447.037-.2.02-.41.041-.623.041a1.664,1.664,0,0,1-1.768-1.389l-.244-.916,5.281,2.141Zm8.691,6.438-.342-.268.566-.76.361.281Zm.49-2.108-.187-1.025c-2.32.373-3.943-.953-5.279-2.238l-.68-.656.928-.156c2.435-.413,4.157.876,5.523,2.191l.021.019,1.6.74Zm9.013,5.982a.7.7,0,0,1-.476-.281.914.914,0,0,1-.087-.181l-.528-1.4,1.538,1.022,2.863,1.98Zm16.2,19.909-.1,1.908-1.312-1.523,0,0-.146-.146-.718-.885h.194l-.774-1.5-1.688-1.7,2.408-.057-.013,1.292,1.389.617.01-.834.919,1.6-.01.01a3.915,3.915,0,0,1,.236.494C161.541,55.064,161.271,55.258,161.024,55.408Zm4.329,8.037-.006,0,.006.01-.018.011.072.073h-.193l-.1.066L165.1,63.6l-.163.09-.133-.217-.15-.151.042-.026-.076-.125h.28l.616-.373.221.39-.388.26ZM72.642,39.755l.883-2.7a.71.71,0,0,1,.3-.511,1.1,1.1,0,0,1,.272-.114l1.406-.421Zm21.5-7.211-.006-.191-1.114.57c-1.776.906-3.478,1.584-4.745-.094l-3.693-.046v.326l2.836.15L86.9,35.121,84.059,33.9l-2.646-.144L81.3,32.4l2.512-.371.013-.533-.465-.348.463-.771.2.081a.714.714,0,0,1,.4.294l.106.259,3.944,1.019,5.654-.006-.025-.912h11.277l.038,1.431Zm30.409-.71,4.805,2.186-5.345-.388Zm-12.069-2.58.569-1.745,4.36,2.138Zm10.056,2.011-.724,1.62L118,30.511Zm-.126,5.041-1.556.627L119.572,34.1l1.783-.82.783,2.231,1.509.317a.745.745,0,0,1,.551.228,1.215,1.215,0,0,1,.158.26l.663,1.408-2.665-1.6Zm9.634-.444-2.85-.994,2.963-.44Zm8.407,12.531-2.39-2.235,2.614-.067Zm-111.3,57.071a2.62,2.62,0,0,0-.16.211l-.99,1.457.465-6.148.782,3.051a5.067,5.067,0,0,1,.173.781.844.844,0,0,1-.256.631Zm.1,5.768,1.3-.286-.2,2.571-1.1-.038Zm1.028,5.3,1.265-.015v4.506l-1.265.007Zm4.682,14.454L33.4,127.011a2.434,2.434,0,0,1-1.663-1.159,3.839,3.839,0,0,1,.108-3.1l.448-1.264,1.687,4.82,1.079.133Zm6.669,5.438-.087-.652h.044a.41.41,0,0,1,.161-.227l.212-.17.254.105a.4.4,0,0,1,.211.164l.04-.014.1.66Zm42.07,41.254a1.2,1.2,0,0,0-.118.063.956.956,0,0,1-.477.167.556.556,0,0,1-.223-.047.983.983,0,0,1-.438-.452c-.025-.041-.04-.068-.058-.093l-.492-.684.829-.072c.029,0,.058-.007.085-.011a1.333,1.333,0,0,1,.517-.009.841.841,0,0,1,.437.289.678.678,0,0,0,.058.059l.545.487Zm2.931,1.4-1.515-.434.751-.574c.036-.026.07-.056.1-.084a1.576,1.576,0,0,1,.528-.34.7.7,0,0,1,.7.264c.032.032.061.062.088.084l.572.456Zm39.059-.561-2.172.4c-.1.016-.175.035-.243.05a1.944,1.944,0,0,1-.4.058c-.032,0-.064,0-.1,0-.342-.036-.443-.348-.493-.5l.15-.144h0l-.171.076-.384-.881Zm-6.128-9.023-4.487,2.237-.62-1.726Zm-53.742-8.678c-.065,0-.128,0-.191,0-2,0-3.372-1.041-4.3-3.274a2.674,2.674,0,0,1-1.942-.789,2.175,2.175,0,0,1-.351-1.736l.139-.937,2.648,2.67a5.234,5.234,0,0,1,4.415,3.405l.261.634Zm2.793-1.021-2.96-2.3-.956-.646.11-.014-.377-.292-3.1-2.533.561-.747,3.368,2.428.811,1a3.126,3.126,0,0,1,3.451,2.392l.482,1.357-1.941-1.312Zm7.5,7.565-1.1-1.015.427-.346c.025-.021.05-.05.079-.077a.911.911,0,0,1,.637-.341h.012a.852.852,0,0,1,.61.4c.033.042.056.072.081.1l.361.374Zm4.341,2.216-3.079-2.005,3.827.2Zm2.811-2.063-1.763-1.344-.593.062a8.737,8.737,0,0,1-.941.053,3.505,3.505,0,0,1-3.668-2.445l-.2-.565.59-.069a4.381,4.381,0,0,1,4.576,2.307l.31.517,12.233,3.782h4.936l-.337,2.2-4.632-1.392-.4.02A15.1,15.1,0,0,1,83.277,167.51Zm7.993,12.1a.661.661,0,0,1-.54.421,1.519,1.519,0,0,1-.442-.076l-.764-.192.382-.565a.682.682,0,0,1,.541-.426,1.606,1.606,0,0,1,.45.079l.772.2Zm-.558-1.725-.006-1.392h3.727l.012,1.392Zm9.6,3.369H94.347l0-1.431h6.684Zm3.549-2.269H97.591l.719-1.461h6.013l.006,1.456Zm-1.695-6.445v-1.446h10.845l.007,1.446Zm7.7,4.99h4.881l.032,1.4h-5.2Zm1.528,3.587.593-1.45h3.8l.086,1.45Zm3.209-4.979,5.1.257-.591,1.912Zm3.344,5-.66-1.706,2.89-1.061.6,1.584Zm5.114-10.044c-.025.021-.052.047-.076.072a.842.842,0,0,1-.578.3l-.054,0a.8.8,0,0,1-.555-.371c-.031-.038-.048-.061-.066-.079l-.373-.38.42-.328a.864.864,0,0,0,.07-.067.871.871,0,0,1,.594-.3h.009a.818.818,0,0,1,.58.366c.034.041.052.064.07.083l.378.373Zm15.321-7.521.413-1.3a3.072,3.072,0,0,1,3.4-2.306l1.416.074Zm16.2-2.97a2.558,2.558,0,0,1-.741,1.921,2,2,0,0,1-1.346.445,3.113,3.113,0,0,1-.38-.022l-1-.11,3.52-3.423Zm25.645-61.685-1.715.312-.031-.188-1.1-6.556,1.418-.259ZM176.595,87.21h0a.741.741,0,0,1,.426-.53.644.644,0,0,0,.077-.048l.52-.387.633,1.931-1.623.684-.037-.924A4.086,4.086,0,0,1,176.595,87.21Zm0,12.422a1.109,1.109,0,0,1,.14-.476.689.689,0,0,1,.529-.294l.475-.121.456,1.309-1.738.384Zm-5.34-2.574,1.342-.033v5.352l-1.342.022ZM166.2,80.082h0a.706.706,0,0,0,.066-.055l.4-.383.731,1.081-.915,1.045-.341-.5a.727.727,0,0,0-.053-.064.785.785,0,0,1-.243-.594A.8.8,0,0,1,166.2,80.082Zm-3.194-7.9c2.572.4,2.454,2.343,2.367,3.758-.012.2-.023.394-.027.587l-.064,1.848L162.1,72.037Zm-3.762-6.04,2.788,2-3.22-1.17a.74.74,0,0,1-.5-.291.82.82,0,0,1-.092-.188l-.573-1.467ZM149.206,55.562l-.06,3.61L147.23,54.75l1.112-.025-.448-2.659,1.767-.226.578,3.824Zm14.274,68.988-1.081,1.092.039-.089-1.209,1.187.077-1.228q.188-3.015.384-6.029l.016-.243c.295-4.587.6-9.332.858-14,.08-1.456.185-2.937.286-4.369l.19-.047h0l-.187-.014a98.86,98.86,0,0,0,.342-12.761,28.052,28.052,0,0,0-3.134-10.517c-1.727-3.413-3.825-6.719-5.853-9.916-.94-1.482-2-3.154-2.994-4.8a4.961,4.961,0,0,1-.518-1.491c-.029-.125-.058-.249-.09-.371l-.362-1.431,1.12.949c.342.29.7.57,1.06.849a12.626,12.626,0,0,1,2.673,2.537c1.816,2.577,3.466,5.331,5.063,7.993l.947,1.579c4.206,6.979,5.7,14.765,4.7,24.5-.609,5.942-.892,12.014-1.164,17.886-.075,1.6-.147,3.17-.227,4.739,1.538-4.92,1.8-10.08,2.035-14.674.108-2.124.191-4.232.282-6.57.2-5.083.4-10.337.951-15.58l.358-3.382.573,3.351c.12.7.283,1.411.439,2.1a18.312,18.312,0,0,1,.65,4.732c-.367,9.088-.974,18.206-1.561,27.024l-.015.233a6.777,6.777,0,0,1-.5,1.9,6.358,6.358,0,0,0-.449,1.577,8.893,8.893,0,0,0,.183,2.271c.01.066.021.13.032.2l1.555-1.413.945-6.5,0-9.21.918,2.859c1.026,3.2,1.133,3.529-.018,6.125l-.222.5.081.97c.023.275.059.55.1.827l.015.125c.206,1.549.418,3.153-.994,4.569l-.047.047v.033c.082,1.99-.1,4.507-2.216,6.372l.012.115c.011.114.026.228.042.342l.015.105c.133.929.31,2.195-1.25,2.731l-.193,2.088-1.551-.685,1.065-2.006,1.033-2.882.031-3.247-2.36,2.191c.963,1.617.887,3.455-.231,5.616a43.137,43.137,0,0,1-2.934,4.663l-.243.353q-.32.465-.637.931l-2.107,3.122,5.284-14.688Zm6.776,14.713-1.572-1.169,1.763-.855Zm.443-1.777-.588-2.167,1.684.214Zm2.458-7.072v-4.63l2.061.722Zm2.722-6.393h-1.265V120.68h1.265Zm1.331-12.609v.006a7.673,7.673,0,0,0-.07,3.011,2.828,2.828,0,0,1-.161,1.441c-.1.383-.218.856-.348,1.5l-.685,3.4-.6-8.448c-.123.77-.242,1.537-.357,2.292l-.027.172a102.742,102.742,0,0,1-1.985,10.485,79.315,79.315,0,0,1-11,23.988,4.746,4.746,0,0,1-1.48,1.254c-.173.108-.331.208-.482.314l-1.423.974.733-1.569q1.031-2.21,2.057-4.421l.328-.706c1.66-3.579,3.541-7.635,5.429-11.6,3.581-7.532,5.444-16.023,5.695-25.961.16-6.326.362-13.69.761-21.044l.191-3.523,1.022,4.766c.829,3.791,1.612,7.371,1.058,11.431-.137,1-.2,2.062-.254,3.084-.061,1.1-.124,2.2-.266,3.273C177.849,107.134,177.5,109.5,177.211,111.412Zm1.89,5.14-1.447.057v-9.778l1.447-.062Z" transform="translate(1.569 -2.011)"/><path class="a" d="M120.558,31.99l1.525,1.025-.012-1.026Z" transform="translate(22.916 3.918)"/><path class="a" d="M53.779,138.944l.009.007.344.086,0-.121Z" transform="translate(6.077 26.245)"/><path class="a" d="M59.1,140.735l-.738-.746-2.5-.173-1.21-2.175-1.711.018a1.068,1.068,0,0,1-.889.657c-.6,0-.954-.59-1.2-1.1l-.027-.058-.939-1.151.231-.115-1.872-.926.107-.142-.868-.885-1.765-.819a.964.964,0,0,1-.725.429c-.038,0-.078,0-.117,0l-.008.4-.417-.559a2.552,2.552,0,0,1-.707-.868l-.931-.927H42.69l0-.124-1.063-1.062H41.5l-.008-.128-.969-.942-1.077-.39c4.716,5.877,13.049,11.778,18.97,13.388l.7-.7Z" transform="translate(2.131 22.763)"/><path class="a" d="M119.572,137.156l.267-.274h-.267Z" transform="translate(22.732 25.535)"/><path class="a" d="M142.415,117.019l-.212-.044.207.051Z" transform="translate(26.28 22.878)"/><path class="a" d="M122.2,135.131l0,.3.3-.3Z" transform="translate(23.394 24.923)"/><path class="a" d="M16.539,101.37a31.535,31.535,0,0,1,1.623,6.381c.64,3.542,1.247,6.9,3.824,9.579q-.211-1.937-.424-3.859c-.4-3.583-.806-7.29-1.148-10.925a16.44,16.44,0,0,1,2-10.242l.116-.2-.073-.437c-.189-1.125-.424-2.526,1.175-3.287l.646-.306-1.26,4.008-.024.4a95.154,95.154,0,0,0,1.341,22.279c.408,2.326.663,4.712.911,7.02l.181,1.671c.031.283-.162.5-.429.793-.125.138-.275.3-.433.51l-.362.472-.432-1.344c-.184-.574-.34-1.062-.506-1.546a.991.991,0,0,0-.108-.213c-.042.018-.09.035-.146.057.059.594.112,1.2.166,1.8.138,1.569.279,3.194.56,4.776.1.536.169,1.108.242,1.689.235,1.842.476,3.746,1.482,4.719a37.146,37.146,0,0,1,6.136,8.655c.467.818.935,1.634,1.421,2.445a2.249,2.249,0,0,0,1.067.623l.123.047v-.024h.005l.093-2.1,1.841.781q-.585-1.3-1.174-2.606c-1.2-2.66-2.442-5.411-3.6-8.148-.372-.878-.766-1.753-1.16-2.629a43.187,43.187,0,0,1-3.047-8.229c-.754-3.434-1.178-6.993-1.587-10.432-.25-2.1-.509-4.279-.841-6.4-1.29-8.252-.335-15.374,2.921-21.773A136.768,136.768,0,0,0,33.542,72.06c1.142-3,2.082-6.129,2.993-9.16.367-1.225.735-2.449,1.116-3.668L36.5,58.995l1.966-3.73.007,2.16,1.587-3.177-.032-.028,2.5-3.448-.1-.051.358-.313,5.677-4.627,2.077-5.163.779,3.347,4.128-4.983-.04-.016.016-.018a.812.812,0,0,1-.525-.653c0-.4.425-.626.758-.766l-.005-.363-.014.013v-.456l-2.492-.073.884-1.965c-3.631.932-5.649,3.7-7.149,6.325-.188.328-.372.663-.557,1a18.3,18.3,0,0,1-2.646,3.951C37.265,52.6,33.516,60.935,29.89,68.994c-1.7,3.773-3.45,7.674-5.457,11.355-.7,1.29-1.37,2.631-2.013,3.928a52.472,52.472,0,0,1-5.149,8.844c.127.5.289,1.015.445,1.513C18.463,97.009,19.236,99.464,16.539,101.37Zm16.9,40.853.486,1.015-.557.278-.286-.533-.208-.5ZM29.9,136.765c2.11.344,2.492,1.971,2.587,3.519l.023.375-.374-.046c-2.061-.26-2.326-1.866-2.56-3.284l-.105-.633Zm-4.2-10.813,3.425,8.964-.677-.291c-2.5-1.07-3-3.071-3.483-5.008a10.9,10.9,0,0,0-.866-2.561l-.157-.291ZM34.77,62.916c.04-.086.08-.174.116-.262l.188-.457.854.945L35.2,64.8l-.321-.413c-.031-.038-.072-.08-.111-.12a.677.677,0,0,1-.279-.58A3.531,3.531,0,0,1,34.77,62.916Zm-1.084,3.236a1.033,1.033,0,0,0,.089-.073l.262-.254.211.3a.853.853,0,0,0,.074.088.554.554,0,0,1-.061.932c-.031.027-.062.054-.088.081l-.26.282-.223-.313c-.026-.036-.058-.072-.088-.107a.664.664,0,0,1-.225-.493A.674.674,0,0,1,33.686,66.152Zm-1.568,3.9.306.072h0l.29.115-.067.173-.29-.113h0l-.29-.113Z" transform="translate(-2.333 -1.164)"/><path class="a" d="M111.831,26.772h0l.072-.137Z" transform="translate(20.782 2.048)"/><path class="a" d="M117.028,138.646l-.987-.008,0,.474h0v.043Z" transform="translate(21.803 26.148)"/><path class="a" d="M118.792,137.772l-.99-.011.006.471.007,0v.048Z" transform="translate(22.247 25.842)"/><path class="a" d="M135.943,47.318l0-.283-.281.284Z" transform="translate(23.995 5.164)"/><path class="a" d="M121.889,138.959l-.252.257h.253Z" transform="translate(23.255 26.26)"/><path class="a" d="M64.282,26.422l.706-.007.01-.709H64.28Z" transform="translate(8.725 1.723)"/><path class="a" d="M45.861,37.088l0,.292.287-.289Z" transform="translate(4.074 2.646)"/><path class="a" d="M50.249,33.582l0,.3.295-.3Z" transform="translate(5.185 4.475)"/><path class="a" d="M53.184,131.631l.3.3v-.3Z" transform="translate(5.928 23.699)"/><path class="a" d="M122.784,33.582h-.292l.291.295Z" transform="translate(23.47 4.475)"/><path class="a" d="M46.738,34.461v.716h.708l0-.716Z" transform="translate(4.288 4.782)"/><path class="a" d="M47.721,45.032h0l.006.531L48.045,45Z" transform="translate(4.544 4.643)"/><path class="a" d="M47.419,40.319a9.413,9.413,0,0,0-2.966,4.418Z" transform="translate(3.671 3.397)"/><path class="a" d="M55.589,32.721l-.942.007-.009.372.012-.007-.006.119Z" transform="translate(6.281 4.174)"/><path class="a" d="M51.117,33.422l1.89-.021.019-.68-1.911-.01Z" transform="translate(5.371 4.17)"/><path class="a" d="M54.257,33.59l-1.285.011-.633,1.275Z" transform="translate(5.68 4.478)"/><path class="a" d="M126.571,131.631v.292l.292-.292Z" transform="translate(24.502 23.7)"/><path class="a" d="M46.174,35.94l.285-.016,0-.272Z" transform="translate(4.153 5.198)"/><path class="a" d="M52.863,47.028l.511-.1,3.571-6c-3.9,2.109-6.557,5.507-8.291,10.592l1.611-.842C50.325,49.087,50.711,47.445,52.863,47.028Z" transform="translate(4.622 3.442)"/><path class="a" d="M125.7,132.509v.281l.285-.284Z" transform="translate(24.282 24.006)"/><path class="a" d="M119.43,53.889V52.076l-1.24-.007Z" transform="translate(22.333 6.405)"/><path class="a" d="M156.642,146.378l.289-.258.057-.05a7.369,7.369,0,0,0,1.9-2.163c4.647-9.969,8.8-19.818,8.534-30.674-.225-9.261-.733-18.733-1.511-28.153A23.3,23.3,0,0,0,163.193,77c-1.482-2.959-3.131-5.9-4.727-8.75l-.065-.116c-1.119-1.993-2.275-4.055-3.365-6.109a9.313,9.313,0,0,1-.526-1.221c-.641-.912-12.676-17.743-32.121-25.588a8.462,8.462,0,0,1-1.7-.406c-7.99-2.944-16.623-3.556-26.407-1.872-10.061,1.731-17.355,4.57-23.65,9.206a2.749,2.749,0,0,1-1.312.409c-.132.018-.263.035-.39.059-.723.758-1.459,1.509-2.193,2.259-1.637,1.671-3.329,3.4-4.884,5.225-6.979,8.192-10.735,16.088-11.82,24.848a29.835,29.835,0,0,1-2.575,8.5,75.512,75.512,0,0,0-6.411,24.221c-1.277,13.806,5.078,24.968,11.463,34.067,11.056,15.757,26.278,26.274,46.537,32.151,7.9,1.711,23.7,2.726,40.616-9.666l-.19-.227,1.283-.592c.907-.706,1.893-1.509,2.9-2.372l.366-.727-.034-.061,0-.005-.009-.018a1.94,1.94,0,0,1-.238-.6.548.548,0,0,1-.007-.14l-.212-.005.417-.408c.026-.028.057-.057.085-.085l3.154-3.128v1.573a7.053,7.053,0,0,0,.7-.281c.992-.986,1.891-1.924,2.749-2.865l.163-.178c.077-.169.148-.344.215-.53l-1.3.012.139-.215,3.263-4.987,0,.742,3.468-5.375Zm1.3-3.314-.3-.42a.5.5,0,0,0-.051-.063.8.8,0,0,1-.271-.623.785.785,0,0,1,.37-.528l.032-.026a.418.418,0,0,0,.053-.042l.379-.355.785,1.125Zm1.951-3.128-.711.744-.317-.426c-.018-.023-.036-.043-.055-.065a.832.832,0,0,1-.3-.636.8.8,0,0,1,.375-.561c.042-.034.066-.053.086-.073l.366-.359.8,1.074Zm1.1-2.2-1.178-.03v-2.3l1.294.028Zm1.324-3.467-1.716-.714,2.021-3.081Zm4.78-24.209.228,3.448-1.567.067V110.1Zm-2.527-9.677h1.31v4.7l-1.31.012Zm-.42,17.957.815,1.16c1.05,1.492,2.185,3.676-.08,5.418l.03.24c.014.124.032.247.053.371l.011.077c.154,1,.366,2.361-1.376,2.943l-.865.289,1.413-4.074Zm-.3.824-.538,1.865-.516-.37c-.072-.053-.15-.1-.227-.15l-.055-.035a2.46,2.46,0,0,1-.812-.7c-.227-.354.05-.7.344-1.077.081-.1.158-.2.216-.282l.289-.43ZM161.2,84.046l.113.077-.112-.078c.023-.034.047-.069.067-.1l.522-.907.5,1.689-.861,1.507-.3-1c-.008-.024-.019-.051-.028-.078l-.015-.043a1.116,1.116,0,0,1-.108-.551A1.08,1.08,0,0,1,161.2,84.046Zm-1.482,30.7,1.459.009v3.738l-1.459-.007Zm.322,6.774-.576,1.509-.561-.941a3.862,3.862,0,0,1-.3-.556c-.155-.351.154-.564.339-.692l.522-.4Zm-2.548-37.778h1.123v2.846h-1.123ZM154.83,64l.567,2.015-1.785-.312Zm-.861,7.37-.242,1.928-1.515-1.169Zm-2.038-.057-.517-2.1,1.634.25ZM150.6,66.972l0,0a.879.879,0,0,0,.08-.059l.359-.331.818,1.074-1,.91-.3-.391a.592.592,0,0,0-.049-.054.791.791,0,0,1-.291-.611A.771.771,0,0,1,150.6,66.972ZM128.578,43.838l.009.034.011.034.174.452-1.428.439-.468-1.76.7.138c.045.008.092.015.142.022a1.624,1.624,0,0,1,.517.138A.706.706,0,0,1,128.578,43.838ZM126.488,40a3.414,3.414,0,0,1,.273-.715l.034-.07c.028-.061.057-.12.081-.181l.468-1.073L127.8,39.3a3.628,3.628,0,0,1,.217.775.733.733,0,0,1-.367.65c-.04.032-.073.059-.1.084l-.348.355-.317-.386a.912.912,0,0,0-.088-.09A.745.745,0,0,1,126.488,40ZM114.212,34.03l.113.974-2.383.17L111.9,34.03Zm-12.08.861.02,1.416H96.248l-.011-1.416ZM86.247,36.939l1.528,2.015-2.339-.569Zm-1.689,1.8-1.14,1.613-.847-1.784ZM80.9,38.1l-.092,2.012-.413.055H76.547Zm2.208,13.328.1.215-1.982-.171,1.135-1.6.555,1.159.354-.548c2.328-3.608,4.885-4.623,8.566-3.384L93,47.488l-9.888,3.938Zm-.3,2.316a39.078,39.078,0,0,1,14.683-4.8c.189-.026.389-.058.592-.092,1.645-.271,2.73-.251,3.245.063,1.884,1.134,3.857.9,5.944.646.5-.061,1.017-.123,1.532-.163a3.316,3.316,0,0,1,1.085.14,3.611,3.611,0,0,0,.943.142,6.1,6.1,0,0,1,3.477.838,14.2,14.2,0,0,0,4.612,1.908,21.594,21.594,0,0,1,3.459,1.194c4.781,2.27,9.718,4.612,13.047,9.222.564.779,1.155,1.565,1.729,2.326l.049.066c3.121,4.147,6.349,8.437,7.132,14a7.573,7.573,0,0,0,.6,2.133c2.606,5.585,3.31,10.423,2.22,15.224l-.051.216-1.243.568,1.306,1.258v.19a8.663,8.663,0,0,1-.053.984,2.761,2.761,0,0,0,.089,1.5c2.483,3.614,1.53,8,.61,12.243-.233,1.077-.455,2.094-.617,3.089-.169,1.046-.3,2.008-.43,2.94-.6,4.382-1.039,7.547-4.359,11.948a48.015,48.015,0,0,1-4.928,5.157c-1.417,1.353-2.754,2.63-3.75,3.786l-.575.673a5.656,5.656,0,0,0-.436.6,2.021,2.021,0,0,1-.927.9c-5.218,2.255-9.427,4.033-14.072,5.944a7.449,7.449,0,0,1-2.625.525v0l-.3-.008-1.865-.065c-11.525-.394-23.445-.8-33.823-8.213a28.767,28.767,0,0,1-3.494-3.218c-.312-.318-.619-.634-.927-.942-8.466-8.472-12.645-16.64-13.973-27.312a50.6,50.6,0,0,1,.3-12.205v-.488c.061-.574.1-1.14.13-1.687.138-2.2.256-4.118,1.9-4.65-.05-.086-.1-.174-.154-.262-.336-.564-.014-1.151.271-1.669a3.058,3.058,0,0,0,.321-.708c2.772-11.857,4.962-21.222,13.718-29.03a3.925,3.925,0,0,0,.416-.46,2.936,2.936,0,0,1,.928-.846,8.3,8.3,0,0,0,2.185-1.827A9.063,9.063,0,0,1,82.811,53.742ZM79.333,49.3l-2.088.289L76.9,50.867,75.2,49.508l1.58-.6,1.7-1.426Zm-4.74-5.746c.02-.018.042-.036.062-.057a.865.865,0,0,1,.64-.31.793.793,0,0,1,.552.4l.02.028a.732.732,0,0,0,.049.061l.32.36-.383.294a.841.841,0,0,0-.074.067.854.854,0,0,1-.572.3l-.053,0a.787.787,0,0,1-.552-.4l-.026-.034a.487.487,0,0,0-.045-.057l-.317-.359ZM62.918,50.83c.008-.023.015-.049.022-.076a.72.72,0,0,1,.34-.509,1.082,1.082,0,0,1,.321-.1l1.239-.217-2.88,3.34ZM61.192,83.192q.119-1.19.239-2.378l.109-1.093c.309-3.094.626-6.294,1-9.449.163-1.374.451-2.765.7-3.993.088-.437.177-.873.263-1.31l-.638-.076.154.1-.341.542-.019-.012a.326.326,0,0,1-.258.107l-.3-.012-.121-.229a.349.349,0,0,1-.034-.332l-.012-.008.329-.534.013.009,1.017-1.9-.277,0,.584-.576.7-1.3v.611L65.481,60.2l.005,1.073.568-.561h.092L68.294,58.9c1.722-1.448,3.674-3.089,5.615-4.7l.184-.154c1.409-1.175,3.006-2.5,5.276-1.646l.66.25-.506.493c-.622.6-1.247,1.205-1.872,1.808-1.409,1.353-2.853,2.743-4.234,4.143C66.9,65.689,64.552,74.116,63.241,80.721a7.683,7.683,0,0,1-.873,2.092c-.111.206-.223.416-.329.625l-1.1,2.194ZM60.075,86.9l.931-.524-.279,1.031c-.212.784-.453,1.575-.686,2.34l-.028.09a32.563,32.563,0,0,0-1.376,5.726c-1.472,13.065.957,24.159,7.427,33.915,9.469,14.277,22.817,22.271,39.677,23.761,15.178,1.34,27.888-4.969,36.755-18.227a49.708,49.708,0,0,0,8.268-22.817c.02-.206.061-.417.1-.621l.008-.046a3.517,3.517,0,0,0,.1-.988c-.266-2.368-.49-4.785-.7-7.121l-.011-.112c-.887-9.646-1.8-19.619-5.87-28.807a35.739,35.739,0,0,0-2.062-3.782c-.356-.6-.725-1.213-1.07-1.828l-.49-.864c-.51-.9-1.031-1.812-1.488-2.747a9.877,9.877,0,0,1-.553-1.645l-.031-.113c-.113-.406-.252-.9-.441-1.521l-.293-.966a1.725,1.725,0,0,1-.95.344h-.051A2.969,2.969,0,0,1,134.95,60.1l-.062-.069c-.069-.076-.135-.15-.2-.22-4.855-5.072-11.177-8.024-17.287-10.458a27.6,27.6,0,0,0-6.367-1.4l-.061-.008c-.66-.093-1.316-.184-1.966-.29-1.622-.262-3.212-.43-5.05-.626-.869-.092-1.777-.19-2.751-.3l-.718-.084.4-.606a5.929,5.929,0,0,1,3.643-2.919H96.843l1.537,3.342-5.114,1.027-.027-.134-.741-3.6H88.928L80.477,48.69l0-.784c.007-1.992.4-3.293,1.243-4.1a4.164,4.164,0,0,1,3.182-.942q1.178.051,2.353.092l1.553.059.123-.085c.36-.243.714-.493,1.067-.741l.062-.045a25.678,25.678,0,0,1,3.468-2.178,4.677,4.677,0,0,1,3.657-.262c2.635,1.328,5.031.649,7.566-.072,4.548-1.286,8.661.614,12.085,2.643l1.407.834H106.691c.437.073.877.179,1.32.3,1.984.537,4.035.986,6.017,1.421l.051.011q1.176.257,2.352.521a2.2,2.2,0,0,0,.355.038,1.948,1.948,0,0,1,.93.2c2.133,1.283,4.418,2.422,6.627,3.525,5.014,2.5,10.2,5.085,14.111,9.574a1.5,1.5,0,0,1,.264.974v.038a2.883,2.883,0,0,0,.02.293l.03.193-.123.152a3.712,3.712,0,0,1-.533.556l.827.591c3.72,2.653,5.4,4.715,6.42,7.879a71.79,71.79,0,0,0,3.353,8.082l.015.032a73.205,73.205,0,0,1,3.334,8.017,50.361,50.361,0,0,1,2.216,20.511,4.074,4.074,0,0,1-.383,1.194,4.494,4.494,0,0,0-.263.71c3.114,4.027,1.626,7.623.185,11.1a23.15,23.15,0,0,0-1.382,3.99,4.229,4.229,0,0,0,.251,1.684c.061.242.13.509.2.806.188-.348.359-.663.518-.951a11.418,11.418,0,0,0,1.1-2.347c1.488-5.3,2.811-10.987,1.248-17.012a29.457,29.457,0,0,1-.986-8.192c.254-7.91-2.429-14.934-5.087-20.759-.4-.883-.8-1.77-1.193-2.66l-.08-.181c-2.785-6.272-5.665-12.759-11.183-17.352-2.437-2.031-5.1-3.89-7.678-5.689-.919-.64-1.818-1.268-2.71-1.9-.85-.606-1.762-1.163-2.645-1.7l-.174-.108q-.37-.227-.738-.455l-.441-.242-2.271-1-2.013-.5.619-1.4,1.525,1.165.144-.031a2.531,2.531,0,0,1,1.911.085,1.716,1.716,0,0,1,.692,1.082l.1.007c5.364.374,9.241,2.113,12.2,5.472a17.633,17.633,0,0,0,3.6,2.839c.449.3.951.626,1.433.966l.042-.063.4.367,2.239,2.236.134.078.486.474.005-1.16,2.36,2.484V58.29l1.179,2.4v-.076l.942,2.008h-.011l1.092,2.363-1.084.026c.649,1.5,1.332,3.019,1.992,4.485a130.3,130.3,0,0,1,4.963,12.11,53.755,53.755,0,0,1,1.957,10.086c.135,1.048.269,2.074.42,3.11.513,3.487.958,7.231,1.442,12.143.588,5.931-.711,11.683-1.966,17.248l-.077.339c-.05.228-.1.455-.152.681l1.522-.707-.2,1.965-1.383-1.005q-.182.818-.359,1.635l.034.058-.08.259-.08.14.37-.093.09.385h-.036a.428.428,0,0,1-.132.265l-.185.181-.25-.073a.42.42,0,0,1-.184-.1c-.151.258-.3.513-.455.769l-.157.263c-.745,1.251-1.59,2.669-2.317,4.1a49.183,49.183,0,0,1-30.081,25.629,36.62,36.62,0,0,1-11.393,1.708,92.2,92.2,0,0,1-12.455-1.125,1.8,1.8,0,0,1-1.109-.9c-.054-.077-.109-.152-.163-.224l-.02,0a15.3,15.3,0,0,1-10.111-1.984c-1.992-1.058-4.12-1.961-6.176-2.834l-.475-.2,3.125,2.967,1.468.893-.148.3,3.334.3-.727,1.772-2.791-1.712,0,.008-.058.112-1.752-.7c-5.234-1.3-9.519-4.471-13.08-9.683l-.355-.518-.1.1-1.177-1.154.6-.645.472.363.742.81-.329.327,1.927.058c-.229-.262-.459-.521-.69-.781l-.188-.212c-1.247-1.411-2.518-2.849-3.691-4.332l-.177-.221h0c-.749-.974-1.413-2.021-2.058-3.038-.239-.379-.472-.748-.71-1.111l-1.7-2.612,2.37,2.027q.587.5,1.169,1.013c1.129.985,2.3,2,3.519,2.912.634.472,1.309.905,1.977,1.31l-.675-.737c-1.966-2.147-4-4.368-5.924-6.642-5.79-6.836-8.943-13.787-9.638-21.245a31.588,31.588,0,0,0-.733-4.058,19.834,19.834,0,0,0,.248,4.74c.34,2.274.737,4.58,1.121,6.81l.936,5.495L56.3,123.49c-.344-.7-.738-1.409-1.12-2.1a17.506,17.506,0,0,1-2.379-5.746A109.266,109.266,0,0,1,51.95,103.8c-.057-1.618-.115-3.271-.2-4.89l-.013-.227-.211.051-.115-.463.876-.206.045.192,2.144-1.425V103.1l.143-.749c.184-.974.37-1.969.58-2.942.066-.3.128-.606.19-.91l.009-.04a30.451,30.451,0,0,1,.891-3.573,18.255,18.255,0,0,0,.544-2.255C57.255,90.465,57.695,88.232,60.075,86.9Zm94.061,49.781-1.729-.161,1.044-1.917ZM132.67,157.74l-.21,1.707-1.816-1.086Zm-2.538,2.835H126.3l3.291-1.781Zm-11.315.823,7.364-.333-.576.761a2.81,2.81,0,0,1-2.351,1.275,6.7,6.7,0,0,1-2.97-.932Zm.22,2.626H107.674l-.009-1.475h10.8Zm-15.223-1.233L103,162.7a1.584,1.584,0,0,1-.437-.08.629.629,0,0,1-.36-.428l-.231-.483.513-.185c.047-.011.076-.019.1-.027a.94.94,0,0,1,.6-.032.677.677,0,0,1,.39.569.8.8,0,0,0,.02.085Zm-4.566-1.217H95.859l-.035-1.447,3.359-.154ZM93.3,159.087l-.076,1.372-2.8-.138.072-1.4ZM57.6,131.666l-1.3-.773a4.528,4.528,0,0,1-2.239-4.479l.089-1.7ZM55.572,91.7l.3,1.865L52.17,94l-.363-2Zm-.14-1.065,1-3.527.491,2.741Zm.348-24.673.459.065a.579.579,0,0,1,.56.333,1.7,1.7,0,0,1,.082.467l.074.7-1.6-.255ZM54.694,90.005l-1.085,1.117-.208-.756c-.022-.08-.047-.159-.073-.24a3.455,3.455,0,0,1-.169-.745.77.77,0,0,1,.337-.622.873.873,0,0,0,.093-.085l.541-.6ZM51.838,69.54l1.986-4.765L53.332,70.2l-1.55-.522Zm-.949,3.828h1.278v2.465l-1.278,0ZM46.775,111.35l.573-.389,1.075,1.878-.946.065c-.143.014-.293.028-.444.028a2.063,2.063,0,0,1-.3-.022c-.238-.036-.432-.242-.551-.58a.539.539,0,0,1,.077-.578A2.506,2.506,0,0,1,46.775,111.35Zm-.294-11.079-.244-1.007q-.01-.043-.024-.085a1.235,1.235,0,0,1-.085-.568,1.035,1.035,0,0,1,.242-.486c.028-.035.051-.065.07-.093L47,97.171l.254,1c.007.023.015.049.024.073l.012.04a1.1,1.1,0,0,1,.08.542,1.047,1.047,0,0,1-.243.487c-.031.038-.054.069-.076.1Zm.924,16.874,1.363,0v2.664H47.405Zm1.317,5.643c.019-.024.036-.053.058-.084l.038-.055c.138-.208.347-.533.708-.429a4.285,4.285,0,0,1,.753.32l.746.36-.352.44c-.022.027-.043.061-.066.1l-.031.043c-.14.208-.3.444-.575.444a.482.482,0,0,1-.139-.02,4.314,4.314,0,0,1-.753-.321l-.727-.356Zm-.488-13.014c-2.119-1.046-1.313-2.726-.725-3.956a5.767,5.767,0,0,0,.518-1.331l.023-.124.866.078V106l2.105-8.3v17.394Zm.418-20.8,1.565,1.156-1.822.7Zm-2.351.15.179-.653.5.265a.128.128,0,0,0,.036.018c.165.069.452.188.467.51a1.279,1.279,0,0,1-.081.462l-.177.648-.569-.293a.579.579,0,0,1-.436-.5A1.313,1.313,0,0,1,46.3,89.127Zm-.892,4.619.018-.012a.352.352,0,0,1,.015-.32l.1-.238.256-.03a.347.347,0,0,1,.328.1l.012-.005.242.318,1.966-1.088v2.719l-3.226-.935.47-.259Zm-.318,9.391,1.057-.059.194,2.39-1.251.043Zm-1.274-6.028L45,97.1v2.484l-.687-.239c-.135-.036-.474-.127-.488-.482s-.015-.7-.013-1.042Zm.86,11.7.157.061.113-.154,1.492,1.089-.853-.341-.367.372c-.733.748-1.216,1.067-1.615,1.067a.73.73,0,0,1-.274-.055c-.532-.223-.52-.9-.507-1.563a3.085,3.085,0,0,0-.043-.789l-1.071-1.83ZM42.058,120.44l1.239-6.465-.4.291.572-1.214.24-1.256.192.455.764.271-.028.171a.7.7,0,0,1-.19.435l-.134.1,2.691,6.394-1.87.816-.738-1.891-.8,2.2Zm1.739,2.089h1.252v2.317H43.8Zm.915,4.55,1.1-1.889.565,2.114Zm4.669,6.35-.086-2.233-1.108-.154v-.119l-.022-2.155-1.148.012-.034-3.816-1.266-2,1.735-.749.259,2.681,1.316,3.7,1.12,2.467,1.285,2.467Zm1.986-5.971-1.945-1.1,2.244-.569Zm.321-6.443.135.026-.134-.026.015-.076c.038-.194.076-.378.093-.559l.014-.115a2.065,2.065,0,0,1-1.312-1.237c-.31-.965.325-2.059.914-2.9l.7-1,.46,4.873,1.32,4.179-.814-.247C51.219,123.359,51.5,121.949,51.688,121.015Zm36.553,48L86.062,167.7l-3.376-1.78,4.094-.1-.045,1.27h2.077Zm2.826.824a1.374,1.374,0,0,1-.474-.105.672.672,0,0,1-.339-.487l-.161-.429.426-.215c.057-.018.085-.028.115-.039.233-.082.542-.194.784.05a1.006,1.006,0,0,1,.242.551l.009.047a.583.583,0,0,0,.016.073l.184.664Zm6.8,1.617.031-1.4-.016,0-.049-.009-.387-.069.011-.026a.36.36,0,0,1-.189-.235l-.092-.243.17-.2a.364.364,0,0,1,.263-.155v-.02l.588.1-.024.132,3.029.706Zm9.006,2.294a2.272,2.272,0,0,0-.126.193l-.022.036c-.171.286-.364.611-.737.652-.031,0-.061.005-.093.005a1.671,1.671,0,0,1-.839-.332c-.14-.085-.29-.177-.467-.267l-1.374-.706,4.272-.391ZM153.4,143.433c-1.09,1.61-2.259,3.2-3.492,4.746l1.129-1.371-.815,2.357a.361.361,0,0,0-.015.061.77.77,0,0,1-.321.552,1.227,1.227,0,0,1-.372.134l-1.245.255-.235.277.421-.007-2.008,4.647.028-2.885c-.982,1.077-1.934,2.061-2.89,2.989l1.787.036-2.49,2.291.014-1.671c-.316.3-.642.6-.992.908a57.007,57.007,0,0,1-14.772,9.8,49.232,49.232,0,0,1-8.509,2.849,47.082,47.082,0,0,1-8.945,1.051,49.077,49.077,0,0,1-6.277-.466l-.64,1.792c-.005.018-.008.038-.012.058a.707.707,0,0,1-.313.5,1.132,1.132,0,0,1-.34.113l-1.256.235,2.333-2.734q-1.255-.182-2.456-.435c-.476-.08-.954-.209-1.418-.333-.266-.072-.511-.136-.758-.2-.185-.051-.359-.1-.533-.139l-.088-.023a14.572,14.572,0,0,1-1.563-.456l-4.144-1.412a75.72,75.72,0,0,1-15.8-7.863,68.7,68.7,0,0,1-13.37-11.432c-.661-.69-1.266-1.449-1.847-2.185l-.088-.111c-.287-.362-.576-.722-.869-1.074l-.617-.833c-.659-.891-1.341-1.812-1.95-2.768a42.517,42.517,0,0,1-3.409-6l-1.4-1.328,1.016.467c-.124-.29-.243-.582-.355-.866l-.049-.121.807-.363.058.117c.317.625.667,1.27,1.042,1.916a.714.714,0,0,1,.475.354,1.028,1.028,0,0,1,.08.314l.039.327c.857,1.386,1.826,2.791,2.965,4.3.642.88,1.356,1.726,2.048,2.544l.654.779c.345.359.7.757,1.02,1.108.615.677,1.233,1.362,1.9,1.969a72.6,72.6,0,0,0,13.375,10.507A79.6,79.6,0,0,0,93.3,163.9l4.051,1.325a11.9,11.9,0,0,0,1.358.391l.088.022c.19.045.379.09.569.142.235.055.484.12.734.186.4.1.843.223,1.27.29a43.3,43.3,0,0,0,8.284.81,44,44,0,0,0,8.245-.914,48.867,48.867,0,0,0,7.926-2.58,57.133,57.133,0,0,0,14.211-8.961,76.091,76.091,0,0,0,11.639-12.4,55.506,55.506,0,0,0,8.345-14.862l.044-.123.845.252-.03.127a39.486,39.486,0,0,1-3.086,8.225,68.375,68.375,0,0,1-4.391,7.605Z" transform="translate(-2.002 -4.013)"/><path class="a" d="M124.05,120.65l1.789-2.372-1.784.857Z" transform="translate(23.784 23.087)"/><path class="a" d="M95.772,118.69c-.089,0,.089,0,0,0Z" transform="translate(16.71 23.315)"/><path class="a" d="M58.659,54.589l-.521,0,0,.986Z" transform="translate(7.176 7.06)"/><path class="a" d="M118.1,126.382l-.3,0,0,.3Z" transform="translate(22.283 25.245)"/><path class="a" d="M68.561,117.829l-2.2-2.2.734,2.158Z" transform="translate(9.211 22.427)"/><path class="a" d="M73.84,125.892c3.332,1.656,6.824,3.139,10.2,4.575,1.34.569,2.679,1.138,4.012,1.719l.131.057.147.007c.726.031,1.452.053,2.179.073,1.734.049,3.525.1,5.276.308,8.1.958,16.3-.869,25.088-5.6a48.562,48.562,0,0,0,16.254-14.939,18.291,18.291,0,0,0,3.476-7.281,12.315,12.315,0,0,0-1.132,1.514l-.24.355c-4.55,6.667-9.708,14.223-18.32,18.773-15.6,8.242-30.749,8.16-46.308-.246-1.5-.808-3.093-1.5-4.638-2.177l-.128-.054.038.03A20.2,20.2,0,0,0,73.84,125.892Z" transform="translate(7.131 18.332)"/><path class="a" d="M70.132,121.7l-3.055-4.015-1.745-.061A8.463,8.463,0,0,0,70.132,121.7Z" transform="translate(8.88 22.833)"/><path class="a" d="M120.215,55.571V54.6l-.513,0Z" transform="translate(22.753 7.061)"/><path class="a" d="M118.981,125.506h-.3l0,.3Z" transform="translate(22.504 25.024)"/><path class="a" d="M33.927,69.492c1.1-2.99,2.24-6.083,3.558-9.041a94.709,94.709,0,0,1,4.776-8.916c.839-1.44,1.707-2.93,2.518-4.411a11.653,11.653,0,0,0,.712-1.731c.015-.04.028-.082.042-.123-3.353,2.249-5.113,5.692-6.282,8.492-1.872,4.485-3.734,9.063-5.534,13.49C31.6,72.47,29.4,77.865,27.176,83.145,24.41,89.709,23.654,95.476,24.8,101.3a99.341,99.341,0,0,1,1.283,10.389c.124,1.41.248,2.822.4,4.229a44.475,44.475,0,0,0,8.77,21.946q-.132-.352-.262-.708a54.878,54.878,0,0,0-3.137-7.365,32.973,32.973,0,0,1-4.113-13.446,98.235,98.235,0,0,0-1.332-9.828,41.968,41.968,0,0,1,3.275-26.486C31.3,76.62,32.637,73,33.927,69.492Z" transform="translate(0.373 1.721)"/><path class="a" d="M40.717,43.324l-.056,1.129,1-1.594-.944.464h0Z" transform="translate(2.747 4.084)"/><path class="a" d="M40.7,43.2h0Z" transform="translate(2.773 4.199)"/><path class="a" d="M44.586,127.826c-2.189-2.221-4.5-4.4-6.732-6.508-.254-.242-.509-.482-.764-.723,1.768,2.982,4.409,5.248,6.975,7.449q.621.534,1.24,1.07l0-.008.062.057A3.947,3.947,0,0,0,44.586,127.826Z" transform="translate(1.738 23.328)"/><path class="a" d="M127.384,138.743l.016-.01-3.2.016-1.111,2.06.052.458,4.246-2.524Z" transform="translate(23.406 26.181)"/><path class="a" d="M126.278,138.743l.016-.01h-.006l-.016.01Z" transform="translate(24.441 26.181)"/><path class="a" d="M33.843,123.38l-.907-2.774-.958-.946-1.619-.791C30.93,120.757,31.819,122.516,33.843,123.38Z" transform="translate(2.495 23.121)"/><path class="a" d="M37.109,125.7l-.7-.7-.118-.118-1.164-.575,1.755,2.758Z" transform="translate(4.16 24.586)"/><path class="a" d="M36.322,124.782l.854.85,1.44-.089-2.291-2.162Z" transform="translate(1.632 24.38)"/><path class="a" d="M119.675,141.363l-.018,1.374,1.4-.692-.691-.68Z" transform="translate(22.695 27.1)"/><path class="a" d="M121.422,141.55l.351-.177h-.346Z" transform="translate(23.196 27.104)"/><path class="a" d="M31.936,118.725v.256h.123v0h0Z" transform="translate(3.046 23.31)"/><path class="a" d="M132.765,142.491h.13l-.043-.108Z" transform="translate(26.079 27.457)"/><path class="a" d="M132.915,86a6.39,6.39,0,0,0-.571.922c-.251.532-.56,1.07-.858,1.591-.853,1.49-1.66,2.9-1.263,4.191a4.452,4.452,0,0,0,2.572,2.391c.389.192.506.932.51.962a.615.615,0,0,1-.117.576c-1.389,1.328-.826,2.445-.177,3.739a4.739,4.739,0,0,1,.73,2.5c-.024.266-.039.544-.055.829a5.426,5.426,0,0,1-.795,3.186,3.722,3.722,0,0,0-.769,2.567,6.4,6.4,0,0,1-.166,1.456c-1.789,6.592-3.8,12.266-10.3,14.947l-.359.347-.026-.188-.785.323.711-.858-.2-1.455-.026.022c-2.494,2.025-4.85,3.943-8.4,2.382l-.461-.2.387-.324c.366-.3.713-.606,1.054-.9a23.584,23.584,0,0,1,2.183-1.761c10.272-7.007,13.7-16.47,10.778-29.776-.872-3.981-.567-8.261-.273-12.4.128-1.8.259-3.654.293-5.456a1.163,1.163,0,0,1,.169-.542h0l.011-.015.005-.012c-2.26-.367-3.145-2.328-3.931-4.073l-.015-.035C119.6,63.889,114.525,59.3,107.69,57.29c-.811-.237-1.622-.484-2.436-.733-7.242-2.2-14.733-4.481-22.484-.752-2.081,1-3.434,1.737-4.681,3.471a18.943,18.943,0,0,1-3.77,3.583c-.8.634-1.629,1.29-2.361,1.993a22.087,22.087,0,0,0-6.877,11.88,21.212,21.212,0,0,1-1.038,3.341,20.089,20.089,0,0,0-1.035,3.386c-1.41,7.949-.764,14.811,1.977,20.974.31.7.613,1.4.915,2.1,1.564,3.623,3.042,7.045,5.588,10.2,5.565,6.894,12.421,10.726,21.581,12.065,6.309.922,12.1-.677,17.49-2.4l.186-.059.134.142a3.924,3.924,0,0,1,.854,2.436c.125,1.152.217,1.99,1.623,2.133l1.16-.579-.51.634.426.035-.83.471a2.785,2.785,0,0,1-2.3,1.322c-.926-.082-1.8-.851-2.836-2.53v3.463l-8.5,1.725-.432-1.413,2.754-1.267-.1-.541-6.064.435.131,2.974L90.4,131.725c-.061.246-.111.493-.161.735-.163.8-.3,1.5-.788,1.754-2.38,1.262-3.89-.293-5.054-1.98l-.123-.177,1.147-1.668c-.5-.206-.989-.417-1.484-.626-1.555-.66-3.164-1.343-4.773-1.928a24.042,24.042,0,0,0-2.984-.8c-.6-.135-1.262-.283-2.005-.47l-.089-.022L64.231,116.17l0,.012-.039-.043.036.233a8.144,8.144,0,0,0,.918,3.178c5.037,7.794,11.349,12.757,19.3,15.174,7.406,2.251,14.688,4.145,22.307,2.626a2.454,2.454,0,0,1,1.429.215l.008-.005.005,0c.831-.428,1.58-.818,2.275-1.178,1.433-.745,2.634-1.37,3.847-1.965,12.338-6.053,19.334-16.216,20.8-30.2.436-4.164-.167-8.524-.752-12.743-.248-1.791-.5-3.641-.679-5.456a3.7,3.7,0,0,0-.378-.148l-.239-.088C133.019,85.857,132.967,85.93,132.915,86ZM80.57,120.3a.623.623,0,0,1-.408-.136l-.073-.09-.433-.49-.876-.807,1.661-.692-.144,1.438.447.182Zm-.278-2.774-.247-.125c-3.005-1.519-4.641-3.936-6.465-6.939-.285-.467-.575-.927-.865-1.387a21.648,21.648,0,0,1-3.109-6.4c-.436-1.81-.776-3.67-1.105-5.469-.14-.764-.279-1.528-.426-2.289l-.09-.07V94.84l-1.348-1.1,1.155.189a.855.855,0,0,0,.107.008.853.853,0,0,1,.341.069l2.21-5.851-5.464-4.429,4.214-4.16L67.058,77.68l1.918-4.894L73.82,74.34a6.554,6.554,0,0,1-.013-1.447,2.707,2.707,0,0,0-.312-1.966,2.386,2.386,0,0,0-1.718-.553l-.336-.013.038-.333c.386-3.39,2.727-4.991,4.793-6.4l.42-.289a70.064,70.064,0,0,1,11.173-6.191,10.716,10.716,0,0,1,5.825-.381,67.515,67.515,0,0,1,6.863,1.781c1.07.317,2.185.646,3.368.977l1.335.37-1.364.236c-10.354,1.8-11.281,1.959-14.444.47l1.194,1.831-6.767,1.986L74.457,74.827,73.3,81.419l-.15.067a1.3,1.3,0,0,1-1.108.084c-.52-.243-.692-.869-.86-1.476-.119-.425-.252-.911-.471-.98-.088-.024-.352-.035-.984.472l-.062.318c-.31,1.577.811,2.2,2,2.854.26.143.517.286.754.437l.159.1-.014.186c-1.32,18.471-.337,20.34,9.009,31.737l.147.178ZM66.889,88.2l1.229-.186.532,2.839-1.37.22ZM97.645,66.238l-1.07.336-.344-1.306.452.049c.04.005.084.007.127.008a1.082,1.082,0,0,1,.457.09.552.552,0,0,1,.258.432.807.807,0,0,0,.022.09Zm9.578,55.414q-.67.225-1.339.451c-.488.167-1.028-.227-1.6-.645-.171-.124-.341-.247-.5-.351-4.928,2.756-10.326,2.707-15.01,2.244l1.646,3.4-4.716-2.92,2.426-.9a2.842,2.842,0,0,0-2.664-3.071,2.056,2.056,0,0,1-2.046-2.453l-1.084-.351,1.117-1.181.4,1.082c.043-.007.086-.012.128-.02a1.42,1.42,0,0,1,.968.069c5.584,3.425,11.779,3.618,18.689,3.51h.125c.25-.166.5-.337.744-.507.6-.416,1.228-.846,1.88-1.217.833-.472,1.7-.916,2.538-1.345a36.044,36.044,0,0,0,4.553-2.622c6.38-4.569,7.534-11.114,7.3-19.534a25.294,25.294,0,0,0-.439-3.537q-.063-.364-.124-.726A19.693,19.693,0,0,0,116.15,99.7a1.058,1.058,0,0,0,.152-.043.976.976,0,0,0,.111-.138,1.1,1.1,0,0,1,.29-.3,6.429,6.429,0,0,1,.706-.378l.7-.352.023.482c.4,8.588-3.268,13.4-10.606,13.949l-.007.125-.1-.089c-2,2.554-4.728,2.567-7.372,2.573a16.468,16.468,0,0,0-3.544.259c-1.264.286-2.7-.4-4.1-1.058-.1-.05-.208-.1-.314-.148L90.545,114l-.008,0V114l-3.472-1.293-.266-.177.227-.228,1.011-1.426-1.733-.4.009,1.142-.366-.059c-4.682-.779-7.187-4.788-8.262-7.109C74.248,97.031,71.3,89.066,76.241,80.4l.175-.308.283.215c2.359,1.787,1.546,4.265,1.008,5.905l-.053.161c-1.548,4.747-.513,9.175.584,13.858l.072.3a1.721,1.721,0,0,0,.456.685,11.351,11.351,0,0,0-.1-1.246c-.161-1.349-.341-2.873,1.1-4.042l-.007-.013.126-.086c-.1-.633-.216-1.266-.333-1.9a30,30,0,0,1-.623-4.881,7.192,7.192,0,0,0-.306-1.6,4.164,4.164,0,0,1-.034-3.2,3.285,3.285,0,0,1,2.044-1.367c0-.026,0-.051-.005-.08a5.452,5.452,0,0,1,.5-3.1l.368-.609,1.772,6.163.375-5.064,1.309.034,0,2.823c0,1.858-.007,3.716.008,5.573.047,6.126,1.949,7.908,8.468,10.853,4.981,2.248,9.322-.294,12.085-2.823,1.865-1.706,3.975-4.063,4.021-7.314a6.647,6.647,0,0,0-1.572,2.07c-.864,1.494-1.841,3.189-4.464,3.816l-.683.163L108.5,84.972l.055.146-1.426-6.7-3.54-2.113.675-.2c1.241-.378,2.116-.358,2.67.063a2.224,2.224,0,0,1,.695,1.932l1.711.741v-.007l0,0,.154-1.689c-.024-.046-.05-.092-.076-.138a2.982,2.982,0,0,1-.3-.672c-.062-.225.1-.379.271-.51-1.332-1.83-3.3-2.37-5.376-2.94a15.311,15.311,0,0,1-3.689-1.366c-2.993,2.745-6.09,1.727-8.827.829-.51-.169-1.011-.333-1.5-.471l-6.759,3.2L85.066,71.3l-5.713,5.422-.211-.281a3.653,3.653,0,0,1-.922-2.923,3.52,3.52,0,0,1,1.924-2.214c1.255-.708,2.517-1.4,3.778-2.1l1.712-.945,2.135-1.028-.208.337.683-.476c.938-.656,1.927-1.227,2.743-.974a1.807,1.807,0,0,1,1.071,1.1l.009,0,.081.212,6.462.95,1.656-7.227,5.427,1.239-.578-1.909.356-.054c3.869-.592,6.527,1.634,8.917,3.962,7.322,7.13,10.5,15.517,9.438,24.926-.035.317-.074.637-.113.955-.356,2.909-.694,5.655,1.285,8.152a2.551,2.551,0,0,1,.542,1.905c-.258,1.081-.476,2.212-.69,3.3a29.466,29.466,0,0,1-2.558,8.527c-1.5,2.737-4.724,4.666-7.573,6.368A38.193,38.193,0,0,1,107.223,121.652ZM94.069,80.88l-2.793.42.136-.468c.731-2.507.878-2.6,3.927-2.482l.506.019L94.6,80.608l2.236,2.232-2.38,1.5c-.25.227-.49.475-.727.722A7.2,7.2,0,0,1,91.856,86.6a26.547,26.547,0,0,1-3.589,1.339c-.578.186-1.182.379-1.815.6l-.414.143V81.212l.866-.22.134.3.775,3.63c1.012.313,1.845-.224,2.73-.792,1.022-.659,2.169-1.4,3.541-.534Zm8.737,2.379a2.842,2.842,0,0,1,1.05,1.951H106l-.494,1.484-2.038-1.059-6.79-2.089,1.8-.337C100.352,82.856,101.828,82.574,102.807,83.259Zm-3.817-4.908,1.463.144-.862,1.271Zm1.621-3.311,1.057-.227.484.789-.56.108a1.547,1.547,0,0,1-.351.051h-.046c-.225-.012-.313-.209-.364-.327Zm2.113,21.62-.355.074c-.135.027-.266.062-.4.1a3.588,3.588,0,0,1-.9.157,1.328,1.328,0,0,1-.178-.011c-.316-.034-.414-.382-.528-.787-.034-.116-.066-.235-.1-.329l-.112-.293,1.9-.708ZM90.567,93.786c-1.42.082-3.193.178-3.386-3.177l-.043-.757,3.635,3.274,4.073-6.2.239.493c.831,1.7.135,3.2-.48,4.53-.636,1.371-1.185,2.557-.239,3.855h0l2.563-.588-.406,2.847-2.3-1.762-.113,0c-.236-.007-.488.005-.738.013-.942.038-1.915.07-2.461-.583a2.379,2.379,0,0,1-.318-1.946Z" transform="translate(5.449 3.8)"/><path class="a" d="M77.475,91.375l.016.086-.663-.627L74.9,89.81a5.2,5.2,0,0,0,2.934,3.831l-.1-1.949Z" transform="translate(11.342 15.851)"/><path class="a" d="M78.13,90.681a21.864,21.864,0,0,1-2.09-3.908l.865,4.722.393.385v-.02l.457.467.073.053c.246.174.5.341.748.51a16.594,16.594,0,0,1,1.587,1.159c6.612,5.695,13.339,6.323,20.519,1.9a15.747,15.747,0,0,0-2.317.588C90.967,99.157,82.459,96.7,78.13,90.681Z" transform="translate(10.848 14.757)"/><path class="a" d="M80.491,65.217l.353-.336-.47.94,3.955-1.6-3.113-.175Z" transform="translate(12.685 9.429)"/><path class="a" d="M100.618,78.606l-.473-2.267-3.368,1.638,0,.012.981,2.627Z" transform="translate(16.814 12.449)"/><path class="a" d="M72.434,57.131l-1.244,1.19-.4-1.229-2.625.366,2.177,2.634-.159.2C65.839,65.728,62.7,72.479,60.6,80.926a10.824,10.824,0,0,1-1.645,3.206c-.225.34-.456.69-.669,1.039.022.154.049.306.077.46a4.552,4.552,0,0,1,.111,1.271c-.965,9.505-.224,17.133,2.328,24.006.179.486.328,1,.471,1.5.536,1.874,1.044,3.652,3.208,4.145l-.228-.776c-.294-1.011-.59-2.021-.905-3.025q-.945-3.01-1.9-6.014-1.237-3.9-2.463-7.81a2.615,2.615,0,0,1-.076-1.331,90.923,90.923,0,0,0,1.571-9.712c.659-5.272,1.34-10.722,3.544-15.734,1.569-3.568,3.544-7.122,7.329-8.955.856-.414,1.515-.943,1.537-1.231.269-3.5,2.639-5.11,4.933-6.663a16.482,16.482,0,0,0,3.033-2.417,4.912,4.912,0,0,1,2.133-1.239c5.054-1.54,9.976-.634,13.738.36l2.04-2.548.237.347c3.607,5.24,8.325,6.353,14.808,3.479A59.975,59.975,0,0,0,89.9,47.745l-.627-.007.107-.138h-.269L71.642,56.815Z" transform="translate(5.413 3.34)"/><path class="a" d="M103.336,55.166a80.4,80.4,0,0,1,7.12,9.218c1.382,1.981,2.812,4.031,4.329,5.955,1.123,1.422,1.059,3.047-.177,4.715,1.19.656,1.131,1.8,1.078,2.826a3.761,3.761,0,0,0,.125,1.576c.834,2,1.491,3.585,3.842,3.907-.854-6.354-2.282-13.659-6.183-20.089-3.276-5.4-7.47-9.048-12.481-10.855l.069.085C101.787,53.4,102.54,54.318,103.336,55.166Z" transform="translate(17.17 5.755)"/><path class="a" d="M109.023,73.4a19.788,19.788,0,0,0-10.8-10.64,19.361,19.361,0,0,0-3.662-.905c-.49-.089-.982-.178-1.476-.281-.09,2.772.815,4.163,2.989,4.627a10.341,10.341,0,0,1,6.894,5.511c1.525,2.735,2.866,5.626,4.166,8.419.5,1.089,1.012,2.175,1.53,3.257l.2-.167-.105.374c.024.051.047.1.072.152l.714,1.487-.422-.393.545,1.51A17.847,17.847,0,0,0,109.023,73.4Zm-2.472,1.4-.391-2.03,1.089.093Z" transform="translate(15.293 8.131)"/><path class="a" d="M82.8,91.7l.022-.03.256.009c.649.215,1.32.5,1.969.777,1.529.654,3.108,1.328,4.351,1.015a12.014,12.014,0,0,1,2.3-.259c2.328-.12,4.53-.232,4.967-3.236-.51.061-1.02.127-1.532.192C90.839,90.717,86.4,91.289,82.3,89c-.491.681-1.016,1.542-.81,2.042C81.624,91.35,82.062,91.57,82.8,91.7Z" transform="translate(12.537 15.618)"/><path class="a" d="M80.253,91.3l.459.932c.171-.038.46-.119.742-.2.209-.059.447-.124.706-.194C78.142,88.645,77.8,84.4,77.994,79.6a4.1,4.1,0,0,0-.978,4.519A76.78,76.78,0,0,0,80.253,91.3Z" transform="translate(11.714 12.961)"/><path class="a" d="M93.657,90.822c.053,0,.107.009.161.012a2.881,2.881,0,0,0,1.752-.165,10.3,10.3,0,0,0,3.857-6.348Z" transform="translate(15.95 14.368)"/><path class="a" d="M96.44,92.227a3.092,3.092,0,0,0-.35,1.592v.026c2.479-1.478,3.669-3.189,3.77-5.433l-.536.559A36.7,36.7,0,0,0,96.44,92.227Z" transform="translate(16.644 15.436)"/><path class="a" d="M103.442,81.39l.7-2.469C103.3,79.675,103.184,80.075,103.442,81.39Z" transform="translate(18.594 13.16)"/><path class="a" d="M99.342,95.183l1.7-2.763-1.462-.668Z" transform="translate(17.551 16.356)"/><path class="a" d="M91.793,66.245l.1-.007-.011-.04Z" transform="translate(15.707 10.02)"/><path class="a" d="M85.628,66.457h0Z" transform="translate(14.15 10.087)"/><path class="a" d="M86.886,66.379v-.024l-.316-.015Z" transform="translate(14.377 10.057)"/><path class="a" d="M83.732,97.868,84,97.8l-.252-.1Z" transform="translate(13.66 17.994)"/><path class="a" d="M100.177,84.733h0Z" transform="translate(17.834 14.715)"/><path class="a" d="M133.5,142.776l-.046.031c.005.057,0,.113,0,.17h.128Z" transform="translate(23.221 27.594)"/><path class="a" d="M64.522,152.159a2.947,2.947,0,0,0-.905.254l.634.488.625-.457A1.31,1.31,0,0,0,64.522,152.159Z" transform="translate(8.543 30.872)"/><path class="a" d="M30.293,131.216l.223.518.883-.367a1.6,1.6,0,0,0-.572-.381,1.53,1.53,0,0,0-.461.19C30.342,131.19,30.317,131.2,30.293,131.216Z" transform="translate(2.472 23.474)"/><path class="a" d="M155.991,68.874a1.87,1.87,0,0,0-.1-.251l-.076.027Z" transform="translate(31.037 10.629)"/><path class="a" d="M153.3,60.2a1.964,1.964,0,0,0-.252.1c.008.024.019.051.027.077Z" transform="translate(30.07 8.499)"/><path class="a" d="M151.23,54.855l.224-.174a1.767,1.767,0,0,0-.251.1C151.211,54.8,151.222,54.829,151.23,54.855Z" transform="translate(29.425 7.101)"/><path class="a" d="M154.224,113.588l-.108.043.108.088Z" transform="translate(30.443 22.016)"/><path class="a" d="M143.15,135.8v-.129l-.108.043Z" transform="translate(26.573 25.112)"/><path class="a" d="M46,143.188l.177.225a2.112,2.112,0,0,0-.1-.254Z" transform="translate(4.112 27.728)"/><path class="a" d="M46.8,144.022c.085.069.169.135.255.193l.009-.011-.2-.246Z" transform="translate(4.314 28.007)"/><path class="a" d="M47.062,145.845l-.012-.009-.246.2.065.065C46.938,146.013,47,145.929,47.062,145.845Z" transform="translate(4.313 28.663)"/><path class="a" d="M53.51,147.675l-.247.2.065.065c.069-.085.135-.169.193-.254Z" transform="translate(5.948 29.306)"/><path class="a" d="M46.8,148.625c.085.067.169.134.255.192l.009-.011-.2-.246Z" transform="translate(4.314 29.615)"/><path class="a" d="M60.765,153.31l.177.225a1.805,1.805,0,0,0-.1-.254Z" transform="translate(7.849 31.265)"/><path class="a" d="M45.333,19.725l-.108.043.108.088Z" transform="translate(3.916 -0.367)"/><path class="a" d="M30.258,122.264l-.179-.178v.178Z" transform="translate(2.398 24.165)"/><path class="a" d="M39.307,132.209v.178h.178Z" transform="translate(2.417 23.902)"/><rect class="a" width="0.148" height="0.005" transform="translate(60.228 19.83)"/><path class="a" d="M46.138,156.4c-.279,1.4-.706,2.139-1.333,2.309-.912.252-1.808-.785-2.679-1.785a21.886,21.886,0,0,1-1.541-2.085,12.338,12.338,0,0,0-2.479-2.958,7.725,7.725,0,0,1-1.78-2.227c-.7-1.148-1.368-2.233-2.791-2.563l-.418-.1.221-.368a3.532,3.532,0,0,0,.161-.32,1.566,1.566,0,0,1,.6-.793,2.023,2.023,0,0,1,.675-.158,1.645,1.645,0,0,0,.41-.08,2.963,2.963,0,0,0-.3-.488q-3.413-4.583-6.867-9.133l-2.32-3.074c-.154.171-.316.362-.476.552-.8.942-1.274,1.464-1.739,1.3a2.275,2.275,0,0,1-1.536-1.4c-.3-.908.027-2.083.966-3.495-.266-2.526-3.2-10.566-4.8-12.587-.1-.128-.206-.255-.309-.379a3.606,3.606,0,0,1-1.154-3.05c0-.1-.243-.372-.375-.521l0,0a1.984,1.984,0,0,0-.19.53c-.131.839-.231,1.683-.332,2.527l-.225,1.843-.464-.71c-.211-.32-.444-.633-.677-.946a8.729,8.729,0,0,1-1.36-2.268,20.667,20.667,0,0,1-.806-3.7,13.67,13.67,0,0,0-1.614-5.381c-.511-.815.606-2.634.835-2.99.5-.772.968-1.108,1.416-.995s.688.634.752,1.587a1.244,1.244,0,0,0,.281.509,1.817,1.817,0,0,0,.285-.362c-.17-.615-.394-1.289-.611-1.939-.2-.6-.406-1.221-.575-1.847a1.937,1.937,0,0,1,.484-1.4c.205-.324.486-.764.4-.931-.036-.067-.246-.287-1.413-.3l-.511-.007.242-.451c.053-.1.1-.21.146-.321a1.987,1.987,0,0,1,.511-.8,3.21,3.21,0,0,1,.686-.414,2.84,2.84,0,0,1-.887-.4c-.278-.205-.291-.6-.3-.977a3.294,3.294,0,0,0-.027-.4c-.062-.375-.134-.749-.206-1.124a19.114,19.114,0,0,1-.364-2.468,15.7,15.7,0,0,1,.042-1.9,7.987,7.987,0,0,0-.162-2.944,7.685,7.685,0,0,0-1.789-2.552c-.251-.275-.509-.559-.75-.846-.248.283-.5.563-.761.842A15.239,15.239,0,0,0,6.158,84.2a3.878,3.878,0,0,0,.116,2.337l.09.4a5.752,5.752,0,0,0,.429,1.136,4.681,4.681,0,0,1,.517,1.6c.024.356.023.722.022,1.085-.007,1.607-.013,2.877,2.17,3.1l.308.031-.028.308a2.92,2.92,0,0,0,.606,1.591c.65,1.082,1.46,2.43-.61,3.874-.475.333-.784,1.424-.846,2.994-.031.78-.143,1.577-.251,2.348-.362,2.577-.7,5.013,1.673,7.106a2.28,2.28,0,0,1,.493,1.586,2.841,2.841,0,0,0,.26,1.237,3.827,3.827,0,0,0,1.138.9c.614.379,1.194.737,1.214,1.27.073,2.023.95,2.785,2.765,3.639,1.2.567,1.984,1.066,2.177,1.81.205.788-.273,1.642-1.352,3.145l-.072.1c-.266.368-.972,1.348-.856,1.61.336.754.645,1.53.953,2.306,1.174,2.954,2.387,6.009,5.3,7.877a2.434,2.434,0,0,0,.359-.178,2.41,2.41,0,0,1,.775-.317,5.164,5.164,0,0,1,4.952,2.241,1.835,1.835,0,0,1-.147,2.187c-1.656,1.955-.883,3.436-.066,5a6.432,6.432,0,0,1,.965,2.858,3.623,3.623,0,0,0,1.16.51,2.249,2.249,0,0,1,2.119-.785,2.637,2.637,0,0,1,1.738,1.752c.664,1.966,2.285,3.043,4,4.183,1.918,1.275,3.9,2.594,4.388,5.238a.606.606,0,0,0,.108.05c2.15-1.464,4.2-.86,5.794-.08.05-.08.1-.161.158-.243.147-.223.391-.594.355-.718a8.551,8.551,0,0,0-1.445-2.961A3.433,3.433,0,0,0,46.138,156.4ZM8.152,85.258c.074-.038.148-.078.223-.12a2.6,2.6,0,0,1,.683-.294c.254-.055.432.154.583.339.039.049.078.1.115.134l.308.3-.387.194c-.073.036-.146.077-.217.117a2.611,2.611,0,0,1-.69.3.394.394,0,0,1-.086.009c-.212,0-.363-.184-.5-.348-.039-.049-.078-.1-.115-.134l-.309-.306Zm.995,6.074-1.371-.754.3-.294c.036-.038.076-.085.115-.134.152-.186.327-.389.583-.339a2.606,2.606,0,0,1,.683.294c.076.042.148.082.223.12l.39.193Zm21.291,52.051a1.758,1.758,0,0,0-.134.117l-.293.293-.758-1.368.915-.914.194.387c.036.074.078.147.119.221a2.593,2.593,0,0,1,.3.681C30.835,143.059,30.624,143.231,30.438,143.382Z" transform="translate(-6.012 5.872)"/><path class="a" d="M132.025,26.471a3.032,3.032,0,0,0-.171-.275,2.25,2.25,0,0,0-.242.486,2.48,2.48,0,0,0,.252,1.147c1.117-.058,1.721.857,2.237,1.662.715,1.113,1.221,1.765,2.541,1.231.777-.314,2.321,2.177,2.336,2.2a12.756,12.756,0,0,1,1.541,3.793c.034.166.66.515,1,.7.748.418,1.455.812,1.371,1.4-.069.494-.667.856-2.036,1.213l.009.019a1.9,1.9,0,0,0,.279.432l.58.005a2.575,2.575,0,0,1,2.019.565,2.312,2.312,0,0,1,.34,1.869c-.089.681-.089.681,2,1.264l.4.109c.486.131.989.266,1.092.641.714,2.6,2.374,4.512,4.129,6.534l.6.7c.715.833,1.214,1.468,1.58,1.932.922,1.173.981,1.266,1.8,1.259h.123a6.06,6.06,0,0,1,3.961,1.3,9.261,9.261,0,0,0,.86-.386c.2-.1.412-.2.631-.3-.387-.575-.744-1.117-1.081-1.634a38.891,38.891,0,0,0-2.322-3.3c-1.144-1.4-2.352-2.793-3.521-4.139-1.3-1.492-2.634-3.035-3.894-4.6-.023-.028-2.229-2.9-1.559-3.684a1.41,1.41,0,0,0,.471-1.061c-.05-.258-.294-.491-.77-.737a12.328,12.328,0,0,1-4.118-4.056,18.983,18.983,0,0,0-2.187-2.634l-.105-.1.005-.144c.074-1.575-.884-1.884-2.451-2.258-1.223-.29-2.591-.617-2.88-2.1l-.278.247a13.605,13.605,0,0,1-1.974,1.534,1.507,1.507,0,0,1-1.174-.043,2.89,2.89,0,0,0-.645-.138C132.408,27.127,132.2,26.778,132.025,26.471Zm15.3,14.7c.076-.036.15-.078.224-.119a2.614,2.614,0,0,1,.684-.294c.26-.061.429.152.58.337a1.5,1.5,0,0,0,.115.134l.3.294-1.374.757-.916-.915Z" transform="translate(22.573 1.663)"/><path class="a" d="M19.742,62.892c.478.345.762.609.812.92a.992.992,0,0,1-.293.745c-.065.088-.139.188-.215.306a3.262,3.262,0,0,0-.335,1.393c-.009.088-.018.174-.027.26.144-.036.294-.069.44-.1.479-.111,1.2-.275,1.286-.487A15.438,15.438,0,0,0,22.645,60.6a2.62,2.62,0,0,1,2.336-2.966,4.568,4.568,0,0,0,.009-1.545h-.626l.355-.282a2.786,2.786,0,0,1-.56-.574l-.282-.363.44-.128c.076-.023.167-.057.259-.09.362-.135.649-.242.83-.005a1.62,1.62,0,0,1,.211.381,13.312,13.312,0,0,0,1.47-1.739l.038.027.077-.184.436-.61a11.076,11.076,0,0,1,3.5-3.606,1.5,1.5,0,0,1-.664-1.08c-.038-.7.6-1.275,1.224-1.743.538-.4,1.082-.8,1.625-1.2l.645-.472a6.109,6.109,0,0,0,.053-.961,3.177,3.177,0,0,1,1.926-3.309A8.154,8.154,0,0,0,40.2,32.513l-5.344.362c.084.325.174.652.263.978a18.1,18.1,0,0,1,.65,3.032c.088.914-.02,1.386-.36,1.58-.424.246-.922-.119-1.4-.47a3.416,3.416,0,0,0-.6-.378c0,.024-.007.069-.012.135a3.642,3.642,0,0,1-1.909,2.714,3.26,3.26,0,0,0-1.6,1.949c-.092.506-.977.789-1.5.914-1.3.308-2.04.484-2.2.754-.132.224.008.73.243,1.568l.051.188c.009.034.779,3.347.024,3.568a2.9,2.9,0,0,0-2.281,2.442l-.119.6L23.7,52c-.086-.093-.185-.181-.283-.27a2.007,2.007,0,0,1-.641-.812,9.652,9.652,0,0,1-.327-1.534,8.014,8.014,0,0,0-.812,1.4,25.589,25.589,0,0,1-3.244,6.171,4,4,0,0,0-1.124,2.909C17.407,60.817,18.171,61.752,19.742,62.892Zm1.36-6.387.293.291c.038.036.086.076.135.115.186.151.4.324.34.582a2.605,2.605,0,0,1-.3.688c-.04.072-.081.144-.117.219l-.193.383-.915-.911Z" transform="translate(-2.086 0.99)"/><path class="a" d="M23.147,50.057c-.005-.036-.007-.074-.013-.111a2.667,2.667,0,0,1-.258-.171l-.355.282Z" transform="translate(-0.243 5.857)"/><path class="a" d="M161.365,98.2l.015.062.4-.15c0-.186-.007-.379-.008-.582C161.624,97.758,161.49,97.982,161.365,98.2Z" transform="translate(32.976 17.925)"/><path class="a" d="M165.717,88.953c1.128-.1,1.26-.757,1.428-1.59a2.58,2.58,0,0,1,.676-1.522l-2.488-3.26-.715,2.738a10.516,10.516,0,0,0-.2,1.1c-.045.3-.089.615-.151.905l.221-.219a1.762,1.762,0,0,0,.116-.134c.151-.185.317-.391.579-.339h0a2.636,2.636,0,0,1,.684.3c.073.042.147.081.221.119l.389.193-.915.915-1.32-.727a2.017,2.017,0,0,1-.719,1.3,5.785,5.785,0,0,1-2.73.637,12.256,12.256,0,0,0-1.4.154c-.085.016-.231.19-.341.32a2.239,2.239,0,0,1,1.005,1.282,2.884,2.884,0,0,1-.714,2.151,2.586,2.586,0,0,0-.66,1.795c.271,1.224.727,3.27-1.066,4.836-.243.213-.169.43.215,1.066.435.721,1.093,1.811-.37,2.843a.814.814,0,0,0-.383.48c-.05.3.227.68.52,1.088.551.769,1.3,1.823.252,3.062a1.762,1.762,0,0,0-.52,1.658,3.029,3.029,0,0,0,2.248,1.625l.171.049.1.217c.069.25-.121.447-.383.721-.152.159-.557.582-.506.727,0,.008.086.209.962.308a2.442,2.442,0,0,0,2.712-1.335c.028-.157-.4-.717-.622-1.017a7.9,7.9,0,0,1-.59-.851l-.166-.283a3.334,3.334,0,0,1-.571-1.4c-.1-1.407-.057-2.8,1.506-5.543a6.891,6.891,0,0,1-.248-1.665,1.564,1.564,0,0,1,.556-.963,3.613,3.613,0,0,0,.275-.314l.389-.522.165.637c.26-4.836.136-5.453,0-5.631l-.286-.362.443-.13c.076-.022.167-.057.259-.09.362-.138.65-.243.833,0a2.39,2.39,0,0,1,.339.768c.023.077.046.154.072.228a6.559,6.559,0,0,1,1.946-2.413.878.878,0,0,0-.042-.291c-.12-.333-.252-.66-.387-.988a2.649,2.649,0,0,1-.344.806c-.193.287-.609.248-1.048.206a2.817,2.817,0,0,0-.406-.027l-.432,0,.132-.412a2.633,2.633,0,0,0-.016-1.044,2.12,2.12,0,0,1,.2-1.658A1.525,1.525,0,0,1,165.717,88.953Zm-5.452,15.668-.194-.386c-.036-.074-.078-.147-.117-.219a2.615,2.615,0,0,1-.3-.687c-.055-.26.157-.433.343-.584a1.686,1.686,0,0,0,.132-.115l.293-.289.758,1.366Zm1.1-11.494-.918-.914.39-.194c.074-.038.148-.077.223-.119a2.568,2.568,0,0,1,.684-.294c.26-.051.43.152.582.337.04.049.08.1.116.134l.3.294Z" transform="translate(31.477 12.882)"/><path class="a" d="M162.711,92.773c.038-.154.084-.308.136-.46h-.013A3.212,3.212,0,0,0,162.711,92.773Z" transform="translate(33.446 16.617)"/><path class="a" d="M162.79,93.15c-.17,1.005-.391,2.629-.66,4.859v.02c0,.294,0,.591,0,.88l.279,1.055-.259.1a10.316,10.316,0,0,0,.4,3.2c.119-.3.251-.614.385-.93.547-1.279,1.111-2.6.811-3.558A13.659,13.659,0,0,1,162.79,93.15Z" transform="translate(33.241 16.422)"/><path class="a" d="M49.052,20.828a1.3,1.3,0,0,1,.924.236,2.883,2.883,0,0,0,.3.15l.317.124-.279.569A6.116,6.116,0,0,1,50,22.52c-.928,1.5-2.337,1.444-3.583,1.387l-.193-.008a2.584,2.584,0,0,0,.85.586,2.457,2.457,0,0,0,.706.07c.6.007,1.49.016,1.644,1.155.208-.078.483-.308.946-.973.364-.8.524-1.12.737-1.163L52.241,21.7l-.421,1.316a1.191,1.191,0,0,1,.911-.359.549.549,0,0,1,.409.409,1.647,1.647,0,0,1-.205,1.457,16.76,16.76,0,0,1-1.718,1.331l-.337.24a6.52,6.52,0,0,0-.169.839c2.147-.374,4.3-.851,5.4-3.009a1.867,1.867,0,0,1-.826-.08,2.821,2.821,0,0,1-.847-.6c-.1-.089-.2-.178-.3-.259l-.428-.339.509-.2c.1-.039.206-.084.309-.13a3.515,3.515,0,0,1,.807-.277,4.49,4.49,0,0,1,.911-.03l.049,0v-.067l.117.026c.076-.184.163-.375.254-.568.155-.329.478-1.017.394-1.163-.555-.815-.707-1.309-.511-1.65.224-.39.742-.351,1.247-.314a1.833,1.833,0,0,0,.722-.028,4.266,4.266,0,0,1,.788-1.29A3.708,3.708,0,0,0,60,15.856c.169-.538.351-.919.69-1.031s.668.115,1.067.408l.188.138c1.071.768,2.235,1.456,3.361,2.121.359.213.718.425,1.074.641a3.176,3.176,0,0,0-.622-1.683c-.659-1.134-1.476-2.545.59-3.927a4.45,4.45,0,0,0-.088-1.174c-.022-.14-.042-.281-.059-.416-.085.047-.171.093-.258.142-.5.273-1.009.556-1.541.789-.493.215-1.008.4-1.506.578a11.3,11.3,0,0,0-2.629,1.192,14.41,14.41,0,0,0-2.3,2.142c-.4.424-.792.849-1.209,1.246a1.7,1.7,0,0,1-1.038.351l-.146-.018-.124-.142c-.223-.347-.433-.54-.607-.56-.244-.028-.536.264-.826.547-.461.448-1.085,1.055-1.878.659-.121.109-.328.344-.5.54a4.808,4.808,0,0,1-2.024,1.644c-.3.062-.592.107-.884.148a3.218,3.218,0,0,0-2.619,1.27,2.1,2.1,0,0,0-.182.375l.363-.125C47.186,21.4,48.116,21.081,49.052,20.828Zm4.676-1.181.918.915-.389.193c-.076.038-.15.078-.224.119a2.572,2.572,0,0,1-.684.3.464.464,0,0,1-.085.008c-.212,0-.362-.184-.5-.347a1.761,1.761,0,0,0-.115-.134l-.3-.293Z" transform="translate(3.691 -3.439)"/><path class="a" d="M119.995,19.1a2.724,2.724,0,0,0-.978.7c-.078.074-.158.148-.237.221l.9.895a4.556,4.556,0,0,1,3.313,1.209c.125.093.671-.119,1.031-.259a3.35,3.35,0,0,1,1.7-.358c3.776.742,3.9.93,6.367,5.43l.125-.124.074.4,3.151,1.046V27.259l.178-.085a1.756,1.756,0,0,1,1.092-.023c.3.057.6.111.749,0a.928.928,0,0,0,.24-.591c-.039-.267-1.162-4.348-1.363-4.9-.436-.385-.864-.784-1.291-1.185a24.652,24.652,0,0,0-3.164-2.644c-.665-.44-1.391-.136-2.229.212-.986.409-2.092.868-3.183.028-1.131,2.1-2.782,1.657-4.245,1.263A4.343,4.343,0,0,0,119.995,19.1Zm14.783,3.282c.047-.039.1-.078.132-.115l.293-.29.757,1.366-.915.911-.194-.383c-.036-.074-.077-.147-.117-.219a2.641,2.641,0,0,1-.3-.687C134.38,22.7,134.591,22.533,134.778,22.382Zm-1.488,2.8c.076-.023.167-.057.259-.09.362-.134.648-.243.831-.005a2.343,2.343,0,0,1,.337.762c.027.089.054.177.084.262l.05.14a7.069,7.069,0,0,1,.756.627l.046.045-.43.451a6.158,6.158,0,0,0-1.151-.889,2.82,2.82,0,0,1-.313-.188L133.1,25.9h.217c-.069-.078-.128-.155-.188-.229l-.282-.362Z" transform="translate(21.496 -1.105)"/><path class="a" d="M36.276,33.593a20.986,20.986,0,0,1,2.016-1.511l.432-.278a6.282,6.282,0,0,1,2.8-1.25c1.831-.127,4.12-.513,5.565-2.4,1.123-1.463,2.486-1.43,3.8-1.4.248.005.5.011.748.005L53.9,23.379l-.872-.869c-.158.119-.313.242-.47.364a10.081,10.081,0,0,1-1.685,1.152c-.264.132-.541.24-.818.347a3.939,3.939,0,0,0-1.432.787l-.02.251-.227-.054a4.119,4.119,0,0,1-2.272.636c-.277-.018-.359-.27-.452-.723-.023-.105-.045-.209-.065-.29l-.084-.321.325-.063c.15-.03.3-.065.449-.1a6.563,6.563,0,0,1,1.206-.2.887.887,0,0,1,.506.209l.046.032a2.418,2.418,0,0,0-.542-1.928,2.122,2.122,0,0,0-1.9-.175A5.913,5.913,0,0,0,44,23.186c-.252.15-.506.3-.764.43l-.42.216-.034-.47c-.039-.553-.24-.923-.565-1.04a.682.682,0,0,0-.235-.04,1.024,1.024,0,0,0-.717.331,26.485,26.485,0,0,0-2.1,2.606,20.467,20.467,0,0,1-2.841,3.321c-2.209,1.932-1.888,3.622-.63,5.526C35.888,33.909,36.081,33.751,36.276,33.593Zm3.3-6.446c.042-.074.082-.146.113-.208.306-.614.619-1.227.932-1.837l.533-1.044.3.3a3.046,3.046,0,0,1,.2.229,1.09,1.09,0,0,0,.31.3c1.561.66,2.2.927,2.3,1.475s-.381,1-1.434,2.021c-.248.242-.507.493-.8.493a.511.511,0,0,1-.19-.036c-.259-.1-.424-.374-.526-.924a1.549,1.549,0,0,1-1.077.722,1.089,1.089,0,0,1-.862-.547C39.2,27.829,39.383,27.5,39.58,27.147Z" transform="translate(0.983 0.526)"/><path class="a" d="M115.736,14.036a.706.706,0,0,1,.757.019l.2.165-.1.27a3.938,3.938,0,0,1-.441.615l-.355.449-.188-.186c-.1.32-.184.659-.112.766.691,1.036,3.618,2.231,5.909,2.413a2.621,2.621,0,0,0,1.912-.331A4.065,4.065,0,0,0,124,16.151c.034-.215.07-.435.111-.65a1.4,1.4,0,0,1-.905-.139,2.016,2.016,0,0,1-.775-1.432c-.146-.625-.246-.924-.542-.961a4.316,4.316,0,0,0-2.638.483c-.549.347-.934.563-1.294.414s-.487-.609-.607-1.148a4.007,4.007,0,0,0-1.178-1.787c-.429-.433-.818-.622-1.113-.551-.323.088-.6.524-.773,1.225a1.741,1.741,0,0,0-.012.522,2.209,2.209,0,0,1-.023.7,2.647,2.647,0,0,1-.39.807c-.059.094-.119.19-.173.287l-.255.466a9.8,9.8,0,0,0,1.592-.108C115.265,14.085,115.5,13.9,115.736,14.036Z" transform="translate(20.648 -3.637)"/><path class="a" d="M104.7,12.6c.092.072.188.152.287.236.275.232.735.6.924.58a10.294,10.294,0,0,1,2-.185,23.693,23.693,0,0,1,4.369.54,24.442,24.442,0,0,0,4.375.549l-.232-.482c-.073-.148-.139-.3-.2-.459a3.733,3.733,0,0,0-.474-.9,3.671,3.671,0,0,0-.769-.65l-.158-.113-.98,1.212-.529-1.324-.157.008a3.524,3.524,0,0,1-.905-.032,3.4,3.4,0,0,1-1.009-.478c-.374-.227-.8-.483-1.009-.378-.128.063-.363.332-.482,1.417a.909.909,0,0,1-.818.793,1.921,1.921,0,0,1-1.946-1.21,4.057,4.057,0,0,0-.752-1l-.155-.169c-.02.035-.042.069-.065.1-.251.409-.51.833-.915.881-.992.12-1.081.3-1.085.308S103.992,12.05,104.7,12.6Z" transform="translate(18.215 -3.569)"/><path class="a" d="M152.688,51.1c-.163-.03-.4.163-.671.364l-.254.189c-1.25.9-.845,1.467-.232,2.325a3.914,3.914,0,0,1,.613,1.1l.076-.027v.32a9.949,9.949,0,0,1,2.49,7.13h0v.093c0,.086,0,.167,0,.255.239.336.488.667.739,1a15.866,15.866,0,0,1,1.677,2.542c.99,2.036,2,3.36,3.95,3.67a2.018,2.018,0,0,0,1.43-.229,1.513,1.513,0,0,0,.179-1.264,21.024,21.024,0,0,0-.9-1.908,15.007,15.007,0,0,1-1.214-2.82c-.889-3.229-2.858-5.877-4.762-8.437-.924-1.246-1.881-2.532-2.708-3.874C152.944,51.271,152.8,51.121,152.688,51.1Zm2.816,8.458c.074-.038.148-.078.221-.119a2.6,2.6,0,0,1,.688-.3c.262-.061.429.152.579.337.04.049.08.1.116.134l.309.306-.389.194c-.074.036-.146.077-.219.117a2.62,2.62,0,0,1-.691.3.454.454,0,0,1-.084.009c-.212,0-.362-.184-.5-.348-.039-.047-.078-.1-.116-.134l-.308-.306Z" transform="translate(29.336 5.763)"/><path class="a" d="M157.858,116.165c-.228-.524-.574-1.316-.75-1.36l-.019,0a3.22,3.22,0,0,0-.905.592l-.282.216a3.7,3.7,0,0,0-1.348,4.522c.737,1.648-.175,2.818-.98,3.85-.792,1.016-1.476,1.895-.719,3.147l.076.126-.05.161a1.277,1.277,0,0,1-.606.578l-.282.107a6.31,6.31,0,0,1-1.538.433,2.6,2.6,0,0,0-2.071,1.181,2.321,2.321,0,0,0-.107,1.993,2.912,2.912,0,0,0,.553-.161c.024-.124.045-.254.065-.381.092-.592.178-1.151.623-1.274.364-.1.765.161,1.347.868.455.552.765.39,1.422-.035a1.871,1.871,0,0,1,2.568-.061l.032.027c.022-.162.026-.414.028-.6a2.982,2.982,0,0,1,.213-1.359c.456-.78.857-1.406,1.259-1.974,1.03-1.449,1.069-3.127,1.111-4.9A9.7,9.7,0,0,1,158.5,116.9l-.009-.009A2.023,2.023,0,0,1,157.858,116.165Z" transform="translate(28.342 21.413)"/><path class="a" d="M100.381,158.413a1.156,1.156,0,0,0-.385-.031,2.612,2.612,0,0,1-.819,1.853,3.087,3.087,0,0,1-2.483.254,4.016,4.016,0,0,0-1.573-.063,6.324,6.324,0,0,1-2.325.049c-1.229-.13-2.391-.251-3.349.812l-.27.3-.223-.336c-.1-.147-.186-.3-.275-.457a3.248,3.248,0,0,0-.64-.88,1.265,1.265,0,0,0-.6-.058l-.1,0c.005.078.008.157.013.235a4.077,4.077,0,0,1-.073,1.383c-.147.513-.633,1.314-1.208,1.4a1.933,1.933,0,0,1-1.78-.862,33.534,33.534,0,0,1-1.1-3.672l-.2-.783c-.264-1-.791-.926-1.587-.816a4.139,4.139,0,0,1-.937.053c-.049.144-.1.3-.159.447-.123.336-.329.9-.235,1.042.323.483.621,1.009.908,1.518,1.241,2.194,2.421,4.264,5.672,3.48l3.229-.232c3.268-.229,6.649-.467,9.969-.746a3.144,3.144,0,0,0,1.726-.537A2.778,2.778,0,0,0,100.381,158.413Z" transform="translate(11.937 32.453)"/><path class="a" d="M158.637,67.959a3.328,3.328,0,0,0-.878,1.148c-.022.04-.043.08-.066.119a1.747,1.747,0,0,1,.745.084,2.823,2.823,0,0,1,.847.594c.1.09.2.179.3.26l.429.339-.51.2c-.1.04-.206.085-.309.13a3.409,3.409,0,0,1-.807.275,4.226,4.226,0,0,1-.912.031h-.047V71.2c1.88.815,2.082,1.4,1.48,3.795-.016.066-.035.139-.046.192,1.785,1.564,1.031,3.066.366,4.392a10.824,10.824,0,0,0-.515,1.132,2.212,2.212,0,0,0,1,2.807,7.5,7.5,0,0,0,1.212.606,3.123,3.123,0,0,0,.831-1.577A4.543,4.543,0,0,0,160.7,78.9a1.664,1.664,0,0,1-.293-1.607,3.6,3.6,0,0,1,2.668-1.819,3.019,3.019,0,0,0,.737-.232,2.4,2.4,0,0,0-.047-.435l-.023-.161a10.425,10.425,0,0,0-1.946-4.2,16.661,16.661,0,0,1-1.576-2.78A3.376,3.376,0,0,0,158.637,67.959Z" transform="translate(31.6 9.886)"/><path class="a" d="M158.709,107.993c-.354-.258-.708-.517-1.058-.783l-.209.081c-.084.034-.2.078-.281.113a9.163,9.163,0,0,1-2.357,7.276l.036.022a1.79,1.79,0,0,0,.7.317,1.722,1.722,0,0,0,.922-.382,2,2,0,0,1,1.521-.445,1.8,1.8,0,0,1,1.042.92,1.465,1.465,0,0,0,.748-.1c.63-.389,2.016-4.237,1.722-4.789A27.424,27.424,0,0,0,158.709,107.993Z" transform="translate(30.683 20.026)"/><path class="a" d="M44.6,145.326h0c-.263-.113-.532-.213-.793-.31-.914-.336-1.777-.653-2.077-1.438a2.683,2.683,0,0,1,.364-2.164,5.431,5.431,0,0,0-1.522-1.217,1.479,1.479,0,0,0-1.177.4c-.231.313-.036.672.3,1.231a2.17,2.17,0,0,1,.47,1.638,1.737,1.737,0,0,1-.889,1,1.032,1.032,0,0,0,.04.282c.026.081.05.167.074.256.058.21.147.532.252.6,1.6,1,3.259,1.985,5.014,3.027l1.367.812,0-.02a8.137,8.137,0,0,1,.157-.938A2.634,2.634,0,0,0,44.6,145.326Z" transform="translate(2.303 26.684)"/><path class="a" d="M147.647,129.905c-.274-.224-.555-.453-.8-.676l-.062.07a1.5,1.5,0,0,0-.31.424c.363,2.977.124,4.056-2.156,5.458a1.379,1.379,0,0,0-.7,1.528,4.439,4.439,0,0,1-.009.626l1.31,1.055-1.332.529v.576l.954-.37-.563.563a.822.822,0,0,0,.364-.038c2.992-1.523,3.738-4.49,4.46-7.358.081-.322.163-.645.246-.963C149.087,131.084,148.15,130.317,147.647,129.905Z" transform="translate(26.763 25.362)"/><path class="a" d="M111.27,156.75c-2.025,1.3-4.216,1.259-6.34,1.223a24.2,24.2,0,0,0-2.544.042,3.754,3.754,0,0,0-1.752,1.138,1.986,1.986,0,0,0,.049.668c1.268.371,2.556.684,4.04,1.044l1.154.281,1.051-.548c1.561-.815,3.328-1.737,5.032-2.692a1.584,1.584,0,0,0-.12-.76A1.336,1.336,0,0,0,111.27,156.75Z" transform="translate(17.439 32.477)"/><path class="a" d="M59.611,152.483l-.47-.347c-1.25-.926-2.542-1.885-3.84-2.784a1.253,1.253,0,0,0-.538,0,2.427,2.427,0,0,0,.25.563,3.194,3.194,0,0,0,.514.551c.09.086.182.17.269.258l.331.333-.436.175c-.154.061-.332.153-.509.244-.561.286-1,.516-1.3.266a13.619,13.619,0,0,1-1.7-1.789c-.161-.19-.32-.379-.483-.567h-.189v-.007l-.058,0a5.384,5.384,0,0,0-.785.015c-.528.066-1.053.155-1.577.246l-.224.038c.042.073.082.147.124.221.219.4.445.812.71.915,2.063.793,4.2,1.507,6.271,2.2l1.834.614a1.43,1.43,0,0,1,.435-.843A1.81,1.81,0,0,1,59.611,152.483Z" transform="translate(4.624 29.881)"/><path class="a" d="M79.248,156.772l-.035,0a15.69,15.69,0,0,0-2.558.394c-.093,1-.256,1.656-.746,1.818-.432.142-.92-.151-1.688-1.019-.1-.109-.192-.225-.287-.345a2.763,2.763,0,0,0-.82-.789,9.552,9.552,0,0,0-1.325,3.878,1.011,1.011,0,0,0,.37-.119,1.8,1.8,0,0,1,1.073-.606.613.613,0,0,1,.233.045c.452.178.542.787.569,1.3a1.05,1.05,0,0,0,.4.835,1.475,1.475,0,0,0,.074-.309c.211-1.683,1.062-1.819,1.886-1.949a4.7,4.7,0,0,0,.748-.163,6.345,6.345,0,0,0,2.028-1.407c.223-.2.441-.4.664-.579-.124-.2-.229-.39-.323-.553S79.313,156.861,79.248,156.772Z" transform="translate(10.398 32.484)"/><path class="a" d="M127.141,150.56l-.028.3c-.038.389-.439.534-.758.652a1.839,1.839,0,0,0-.36.159,3.775,3.775,0,0,0,.4.368,1.053,1.053,0,0,0,.822.143c2.214-.827,3.434-2.53,3.83-5.348a2.232,2.232,0,0,0-.826-.208C127.482,146.615,127.345,148.436,127.141,150.56Z" transform="translate(24.093 28.938)"/><path class="a" d="M116.783,153.21c-.065.067-.14.151-.2.223a11.72,11.72,0,0,1-4.858,3.078c-.41.171-.819.341-1.224.525a1.548,1.548,0,0,0-.113.746.723.723,0,0,0,.088.25c.56-.108,1.115-.2,1.66-.29a19.381,19.381,0,0,0,3.8-.881c1.4-.536,1.447-2.1,1.243-3.31C117.162,153.469,116.919,153.3,116.783,153.21Z" transform="translate(20.085 31.24)"/><path class="a" d="M68.29,155.706a35.32,35.32,0,0,0-4.558-1.359c-.478-.121-.955-.24-1.43-.364a.96.96,0,0,0-.7,0l0,.008h-.032l-.016,0c-.13.113-.167.421-.107.868a2.249,2.249,0,0,0,.144.654,2.7,2.7,0,0,0,.785-.2,1.724,1.724,0,0,1,.555-.085c1.475,0,3.6,1.5,4.8,2.643a2.268,2.268,0,0,0,1.4.406c.016-.024.171-.225.3-.386.092-.119.194-.251.312-.39-.119-.171-.235-.358-.351-.547A3,3,0,0,0,68.29,155.706Z" transform="translate(7.804 31.487)"/><path class="a" d="M71.894,155.677l.1-.009c-.011-.14-.016-.274-.022-.4a2.18,2.18,0,0,0-.062-.538c-.13-.084-.285-.2-.44-.306a6.909,6.909,0,0,0-2.406-1.294,12.008,12.008,0,0,0-2.92-.1c-.318.014-.636.028-.951.035.2.806.717.748,1.5.657a2.254,2.254,0,0,1,1.677.235,18.544,18.544,0,0,0,2.928,1.7A1.294,1.294,0,0,0,71.894,155.677Z" transform="translate(8.788 31.163)"/><path class="a" d="M124.694,149.024a18.707,18.707,0,0,0-1.345,1.814c.093.121.29.332.453.507.139.147.291.31.445.483l1.99-1.9-1.258-1.26C124.886,148.785,124.79,148.9,124.694,149.024Z" transform="translate(23.548 29.652)"/><path class="a" d="M121.392,152.161c-.15,0-.435.294-.623.487l-.04.04c.314.428,1.231,1.515,1.653,1.965.383-.466.784-.966,1.336-1.649l.341-.426c-.279-.051-.536-.1-.772-.148A10.467,10.467,0,0,0,121.392,152.161Z" transform="translate(22.864 30.873)"/><path class="a" d="M135.5,141.357a12.023,12.023,0,0,1-.916,1.1,6.157,6.157,0,0,1-.887.7l-.192.136.08.2h-.128c0,.184,0,.368-.012.551a1.5,1.5,0,0,0,.128,1.038,1.042,1.042,0,0,0,.68.262l2.229-2.224-.924-1.842C135.54,141.307,135.521,141.333,135.5,141.357Z" transform="translate(23.212 27.072)"/><path class="a" d="M139.285,141.482a1.386,1.386,0,0,0-.452-.162,28.669,28.669,0,0,0-2.6,2.025,4.7,4.7,0,0,0,.362.7.762.762,0,0,0,.127.049c.815-.549,1.614-1.116,2.3-1.606l.344-.246c-.028-.22-.043-.4-.055-.537C139.3,141.625,139.294,141.539,139.285,141.482Z" transform="translate(24.193 27.085)"/><path class="a" d="M112.221,11.291l.865-1.32-2.285-.3.565,1.616Z" transform="translate(20.416 -3.879)"/><path class="a" d="M39.888,139.468a.68.68,0,0,0,.729.167.913.913,0,0,0,.587-.741,1.474,1.474,0,0,1-.923-.449,1.951,1.951,0,0,1-.283-1.5c.009-.123.019-.244.023-.36a1.484,1.484,0,0,0-.846.861A2.563,2.563,0,0,0,39.888,139.468Z" transform="translate(2.344 25.433)"/><path class="a" d="M142.73,138.436l-.047.19-.192.04c-.564.12-1.131.235-1.7.35-1.753.358-3.567.726-5.3,1.221a5.258,5.258,0,0,0-.142,1.058c-.011.131-.022.259-.032.383.46-.121.957-.286,1.438-.447,1.557-.518,3.029-1.005,3.9-.4.764.532,1.321.742,1.654.638s.518-.6.71-1.124a6.137,6.137,0,0,1,.381-.895l.051-.067,1.876-1.872c-.215-.018-.43-.054-.642-.089C143.7,137.254,143.045,137.145,142.73,138.436Z" transform="translate(23.874 25.689)"/><path class="a" d="M18.987,117.141a1.911,1.911,0,0,0,.289,1.653,1.921,1.921,0,0,0,1.66.29,1.916,1.916,0,0,0-.287-1.653A1.936,1.936,0,0,0,18.987,117.141Z" transform="translate(-1.495 22.806)"/><path class="a" d="M154.685,66.192a5.084,5.084,0,0,0,.487,1.128l.113.215.827-.344L154.935,65.8A1.522,1.522,0,0,0,154.685,66.192Z" transform="translate(30.642 9.874)"/><path class="a" d="M45.11,148.281a1.52,1.52,0,0,0,1.043.13c.182-.013.367-.027.553-.024v-1.637l-1.849.92A.975.975,0,0,0,45.11,148.281Z" transform="translate(3.793 28.982)"/><path class="a" d="M97.013,156.949a2.756,2.756,0,0,0,.945.41,2.2,2.2,0,0,0,.938-.175l-.779-.606Z" transform="translate(16.955 32.417)"/><path class="a" d="M128.831,25.4l-1.59,1.586a1.606,1.606,0,0,0,1.259-.331A1.594,1.594,0,0,0,128.831,25.4Z" transform="translate(24.6 1.617)"/><path class="a" d="M129.4,144.193a2.255,2.255,0,0,0-.422.179l-.054.026.119.219a2.67,2.67,0,0,0,.7.959,3.21,3.21,0,0,0,.66-.263l.159-.072-.169-.171A5.786,5.786,0,0,0,129.4,144.193Z" transform="translate(25.022 28.089)"/><path class="a" d="M130.936,143.2a1.6,1.6,0,0,0-.331,1.255l1.59-1.586c-.067,0-.134-.007-.2-.007A1.456,1.456,0,0,0,130.936,143.2Z" transform="translate(25.448 27.623)"/><path class="a" d="M12.76,102.835l.072.039a1.283,1.283,0,0,0,.46.19,1.6,1.6,0,0,0,.572-.382l-.883-.366Z" transform="translate(-3.654 19.135)"/><path class="a" d="M53.16,149.07v-.587c-.193-.005-.371-.012-.553-.026a1.491,1.491,0,0,0-1.042.131.837.837,0,0,0-.232.482H53.16Z" transform="translate(5.428 29.571)"/><path class="a" d="M158.381,86.133a.959.959,0,0,0,.215.332l.416-.8L158.7,85.2A3.1,3.1,0,0,0,158.381,86.133Z" transform="translate(31.933 14.787)"/><path class="a" d="M57.86,152.117l-.1.007v.633h.575l-.016.013a2.344,2.344,0,0,0,.3-.024,2.48,2.48,0,0,0,.529-.175,2.123,2.123,0,0,0-.6-.425A1.722,1.722,0,0,0,57.86,152.117Z" transform="translate(7.061 30.851)"/><path class="a" d="M56.521,153.535l.607-.487h-.976Z" transform="translate(6.663 31.183)"/><path class="a" d="M60.073,155.049a7.9,7.9,0,0,0-1.088,0c0,.073,0,.15,0,.217.324.05.664.074,1.046.1l.063.005-.005-.093C60.083,155.2,60.079,155.116,60.073,155.049Z" transform="translate(7.376 31.876)"/><path class="a" d="M69.785,157.65a1.236,1.236,0,0,0,.19.456l.039.073.521-.223-.368-.878A1.6,1.6,0,0,0,69.785,157.65Z" transform="translate(10.116 32.591)"/><path class="a" d="M157.011,69.308h-.179l.179.179Z" transform="translate(31.392 10.804)"/><path class="a" d="M134.471,144.944c.086.067.171.134.256.192l.009-.011-.2-.246Z" transform="translate(23.578 28.329)"/><path class="a" d="M74.608,156.071l.177.225a2.113,2.113,0,0,0-.1-.254Z" transform="translate(11.354 32.23)"/><path class="a" d="M99.531,10.414H99.4l.044.108Z" transform="translate(17.632 -3.62)"/><path class="a" d="M102.4,8.031l-.088.108h.13Z" transform="translate(18.369 -4.453)"/><path class="a" d="M59.947,17.329a4.272,4.272,0,0,0-2.491,1.526c-.916.893-1.858,1.822-3.384,1.645v.564h.15l0,.005h.02c1.617.02,3.025.045,4.118-1.483a2.919,2.919,0,0,1,1.9-.8c.216-.039.436-.081.641-.13a5.326,5.326,0,0,0-.237-1.417c-.026,0-.186.019-.314.038S60.1,17.315,59.947,17.329Z" transform="translate(6.007 -1.234)"/><path class="a" d="M67.29,14.768c.579-.981,1.665-.974,2.614-.969,1.312-.005,2.144-.059,2.417-1.459.161-.831,3.09-.762,3.12-.757a12.7,12.7,0,0,1,4.019.776c.167.059.793-.274,1.134-.452.76-.4,1.474-.775,1.924-.385.375.328.351,1.026-.1,2.368l.02,0a1.916,1.916,0,0,0,.515,0l.321-.483c.422-.632.86-1.285,1.575-1.384a2.329,2.329,0,0,1,1.75.734c.525.448.524.447,2.152-.985l.308-.273c.374-.336.761-.684,1.129-.564,2.572.82,5.072.471,7.721.1l.923-.125c1.088-.146,1.895-.219,2.483-.271,1.484-.132,1.606-.143,2.036-.824A6.1,6.1,0,0,1,106.669,7.1a8.383,8.383,0,0,0,.146-.93c.028-.22.058-.453.1-.691-.694.011-1.343.013-1.959.015a38.408,38.408,0,0,0-4.035.146c-1.8.194-3.634.449-5.4.695-1.953.271-3.971.552-5.966.756-.038,0-3.646.286-3.939-.7-.159-.541-.371-.868-.63-.973a1.277,1.277,0,0,0-1.039.243,12.341,12.341,0,0,1-5.647,1.243,18.777,18.777,0,0,0-3.4.4l-.139.034-.117-.084c-1.281-.92-2.061-.286-3.228.824-.911.866-1.931,1.838-3.328,1.268.018.124.035.248.054.372a13.523,13.523,0,0,1,.209,2.487c-.016.393-.351.681-.676.962a2.766,2.766,0,0,0-.467.466c-.2.3-.606.278-.962.26a3.236,3.236,0,0,0-.324-.005,2.264,2.264,0,0,0,.275.467A2.5,2.5,0,0,0,67.29,14.768ZM86.905,9.086c.008-.082.015-.165.019-.247a2.6,2.6,0,0,1,.127-.741v0c.093-.246.363-.275.6-.3.062-.007.124-.013.175-.024l.408-.086L88.12,9.245l-1.263.27Z" transform="translate(7.797 -5.379)"/><path class="a" d="M8.494,75.052c1.4-.178,1.8.781,2.1,1.48.308.721.468,1.034,1.162.823.874-.263,1.355-.254,1.6.03.3.351.063.862-.19,1.406-.055.116-.111.235-.159.351a2.739,2.739,0,0,0,.371.441A2.327,2.327,0,0,0,14.4,77.868a2.6,2.6,0,0,0-1.063-2.135A6.343,6.343,0,0,1,12.29,74.5l-.166-.232a1.277,1.277,0,0,1-.181-.818l.036-.142.144-.081c1.325-.618,1.247-1.729,1.155-3.013-.093-1.306-.2-2.785,1.332-3.743a3.7,3.7,0,0,0,1.4-4.5l-.113-.339c-.157-.474-.32-.962-.439-1-.169-.067-.9.4-1.382.712a2.02,2.02,0,0,1-.931.244h-.012a9.7,9.7,0,0,1-1.924,4.677c-.955,1.5-1.857,2.912-1.81,4.689.018.7,0,1.438-.054,2.341a2.994,2.994,0,0,1-.582,1.25,5.855,5.855,0,0,0-.31.514l.04,0Z" transform="translate(-5.159 8.085)"/></g></g></svg>