<svg xmlns="http://www.w3.org/2000/svg" width="78.867" height="77.124" viewBox="0 0 78.867 77.124"><defs><style>.a{fill:#ceba30;stroke:#ceba30;stroke-width:0.5px;}</style></defs><g transform="translate(-291.453 -4711.75)"><g transform="translate(291.718 4712)"><path class="a" d="M-24.242-1190.379l.5.468a15.213,15.213,0,0,1,1.389,1.445,4.986,4.986,0,0,1,.777,1.253c.1.25.195.518.3.788a3.167,3.167,0,0,0,.43.787,3.31,3.31,0,0,0,.736.629,2.931,2.931,0,0,1,.406.339,2.52,2.52,0,0,1,.333.435,7.753,7.753,0,0,1,.492,1.021c.149.357.293.73.432,1.114.279.77.547,1.587.839,2.442s.591,1.749.952,2.663c.181.457.377.918.595,1.38.109.229.225.462.346.692a6.064,6.064,0,0,1,.339.722,4.49,4.49,0,0,1,.183,1.626q0,.825.01,1.678c.028,2.274.114,4.694.281,7.24.076,1.274.21,2.576.249,3.921a16.883,16.883,0,0,1-.056,2.041c-.03.344-.08.687-.14,1.031s-.141.684-.219,1.025-.156.683-.216,1.029a4.534,4.534,0,0,0-.093,1.041,10.371,10.371,0,0,0,.154,1.057,4.239,4.239,0,0,1,.058.551,1.959,1.959,0,0,1-.008.278,2.27,2.27,0,0,1-.032.278,7.12,7.12,0,0,1-.779,2.082c-.346.661-.747,1.3-1.143,1.939a29.074,29.074,0,0,1-2.7,3.741,45.717,45.717,0,0,1-3.27,3.452q-1.738,1.669-3.626,3.27a29.84,29.84,0,0,1-4.016,2.992,25.049,25.049,0,0,1-4.67,2.1c-1.63.563-3.3,1.028-4.982,1.524s-3.36,1.037-5.089,1.472a31,31,0,0,1-5.311.87,50.272,50.272,0,0,1-5.445.1c-.913-.03-1.824-.064-2.741-.127a15.245,15.245,0,0,1-2.738-.41,25.273,25.273,0,0,1-2.624-.9l-2.6-.973c-.865-.328-1.737-.641-2.6-.991a15.142,15.142,0,0,1-2.5-1.267,24.887,24.887,0,0,1-2.27-1.649c-.728-.586-1.444-1.181-2.162-1.778a41,41,0,0,1-4.109-3.825,32.37,32.37,0,0,1-6.022-9.418,6.521,6.521,0,0,0-.618-1.217c-.248-.375-.583-.69-.88-1.069a2.768,2.768,0,0,1-.369-.627c-.091-.221-.161-.443-.239-.661-.152-.439-.3-.882-.42-1.333-.061-.226-.117-.453-.164-.683s-.082-.467-.117-.689a2.88,2.88,0,0,0-.517-1.212,6.274,6.274,0,0,1-.715-1.21,3.862,3.862,0,0,1-.241-1.4c0-.469.042-.93.08-1.386a12.4,12.4,0,0,0,.048-1.359c-.017-.908-.131-1.815-.153-2.734a9.212,9.212,0,0,1,.064-1.38c.017-.114.03-.228.052-.343l.068-.342c.055-.217.114-.444.173-.659a23.384,23.384,0,0,0,.528-2.643c.134-.889.243-1.781.372-2.668.066-.444.135-.886.218-1.328s.177-.876.269-1.31a30.184,30.184,0,0,1,1.447-5.1,25.026,25.026,0,0,1,2.525-4.567,42.762,42.762,0,0,1,3.122-4.054,42.785,42.785,0,0,1,3.5-3.581c1.224-1.111,2.5-2.122,3.764-3.112a23.949,23.949,0,0,1,3.989-2.592,16.434,16.434,0,0,1,2.152-.894c.735-.244,1.476-.429,2.211-.6,2.941-.688,5.8-1.3,8.544-1.843,1.374-.267,2.72-.549,4.06-.687a14.659,14.659,0,0,1,1.994-.074c.657.021,1.3.081,1.938.145,2.54.26,4.95.508,7.205.826,1.127.162,2.218.322,3.261.549a12.848,12.848,0,0,1,2.924.971,8.62,8.62,0,0,1,1.248.75c.383.281.735.583,1.085.867a9.507,9.507,0,0,0,1.067.766c.364.224.732.425,1.086.631a20.459,20.459,0,0,1,3.476,2.642c.938.857,1.717,1.6,2.358,2.2l1.957,1.837m-.071.076-1.96-1.834c-.642-.6-1.423-1.341-2.36-2.2a20.329,20.329,0,0,0-3.459-2.622c-.352-.2-.721-.405-1.09-.631a9.608,9.608,0,0,1-1.081-.773c-.352-.284-.7-.584-1.081-.861a8.455,8.455,0,0,0-1.23-.737,12.72,12.72,0,0,0-2.9-.956c-1.036-.224-2.126-.383-3.252-.543-2.252-.314-4.661-.559-7.2-.814-.635-.063-1.277-.121-1.928-.141a14.618,14.618,0,0,0-1.974.076c-1.328.138-2.67.422-4.045.691-2.746.547-5.6,1.163-8.535,1.855-.736.169-1.473.355-2.195.6a16.2,16.2,0,0,0-2.128.888,23.771,23.771,0,0,0-3.955,2.578c-1.26.989-2.535,2-3.747,3.108a42.687,42.687,0,0,0-3.479,3.569,42.581,42.581,0,0,0-3.1,4.039,24.777,24.777,0,0,0-2.5,4.532,29.969,29.969,0,0,0-1.428,5.07c-.092.435-.185.869-.267,1.306s-.149.877-.214,1.318c-.127.884-.235,1.776-.368,2.669a23.575,23.575,0,0,1-.529,2.67c-.061.221-.115.434-.172.657l-.064.326c-.021.109-.033.221-.049.331a8.99,8.99,0,0,0-.06,1.344c.022.9.138,1.812.157,2.735a12.625,12.625,0,0,1-.046,1.385c-.038.458-.082.912-.077,1.363A3.616,3.616,0,0,0-90.4-1158a6.078,6.078,0,0,0,.692,1.162,4.068,4.068,0,0,1,.354.62,2.769,2.769,0,0,1,.2.694c.037.234.068.453.116.677s.1.446.161.667c.12.442.265.879.417,1.315.078.218.148.439.234.647a2.524,2.524,0,0,0,.336.568c.276.351.622.678.89,1.08a6.78,6.78,0,0,1,.646,1.262,32.342,32.342,0,0,0,5.981,9.335,40.754,40.754,0,0,0,4.077,3.806,46.259,46.259,0,0,0,4.4,3.412,26.6,26.6,0,0,0,5.054,2.242l2.594.977a25,25,0,0,0,2.6.9,15.036,15.036,0,0,0,2.7.407c.909.063,1.823.1,2.731.13a50.1,50.1,0,0,0,5.42-.092,30.852,30.852,0,0,0,5.276-.856c1.721-.431,3.4-.968,5.082-1.462s3.353-.957,4.975-1.515a24.844,24.844,0,0,0,4.636-2.073,29.626,29.626,0,0,0,3.994-2.967q1.883-1.594,3.622-3.257a45.232,45.232,0,0,0,3.261-3.433,28.922,28.922,0,0,0,2.688-3.716c.4-.643.8-1.274,1.14-1.928a6.973,6.973,0,0,0,.765-2.03,8.5,8.5,0,0,0-.171-2.129,4.687,4.687,0,0,1,.1-1.078c.062-.351.141-.7.219-1.036s.157-.68.219-1.018.11-.679.14-1.017a16.816,16.816,0,0,0,.058-2.022c-.036-1.336-.168-2.641-.243-3.916-.163-2.549-.246-4.971-.271-7.248q0-.853-.008-1.68a4.349,4.349,0,0,0-.173-1.58,5.938,5.938,0,0,0-.331-.708c-.122-.233-.236-.463-.347-.7-.219-.464-.415-.929-.6-1.388-.362-.918-.662-1.816-.951-2.671s-.557-1.673-.834-2.44q-.209-.576-.429-1.11a7.623,7.623,0,0,0-.482-1.006,2.423,2.423,0,0,0-.317-.417,2.866,2.866,0,0,0-.391-.327,3.407,3.407,0,0,1-.757-.651,3.269,3.269,0,0,1-.445-.815c-.11-.274-.2-.541-.3-.787a4.885,4.885,0,0,0-.76-1.227,15.216,15.216,0,0,0-1.377-1.436l-.5-.468" transform="translate(92.992 1202.571)"/><path class="a" d="M-42.639-1180l.642-.184c.425-.116,1.054-.291,1.883-.487a50.943,50.943,0,0,1,7.282-1.189c1.584-.154,3.346-.189,5.252-.31.95-.072,1.951-.147,2.987-.161l.784.006.4,0,.4.018c.268.013.539.022.811.039l.823.065a31.073,31.073,0,0,1,3.4.489,26.541,26.541,0,0,1,3.513.935,21.97,21.97,0,0,1,3.51,1.534l.851.512c.146.082.276.183.413.276l.408.286a16.725,16.725,0,0,1,1.571,1.29c2,1.854,4.057,3.8,6.2,5.8a31.068,31.068,0,0,1,3.127,3.222c.236.3.471.611.678.932a8.522,8.522,0,0,1,.576,1.013,22.867,22.867,0,0,1,.875,2.166c.534,1.462,1.135,2.924,1.684,4.432a28.273,28.273,0,0,1,1.331,4.692c.148.812.237,1.631.344,2.451s.2,1.647.3,2.478c.19,1.662.352,3.345.448,5.048a40.031,40.031,0,0,1-.591,10.363c-.083.434-.2.855-.3,1.284s-.228.856-.358,1.281a18.716,18.716,0,0,1-.967,2.49,14.65,14.65,0,0,1-1.375,2.313,25.421,25.421,0,0,1-1.7,2.083c-.6.667-1.213,1.318-1.825,1.974s-1.234,1.307-1.877,1.943-1.306,1.254-2,1.837l-1.071.845-.269.21-.28.195-.56.389a32.648,32.648,0,0,1-4.761,2.671,43.749,43.749,0,0,1-5.118,1.914c-1.74.54-3.509.98-5.289,1.351s-3.566.689-5.355.971-3.573.559-5.377.7a24.5,24.5,0,0,1-2.712.077,21.584,21.584,0,0,1-2.694-.27,26.545,26.545,0,0,1-5.173-1.416,46.043,46.043,0,0,1-4.831-2.18c-.779-.4-1.552-.817-2.313-1.238s-1.519-.864-2.242-1.344-1.416-1-2.088-1.545-1.3-1.126-1.913-1.725a48.729,48.729,0,0,1-6.21-7.888,20.864,20.864,0,0,1-2.227-4.342,37.406,37.406,0,0,1-1.269-4.583,44.452,44.452,0,0,1-.43-17.51,34.369,34.369,0,0,1,2.271-7.484,30.327,30.327,0,0,1,3.553-6.094,55.478,55.478,0,0,1,4.072-4.68,38.322,38.322,0,0,1,3.857-3.589,21.249,21.249,0,0,1,3.565-2.311,26,26,0,0,1,2.884-1.246c.8-.291,1.425-.488,1.846-.616l.639-.192m.044.15-.637.193c-.419.13-1.04.327-1.836.618a25.784,25.784,0,0,0-2.862,1.245,21.077,21.077,0,0,0-3.531,2.3,38.168,38.168,0,0,0-3.83,3.58,55.4,55.4,0,0,0-4.046,4.672,30.1,30.1,0,0,0-3.514,6.059,34.134,34.134,0,0,0-2.238,7.439,44.189,44.189,0,0,0,.468,17.406,37.131,37.131,0,0,0,1.269,4.544,20.584,20.584,0,0,0,2.207,4.277,48.46,48.46,0,0,0,6.184,7.82q.907.887,1.895,1.7c.665.533,1.348,1.049,2.065,1.521s1.455.911,2.221,1.323,1.529.828,2.306,1.228a45.773,45.773,0,0,0,4.8,2.153,26.25,26.25,0,0,0,5.1,1.386,21.132,21.132,0,0,0,2.645.258,24.024,24.024,0,0,0,2.671-.082c1.783-.147,3.56-.437,5.348-.712a78.561,78.561,0,0,0,10.583-2.323,43.307,43.307,0,0,0,5.073-1.885,32.166,32.166,0,0,0,4.707-2.627l.553-.383.277-.192.265-.206,1.056-.829c.688-.576,1.344-1.184,1.983-1.813s1.257-1.276,1.871-1.928,1.228-1.3,1.824-1.964a25.01,25.01,0,0,0,1.685-2.049,14.305,14.305,0,0,0,1.347-2.255,18.423,18.423,0,0,0,.954-2.441c.129-.416.254-.839.355-1.258s.215-.853.3-1.279a39.8,39.8,0,0,0,.606-10.27c-.092-1.694-.25-3.372-.435-5.031q-.142-1.244-.295-2.475c-.106-.821-.193-1.64-.338-2.439a27.991,27.991,0,0,0-1.307-4.644c-.544-1.5-1.141-2.965-1.674-4.435a22.437,22.437,0,0,0-.859-2.142,9.956,9.956,0,0,0-1.218-1.9,30.881,30.881,0,0,0-3.094-3.2c-2.139-2.008-4.2-3.962-6.186-5.815a16.545,16.545,0,0,0-1.546-1.275l-.407-.287c-.136-.094-.268-.2-.409-.276l-.832-.5a21.769,21.769,0,0,0-3.469-1.526,26.486,26.486,0,0,0-3.483-.935,30.944,30.944,0,0,0-3.373-.492l-.817-.068c-.271-.017-.539-.027-.806-.04l-.4-.019-.395-.005-.779-.007c-1.031.011-2.017.083-2.976.154-1.914.116-3.67.147-5.249.3a50.777,50.777,0,0,0-7.259,1.169c-.827.193-1.455.367-1.878.481l-.64.181" transform="translate(65.999 1186.357)"/></g></g></svg>