<svg xmlns="http://www.w3.org/2000/svg" width="188.66" height="188.676" viewBox="0 0 188.66 188.676"><defs><style>.a{fill:#161616;}</style></defs><path class="a" d="M6124.5,730.212c-1.768-3.154-1.29-6.571,1.934-8.379a5.274,5.274,0,0,1,5.472-.028l-.965,1.794a3.254,3.254,0,0,0-3.555-.2c-2.087,1.171-2.055,3.528-.869,5.645,1.179,2.1,3.169,3.417,5.341,2.2a3.282,3.282,0,0,0,1.723-3.1l1.975.072a5.28,5.28,0,0,1-2.886,4.675C6129.433,734.7,6126.278,733.379,6124.5,730.212Z" transform="translate(-6077.58 -710.224)"/><path class="a" d="M6138.8,716.166c3.639-1.36,6.533.558,7.763,3.851,1.237,3.309.316,6.669-3.308,8.023-3.64,1.361-6.533-.558-7.765-3.851C6134.256,720.88,6135.178,717.521,6138.8,716.166Zm3.814,10.16c2.256-.843,2.624-3.208,1.774-5.479-.843-2.256-2.646-3.827-4.948-2.967-2.255.843-2.623,3.208-1.774,5.479C6138.511,725.615,6140.316,727.187,6142.616,726.326Z" transform="translate(-6077.538 -710.243)"/><path class="a" d="M6158.473,711.188l2.411,12.091-2.109.421-7.7-7.6-.032.006,1.751,8.785-2.172.433-2.411-12.09,2.408-.481,7.341,7.343.032-.006-1.689-8.47Z" transform="translate(-6077.489 -710.26)"/><path class="a" d="M6166.406,722.9l-.53-10.454-4.072.206-.094-1.861,10.421-.527.095,1.86-4.073.206.529,10.454Z" transform="translate(-6077.44 -710.263)"/><path class="a" d="M6180.476,720.123l-5.125-.372-1.292,2.934-2.323-.169,5.523-11.967,2.74.2,3.734,12.639-2.4-.175Zm-.524-1.874-1.506-5.425-.031,0-2.274,5.149Z" transform="translate(-6077.404 -710.262)"/><path class="a" d="M6185.522,717.508c.769-3.531,3.394-5.772,7-4.986a5.277,5.277,0,0,1,4.115,3.607l-1.913.7a3.255,3.255,0,0,0-2.529-2.507c-2.338-.508-3.877,1.278-4.394,3.648-.511,2.355.1,4.659,2.538,5.188a3.281,3.281,0,0,0,3.347-1.179l1.43,1.364a5.277,5.277,0,0,1-5.26,1.585C6186.233,724.141,6184.751,721.056,6185.522,717.508Z" transform="translate(-6077.354 -710.255)"/><path class="a" d="M6198.963,727.385l3.634-9.816-3.824-1.416.647-1.746,9.785,3.624-.646,1.745-3.824-1.415-3.635,9.815Z" transform="translate(-6077.305 -710.248)"/><path class="a" d="M6223.238,725.72l1.89,1.158-4.171,6.8c-1.477,2.41-4,2.862-6.76,1.167-2.507-1.537-3.488-4.022-1.961-6.513l4.172-6.806,1.943,1.192-4.146,6.764a2.611,2.611,0,0,0,1,3.835,2.578,2.578,0,0,0,3.886-.839Z" transform="translate(-6077.258 -710.222)"/><path class="a" d="M6221,737.034l1.994-.268a4.84,4.84,0,0,0,1.783,3.416c1.324,1.095,2.349,1.068,3.014.263.727-.878.092-1.8-1.053-3.312-1.266-1.7-2.35-3.51-.823-5.354,1.362-1.646,3.607-1.789,5.859.076a6.1,6.1,0,0,1,2.357,4.182l-1.931.341a4.416,4.416,0,0,0-1.607-3.145c-1.151-.953-2.17-.88-2.766-.162-.716.865-.078,1.707,1.033,3.211,1.323,1.8,2.389,3.564.831,5.445-1.413,1.707-3.708,1.809-6.084-.159A6.58,6.58,0,0,1,6221,737.034Z" transform="translate(-6077.223 -710.189)"/><path class="a" d="M6245.563,756.633c3.143-1.785,6.562-1.326,8.387,1.887a5.273,5.273,0,0,1,.06,5.471l-1.8-.954a3.258,3.258,0,0,0,.18-3.556c-1.183-2.082-3.54-2.035-5.648-.838s-3.4,3.188-2.17,5.352a3.281,3.281,0,0,0,3.111,1.705l-.061,1.975a5.274,5.274,0,0,1-4.69-2.859C6241.1,761.588,6242.405,758.425,6245.563,756.633Z" transform="translate(-6077.146 -710.097)"/><path class="a" d="M6259.689,770.845c1.382,3.631-.519,6.538-3.806,7.788-3.3,1.257-6.669.355-8.045-3.261-1.383-3.631.519-6.538,3.8-7.788C6254.945,766.326,6258.311,767.228,6259.689,770.845Zm-10.141,3.876c.857,2.252,3.226,2.6,5.493,1.742,2.25-.857,3.812-2.671,2.936-4.968-.856-2.251-3.223-2.6-5.49-1.741C6250.236,770.611,6248.675,772.425,6249.548,774.721Z" transform="translate(-6077.127 -710.055)"/><path class="a" d="M6264.765,790.5l-12.079,2.47-.432-2.108,7.561-7.74-.006-.031-8.776,1.795-.443-2.171,12.08-2.47.491,2.408-7.308,7.376.006.031,8.462-1.729Z" transform="translate(-6077.114 -710.007)"/><path class="a" d="M6253.1,798.505l10.454-.579-.227-4.072,1.861-.1.577,10.422-1.861.1-.225-4.072-10.454.579Z" transform="translate(-6077.106 -709.957)"/><path class="a" d="M6255.952,812.559l.344-5.126-2.939-1.276.155-2.322,11.993,5.453-.184,2.739-12.612,3.807.161-2.4Zm1.872-.535,5.412-1.536,0-.032-5.159-2.245Z" transform="translate(-6077.107 -709.921)"/><path class="a" d="M6258.588,817.609c3.535.751,5.788,3.365,5.02,6.98a5.279,5.279,0,0,1-3.588,4.131l-.712-1.909a3.253,3.253,0,0,0,2.5-2.54c.5-2.342-1.3-3.871-3.669-4.376-2.355-.5-4.657.128-5.175,2.562a3.284,3.284,0,0,0,1.2,3.342l-1.357,1.435a5.273,5.273,0,0,1-1.609-5.252C6251.96,818.352,6255.036,816.854,6258.588,817.609Z" transform="translate(-6077.113 -709.871)"/><path class="a" d="M6248.78,831.1l9.836,3.585,1.4-3.833,1.749.638-3.574,9.806-1.75-.638,1.4-3.831L6248,833.246Z" transform="translate(-6077.124 -709.822)"/><path class="a" d="M6250.588,855.345l-1.147,1.895-6.828-4.133c-2.418-1.463-2.884-3.979-1.2-6.754,1.522-2.514,4-3.51,6.5-2l6.828,4.133-1.182,1.95-6.786-4.108a2.612,2.612,0,0,0-3.829,1.024,2.577,2.577,0,0,0,.86,3.881Z" transform="translate(-6077.152 -709.775)"/><path class="a" d="M6239.251,853.165l.278,1.991a4.834,4.834,0,0,0-3.4,1.8c-1.088,1.33-1.055,2.353-.247,3.014.882.722,1.8.082,3.3-1.071,1.687-1.275,3.5-2.367,5.344-.852,1.652,1.353,1.808,3.6-.044,5.856a6.1,6.1,0,0,1-4.165,2.377l-.353-1.926a4.423,4.423,0,0,0,3.135-1.625c.946-1.155.868-2.174.147-2.764-.869-.712-1.706-.069-3.2,1.05-1.8,1.332-3.548,2.407-5.435.861-1.714-1.4-1.828-3.7.125-6.081A6.57,6.57,0,0,1,6239.251,853.165Z" transform="translate(-6077.178 -709.74)"/><path class="a" d="M6219.75,877.849c1.8,3.131,1.356,6.551-1.846,8.39a5.271,5.271,0,0,1-5.468.085l.945-1.8a3.254,3.254,0,0,0,3.556.162c2.074-1.19,2.017-3.547.81-5.648s-3.2-3.383-5.359-2.144a3.284,3.284,0,0,0-1.69,3.117l-1.972-.051a5.268,5.268,0,0,1,2.835-4.7C6214.777,873.41,6217.944,874.7,6219.75,877.849Z" transform="translate(-6077.268 -709.662)"/><path class="a" d="M6205.647,892.029c-3.625,1.4-6.539-.484-7.808-3.765s-.391-6.665,3.219-8.061,6.54.486,7.808,3.766S6209.257,890.635,6205.647,892.029Zm-3.929-10.119c-2.247.869-2.587,3.239-1.714,5.5s2.691,3.8,4.982,2.912c2.247-.868,2.588-3.237,1.713-5.5C6205.832,882.575,6204.009,881.026,6201.719,881.91Z" transform="translate(-6077.311 -709.643)"/><path class="a" d="M6186.04,897.219l-2.541-12.067,2.107-.444,7.785,7.516.032-.005-1.847-8.769,2.169-.457,2.54,12.068-2.4.506-7.42-7.265-.031.006,1.779,8.454Z" transform="translate(-6077.36 -709.631)"/><path class="a" d="M6177.933,885.594l.639,10.454,4.072-.249.115,1.86-10.422.637-.113-1.861,4.071-.249-.638-10.454Z" transform="translate(-6077.402 -709.621)"/><path class="a" d="M6163.9,888.516l5.131.318,1.261-2.947,2.324.144-5.4,12.027-2.741-.17-3.868-12.6,2.4.151Zm.543,1.869,1.563,5.409.033,0,2.22-5.173Z" transform="translate(-6077.444 -709.622)"/><path class="a" d="M6158.852,891.174c-.734,3.539-3.337,5.8-6.955,5.055a5.277,5.277,0,0,1-4.148-3.568l1.9-.721a3.255,3.255,0,0,0,2.553,2.482c2.344.486,3.865-1.315,4.358-3.689.49-2.359-.15-4.657-2.587-5.163a3.282,3.282,0,0,0-3.335,1.211l-1.443-1.349a5.277,5.277,0,0,1,5.245-1.636C6158.076,884.55,6159.588,887.62,6158.852,891.174Z" transform="translate(-6077.491 -709.628)"/><path class="a" d="M6145.327,881.444l-3.535,9.856,3.839,1.377L6145,894.43l-9.826-3.524.63-1.753,3.839,1.377,3.534-9.855Z" transform="translate(-6077.537 -709.639)"/><path class="a" d="M6121.092,883.375l-1.9-1.139,4.1-6.85c1.454-2.426,3.968-2.906,6.753-1.238,2.523,1.511,3.529,3.987,2.026,6.495l-4.1,6.85-1.957-1.171,4.078-6.809a2.612,2.612,0,0,0-1.042-3.826,2.579,2.579,0,0,0-3.879.879Z" transform="translate(-6077.596 -709.667)"/><path class="a" d="M6123.218,872.03l-1.99.289a4.837,4.837,0,0,0-1.818-3.394c-1.336-1.081-2.36-1.043-3.017-.231-.719.885-.073,1.8,1.089,3.3,1.284,1.68,2.388,3.483.882,5.343-1.345,1.66-3.588,1.828-5.86-.012a6.1,6.1,0,0,1-2.4-4.155l1.925-.363a4.427,4.427,0,0,0,1.642,3.127c1.161.94,2.18.856,2.767.132.707-.874.062-1.708-1.066-3.2-1.342-1.79-2.428-3.537-.891-5.434,1.395-1.722,3.688-1.85,6.084.091A6.58,6.58,0,0,1,6123.218,872.03Z" transform="translate(-6077.629 -709.693)"/><path class="a" d="M6098.43,852.66c-3.125,1.817-6.55,1.391-8.406-1.8a5.278,5.278,0,0,1-.113-5.471l1.809.939a3.255,3.255,0,0,0-.145,3.558c1.2,2.068,3.56,2,5.658.782,2.083-1.21,3.369-3.221,2.118-5.375a3.286,3.286,0,0,0-3.13-1.675l.042-1.974a5.277,5.277,0,0,1,4.719,2.813C6102.846,847.661,6101.569,850.837,6098.43,852.66Z" transform="translate(-6077.705 -709.782)"/><path class="a" d="M6084.183,838.635c-1.42-3.618.45-6.543,3.725-7.827s6.663-.425,8.076,3.177-.45,6.541-3.724,7.827C6088.972,843.1,6085.6,842.236,6084.183,838.635Zm10.1-3.981c-.88-2.242-3.251-2.571-5.508-1.685-2.242.88-3.784,2.709-2.887,5,.88,2.241,3.251,2.569,5.509,1.684C6093.636,838.77,6095.178,836.94,6094.281,834.654Z" transform="translate(-6077.725 -709.824)"/><path class="a" d="M6078.889,819.03l12.055-2.6.455,2.1-7.48,7.822.007.032,8.758-1.889.468,2.166-12.057,2.6-.518-2.4,7.229-7.455-.006-.032-8.445,1.822Z" transform="translate(-6077.743 -709.874)"/><path class="a" d="M6090.469,810.881l-10.444.69.269,4.069-1.858.123-.688-10.413,1.859-.122.268,4.068,10.444-.689Z" transform="translate(-6077.747 -709.915)"/><path class="a" d="M6087.477,796.855l-.294,5.131,2.954,1.247-.133,2.326-12.049-5.341.157-2.741,12.581-3.928-.139,2.4Zm-1.865.553-5.4,1.589v.032l5.183,2.2Z" transform="translate(-6077.746 -709.958)"/><path class="a" d="M6084.785,791.849c-3.543-.713-5.822-3.3-5.094-6.923a5.278,5.278,0,0,1,3.543-4.168l.73,1.9a3.254,3.254,0,0,0-2.466,2.567c-.473,2.346,1.337,3.857,3.713,4.335s4.657-.176,5.147-2.617a3.28,3.28,0,0,0-1.229-3.328l1.341-1.449a5.275,5.275,0,0,1,1.665,5.233C6091.4,791.036,6088.343,792.565,6084.785,791.849Z" transform="translate(-6077.741 -710.005)"/><path class="a" d="M6094.445,778.264l-9.875-3.475-1.354,3.847-1.757-.619,3.464-9.844,1.757.617-1.353,3.847,9.874,3.476Z" transform="translate(-6077.733 -710.051)"/><path class="a" d="M6092.413,754.017l1.128-1.907,6.866,4.065c2.432,1.439,2.922,3.951,1.271,6.741-1.5,2.528-3.965,3.547-6.48,2.059l-6.866-4.065,1.161-1.961,6.824,4.04a2.609,2.609,0,0,0,3.817-1.06,2.578,2.578,0,0,0-.9-3.872Z" transform="translate(-6077.708 -710.11)"/><path class="a" d="M6103.745,756.1l-.3-1.99a4.829,4.829,0,0,0,3.385-1.834c1.076-1.341,1.031-2.364.217-3.017-.889-.714-1.8-.064-3.294,1.1-1.674,1.292-3.472,2.4-5.338.906-1.667-1.336-1.844-3.578-.015-5.858a6.1,6.1,0,0,1,4.143-2.421l.372,1.924a4.418,4.418,0,0,0-3.12,1.657c-.935,1.165-.845,2.183-.118,2.767.877.7,1.707.051,3.193-1.083,1.782-1.349,3.524-2.443,5.428-.916,1.728,1.386,1.867,3.678-.063,6.084A6.582,6.582,0,0,1,6103.745,756.1Z" transform="translate(-6077.676 -710.143)"/></svg>