<svg xmlns="http://www.w3.org/2000/svg" width="1379.892" height="1355.877" viewBox="0 0 1379.892 1355.877"><defs><style>.a{fill:#161616;stroke:#fff;stroke-width:4px;}</style></defs><g transform="translate(-4.179 -3.397)"><g transform="translate(6.012 5.379)"><path class="a" d="M124.693,146.887l.4-7.055-4.878,1.613,2.618,5.434Z" transform="translate(867.482 1022.971)"/><path class="a" d="M118.1,182.05c-21.967-18.412-44.436-37.257-70.2-50.835,2.3,2.24,4.636,4.54,6.945,6.876,5.518,5.587,11.1,11.563,15.576,16.371l6.279,6.7,22.927,15.5,6.365,6.4,23.662,12.48-24.008,1.9-1.885,1.859h.017l-1.332,1.341,17.02,12.047,15.282-16.821C129.114,191.27,123.553,186.617,118.1,182.05Z" transform="translate(314.405 957.064)"/><path class="a" d="M1100.279,526.639c-6.711-52.781-34.395-98.41-61.153-142.535-5.682-9.349-10.793-17.79-15.818-26.369-30.65-52.479-68.79-101.913-105.666-149.722-14.763-19.13-31.307-40.552-46.727-61.464l-9.306,1.306,5.95-4.013c-3.58-2.646-7.187-5.258-10.8-7.87-11.131-8.017-22.624-16.311-33.106-25.582-12.385-10.949-24.994-21.163-43.078-25.824-27.519-7.092-56.535-15.178-82.316-28.964-45.309-24.242-95.392-30.209-143.823-35.977l-.986-.112c-10.854-1.289-22.088-2.629-33.106-4.169-9.029-1.245-20.021,1.168-26.845,5.864a101.259,101.259,0,0,1-26.2,12.886c-11.788,11.8-31.16,18.179-48.327,6.114-6.054-.173-12.134-.528-18.058-1.072a13.688,13.688,0,0,1-4.255-1.289c-.649-.285-1.358-.579-2.171-.873l-9.444-3.442,14.841-4.393c-4.108-.649-8.752-.986-13.293-1.315l-1.825-.138-2.257,12.428-3.131-.406c-18.352-2.4-26.922,2.145-35.32,18.724-8.467,16.657-24.76,33.322-44.712,45.733-16.942,10.551-35.822,18.421-54.061,26.023l-.45.19c-7.394,3.088-15.04,6.279-22.434,9.6L184.039,178.54l5.794.381,11.122-10.992.069,12.826,4.791,6.633-5.855,3.849-6.443,6.573v.614l23.636-17.539a25.91,25.91,0,0,1-1.583-2.655c-1.427-2.776,1.012-4.35,2.984-5.6l.891-.571,6.564-6.668.19-9.1,20.125.078.277,7.4,12.116-.069,18.473-8.934-.061,8.086,24.709-6.08-.009-2.534-37.292-.069,38.529-12.955,12.289-8.847,5.44,12.679-13.63,1.133.164,2.949,8.069,1.583a259.793,259.793,0,0,1,32.933-21.465c7.092-3.987,14.529-7.818,22.711-11.727l1.4-7.308,6.028,3.84c7.784-3.537,15.55-6.841,23.117-9.807,3.771-1.418,7.524-2.8,11.3-4.134l-.19-2.136L422.891,96.8c11.485-3.874,23.368-7.368,35.312-10.4h-6.72l-.7-11.892,31.126-1.894-.268,8.2h1.773c12.134-2.456,23.956-4.333,35.9-5.7a438.578,438.578,0,0,1,127.037,2.819c11.9,2.145,24.008,4.912,36.064,8.259l-.917-.9,72.1,23.117-11.157.13c3.693,1.747,7.334,3.537,10.871,5.336l1.418-2.672,3.693,1.955L757.04,115.8c4.722,2.465,9.435,5.042,14.028,7.68a410.721,410.721,0,0,1,46.39,32.881h.026l-.078-8.493,31.42,13.9h-6.512l10.655,10.586,13.068,6.339,10.508.078v7.585l1.868.009-.035-11.528,16.441,16.977-11.935.242L876.821,209.9l-5.371-19.225-6.573-6.313-6.746.138.061.061-2.335.069,12.558,21.759,3.148,3.269c4.419,5.085,9.928,11.347,16.095,18.343l6.01,6.815-.017-.164,24.129,24.925-2.266.251c15.948,18.5,27.64,32.752,35.692,43.519.986,1.306,1.877,2.543,2.768,3.771l68.469,84.746,25.418,69.092-38.321-54.416c-1.557-1.894-3.234-3.952-4.955-6.106l-4.125,1.254v-6.452c-25.824-32.786-59.069-79.859-62.779-85.135-15.135-17.141-35.977-38.183-51.19-53.551l-.3-.294c-12.514-12.644-24.345-24.587-31.887-32.959l-21.647-22.858a105.184,105.184,0,0,0-7.671-7.567c-1.168-1.072-2.309-2.145-3.459-3.243-1.332-1.2-2.7-2.5-4.065-3.805-2.387-2.266-4.782-4.54-7.282-6.53a374,374,0,0,0-50.394-36.22c-15.991-3.546-28.177-9.5-38.33-18.7l-.381-.337-.735.1c-28.626,4.117-50.853-9.1-71.176-23.057l-1.7-.372c-1.1-.242-2.214-.493-3.338-.709A414.722,414.722,0,0,0,580.6,93.137l5.985,2,21.206,2.456-5.016,11.727-16.916-8.64H564.959l1.4-7.792h-.467c-5.068,0-9.877.078-14.65.225l-2.491.372L541.3,93.5c-6.642.337-12.532.735-17.937,1.2a527.569,527.569,0,0,0-115.465,23.506c-41.945,13.353-75.423,29.578-102.328,49.59l-.986.744-3.252-3.866q-6.927,5.163-13.881,10.3l-.432.32c-14,10.378-28.488,21.12-42.507,31.921-18.854,14.521-37.7,30.875-43.182,56.846l1.107,1.029-.026.035,3.191,3.053,5.5-6.313c5.215-5.916,10.6-12.039,15.792-18.153,21.777-25.677,47.013-50.377,83.89-57.132l6.5-1.193-9.167,18.473,8.562,7.152-15.066,4.6.069-6.953c-13.379,5.154-24.864,10.759-30.711,23.152l18.058-.156-49.4,49.322-15.092,22.5c2.249,14.382-7.732,20.825-15.792,24.423L205.3,340.992l3.676-4.834q14-18.421,28.012-36.834c3.07-4.039,6.106-8.138,9.115-12.237,18.715-25.4,38.053-51.674,71.272-63.03,23.515-35.761,61.637-50.827,95.842-60.85,18.352-5.371,37.621-8.086,56.258-10.715,13.094-1.851,26.629-3.762,39.679-6.573,28.488-6.132,56.768-3.027,84.115-.017,7.04.778,14.322,1.583,21.474,2.214a118.688,118.688,0,0,1,12.2,1.7l-12.817-13.466,6.573-.778c.182-.026.389-.061.6-.1a7.83,7.83,0,0,1,4.056-.026c1.738.562,2.326,1.816,3.364,4.1.545,1.185,1.349,2.932,2.647,5.526l3.234,6.478.424.1c1.669.4,165.332,41.089,250.277,189.487l1.635,2.889,10.8,17.271c18.369,29.3,37.37,59.614,54.018,90.912,19.468,36.609,19.744,77.213,20.021,116.477l.009,1.436c.043,6.677.1,13.362.242,20,.13,5.6-.216,11.182-.554,16.579-.337,5.613-.683,11.416-.484,17.081.234,7.221.951,14.633,1.643,21.8,1.219,12.679,2.491,25.668,1.332,38.46-6.227,69.274-22.244,133.185-47.583,189.954-18.706,41.919-50.559,79.055-100.209,116.849l-4.29,7.135c-.043.043-1.868,1.678-5.336,4.514,2.793-1.764,5.578-3.511,8.38-5.267l38.555-24.25,7.014-7.144,8.389-6.14.19-.519c7.429-20.817,22.192-37.949,45.11-52.357l7.489-4.713-2.551,8.475c-7.645,25.236-27.277,40.31-45.067,52.453l-.752.519-6.227,8.2-7.23,7.7c-9.79,19.053-26.628,30.149-42.9,40.872-3.866,2.543-7.818,5.146-11.71,7.879-11.122,7.835-22.287,16.363-32.146,23.9-2.136,1.626-4.255,3.243-6.383,4.86l10.811-.069-2.94,5.059c-9.332,15.212-23.61,22.7-44.885,23.532-.649,3.5-2.084,5.967-4.367,7.515-3.771,2.586-8.605,1.678-12.895.519l-11.641,9.133-6.356-12.411,17.072-3.113,12.661-6.218.035-3.018-24.838.259,2.958-5.051c.406-.666.752-1.358,1.107-2.05,1.341-2.569,2.672-5.146,5.2-6.746q6.525-4.126,13.042-8.268-13.258,6.447-26.689,11.883l-.951.372c-11.8,4.739-23.723,8.9-35.441,12.385-5.12,7.316-13.076,6.235-19.554,5.276-3.382.787-7.057,1.634-10.785,2.413-13.777,4.679-29.923,7.014-42.118,6-7.7.683-14.763,1.073-21.37,1.176a52.391,52.391,0,0,1-26.525-.9,303.969,303.969,0,0,1-76.288-14.849l-3.4-1.124.32-.744a311.584,311.584,0,0,1-81.658-31.947c-84.253-47.212-150.9-107.336-198.075-178.728-11.044-16.717-19.174-35.545-27.035-53.767-5.915-13.725-11.952-27.744-19.174-40.795-23.645-42.663-24.977-87.669-23.169-126.059,2.906-61.966,18.663-120.239,46.823-173.211a23.5,23.5,0,0,1,1.8-2.759,9.56,9.56,0,0,0,1.617-2.819c4.912-25.971,9.634-51.717,14.858-80.249l.934-5.085c-8.458,12.981-11.771,27.986-15.256,43.761a242.01,242.01,0,0,1-6.876,26.378c-1.427,4.125-2.629,8.432-3.805,12.6-4.653,16.518-9.453,33.573-27.078,43.813l-.026.156c-.484,2.465-.917,4.938-1.358,7.412a147.991,147.991,0,0,1-4.506,20.1C90.774,647.873,98.2,744.26,149.6,831.384c2.707,4.575,4.281,9.686,5.812,14.616l.156.5c.64,2.093,1.28,4.177,2.015,6.209l11.165,20.921-1.444.934,2.949,1.713c19.77,11.476,32.328,26.455,38.382,45.785l.1.3.536.536,57.244,56.976-19.8-.6-.173,8.683-30.382-12.981L237.495,974l-1.055-1.185a140.406,140.406,0,0,1-12.765-15.61,127.3,127.3,0,0,1-9.15-17.323l-.718-1.539c-.545-1.168-1.09-2.326-1.643-3.485l-3.1-6.495-4.981-2.3c-20.142-9.332-33.158-24.838-38.684-46.1l-.934-3.563-1.081.7-14.27-18.438c-1.194-1.1-2.733-2.327-4.082-3.408-3.676-2.958-7.412-5.967-9.366-10.188-3.364-7.247-6.841-14.486-10.326-21.716-10.646-22.088-21.656-44.928-28.791-68.66-13.232-44.038-14.564-93.291-4.186-155l.51-3.07c5.3-31.67,10.785-64.413,34.17-90.281l.372-.424.121-.415c3.113-11.26,6.166-23.169,8.614-32.743,12.359-48.267,25.15-98.142,56.448-140.52,2.128-2.889,5.042-4.9,7.853-6.85l.415-.285c.605-.432,1.219-.865,1.816-1.306l.285-7.723-17.738,11.425-14.919,22.962-37.344,96.983-.164,1.522c-3.416,33.66-15.688,65.261-37.517,96.62l.2.977c.406,2.015.934,4.549-.043,6.875-21.552,51.691-18,106.8-14.547,160.1l.467,7.368c.925,14.512,5.492,29.249,9.92,43.5l.2.631c1.98,6.426,4.047,13.068,5.751,19.666l9.582,32.293L88.526,792.552h-.052a7.833,7.833,0,0,1-6.391-3.165l-1.782-2.3.692-.7c-27.234-84.21-29.249-154.98-6.348-222.636,1.911-5.682,6.14-10.222,10.214-14.616,1.591-1.7,3.027-3.243,4.35-4.852v-13.95l-7.74,7.628,7.178-16.051q2.8-6.279,5.535-12.583l.977-2.223c5.128-11.727,10.361-23.688,16.043-35.242a167.53,167.53,0,0,1,11.3-18.646l.32-.476c1.3-1.955,2.612-3.926,3.892-5.9l.519-.8.432-27.8-.562-.19.242-3.433,6.936-20.073-.138-.121.355-2.214,7.775-21.474.467-2,8.225-15.411,13.881-6.746c-1.029-11.2,4.177-18.957,15.481-23.074l.337-11.4-1.142-.614,1.34-3.053,10.586-17.107-6.633-.1-1.254,1.254c-20.488,20.566-39.835,39.99-42.965,69.577l1.323.874-2.153,2.819c-12.635,16.5-19.8,36.851-22.495,63.981l1.159.355-1.4,3.606-4.073,7.265c-3.39,6.063-6.893,12.324-10.655,18.438a46.162,46.162,0,0,0-3.632,8.467c-2.88,8.112-6.391,18.015-19.1,18.923.234,1,.493,2.024.744,3.036l.13.562c1.513,6.037,3.062,12.229,1.219,17.8-8.77,26.481-18.6,53.127-28.107,78.9l-1.358,3.667Q47.614,603.208,42.931,616l-4.566,12.523L36.54,615.32C30.218,569.838,48.9,532.356,66.956,496.1c2.006-4.022,4-8.06,5.985-12.082l.683-1.574,2.3-8.181c16.371-57.737,33.279-117.359,69.04-168.7,4.22-6.054,8.112-12.722,11.658-19C127.694,314.1,112.352,350.454,98.03,388.4c-6.089,16.129-11.736,32.8-17.193,48.933l-.259.744C70.71,467.3,60.5,497.511,47.229,525.9,23.956,575.7,26.162,627.091,30.417,675.453a64.4,64.4,0,0,0,1.963,9.937,63.631,63.631,0,0,1,2.24,12.359c4.125,80.257,38.9,153.7,109.437,231.12l12.7,13.967c6.72,7.42,13.9,15.333,21.292,23.368l17.046,3.373c.1.017.216.026.32.035a5.021,5.021,0,0,1,4,1.781,7.819,7.819,0,0,1,1.081,2.145l3.382,9.141-25.4-16.008c7.066,7.671,14.313,15.446,21.552,22.979,2.153,2.24,5.734,3.58,9.513,4.99l.476.182.381.138-.043-1.254.052.035-.121-5.656,32.215,13.95-19.788.035,18.352,13.855v-7.9l7.619,7.412.017-3.313,4.765,7.948,4.886,4.765h-2.275a9.073,9.073,0,0,1,.432,1.444,3.489,3.489,0,0,1-.078,1.9h1.064l-1.764,1.557c41.642,40.622,94.32,69.845,170.6,94.675a52.59,52.59,0,0,1,11.425,5.872c1.133.709,2.266,1.41,3.416,2.084l.467.277h21.6l-5.137,14.832-17.357-9.037-.951.086c-29,2.465-54-8.458-78.251-19.061-8.787-3.848-17.712-7.758-26.611-10.949-5.518-1.98-11.554-3.7-16.406-5.077-.882-.251-1.756-.5-2.638-.761l.06,12.877-.8-1.055v.043l-3.831,3.84-4.679-4.7,1.9-1.894.026-4.618-21.171-12.315,14.175-.458q-6.11-4.722-12.091-9.617L281,1103.281a1.9,1.9,0,0,0-.13.372c-.1.277-.208.606-.355.951l23.9,11.667.009-.009.882.363,5.059,2.595-.164.182,11.494,6.3,2.551,1.721c21.448,14.65,41.746,28.514,67.76,28.514.562,0,1.124-.009,1.712-.017l.45-1.254,3.356,1.124c2.8,1.453,5.388,2.863,7.982,4.29a195.854,195.854,0,0,0,19.476,9.755c15.437,6.314,31.178,12.255,46.408,18.006q8.964,3.4,17.824,6.763l20.2-1.038c16.743-.847,33.712-1.721,50.671-2.56,10.153-.5,20.454-.562,30.416-.623,21.993-.138,44.678-.277,65.685-5.137,38.719-8.96,76.85-23.757,113.744-38.062l10.05-3.892c9.349-3.624,17.928-10.344,26.231-16.847,2.448-1.911,4.938-3.866,7.472-5.751l-5.224-2.88c.06,3.148-.259,5.855-2.569,7.23-23.878,14.322-45.257,21.076-67.276,21.24l-.528.009-18.023,10.093-4.886-13.172,21.223-2.785c12.177-13.829,28.471-18.292,44.237-22.616,7.723-2.11,15.706-4.281,22.97-7.6l.917-.449,14.46-7.732,5.224-4.791-3.157,1.038c-12.212,4.03-24.415,8.052-36.592,12.168-8.761,2.958-17.5,6.019-26.239,9.09l-16.423,5.933-53.949,21.4-2.8-12.428,19.6-1.176.086-8.13,39.731-6.78,29.716-24.25.64.216,9.159-4.7-5.267-3.174,1.816-1.124-1.894-.009,14.3-7.4v.251l25.444-12.627,2.508-9.963,7.559,8.346,11.183-5.6a11.962,11.962,0,0,1-.822-2.94c-.017-.1-.026-.216-.035-.329l-2.127-.026,9.461-10.067v.372l7.325-7.437.363,11.684,10.551-.3,5.76-11.589-8.069-6.754,10.361-3.762,19.243-19.572v7.075l3.079-3.07.389.017,15.308-14.9,21.552-11.632-4.013,8.917c-10.2,22.676-26.231,50.057-60,60.617l-.268.19-17.963,24.371,7.256-.329c4.99-6.3,8.363-10.2,13.033-10.733,5.578-.622,10.681,3.555,19.251,10.413,1.366-.45,2.776-.848,4.186-1.237,3.84-1.064,7.446-2.076,9.686-4.108,25.426-23.022,52.971-48.7,84.192-78.519,1.609-1.531,2.525-4.324,3.5-7.291l.06-.182-5.613-.147-.147-14.668-2.672.8-20.35,13.526,13.768-20.8,25.867-32.57-5.146,1.565,20.635-36.92-.908-.216.718-3.07,2.6-1.012,3-5.362-.666,6.114,1.609,1.531-.865,3.356-1.306-.32-1.02,8.424c-1.055,9.349-2.352,20.946-15.93,25.081l-2.292.7-11.1,35.337,4.584,10.741c2.43-2.335,4.973-4.61,7.438-6.824l.363-.32c7.991-7.144,16.242-14.529,20.22-23.264,24.328-53.638,45.819-102.112,62.623-152.238C1117.169,704.65,1110.683,608.531,1100.279,526.639ZM371.044,93.768l6.607.588-.32,3.831-6.607-.519Zm-19.571,21.941L339.2,127.575l.536-12.445-8.657-4.921,9.747-6.3,12.186-11.26-.035,10.707,24.9.251Zm54.572-23.264-.6-10.309,25.634-2.171,1.661,12.48Zm-3.883-30.814-.173-8.493,3.356-.052H435.9l3.191,8.545Zm51.078-5.345-1.263-10.932,22.806-2.672,1.271,11.079Zm37.413-8.043L486,36.888l6.391-.3a28.518,28.518,0,0,1,5.033-.035c2.136.216,3.174,2.032,3.727,3,.164.277.242.415.311.519l2.733,3.676ZM613.8,67.8l19.009-2.214c1.289-.156,2.569-.337,3.866-.528,8.285-1.211,18.594-2.716,25.539,8.06l4.428,6.867ZM724.92,85.985c-1.029.043-2.093.147-3.148.259-1.418.138-2.889.285-4.393.285-6.651,0-10.733-3.174-12.462-9.695L703.2,70.444l37.223,14.944Zm61.257,44.929-2.413-1.868,3.987-5.3,2.543,1.963Zm3.451-14.711-1.315-7.152c-16.354,2.6-27.787-6.651-37.206-15.619l-4.791-4.575,6.538-1.09c17.159-2.88,29.3,6.114,38.927,15.29l.147.13,11.26,5.163Zm63.523,41.746a4.96,4.96,0,0,1-3.356-1.963,6.351,6.351,0,0,1-.614-1.263l-3.719-9.738,10.836,7.135,20.177,13.82ZM967.335,296.894l-.709,13.319-9.245-10.629-.026.035-1.029-1.021-5.059-6.175h1.366l-5.457-10.447-11.9-11.857,16.968-.4-.095,9.02,9.79,4.307.069-5.82,6.478,11.139-.069.069a27.2,27.2,0,0,1,1.66,3.451C970.976,294.5,969.073,295.847,967.335,296.894Zm30.512,56.094-.043.026.043.069-.13.078.51.51H996.87l-.727.458-.061-.086-1.15.631L994,353.161l-1.055-1.055.294-.182-.536-.874h1.972l4.341-2.6,1.557,2.724-2.733,1.816ZM344.415,187.656l6.227-18.81a4.948,4.948,0,0,1,2.145-3.563,7.83,7.83,0,0,1,1.92-.8l9.911-2.94ZM495.97,137.331,495.927,136l-7.853,3.978c-12.514,6.322-24.51,11.053-33.444-.657L428.6,139v2.275l19.987,1.046-3.693,12.99-20.012-8.553-18.646-1-.787-9.418,17.7-2.586.1-3.719-3.278-2.43,3.26-5.379,1.427.562a5.029,5.029,0,0,1,2.819,2.05l.744,1.808,27.8,7.109,39.852-.043-.173-6.365h79.479l.268,9.989ZM710.3,132.375l33.867,15.256-37.673-2.707Zm-85.066-18.006,4.013-12.177L659.97,117.11ZM696.1,128.405l-5.1,11.3-26.879-16.57Zm-.891,35.182-10.966,4.376L675.174,148.2l12.566-5.725,5.518,15.567,10.638,2.214a5.276,5.276,0,0,1,3.883,1.591,8.462,8.462,0,0,1,1.116,1.816l4.67,9.825L694.78,162.342Zm67.9-3.1-20.09-6.936,20.886-3.07Zm59.25,87.453-16.847-15.6,18.421-.467ZM37.924,646.247a18.269,18.269,0,0,0-1.124,1.47L29.82,657.888l3.278-42.9,5.509,21.292a35.072,35.072,0,0,1,1.219,5.449c.208,1.9-.865,3.235-1.808,4.4Zm.709,40.258,9.185-2-1.444,17.945-7.74-.268Zm7.247,37,8.917-.1v31.446l-8.917.052Zm33,100.875L67.856,796.626c-5.578-1.349-9.513-4.073-11.719-8.086-2.828-5.2-2.577-12.28.761-21.638l3.157-8.821,11.892,33.642,7.6.925Zm47,37.949-.614-4.549h.311a2.861,2.861,0,0,1,1.133-1.583l1.5-1.185,1.79.735a2.826,2.826,0,0,1,1.488,1.142l.285-.1.7,4.61ZM422.4,1150.242a8.521,8.521,0,0,0-.83.441,6.779,6.779,0,0,1-3.364,1.167,3.95,3.95,0,0,1-1.574-.329,6.888,6.888,0,0,1-3.088-3.157c-.173-.285-.285-.475-.406-.648l-3.468-4.774,5.846-.5c.208-.017.407-.052.6-.078a9.481,9.481,0,0,1,3.641-.06,5.931,5.931,0,0,1,3.079,2.015,4.75,4.75,0,0,0,.407.415l3.84,3.4Zm20.661,9.747-10.681-3.027,5.293-4c.251-.182.493-.389.718-.588a11.117,11.117,0,0,1,3.719-2.37c2.326-.7,3.97.891,4.964,1.842.225.224.432.432.623.588l4.03,3.183Zm275.288-3.918-15.308,2.776c-.674.113-1.237.242-1.712.346a13.818,13.818,0,0,1-2.854.406c-.225,0-.45-.017-.7-.035-2.413-.25-3.122-2.43-3.477-3.468l1.055-1h0l-1.2.527-2.707-6.149Zm-43.19-62.969-31.627,15.61-4.368-12.047Zm-378.775-60.565c-.458.017-.9.026-1.349.026-14.114,0-23.766-7.265-30.3-22.849-4.566-.337-10.309-1.349-13.69-5.509-2.4-2.966-3.234-7.04-2.473-12.116l.977-6.538,18.663,18.637c14.867,1.9,25.34,9.9,31.117,23.766l1.842,4.428Zm19.684-7.126-20.86-16.069-6.737-4.506.778-.1-2.655-2.041-21.855-17.677,3.952-5.215,23.74,16.942,5.717,6.953c11.892-1.038,19.961,4.584,24.319,16.691l3.4,9.47-13.682-9.159Zm52.894,52.8-7.723-7.083,3.01-2.413c.173-.147.355-.346.553-.536,1-.995,2.4-2.379,4.489-2.379h.086c2.188.13,3.459,1.747,4.3,2.819.233.294.4.5.571.683l2.543,2.612Zm30.6,15.464-21.7-13.993,26.974,1.41Zm19.814-14.4-12.428-9.383-4.177.432a62.216,62.216,0,0,1-6.633.372c-13.2,0-21.656-5.578-25.85-17.063l-1.436-3.944,4.16-.484c13.915-1.678,24.778,3.753,32.25,16.1l2.188,3.606,86.216,26.395h34.793l-2.378,15.368-32.648-9.712-2.811.138C464,1102.269,440.1,1094.953,419.371,1079.273Zm56.336,84.435c-.675,1.176-1.686,2.9-3.805,2.94a10.8,10.8,0,0,1-3.113-.527l-5.388-1.34,2.69-3.944c.6-1.072,1.6-2.828,3.814-2.975a11.415,11.415,0,0,1,3.174.554l5.44,1.384Zm-3.935-12.039-.043-9.712h26.265l.087,9.712Zm67.639,23.515H497.388l.026-9.989h47.108Zm25.011-15.835H520.255l5.068-10.2H567.7l.043,10.162Zm-11.943-44.981-.009-10.093h76.435l.052,10.093Zm54.286,34.827h34.4l.225,9.738H604.724Zm10.767,25.037,4.177-10.119h26.784l.605,10.119Zm22.616-34.749,35.969,1.79-4.169,13.345Zm23.567,34.879-4.653-11.909,20.367-7.4,4.246,11.053Zm36.047-70.1c-.173.147-.363.329-.536.5a5.952,5.952,0,0,1-4.073,2.1l-.38-.017c-1.929-.121-3.122-1.6-3.909-2.586-.216-.268-.337-.424-.467-.554l-2.629-2.655,2.958-2.292a6.087,6.087,0,0,0,.493-.467,6.157,6.157,0,0,1,4.186-2.093h.06a5.766,5.766,0,0,1,4.091,2.551c.242.285.363.45.493.58l2.664,2.6Zm107.984-52.487,2.914-9.055c3.632-11.269,11.667-16.7,23.93-16.095l9.98.519Zm114.185-20.73c-.285,6.261-2,10.638-5.224,13.405a14.189,14.189,0,0,1-9.487,3.1,22.225,22.225,0,0,1-2.681-.156l-7.031-.77,24.812-23.887Zm180.743-430.51-12.091,2.179-.216-1.315-7.732-45.759,10-1.808Zm-25.6-81.693h.017a5.182,5.182,0,0,1,3-3.7,4.534,4.534,0,0,0,.545-.337l3.667-2.7,4.463,13.474-11.442,4.774-.259-6.452A28.206,28.206,0,0,1,1077.075,518.847Zm.034,86.692a7.686,7.686,0,0,1,.986-3.321,4.873,4.873,0,0,1,3.728-2.05l3.347-.848,3.217,9.133-12.246,2.681Zm-37.638-17.963,9.461-.234V624.7l-9.461.156ZM1003.84,469.1l.017-.009a4.962,4.962,0,0,0,.467-.381l2.8-2.672,5.154,7.541-6.452,7.291-2.4-3.485a5.048,5.048,0,0,0-.372-.45,5.452,5.452,0,0,1-1.712-4.143A5.615,5.615,0,0,1,1003.84,469.1Zm-22.512-55.16c18.127,2.819,17.3,16.354,16.683,26.231-.086,1.384-.164,2.75-.19,4.1l-.45,12.895-22.434-44.211Zm-26.516-42.152,19.649,13.984-22.693-8.164a5.226,5.226,0,0,1-3.494-2.032,5.7,5.7,0,0,1-.649-1.315l-4.039-10.24Zm-70.77-73.814-.424,25.193L870.11,292.3l7.835-.173-3.157-18.56L887.242,272l4.073,26.689ZM984.649,779.45l-7.619,7.619.277-.623-8.519,8.285.545-8.571q1.323-21.042,2.707-42.075l.112-1.7c2.076-32.017,4.22-65.131,6.045-97.675.562-10.162,1.306-20.5,2.015-30.494l1.341-.329h0l-1.315-.1c2.076-29.309,4.212-59.613,2.413-89.061-1.721-28.341-12.964-55.557-22.088-73.4-12.168-23.818-26.957-46.892-41.253-69.2-6.624-10.344-14.106-22.01-21.1-33.5-1.972-3.226-2.828-6.875-3.649-10.4-.208-.873-.407-1.738-.631-2.586l-2.551-9.989,7.9,6.625c2.413,2.024,4.93,3.978,7.472,5.924,6.858,5.293,13.855,10.707,18.836,17.7,12.8,17.989,24.432,37.205,35.683,55.782l6.677,11.018c29.647,48.708,40.181,103.046,33.158,171.014-4.29,41.469-6.287,83.846-8.207,124.831-.528,11.139-1.038,22.123-1.6,33.072,10.837-34.334,12.687-70.346,14.339-102.415.761-14.823,1.349-29.534,1.989-45.854,1.384-35.476,2.819-72.145,6.7-108.737l2.525-23.6,4.039,23.385c.847,4.886,2,9.85,3.1,14.659,2.482,10.811,5.033,21.958,4.584,33.028-2.586,63.427-6.867,127.063-11,188.6l-.1,1.626c-.311,4.662-1.963,9.046-3.555,13.275-1.461,3.849-2.819,7.438-3.165,11.009-.5,5.077.372,10.318,1.289,15.853.069.458.147.908.225,1.367l10.957-9.859,6.659-45.344-.017-64.275,6.469,19.952c7.23,22.3,7.983,24.631-.13,42.749l-1.565,3.468.571,6.772c.164,1.92.415,3.84.674,5.769l.1.874c1.453,10.811,2.949,22-7.005,31.887l-.329.329.009.233c.579,13.889-.692,31.454-15.619,44.47l.086.8c.078.8.182,1.591.294,2.387l.1.735c.934,6.486,2.188,15.316-8.813,19.061l-1.358,14.573-10.932-4.783,7.507-14,7.282-20.116.216-22.659-16.631,15.29c6.789,11.286,6.253,24.112-1.626,39.195-5.968,11.459-13.448,22.174-20.679,32.544l-1.712,2.465q-2.257,3.243-4.488,6.495l-14.849,21.785,37.24-102.51Zm47.757,102.683-11.079-8.156,12.428-5.967Zm3.122-12.4-4.143-15.126,11.866,1.5Zm17.323-49.357V788.064l14.53,5.042Zm19.182-44.617h-8.917V752.441h8.917Zm9.383-88-.009.043c-1.124,7.533-2.2,14.659-.493,21.016.761,2.8.052,5.535-1.133,10.058-.683,2.672-1.539,5.976-2.456,10.473l-4.826,23.74-4.212-58.956c-.865,5.371-1.7,10.724-2.517,16l-.19,1.2c-3.745,24.155-7.619,49.14-13.993,73.174-15.265,57.616-41.357,113.943-77.55,167.416-2.595,3.814-6.573,6.322-10.43,8.752-1.219.752-2.335,1.453-3.4,2.188l-10.032,6.8,5.163-10.949q7.264-15.424,14.495-30.857l2.309-4.93c11.7-24.977,24.96-53.283,38.261-80.992,25.236-52.565,38.373-111.824,40.137-181.184,1.124-44.15,2.551-95.548,5.362-146.867l1.349-24.587,7.2,33.262c5.846,26.455,11.364,51.441,7.455,79.782-.969,7.014-1.384,14.391-1.79,21.526-.432,7.645-.873,15.325-1.876,22.84C1085.914,657.9,1083.423,674.441,1081.417,687.759Zm13.319,35.874-10.2.4V655.786l10.2-.432Z" transform="translate(159.92 68.351)"/><path class="a" d="M120.558,32l9.772,6.568-.077-6.576Z" transform="translate(870.085 198.137)"/><path class="a" d="M53.779,139.1l.06.043,2.208.552-.017-.774Z" transform="translate(359.333 1015.967)"/><path class="a" d="M165.4,204.484l-4.731-4.783-16.043-1.107-7.758-13.941-10.966.113c-1.539,2.759-3.451,4.168-5.7,4.212-3.84-.017-6.114-3.779-7.68-7.048l-.173-.372-6.019-7.377,1.479-.735-12-5.933.683-.908-5.561-5.673-11.312-5.25a6.18,6.18,0,0,1-4.644,2.75c-.242,0-.5-.009-.752-.026l-.052,2.586-2.672-3.58c-1.911-1.271-3.356-3.511-4.532-5.561l-5.967-5.941h-.787l-.026-.8-6.815-6.806h-.77l-.052-.822-6.21-6.037-6.9-2.5c30.226,37.664,83.63,75.483,121.58,85.8l4.489-4.514Z" transform="translate(249.73 939.733)"/><path class="a" d="M119.572,138.638l1.71-1.756-1.71.008Z" transform="translate(862.545 1000.408)"/><path class="a" d="M143.561,117.256l-1.358-.281,1.327.328Z" transform="translate(1035.633 848.149)"/><path class="a" d="M122.2,135.131l.024,1.936,1.9-1.92Z" transform="translate(882.614 987.014)"/><path class="a" d="M16.539,462.073c5.423,13.319,7.957,27.329,10.4,40.9,4.1,22.7,7.991,44.228,24.51,61.4q-1.349-12.415-2.716-24.735c-2.543-22.962-5.163-46.719-7.36-70.018-2.4-25.556,1.782-47.021,12.791-65.641l.744-1.254-.467-2.8c-1.211-7.213-2.716-16.19,7.533-21.067l4.143-1.963-8.078,25.686-.156,2.543c-2.863,45.828.035,93.87,8.6,142.786,2.612,14.91,4.246,30.2,5.838,44.989L73.48,603.6c.2,1.816-1.038,3.183-2.75,5.085-.8.882-1.764,1.937-2.776,3.269l-2.318,3.027-2.767-8.614c-1.176-3.676-2.179-6.806-3.243-9.911a6.352,6.352,0,0,0-.692-1.367c-.268.112-.579.225-.934.363.381,3.805.718,7.662,1.064,11.554.882,10.058,1.79,20.471,3.589,30.607.614,3.433,1.081,7.1,1.548,10.828,1.5,11.805,3.053,24.008,9.5,30.244,17.037,16.492,28.367,36.306,39.324,55.471,2.992,5.241,5.993,10.473,9.107,15.671,1.046,1.747,4,2.889,6.841,4,.259.1.528.2.787.3v-.156l.035.009.6-13.44,11.8,5.007q-3.749-8.354-7.524-16.7c-7.7-17.046-15.654-34.68-23.083-52.219-2.387-5.63-4.912-11.234-7.438-16.847-7.628-16.985-15.524-34.542-19.528-52.738-4.834-22.01-7.55-44.816-10.171-66.861-1.6-13.483-3.26-27.424-5.388-41.028-8.268-52.885-2.145-98.531,18.724-139.542a876.541,876.541,0,0,0,37.733-85.386c7.317-19.2,13.344-39.281,19.182-58.705,2.352-7.853,4.713-15.7,7.152-23.506l-7.36-1.522,12.6-23.9.043,13.846L167.3,160.07l-.208-.182,16-22.1-.666-.329,2.292-2.006L221.1,105.8l13.31-33.089L239.4,94.16l26.456-31.939-.259-.1.1-.112c-1.73-.917-3.356-2.24-3.364-4.186-.009-2.534,2.724-4.013,4.86-4.912l-.035-2.326-.087.087V47.744L251.1,47.277l5.665-12.592c-23.273,5.976-36.2,23.731-45.819,40.535-1.2,2.1-2.387,4.246-3.572,6.391-4.9,8.882-9.963,18.067-16.96,25.323-41.045,42.576-65.071,95.989-88.309,147.637-10.871,24.181-22.114,49.184-34.974,72.777-4.5,8.268-8.778,16.864-12.9,25.176-9.565,19.225-19.433,39.074-33,56.682.813,3.217,1.851,6.5,2.854,9.695C28.872,434.121,33.827,449.853,16.539,462.073ZM124.869,723.9l3.113,6.5-3.572,1.782-1.833-3.416-1.332-3.2Zm-22.676-34.983c13.526,2.205,15.974,12.635,16.579,22.555l.147,2.4-2.4-.294c-13.206-1.669-14.91-11.961-16.406-21.05l-.675-4.056Zm-26.9-69.3,21.95,57.451L92.9,675.2C76.9,668.346,73.688,655.521,70.583,643.11c-1.47-5.872-2.863-11.425-5.552-16.415l-1-1.868Zm58.083-404c.259-.553.51-1.116.744-1.678l1.2-2.932,5.474,6.054-4.636,10.629-2.058-2.646c-.2-.242-.458-.51-.709-.77-.934-.951-2.1-2.145-1.79-3.719A22.633,22.633,0,0,1,133.379,215.619Zm-6.945,20.739a6.62,6.62,0,0,0,.571-.467l1.678-1.626,1.349,1.9a5.475,5.475,0,0,0,.476.562,3.551,3.551,0,0,1-.389,5.976c-.2.173-.4.346-.562.519l-1.669,1.808-1.427-2.006c-.164-.233-.372-.458-.562-.683a4.257,4.257,0,0,1-1.444-3.157A4.317,4.317,0,0,1,126.435,236.358Zm-10.049,25,1.963.458h0l1.859.735-.432,1.107-1.859-.726h0l-1.859-.726Z" transform="translate(74.505 218.761)"/><path class="a" d="M111.831,27.513h.008l.46-.878Z" transform="translate(803.337 157.193)"/><path class="a" d="M122.365,138.692l-6.323-.054.024,3.037.024-.008v.273Z" transform="translate(835.544 1013.836)"/><path class="a" d="M124.148,137.832l-6.347-.071.039,3.021.047-.024v.3Z" transform="translate(849.006 1007.132)"/><path class="a" d="M137.451,48.849l.015-1.815-1.8,1.819Z" transform="translate(985.621 313.219)"/><path class="a" d="M123.253,138.959l-1.616,1.647h1.624Z" transform="translate(878.341 1016.294)"/><path class="a" d="M64.3,30.293l4.524-.043.063-4.544-4.6.008Z" transform="translate(439.648 150.092)"/><path class="a" d="M45.861,37.088l.027,1.87,1.838-1.85Z" transform="translate(298.77 237.137)"/><path class="a" d="M50.249,33.582l.019,1.936,1.89-1.924Z" transform="translate(332.33 210.329)"/><path class="a" d="M53.184,131.637l1.9,1.9.007-1.9Z" transform="translate(354.782 960.234)"/><path class="a" d="M124.366,33.582h-1.873l1.866,1.89Z" transform="translate(884.879 210.329)"/><path class="a" d="M46.742,34.467l0,4.587,4.54,0,.012-4.59Z" transform="translate(305.477 217.04)"/><path class="a" d="M47.725,45.215h0l.039,3.4L49.8,45Z" transform="translate(312.995 297.636)"/><path class="a" d="M63.462,40.319c-8.657,7.023-14.953,16.389-19.009,28.315Z" transform="translate(288.003 261.853)"/><path class="a" d="M60.728,32.721l-6.035.043-.055,2.385.074-.047-.035.765Z" transform="translate(365.907 203.74)"/><path class="a" d="M51.124,37.269l12.112-.136.125-4.356-12.245-.066Z" transform="translate(338.965 203.66)"/><path class="a" d="M64.631,33.59l-8.236.071L52.34,41.83Z" transform="translate(348.323 210.388)"/><path class="a" d="M126.571,131.631l.007,1.873,1.874-1.873Z" transform="translate(916.078 960.248)"/><path class="a" d="M46.174,37.5,48,37.393l.016-1.741Z" transform="translate(301.166 226.157)"/><path class="a" d="M75.628,80.012l3.278-.64L101.79,40.93c-25,13.517-42.023,35.294-53.136,67.881l10.326-5.4C59.361,93.21,61.834,82.685,75.628,80.012Z" transform="translate(320.134 266.526)"/><path class="a" d="M125.7,132.522l.007,1.8,1.827-1.819Z" transform="translate(909.402 966.945)"/><path class="a" d="M126.14,63.733V52.112l-7.949-.043Z" transform="translate(851.976 351.725)"/><path class="a" d="M782.774,764.979c.623-.554,1.237-1.107,1.851-1.652l.363-.32c5.059-4.506,9.8-8.718,12.194-13.863,29.785-63.895,56.379-127.011,54.693-196.587-1.444-59.354-4.7-120.058-9.686-180.432-1.488-17.92-9.643-36.246-17.427-51.8-9.5-18.966-20.064-37.837-30.3-56.076l-.415-.744c-7.169-12.774-14.581-25.988-21.569-39.151a59.664,59.664,0,0,1-3.373-7.827C765,210.685,687.867,102.813,563.243,52.539a54.235,54.235,0,0,1-10.888-2.6c-51.207-18.871-106.54-22.789-169.241-12-64.483,11.1-111.227,29.292-151.572,59-2.465,1.816-5.483,2.223-8.406,2.62-.848.112-1.686.225-2.5.381-4.636,4.86-9.349,9.669-14.054,14.477-10.491,10.707-21.336,21.777-31.3,33.487-44.73,52.5-68.8,103.106-75.752,159.252-2.032,16.449-7.576,34.775-16.5,54.477A483.958,483.958,0,0,0,41.942,516.865C33.76,605.347,74.486,676.886,115.41,735.2,186.267,836.19,283.829,903.6,413.668,941.26c50.662,10.966,151.884,17.47,260.309-61.949l-1.219-1.453,8.225-3.8c5.812-4.523,12.134-9.669,18.611-15.2l2.344-4.662-.216-.389.017-.035-.06-.112a12.427,12.427,0,0,1-1.522-3.814,3.508,3.508,0,0,1-.043-.9l-1.358-.035,2.672-2.612c.164-.182.363-.363.545-.545l20.211-20.047.009,10.084a45.12,45.12,0,0,0,4.471-1.8c6.357-6.322,12.116-12.333,17.617-18.361l1.046-1.142c.493-1.081.951-2.205,1.375-3.4l-8.311.078.891-1.375,20.912-31.964-.017,4.757L782.4,748.141Zm8.3-21.241-1.894-2.69a3.189,3.189,0,0,0-.329-.407c-.839-.96-1.946-2.214-1.738-4a5.031,5.031,0,0,1,2.37-3.381l.208-.164a2.692,2.692,0,0,0,.337-.268l2.43-2.275,5.033,7.213Zm12.505-20.047-4.558,4.765-2.032-2.733c-.112-.147-.233-.277-.355-.415-.908-.969-2.1-2.24-1.946-4.073a5.142,5.142,0,0,1,2.4-3.6c.268-.216.424-.337.553-.467l2.344-2.3,5.128,6.884Zm7.049-14.08-7.55-.19V694.668l8.294.182Zm8.484-22.218-11-4.575,12.955-19.744Zm30.633-155.153,1.461,22.1-10.041.432V532.484Zm-16.2-62.018h8.4v30.105l-8.4.078Zm-2.69,115.085,5.224,7.438c6.728,9.565,14,23.558-.51,34.723l.19,1.539c.086.8.208,1.583.337,2.378l.069.493c.986,6.383,2.344,15.135-8.821,18.862l-5.544,1.851,9.055-26.109Zm-1.911,5.284L825.5,602.545l-3.3-2.37c-.458-.337-.96-.648-1.453-.96l-.354-.225a15.768,15.768,0,0,1-5.207-4.489c-1.453-2.266.32-4.514,2.205-6.9.519-.64,1.012-1.263,1.384-1.808l1.851-2.759Zm-16.968-225.1.726.493-.718-.5c.147-.216.3-.441.432-.666L815.768,359l3.174,10.828-5.518,9.66-1.937-6.408c-.052-.156-.121-.329-.182-.5l-.1-.277a7.152,7.152,0,0,1-.692-3.529A6.923,6.923,0,0,1,811.98,365.491Zm-9.5,196.734,9.349.061v23.956l-9.349-.043Zm2.067,43.415-3.693,9.669-3.6-6.028a24.738,24.738,0,0,1-1.929-3.563c-.994-2.249.986-3.615,2.171-4.437l3.347-2.56ZM788.223,363.519h7.2v18.239h-7.2ZM771.159,237.036l3.632,12.912-11.442-2Zm-5.518,47.238-1.548,12.359-9.712-7.49Zm-13.059-.363-3.312-13.483,10.473,1.6Zm-8.519-27.848.026-.017a5.621,5.621,0,0,0,.51-.381l2.3-2.119,5.241,6.884-6.391,5.829-1.894-2.508a3.777,3.777,0,0,0-.311-.346c-.882-.934-2.024-2.145-1.868-3.918A4.941,4.941,0,0,1,744.064,256.063ZM602.913,107.794l.061.216.069.216,1.116,2.9-9.15,2.811-3-11.278,4.514.882c.285.052.588.1.908.138a10.411,10.411,0,0,1,3.312.882A4.523,4.523,0,0,1,602.913,107.794Zm-13.4-24.57a21.9,21.9,0,0,1,1.747-4.584l.216-.45c.182-.389.363-.77.519-1.159l3-6.876,2.9,8.571a23.252,23.252,0,0,1,1.392,4.964c.268,2.05-1.306,3.33-2.352,4.169-.259.208-.467.38-.631.536l-2.231,2.275L592.042,88.2a5.84,5.84,0,0,0-.562-.579C590.485,86.632,589.067,85.222,589.517,83.224ZM510.842,44.937l.726,6.244L496.3,52.271,496,44.937Zm-77.421,5.518.13,9.072H395.706l-.069-9.072ZM331.612,63.583,341.4,76.5l-14.988-3.65ZM320.784,75.112l-7.308,10.335-5.431-11.433Zm-23.437-4.1-.588,12.895-2.646.355-20.782.009h-3.883Zm14.149,85.42.649,1.375-12.7-1.1,7.273-10.24,3.555,7.429,2.266-3.511c14.919-23.126,31.307-29.629,54.9-21.69l7.429,2.491-63.376,25.236Zm-1.9,14.841c31.385-17.184,59.527-26.386,94.1-30.754,1.211-.164,2.491-.372,3.8-.588,10.542-1.738,17.5-1.609,20.8.406,12.073,7.265,24.717,5.751,38.1,4.143,3.209-.389,6.521-.787,9.816-1.047a21.254,21.254,0,0,1,6.953.9,23.147,23.147,0,0,0,6.045.908c8.475-.294,17.219,1.8,22.287,5.371,9.167,6.495,19.078,9.28,29.56,12.229,7.291,2.058,14.832,4.177,22.166,7.654,30.641,14.547,62.286,29.56,83.622,59.1,3.615,4.99,7.4,10.032,11.079,14.91l.311.424c20,26.577,40.691,54.07,45.707,89.736a48.533,48.533,0,0,0,3.84,13.673c16.7,35.8,21.214,66.8,14.227,97.572l-.329,1.384-7.965,3.641L722.08,459v1.219a55.524,55.524,0,0,1-.337,6.3c-.346,3.641-.727,7.688.571,9.591,15.913,23.16,9.807,51.276,3.909,78.467-1.5,6.9-2.914,13.422-3.952,19.8-1.081,6.7-1.937,12.869-2.759,18.845-3.866,28.081-6.659,48.371-27.934,76.573-7.861,10.421-19.917,21.924-31.584,33.054-9.081,8.674-17.652,16.856-24.034,24.267l-3.684,4.315a36.243,36.243,0,0,0-2.793,3.849c-1.548,2.378-2.9,4.437-5.941,5.751-33.443,14.451-60.418,25.85-90.186,38.1a47.735,47.735,0,0,1-16.821,3.364v.026l-1.9-.052-11.952-.415c-73.866-2.525-150.258-5.137-216.773-52.634-7.412-5.3-15.031-13.094-22.391-20.626-2-2.041-3.97-4.065-5.941-6.037-54.26-54.295-81.044-106.644-89.554-175.044-3.442-27.666-.96-51.095,1.9-78.225v-3.131c.389-3.676.614-7.308.83-10.811.882-14.132,1.643-26.395,12.2-29.8-.32-.553-.657-1.116-.986-1.678-2.153-3.615-.087-7.377,1.738-10.7a19.6,19.6,0,0,0,2.058-4.54c17.764-75.994,31.8-136.014,87.92-186.054a25.147,25.147,0,0,0,2.664-2.949c1.7-2.076,3.433-4.177,5.95-5.423,5.319-2.612,9.738-7.239,14-11.71C300.357,178.434,304.56,174.032,309.593,171.274ZM287.3,142.82l-13.379,1.851-2.205,8.173-10.932-8.709,10.127-3.875,10.906-9.141ZM256.916,106c.13-.112.268-.233.4-.363,1-.951,2.4-2.153,4.1-1.989,1.842.164,2.906,1.669,3.537,2.569l.13.182a4.709,4.709,0,0,0,.311.389l2.05,2.309-2.456,1.885a5.392,5.392,0,0,0-.476.432,5.473,5.473,0,0,1-3.667,1.929c-.112,0-.233-.009-.337-.017a5.044,5.044,0,0,1-3.537-2.569l-.164-.216a3.124,3.124,0,0,0-.285-.363l-2.032-2.3ZM182.1,152.61c.052-.147.1-.311.138-.484a4.616,4.616,0,0,1,2.179-3.26,6.936,6.936,0,0,1,2.058-.623l7.939-1.392-18.456,21.4ZM171.037,360.017q.766-7.628,1.531-15.238l.7-7.005c1.98-19.831,4.013-40.336,6.408-60.556,1.046-8.8,2.889-17.721,4.506-25.591.562-2.8,1.133-5.6,1.686-8.4l-4.091-.484.986.623-2.188,3.477-.121-.078a2.089,2.089,0,0,1-1.652.683l-1.955-.078-.778-1.47a2.235,2.235,0,0,1-.216-2.127l-.078-.052,2.11-3.425.086.061,6.521-12.151-1.773.017,3.745-3.693,4.48-8.346V220.1l7.576-7.464.035,6.876,3.641-3.6h.588l13.768-11.58c11.035-9.28,23.55-19.8,35.986-30.122l1.176-.986c9.029-7.533,19.269-16.043,33.815-10.551l4.229,1.6-3.243,3.157c-3.987,3.874-7.991,7.723-12,11.589-9.029,8.674-18.283,17.582-27.139,26.551-41.8,42.265-56.812,96.274-65.218,138.608-.969,4.852-3.425,9.4-5.6,13.4-.709,1.323-1.427,2.664-2.11,4l-7.023,14.062Zm-7.161,23.766,5.967-3.356-1.79,6.607c-1.358,5.025-2.906,10.093-4.393,15l-.182.579c-3.65,11.978-7.429,24.354-8.821,36.7-9.435,83.734,6.132,154.833,47.6,217.361,60.686,91.5,146.236,142.734,254.29,152.282,97.277,8.588,178.737-31.844,235.566-116.814,29.811-44.557,47.644-93.758,52.989-146.236.13-1.323.389-2.672.632-3.978l.052-.294a22.524,22.524,0,0,0,.649-6.331c-1.7-15.178-3.139-30.667-4.515-45.638l-.069-.718c-5.682-61.819-11.563-125.74-37.62-184.627-3.736-8.406-8.553-16.458-13.215-24.242-2.283-3.823-4.644-7.775-6.858-11.719l-3.139-5.535c-3.269-5.743-6.607-11.615-9.539-17.608a63.3,63.3,0,0,1-3.546-10.542l-.2-.727c-.727-2.6-1.617-5.76-2.828-9.747L663.028,218a11.056,11.056,0,0,1-6.089,2.205h-.329c-5.388,0-9.358-4.359-12.86-8.2l-.4-.441c-.441-.484-.865-.96-1.306-1.41-31.117-32.509-71.635-51.424-110.8-67.025-12.635-5.042-26.957-7.04-40.8-8.968l-.389-.052c-4.229-.6-8.432-1.176-12.6-1.859-10.4-1.678-20.583-2.759-32.362-4.013-5.57-.588-11.39-1.219-17.634-1.946l-4.6-.536,2.543-3.883c7.7-11.805,15.489-17.011,23.351-18.707H399.519l9.851,21.422-32.778,6.581-.173-.856-4.748-23.057H348.8l-54.165,31.636.017-5.025c.043-12.765,2.569-21.1,7.965-26.248,4.61-4.411,11.2-6.348,20.393-6.037q7.55.324,15.083.588l9.954.381.787-.545c2.309-1.557,4.575-3.157,6.841-4.748l.4-.285c7.04-4.964,14.322-10.1,22.226-13.959,6.607-3.217,17.063-4.886,23.437-1.678,16.89,8.51,32.241,4.16,48.492-.458,29.145-8.242,55.506,3.935,77.455,16.942l9.02,5.345H462.636c2.8.467,5.622,1.15,8.458,1.911,12.713,3.442,25.859,6.322,38.563,9.107l.329.069q7.537,1.648,15.074,3.338a14.105,14.105,0,0,0,2.274.242,12.483,12.483,0,0,1,5.959,1.306c13.673,8.225,28.315,15.524,42.472,22.59,32.137,16.017,65.365,32.587,90.437,61.361,1.548,1.782,1.634,4.255,1.7,6.244l.009.242a18.478,18.478,0,0,0,.13,1.877l.19,1.237-.787.977a23.776,23.776,0,0,1-3.416,3.563l5.3,3.788c23.844,17,34.62,30.218,41.149,50.5,5.7,17.721,13.725,35.043,21.491,51.8l.1.208c7.689,16.588,15.628,33.737,21.37,51.38a322.765,322.765,0,0,1,14.2,131.456,26.112,26.112,0,0,1-2.456,7.654,28.792,28.792,0,0,0-1.686,4.549c19.96,25.807,10.421,48.855,1.185,71.142-3.511,8.458-7.074,17.072-8.856,25.574-.519,2.456.285,5.6,1.609,10.793.389,1.548.83,3.26,1.28,5.163,1.2-2.231,2.3-4.247,3.321-6.1,3.52-6.391,5.829-10.586,7.066-15.039,9.539-34,18.015-70.416,8-109.031a188.8,188.8,0,0,1-6.322-52.5c1.626-50.7-15.567-95.712-32.6-133.047-2.577-5.656-5.111-11.347-7.645-17.046l-.51-1.159c-17.85-40.2-36.306-81.771-71.669-111.21-15.619-13.016-32.691-24.933-49.21-36.462-5.889-4.1-11.649-8.13-17.366-12.2-5.448-3.883-11.295-7.455-16.951-10.906l-1.116-.692q-2.374-1.453-4.731-2.915l-2.828-1.548-14.555-6.383-12.9-3.226,3.97-8.942,9.773,7.464.925-.2c3.581-.8,8.467-1.877,12.246.545,2.128,1.366,3.624,3.693,4.437,6.936l.649.043c34.378,2.4,59.224,13.543,78.182,35.069,6.27,7.135,14.823,12.756,23.074,18.2,2.88,1.894,6.1,4.013,9.185,6.192l.268-.406,2.534,2.352,14.348,14.33.856.5,3.113,3.036.034-7.438L717.4,205.366v-4.947l7.559,15.4v-.484L731,228.206h-.069l7,15.143-6.945.164c4.16,9.634,8.536,19.346,12.765,28.747,11.3,25.132,22.979,51.1,31.809,77.611,6.893,20.73,9.764,43.052,12.54,64.638.865,6.72,1.721,13.293,2.69,19.935,3.286,22.348,6.14,46.347,9.245,77.827,3.771,38.01-4.558,74.878-12.6,110.544l-.493,2.171c-.32,1.462-.657,2.914-.977,4.367l9.755-4.532-1.254,12.592-8.865-6.443q-1.167,5.241-2.3,10.482l.216.372-.51,1.661-.51.9,2.369-.6.58,2.465H785.2a2.743,2.743,0,0,1-.848,1.7l-1.185,1.159-1.6-.467a2.692,2.692,0,0,1-1.176-.657c-.969,1.652-1.946,3.286-2.914,4.93l-1,1.686c-4.774,8.017-10.188,17.107-14.849,26.265C719.762,763.059,656.7,816.783,568.838,845.124c-22.884,7.369-46.762,10.949-73.019,10.949-26.611,0-52.461-3.5-79.825-7.213-3.269-.441-5.31-3.26-7.109-5.742-.346-.493-.7-.977-1.046-1.436l-.13.017c-21.171,3.606-41.763-.441-64.8-12.713-12.765-6.78-26.4-12.566-39.584-18.161l-3.044-1.289,20.03,19.018,9.409,5.725-.951,1.894,21.37,1.955-4.661,11.356-17.885-10.975-.017.052-.372.718-11.226-4.5c-33.547-8.346-61.006-28.652-83.829-62.061l-2.275-3.321-.657.649-7.541-7.394,3.814-4.134,3.027,2.326,4.757,5.189-2.11,2.093,12.35.372c-1.47-1.678-2.94-3.338-4.419-5.007l-1.2-1.358c-7.991-9.046-16.138-18.257-23.653-27.761l-1.133-1.418h.026c-4.8-6.244-9.055-12.955-13.189-19.468-1.531-2.43-3.027-4.791-4.549-7.118l-10.9-16.743,15.187,12.99q3.762,3.217,7.49,6.495c7.239,6.313,14.72,12.834,22.555,18.663,4.065,3.027,8.389,5.8,12.67,8.4l-4.324-4.722c-12.6-13.76-25.634-27.995-37.967-42.568-37.11-43.813-57.313-88.361-61.767-136.161-.8-8.683-2.75-17.478-4.7-26.006-.969,10.56.173,20.8,1.591,30.382,2.179,14.573,4.722,29.353,7.187,43.649l6,35.216-8.709-17.677c-2.205-4.489-4.731-9.029-7.178-13.431-6.625-11.874-13.362-23.965-15.247-36.825-3.667-25.1-4.592-50.948-5.483-75.942-.363-10.369-.735-20.964-1.289-31.342l-.086-1.453-1.349.329-.735-2.966,5.613-1.323.285,1.228,13.742-9.133V487.59l.917-4.8c1.176-6.244,2.37-12.618,3.719-18.854.424-1.937.822-3.883,1.219-5.829l.061-.259a195.164,195.164,0,0,1,5.708-22.9,117,117,0,0,0,3.485-14.452C145.8,406.632,148.62,392.319,163.876,383.783ZM766.714,702.832,755.636,701.8l6.694-12.289ZM629.135,837.8l-1.349,10.94-11.641-6.962Zm-16.268,18.17H588.289l21.094-11.416Zm-72.517,5.276,47.195-2.136-3.693,4.878c-4.22,5.57-9,8.173-15.066,8.173-5.137,0-11.355-1.954-19.035-5.976Zm1.41,16.83H468.94l-.061-9.453h69.239Zm-97.563-7.9-5.224-.588a10.152,10.152,0,0,1-2.8-.51,4.031,4.031,0,0,1-2.309-2.742l-1.479-3.1,3.286-1.185c.3-.069.484-.121.657-.173a6.021,6.021,0,0,1,3.849-.208c1.868.666,2.266,2.534,2.5,3.65a5.17,5.17,0,0,0,.13.545Zm-29.266-7.8H393.215l-.225-9.271,21.526-.986ZM376.817,846.43l-.484,8.8-17.971-.882.458-8.942ZM148.006,670.685l-8.363-4.956c-10.231-6.054-15.066-15.714-14.348-28.7l.571-10.914Zm-12.99-256.132,1.946,11.952L113.213,429.3l-2.326-12.843Zm-.9-6.824,6.383-22.607,3.148,17.565ZM136.348,249.6l2.94.415c.891.069,2.863.208,3.589,2.136a10.922,10.922,0,0,1,.527,2.992l.476,4.5-10.248-1.634Zm-6.962,154.08-6.953,7.161L121.1,406c-.138-.51-.3-1.021-.467-1.539a22.143,22.143,0,0,1-1.081-4.774c-.147-1.929,1.245-3.165,2.162-3.987a5.593,5.593,0,0,0,.6-.545l3.468-3.849Zm-18.3-131.162,12.73-30.538-3.157,34.749-9.937-3.347Zm-6.08,24.536h8.19v15.8l-8.19-.017ZM78.637,540.483l3.676-2.491,6.893,12.039-6.063.415c-.917.087-1.877.182-2.845.182a13.217,13.217,0,0,1-1.929-.138c-1.522-.234-2.768-1.548-3.529-3.719a3.455,3.455,0,0,1,.493-3.7A16.061,16.061,0,0,1,78.637,540.483Zm-1.885-71-1.565-6.452q-.065-.272-.156-.545a7.915,7.915,0,0,1-.545-3.641,6.631,6.631,0,0,1,1.548-3.113c.182-.225.329-.415.45-.6l3.563-5.526,1.626,6.383c.043.147.1.311.156.467l.078.259a7.043,7.043,0,0,1,.51,3.477,6.713,6.713,0,0,1-1.557,3.122c-.2.242-.346.441-.484.631Zm5.924,108.149,8.735.026v17.072H82.676ZM91.117,613.8c.121-.156.233-.337.372-.536l.242-.354c.882-1.332,2.223-3.416,4.54-2.75a27.453,27.453,0,0,1,4.826,2.05l4.783,2.309-2.257,2.819c-.138.173-.277.389-.424.614l-.2.277c-.9,1.332-1.92,2.845-3.684,2.845a3.087,3.087,0,0,1-.891-.13,27.652,27.652,0,0,1-4.826-2.058L88.937,616.6Zm-3.131-83.405c-13.578-6.7-8.415-17.47-4.644-25.357,1.47-3.07,2.863-5.976,3.321-8.527l.147-.8,5.552.5v9.972l13.492-53.205V564.457Zm2.681-133.3L100.7,404.5l-11.675,4.48Zm-15.066.96,1.15-4.186,3.2,1.7a.82.82,0,0,0,.234.112c1.055.441,2.9,1.2,2.992,3.269a8.2,8.2,0,0,1-.519,2.958l-1.133,4.151-3.65-1.877c-.865-.355-2.733-1.107-2.793-3.2A8.417,8.417,0,0,1,75.6,398.052Zm-5.717,29.6.112-.078a2.256,2.256,0,0,1,.1-2.05l.666-1.522,1.643-.19a2.224,2.224,0,0,1,2.1.614l.078-.035,1.548,2.041,12.6-6.971v17.427L68.051,430.9l3.01-1.661Zm-2.041,60.184,6.772-.381,1.245,15.316-8.017.277ZM59.68,449.208l7.611-.043v15.922l-4.4-1.531c-.865-.233-3.036-.813-3.131-3.087-.1-2.223-.1-4.489-.087-6.677Zm5.509,74.956,1,.389.726-.986,9.565,6.979-5.466-2.188-2.352,2.387c-4.7,4.791-7.792,6.841-10.352,6.841a4.679,4.679,0,0,1-1.756-.355c-3.407-1.427-3.33-5.794-3.252-10.015.026-1.487.078-4.445-.277-5.059L46.162,510.43ZM48.4,598.739,56.341,557.3l-2.534,1.868,3.667-7.784,1.539-8.052,1.228,2.915,4.895,1.738-.182,1.1a4.518,4.518,0,0,1-1.219,2.785l-.856.623,17.245,40.976L68.138,598.7l-4.731-12.117-5.12,14.123ZM59.55,612.127h8.026v14.849H59.55Zm5.864,29.162,7.057-12.108,3.624,13.552Zm29.924,40.7-.553-14.313-7.1-.986v-.761l-.138-13.811-7.36.078-.216-24.458-8.112-12.817,11.122-4.8,1.661,17.184,8.432,23.722,7.178,15.81,8.233,15.809Zm12.73-38.269-12.462-7.031,14.382-3.65Zm2.058-41.3.865.164-.856-.164.1-.484c.242-1.245.484-2.421.6-3.58l.086-.735c-4.471-1.807-7.308-4.471-8.406-7.931-1.989-6.184,2.084-13.2,5.855-18.611l4.489-6.435,2.949,31.229,8.458,26.784-5.215-1.583C107.116,617.446,108.932,608.408,110.126,602.424ZM344.394,910.048l-13.967-8.424-21.638-11.407,26.239-.631-.285,8.138h13.31Zm18.11,5.284a8.806,8.806,0,0,1-3.036-.674,4.306,4.306,0,0,1-2.171-3.122l-1.029-2.75L359,907.41c.363-.113.545-.182.735-.251,1.5-.528,3.477-1.245,5.025.32a6.451,6.451,0,0,1,1.548,3.529l.06.3a3.717,3.717,0,0,0,.1.467l1.176,4.255Zm43.6,10.361.2-8.96-.1-.017-.311-.061-2.482-.441.069-.164a2.31,2.31,0,0,1-1.211-1.5l-.588-1.557,1.09-1.271a2.335,2.335,0,0,1,1.686-.994v-.13l3.771.649-.156.848,19.416,4.523Zm57.72,14.7a14.575,14.575,0,0,0-.8,1.237l-.138.234c-1.1,1.833-2.335,3.918-4.722,4.177-.2.017-.389.035-.6.035-1.877,0-3.494-.986-5.379-2.127-.9-.545-1.859-1.133-2.992-1.712l-8.8-4.523,27.381-2.508ZM762.027,746.1c-6.988,10.318-14.477,20.5-22.382,30.417l7.239-8.787-5.224,15.109a2.325,2.325,0,0,0-.1.389,4.938,4.938,0,0,1-2.058,3.537,7.87,7.87,0,0,1-2.387.856l-7.982,1.635c-.51.6-1,1.185-1.505,1.773l2.7-.043L717.461,820.77l.182-18.49c-6.3,6.9-12.393,13.206-18.525,19.156l11.451.233-15.956,14.685.087-10.707c-2.024,1.9-4.117,3.823-6.357,5.82a365.353,365.353,0,0,1-94.674,62.822,315.515,315.515,0,0,1-54.537,18.257,301.736,301.736,0,0,1-57.33,6.737,314.569,314.569,0,0,1-40.232-2.984l-4.1,11.485c-.035.112-.052.242-.078.372a4.531,4.531,0,0,1-2.006,3.217,7.262,7.262,0,0,1-2.179.726l-8.052,1.5,14.953-17.522q-8.043-1.167-15.74-2.785c-3.053-.51-6.115-1.341-9.089-2.136-1.7-.458-3.278-.873-4.86-1.254-1.185-.329-2.3-.614-3.416-.891l-.562-.147a93.327,93.327,0,0,1-10.015-2.923L369.864,896.9c-43.156-16.588-74.385-32.12-101.29-50.394a440.325,440.325,0,0,1-85.689-73.27c-4.238-4.419-8.112-9.288-11.84-14l-.562-.709c-1.842-2.318-3.693-4.627-5.57-6.884l-3.952-5.336c-4.22-5.708-8.6-11.615-12.5-17.738a272.5,272.5,0,0,1-21.846-38.486l-8.951-8.51,6.512,2.992c-.8-1.859-1.557-3.728-2.275-5.552l-.311-.778,5.172-2.326.372.752c2.032,4,4.272,8.138,6.677,12.281a4.574,4.574,0,0,1,3.044,2.266,6.589,6.589,0,0,1,.51,2.015l.251,2.093c5.492,8.882,11.7,17.885,19,27.528,4.117,5.639,8.692,11.061,13.128,16.3l4.194,4.99c2.214,2.3,4.514,4.852,6.538,7.1,3.944,4.341,7.9,8.726,12.151,12.618a465.3,465.3,0,0,0,85.723,67.337c27.433,17.089,59.639,32.163,98.48,46.07l25.963,8.493a76.243,76.243,0,0,0,8.7,2.508l.562.138c1.219.286,2.43.58,3.65.908,1.5.355,3.1.77,4.7,1.194,2.534.666,5.405,1.427,8.138,1.859a277.519,277.519,0,0,0,53.093,5.189,282.01,282.01,0,0,0,52.842-5.855,313.185,313.185,0,0,0,50.8-16.536c31.013-13.293,61.655-32.613,91.076-57.434,26.585-22.374,51.674-49.115,74.593-79.479,24.994-33.071,42.49-64.223,53.482-95.254l.285-.787,5.414,1.617-.19.813c-4,16.614-10.473,33.859-19.779,52.712a438.205,438.205,0,0,1-28.142,48.742Z" transform="translate(260.712 198.33)"/><path class="a" d="M124.05,133.479l11.466-15.2-11.432,5.494Z" transform="translate(896.791 858.115)"/><path class="a" d="M95.911,118.69c-.571,0,.571.017,0,0Z" transform="translate(680.313 861.267)"/><path class="a" d="M61.478,54.589l-3.341.031.019,6.32Z" transform="translate(392.667 370.994)"/><path class="a" d="M119.718,126.4l-1.912-.024.031,1.913Z" transform="translate(849.034 920.074)"/><path class="a" d="M80.453,129.747,66.362,115.625l4.7,13.833Z" transform="translate(455.576 837.827)"/><path class="a" d="M95.482,239.917c21.353,10.612,43.735,20.116,65.382,29.318,8.588,3.65,17.167,7.291,25.712,11.018l.839.363.943.043c4.653.2,9.306.337,13.967.467,11.113.311,22.59.64,33.815,1.972,51.9,6.14,104.5-5.57,160.792-35.874,38.736-20.886,73.788-53.093,104.17-95.747,9.712-13.639,19.018-28.678,22.278-46.667a78.932,78.932,0,0,0-7.256,9.7l-1.539,2.275c-29.163,42.732-62.217,91.154-117.411,120.317-100,52.825-197.072,52.3-296.788-1.574-9.591-5.18-19.822-9.634-29.725-13.95l-.822-.346.242.19C78.064,228.276,86.314,235.359,95.482,239.917Z" transform="translate(482.166 755.115)"/><path class="a" d="M96.094,143.747l-19.58-25.729-11.182-.389C71.706,128,80.865,139.44,96.094,143.747Z" transform="translate(447.694 853.152)"/><path class="a" d="M122.983,60.865l.008-6.249-3.287-.023Z" transform="translate(863.552 371.018)"/><path class="a" d="M120.621,125.513l-1.944-.008.016,1.936Z" transform="translate(855.703 913.391)"/><path class="a" d="M86.09,200.509c7.057-19.165,14.356-38.987,22.806-57.944,8.8-19.71,19.891-38.736,30.607-57.14,5.379-9.228,10.94-18.776,16.138-28.272a74.685,74.685,0,0,0,4.566-11.1c.1-.259.182-.528.268-.787-21.491,14.417-32.769,36.479-40.258,54.425-12,28.747-23.93,58.083-35.467,86.458-13.6,33.443-27.666,68.02-41.928,101.861C25.092,330.08,20.249,367.043,27.566,404.353c4.3,21.915,6.3,44.617,8.225,66.584.8,9.038,1.591,18.084,2.543,27.1,5.258,49.919,23.679,96.067,56.206,140.649q-.843-2.257-1.678-4.541c-5.872-15.878-11.943-32.319-20.108-47.2-15.316-27.926-23.939-56.111-26.36-86.173a629.585,629.585,0,0,0-8.536-62.987C26.675,376.6,33.542,321.068,58.847,268.036,69.268,246.19,77.822,222.969,86.09,200.509Z" transform="translate(133.738 299.72)"/><path class="a" d="M41.02,45.839l-.359,7.235,6.413-10.215-6.049,2.973v.006Z" transform="translate(259.003 281.281)"/><path class="a" d="M40.7,43.21l0,0V43.2l0,0Z" transform="translate(259.321 283.91)"/><path class="a" d="M85.132,166.942C71.1,152.707,56.3,138.731,41.985,125.23c-1.626-1.548-3.26-3.087-4.895-4.636,11.329,19.113,28.254,33.634,44.7,47.739q3.983,3.425,7.948,6.858l-.017-.052.4.363A25.3,25.3,0,0,0,85.132,166.942Z" transform="translate(231.688 875.838)"/><path class="a" d="M150.6,138.8l.105-.063-20.5.1-7.119,13.2.336,2.935L150.638,138.8Z" transform="translate(889.463 1014.568)"/><path class="a" d="M126.309,138.8l.1-.062h-.035l-.105.063Z" transform="translate(913.792 1014.568)"/><path class="a" d="M52.689,147.781,46.877,130l-6.14-6.062-10.378-5.068C34.017,130.968,39.717,142.246,52.689,147.781Z" transform="translate(180.206 862.636)"/><path class="a" d="M47.854,133.243l-4.512-4.494-.757-.754-7.463-3.685,11.245,17.675Z" transform="translate(216.638 904.25)"/><path class="a" d="M36.322,132.359l5.472,5.449,9.231-.57-14.68-13.857Z" transform="translate(225.816 897.146)"/><path class="a" d="M119.774,141.363l-.117,8.806,8.97-4.434-4.426-4.356Z" transform="translate(863.194 1034.679)"/><path class="a" d="M121.422,142.505l2.248-1.132-2.217.007Z" transform="translate(876.691 1034.762)"/><path class="a" d="M31.939,118.725l0,1.639.788.008-.007-.016h.012Z" transform="translate(192.259 861.535)"/><path class="a" d="M132.765,143.078h.835l-.273-.695Z" transform="translate(963.452 1042.481)"/><path class="a" d="M514.954,260.076a40.961,40.961,0,0,0-3.658,5.907c-1.609,3.408-3.589,6.858-5.5,10.2-5.466,9.548-10.638,18.568-8.095,26.862,1.764,5.751,7.152,10.759,16.484,15.325,2.491,1.228,3.243,5.976,3.269,6.166.277,1.773.034,2.949-.752,3.693-8.9,8.51-5.293,15.671-1.133,23.965,2.551,5.077,5.2,10.344,4.679,16.008-.156,1.7-.251,3.485-.355,5.31-.424,7.593-.856,15.437-5.094,20.419-4.532,5.345-4.731,10.733-4.93,16.449a41.034,41.034,0,0,1-1.064,9.332c-11.468,42.248-24.345,78.614-65.987,95.8l-2.3,2.223-.164-1.2-5.033,2.067,4.558-5.5-1.306-9.323-.164.138c-15.982,12.981-31.082,25.271-53.854,15.265l-2.958-1.289,2.482-2.076c2.344-1.929,4.566-3.883,6.755-5.794a151.134,151.134,0,0,1,13.993-11.286c65.832-44.911,87.781-105.554,69.075-190.836-5.587-25.513-3.632-52.946-1.747-79.488.822-11.511,1.661-23.42,1.877-34.966a7.453,7.453,0,0,1,1.081-3.477l-.017-.009.069-.1.035-.078c-14.486-2.352-20.159-14.919-25.193-26.1l-.1-.225c-20.306-45.119-52.816-74.523-96.62-87.41-5.2-1.522-10.4-3.1-15.61-4.7-46.416-14.114-94.423-28.721-144.1-4.817-13.336,6.426-22.01,11.13-30,22.244-6.443,8.951-15.446,16.077-24.164,22.962-5.129,4.065-10.439,8.268-15.135,12.774-24.25,23.282-38.667,48.189-44.072,76.141-1.418,7.351-4.073,14.495-6.651,21.413-2.62,7.066-5.327,14.365-6.633,21.7-9.038,50.948-4.895,94.925,12.67,134.422,1.989,4.48,3.926,8.968,5.864,13.448,10.024,23.221,19.494,45.153,35.813,65.382,35.666,44.185,79.609,68.746,138.314,77.326,40.431,5.907,77.559-4.341,112.092-15.377l1.193-.381.856.908c4.255,4.463,4.9,10.387,5.474,15.61.8,7.386,1.392,12.756,10.4,13.673l7.438-3.71-3.269,4.065,2.733.225-5.319,3.018c-4.973,6.14-9.781,8.847-14.772,8.476-5.933-.528-11.537-5.457-18.179-16.216v22.192l-54.45,11.053-2.768-9.055L318.67,560.7l-.614-3.468L279.19,560.02l.839,19.061L242.46,553.1c-.389,1.574-.709,3.157-1.029,4.713-1.046,5.146-1.946,9.591-5.051,11.243-15.256,8.086-24.933-1.877-32.388-12.687l-.787-1.133,7.351-10.69c-3.183-1.323-6.339-2.672-9.513-4.013-9.963-4.229-20.281-8.605-30.589-12.359-5.665-2.076-11.606-3.408-19.122-5.1-3.857-.865-8.086-1.816-12.852-3.01l-.571-.138L74.758,453.411l.017.078-.251-.277c.078.5.156.995.233,1.5,1.176,7.619,2.292,14.823,5.881,20.367,32.285,49.953,72.733,81.762,123.673,97.251,47.462,14.426,94.138,26.568,142.967,16.83a15.73,15.73,0,0,1,9.159,1.375l.052-.035.035.026c5.327-2.741,10.127-5.241,14.581-7.55,9.185-4.774,16.882-8.778,24.657-12.592,79.072-38.8,123.915-103.928,133.307-193.578,2.793-26.689-1.072-54.632-4.817-81.667-1.591-11.476-3.226-23.333-4.35-34.966a23.684,23.684,0,0,0-2.422-.951c-.5-.182-1.02-.372-1.531-.562C515.62,259.133,515.292,259.6,514.954,260.076ZM179.473,479.9a3.99,3.99,0,0,1-2.612-.874l-.467-.579-2.776-3.139-5.613-5.172,10.646-4.437-.925,9.219,2.863,1.168Zm-1.782-17.781-1.583-.8c-19.26-9.738-29.742-25.228-41.435-44.47-1.825-2.992-3.684-5.941-5.544-8.891-7.982-12.644-16.242-25.72-19.926-41.037-2.793-11.6-4.973-23.524-7.083-35.052-.9-4.9-1.79-9.79-2.733-14.668l-.579-.45.009-.043-8.64-7.031,7.4,1.211a5.488,5.488,0,0,0,.683.052,5.464,5.464,0,0,1,2.188.441l14.166-37.5L79.6,245.494l27.009-26.663L92.877,206.723l12.289-31.368,31.048,9.963a42,42,0,0,1-.086-9.271c.311-5.007.605-9.721-2-12.6-1.972-2.179-5.57-3.338-11.009-3.546l-2.153-.086.242-2.136c2.473-21.725,17.479-31.99,30.719-41.037l2.69-1.851c20.756-14.339,44.176-27.329,71.609-39.679,13.232-5.967,30.529-3.7,37.335-2.439,14.391,2.646,28.765,6.91,43.986,11.416,6.858,2.032,14,4.143,21.586,6.261l8.553,2.37-8.744,1.513c-66.359,11.52-72.3,12.557-92.573,3.01l7.654,11.736-43.372,12.73L140.3,188.441l-7.386,42.248-.96.432c-2.75,1.263-5.146,1.444-7.1.536-3.33-1.557-4.437-5.57-5.509-9.461-.761-2.724-1.617-5.838-3.018-6.279-.562-.156-2.257-.225-6.3,3.027l-.4,2.041c-1.989,10.11,5.2,14.08,12.791,18.291,1.669.917,3.312,1.833,4.834,2.8l1.021.631-.087,1.193c-8.458,118.38-2.162,130.358,57.737,203.4l.943,1.142ZM91.8,274.164l7.879-1.194,3.407,18.2-8.778,1.41ZM288.91,133.394l-6.858,2.153-2.205-8.372,2.9.311c.259.035.536.043.813.052a6.935,6.935,0,0,1,2.932.579,3.537,3.537,0,0,1,1.652,2.768,5.18,5.18,0,0,0,.138.579ZM350.3,488.541q-4.294,1.44-8.579,2.889c-3.131,1.072-6.59-1.453-10.283-4.134-1.1-.8-2.188-1.583-3.234-2.249-31.584,17.66-66.178,17.349-96.2,14.382l10.551,21.777-30.226-18.715,15.55-5.76c-.406-11.632-5.993-18.066-17.072-19.684-9.643-1.41-13.933-6.556-13.111-15.723l-6.945-2.249,7.161-7.567,2.569,6.936c.277-.043.553-.078.822-.13,2.067-.32,4.393-.683,6.2.441,35.787,21.95,75.492,23.187,119.781,22.495l.8-.009c1.6-1.064,3.183-2.162,4.765-3.252,3.866-2.664,7.87-5.423,12.047-7.8,5.336-3.027,10.9-5.872,16.268-8.622,9.9-5.085,20.142-10.326,29.18-16.8,40.89-29.284,48.284-71.228,46.805-125.195-.207-7.524-1.531-15.221-2.811-22.668q-.4-2.335-.8-4.653a126.214,126.214,0,0,0-26.04,55.618,6.767,6.767,0,0,0,.977-.277,6.258,6.258,0,0,0,.709-.882,7.043,7.043,0,0,1,1.859-1.955,41.2,41.2,0,0,1,4.523-2.422l4.48-2.257.147,3.088c2.569,55.039-20.946,85.9-67.977,89.4l-.043.8-.623-.571c-12.791,16.372-30.3,16.449-47.246,16.493-7.662.017-15.567.034-22.711,1.66-8.1,1.834-17.323-2.543-26.248-6.78-.657-.32-1.332-.64-2.015-.951l-9.937-3.7-.052.017V439.5L221.1,431.211l-1.7-1.133,1.453-1.462,6.478-9.141-11.1-2.577.061,7.317-2.344-.381c-30.01-4.99-46.061-30.685-52.954-45.56-22.027-47.523-40.89-98.575-9.254-154.124l1.124-1.972,1.816,1.375c15.117,11.451,9.911,27.338,6.46,37.845l-.337,1.029c-9.92,30.425-3.286,58.8,3.745,88.819L165,353.2c.337,1.453,1.539,2.9,2.923,4.393a72.756,72.756,0,0,0-.657-7.982c-1.029-8.648-2.188-18.413,7.057-25.9l-.043-.086.8-.553c-.64-4.056-1.384-8.112-2.136-12.168-1.877-10.214-3.823-20.773-4-31.281-.052-3.062-.986-6.556-1.963-10.257-1.877-7.049-3.814-14.339-.216-20.523,2.318-3.97,6.607-6.85,13.1-8.761-.009-.164-.017-.329-.035-.51-.277-4.281-.848-13.172,3.234-19.9l2.361-3.9,11.355,39.5,2.4-32.457,8.389.216-.026,18.092c-.017,11.909-.043,23.818.052,35.718.3,39.264,12.488,50.68,54.269,69.559C293.8,360.8,321.619,344.51,339.331,328.3c11.952-10.932,25.478-26.04,25.772-46.874-4.238,3.183-7.083,8.1-10.075,13.267-5.535,9.574-11.8,20.436-28.609,24.458l-4.376,1.047L358.5,253.46l.355.934-9.141-42.948L327.033,197.9l4.324-1.306c7.956-2.422,13.561-2.292,17.115.406,3.07,2.309,4.48,6.253,4.454,12.385l10.966,4.748.009-.043.026.017.986-10.828c-.156-.294-.32-.588-.484-.882a19.115,19.115,0,0,1-1.955-4.307c-.4-1.444.623-2.43,1.738-3.269-8.536-11.727-21.137-15.187-34.455-18.845-8.026-2.214-16.328-4.489-23.645-8.752-19.182,17.591-39.03,11.07-56.569,5.31-3.269-1.081-6.478-2.136-9.626-3.018L196.6,190l11.693-24.129-36.617,34.749-1.349-1.8c-5.172-6.953-7.1-13.085-5.907-18.732,1.15-5.449,5.3-10.222,12.333-14.192,8.043-4.54,16.129-8.994,24.216-13.448l10.975-6.054,13.682-6.59-1.332,2.162,4.376-3.053c6.011-4.2,12.35-7.861,17.582-6.244,2.88.882,5.137,3.191,6.867,7.031l.061-.026.519,1.358,41.417,6.089L305.723,100.8l34.784,7.939-3.7-12.238,2.283-.346c24.795-3.8,41.832,10.473,57.149,25.392,46.926,45.7,67.285,99.448,60.487,159.754-.225,2.032-.476,4.082-.726,6.123-2.283,18.646-4.445,36.246,8.233,52.245,2.378,3.01,4.4,8.311,3.477,12.212-1.652,6.927-3.053,14.175-4.419,21.171-3.65,18.784-7.42,38.217-16.4,54.649-9.6,17.539-30.278,29.906-48.535,40.812C383.472,477.4,366.608,483.067,350.3,488.541Zm-84.3-261.3-17.9,2.69.874-3c4.687-16.069,5.63-16.648,25.167-15.9l3.243.121-7.948,14.348,14.33,14.3L268.5,249.378c-1.6,1.453-3.139,3.044-4.661,4.627-3.632,3.736-7.386,7.6-12.03,9.885-7.109,3.485-14.832,5.959-23,8.579-3.7,1.194-7.576,2.43-11.632,3.84l-2.655.917v-47.86l5.552-1.41.856,1.929,4.964,23.264c6.486,2.006,11.822-1.436,17.5-5.077,6.547-4.22,13.9-8.951,22.693-3.425Zm56,15.247c3.451,2.413,5.656,6.5,6.728,12.506H342.47L339.3,264.5l-13.059-6.789-43.519-13.388,11.554-2.162C306.259,239.9,315.721,238.091,321.991,242.485ZM297.524,211.03l9.375.925-5.526,8.147Zm10.387-21.223,6.772-1.453,3.1,5.059-3.589.692a9.911,9.911,0,0,1-2.249.329l-.294-.009c-1.444-.078-2.006-1.34-2.335-2.093Zm13.543,138.565-2.275.476c-.865.173-1.7.4-2.534.614a23,23,0,0,1-5.777,1,8.52,8.52,0,0,1-1.142-.069c-2.024-.216-2.655-2.448-3.382-5.042-.216-.744-.424-1.5-.649-2.11l-.718-1.877,12.177-4.54Zm-77.9-18.421c-9.1.528-20.462,1.142-21.7-20.358l-.277-4.852,23.3,20.981,26.1-39.731,1.531,3.157c5.327,10.888.865,20.531-3.079,29.033-4.073,8.787-7.593,16.389-1.531,24.709l.009.009,16.423-3.771-2.6,18.248L266.969,326.08l-.726-.017c-1.513-.043-3.131.035-4.731.086-6.037.242-12.272.45-15.775-3.736-2.257-2.69-2.923-6.789-2.041-12.471Z" transform="translate(424.387 365.132)"/><path class="a" d="M91.379,99.842l.1.553-4.246-4.022L74.9,89.81c2.966,12.2,9.029,20.116,18.8,24.553l-.64-12.488Z" transform="translate(520.905 640.381)"/><path class="a" d="M89.436,111.819c-5.509-7.663-9.565-16.441-13.4-25.046l5.544,30.261L84.1,119.5l-.009-.13,2.932,2.992.467.337c1.574,1.116,3.183,2.188,4.791,3.269a106.333,106.333,0,0,1,10.171,7.429c42.377,36.5,85.49,40.526,131.508,12.177a100.926,100.926,0,0,0-14.849,3.771C171.709,166.14,117.18,150.374,89.436,111.819Z" transform="translate(529.594 617.153)"/><path class="a" d="M81.123,71.555l2.264-2.15-3.013,6.027,25.348-10.262L85.768,64.045Z" transform="translate(562.742 443.319)"/><path class="a" d="M121.391,90.867l-3.029-14.528-21.585,10.5.031.078,6.285,16.839Z" transform="translate(688.2 537.348)"/><path class="a" d="M150.158,108.676l-7.974,7.628-2.551-7.879-16.821,2.344,13.95,16.882-1.021,1.263c-27.848,34.862-47.947,78.13-61.438,132.269-1.842,7.386-6.27,14.08-10.542,20.549-1.444,2.179-2.923,4.419-4.29,6.659.138.986.311,1.963.493,2.949a29.174,29.174,0,0,1,.709,8.147C54.489,360.406,59.237,409.3,75.591,453.342c1.15,3.113,2.1,6.426,3.018,9.643,3.433,12.013,6.694,23.4,20.557,26.568l-1.462-4.973c-1.885-6.478-3.779-12.955-5.8-19.39q-6.058-19.29-12.168-38.546-7.926-25.011-15.783-50.057a16.762,16.762,0,0,1-.484-8.527c4.843-20.393,7.5-41.659,10.067-62.243,4.22-33.789,8.588-68.72,22.711-100.841,10.058-22.866,22.711-45.646,46.97-57.391,5.483-2.655,9.712-6.045,9.851-7.887,1.721-22.46,16.916-32.752,31.619-42.706,6.893-4.67,14.028-9.5,19.442-15.489,4.091-4.523,10.326-6.919,13.673-7.939,32.388-9.868,63.938-4.065,88.05,2.309l13.076-16.328,1.522,2.223c23.117,33.582,53.352,40.717,94.908,22.3-52.842-23.377-103.011-35-153.242-35.536l-4.022-.043.683-.882-1.721.009L145.081,106.652Z" transform="translate(392.109 317.549)"/><path class="a" d="M116.029,70.027C133.2,88.31,147.673,109.049,161.658,129.1c8.856,12.7,18.023,25.833,27.744,38.166,7.2,9.115,6.789,19.528-1.133,30.218,7.628,4.2,7.247,11.546,6.91,18.11-.19,3.727-.372,7.247.8,10.1,5.345,12.843,9.557,22.979,24.622,25.037-5.474-40.725-14.624-87.539-39.627-128.749C159.98,87.376,133.1,64,100.989,52.419l.441.545C106.1,58.68,110.926,64.587,116.029,70.027Z" transform="translate(720.414 354.399)"/><path class="a" d="M195.258,137.366c-13.379-31.29-38.6-56.137-69.2-68.193-7.317-2.88-15.161-4.3-23.472-5.8-3.139-.571-6.3-1.142-9.461-1.8-.579,17.764,5.224,26.68,19.156,29.655,18.438,3.944,33.3,15.827,44.185,35.32,9.773,17.53,18.369,36.055,26.7,53.957,3.235,6.979,6.486,13.941,9.807,20.877l1.3-1.072-.675,2.4c.156.329.3.657.458.977l4.575,9.531-2.707-2.517,3.494,9.678C208.516,194.316,207.089,165.058,195.258,137.366Zm-15.844,8.986-2.508-13.007,6.979.6Z" transform="translate(659.926 424.397)"/><path class="a" d="M90.115,106.295l.138-.19,1.643.061c4.16,1.375,8.458,3.208,12.618,4.981,9.8,4.194,19.917,8.51,27.883,6.5,4.445-1.133,9.453-1.392,14.754-1.66,14.919-.77,29.033-1.488,31.835-20.739-3.269.389-6.538.813-9.816,1.228-27.537,3.537-55.99,7.2-82.238-7.481-3.148,4.367-6.512,9.885-5.189,13.085C82.574,104.072,85.385,105.482,90.115,106.295Z" transform="translate(570.955 634.17)"/><path class="a" d="M99.417,154.564l2.941,5.976c1.1-.242,2.949-.761,4.757-1.254,1.34-.381,2.863-.8,4.523-1.245-25.755-20.462-27.96-47.653-26.7-78.441C74.483,91.672,76,101.333,78.669,108.563,84.481,124.268,92.074,139.662,99.417,154.564Z" transform="translate(534.722 562.283)"/><path class="a" d="M93.657,125.982c.337.026.683.061,1.029.078,4.463.355,9.055.692,11.226-1.055,13.639-11.044,21.924-24.7,24.717-40.682Z" transform="translate(664.336 598.406)"/><path class="a" d="M98.338,112.861c-1.764,2.344-2,6.158-2.24,10.205l-.009.164c15.887-9.47,23.515-20.436,24.164-34.819q-1.712,1.79-3.433,3.58C110.454,98.626,103.881,105.493,98.338,112.861Z" transform="translate(682.937 629.688)"/><path class="a" d="M104.1,94.748l4.489-15.827C103.176,83.756,102.45,86.315,104.1,94.748Z" transform="translate(738.239 557.097)"/><path class="a" d="M99.342,113.736l10.9-17.705-9.368-4.278Z" transform="translate(707.821 655.239)"/><path class="a" d="M91.793,66.5l.672-.047-.071-.257Z" transform="translate(650.076 459.786)"/><path class="a" d="M85.628,66.457h0Z" transform="translate(602.928 461.766)"/><path class="a" d="M88.586,66.587l.008-.152-2.022-.094Z" transform="translate(610.144 460.876)"/><path class="a" d="M83.732,98.751l1.694-.406L83.81,97.7Z" transform="translate(588.424 700.764)"/><path class="a" d="M100.177,84.737v0Z" transform="translate(714.2 601.548)"/><path class="a" d="M133.76,142.776l-.294.2c.035.363-.026.726-.017,1.09h.822Z" transform="translate(968.674 1045.487)"/><path class="a" d="M69.42,152.159a18.894,18.894,0,0,0-5.8,1.626l4.065,3.131,4-2.932A8.393,8.393,0,0,0,69.42,152.159Z" transform="translate(434.577 1117.252)"/><path class="a" d="M30.293,132.46l1.427,3.321,5.656-2.352a10.284,10.284,0,0,0-3.667-2.439,9.806,9.806,0,0,0-2.958,1.219C30.6,132.3,30.449,132.382,30.293,132.46Z" transform="translate(179.701 955.309)"/><path class="a" d="M156.94,70.232a11.985,11.985,0,0,0-.64-1.609c-.156.052-.32.112-.484.173Z" transform="translate(1139.754 478.334)"/><path class="a" d="M154.665,60.2a12.594,12.594,0,0,0-1.617.631c.052.156.121.329.173.493Z" transform="translate(1118.583 413.926)"/><path class="a" d="M151.376,55.8l1.436-1.116a11.327,11.327,0,0,0-1.609.631C151.255,55.468,151.324,55.632,151.376,55.8Z" transform="translate(1104.472 371.699)"/><path class="a" d="M154.811,113.588l-.695.273.695.562Z" transform="translate(1126.751 822.245)"/><path class="a" d="M143.737,136.5v-.827l-.695.273Z" transform="translate(1042.054 991.164)"/><path class="a" d="M46,143.342l1.133,1.444a13.545,13.545,0,0,0-.64-1.626Z" transform="translate(299.843 1048.424)"/><path class="a" d="M46.8,144.365c.545.441,1.081.865,1.635,1.237l.06-.069-1.289-1.574Z" transform="translate(305.992 1054.535)"/><path class="a" d="M48.456,145.9l-.078-.061L46.8,147.107l.415.415C47.66,146.969,48.075,146.433,48.456,145.9Z" transform="translate(305.984 1068.891)"/><path class="a" d="M54.846,147.675l-1.583,1.28.415.415c.441-.545.865-1.081,1.237-1.626Z" transform="translate(355.386 1082.957)"/><path class="a" d="M46.8,148.975c.545.432,1.081.856,1.635,1.228l.06-.069-1.289-1.574Z" transform="translate(305.992 1089.726)"/><path class="a" d="M60.765,153.464l1.133,1.444a11.57,11.57,0,0,0-.631-1.626Z" transform="translate(412.764 1125.842)"/><path class="a" d="M45.919,19.725,45.224,20l.695.562Z" transform="translate(293.903 104.343)"/><path class="a" d="M31.227,123.226l-1.148-1.14v1.14Z" transform="translate(178.065 887.246)"/><path class="a" d="M39.307,132.209v1.14h1.143Z" transform="translate(248.648 964.666)"/><rect class="a" width="0.949" height="0.03" transform="translate(415.647 127.089)"/><path class="a" d="M263.183,566.374c-1.79,8.995-4.523,13.708-8.545,14.8-5.846,1.617-11.589-5.033-17.167-11.442a140.282,140.282,0,0,1-9.877-13.362c-4.93-7.247-9.582-14.106-15.887-18.957-5.025-3.848-8.268-9.15-11.407-14.27-4.506-7.36-8.77-14.313-17.885-16.423l-2.681-.614,1.418-2.361a22.633,22.633,0,0,0,1.029-2.05c.891-1.911,1.894-4.073,3.84-5.085a12.969,12.969,0,0,1,4.324-1.012,10.545,10.545,0,0,0,2.629-.51,18.977,18.977,0,0,0-1.92-3.131q-21.872-29.37-44.012-58.533l-14.867-19.7c-.986,1.1-2.024,2.318-3.053,3.537-5.1,6.037-8.164,9.384-11.148,8.337-5.163-1.825-8.475-4.843-9.842-9-1.911-5.82.173-13.353,6.192-22.4-1.7-16.19-20.54-67.717-30.745-80.672-.657-.822-1.323-1.635-1.98-2.43-4.342-5.293-8.83-10.741-7.394-19.545.009-.614-1.557-2.387-2.4-3.338l-.017-.017a12.717,12.717,0,0,0-1.219,3.4c-.839,5.379-1.479,10.785-2.128,16.2L66.994,319.6l-2.975-4.549c-1.349-2.05-2.845-4.056-4.342-6.063-3.382-4.532-6.867-9.211-8.718-14.538-2.7-7.714-3.952-15.861-5.163-23.74-1.8-11.719-3.658-23.835-10.344-34.49-3.278-5.224,3.883-16.882,5.353-19.165,3.183-4.947,6.2-7.1,9.072-6.374,2.837.735,4.411,4.065,4.817,10.17.061.9.934,2.1,1.8,3.26a11.646,11.646,0,0,0,1.825-2.318c-1.09-3.944-2.525-8.259-3.918-12.428-1.28-3.849-2.6-7.827-3.684-11.84-.778-2.889,1.193-5.993,3.1-8.986,1.315-2.076,3.113-4.9,2.543-5.967-.234-.432-1.574-1.842-9.055-1.946l-3.278-.043L45.58,177.7c.337-.649.64-1.349.934-2.058a12.735,12.735,0,0,1,3.278-5.154,20.574,20.574,0,0,1,4.393-2.655,18.2,18.2,0,0,1-5.682-2.551c-1.782-1.315-1.868-3.831-1.946-6.261a21.114,21.114,0,0,0-.173-2.543c-.4-2.4-.856-4.8-1.323-7.2a122.5,122.5,0,0,1-2.335-15.818,100.6,100.6,0,0,1,.268-12.194c.424-6.8.822-13.215-1.038-18.871C40.011,96.479,35.384,91.4,30.489,86.032c-1.609-1.764-3.26-3.58-4.809-5.423-1.591,1.816-3.235,3.606-4.878,5.4C15.734,91.523,10.5,97.24,6.948,103.614c-1.911,3.416-.5,9.557.744,14.979l.579,2.56a36.864,36.864,0,0,0,2.75,7.282c1.5,3.252,3.053,6.625,3.312,10.248.156,2.283.147,4.627.138,6.953-.043,10.3-.086,18.439,13.907,19.857l1.972.2-.182,1.972c-.294,3.235,1.738,6.607,3.883,10.2,4.169,6.936,9.358,15.576-3.909,24.83-3.044,2.136-5.025,9.124-5.423,19.191-.2,5-.917,10.11-1.609,15.048-2.318,16.519-4.506,32.129,10.724,45.543,2.577,2.275,2.871,6.279,3.157,10.162.216,2.975.45,6.062,1.669,7.931,1.392,2.11,4.393,3.97,7.291,5.769,3.935,2.43,7.654,4.722,7.784,8.138.467,12.964,6.088,17.85,17.721,23.325,7.688,3.632,12.713,6.832,13.95,11.6,1.315,5.051-1.747,10.525-8.666,20.159l-.458.649c-1.7,2.361-6.227,8.64-5.483,10.318,2.153,4.834,4.134,9.807,6.106,14.78,7.524,18.931,15.3,38.511,33.936,50.481a15.594,15.594,0,0,0,2.3-1.141,15.444,15.444,0,0,1,4.964-2.032c13.708-1.9,27.165,6,31.74,14.365,2.767,5.051,2.439,10.023-.943,14.019-10.612,12.532-5.656,22.019-.424,32.077,3.018,5.777,6.132,11.745,6.184,18.317a23.217,23.217,0,0,0,7.438,3.269c5.535-5.44,10.439-5.76,13.578-5.034,5.864,1.341,9.66,6.884,11.139,11.226,4.255,12.6,14.642,19.5,25.643,26.81,12.289,8.173,24.994,16.622,28.125,33.573a3.883,3.883,0,0,0,.692.32c13.777-9.383,26.905-5.509,37.136-.51.32-.51.666-1.029,1.012-1.557.943-1.427,2.508-3.805,2.275-4.6-2.482-8.173-5.509-14.382-9.262-18.975C271.3,565.206,265.311,565.716,263.183,566.374ZM19.73,110.4c.476-.242.951-.5,1.427-.77a16.7,16.7,0,0,1,4.376-1.885c1.626-.355,2.767.986,3.736,2.171.251.311.5.614.735.856l1.972,1.955-2.482,1.245c-.467.233-.934.493-1.392.752a16.735,16.735,0,0,1-4.419,1.9,2.524,2.524,0,0,1-.553.06c-1.358,0-2.326-1.176-3.183-2.231-.251-.311-.5-.614-.735-.856l-1.98-1.963ZM26.1,149.329l-8.787-4.834,1.894-1.885c.234-.242.484-.545.735-.856.977-1.193,2.093-2.491,3.736-2.171a16.7,16.7,0,0,1,4.376,1.885c.484.268.951.528,1.427.77l2.5,1.237Zm136.455,333.6a11.28,11.28,0,0,0-.856.752l-1.877,1.877-4.86-8.77,5.864-5.855,1.245,2.482c.233.476.5.943.761,1.418a16.62,16.62,0,0,1,1.894,4.367C165.1,480.849,163.752,481.956,162.559,482.925Z" transform="translate(-6.012 570.008)"/><path class="a" d="M134.355,31.537a19.39,19.39,0,0,0-1.1-1.764,14.421,14.421,0,0,0-1.548,3.113c-.5,1.271.752,5.431,1.617,7.351,7.161-.372,11.027,5.492,14.339,10.655,4.584,7.135,7.827,11.312,16.285,7.887,4.981-2.015,14.875,13.95,14.97,14.114,5.129,8.9,8.363,16.847,9.876,24.311.216,1.064,4.229,3.3,6.383,4.506,4.791,2.681,9.323,5.206,8.787,8.986-.441,3.165-4.272,5.483-13.05,7.775l.061.121a12.147,12.147,0,0,0,1.79,2.768c1.012.009,2.37.026,3.719.035,4.869.061,9.911.13,12.938,3.624,2.2,2.525,2.906,6.452,2.179,11.978-.571,4.367-.571,4.367,12.8,8.1l2.534.7c3.113.839,6.339,1.7,7,4.108,4.575,16.683,15.213,28.92,26.464,41.876l3.875,4.48c4.584,5.336,7.784,9.409,10.127,12.384,5.907,7.516,6.287,8.112,11.546,8.069.268-.009.528-.009.787-.009,10.136,0,18,2.577,25.383,8.32a59.342,59.342,0,0,0,5.509-2.473c1.271-.623,2.638-1.271,4.047-1.894-2.482-3.684-4.765-7.161-6.927-10.473-5.215-7.957-9.712-14.832-14.884-21.171-7.334-8.986-15.074-17.9-22.564-26.525-8.3-9.565-16.882-19.45-24.959-29.482-.147-.182-14.287-18.577-9.989-23.61,2.344-2.759,3.364-5.042,3.018-6.8-.32-1.652-1.885-3.148-4.938-4.722-11.831-6.132-19.243-16.233-26.395-26-4.3-5.855-8.735-11.909-14.019-16.882l-.675-.631.035-.925c.476-10.093-5.665-12.073-15.705-14.469-7.836-1.859-16.6-3.952-18.456-13.44-.588.528-1.194,1.055-1.782,1.583a87.186,87.186,0,0,1-12.653,9.833c-2.162,1.28-4.9.493-7.524-.277a18.525,18.525,0,0,0-4.134-.882C136.811,35.74,135.505,33.5,134.355,31.537Zm98.056,94.207c.484-.234.96-.5,1.436-.761a16.753,16.753,0,0,1,4.385-1.885c1.669-.389,2.75.977,3.719,2.162a9.623,9.623,0,0,0,.735.856l1.9,1.885-8.8,4.852-5.872-5.864Z" transform="translate(954.492 148.778)"/><path class="a" d="M33.236,227.215c3.062,2.214,4.886,3.9,5.206,5.9.285,1.833-.718,3.2-1.877,4.774-.415.562-.891,1.2-1.375,1.963-1.47,2.292-1.8,5.518-2.145,8.925-.061.562-.112,1.116-.173,1.669.925-.233,1.885-.441,2.819-.657,3.07-.709,7.714-1.764,8.242-3.122,5.189-13.258,7.775-24.423,7.9-34.144.156-11.269,4.082-16.294,14.97-19.009.493-1.375.631-5.881.061-9.9H62.857l2.275-1.807a17.854,17.854,0,0,1-3.589-3.676L59.734,175.8l2.819-.822c.484-.147,1.072-.363,1.66-.579,2.318-.865,4.16-1.548,5.319-.035a10.386,10.386,0,0,1,1.349,2.439A85.315,85.315,0,0,0,80.3,165.655l.242.173.493-1.176,2.793-3.909c6.132-8.648,12.445-17.565,22.443-23.109-2.724-2.171-4.125-4.445-4.255-6.919-.242-4.5,3.831-8.173,7.844-11.174,3.451-2.586,6.936-5.128,10.413-7.68l4.134-3.027a39.153,39.153,0,0,0,.337-6.158c.017-6.971.026-14.183,12.341-21.206,15.377-8.778,29.517-27.191,27.286-48.959l-34.248,2.318c.536,2.084,1.116,4.177,1.686,6.27,1.738,6.3,3.529,12.826,4.169,19.433.562,5.855-.13,8.882-2.309,10.127-2.716,1.574-5.907-.761-8.994-3.01a21.9,21.9,0,0,0-3.823-2.422c0,.156-.043.441-.078.865-.588,8.9-6.772,13.414-12.238,17.392-4.731,3.459-9.211,6.72-10.24,12.488-.588,3.243-6.261,5.059-9.591,5.855-8.32,1.972-13.076,3.1-14.1,4.834-.848,1.436.052,4.679,1.557,10.049l.329,1.2c.061.216,4.99,21.448.156,22.866C68.072,143.325,63.7,148,62.035,156.436l-.761,3.857-2.664-2.88c-.554-.6-1.185-1.159-1.816-1.73-1.669-1.5-3.39-3.044-4.108-5.206a61.861,61.861,0,0,1-2.093-9.833,51.365,51.365,0,0,0-5.206,8.96c-5.12,12.532-10.923,26.732-20.791,39.549-5.682,7.386-7.974,13.31-7.2,18.646C18.274,213.914,23.169,219.907,33.236,227.215Zm8.718-40.933,1.877,1.868c.242.233.554.484.865.735,1.193.969,2.543,2.076,2.179,3.727a16.7,16.7,0,0,1-1.911,4.411c-.259.458-.519.925-.752,1.4l-1.237,2.456-5.864-5.838Z" transform="translate(79.922 202.149)"/><path class="a" d="M26.534,51.583c-.035-.233-.043-.476-.086-.709a17.1,17.1,0,0,1-1.652-1.1l-2.275,1.808Z" transform="translate(120.258 334.176)"/><path class="a" d="M161.365,101.817l.1.4,2.543-.96c-.017-1.194-.043-2.43-.052-3.728C163.026,99.006,162.169,100.442,161.365,101.817Z" transform="translate(1182.195 699.404)"/><path class="a" d="M212.456,123.419c7.23-.649,8.078-4.852,9.15-10.188.692-3.425,1.462-7.239,4.333-9.755L209.991,82.581l-4.584,17.548a67.414,67.414,0,0,0-1.271,7.074c-.285,1.955-.571,3.944-.969,5.8l1.418-1.4a11.3,11.3,0,0,0,.744-.856c.969-1.185,2.032-2.508,3.71-2.171h.017a16.9,16.9,0,0,1,4.385,1.894c.467.268.943.519,1.418.761l2.491,1.237-5.864,5.864-8.458-4.661c-.83,3.606-2.1,6.72-4.61,8.354-4.886,3.165-11.295,3.632-17.5,4.082a78.525,78.525,0,0,0-8.977.986c-.545.1-1.479,1.219-2.188,2.05,3.632,2.525,5.743,5.224,6.443,8.216,1.159,4.93-1.755,9.435-4.575,13.786-2.595,4.013-5.059,7.8-4.229,11.5,1.738,7.844,4.662,20.955-6.832,31-1.557,1.367-1.081,2.759,1.375,6.832,2.785,4.618,7.005,11.606-2.37,18.222-1.479,1.046-2.283,2.058-2.456,3.079-.32,1.894,1.453,4.359,3.33,6.971,3.529,4.93,8.354,11.684,1.617,19.623-3.209,3.779-4.333,7.36-3.33,10.629,1.358,4.437,6.616,8.233,14.408,10.413l1.1.311.666,1.392c.441,1.6-.778,2.863-2.456,4.618-.977,1.02-3.572,3.728-3.243,4.661.026.052.553,1.341,6.166,1.972,8.311.839,14.495-2.119,17.383-8.553.182-1-2.534-4.592-3.987-6.521a50.605,50.605,0,0,1-3.779-5.457l-1.064-1.816c-1.686-2.837-3.425-5.777-3.658-9-.649-9.02-.363-17.928,9.652-35.528a44.159,44.159,0,0,1-1.591-10.672c.035-2.4,1.833-4.324,3.563-6.175a23.156,23.156,0,0,0,1.764-2.015l2.491-3.347,1.055,4.082c1.669-31,.873-34.948-.017-36.09l-1.834-2.318,2.837-.83c.484-.138,1.072-.363,1.661-.579,2.318-.882,4.169-1.557,5.336-.026a15.322,15.322,0,0,1,2.171,4.921c.147.493.294.986.458,1.462,2.4-5.362,6.374-10.551,12.471-15.463a5.624,5.624,0,0,0-.268-1.868c-.77-2.136-1.617-4.229-2.482-6.331a16.974,16.974,0,0,1-2.205,5.163c-1.237,1.842-3.9,1.591-6.72,1.323a18.05,18.05,0,0,0-2.6-.173l-2.767.026.847-2.638c.562-1.738.234-4.255-.1-6.694-.519-3.805-1.055-7.732,1.263-10.629C206.73,124.759,209.083,123.713,212.456,123.419Zm-34.94,100.417-1.245-2.473c-.234-.476-.5-.943-.753-1.4a16.763,16.763,0,0,1-1.911-4.4c-.355-1.669,1-2.776,2.2-3.745a10.807,10.807,0,0,0,.848-.735l1.877-1.851,4.86,8.752Zm7.023-73.667-5.881-5.855,2.5-1.245c.476-.242.951-.493,1.427-.761a16.468,16.468,0,0,1,4.385-1.885c1.669-.329,2.759.977,3.727,2.162.259.311.51.623.744.856l1.9,1.885Z" transform="translate(1149.396 585.09)"/><path class="a" d="M162.711,95.262c.242-.986.536-1.972.873-2.949H163.5A20.6,20.6,0,0,0,162.711,95.262Z" transform="translate(1192.49 659.525)"/><path class="a" d="M166.381,93.15c-1.09,6.443-2.508,16.847-4.229,31.143l-.009.13c-.017,1.885-.017,3.788-.017,5.639l1.79,6.763-1.66.631c.4,13.085,1.738,18.4,2.594,20.505.761-1.946,1.609-3.935,2.465-5.959,3.5-8.2,7.118-16.666,5.2-22.806C168.733,117.149,164.885,104.86,166.381,93.15Z" transform="translate(1188.016 665.927)"/><path class="a" d="M65.979,74.352c2.015-.579,4.1.536,5.924,1.513a18.478,18.478,0,0,0,1.955.96l2.032.8-1.79,3.65A39.2,39.2,0,0,1,72.059,85.2c-5.95,9.643-14.979,9.254-22.962,8.891l-1.237-.052a16.56,16.56,0,0,0,5.449,3.753,15.749,15.749,0,0,0,4.523.45c3.866.043,9.548.1,10.534,7.4,1.332-.5,3.1-1.972,6.063-6.236,2.335-5.154,3.356-7.178,4.722-7.455L86.415,79.93l-2.7,8.432c2.335-1.842,4.255-2.629,5.838-2.3a3.517,3.517,0,0,1,2.62,2.62c.683,2.517.934,7.265-1.315,9.34a107.42,107.42,0,0,1-11.009,8.527l-2.162,1.539a41.793,41.793,0,0,0-1.081,5.379c13.76-2.4,27.537-5.457,34.611-19.286a11.963,11.963,0,0,1-5.293-.51,18.077,18.077,0,0,1-5.431-3.814c-.631-.571-1.263-1.142-1.911-1.66l-2.742-2.171,3.26-1.263c.666-.251,1.323-.536,1.98-.83a22.526,22.526,0,0,1,5.172-1.773,28.775,28.775,0,0,1,5.838-.19l.311.017v-.432l.752.164c.484-1.176,1.046-2.4,1.626-3.641.995-2.11,3.062-6.521,2.525-7.455-3.554-5.224-4.532-8.389-3.278-10.577,1.436-2.5,4.757-2.249,7.991-2.015,1.341.1,4.134.294,4.627-.182.995-3.1,3.053-5.734,5.051-8.268,1.885-2.4,3.658-4.644,4.419-7.1,1.081-3.451,2.249-5.89,4.419-6.607,2.249-.735,4.281.735,6.841,2.612l1.2.882c6.867,4.921,14.322,9.332,21.543,13.6,2.3,1.366,4.6,2.724,6.884,4.108.294-3.4-1.8-7.005-3.987-10.785-4.22-7.265-9.461-16.311,3.779-25.167.415-.787-.2-5.007-.562-7.524-.138-.9-.268-1.8-.381-2.664-.545.3-1.1.6-1.652.908-3.174,1.747-6.469,3.563-9.877,5.059-3.157,1.375-6.46,2.56-9.652,3.7-6.132,2.188-11.909,4.255-16.847,7.637-5.414,3.71-9.954,8.579-14.754,13.725-2.534,2.716-5.077,5.44-7.749,7.983a10.878,10.878,0,0,1-6.651,2.249l-.934-.112-.8-.908c-1.427-2.223-2.776-3.459-3.892-3.589-1.565-.182-3.433,1.7-5.293,3.5-2.958,2.871-6.953,6.763-12.039,4.22-.778.7-2.1,2.205-3.209,3.459-3.762,4.272-8.45,9.591-12.973,10.534-1.894.4-3.8.683-5.665.951-6.858,1.021-12.782,1.894-16.787,8.138a13.487,13.487,0,0,0-1.168,2.4c.77-.268,1.548-.536,2.326-.8C54.018,78.019,59.977,75.969,65.979,74.352Zm29.967-7.567,5.881,5.864-2.491,1.237c-.484.242-.96.5-1.436.761a16.486,16.486,0,0,1-4.385,1.894,2.974,2.974,0,0,1-.545.052c-1.358,0-2.318-1.176-3.183-2.223a11.285,11.285,0,0,0-.735-.856l-1.894-1.877Z" transform="translate(299.246 37.096)"/><path class="a" d="M126.571,27.152c-2.153.614-4.151,2.5-6.27,4.5-.5.476-1.012.951-1.522,1.418L124.53,38.8c8.527-.96,14.668,2.966,21.232,7.749.8.6,4.3-.761,6.607-1.661,3.537-1.392,7.593-2.949,10.914-2.292,24.2,4.757,25.011,5.959,40.8,34.8l.8-.8.476,2.577,20.194,6.7V79.44L226.7,78.9c2.214-1.055,4.757-.579,7-.147,1.955.363,3.814.709,4.8.009.943-.675,1.358-2.43,1.539-3.788-.251-1.712-7.446-27.865-8.735-31.42-2.793-2.465-5.535-5.025-8.276-7.593-6.4-5.976-13.007-12.16-20.28-16.942-4.264-2.819-8.917-.873-14.287,1.358-6.322,2.62-13.405,5.561-20.4.182-7.247,13.474-17.833,10.62-27.208,8.095C135.687,27.255,130.809,25.932,126.571,27.152Zm94.743,21.033c.3-.251.614-.5.848-.735l1.877-1.859,4.852,8.752-5.864,5.838-1.245-2.456c-.233-.476-.493-.943-.752-1.4a16.921,16.921,0,0,1-1.911-4.4C218.763,50.251,220.121,49.153,221.315,48.185Zm-9.539,17.928c.484-.147,1.073-.363,1.661-.579,2.318-.856,4.151-1.557,5.327-.035a15.021,15.021,0,0,1,2.162,4.886c.173.571.346,1.133.536,1.678l.32.9a45.3,45.3,0,0,1,4.843,4.022l.294.285-2.759,2.889a39.474,39.474,0,0,0-7.377-5.7,18.066,18.066,0,0,1-2.006-1.2l-4.2-2.517h1.392c-.441-.5-.822-.995-1.2-1.47l-1.807-2.318Z" transform="translate(856.479 88.18)"/><path class="a" d="M44.77,94.773a134.492,134.492,0,0,1,12.921-9.686l2.767-1.782C66.166,79.586,72.082,75.738,78.4,75.3c11.736-.813,26.4-3.286,35.666-15.368,7.2-9.375,15.93-9.167,24.38-8.994,1.591.035,3.183.069,4.791.035l14.477-21.656-5.587-5.57c-1.012.761-2.006,1.548-3.01,2.335a64.607,64.607,0,0,1-10.8,7.386c-1.7.848-3.468,1.539-5.241,2.223-3.442,1.323-6.694,2.577-9.176,5.042l-.13,1.609-1.453-.346a26.4,26.4,0,0,1-14.564,4.073c-1.773-.112-2.3-1.73-2.9-4.636-.147-.675-.285-1.341-.415-1.859l-.536-2.058,2.084-.406c.96-.19,1.911-.415,2.88-.631a42.06,42.06,0,0,1,7.732-1.263,5.688,5.688,0,0,1,3.243,1.34l.294.208c.147-6.1-1.012-10.248-3.477-12.359s-6.443-2.482-12.194-1.124c-3.477.822-6.746,2.75-10.2,4.8-1.617.96-3.243,1.92-4.895,2.759l-2.69,1.384-.216-3.01c-.251-3.546-1.539-5.916-3.624-6.668a4.369,4.369,0,0,0-1.5-.259A6.561,6.561,0,0,0,76.752,24.4,169.739,169.739,0,0,0,63.278,41.1c-5.5,7.446-11.191,15.143-18.2,21.284C30.915,74.769,32.974,85.6,41.034,97.8,42.288,96.8,43.525,95.785,44.77,94.773ZM65.95,53.46c.268-.476.528-.934.726-1.332,1.963-3.935,3.97-7.861,5.976-11.771l3.416-6.694,1.937,1.946a19.515,19.515,0,0,1,1.306,1.47A6.989,6.989,0,0,0,81.3,38.973c10.006,4.229,14.08,5.941,14.728,9.453.649,3.416-2.439,6.408-9.193,12.955-1.591,1.548-3.252,3.157-5.129,3.157a3.276,3.276,0,0,1-1.219-.233c-1.661-.631-2.716-2.4-3.373-5.924-2.482,3.1-4.7,4.558-6.9,4.627-2.767.19-4.757-2.422-5.526-3.5C63.494,57.836,64.688,55.708,65.95,53.46Z" transform="translate(213.448 123.898)"/><path class="a" d="M128.224,33.889c2.154-1.012,3.883-.666,4.852.121l1.28,1.055-.666,1.73a25.235,25.235,0,0,1-2.828,3.944l-2.275,2.88-1.2-1.193c-.649,2.05-1.176,4.22-.718,4.912,4.428,6.642,23.186,14.3,37.871,15.463,6.089.467,10.568-.294,12.255-2.119,2.716-2.94,3.52-7.939,4.368-13.241.216-1.375.45-2.785.709-4.169a8.978,8.978,0,0,1-5.8-.891c-3.278-1.859-4.168-5.743-4.964-9.176-.934-4-1.574-5.924-3.477-6.158-5.967-.761-12.782.493-16.908,3.1-3.52,2.223-5.985,3.606-8.294,2.655-2.292-.96-3.122-3.9-3.892-7.36-.744-3.33-3.209-7.074-7.55-11.451-2.75-2.776-5.241-3.987-7.135-3.529-2.067.562-3.823,3.356-4.956,7.853a11.159,11.159,0,0,0-.078,3.347,14.157,14.157,0,0,1-.147,4.506,16.965,16.965,0,0,1-2.5,5.172c-.381.605-.761,1.219-1.107,1.842l-1.635,2.984a62.806,62.806,0,0,0,10.205-.692C125.206,34.2,126.685,33,128.224,33.889Z" transform="translate(815.545 32.76)"/><path class="a" d="M108.421,23.638c.588.458,1.2.977,1.842,1.513,1.764,1.488,4.713,3.866,5.924,3.719a65.975,65.975,0,0,1,12.8-1.185c9.548,0,18.879,1.747,28,3.459,9.107,1.712,18.421,3.459,28.038,3.52l-1.487-3.087c-.467-.951-.891-1.946-1.3-2.94a23.924,23.924,0,0,0-3.035-5.751,23.527,23.527,0,0,0-4.93-4.169q-.519-.363-1.012-.726l-6.279,7.766-3.39-8.484-1,.052a22.584,22.584,0,0,1-5.8-.208,21.812,21.812,0,0,1-6.469-3.062c-2.4-1.453-5.12-3.1-6.469-2.422-.822.406-2.326,2.128-3.087,9.081a5.826,5.826,0,0,1-5.241,5.085c-4.117.666-9.79-1.782-12.471-7.758a26,26,0,0,0-4.817-6.4c-.337-.363-.666-.726-.995-1.081-.13.225-.268.441-.415.666-1.609,2.62-3.269,5.336-5.864,5.647-6.357.77-6.927,1.92-6.953,1.972C104.01,18.847,103.9,20.1,108.421,23.638Z" transform="translate(743.52 34.259)"/><path class="a" d="M162.1,51.117c-1.046-.19-2.595,1.046-4.3,2.335l-1.626,1.211c-8.008,5.76-5.414,9.4-1.487,14.9a25.086,25.086,0,0,1,3.926,7.031l.484-.173v2.05c10.854,11.77,16.051,26.776,15.956,45.7h.009v.6c-.009.553.026,1.072.017,1.635,1.531,2.153,3.131,4.272,4.739,6.391,3.875,5.129,7.9,10.439,10.75,16.294,6.348,13.05,12.791,21.535,25.314,23.524,3.183.5,7.49.1,9.167-1.47,1.4-1.289,2.041-5.829,1.15-8.1a134.741,134.741,0,0,0-5.794-12.229c-2.966-5.769-6.037-11.736-7.784-18.075-5.7-20.7-18.317-37.664-30.52-54.07-5.924-7.982-12.056-16.224-17.357-24.83C163.744,52.207,162.809,51.247,162.1,51.117Zm18.049,54.208c.476-.242.951-.5,1.418-.761a16.658,16.658,0,0,1,4.411-1.894c1.678-.389,2.75.977,3.71,2.162.259.311.51.623.744.856l1.981,1.963-2.491,1.245c-.476.234-.934.493-1.4.752a16.792,16.792,0,0,1-4.428,1.9,2.911,2.911,0,0,1-.536.061c-1.358,0-2.318-1.176-3.183-2.231-.251-.3-.5-.614-.744-.856l-1.972-1.963Z" transform="translate(1102.517 344.293)"/><path class="a" d="M210.619,123.537c-1.462-3.356-3.676-8.432-4.809-8.718l-.121-.017c-.9,0-3.39,1.929-5.8,3.8l-1.807,1.384c-11.874,9.089-12.073,21.292-8.64,28.981,4.722,10.56-1.124,18.058-6.279,24.674-5.077,6.512-9.461,12.142-4.61,20.168l.484.8-.32,1.029a8.187,8.187,0,0,1-3.883,3.7l-1.808.683a40.439,40.439,0,0,1-9.859,2.776c-6.088.64-10.8,3.321-13.275,7.567-2.128,3.632-2.352,8.121-.683,12.774a18.659,18.659,0,0,0,3.546-1.029c.156-.8.285-1.626.415-2.439.588-3.8,1.142-7.377,4-8.164,2.335-.64,4.9,1.029,8.631,5.561,2.914,3.537,4.9,2.5,9.116-.225,4.1-2.672,9.721-6.287,16.458-.389l.207.173c.138-1.038.164-2.655.182-3.857.043-3.209.1-6.547,1.366-8.709,2.923-5,5.492-9.012,8.069-12.653,6.6-9.288,6.849-20.038,7.118-31.42.251-10.733.51-21.82,6.452-31.766l-.061-.06A12.97,12.97,0,0,1,210.619,123.537Z" transform="translate(1080.766 831.53)"/><path class="a" d="M210.353,167.769a7.416,7.416,0,0,0-2.465-.2c-.649,5.734-2.37,9.591-5.25,11.874-4.359,3.477-10.24,2.534-15.913,1.626-3.779-.6-7.351-1.176-10.084-.407-4.878,1.34-9.98.813-14.9.311-7.879-.83-15.325-1.609-21.465,5.206l-1.73,1.911-1.427-2.154c-.614-.943-1.193-1.937-1.764-2.932a20.815,20.815,0,0,0-4.1-5.639c-.579-.484-2.482-.424-3.84-.372-.2,0-.407.009-.623.017.035.5.052,1,.086,1.5a26.127,26.127,0,0,1-.467,8.865c-.943,3.287-4.056,8.424-7.74,8.994-3.676.588-10.11-2.1-11.407-5.526a214.923,214.923,0,0,1-7.057-23.532L98.9,162.3c-1.7-6.391-5.068-5.933-10.171-5.232a26.523,26.523,0,0,1-6,.337c-.311.925-.657,1.894-1.021,2.863-.787,2.153-2.11,5.76-1.5,6.677,2.067,3.1,3.978,6.469,5.82,9.729,7.957,14.062,15.515,27.329,36.349,22.3l20.7-1.488c20.946-1.47,42.611-2.992,63.895-4.783,5.621-.476,10.586-2.413,11.061-3.442C219.555,183.915,220.593,173.978,210.353,167.769Z" transform="translate(560.258 1151.856)"/><path class="a" d="M165.185,69.566c-2.292,1.522-3.909,4.359-5.63,7.36-.138.259-.277.51-.424.761a11.2,11.2,0,0,1,4.774.536,18.1,18.1,0,0,1,5.431,3.805c.631.579,1.263,1.15,1.911,1.669L174,85.868l-3.269,1.263c-.666.259-1.323.545-1.98.83a21.847,21.847,0,0,1-5.172,1.764,27.082,27.082,0,0,1-5.846.2l-.3-.009v.415c12.047,5.224,13.345,8.968,9.487,24.319-.1.424-.225.891-.294,1.228,11.442,10.024,6.607,19.649,2.344,28.151a69.382,69.382,0,0,0-3.3,7.256c-2.076,5.743-1.479,13.492,6.4,17.989,2.024,1.159,6.184,3.529,7.766,3.883a20.012,20.012,0,0,0,5.327-10.11c1.366-7.931-.657-14.9-6.763-23.333-3.1-4.264-2.733-7.957-1.877-10.3,1.868-5.137,8.095-9.384,17.1-11.658,2.136-.536,4.342-1.09,4.722-1.488a15.363,15.363,0,0,0-.3-2.785l-.147-1.029c-1.462-10.153-6.815-18.309-12.471-26.931-3.684-5.621-7.49-11.425-10.1-17.816C173.306,67.49,167.45,68.052,165.185,69.566Z" transform="translate(1152.076 470.982)"/><path class="a" d="M179.833,112.226c-2.266-1.652-4.54-3.312-6.78-5.016-.432.173-.891.346-1.34.519-.536.216-1.271.5-1.8.726,1.211,19.381-3.736,34.672-15.109,46.632l.233.138c1.609.995,3.131,1.929,4.489,2.032,1.782.182,3.753-1.124,5.907-2.448,2.88-1.764,6.132-3.8,9.747-2.854,2.5.631,4.679,2.569,6.676,5.9a9.388,9.388,0,0,0,4.791-.64c4.039-2.491,12.921-27.156,11.035-30.693C192.321,121.376,185.973,116.723,179.833,112.226Z" transform="translate(1132.014 773.464)"/><path class="a" d="M73.4,173.211h-.009c-1.686-.726-3.407-1.366-5.085-1.989C62.452,169.068,56.917,167.036,55,162c-1.375-3.607-.64-8.026,2.335-13.872a34.812,34.812,0,0,0-9.755-7.8c-1.418-.649-6.236.787-7.541,2.56-1.479,2.006-.233,4.307,1.929,7.887,1.885,3.148,4.039,6.711,3.01,10.5-.657,2.456-2.525,4.558-5.7,6.426a6.617,6.617,0,0,0,.259,1.808c.164.519.32,1.072.476,1.643.372,1.349.943,3.407,1.617,3.823,10.257,6.408,20.886,12.722,32.138,19.4l8.761,5.206.017-.13a52.159,52.159,0,0,1,1-6.011C86.148,182.836,79.705,175.918,73.4,173.211Z" transform="translate(248.392 1025.56)"/><path class="a" d="M169.617,133.562c-1.756-1.436-3.555-2.906-5.12-4.333l-.4.45c-.683.761-1.954,2.179-1.989,2.716,2.326,19.078.8,26-13.82,34.983-4.722,2.906-4.635,5.786-4.506,9.79a28.43,28.43,0,0,1-.061,4.013l8.4,6.763-8.536,3.39v3.693l6.115-2.37-3.607,3.606a5.268,5.268,0,0,0,2.335-.242c19.174-9.764,23.956-28.773,28.583-47.16.519-2.067,1.046-4.134,1.574-6.175C178.845,141.121,172.843,136.2,169.617,133.562Z" transform="translate(1046.207 941.874)"/><path class="a" d="M168.863,156.75c-12.981,8.32-27.018,8.069-40.63,7.836a155.074,155.074,0,0,0-16.3.268c-3.745.32-8.069,4.342-11.226,7.291a12.728,12.728,0,0,0,.311,4.281c8.13,2.378,16.38,4.385,25.893,6.694l7.394,1.8,6.737-3.511c10.006-5.224,21.327-11.131,32.25-17.254a10.152,10.152,0,0,0-.77-4.869A8.563,8.563,0,0,0,168.863,156.75Z" transform="translate(717.611 1152.366)"/><path class="a" d="M117.718,169.581l-3.01-2.223c-8.008-5.933-16.294-12.082-24.613-17.842-.519-.346-2.205-.156-3.451-.017a15.551,15.551,0,0,0,1.6,3.606,20.467,20.467,0,0,0,3.3,3.529c.579.553,1.168,1.09,1.721,1.652l2.119,2.136-2.793,1.124c-.986.389-2.128.977-3.26,1.565-3.6,1.833-6.417,3.3-8.32,1.7a87.286,87.286,0,0,1-10.88-11.468c-1.029-1.22-2.05-2.43-3.1-3.632H65.819v-.043l-.372-.017a34.518,34.518,0,0,0-5.033.1c-3.382.424-6.746.995-10.11,1.574l-1.436.242c.268.467.528.943.8,1.418,1.4,2.56,2.854,5.206,4.549,5.864,13.223,5.085,26.931,9.66,40.189,14.08q5.877,1.972,11.753,3.935a9.166,9.166,0,0,1,2.785-5.405C111.4,169.322,114.7,169.374,117.718,169.581Z" transform="translate(321.771 1095.549)"/><path class="a" d="M119.613,156.772l-.225.026c-3.918.4-13.915,1.427-16.4,2.525-.6,6.426-1.643,10.612-4.783,11.649-2.767.908-5.9-.969-10.819-6.53-.614-.7-1.228-1.444-1.842-2.214-1.7-2.093-3.442-4.246-5.258-5.059-2.992,2.724-8.778,19.978-8.493,24.856a6.478,6.478,0,0,0,2.37-.761c1.825-1.747,4.376-3.883,6.876-3.883a3.928,3.928,0,0,1,1.5.285c2.9,1.142,3.477,5.042,3.65,8.311.173,3.113,1.9,5.146,2.543,5.353a9.452,9.452,0,0,0,.476-1.981c1.349-10.784,6.806-11.658,12.09-12.488a30.116,30.116,0,0,0,4.791-1.046c4.7-1.574,8.917-5.354,13-9.02,1.427-1.271,2.828-2.534,4.255-3.71-.8-1.3-1.47-2.5-2.067-3.546S120.028,157.343,119.613,156.772Z" transform="translate(497.056 1152.535)"/><path class="a" d="M133.345,171.852l-.182,1.9c-.242,2.491-2.811,3.425-4.86,4.177a11.783,11.783,0,0,0-2.309,1.021,24.178,24.178,0,0,0,2.586,2.361,6.746,6.746,0,0,0,5.267.917c14.192-5.3,22.01-16.216,24.544-34.274a14.307,14.307,0,0,0-5.293-1.332C135.533,146.564,134.651,158.239,133.345,171.852Z" transform="translate(911.663 1074.918)"/><path class="a" d="M151.413,153.21c-.415.432-.9.969-1.28,1.427-8.424,10.2-19.969,15.04-31.134,19.727-2.629,1.1-5.25,2.188-7.844,3.364a9.922,9.922,0,0,0-.726,4.783,4.632,4.632,0,0,0,.562,1.6c3.589-.692,7.144-1.28,10.638-1.859,8.657-1.418,16.839-2.759,24.38-5.647,8.96-3.433,9.271-13.431,7.965-21.215C153.843,154.87,152.287,153.8,151.413,153.21Z" transform="translate(792.244 1125.291)"/><path class="a" d="M105.471,165.386c-9.349-3.745-19.45-6.27-29.214-8.709-3.062-.778-6.123-1.539-9.167-2.335-2.153-.579-3.684-.545-4.514-.026l.017.052h-.208l-.1.026c-.83.726-1.072,2.7-.683,5.561.164,1.228.51,3.788.925,4.194.657.268,3.952-.891,5.033-1.263a11.05,11.05,0,0,1,3.554-.545c9.453,0,23.074,9.591,30.78,16.942,1.574,1.5,4.921,2.473,8.96,2.6.1-.156,1.1-1.444,1.894-2.473.588-.761,1.245-1.609,2-2.5-.761-1.1-1.5-2.292-2.249-3.5C110.383,170,108.2,166.476,105.471,165.386Z" transform="translate(417.743 1130.697)"/><path class="a" d="M108.155,170.206c.208-.017.415-.035.623-.061-.069-.9-.1-1.756-.138-2.543a13.973,13.973,0,0,0-.4-3.451c-.83-.536-1.825-1.254-2.819-1.963-4.956-3.537-10.084-7.2-15.42-8.294-5.941-1.228-12.436-.943-18.715-.657-2.041.087-4.073.182-6.1.225,1.289,5.163,4.592,4.791,9.626,4.212,3.58-.406,7.628-.874,10.75,1.5,5.743,4.367,12.367,7.7,18.767,10.914C105.137,170.509,106.607,170.354,108.155,170.206Z" transform="translate(446.608 1123.611)"/><path class="a" d="M131.971,150.966a119.877,119.877,0,0,0-8.622,11.623c.6.778,1.859,2.128,2.906,3.252.891.943,1.868,1.989,2.854,3.1l12.756-12.194-8.06-8.078C133.2,149.435,132.585,150.2,131.971,150.966Z" transform="translate(891.433 1090.529)"/><path class="a" d="M124.983,152.161c-.96,0-2.785,1.885-4,3.122l-.26.259c2.015,2.742,7.887,9.712,10.594,12.592,2.456-2.984,5.025-6.192,8.562-10.568l2.188-2.733c-1.79-.329-3.433-.657-4.947-.951C132.118,152.9,128.5,152.187,124.983,152.161Z" transform="translate(871.386 1117.268)"/><path class="a" d="M146.749,141.759a77.038,77.038,0,0,1-5.872,7.048,39.453,39.453,0,0,1-5.682,4.515c-.407.294-.822.579-1.228.873l.51,1.289h-.822c.017,1.176.009,2.361-.078,3.529-.216,2.707-.4,5.25.822,6.651.787.891,2.249,1.453,4.359,1.678l14.287-14.253-5.924-11.805C147,141.439,146.879,141.6,146.749,141.759Z" transform="translate(968.467 1034.068)"/><path class="a" d="M155.8,142.358a8.882,8.882,0,0,0-2.9-1.038A183.724,183.724,0,0,0,136.231,154.3a30.1,30.1,0,0,0,2.318,4.514,4.89,4.89,0,0,0,.813.311c5.224-3.52,10.343-7.152,14.746-10.292l2.205-1.574c-.182-1.41-.277-2.551-.355-3.442C155.906,143.275,155.863,142.721,155.8,142.358Z" transform="translate(989.96 1034.351)"/><path class="a" d="M119.9,20.03l5.543-8.462L110.8,9.675l3.622,10.355Z" transform="translate(795.459 27.475)"/><path class="a" d="M43.989,155.037a4.356,4.356,0,0,0,4.67,1.072,5.852,5.852,0,0,0,3.762-4.748,9.444,9.444,0,0,1-5.916-2.88c-2.335-2.664-2.058-6.339-1.816-9.582.061-.787.121-1.565.147-2.309-2.966,1.47-4.783,3.321-5.423,5.518C38.177,146.328,41.221,151.474,43.989,155.037Z" transform="translate(247.292 998.174)"/><path class="a" d="M182.83,144.458l-.3,1.22-1.228.259c-3.615.77-7.247,1.5-10.871,2.24-11.234,2.292-22.858,4.653-34,7.827-.484,1.1-.744,4.618-.908,6.78-.069.839-.138,1.661-.208,2.456,2.949-.778,6.132-1.833,9.219-2.863,9.98-3.321,19.416-6.443,25-2.569,4.9,3.408,8.467,4.757,10.6,4.091,2.171-.683,3.321-3.857,4.549-7.2a39.359,39.359,0,0,1,2.439-5.734l.329-.432,12.021-12c-1.375-.113-2.759-.346-4.117-.571C189.049,136.882,184.854,136.181,182.83,144.458Z" transform="translate(982.962 1003.781)"/><path class="a" d="M19.245,117.393c-.744,5.059-.13,8.623,1.851,10.594s5.561,2.612,10.638,1.859c.744-5.059.13-8.622-1.842-10.594S24.33,116.658,19.245,117.393Z" transform="translate(92.866 849.064)"/><path class="a" d="M154.685,68.287a32.584,32.584,0,0,0,3.122,7.23l.726,1.375,5.3-2.205-7.55-8.882A9.755,9.755,0,0,0,154.685,68.287Z" transform="translate(1131.104 456.78)"/><path class="a" d="M46.475,156.565c1.41,1.219,3.961,1.038,6.685.83,1.168-.086,2.352-.173,3.546-.156V146.749l-11.848,5.9A6.247,6.247,0,0,0,46.475,156.565Z" transform="translate(291.101 1075.874)"/><path class="a" d="M97.013,158.956a17.666,17.666,0,0,0,6.054,2.629c1.764.259,3.823-.4,6.011-1.124l-4.99-3.883Z" transform="translate(690.004 1151.051)"/><path class="a" d="M137.429,25.4,127.241,35.564c3.753.2,6.452-.493,8.069-2.119S137.645,29.121,137.429,25.4Z" transform="translate(921.201 147.761)"/><path class="a" d="M131.972,144.193a14.456,14.456,0,0,0-2.707,1.15l-.346.164c.251.467.51.934.761,1.4,1.366,2.525,2.646,4.921,4.471,6.149.64.017,2.828-1.046,4.229-1.686.337-.147.683-.3,1.02-.458-.372-.372-.735-.744-1.081-1.1A37.083,37.083,0,0,0,131.972,144.193Z" transform="translate(934.035 1056.325)"/><path class="a" d="M132.756,145.021c-1.626,1.626-2.335,4.333-2.119,8.043L140.825,142.9c-.432-.026-.856-.043-1.263-.043C136.475,142.859,134.192,143.585,132.756,145.021Z" transform="translate(946.889 1046.122)"/><path class="a" d="M12.76,105.638c.147.078.3.164.458.251.856.467,2.465,1.349,2.949,1.219a10.245,10.245,0,0,0,3.667-2.448l-5.656-2.344Z" transform="translate(45.601 736.04)"/><path class="a" d="M63.043,152.515v-3.762c-1.237-.035-2.378-.078-3.546-.164-2.724-.216-5.276-.4-6.677.839a5.366,5.366,0,0,0-1.488,3.088h11.71Z" transform="translate(340.624 1088.754)"/><path class="a" d="M158.381,91.191a6.149,6.149,0,0,0,1.375,2.128l2.664-5.146-1.98-2.975A19.842,19.842,0,0,0,158.381,91.191Z" transform="translate(1159.372 605.106)"/><path class="a" d="M58.378,152.221c-.208.017-.415.035-.614.043v4.056h3.684l-.1.086a14.988,14.988,0,0,0,1.894-.156,15.885,15.885,0,0,0,3.39-1.124A13.61,13.61,0,0,0,62.8,152.4,11.04,11.04,0,0,0,58.378,152.221Z" transform="translate(389.811 1116.783)"/><path class="a" d="M58.516,156.171l3.892-3.123H56.152Z" transform="translate(377.478 1124.05)"/><path class="a" d="M65.971,155.146a50.6,50.6,0,0,0-6.971.009c-.009.467-.017.96-.017,1.392,2.076.32,4.255.476,6.7.649l.406.035-.035-.6C66.031,156.089,66.006,155.579,65.971,155.146Z" transform="translate(399.134 1139.216)"/><path class="a" d="M69.8,160.745c-.13.484.744,2.076,1.219,2.923l.251.467,3.338-1.427-2.361-5.63A10.245,10.245,0,0,0,69.8,160.745Z" transform="translate(481.734 1154.875)"/><path class="a" d="M157.98,69.308h-1.148l1.148,1.148Z" transform="translate(1147.525 483.573)"/><path class="a" d="M134.471,145.294c.554.432,1.1.856,1.643,1.228l.061-.069-1.289-1.574Z" transform="translate(976.499 1061.572)"/><path class="a" d="M74.608,156.225l1.133,1.444a13.562,13.562,0,0,0-.631-1.626Z" transform="translate(518.641 1146.959)"/><path class="a" d="M100.242,10.414H99.4l.281.695Z" transform="translate(708.256 33.129)"/><path class="a" d="M102.874,8.031l-.562.695h.835Z" transform="translate(730.535 14.903)"/><path class="a" d="M91.727,17.8c-6.555.605-11.122,5.068-15.965,9.781C69.89,33.3,63.853,39.253,54.072,38.12v3.615h.96l-.017.035h.13c10.361.13,19.39.285,26.4-9.5,2.378-3.312,7.342-4.229,12.151-5.111,1.384-.251,2.793-.519,4.108-.83-.519-4.817-.96-8.467-1.522-9.081-.164.017-1.193.121-2.015.242C93.535,17.58,92.7,17.7,91.727,17.8Z" transform="translate(361.573 85.358)"/><path class="a" d="M74.728,65.551c3.71-6.287,10.672-6.244,16.752-6.21,8.406-.035,13.742-.381,15.489-9.349,1.029-5.327,19.8-4.886,20-4.852,10.257.545,18.681,2.171,25.755,4.973,1.072.381,5.085-1.756,7.265-2.9,4.869-2.56,9.444-4.964,12.333-2.465,2.4,2.1,2.249,6.573-.614,15.178l.13.017a12.283,12.283,0,0,0,3.3.009c.562-.848,1.315-1.98,2.058-3.1,2.707-4.047,5.509-8.233,10.093-8.873,3.3-.432,6.988,1.081,11.217,4.7,3.364,2.871,3.356,2.863,13.794-6.313l1.972-1.747c2.4-2.153,4.878-4.385,7.239-3.615,16.484,5.258,32.509,3.018,49.486.649l5.916-.8c6.971-.934,12.142-1.4,15.913-1.738,9.513-.848,10.292-.917,13.051-5.284,5.613-8.891,12.16-14.253,21.232-17.4a53.737,53.737,0,0,0,.934-5.959c.182-1.41.372-2.906.623-4.428-4.445.069-8.605.086-12.557.1-9.522.026-17.729.052-25.859.934-11.563,1.245-23.29,2.88-34.628,4.454-12.514,1.738-25.452,3.537-38.235,4.843-.242.017-23.368,1.833-25.245-4.506C191.118,8.4,189.76,6.309,188.1,5.635c-1.539-.614-3.676-.13-6.659,1.557-11.6,6.581-24.095,7.282-36.194,7.965-7.247.4-14.737.822-21.794,2.543l-.891.216-.752-.536c-8.207-5.9-13.206-1.833-20.687,5.284-5.838,5.552-12.376,11.779-21.327,8.13.112.8.225,1.591.346,2.387a86.663,86.663,0,0,1,1.34,15.939c-.1,2.517-2.249,4.367-4.333,6.166a17.727,17.727,0,0,0-2.992,2.984c-1.3,1.911-3.883,1.782-6.166,1.669a20.737,20.737,0,0,0-2.076-.035A14.5,14.5,0,0,0,67.679,62.9C68.466,64,72.635,65.222,74.728,65.551ZM200.441,29.132c.052-.528.1-1.055.121-1.583a16.685,16.685,0,0,1,.813-4.748l.009-.017c.6-1.574,2.326-1.764,3.849-1.929.4-.043.8-.086,1.124-.156l2.612-.553-.744,10.006-8.095,1.73Z" transform="translate(452.153 -5.379)"/><path class="a" d="M8.72,153.114c8.96-1.142,11.537,5.007,13.457,9.487,1.972,4.618,3,6.625,7.446,5.275,5.6-1.686,8.683-1.626,10.248.19,1.946,2.249.406,5.526-1.219,9.012-.355.744-.709,1.5-1.021,2.249a17.555,17.555,0,0,0,2.378,2.828c3.961-2.914,6.279-6.78,6.547-10.992.311-4.9-2.11-9.764-6.815-13.682a40.654,40.654,0,0,1-6.694-7.887l-1.064-1.487a8.184,8.184,0,0,1-1.159-5.241l.234-.908.925-.519c8.493-3.961,7.991-11.079,7.4-19.312-.6-8.372-1.271-17.85,8.536-23.991,7.135-4.463,13.76-14.7,8.96-28.869L56.157,67.1c-1-3.036-2.05-6.166-2.811-6.434-1.081-.432-5.76,2.586-8.856,4.566a12.947,12.947,0,0,1-5.967,1.565l-.078.009c-.605,11.572-6.564,20.921-12.333,29.975-6.123,9.6-11.9,18.663-11.6,30.053.112,4.463,0,9.219-.346,15-.156,2.508-1.972,5.3-3.727,8.008a37.53,37.53,0,0,0-1.989,3.3l.259-.026Z" transform="translate(12.652 417.125)"/></g></g></svg>