<svg xmlns="http://www.w3.org/2000/svg" width="1461.162" height="1436.24" viewBox="0 0 1461.162 1436.24"><defs><style>.a{mix-blend-mode:multiply;isolation:isolate;}.b{fill:none;stroke:#000;}</style></defs><g class="a" transform="translate(-5.675 -4.893)"><g transform="translate(6.012 5.379)"><path class="b" d="M125.333,147.9l.46-8.065-5.576,1.844,2.993,6.212Z" transform="translate(928.102 1079.267)"/><path class="b" d="M128.153,189.327c-25.111-21.048-50.8-42.59-80.248-58.112,2.63,2.561,5.3,5.19,7.939,7.86,6.308,6.387,12.694,13.218,17.805,18.715l7.178,7.662,26.209,17.716,7.276,7.316,27.049,14.266-27.445,2.175-2.155,2.125h.02l-1.522,1.532,19.456,13.772,17.469-19.229C140.738,199.866,134.381,194.547,128.153,189.327Z" transform="translate(334.757 1002.691)"/><path class="b" d="M1142.644,552.1c-6.976-55.408-35.753-103.308-63.568-149.628-5.906-9.814-11.219-18.675-16.443-27.681-31.861-55.09-71.507-106.984-109.84-157.172-15.346-20.082-32.544-42.57-48.573-64.523l-9.674,1.371,6.185-4.213c-3.722-2.778-7.471-5.52-11.228-8.262-11.57-8.416-23.518-17.123-34.414-26.855-12.874-11.494-25.981-22.216-44.779-27.109-28.606-7.445-58.768-15.933-85.567-30.4-47.1-25.448-99.16-31.712-149.5-37.768l-1.025-.118c-11.282-1.353-22.96-2.76-34.414-4.376-9.386-1.307-20.812,1.226-27.905,6.155a104.843,104.843,0,0,1-27.231,13.527c-12.253,12.383-32.391,19.084-50.236,6.419-6.293-.182-12.613-.554-18.771-1.126a14.127,14.127,0,0,1-4.423-1.353c-.674-.3-1.411-.608-2.257-.917l-9.817-3.613,15.427-4.612c-4.27-.681-9.1-1.035-13.818-1.38l-1.9-.145-2.346,13.046-3.254-.427c-19.077-2.524-27.986,2.252-36.715,19.656-8.8,17.486-25.738,34.981-46.478,48.009-17.611,11.076-37.237,19.338-56.2,27.318l-.467.2c-7.687,3.241-15.634,6.591-23.32,10.077l-39.88,40.482,6.023.4L207.8,175.538,207.87,189l4.98,6.963L206.764,200l-6.7,6.9v.645l24.57-18.412a27.261,27.261,0,0,1-1.645-2.787c-1.483-2.914,1.052-4.567,3.1-5.883l.926-.6,6.823-7,.2-9.551,20.92.082.288,7.771,12.6-.073,19.2-9.378-.063,8.489,25.685-6.382-.009-2.66-38.765-.073,40.051-13.6,12.775-9.288,5.655,13.309L318.2,152.7l.171,3.1,8.388,1.661A269.8,269.8,0,0,1,361,134.928c7.372-4.185,15.1-8.207,23.608-12.311l1.456-7.672,6.266,4.031c8.091-3.713,16.164-7.181,24.03-10.3,3.92-1.489,7.821-2.942,11.75-4.34l-.2-2.242,10.59-1.226c11.939-4.067,24.291-7.735,36.706-10.913h-6.985l-.728-12.483,32.355-1.988-.279,8.607h1.843c12.613-2.578,24.9-4.548,37.318-5.983a451.5,451.5,0,0,1,132.054,2.96c12.37,2.252,24.956,5.157,37.489,8.67l-.953-.944,74.95,24.268-11.6.136c3.839,1.834,7.624,3.713,11.3,5.6L783.448,116l3.839,2.052-1.438,2.769c4.908,2.587,9.808,5.293,14.582,8.062A426.991,426.991,0,0,1,848.652,163.4h.027l-.081-8.915,32.661,14.59h-6.77l11.076,11.112,13.584,6.655,10.923.082v7.962l1.942.009-.036-12.1,17.09,17.822-12.406.254-6.3,18.73-5.583-20.182-6.832-6.628-7.012.145.063.064-2.427.073,13.054,22.842,3.273,3.432c4.594,5.338,10.32,11.911,16.73,19.256l6.248,7.154-.018-.172,25.082,26.165-2.355.263c16.577,19.42,28.732,34.381,37.1,45.685,1.025,1.371,1.951,2.669,2.877,3.958l71.174,88.963,26.422,72.53-39.835-57.124c-1.618-1.988-3.362-4.149-5.151-6.41l-4.288,1.316v-6.773c-26.844-34.418-61.4-83.833-65.259-89.372-15.732-17.994-37.4-40.083-53.212-56.216l-.315-.309c-13.009-13.273-25.307-25.811-33.146-34.6l-22.5-24a109.892,109.892,0,0,0-7.974-7.944c-1.214-1.126-2.4-2.252-3.6-3.4-1.384-1.262-2.8-2.624-4.225-3.995-2.481-2.379-4.971-4.766-7.57-6.854A388.89,388.89,0,0,0,788.7,149.445c-16.623-3.722-29.29-9.968-39.844-19.628l-.4-.354-.764.109c-29.757,4.321-52.861-9.551-73.988-24.2l-1.771-.39c-1.142-.254-2.3-.517-3.47-.744a427.05,427.05,0,0,0-66.032-7.209l6.221,2.1L630.7,101.7l-5.214,12.311-17.584-9.07h-21.72l1.456-8.18h-.485c-5.268,0-10.267.082-15.229.236l-2.589.39-7.749.018c-6.9.354-13.026.772-18.645,1.262a543.717,543.717,0,0,0-120.026,24.676c-43.6,14.018-78.4,31.049-106.37,52.058l-1.025.781-3.38-4.058q-7.2,5.42-14.429,10.813l-.45.336c-14.555,10.895-29.613,22.17-44.186,33.51-19.6,15.243-39.187,32.411-44.887,59.675l1.151,1.08-.027.036,3.317,3.2,5.718-6.627c5.421-6.21,11.022-12.638,16.416-19.056,22.637-26.955,48.87-52.884,87.2-59.974l6.76-1.253-9.529,19.392,8.9,7.508-15.661,4.83.072-7.3c-13.908,5.411-25.846,11.294-31.924,24.3l18.771-.163L248,294.215l-15.688,23.623c2.338,15.1-8.037,21.862-16.416,25.639l-3.587,13.736,3.821-5.075q14.55-19.338,29.119-38.667c3.191-4.24,6.347-8.543,9.475-12.846,19.454-26.664,39.556-54.246,74.087-66.166,24.444-37.541,64.072-53.356,99.627-63.878,19.077-5.638,39.107-8.489,58.48-11.249,13.611-1.943,27.68-3.949,41.246-6.9,29.613-6.437,59.011-3.178,87.437-.018,7.318.817,14.887,1.661,22.322,2.324a122.236,122.236,0,0,1,12.685,1.788l-13.323-14.136,6.832-.817c.189-.027.4-.064.62-.109a8.062,8.062,0,0,1,4.216-.027c1.807.59,2.418,1.907,3.5,4.3.566,1.244,1.4,3.078,2.751,5.8l3.362,6.8.44.1c1.735.418,171.862,43.133,260.162,198.916l1.7,3.032,11.229,18.13c19.095,30.759,38.846,62.58,56.152,95.436,20.237,38.431,20.524,81.055,20.812,122.273l.009,1.507c.045,7.009.1,14.027.252,21,.135,5.883-.225,11.739-.575,17.4-.351,5.892-.71,11.984-.5,17.931.243,7.581.989,15.361,1.708,22.888,1.267,13.31,2.589,26.946,1.384,40.373-6.473,72.721-23.122,139.813-49.463,199.406-19.445,44-52.556,82.989-104.167,122.663l-4.459,7.49c-.045.045-1.942,1.761-5.547,4.739,2.9-1.852,5.8-3.686,8.711-5.529l40.078-25.457,7.291-7.5,8.72-6.446.2-.545c7.722-21.853,23.069-39.838,46.892-54.963l7.785-4.948-2.652,8.9c-7.947,26.492-28.354,42.316-46.847,55.063l-.782.545-6.473,8.607-7.516,8.08c-10.177,20-27.68,31.649-44.59,42.906-4.018,2.669-8.127,5.4-12.172,8.271-11.561,8.226-23.167,17.177-33.416,25.085-2.22,1.707-4.423,3.4-6.635,5.1l11.237-.073-3.056,5.311c-9.7,15.97-24.543,23.832-46.658,24.7-.674,3.677-2.167,6.264-4.54,7.889-3.92,2.714-8.945,1.761-13.4.545l-12.1,9.587-6.608-13.028,17.746-3.269,13.161-6.527.036-3.168-25.819.272,3.075-5.3c.422-.7.782-1.425,1.151-2.152,1.394-2.7,2.778-5.4,5.4-7.081q6.783-4.331,13.557-8.679-13.782,6.768-27.743,12.474l-.989.39c-12.262,4.975-24.66,9.342-36.841,13-5.322,7.68-13.593,6.546-20.326,5.538-3.515.826-7.336,1.716-11.211,2.533-14.321,4.912-31.105,7.363-43.781,6.3-8,.717-15.346,1.126-22.214,1.235a53.948,53.948,0,0,1-27.572-.944,313.247,313.247,0,0,1-79.3-15.588l-3.533-1.18.333-.781a322.012,322.012,0,0,1-84.884-33.537c-87.581-49.561-156.858-112.677-205.9-187.622-11.48-17.549-19.931-37.314-28.1-56.443-6.149-14.408-12.424-29.125-19.931-42.825-24.579-44.786-25.963-92.031-24.084-132.332,3.021-65.049,19.4-126.222,48.672-181.83a24.691,24.691,0,0,1,1.87-2.9,10.064,10.064,0,0,0,1.681-2.96c5.106-27.264,10.015-54.291,15.445-84.242l.971-5.338c-8.792,13.627-12.235,29.379-15.858,45.939-2,9.17-4.073,18.639-7.147,27.69-1.483,4.33-2.733,8.852-3.956,13.228-4.837,17.341-9.826,35.244-28.148,45.993l-.027.164c-.5,2.587-.953,5.184-1.411,7.781a156.667,156.667,0,0,1-4.684,21.1c-37.533,116.689-29.811,217.872,23.617,309.332,2.814,4.8,4.45,10.168,6.041,15.343l.162.527c.665,2.2,1.331,4.385,2.095,6.518l11.606,21.962-1.5.98,3.066,1.8c20.551,12.047,33.6,27.772,39.9,48.063l.1.318.557.563,59.5,59.811-20.578-.626-.18,9.115L223.6,1022.751l22.178-1.026-1.1-1.244a147.094,147.094,0,0,1-13.269-16.387c-3.8-5.756-6.707-12.075-9.512-18.185l-.746-1.616c-.566-1.226-1.133-2.442-1.708-3.659l-3.227-6.818-5.178-2.415c-20.938-9.8-34.468-26.074-40.212-48.39l-.971-3.74-1.124.735L153.9,900.651c-1.241-1.153-2.841-2.442-4.243-3.577-3.821-3.1-7.7-6.264-9.736-10.695-3.5-7.608-7.111-15.207-10.734-22.8-11.067-23.187-22.511-47.164-29.928-72.076C85.507,745.277,84.122,693.573,94.91,628.8l.53-3.223c5.511-33.246,11.211-67.619,35.52-94.773l.387-.445.126-.436c3.236-11.821,6.41-24.322,8.954-34.372,12.847-50.669,26.143-103.026,58.678-147.512,2.212-3.032,5.241-5.148,8.163-7.19l.432-.3c.629-.454,1.268-.908,1.888-1.371l.3-8.107-18.439,11.993-15.508,24.1L137.119,468.973l-.171,1.6c-3.551,35.335-16.308,68.508-39,101.428l.207,1.026c.423,2.115.971,4.775-.045,7.218C75.708,634.506,79.4,692.356,82.99,748.309l.485,7.735c.962,15.234,5.709,30.7,10.312,45.666l.207.663c2.059,6.745,4.207,13.718,5.978,20.645l9.961,33.9-19-25.675h-.054a8.116,8.116,0,0,1-6.644-3.323l-1.852-2.415.719-.735c-28.31-88.4-30.4-162.692-6.6-233.715,1.987-5.965,6.383-10.731,10.617-15.343,1.654-1.789,3.147-3.4,4.522-5.093V555.975l-8.046,8.008,7.462-16.85q2.913-6.591,5.754-13.21l1.016-2.333c5.331-12.311,10.77-24.867,16.677-37a176.213,176.213,0,0,1,11.75-19.574l.333-.5c1.348-2.052,2.715-4.122,4.045-6.192l.539-.844.45-29.188-.584-.2.252-3.6,7.21-21.072-.144-.127.369-2.324,8.082-22.543.485-2.1,8.549-16.178,14.429-7.082c-1.07-11.757,4.342-19.9,16.092-24.222l.351-11.966-1.187-.645,1.393-3.2,11-17.958-6.9-.109-1.3,1.316c-21.3,21.589-41.408,41.98-44.662,73.039l1.375.917-2.238,2.96c-13.134,17.322-20.578,38.685-23.383,67.165l1.2.372-1.456,3.786-4.234,7.626c-3.524,6.364-7.165,12.937-11.076,19.356a48.71,48.71,0,0,0-3.776,8.888c-2.994,8.516-6.644,18.911-19.859,19.864.243,1.053.512,2.124.773,3.187l.135.59c1.573,6.337,3.182,12.837,1.268,18.684-9.116,27.8-19.338,55.771-29.218,82.826l-1.411,3.849q-4.76,13.087-9.628,26.519l-4.747,13.146-1.9-13.863C30.317,597.447,49.736,558.1,68.507,520.041c2.086-4.222,4.162-8.462,6.221-12.683l.71-1.652,2.391-8.588c17.018-60.61,34.594-123.2,71.767-177.091,4.387-6.355,8.433-13.355,12.119-19.946-30.072,28.907-46.02,67.065-60.907,106.9-6.329,16.932-12.2,34.436-17.872,51.368l-.27.781C72.408,489.809,61.8,521.521,48,551.318c-24.192,52.285-21.9,106.231-17.477,157a68.192,68.192,0,0,0,2.041,10.431,67.393,67.393,0,0,1,2.328,12.974c4.288,84.251,40.437,161.348,113.76,242.621l13.2,14.662c6.985,7.789,14.447,16.1,22.133,24.531l17.719,3.541c.1.018.225.027.333.036a5.2,5.2,0,0,1,4.153,1.87,8.238,8.238,0,0,1,1.124,2.252l3.515,9.6-26.4-16.8c7.345,8.053,14.878,16.215,22.4,24.122,2.239,2.352,5.96,3.759,9.889,5.239l.494.191.4.145-.045-1.316.054.036-.126-5.937,33.488,14.644-20.569.036,19.077,14.544v-8.3l7.92,7.78.018-3.477,4.954,8.343,5.079,5h-2.364a9.606,9.606,0,0,1,.449,1.516,3.7,3.7,0,0,1-.081,2h1.106l-1.834,1.634c43.287,42.643,98.045,73.32,177.337,99.385,4.324,1.416,8.172,3.831,11.876,6.165,1.178.745,2.355,1.48,3.551,2.188l.485.29H480.43l-5.34,15.57-18.043-9.487-.989.091c-30.144,2.588-56.134-8.879-81.342-20.01-9.134-4.04-18.412-8.144-27.662-11.494-5.736-2.079-12.011-3.886-17.054-5.329-.917-.263-1.825-.526-2.742-.8l.063,13.518-.836-1.108v.045l-3.983,4.031-4.864-4.939,1.978-1.988.027-4.848-22.008-12.928,14.735-.481q-6.351-4.957-12.568-10.1l-8.792,19.429a2.008,2.008,0,0,0-.135.39c-.1.29-.216.636-.369,1l24.848,12.247.009-.009.917.381,5.259,2.724-.171.191,11.948,6.618,2.652,1.807c22.3,15.379,43.395,29.933,70.437,29.933.584,0,1.169-.009,1.78-.018l.468-1.316,3.488,1.18c2.913,1.525,5.6,3,8.3,4.5a202.734,202.734,0,0,0,20.246,10.241c16.047,6.628,32.409,12.865,48.241,18.9q9.318,3.568,18.528,7.1l21-1.089c17.4-.89,35.043-1.806,52.673-2.687,10.554-.526,21.261-.59,31.618-.653,22.862-.146,46.442-.291,68.279-5.393,40.249-9.406,79.885-24.94,118.237-39.956l10.446-4.085c9.718-3.8,18.636-10.859,27.267-17.686,2.544-2.006,5.133-4.058,7.767-6.037l-5.43-3.023c.063,3.3-.27,6.146-2.67,7.59-24.821,15.034-47.045,22.125-69.933,22.3l-.548.009-18.735,10.595-5.079-13.827,22.061-2.923c12.658-14.517,29.6-19.2,45.984-23.741,8.028-2.215,16.326-4.494,23.878-7.98l.953-.472,15.031-8.116,5.43-5.03-3.281,1.089c-12.694,4.231-25.379,8.453-38.037,12.774-9.107,3.105-18.2,6.319-27.276,9.542l-17.072,6.228-56.08,22.47-2.913-13.046,20.372-1.235.09-8.534,41.3-7.118,30.89-25.457.665.227,9.52-4.93-5.475-3.332,1.888-1.18-1.969-.009,14.87-7.771v.264l26.449-13.255,2.607-10.459,7.857,8.761,11.624-5.883a12.651,12.651,0,0,1-.854-3.087c-.018-.109-.027-.227-.036-.345l-2.211-.027,9.835-10.568v.39l7.615-7.808.378,12.266,10.968-.318,5.987-12.166-8.388-7.09,10.77-3.949,20-20.545v7.427l3.2-3.223.4.018,15.912-15.643,22.4-12.211-4.172,9.36c-10.6,23.8-27.267,52.548-62.373,63.633l-.279.2L882.2,1132.142l7.543-.345c5.187-6.619,8.693-10.7,13.548-11.267,5.8-.654,11.1,3.732,20.012,10.931,1.42-.472,2.886-.89,4.351-1.3,3.992-1.117,7.741-2.179,10.069-4.312,26.431-24.168,55.064-51.123,87.518-82.426,1.672-1.607,2.625-4.539,3.641-7.653l.063-.191-5.835-.154-.153-15.4-2.778.835-21.153,14.2,14.312-21.834,26.889-34.191-5.349,1.643,21.45-38.757-.944-.227.746-3.223,2.706-1.062,3.12-5.629-.692,6.419,1.672,1.607-.9,3.523-1.358-.336-1.061,8.843c-1.1,9.814-2.445,21.989-16.559,26.328l-2.382.735-11.543,37.1,4.765,11.276c2.526-2.451,5.169-4.839,7.732-7.163l.377-.336c8.307-7.5,16.884-15.252,21.019-24.422,25.289-56.307,47.629-107.193,65.1-159.814C1160.2,738.967,1153.459,638.065,1142.644,552.1ZM384.6,97.687l6.868.617-.333,4.022-6.868-.545ZM364.26,120.72,351.5,133.176l.557-13.064-9-5.166,10.132-6.618,12.667-11.821-.036,11.239,25.882.263ZM420.988,96.3l-.62-10.822L447.014,83.2l1.726,13.1ZM416.951,63.95l-.18-8.915,3.488-.054h31.762l3.317,8.97Zm53.1-5.611-1.313-11.476,23.707-2.805,1.322,11.63ZM508.937,49.9,504.1,37.976l6.643-.318a29.357,29.357,0,0,1,5.232-.036c2.22.227,3.3,2.133,3.875,3.15.171.291.252.436.324.545l2.841,3.858ZM636.946,70.423l19.76-2.324c1.34-.163,2.67-.354,4.019-.554,8.612-1.271,19.328-2.851,26.548,8.461l4.6,7.209ZM752.459,89.516c-1.07.045-2.175.154-3.272.272-1.474.145-3,.3-4.567.3-6.913,0-11.157-3.332-12.955-10.177L729.876,73.2,768.569,88.89Zm63.676,47.164-2.508-1.961,4.145-5.565,2.643,2.061Zm3.587-15.443-1.366-7.508c-17,2.733-28.885-6.982-38.675-16.4l-4.98-4.8,6.8-1.144c17.836-3.023,30.458,6.419,40.464,16.051l.153.136,11.705,5.42Zm66.032,43.823A5.143,5.143,0,0,1,882.266,163a6.691,6.691,0,0,1-.638-1.326l-3.866-10.223,11.265,7.49L910,173.45Zm118.7,145.86-.737,13.981-9.61-11.158-.027.036-1.07-1.071-5.259-6.482h1.421l-5.673-10.967-12.37-12.447,17.638-.418-.1,9.469,10.177,4.521.072-6.11,6.733,11.693-.072.073a28.682,28.682,0,0,1,1.726,3.623C1008.234,308.406,1006.256,309.822,1004.449,310.92Zm31.717,58.885-.045.027.045.073-.135.082.53.536h-1.411l-.755.481-.063-.091-1.2.663-.971-1.589-1.1-1.108.306-.191-.557-.917h2.05l4.513-2.733L1039,367.9l-2.841,1.907ZM356.925,196.246,363.4,176.5a5.2,5.2,0,0,1,2.229-3.74,8.1,8.1,0,0,1,2-.835l10.3-3.087Zm157.541-52.829-.045-1.4-8.163,4.176c-13.009,6.637-25.478,11.6-34.765-.69l-27.06-.336v2.388l20.776,1.1-3.839,13.636-20.8-8.979-19.382-1.053-.818-9.887,18.4-2.715.1-3.9-3.407-2.551,3.389-5.647,1.483.59a5.229,5.229,0,0,1,2.931,2.152l.773,1.9,28.894,7.463,41.426-.045-.18-6.682H596.8l.279,10.486Zm222.791-5.2,35.205,16.015L733.3,151.388Zm-88.426-18.9L653,106.53l31.942,15.661ZM722.5,134.048l-5.3,11.866-27.941-17.395Zm-.926,36.932-11.4,4.594-9.431-20.745,13.063-6.01,5.735,16.342,11.058,2.324a5.457,5.457,0,0,1,4.037,1.67,8.906,8.906,0,0,1,1.16,1.907l4.855,10.313-19.526-11.7Zm70.581-3.25-20.884-7.281,21.711-3.223Zm61.591,91.8-17.513-16.378,19.149-.49ZM38.327,677.658a19.2,19.2,0,0,0-1.169,1.543L29.9,689.878l3.407-45.04,5.727,22.352a37.121,37.121,0,0,1,1.268,5.72c.216,2-.9,3.4-1.879,4.621Zm.737,42.262,9.547-2.1-1.5,18.838-8.046-.281ZM46.6,758.758l9.269-.109v33.01l-9.269.055ZM80.9,864.653,69.442,835.52c-5.8-1.417-9.889-4.276-12.181-8.489-2.94-5.456-2.679-12.892.791-22.715l3.281-9.26,12.361,35.316,7.9.971Zm48.861,39.838-.638-4.775h.324a3,3,0,0,1,1.178-1.661l1.555-1.244,1.861.772a2.943,2.943,0,0,1,1.546,1.2l.3-.1.728,4.839Zm308.223,302.242a8.816,8.816,0,0,0-.863.463,7,7,0,0,1-3.5,1.225,4.073,4.073,0,0,1-1.636-.345,7.2,7.2,0,0,1-3.21-3.314c-.18-.3-.3-.5-.422-.681l-3.605-5.011,6.077-.527c.216-.018.423-.054.62-.082a9.763,9.763,0,0,1,3.785-.063,6.163,6.163,0,0,1,3.2,2.115,4.965,4.965,0,0,0,.423.436l3.992,3.568Zm21.477,10.232-11.1-3.177,5.5-4.2c.261-.191.513-.409.746-.617a11.548,11.548,0,0,1,3.866-2.488c2.418-.735,4.126.935,5.16,1.934.234.236.45.454.647.617l4.189,3.341Zm286.162-4.113-15.912,2.914c-.7.118-1.286.254-1.78.363a14.238,14.238,0,0,1-2.967.427c-.234,0-.468-.018-.728-.036-2.508-.263-3.245-2.551-3.614-3.64l1.1-1.053h0l-1.25.554-2.814-6.455Zm-44.9-66.1-32.877,16.387-4.54-12.647Zm-393.736-63.579c-.476.018-.935.027-1.4.027-14.672,0-24.7-7.626-31.5-23.986-4.747-.354-10.716-1.416-14.231-5.783-2.49-3.114-3.362-7.39-2.571-12.719l1.016-6.864,19.4,19.565c15.454,2,26.341,10.4,32.346,24.949l1.915,4.648Zm20.461-7.481-21.684-16.868-7-4.73.809-.1-2.76-2.143L274.1,1033.292l4.109-5.474,24.678,17.785,5.942,7.3c12.361-1.089,20.749,4.812,25.28,17.522l3.533,9.941-14.222-9.615Zm54.983,55.426-8.028-7.435,3.129-2.533c.18-.154.369-.363.575-.562,1.043-1.044,2.5-2.5,4.666-2.5h.09c2.275.136,3.6,1.834,4.468,2.96.243.309.413.527.593.717l2.643,2.742Zm31.807,16.233-22.556-14.69,28.04,1.48Zm20.6-15.116-12.919-9.85-4.342.454a64.037,64.037,0,0,1-6.9.39c-13.719,0-22.511-5.856-26.871-17.912l-1.492-4.14,4.324-.508c14.465-1.761,25.756,3.94,33.524,16.9l2.274,3.786,89.622,27.708h36.167L545.76,1165.2,511.823,1155l-2.922.145C481.23,1156.373,456.39,1148.692,434.841,1132.232Zm58.561,88.636c-.7,1.234-1.753,3.041-3.956,3.087a11.127,11.127,0,0,1-3.236-.554l-5.6-1.407,2.8-4.14c.62-1.126,1.663-2.969,3.965-3.123a11.768,11.768,0,0,1,3.3.581l5.655,1.453Zm-4.09-12.638-.045-10.2h27.3l.09,10.2Zm70.311,24.685H515.94l.027-10.486h48.969Zm26-16.623H539.71l5.268-10.7h44.051l.045,10.668Zm-12.415-47.219-.009-10.595h79.454l.054,10.595Zm56.43,36.56H665.4l.234,10.223H627.515Zm11.192,26.283,4.342-10.622h27.842l.629,10.622Zm23.509-36.479,37.389,1.879-4.333,14.009Zm24.5,36.615-4.837-12.5,21.172-7.772,4.414,11.6Zm37.47-73.584c-.18.154-.378.345-.557.527a6.169,6.169,0,0,1-4.234,2.206l-.4-.018c-2-.127-3.245-1.68-4.064-2.715-.225-.281-.351-.445-.485-.581l-2.733-2.787,3.075-2.406a6.34,6.34,0,0,0,.512-.49,6.378,6.378,0,0,1,4.351-2.2h.063a5.99,5.99,0,0,1,4.253,2.678c.252.3.378.472.512.609l2.769,2.733Zm112.25-55.1,3.029-9.505c3.776-11.829,12.128-17.531,24.875-16.9l10.375.545Zm118.7-21.762c-.3,6.573-2.077,11.167-5.43,14.072a14.656,14.656,0,0,1-9.862,3.259,22.8,22.8,0,0,1-2.787-.163l-7.309-.808,25.792-25.076Zm187.883-451.932-12.568,2.288-.225-1.38-8.037-48.036,10.392-1.9Zm-26.611-85.758h.018a5.426,5.426,0,0,1,3.12-3.886,4.705,4.705,0,0,0,.566-.354l3.812-2.833,4.639,14.145L1118.785,556l-.27-6.773A29.925,29.925,0,0,1,1118.524,543.918Zm.036,91.006a8.125,8.125,0,0,1,1.025-3.486,5.051,5.051,0,0,1,3.875-2.152l3.479-.89,3.344,9.587-12.73,2.814Zm-39.125-18.857,9.835-.245v39.211l-9.835.163ZM1042.4,491.7l.018-.009a5.168,5.168,0,0,0,.485-.4l2.913-2.806,5.358,7.917-6.707,7.653-2.5-3.659a5.3,5.3,0,0,0-.387-.472,5.749,5.749,0,0,1-1.78-4.349A5.892,5.892,0,0,1,1042.4,491.7Zm-23.4-57.9c18.843,2.96,17.98,17.168,17.342,27.536-.09,1.453-.171,2.887-.2,4.3l-.467,13.536-23.32-46.411Zm-27.563-44.25,20.425,14.68-23.59-8.57a5.42,5.42,0,0,1-3.632-2.134,6,6,0,0,1-.674-1.38l-4.2-10.749Zm-73.566-77.487-.44,26.447-14.042-32.4,8.145-.182-3.281-19.483,12.946-1.652,4.234,28.017Zm104.581,505.434-7.92,8,.287-.654-8.855,8.7.567-9q1.375-22.089,2.814-44.168l.117-1.779c2.158-33.61,4.387-68.372,6.284-102.536.584-10.668,1.357-21.517,2.095-32.012l1.393-.345h0l-1.366-.1c2.157-30.768,4.378-62.58,2.508-93.493-1.789-29.751-13.476-58.322-22.96-77.052-12.649-25-28.022-49.225-42.883-72.649-6.886-10.858-14.663-23.105-21.936-35.162-2.049-3.386-2.94-7.218-3.794-10.922-.216-.917-.423-1.825-.656-2.715l-2.652-10.486,8.208,6.954c2.508,2.125,5.124,4.176,7.767,6.219,7.129,5.556,14.4,11.239,19.58,18.584,13.305,18.884,25.4,39.057,37.093,58.558l6.94,11.566c30.818,51.132,41.768,108.174,34.468,179.524-4.459,43.533-6.536,88.019-8.531,131.043-.549,11.694-1.079,23.224-1.663,34.718,11.265-36.043,13.189-73.847,14.906-107.511.791-15.561,1.4-31,2.068-48.135,1.438-37.241,2.931-75.735,6.967-114.147l2.625-24.776,4.2,24.549c.881,5.129,2.077,10.341,3.219,15.388,2.58,11.348,5.232,23.051,4.765,34.672-2.688,66.584-7.138,133.385-11.435,197.99l-.108,1.707c-.323,4.893-2.041,9.5-3.695,13.936-1.519,4.04-2.931,7.808-3.29,11.557-.521,5.329.387,10.831,1.339,16.641.072.481.153.953.234,1.435l11.39-10.35,6.922-47.6-.018-67.473,6.724,20.945c7.516,23.414,8.3,25.856-.135,44.876l-1.627,3.641.594,7.109c.171,2.015.431,4.031.7,6.056l.108.917c1.51,11.349,3.066,23.1-7.282,33.474l-.342.345.009.245c.6,14.581-.719,33.019-16.236,46.683l.09.844c.081.835.189,1.67.306,2.506l.108.772c.971,6.809,2.274,16.078-9.161,20.009l-1.411,15.3-11.364-5.021,7.8-14.7,7.569-21.117.225-23.786-17.288,16.051c7.057,11.848,6.5,25.312-1.69,41.145-6.2,12.029-13.98,23.278-21.5,34.164l-1.78,2.587q-2.346,3.4-4.666,6.818L983.763,948.9l38.711-107.611Zm49.643,107.792-11.516-8.561,12.919-6.264Zm3.245-13.019-4.307-15.879,12.335,1.571Zm18.007-51.813V826.532l15.1,5.293Zm19.94-46.837h-9.269V789.136h9.269Zm9.754-92.377-.009.045c-1.169,7.908-2.283,15.389-.512,22.061.791,2.942.054,5.81-1.178,10.559-.71,2.805-1.6,6.274-2.553,10.995l-5.017,24.921-4.378-61.89c-.9,5.638-1.771,11.258-2.616,16.8l-.2,1.262c-3.893,25.357-7.921,51.586-14.546,76.815-15.868,60.483-42.99,119.613-80.613,175.747-2.7,4-6.833,6.636-10.842,9.187-1.268.79-2.427,1.525-3.533,2.3l-10.429,7.136,5.367-11.494q7.551-16.192,15.067-32.393l2.4-5.175c12.164-26.22,25.945-55.935,39.772-85.023,26.233-55.181,39.889-117.389,41.723-190.2,1.169-46.347,2.652-100.3,5.574-154.176l1.4-25.811,7.489,34.917c6.077,27.772,11.813,54,7.75,83.752-1.007,7.363-1.438,15.107-1.861,22.6-.449,8.026-.908,16.088-1.95,23.977C1127.712,689.887,1125.122,707.255,1123.037,721.236Zm13.845,37.659-10.6.417V687.672l10.6-.454Z" transform="translate(186.777 80.285)"/><path class="b" d="M120.558,32l11.171,7.508-.088-7.517Z" transform="translate(930.596 231.077)"/><path class="b" d="M53.779,139.122l.068.049,2.524.631-.02-.885Z" transform="translate(384.752 1071.129)"/><path class="b" d="M183.434,215.3l-5.408-5.467-18.339-1.266-8.868-15.937-12.536.129c-1.76,3.154-3.945,4.765-6.515,4.814-4.39-.02-6.99-4.32-8.779-8.057l-.2-.425-6.881-8.433,1.691-.84-13.712-6.782.781-1.038-6.357-6.485-12.931-6a7.065,7.065,0,0,1-5.309,3.144c-.277,0-.573-.01-.86-.03l-.059,2.956L76.1,161.485c-2.185-1.453-3.836-4.014-5.18-6.357L64.1,148.336h-.9l-.03-.91-7.79-7.781H54.5l-.059-.939-7.1-6.9-7.889-2.857C74,172,135.05,215.237,178.432,227.032l5.131-5.161Z" transform="translate(265.185 982.555)"/><path class="b" d="M119.572,138.89l1.955-2.008-1.955.009Z" transform="translate(923.007 1053.051)"/><path class="b" d="M143.755,117.3l-1.553-.321,1.517.375Z" transform="translate(1092.173 907.644)"/><path class="b" d="M122.2,135.131l.027,2.213,2.169-2.2Z" transform="translate(944.461 1037.49)"/><path class="b" d="M16.539,523.25c6.2,15.225,9.1,31.241,11.893,46.753,4.686,25.952,9.135,50.559,28.018,70.183q-1.542-14.192-3.1-28.275c-2.907-26.248-5.9-53.406-8.413-80.04-2.748-29.214,2.037-53.752,14.622-75.038l.85-1.434-.534-3.2c-1.384-8.245-3.1-18.507,8.611-24.083l4.736-2.244-9.234,29.363-.178,2.907c-3.272,52.388.04,107.307,9.827,163.224,2.986,17.044,4.854,34.523,6.673,51.429l1.325,12.24c.227,2.076-1.186,3.638-3.144,5.813-.919,1.009-2.017,2.215-3.174,3.737l-2.65,3.46L69.5,688.195c-1.345-4.2-2.491-7.781-3.707-11.33A7.261,7.261,0,0,0,65,675.3c-.306.128-.662.257-1.068.415.435,4.35.821,8.759,1.216,13.208,1.008,11.5,2.046,23.4,4.1,34.988.7,3.925,1.236,8.117,1.77,12.378,1.72,13.5,3.49,27.444,10.855,34.573,19.476,18.853,32.427,41.5,44.953,63.411,3.421,5.991,6.851,11.972,10.41,17.914,1.2,2,4.568,3.3,7.82,4.567.3.109.6.227.9.346v-.178l.04.01.682-15.364,13.485,5.724q-4.286-9.55-8.6-19.091c-8.8-19.486-17.894-39.644-26.387-59.694-2.729-6.436-5.615-12.843-8.5-19.259-8.72-19.417-17.746-39.486-22.323-60.287-5.526-25.161-8.631-51.231-11.626-76.432-1.829-15.413-3.727-31.35-6.159-46.9C67.118,505.178,74.117,453,97.973,406.116a1002.014,1002.014,0,0,0,43.134-97.608c8.364-21.948,15.255-44.9,21.928-67.109,2.689-8.977,5.388-17.944,8.176-26.871l-8.413-1.74,14.4-27.326.049,15.828,11.626-23.272-.237-.208,18.29-25.26-.761-.376,2.62-2.294,41.592-33.9L265.6,78.155l5.7,24.518,30.242-36.51-.3-.119.119-.128c-1.977-1.048-3.836-2.561-3.846-4.785-.01-2.9,3.114-4.587,5.556-5.615l-.039-2.659-.1.1V49.613l-18.26-.534,6.476-14.395c-26.6,6.831-41.384,27.128-52.378,46.337-1.374,2.4-2.729,4.854-4.083,7.306-5.6,10.153-11.389,20.653-19.387,28.947C168.384,165.947,140.92,227,114.355,286.046c-12.427,27.642-25.279,56.224-39.981,83.194-5.141,9.451-10.035,19.278-14.751,28.779C48.69,420,37.409,442.686,21.9,462.815c.929,3.678,2.116,7.434,3.262,11.083C30.637,491.3,36.3,509.281,16.539,523.25ZM140.376,822.56l3.559,7.434-4.083,2.037-2.1-3.905-1.522-3.658Zm-25.922-39.99c15.462,2.521,18.26,14.444,18.952,25.784l.168,2.749-2.739-.336c-15.1-1.908-17.044-13.673-18.754-24.063l-.771-4.637ZM83.707,703.35,108.8,769.026l-4.963-2.136c-18.3-7.84-21.968-22.5-25.517-36.688-1.681-6.713-3.272-13.06-6.347-18.764L70.825,709.3Zm66.4-461.832c.3-.633.583-1.275.85-1.918l1.374-3.351,6.258,6.92-5.3,12.15-2.353-3.025c-.227-.277-.524-.583-.811-.88-1.068-1.088-2.4-2.452-2.046-4.251A25.872,25.872,0,0,1,150.1,241.518Zm-7.939,23.708a7.573,7.573,0,0,0,.652-.534l1.918-1.859,1.542,2.175a6.254,6.254,0,0,0,.544.643,4.059,4.059,0,0,1-.445,6.831c-.227.2-.455.4-.643.593l-1.908,2.066-1.631-2.294c-.188-.267-.425-.524-.643-.781-.8-.919-1.8-2.056-1.651-3.609A4.935,4.935,0,0,1,142.165,265.226Zm-11.488,28.582,2.244.524h0l2.126.84-.494,1.265-2.126-.83h0l-2.126-.83Z" transform="translate(87.537 210.901)"/><path class="b" d="M111.831,27.639h.009l.526-1Z" transform="translate(859.745 183.507)"/><path class="b" d="M123.27,138.7l-7.228-.062.027,3.471.027-.009v.312Z" transform="translate(893.865 1068.653)"/><path class="b" d="M125.057,137.842l-7.255-.081.045,3.454.053-.027v.348Z" transform="translate(908.259 1060.864)"/><path class="b" d="M137.707,49.109l.018-2.074-2.061,2.079Z" transform="translate(1034.066 335.394)"/><path class="b" d="M123.484,138.959l-1.847,1.883h1.856Z" transform="translate(939.909 1071.508)"/><path class="b" d="M64.3,30.95l5.172-.049.071-5.194-5.261.009Z" transform="translate(470.585 175.257)"/><path class="b" d="M45.861,37.088l.031,2.137,2.1-2.115Z" transform="translate(319.984 254.016)"/><path class="b" d="M50.249,33.582l.022,2.213,2.16-2.2Z" transform="translate(355.878 245.243)"/><path class="b" d="M53.184,131.638l2.169,2.169.008-2.177Z" transform="translate(379.893 1006.375)"/><path class="b" d="M124.634,33.582h-2.142l2.133,2.16Z" transform="translate(946.887 245.243)"/><path class="b" d="M46.743,34.468l0,5.243,5.189,0,.013-5.247Z" transform="translate(327.101 253.041)"/><path class="b" d="M47.726,45.246h0l.045,3.891L50.095,45Z" transform="translate(335.194 318.69)"/><path class="b" d="M66.183,40.319c-9.9,8.028-17.094,18.735-21.73,32.368Z" transform="translate(308.124 279.959)"/><path class="b" d="M61.6,32.721l-6.9.049L54.639,35.5l.085-.053-.04.874Z" transform="translate(391.688 237.587)"/><path class="b" d="M51.125,37.922l13.846-.156.143-4.98-14-.076Z" transform="translate(362.733 237.495)"/><path class="b" d="M66.391,33.59l-9.415.081L52.34,43.01Z" transform="translate(372.735 245.311)"/><path class="b" d="M126.571,131.631l.008,2.142,2.142-2.142Z" transform="translate(980.256 1006.391)"/><path class="b" d="M46.174,37.762l2.088-.12.018-1.99Z" transform="translate(322.547 263.633)"/><path class="b" d="M79.49,85.607l3.747-.732L109.4,40.93c-28.581,15.452-48.038,40.346-60.742,77.6l11.8-6.169C60.893,100.693,63.721,88.661,79.49,85.607Z" transform="translate(341.668 284.161)"/><path class="b" d="M125.7,132.525l.009,2.061,2.088-2.079Z" transform="translate(973.119 1014.172)"/><path class="b" d="M127.277,65.4V52.118l-9.087-.049Z" transform="translate(911.342 376.339)"/><path class="b" d="M888.97,869.9c.712-.633,1.414-1.266,2.116-1.889l.415-.366c5.783-5.151,11.2-9.965,13.94-15.848C939.49,778.755,969.89,706.6,967.963,627.069c-1.651-67.85-5.368-137.243-11.073-206.26-1.7-20.485-11.023-41.434-19.921-59.209-10.855-21.681-22.937-43.253-34.632-64.1l-.475-.85c-8.2-14.6-16.668-29.709-24.656-44.756a68.22,68.22,0,0,1-3.856-8.947c-4.7-6.683-92.872-130-235.335-187.466A62,62,0,0,1,625.568,52.5C567.03,30.93,503.777,26.451,432.1,38.789c-73.713,12.684-127.149,33.485-173.269,67.445-2.818,2.076-6.268,2.541-9.61,3-.969.129-1.928.257-2.857.435-5.3,5.556-10.687,11.053-16.065,16.55-11.992,12.239-24.39,24.894-35.779,38.28-51.132,60.02-78.646,117.865-86.595,182.048-2.323,18.8-8.66,39.753-18.863,62.274a553.233,553.233,0,0,0-46.97,177.451C32.74,687.415,79.3,769.2,126.078,835.859c81,115.443,192.527,192.5,340.952,235.553,57.914,12.536,173.625,19.97,297.57-70.816l-1.394-1.661,9.4-4.34c6.643-5.171,13.87-11.053,21.275-17.38l2.679-5.329-.247-.445.02-.04-.069-.128a14.209,14.209,0,0,1-1.74-4.36,4.015,4.015,0,0,1-.049-1.028l-1.552-.04,3.055-2.986c.188-.208.415-.415.623-.623l23.1-22.916.01,11.527a51.622,51.622,0,0,0,5.111-2.056c7.266-7.227,13.851-14.1,20.138-20.989l1.2-1.305c.563-1.236,1.087-2.521,1.572-3.885l-9.5.089,1.018-1.572,23.905-36.54-.02,5.438,25.408-39.378Zm9.491-24.281-2.165-3.075a3.638,3.638,0,0,0-.376-.465c-.959-1.1-2.224-2.531-1.987-4.567.2-1.958,1.711-3.1,2.709-3.865l.237-.188a3.066,3.066,0,0,0,.386-.306l2.778-2.6L905.8,838.8Zm14.3-22.917-5.21,5.448-2.323-3.124c-.128-.168-.267-.316-.405-.474-1.038-1.107-2.4-2.561-2.224-4.656.148-2.057,1.651-3.243,2.748-4.113.307-.247.485-.386.633-.534l2.679-2.63,5.863,7.869Zm8.058-16.095-8.631-.217V789.522l9.481.207Zm9.7-25.4-12.575-5.23,14.81-22.57ZM965.53,603.845l1.671,25.26-11.478.494V604.122Zm-18.517-70.9h9.6v34.415l-9.6.089Zm-3.075,131.558,5.972,8.5c7.691,10.934,16.006,26.931-.584,39.694l.218,1.76c.1.91.237,1.809.386,2.719l.079.564c1.127,7.3,2.679,17.3-10.084,21.562l-6.337,2.116,10.351-29.847Zm-2.185,6.04-3.945,13.663-3.777-2.709c-.524-.386-1.1-.741-1.661-1.1l-.405-.257c-2.2-1.394-4.449-2.808-5.952-5.131-1.661-2.59.366-5.16,2.521-7.889.593-.732,1.157-1.443,1.582-2.066l2.116-3.154Zm-19.4-257.323.83.563-.821-.573c.168-.247.346-.5.494-.761l3.826-6.644,3.628,12.378-6.307,11.043-2.215-7.326c-.059-.178-.139-.376-.208-.573l-.109-.316a8.175,8.175,0,0,1-.791-4.034A7.913,7.913,0,0,1,922.357,413.226ZM911.5,638.122l10.687.069v27.385l-10.687-.049Zm2.363,49.63L909.643,698.8l-4.113-6.891a28.283,28.283,0,0,1-2.2-4.073c-1.137-2.57,1.127-4.132,2.482-5.072l3.826-2.926ZM895.2,410.972h8.225v20.85H895.2ZM875.693,266.384l4.152,14.76-13.08-2.284Zm-6.308,54-1.77,14.128-11.1-8.562Zm-14.928-.415-3.786-15.413,11.972,1.829Zm-9.738-31.834.03-.02a6.429,6.429,0,0,0,.583-.435l2.63-2.422,5.991,7.87-7.306,6.663-2.165-2.867a4.332,4.332,0,0,0-.356-.4c-1.009-1.068-2.314-2.452-2.135-4.479A5.648,5.648,0,0,1,844.719,288.134ZM683.363,118.642l.069.247.079.247,1.275,3.312-10.46,3.213L670.9,112.769l5.161,1.008c.326.059.672.109,1.038.158a11.9,11.9,0,0,1,3.787,1.008A5.171,5.171,0,0,1,683.363,118.642ZM668.049,90.554a25.024,25.024,0,0,1,2-5.24l.247-.514c.208-.445.415-.88.593-1.325l3.43-7.86,3.312,9.8a26.589,26.589,0,0,1,1.592,5.675c.307,2.343-1.493,3.806-2.689,4.765-.3.237-.534.435-.722.613l-2.551,2.6-2.323-2.828a6.685,6.685,0,0,0-.643-.662C669.157,94.45,667.535,92.838,668.049,90.554ZM578.113,46.787l.83,7.138-17.459,1.246-.336-8.384Zm-88.5,6.308.148,10.371H446.5l-.079-10.371ZM373.227,68.1l11.191,14.76-17.133-4.172ZM360.85,81.281,352.5,93.1l-6.209-13.07Zm-26.792-4.686-.672,14.741-3.025.405-23.757.01h-4.439Zm16.174,97.648.742,1.572-14.523-1.256,8.314-11.706,4.063,8.492,2.59-4.014c17.054-26.436,35.789-33.871,62.759-24.8l8.493,2.847-72.447,28.848Zm-2.175,16.965c35.878-19.644,68.048-30.163,107.574-35.156,1.384-.188,2.847-.425,4.34-.672,12.051-1.987,20-1.839,23.777.465,13.8,8.3,28.255,6.574,43.549,4.736,3.668-.445,7.454-.9,11.221-1.2a24.3,24.3,0,0,1,7.949,1.028,26.46,26.46,0,0,0,6.911,1.038c9.689-.336,19.684,2.056,25.477,6.139,10.48,7.425,21.809,10.608,33.792,13.979,8.334,2.353,16.955,4.775,25.339,8.75,35.027,16.629,71.2,33.792,95.591,67.564,4.133,5.7,8.463,11.468,12.664,17.044l.356.484c22.867,30.381,46.516,61.81,52.25,102.581a55.484,55.484,0,0,0,4.39,15.63c19.091,40.92,24.251,76.362,16.263,111.538l-.376,1.582-9.105,4.162,9.57,9.214v1.394a63.487,63.487,0,0,1-.386,7.207c-.4,4.162-.831,8.789.653,10.964,18.191,26.476,11.211,58.616,4.469,89.7-1.71,7.89-3.332,15.344-4.518,22.63-1.236,7.662-2.215,14.711-3.154,21.543-4.419,32.1-7.612,55.295-31.933,87.534-8.987,11.913-22.768,25.062-36.1,37.786-10.381,9.916-20.178,19.268-27.474,27.741l-4.212,4.933a41.455,41.455,0,0,0-3.193,4.4c-1.77,2.719-3.312,5.072-6.792,6.574-38.231,16.52-69.066,29.55-103.1,43.55a54.57,54.57,0,0,1-19.229,3.846v.03l-2.175-.059-13.663-.475c-84.44-2.887-171.766-5.872-247.8-60.169-8.473-6.06-17.183-14.968-25.6-23.579-2.284-2.333-4.538-4.647-6.792-6.9-62.027-62.067-92.645-121.909-102.374-200.1-3.935-31.627-1.1-58.409,2.175-89.422v-3.579c.445-4.2.7-8.354.949-12.358,1.008-16.154,1.878-30.173,13.95-34.068-.366-.633-.751-1.275-1.127-1.918-2.462-4.132-.1-8.433,1.987-12.229a22.4,22.4,0,0,0,2.353-5.19c20.307-86.872,36.352-155.483,100.5-212.686a28.754,28.754,0,0,0,3.045-3.371c1.948-2.373,3.925-4.775,6.8-6.2,6.08-2.986,11.132-8.275,16.006-13.386C337.5,199.394,342.3,194.361,348.057,191.208ZM322.57,158.682,307.275,160.8l-2.521,9.343-12.5-9.956,11.577-4.429,12.467-10.45Zm-34.731-42.1c.148-.128.306-.267.455-.415,1.147-1.088,2.748-2.462,4.686-2.274,2.106.188,3.322,1.908,4.044,2.936l.148.208a5.381,5.381,0,0,0,.356.445l2.343,2.64-2.808,2.155a6.163,6.163,0,0,0-.544.494c-.969.919-2.313,2.2-4.192,2.2-.129,0-.267-.01-.386-.02-2.116-.208-3.282-1.849-4.044-2.936l-.188-.247a3.574,3.574,0,0,0-.326-.415l-2.323-2.63Zm-85.527,53.288c.059-.168.109-.356.158-.554a5.276,5.276,0,0,1,2.491-3.727,7.929,7.929,0,0,1,2.353-.712l9.076-1.592-21.1,24.469Zm-12.645,237.1q.875-8.72,1.75-17.42l.8-8.008c2.264-22.669,4.587-46.11,7.326-69.224,1.2-10.064,3.3-20.257,5.151-29.254.643-3.2,1.3-6.4,1.928-9.6l-4.676-.554,1.127.712-2.5,3.974-.138-.089a2.388,2.388,0,0,1-1.888.781l-2.234-.089-.89-1.681a2.555,2.555,0,0,1-.247-2.432l-.089-.059,2.412-3.915.1.069,7.454-13.89-2.027.02,4.281-4.222,5.121-9.54v4.479l8.66-8.532.04,7.86,4.162-4.113h.672L241.7,229c12.615-10.608,26.921-22.63,41.137-34.434l1.345-1.127c10.321-8.611,22.027-18.339,38.656-12.061l4.834,1.829-3.707,3.609c-4.558,4.429-9.135,8.828-13.713,13.248-10.321,9.916-20.9,20.1-31.023,30.351-47.781,48.315-64.944,110.055-74.553,158.449-1.107,5.546-3.915,10.746-6.4,15.324-.811,1.513-1.631,3.045-2.412,4.577l-8.028,16.075Zm-8.186,27.168L188.3,430.3l-2.046,7.553c-1.552,5.744-3.322,11.537-5.022,17.143l-.208.662c-4.172,13.693-8.492,27.84-10.084,41.948-10.786,95.72,7.009,177,54.415,248.474,69.373,104.6,167.169,163.165,290.689,174.08,111.2,9.817,204.322-36.4,269.285-133.535C819.41,735.69,839.8,679.446,845.905,619.456c.149-1.513.445-3.055.722-4.548l.059-.336a25.756,25.756,0,0,0,.741-7.237c-1.948-17.351-3.589-35.057-5.161-52.17l-.079-.82c-6.5-70.668-13.218-143.738-43.006-211.055-4.271-9.61-9.778-18.814-15.106-27.712-2.61-4.37-5.309-8.888-7.84-13.4l-3.589-6.327c-3.737-6.565-7.553-13.277-10.9-20.129-1.582-3.253-2.561-6.752-4.053-12.051l-.227-.831c-.83-2.976-1.849-6.584-3.233-11.142l-2.145-7.079a12.639,12.639,0,0,1-6.96,2.521h-.376c-6.159,0-10.7-4.983-14.7-9.372l-.455-.5c-.5-.554-.989-1.1-1.493-1.612-35.571-37.163-81.889-58.784-126.654-76.619C587,153.274,570.629,150.99,554.8,148.785l-.445-.059c-4.834-.682-9.639-1.345-14.4-2.126-11.883-1.918-23.53-3.154-36.995-4.587-6.367-.672-13.02-1.394-20.158-2.224l-5.26-.613,2.907-4.439c8.8-13.495,17.706-19.447,26.693-21.384H450.855l11.261,24.489-37.469,7.524-.2-.979-5.428-26.357h-26.15l-61.918,36.164.02-5.744c.05-14.592,2.936-24.123,9.105-30.005,5.269-5.042,12.8-7.257,23.312-6.9q8.631.371,17.242.672l11.379.435.9-.623c2.64-1.78,5.23-3.609,7.82-5.428l.455-.326c8.047-5.675,16.372-11.547,25.408-15.957,7.553-3.678,19.506-5.586,26.792-1.918,19.308,9.728,36.856,4.755,55.433-.524,33.317-9.422,63.451,4.5,88.543,19.367l10.311,6.11H523.006c3.2.534,6.426,1.315,9.669,2.185,14.533,3.935,29.56,7.227,44.083,10.41l.376.079q8.616,1.883,17.232,3.816a16.122,16.122,0,0,0,2.6.277c2.224.109,4.7.227,6.812,1.493,15.63,9.4,32.368,17.746,48.552,25.823,36.738,18.31,74.721,37.252,103.382,70.144,1.77,2.037,1.868,4.864,1.938,7.138l.01.277a21.153,21.153,0,0,0,.148,2.145l.218,1.414-.9,1.117a27.19,27.19,0,0,1-3.905,4.073l6.06,4.33c27.257,19.437,39.575,34.543,47.039,57.727,6.515,20.257,15.69,40.06,24.568,59.21l.109.237c8.789,18.962,17.865,38.567,24.429,58.735,15.68,48.018,21.137,98.577,16.233,150.273-.257,2.877-1.552,5.862-2.808,8.749a32.924,32.924,0,0,0-1.928,5.2c22.818,29.5,11.913,55.848,1.354,81.325-4.014,9.669-8.087,19.516-10.123,29.234-.593,2.807.326,6.4,1.839,12.338.445,1.769.949,3.727,1.463,5.9,1.374-2.551,2.63-4.855,3.8-6.97,4.024-7.306,6.664-12.1,8.077-17.192,10.9-38.863,20.593-80.5,9.145-124.638-5.319-20.475-7.82-41.236-7.227-60.02,1.859-57.954-17.8-109.413-37.272-152.092-2.946-6.466-5.843-12.971-8.74-19.486l-.583-1.325c-20.406-45.952-41.5-93.476-81.929-127.129-17.855-14.879-37.37-28.5-56.254-41.681-6.732-4.686-13.317-9.293-19.852-13.95-6.228-4.439-12.911-8.522-19.377-12.467l-1.275-.791q-2.714-1.661-5.408-3.332l-3.233-1.77-16.639-7.3-14.75-3.688,4.538-10.223,11.172,8.532,1.058-.227c4.093-.91,9.679-2.145,14,.623,2.432,1.562,4.142,4.221,5.072,7.929l.741.049c39.3,2.738,67.7,15.482,89.373,40.089,7.168,8.156,16.945,14.582,26.377,20.8,3.292,2.165,6.97,4.587,10.5,7.079l.306-.465,2.9,2.689,16.4,16.382.979.573,3.559,3.47.039-8.5,17.291,18.2v-5.655l8.641,17.608v-.554l6.9,14.711H829.7l8,17.311-7.939.188c4.755,11.013,9.758,22.116,14.592,32.862,12.921,28.73,26.268,58.419,36.362,88.72,7.879,23.7,11.162,49.214,14.335,73.891.988,7.682,1.967,15.2,3.075,22.788,3.757,25.546,7.019,52.981,10.568,88.967,4.31,43.451-5.21,85.6-14.4,126.368l-.563,2.482c-.366,1.671-.752,3.331-1.117,4.992l11.152-5.18-1.434,14.395-10.134-7.365q-1.335,5.991-2.63,11.982l.247.425-.583,1.9-.583,1.028,2.709-.682.662,2.818h-.267a3.136,3.136,0,0,1-.969,1.938l-1.354,1.324-1.829-.534a3.077,3.077,0,0,1-1.345-.751c-1.107,1.888-2.224,3.757-3.332,5.635l-1.147,1.928c-5.457,9.165-11.646,19.555-16.975,30.025-47.86,93.96-119.951,155.374-220.387,187.772-26.159,8.423-53.456,12.516-83.471,12.516-30.42,0-59.971-4-91.251-8.245-3.737-.5-6.07-3.727-8.127-6.565-.4-.564-.8-1.117-1.2-1.641l-.148.02c-24.2,4.123-47.741-.5-74.079-14.533-14.592-7.751-30.183-14.365-45.25-20.761l-3.48-1.473,22.9,21.74,10.756,6.545-1.088,2.165,24.429,2.234L389.075,966.5,368.63,953.952l-.02.059-.425.821-12.833-5.141c-38.349-9.541-69.738-32.754-95.829-70.945l-2.6-3.8-.751.741-8.621-8.453,4.36-4.726,3.46,2.659,5.437,5.932L258.4,873.5l14.118.425c-1.681-1.918-3.361-3.816-5.052-5.724l-1.374-1.552c-9.135-10.341-18.448-20.87-27.039-31.735l-1.3-1.621h.03c-5.487-7.138-10.351-14.81-15.077-22.254-1.75-2.778-3.46-5.477-5.2-8.136l-12.457-19.14,17.36,14.85q4.3,3.677,8.562,7.424c8.275,7.217,16.827,14.672,25.784,21.335,4.647,3.46,9.59,6.634,14.484,9.6l-4.943-5.4c-14.4-15.729-29.3-32-43.4-48.661-42.422-50.084-65.517-101.009-70.608-155.651-.919-9.926-3.144-19.98-5.368-29.728-1.107,12.071.2,23.777,1.819,34.731,2.491,16.659,5.4,33.554,8.216,49.9l6.861,40.258-9.956-20.208c-2.521-5.131-5.408-10.321-8.206-15.354-7.573-13.574-15.275-27.4-17.43-42.1-4.192-28.69-5.25-58.241-6.268-86.812-.415-11.854-.84-23.965-1.473-35.828l-.1-1.661-1.542.376-.84-3.391,6.416-1.513.326,1.4,15.71-10.44V552.8l1.048-5.487c1.345-7.138,2.709-14.424,4.251-21.552.484-2.215.939-4.439,1.394-6.663l.069-.3c1.819-8.819,3.668-17.7,6.525-26.179a133.742,133.742,0,0,0,3.984-16.52C160.819,460.256,164.041,443.894,181.481,434.136Zm689.13,364.718-12.664-1.177,7.652-14.048ZM713.339,953.141,711.8,965.648l-13.307-7.958Zm-18.6,20.771h-28.1l24.113-13.05Zm-82.9,6.031L665.8,977.5l-4.221,5.576c-4.824,6.367-10.292,9.343-17.222,9.343-5.873,0-12.981-2.234-21.76-6.831Zm1.612,19.239H530.213l-.069-10.806h79.15Zm-111.528-9.036-5.971-.672a11.6,11.6,0,0,1-3.2-.583,4.609,4.609,0,0,1-2.64-3.134l-1.69-3.539,3.757-1.355c.346-.079.554-.138.751-.2a6.883,6.883,0,0,1,4.4-.237c2.135.761,2.59,2.9,2.857,4.172a5.894,5.894,0,0,0,.148.623Zm-33.455-8.917H443.648l-.257-10.6L468,969.5ZM424.9,963.008l-.554,10.054-20.544-1.009.524-10.222ZM163.34,762.107l-9.56-5.665c-11.7-6.921-17.222-17.964-16.4-32.813l.652-12.477Zm-14.849-292.8,2.224,13.663-27.148,3.193-2.659-14.681Zm-1.028-7.8,7.3-25.843,3.6,20.079Zm2.551-180.763,3.361.475c1.018.079,3.272.237,4.1,2.442a12.484,12.484,0,0,1,.6,3.421l.544,5.141-11.715-1.868Zm-7.958,176.136-7.949,8.186-1.523-5.536c-.158-.583-.346-1.167-.534-1.76a25.315,25.315,0,0,1-1.236-5.457c-.168-2.2,1.424-3.618,2.472-4.558a6.393,6.393,0,0,0,.682-.623l3.964-4.4Zm-20.92-149.937,14.553-34.909-3.609,39.724-11.359-3.826ZM114.184,335h9.362v18.062l-9.362-.02ZM84.041,613.267l4.2-2.847,7.88,13.762-6.93.474c-1.048.1-2.145.208-3.253.208a15.12,15.12,0,0,1-2.2-.158c-1.74-.267-3.164-1.77-4.034-4.251a3.95,3.95,0,0,1,.564-4.231A18.361,18.361,0,0,1,84.041,613.267ZM81.886,532.1,80.1,524.725q-.074-.311-.178-.623a9.048,9.048,0,0,1-.623-4.162,7.58,7.58,0,0,1,1.77-3.559c.208-.257.376-.475.514-.682l4.073-6.317,1.859,7.3c.049.168.109.356.178.534l.089.3a8.051,8.051,0,0,1,.583,3.974,7.673,7.673,0,0,1-1.78,3.569c-.227.277-.4.5-.554.722Zm6.772,123.629,9.985.03v19.516H88.658Zm9.649,41.345c.138-.178.267-.385.425-.613l.277-.405c1.008-1.523,2.541-3.905,5.19-3.144a31.394,31.394,0,0,1,5.517,2.343l5.467,2.64-2.58,3.223c-.158.2-.316.445-.484.7l-.227.316c-1.028,1.522-2.195,3.253-4.212,3.253a3.526,3.526,0,0,1-1.018-.148,31.6,31.6,0,0,1-5.517-2.353l-5.329-2.61ZM94.728,601.73c-15.522-7.662-9.619-19.97-5.309-28.987,1.681-3.51,3.272-6.832,3.8-9.748l.168-.91,6.347.573v11.4l15.423-60.821V640.672Zm3.065-152.379,11.468,8.473-13.347,5.121Zm-17.222,1.1,1.315-4.785,3.658,1.938a.939.939,0,0,0,.267.128c1.206.5,3.312,1.374,3.421,3.737a9.367,9.367,0,0,1-.593,3.381l-1.3,4.745-4.172-2.145c-.989-.405-3.124-1.265-3.193-3.658A9.622,9.622,0,0,1,80.571,450.448Zm-6.535,33.841.129-.089a2.578,2.578,0,0,1,.109-2.343l.761-1.74,1.878-.217a2.543,2.543,0,0,1,2.4.7l.089-.04,1.77,2.333,14.4-7.968v19.921L71.94,488l3.44-1.9Zm-2.333,68.8,7.741-.435,1.424,17.509-9.165.316ZM62.37,508.926l8.7-.049v18.2l-5.032-1.75c-.989-.267-3.47-.929-3.579-3.529-.119-2.541-.109-5.131-.1-7.632Zm6.3,85.685,1.147.445.83-1.127,10.934,7.978-6.248-2.5-2.689,2.729c-5.368,5.477-8.908,7.82-11.834,7.82a5.351,5.351,0,0,1-2.007-.405c-3.9-1.631-3.806-6.624-3.717-11.449.03-1.7.089-5.082-.316-5.783l-7.85-13.406Zm-19.189,85.25L58.554,632.5l-2.9,2.135,4.192-8.9,1.76-9.2,1.4,3.332,5.6,1.987L68.4,623.1a5.165,5.165,0,0,1-1.394,3.184l-.979.712,19.713,46.842-13.7,5.981-5.408-13.851-5.853,16.145Zm12.744,15.3H71.4v16.975H62.222Zm6.7,33.337,8.067-13.841,4.142,15.492Zm34.207,46.525-.633-16.362-8.117-1.127v-.87l-.158-15.788-8.413.089-.247-27.959L76.29,698.359,89,692.872l1.9,19.644,9.639,27.118,8.206,18.073,9.412,18.072Zm14.553-43.747-14.246-8.038,16.441-4.172Zm2.353-47.208.989.188-.979-.188.109-.554c.277-1.424.554-2.768.682-4.093l.1-.84c-5.111-2.066-8.354-5.111-9.61-9.066-2.274-7.069,2.383-15.087,6.693-21.275l5.131-7.356,3.371,35.7,9.669,30.618L130.23,705.4C116.6,701.246,118.673,690.915,120.037,684.073Zm267.8,351.659-15.966-9.629-24.736-13.04,30-.722-.326,9.3h15.215Zm20.7,6.041a10.068,10.068,0,0,1-3.47-.771,4.922,4.922,0,0,1-2.481-3.569l-1.176-3.144,3.124-1.572c.415-.129.623-.208.84-.286,1.71-.6,3.974-1.424,5.744.366a7.374,7.374,0,0,1,1.77,4.034l.069.346a4.245,4.245,0,0,0,.119.534l1.345,4.864Zm49.837,11.844.227-10.242-.119-.02-.356-.069-2.837-.5.079-.188a2.642,2.642,0,0,1-1.384-1.72l-.672-1.78,1.246-1.453a2.67,2.67,0,0,1,1.928-1.137v-.148l4.311.741-.178.969,22.195,5.171Zm65.982,16.807a16.667,16.667,0,0,0-.919,1.414l-.158.267c-1.256,2.1-2.669,4.479-5.4,4.775-.227.02-.445.04-.682.04-2.145,0-3.994-1.127-6.149-2.432-1.028-.623-2.126-1.3-3.421-1.958l-10.064-5.171,31.3-2.867ZM865.253,848.316c-7.988,11.795-16.55,23.431-25.586,34.771l8.275-10.045-5.971,17.272a2.666,2.666,0,0,0-.109.445c-.3,1.325-.692,3.055-2.353,4.044a8.995,8.995,0,0,1-2.729.979l-9.125,1.869c-.583.682-1.147,1.355-1.72,2.027l3.085-.049-14.711,34.048.208-21.137c-7.2,7.889-14.167,15.1-21.177,21.9l13.09.267-18.24,16.787.1-12.239c-2.314,2.175-4.706,4.37-7.267,6.654a417.656,417.656,0,0,1-108.226,71.815,360.688,360.688,0,0,1-62.344,20.87,344.948,344.948,0,0,1-65.537,7.7,359.6,359.6,0,0,1-45.991-3.411l-4.686,13.129c-.04.128-.059.277-.089.425a5.179,5.179,0,0,1-2.294,3.678,8.306,8.306,0,0,1-2.491.83l-9.2,1.72,17.094-20.03q-9.194-1.334-17.993-3.183c-3.49-.583-6.99-1.532-10.391-2.442-1.948-.524-3.747-1-5.556-1.433-1.354-.376-2.63-.7-3.905-1.018l-.643-.168a106.734,106.734,0,0,1-11.448-3.342L416.955,1020.7c-49.333-18.962-85.033-36.718-115.789-57.608a503.352,503.352,0,0,1-97.954-83.758c-4.844-5.052-9.273-10.618-13.534-16.006l-.643-.811c-2.106-2.649-4.221-5.289-6.367-7.87l-4.518-6.1c-4.825-6.525-9.827-13.277-14.286-20.277a311.5,311.5,0,0,1-24.973-43.994l-10.232-9.728,7.444,3.421c-.91-2.126-1.78-4.261-2.6-6.347l-.356-.89,5.912-2.659.425.86c2.323,4.577,4.884,9.3,7.632,14.039a5.227,5.227,0,0,1,3.48,2.59,7.532,7.532,0,0,1,.583,2.3l.287,2.393c6.278,10.153,13.376,20.445,21.72,31.468,4.706,6.446,9.936,12.645,15.008,18.636l4.795,5.7c2.531,2.63,5.161,5.546,7.474,8.117,4.508,4.963,9.036,9.975,13.89,14.424a531.908,531.908,0,0,0,97.994,76.975c31.36,19.536,68.176,36.768,112.576,52.665l29.679,9.708a87.154,87.154,0,0,0,9.946,2.868l.643.158c1.394.327,2.778.662,4.172,1.038,1.72.406,3.549.88,5.378,1.365,2.9.761,6.179,1.631,9.3,2.125a317.251,317.251,0,0,0,60.693,5.932,322.383,322.383,0,0,0,60.406-6.693,358.026,358.026,0,0,0,58.073-18.9c35.453-15.2,70.48-37.282,104.114-65.655,30.391-25.576,59.071-56.145,85.27-90.856,28.571-37.805,48.572-73.416,61.138-108.889l.326-.9,6.189,1.849-.218.929c-4.577,18.992-11.972,38.705-22.61,60.258a500.946,500.946,0,0,1-32.17,55.72Z" transform="translate(243.988 173.133)"/><path class="b" d="M124.05,135.655l13.108-17.378-13.069,6.28Z" transform="translate(959.042 917.419)"/><path class="b" d="M95.934,118.69c-.652,0,.653.02,0,0Z" transform="translate(728.154 921.696)"/><path class="b" d="M61.957,54.589l-3.819.035.022,7.225Z" transform="translate(420.376 397.074)"/><path class="b" d="M119.992,126.406l-2.186-.027.036,2.187Z" transform="translate(908.544 984.482)"/><path class="b" d="M82.47,131.769,66.362,115.625l5.376,15.813Z" transform="translate(487.321 895.802)"/><path class="b" d="M99.152,259.256c24.409,12.131,50,23,74.741,33.515,9.817,4.172,19.624,8.334,29.392,12.6l.959.415,1.078.049c5.319.227,10.638.386,15.967.534,12.7.356,25.823.732,38.656,2.254,59.328,7.019,119.457-6.367,183.808-41.009,44.281-23.876,84.351-60.693,119.081-109.452,11.1-15.591,21.74-32.783,25.467-53.347a90.221,90.221,0,0,0-8.295,11.093l-1.76,2.6c-33.337,48.849-71.123,104.2-134.217,137.539-114.316,60.386-225.281,59.783-339.271-1.8C93.794,248.322,82.1,243.23,70.778,238.3l-.939-.4.277.217C79.241,245.949,88.673,254.046,99.152,259.256Z" transform="translate(494.076 797.39)"/><path class="b" d="M100.5,147.486,78.115,118.074l-12.783-.445C72.618,129.483,83.088,142.563,100.5,147.486Z" transform="translate(478.374 911.457)"/><path class="b" d="M123.452,61.763l.009-7.144-3.757-.027Z" transform="translate(923.993 397.102)"/><path class="b" d="M120.9,125.514l-2.222-.009.018,2.213Z" transform="translate(915.676 977.333)"/><path class="b" d="M94.937,222.731c8.067-21.908,16.411-44.568,26.07-66.239,10.054-22.531,22.739-44.281,34.988-65.319,6.149-10.549,12.506-21.463,18.448-32.319a85.378,85.378,0,0,0,5.22-12.684c.109-.3.208-.6.306-.9-24.568,16.481-37.459,41.7-46.021,62.215-13.712,32.862-27.356,66.4-40.544,98.834C77.853,244.55,61.778,284.076,45.475,322.761c-20.267,48.087-25.8,90.342-17.44,132.992,4.914,25.052,7.2,51,9.4,76.115.91,10.331,1.819,20.673,2.907,30.984C46.355,619.916,67.413,672.67,104.6,723.634q-.964-2.58-1.918-5.191c-6.713-18.151-13.653-36.945-22.986-53.96-17.509-31.923-27.366-64.143-30.134-98.508a719.71,719.71,0,0,0-9.758-72c-12.783-69.946-4.933-133.426,23.994-194.05C75.708,274.95,85.485,248.405,94.937,222.731Z" transform="translate(156.357 299.003)"/><path class="b" d="M41.072,46.266l-.41,8.271,7.331-11.677-6.915,3.4v.007Z" transform="translate(277.368 301.068)"/><path class="b" d="M40.7,43.211l0,0V43.2l-.006,0Z" transform="translate(277.822 304.081)"/><path class="b" d="M92.009,173.576C75.973,157.3,59.048,141.327,42.686,125.894c-1.859-1.77-3.727-3.529-5.6-5.3,12.951,21.849,32.3,38.448,51.1,54.573q4.553,3.915,9.086,7.84l-.02-.059.455.415C96.2,179.557,94.51,176.117,92.009,173.576Z" transform="translate(247.383 933.846)"/><path class="b" d="M154.54,138.8l.12-.072-23.43.116-8.139,15.09.384,3.355L154.581,138.8Z" transform="translate(950.212 1069.503)"/><path class="b" d="M126.314,138.8l.119-.071h-.04l-.12.072Z" transform="translate(977.919 1069.503)"/><path class="b" d="M55.886,151.919l-6.644-20.326-7.019-6.93-11.864-5.794C34.541,132.7,41.056,145.592,55.886,151.919Z" transform="translate(210.347 921.413)"/><path class="b" d="M49.677,134.522l-5.158-5.137-.866-.862-8.531-4.212,12.855,20.2Z" transform="translate(252.675 966.566)"/><path class="b" d="M36.322,133.644l6.256,6.229,10.553-.651L36.349,123.381Z" transform="translate(241.75 959.18)"/><path class="b" d="M119.791,141.363l-.134,10.067,10.254-5.069-5.06-4.98Z" transform="translate(923.275 1092.869)"/><path class="b" d="M121.422,142.667l2.57-1.294-2.535.009Z" transform="translate(938.106 1092.966)"/><path class="b" d="M31.94,118.725l0,1.874.9.009-.009-.018h.014Z" transform="translate(224.351 921.886)"/><path class="b" d="M132.765,143.177h.955l-.312-.794Z" transform="translate(1030.996 1101.934)"/><path class="b" d="M579.751,289.6a46.83,46.83,0,0,0-4.182,6.752c-1.839,3.9-4.1,7.84-6.288,11.656-6.248,10.915-12.16,21.226-9.254,30.707,2.017,6.574,8.176,12.3,18.843,17.519,2.847,1.4,3.707,6.832,3.737,7.049.316,2.027.04,3.371-.86,4.222-10.173,9.728-6.051,17.914-1.3,27.4,2.917,5.8,5.942,11.824,5.349,18.3-.178,1.948-.287,3.984-.405,6.07-.484,8.68-.979,17.647-5.823,23.342-5.181,6.11-5.408,12.269-5.635,18.8a46.915,46.915,0,0,1-1.216,10.667c-13.109,48.3-27.83,89.867-75.433,109.512l-2.63,2.541-.188-1.374-5.754,2.363,5.21-6.288-1.493-10.658-.188.158c-18.27,14.839-35.532,28.888-61.563,17.449l-3.381-1.473,2.837-2.373c2.679-2.2,5.22-4.439,7.721-6.624a172.79,172.79,0,0,1,16-12.9c75.255-51.34,100.347-120.663,78.963-218.153-6.387-29.165-4.152-60.524-2-90.866.939-13.159,1.9-26.772,2.145-39.971a8.518,8.518,0,0,1,1.236-3.974l-.02-.01.079-.109.039-.089c-16.56-2.689-23.045-17.054-28.8-29.837l-.109-.257c-23.213-51.577-60.376-85.191-110.451-99.922-5.942-1.74-11.883-3.549-17.845-5.368-53.06-16.135-107.939-32.833-164.727-5.507-15.245,7.346-25.161,12.724-34.3,25.428-7.365,10.232-17.657,18.379-27.623,26.248-5.863,4.647-11.933,9.451-17.3,14.6-27.721,26.614-44.2,55.087-50.381,87.04-1.621,8.4-4.656,16.569-7.6,24.479-3,8.077-6.09,16.421-7.583,24.8-10.331,58.241-5.6,108.513,14.484,153.664,2.274,5.121,4.488,10.252,6.7,15.373,11.458,26.545,22.284,51.617,40.94,74.741,40.771,50.51,91,78.587,158.113,88.394,46.219,6.752,88.661-4.963,128.137-17.578l1.364-.435.979,1.038c4.864,5.1,5.606,11.874,6.258,17.845.919,8.443,1.592,14.582,11.893,15.63l8.5-4.241-3.737,4.647,3.124.257-6.08,3.45c-5.685,7.019-11.182,10.114-16.886,9.689-6.782-.6-13.188-6.238-20.781-18.537v25.368l-62.245,12.635-3.164-10.351,20.178-9.283-.7-3.964-44.429,3.183.959,21.79-42.946-29.7c-.445,1.8-.811,3.609-1.176,5.388-1.2,5.882-2.225,10.964-5.774,12.852-17.44,9.244-28.5-2.145-37.025-14.5l-.9-1.3,8.4-12.22c-3.638-1.513-7.247-3.055-10.875-4.587-11.389-4.834-23.184-9.837-34.968-14.128-6.476-2.373-13.268-3.9-21.859-5.833-4.409-.989-9.244-2.076-14.691-3.44l-.652-.158-72.19-76.036.02.089-.287-.317c.089.573.178,1.137.267,1.71,1.345,8.71,2.62,16.945,6.723,23.282,36.906,57.1,83.144,93.466,141.375,111.172,54.256,16.491,107.613,30.371,163.432,19.239a17.981,17.981,0,0,1,10.47,1.572l.059-.039.04.03c6.09-3.134,11.577-5.991,16.668-8.631,10.5-5.457,19.3-10.035,28.186-14.395,90.391-44.35,141.652-118.8,152.389-221.287,3.193-30.509-1.226-62.452-5.507-93.357-1.819-13.119-3.688-26.673-4.973-39.971a27.063,27.063,0,0,0-2.768-1.088c-.573-.208-1.167-.425-1.75-.643C580.512,288.522,580.136,289.055,579.751,289.6Zm-383.5,251.292a4.562,4.562,0,0,1-2.986-1l-.534-.662-3.174-3.589-6.416-5.912,12.17-5.072L194.251,535.2l3.272,1.335Zm-2.037-20.326-1.809-.919c-22.017-11.132-34-28.839-47.366-50.836-2.086-3.421-4.212-6.792-6.337-10.163-9.125-14.454-18.567-29.4-22.778-46.911-3.193-13.258-5.685-26.891-8.1-40.07-1.028-5.6-2.047-11.191-3.124-16.767l-.662-.514.01-.049L94.171,346.3l8.463,1.384a6.26,6.26,0,0,0,.781.059,6.245,6.245,0,0,1,2.5.5l16.194-42.867L82.08,272.931l30.875-30.48-15.7-13.841L111.3,192.752,146.8,204.141a48.019,48.019,0,0,1-.1-10.6c.356-5.724.692-11.112-2.284-14.4-2.254-2.491-6.367-3.816-12.585-4.053l-2.462-.1.277-2.442c2.828-24.835,19.98-36.57,35.116-46.911l3.075-2.116c23.727-16.392,50.5-31.241,81.859-45.359,15.126-6.822,34.9-4.231,42.68-2.788,16.451,3.025,32.882,7.9,50.282,13.05,7.84,2.323,16.006,4.736,24.676,7.158l9.778,2.709-10,1.73c-75.858,13.169-82.65,14.355-105.824,3.44l8.749,13.416-49.58,14.553-69,76.283-8.443,48.295-1.1.494c-3.144,1.444-5.882,1.651-8.117.613-3.806-1.78-5.072-6.367-6.3-10.816-.87-3.114-1.849-6.673-3.45-7.178-.643-.178-2.58-.257-7.207,3.46l-.455,2.333c-2.274,11.557,5.942,16.1,14.622,20.91,1.908,1.048,3.787,2.1,5.527,3.2l1.167.722-.1,1.364c-9.669,135.325-2.472,149.018,66,232.518l1.078,1.3ZM96.02,305.7l9.006-1.364,3.9,20.8-10.035,1.612ZM321.35,144.784l-7.84,2.462-2.521-9.57,3.312.356c.3.04.613.049.929.059a7.928,7.928,0,0,1,3.351.662,4.043,4.043,0,0,1,1.888,3.164,5.909,5.909,0,0,0,.158.662Zm70.174,405.985q-4.909,1.646-9.807,3.3c-3.579,1.226-7.533-1.661-11.755-4.726-1.256-.909-2.5-1.809-3.7-2.57-36.105,20.188-75.651,19.832-109.966,16.441l12.061,24.894-34.553-21.394,17.776-6.584c-.465-13.3-6.851-20.653-19.516-22.5-11.023-1.611-15.927-7.494-14.988-17.974l-7.939-2.57,8.186-8.651,2.936,7.929c.316-.05.633-.089.939-.148,2.363-.366,5.022-.781,7.088.5,40.91,25.092,86.3,26.505,136.927,25.715l.919-.01c1.829-1.216,3.638-2.472,5.447-3.717,4.419-3.045,9-6.2,13.772-8.917,6.1-3.46,12.457-6.713,18.6-9.857,11.32-5.813,23.025-11.8,33.357-19.209,46.743-33.475,55.2-81.424,53.505-143.115-.237-8.6-1.75-17.4-3.213-25.912q-.46-2.669-.91-5.319a144.28,144.28,0,0,0-29.768,63.579,7.741,7.741,0,0,0,1.117-.316,7.156,7.156,0,0,0,.811-1.008,8.05,8.05,0,0,1,2.126-2.234,47.088,47.088,0,0,1,5.171-2.768l5.121-2.58.168,3.529c2.936,62.917-23.945,98.2-77.707,102.2l-.049.919-.712-.652c-14.622,18.715-34.642,18.8-54.009,18.853-8.759.02-17.8.039-25.962,1.9-9.264,2.1-19.8-2.906-30.005-7.751-.751-.366-1.523-.732-2.3-1.088l-11.359-4.231-.059.02V494.7l-25.438-9.471-1.948-1.295,1.661-1.671,7.4-10.45-12.694-2.946.069,8.364-2.679-.435c-34.306-5.7-52.655-35.077-60.534-52.082-25.181-54.326-46.743-112.685-10.578-176.185l1.285-2.254,2.076,1.572c17.281,13.09,11.33,31.251,7.385,43.263l-.386,1.177c-11.34,34.78-3.757,67.218,4.281,101.533l.524,2.234c.385,1.661,1.76,3.312,3.342,5.022a83.17,83.17,0,0,0-.751-9.125c-1.176-9.886-2.5-21.048,8.067-29.61l-.049-.1.92-.633c-.732-4.637-1.582-9.273-2.442-13.91-2.145-11.676-4.37-23.747-4.568-35.759-.059-3.5-1.127-7.494-2.244-11.725-2.145-8.057-4.36-16.392-.247-23.46,2.65-4.538,7.553-7.83,14.978-10.015-.01-.188-.02-.376-.04-.583-.316-4.894-.969-15.057,3.7-22.749l2.7-4.459L216.041,284.1l2.748-37.1,9.59.247-.03,20.682c-.02,13.614-.049,27.227.059,40.831.346,44.884,14.276,57.934,62.037,79.516,36.491,16.471,68.3-2.155,88.542-20.682,13.663-12.5,29.125-29.768,29.462-53.584-4.845,3.638-8.1,9.264-11.518,15.166-6.327,10.944-13.485,23.362-32.7,27.959l-5,1.2,41.681-76.293.405,1.068-10.45-49.1L364.93,218.526l4.943-1.493c9.1-2.768,15.5-2.62,19.565.465,3.51,2.64,5.121,7.148,5.091,14.157l12.536,5.428.01-.049.03.02,1.127-12.378c-.178-.336-.366-.672-.554-1.008a21.85,21.85,0,0,1-2.234-4.923c-.455-1.651.712-2.778,1.987-3.737-9.758-13.406-24.162-17.36-39.387-21.542-9.175-2.531-18.665-5.131-27.029-10.005-21.928,20.109-44.617,12.655-64.667,6.07-3.737-1.236-7.4-2.442-11-3.45L215.823,209.49l13.366-27.583L187.331,221.63l-1.542-2.056c-5.912-7.949-8.117-14.958-6.752-21.414,1.315-6.228,6.06-11.686,14.1-16.224,9.194-5.19,18.438-10.282,27.682-15.373l12.546-6.92L249,152.109l-1.522,2.472,5-3.49c6.871-4.8,14.118-8.987,20.1-7.138,3.292,1.008,5.872,3.648,7.85,8.038l.069-.03.593,1.552,47.346,6.96,12.131-52.951,39.763,9.076L376.1,102.608l2.61-.4c28.344-4.34,47.82,11.972,65.329,29.026,53.643,52.24,76.916,113.684,69.145,182.621-.257,2.323-.544,4.666-.83,7-2.61,21.315-5.082,41.434,9.412,59.724,2.719,3.44,5.032,9.5,3.974,13.96-1.888,7.919-3.49,16.2-5.052,24.2-4.172,21.473-8.482,43.688-18.745,62.472-10.974,20.049-34.612,34.187-55.482,46.654C429.448,538.034,410.17,544.51,391.524,550.768ZM295.151,252.061l-20.465,3.075,1-3.431c5.358-18.369,6.436-19.031,28.769-18.181l3.707.138-9.086,16.4,16.382,16.352-17.44,10.954c-1.829,1.661-3.589,3.48-5.329,5.289-4.152,4.271-8.443,8.69-13.752,11.3-8.127,3.984-16.955,6.812-26.3,9.807-4.231,1.364-8.66,2.778-13.3,4.39l-3.035,1.048V254.493l6.347-1.611.979,2.2,5.675,26.594c7.415,2.294,13.515-1.641,20-5.8,7.484-4.824,15.887-10.232,25.942-3.915Zm64.014,17.43c3.945,2.758,6.466,7.425,7.692,14.3h15.719l-3.618,10.875L364.03,286.9l-49.748-15.3,13.208-2.472C341.182,266.534,352,264.468,359.166,269.49ZM331.2,233.534l10.717,1.058L335.6,243.9Zm11.874-24.261,7.741-1.661,3.549,5.784-4.1.791a11.332,11.332,0,0,1-2.571.376l-.336-.01c-1.651-.089-2.294-1.532-2.669-2.392Zm15.482,158.4-2.6.544c-.989.2-1.948.455-2.9.7a26.291,26.291,0,0,1-6.6,1.147,9.74,9.74,0,0,1-1.305-.079c-2.313-.247-3.035-2.8-3.866-5.764-.247-.85-.484-1.72-.741-2.412l-.821-2.145,13.92-5.19ZM269.5,346.614c-10.4.6-23.391,1.3-24.8-23.273l-.316-5.546,26.634,23.984,29.837-45.418,1.75,3.608c6.09,12.447.989,23.47-3.52,33.189-4.657,10.045-8.68,18.735-1.75,28.245l.01.01,18.774-4.31-2.976,20.86-16.866-12.912-.83-.02c-1.73-.049-3.579.04-5.408.1-6.9.277-14.029.514-18.033-4.271-2.58-3.075-3.341-7.761-2.333-14.256Z" transform="translate(433.963 368.345)"/><path class="b" d="M93.738,101.278l.119.633L89,97.314l-14.1-7.5c3.391,13.95,10.321,23,21.493,28.068L95.665,103.6Z" transform="translate(556.973 684.307)"/><path class="b" d="M91.354,115.4c-6.3-8.759-10.934-18.794-15.314-28.631l6.337,34.592,2.877,2.818-.01-.148,3.351,3.421.534.386c1.8,1.275,3.638,2.5,5.477,3.737a121.555,121.555,0,0,1,11.626,8.492c48.443,41.721,97.727,46.327,150.332,13.92A115.377,115.377,0,0,0,239.59,158.3C185.4,177.5,123.069,159.477,91.354,115.4Z" transform="translate(560.539 657.077)"/><path class="b" d="M81.231,72.63l2.588-2.458-3.445,6.89L109.351,65.33,86.54,64.045Z" transform="translate(601.416 474.255)"/><path class="b" d="M124.915,92.946l-3.463-16.607-24.675,12,.035.089L104,107.68Z" transform="translate(735.44 574.156)"/><path class="b" d="M163.34,117.419l-9.115,8.72-2.916-9.006-19.229,2.679,15.947,19.3-1.167,1.443c-31.834,39.852-54.81,89.314-70.233,151.2-2.106,8.443-7.168,16.1-12.052,23.49-1.651,2.491-3.342,5.052-4.9,7.613.158,1.127.356,2.244.564,3.371a33.35,33.35,0,0,1,.811,9.313C53.977,405.182,59.4,461.069,78.1,511.421c1.315,3.559,2.4,7.345,3.45,11.023,3.925,13.732,7.652,26.753,23.5,30.371l-1.671-5.684c-2.155-7.405-4.32-14.81-6.634-22.165Q89.82,502.913,82.836,480.9q-9.061-28.592-18.043-57.222a19.162,19.162,0,0,1-.554-9.748c5.536-23.312,8.572-47.623,11.508-71.152,4.825-38.626,9.817-78.557,25.962-115.275,11.5-26.14,25.962-52.18,53.693-65.606,6.268-3.035,11.1-6.911,11.261-9.016,1.967-25.675,19.338-37.44,36.145-48.819,7.879-5.339,16.036-10.855,22.225-17.706,4.676-5.171,11.8-7.909,15.63-9.076,37.025-11.28,73.09-4.647,100.653,2.64l14.948-18.665L358,63.795C384.43,102.184,418.992,110.34,466.5,89.282,406.091,62.559,348.74,49.272,291.32,48.659l-4.6-.049L287.5,47.6l-1.967.01-128,67.494Z" transform="translate(406.996 325.616)"/><path class="b" d="M118.181,72.548c19.634,20.9,36.174,44.607,52.161,67.534,10.124,14.513,20.6,29.531,31.715,43.629,8.225,10.42,7.761,22.323-1.3,34.543,8.72,4.8,8.285,13.2,7.9,20.7-.218,4.261-.425,8.285.919,11.547,6.11,14.681,10.925,26.268,28.147,28.621-6.258-46.555-16.718-100.07-45.3-147.179-24-39.565-54.731-66.288-91.439-79.526l.5.623C106.832,59.577,112.348,66.329,118.181,72.548Z" transform="translate(764.691 373.787)"/><path class="b" d="M209.883,148.215c-15.294-35.769-44.123-64.172-79.111-77.954-8.364-3.292-17.331-4.914-26.832-6.634-3.589-.652-7.2-1.3-10.816-2.056-.662,20.307,5.971,30.5,21.9,33.9,21.078,4.508,38.063,18.092,50.509,40.376,11.172,20.04,21,41.216,30.519,61.681,3.7,7.978,7.415,15.937,11.211,23.866l1.483-1.226-.771,2.739c.178.376.346.751.524,1.117l5.23,10.895-3.094-2.877,3.994,11.063C225.039,213.317,223.408,179.871,209.883,148.215Zm-18.112,10.272L188.9,143.618l7.978.682Z" transform="translate(700.908 449.094)"/><path class="b" d="M91.356,108.771l.158-.217,1.878.069c4.755,1.572,9.669,3.668,14.424,5.694,11.2,4.795,22.768,9.728,31.874,7.435,5.082-1.3,10.806-1.592,16.866-1.9,17.054-.88,33.189-1.7,36.392-23.708-3.737.445-7.474.929-11.221,1.4-31.478,4.044-64,8.235-94.01-8.552-3.6,4.993-7.444,11.3-5.932,14.958C82.735,106.23,85.948,107.841,91.356,108.771Z" transform="translate(607.128 677.466)"/><path class="b" d="M102.667,165.294l3.361,6.832c1.256-.277,3.371-.87,5.438-1.434,1.532-.435,3.272-.91,5.171-1.424C87.195,145.877,84.674,114.795,86.117,79.6c-11.953,13.8-10.223,24.844-7.168,33.109C85.593,130.662,94.274,148.26,102.667,165.294Z" transform="translate(571.128 598.534)"/><path class="b" d="M93.657,131.945c.386.03.781.069,1.177.089,5.1.405,10.351.791,12.832-1.206,15.591-12.625,25.062-28.235,28.255-46.506Z" transform="translate(709.372 638.722)"/><path class="b" d="M98.659,116.361c-2.017,2.679-2.284,7.039-2.561,11.666l-.01.188c18.161-10.826,26.881-23.362,27.623-39.8q-1.958,2.046-3.925,4.093C112.51,100.088,105,107.938,98.659,116.361Z" transform="translate(729.84 672.423)"/><path class="b" d="M104.214,97.013l5.131-18.092C103.156,84.448,102.326,87.374,104.214,97.013Z" transform="translate(789.87 595.703)"/><path class="b" d="M99.342,116.883,111.8,96.643l-10.709-4.89Z" transform="translate(757.069 700.297)"/><path class="b" d="M91.793,66.546l.768-.054L92.48,66.2Z" transform="translate(695.794 492.211)"/><path class="b" d="M85.628,66.457h0Z" transform="translate(645.387 494.339)"/><path class="b" d="M88.874,66.622l.009-.174-2.312-.107Z" transform="translate(653.023 493.379)"/><path class="b" d="M83.732,98.9l1.936-.464L83.821,97.7Z" transform="translate(629.805 749.951)"/><path class="b" d="M100.177,84.737l0,0,0,0Z" transform="translate(764.419 643.867)"/><path class="b" d="M133.8,142.776l-.336.227c.039.415-.03.83-.02,1.246h.939Z" transform="translate(1014.375 1105.427)"/><path class="b" d="M70.251,152.159a21.6,21.6,0,0,0-6.634,1.859l4.647,3.579,4.577-3.352A9.6,9.6,0,0,0,70.251,152.159Z" transform="translate(465.059 1188.808)"/><path class="b" d="M30.293,132.671l1.631,3.8,6.466-2.689A11.756,11.756,0,0,0,34.2,130.99c-.534-.079-2.393.86-3.381,1.394C30.649,132.483,30.471,132.582,30.293,132.671Z" transform="translate(209.76 1000.652)"/><path class="b" d="M157.1,70.462a13.7,13.7,0,0,0-.732-1.839c-.178.059-.366.128-.554.2Z" transform="translate(1213.146 512.009)"/><path class="b" d="M154.9,60.2a14.4,14.4,0,0,0-1.849.722c.059.178.138.376.2.564Z" transform="translate(1188.549 443.131)"/><path class="b" d="M151.4,55.956l1.641-1.275a12.942,12.942,0,0,0-1.839.722C151.262,55.581,151.341,55.769,151.4,55.956Z" transform="translate(1172.154 397.963)"/><path class="b" d="M154.91,113.588l-.794.312.794.643Z" transform="translate(1198.039 879.907)"/><path class="b" d="M143.836,136.619v-.946l-.794.312Z" transform="translate(1099.633 1042.311)"/><path class="b" d="M46,143.368l1.3,1.651a15.474,15.474,0,0,0-.732-1.859Z" transform="translate(321.146 1108.839)"/><path class="b" d="M46.8,144.424c.623.5,1.236.989,1.869,1.414l.069-.079-1.473-1.8Z" transform="translate(327.712 1115.94)"/><path class="b" d="M48.692,145.905l-.089-.069-1.8,1.453.475.475C47.783,147.131,48.257,146.518,48.692,145.905Z" transform="translate(327.704 1132.619)"/><path class="b" d="M55.072,147.675l-1.809,1.463.475.475c.5-.623.989-1.236,1.414-1.859Z" transform="translate(380.545 1148.961)"/><path class="b" d="M46.8,149.035c.623.494,1.236.979,1.869,1.4l.069-.079-1.473-1.8Z" transform="translate(327.712 1156.826)"/><path class="b" d="M60.765,153.49l1.3,1.651a13.223,13.223,0,0,0-.722-1.859Z" transform="translate(441.932 1198.787)"/><path class="b" d="M46.019,19.725l-.794.317.794.643Z" transform="translate(314.801 122.103)"/><path class="b" d="M31.391,123.389l-1.312-1.3v1.3Z" transform="translate(207.859 949.417)"/><path class="b" d="M39.307,132.209v1.3h1.307Z" transform="translate(266.385 1011.524)"/><rect class="b" width="1.085" height="0.034" transform="translate(441.255 145.281)"/><path class="b" d="M300,635.907c-2.046,10.282-5.171,15.67-9.768,16.916-6.683,1.849-13.248-5.754-19.624-13.08a160.342,160.342,0,0,1-11.29-15.274c-5.635-8.285-10.954-16.125-18.161-21.671-5.744-4.4-9.451-10.46-13.04-16.312-5.151-8.413-10.025-16.362-20.445-18.774l-3.065-.7,1.621-2.7a25.9,25.9,0,0,0,1.177-2.343c1.018-2.185,2.165-4.657,4.39-5.813A14.826,14.826,0,0,1,216.732,555a12.048,12.048,0,0,0,3.005-.583,21.7,21.7,0,0,0-2.195-3.579q-25-33.574-50.312-66.911L150.236,461.4c-1.127,1.256-2.313,2.65-3.49,4.044-5.833,6.9-9.333,10.727-12.744,9.53-5.9-2.086-9.689-5.536-11.251-10.292-2.185-6.654.2-15.265,7.079-25.606-1.948-18.507-23.48-77.41-35.146-92.22-.751-.939-1.513-1.869-2.264-2.778-4.963-6.05-10.094-12.279-8.453-22.343.01-.7-1.78-2.729-2.748-3.816l-.02-.02a14.54,14.54,0,0,0-1.394,3.885c-.959,6.149-1.691,12.328-2.432,18.517l-1.651,13.5-3.4-5.2c-1.542-2.343-3.253-4.637-4.963-6.931-3.866-5.18-7.85-10.529-9.965-16.619-3.085-8.819-4.518-18.132-5.9-27.138-2.056-13.4-4.182-27.247-11.824-39.427-3.747-5.971,4.439-19.3,6.12-21.908,3.638-5.655,7.089-8.117,10.371-7.286,3.243.84,5.042,4.647,5.507,11.626.069,1.028,1.068,2.4,2.056,3.727A13.312,13.312,0,0,0,65.807,242c-1.246-4.508-2.887-9.441-4.479-14.207-1.463-4.4-2.976-8.947-4.212-13.535-.89-3.3,1.364-6.851,3.549-10.272,1.5-2.373,3.559-5.6,2.907-6.822-.267-.494-1.8-2.106-10.351-2.224l-3.747-.049,1.77-3.3c.386-.741.732-1.542,1.068-2.353.919-2.136,1.869-4.36,3.747-5.892a23.52,23.52,0,0,1,5.022-3.035,20.81,20.81,0,0,1-6.5-2.916c-2.037-1.5-2.135-4.38-2.224-7.158a24.137,24.137,0,0,0-.2-2.907c-.455-2.748-.979-5.487-1.513-8.235a140.032,140.032,0,0,1-2.669-18.082,115,115,0,0,1,.306-13.94c.484-7.771.939-15.106-1.186-21.572-2.224-6.752-7.514-12.556-13.109-18.7-1.839-2.017-3.727-4.093-5.5-6.2-1.819,2.076-3.7,4.123-5.576,6.169C17.126,93.086,11.145,99.62,7.082,106.907c-2.185,3.905-.573,10.924.85,17.123l.662,2.926a42.141,42.141,0,0,0,3.144,8.324c1.72,3.717,3.49,7.573,3.786,11.715.178,2.61.168,5.289.158,7.949-.049,11.775-.1,21.078,15.9,22.7l2.254.227-.208,2.254c-.336,3.7,1.987,7.553,4.439,11.656,4.765,7.929,10.7,17.806-4.469,28.384-3.48,2.442-5.744,10.43-6.2,21.938-.227,5.714-1.048,11.557-1.839,17.2-2.65,18.883-5.151,36.728,12.259,52.062,2.946,2.6,3.282,7.178,3.609,11.617.247,3.4.514,6.93,1.908,9.066,1.592,2.412,5.022,4.538,8.334,6.594,4.5,2.778,8.749,5.4,8.9,9.3.534,14.82,6.96,20.405,20.257,26.664,8.789,4.152,14.533,7.81,15.947,13.258,1.5,5.774-2,12.032-9.906,23.045l-.524.741c-1.948,2.7-7.118,9.877-6.268,11.795,2.462,5.526,4.726,11.211,6.98,16.9,8.6,21.641,17.489,44.024,38.794,57.707a17.839,17.839,0,0,0,2.63-1.305,17.659,17.659,0,0,1,5.675-2.323c15.67-2.175,31.053,6.861,36.283,16.421,3.164,5.774,2.788,11.458-1.078,16.026-12.131,14.326-6.466,25.171-.484,36.668,3.45,6.6,7.009,13.426,7.069,20.939a26.542,26.542,0,0,0,8.5,3.737c6.327-6.219,11.933-6.584,15.522-5.754,6.7,1.532,11.043,7.87,12.734,12.833,4.864,14.4,16.738,22.294,29.313,30.648,14.049,9.343,28.572,19,32.15,38.379a4.432,4.432,0,0,0,.791.366c15.749-10.727,30.757-6.3,42.452-.583.366-.583.761-1.176,1.157-1.779,1.078-1.631,2.867-4.35,2.6-5.26-2.837-9.343-6.3-16.441-10.588-21.691C309.279,634.573,302.427,635.156,300,635.907Zm-278.3-521.24c.544-.277,1.088-.573,1.631-.88a19.084,19.084,0,0,1,5-2.155c1.859-.405,3.164,1.127,4.271,2.481.287.356.573.7.84.979l2.254,2.234-2.837,1.424c-.534.267-1.068.564-1.592.86a19.131,19.131,0,0,1-5.052,2.175,2.883,2.883,0,0,1-.633.069c-1.552,0-2.659-1.345-3.638-2.551-.287-.356-.573-.7-.84-.979l-2.264-2.244Zm7.286,44.5L18.935,153.64l2.165-2.155c.267-.277.554-.623.84-.979,1.117-1.364,2.392-2.847,4.271-2.482a19.086,19.086,0,0,1,5,2.155c.554.306,1.088.6,1.631.88l2.857,1.414ZM184.967,540.513a12.919,12.919,0,0,0-.979.86l-2.145,2.145-5.556-10.025,6.7-6.693,1.424,2.838c.267.544.573,1.078.87,1.621a19,19,0,0,1,2.165,4.993C187.874,538.141,186.332,539.406,184.967,540.513Z" transform="translate(-6.012 552.987)"/><path class="b" d="M134.75,32.4a22.18,22.18,0,0,0-1.256-2.017,16.488,16.488,0,0,0-1.77,3.559c-.573,1.453.86,6.209,1.849,8.4,8.186-.425,12.605,6.278,16.392,12.18,5.24,8.156,8.947,12.931,18.616,9.016,5.695-2.3,17,15.947,17.113,16.135,5.863,10.173,9.56,19.259,11.29,27.791.247,1.216,4.835,3.777,7.3,5.151,5.477,3.065,10.658,5.952,10.045,10.272-.5,3.618-4.884,6.268-14.919,8.888l.069.138a13.887,13.887,0,0,0,2.046,3.164c1.157.01,2.709.03,4.251.04,5.566.069,11.33.148,14.79,4.142,2.511,2.887,3.322,7.375,2.491,13.693-.652,4.993-.652,4.993,14.632,9.264l2.9.8c3.559.959,7.247,1.948,8,4.7,5.23,19.071,17.39,33.06,30.252,47.87l4.429,5.121c5.24,6.1,8.9,10.756,11.577,14.157,6.752,8.591,7.187,9.273,13.2,9.224.306-.01.6-.01.9-.01,11.587,0,20.574,2.946,29.016,9.511a67.839,67.839,0,0,0,6.3-2.827c1.453-.712,3.015-1.453,4.627-2.165-2.837-4.212-5.447-8.186-7.919-11.972-5.961-9.1-11.1-16.955-17.014-24.2-8.384-10.272-17.232-20.465-25.793-30.322-9.491-10.934-19.3-22.234-28.532-33.7-.168-.208-16.332-21.236-11.419-26.99,2.679-3.154,3.846-5.764,3.45-7.771-.366-1.888-2.155-3.6-5.645-5.4-13.525-7.009-22-18.557-30.173-29.718-4.914-6.693-9.985-13.614-16.026-19.3l-.771-.722.04-1.058c.544-11.537-6.476-13.8-17.954-16.54-8.957-2.126-18.982-4.518-21.1-15.363-.672.6-1.364,1.206-2.037,1.809-4.518,3.984-9.194,8.1-14.464,11.241-2.472,1.463-5.6.564-8.6-.316A21.177,21.177,0,0,0,140.2,37.26C137.558,37.2,136.065,34.64,134.75,32.4ZM246.842,140.089c.554-.267,1.1-.573,1.641-.87a19.153,19.153,0,0,1,5.012-2.155c1.908-.445,3.144,1.117,4.251,2.472a11,11,0,0,0,.84.979l2.175,2.155L250.7,148.215l-6.713-6.7Z" transform="translate(997.898 173.73)"/><path class="b" d="M35.524,255.085c3.5,2.531,5.586,4.459,5.952,6.742.326,2.1-.821,3.658-2.145,5.457-.475.643-1.018,1.374-1.572,2.244-1.681,2.62-2.056,6.307-2.452,10.2-.069.643-.129,1.275-.2,1.908,1.058-.267,2.155-.5,3.223-.751,3.51-.811,8.819-2.017,9.422-3.569,5.932-15.156,8.888-27.919,9.036-39.031.178-12.882,4.666-18.626,17.113-21.73.563-1.572.722-6.723.069-11.32H69.385l2.6-2.066a20.41,20.41,0,0,1-4.1-4.2l-2.066-2.659,3.223-.939c.554-.168,1.226-.415,1.9-.662,2.65-.989,4.755-1.77,6.08-.04a11.873,11.873,0,0,1,1.542,2.788,97.528,97.528,0,0,0,10.766-12.744l.277.2.563-1.345L93.36,179.1c7.009-9.886,14.227-20.079,25.655-26.416-3.114-2.481-4.716-5.082-4.864-7.909-.277-5.141,4.38-9.343,8.967-12.773,3.945-2.956,7.929-5.863,11.9-8.779l4.726-3.46a44.757,44.757,0,0,0,.386-7.039c.02-7.968.03-16.214,14.108-24.241,17.578-10.035,33.742-31.083,31.192-55.967l-39.15,2.65c.613,2.383,1.275,4.775,1.928,7.168,1.987,7.207,4.034,14.662,4.765,22.215.643,6.693-.148,10.153-2.64,11.577-3.1,1.8-6.752-.87-10.282-3.44a25.028,25.028,0,0,0-4.37-2.768c0,.178-.049.5-.089.989-.672,10.173-7.741,15.334-13.989,19.882-5.408,3.955-10.529,7.682-11.705,14.276-.672,3.707-7.158,5.784-10.964,6.693-9.511,2.254-14.948,3.549-16.115,5.527-.969,1.641.059,5.348,1.78,11.488l.376,1.374c.069.247,5.7,24.518.178,26.14-9.807,2.907-14.8,8.255-16.708,17.894l-.87,4.409-3.045-3.292c-.633-.682-1.354-1.325-2.076-1.977-1.908-1.71-3.875-3.48-4.7-5.952a70.716,70.716,0,0,1-2.392-11.241,58.717,58.717,0,0,0-5.952,10.242c-5.853,14.325-12.486,30.559-23.767,45.21-6.5,8.443-9.115,15.215-8.235,21.315C18.421,239.88,24.017,246.731,35.524,255.085Zm9.965-46.792,2.145,2.135c.277.267.633.554.989.84,1.364,1.107,2.907,2.373,2.491,4.261a19.086,19.086,0,0,1-2.185,5.042c-.3.524-.593,1.058-.86,1.6l-1.414,2.808-6.7-6.673Z" transform="translate(93.831 212.945)"/><path class="b" d="M27.108,51.841c-.04-.267-.049-.544-.1-.811a19.549,19.549,0,0,1-1.888-1.256l-2.6,2.066Z" transform="translate(140.695 357.811)"/><path class="b" d="M161.365,102.431l.109.455,2.906-1.1c-.02-1.364-.049-2.778-.059-4.261C163.263,99.218,162.284,100.859,161.365,102.431Z" transform="translate(1262.457 748.321)"/><path class="b" d="M220.383,129.264c8.265-.742,9.234-5.546,10.46-11.646.791-3.915,1.671-8.275,4.953-11.152l-18.23-23.885-5.24,20.059a77.062,77.062,0,0,0-1.453,8.087c-.326,2.234-.653,4.508-1.107,6.634l1.621-1.6a12.913,12.913,0,0,0,.85-.979c1.107-1.354,2.323-2.867,4.241-2.481h.02a19.316,19.316,0,0,1,5.012,2.165c.534.306,1.078.593,1.621.87l2.847,1.414-6.7,6.7-9.669-5.329c-.949,4.123-2.4,7.682-5.269,9.55-5.586,3.618-12.912,4.152-20,4.666a89.759,89.759,0,0,0-10.262,1.127c-.623.119-1.691,1.394-2.5,2.343,4.152,2.887,6.565,5.971,7.365,9.392,1.325,5.635-2.007,10.786-5.23,15.759-2.966,4.587-5.784,8.918-4.834,13.149,1.987,8.967,5.329,23.955-7.81,35.433-1.78,1.562-1.236,3.154,1.572,7.81,3.183,5.279,8.008,13.268-2.709,20.831-1.691,1.2-2.61,2.353-2.808,3.52-.366,2.165,1.661,4.983,3.806,7.969,4.034,5.635,9.55,13.356,1.849,22.432-3.668,4.32-4.953,8.413-3.806,12.15,1.552,5.072,7.563,9.412,16.471,11.9l1.255.356.761,1.592c.5,1.829-.89,3.272-2.808,5.279-1.117,1.167-4.083,4.261-3.707,5.329.03.059.633,1.532,7.049,2.254,9.5.959,16.569-2.422,19.872-9.778.208-1.147-2.9-5.25-4.558-7.454a57.862,57.862,0,0,1-4.32-6.238l-1.216-2.076c-1.928-3.243-3.915-6.6-4.182-10.292-.741-10.312-.415-20.495,11.033-40.613a50.48,50.48,0,0,1-1.819-12.2c.04-2.748,2.1-4.943,4.073-7.059a26.49,26.49,0,0,0,2.017-2.3l2.847-3.826,1.206,4.666c1.908-35.433,1-39.951-.02-41.256l-2.1-2.65,3.243-.949c.554-.158,1.226-.415,1.9-.662,2.649-1.008,4.765-1.78,6.1-.03a17.514,17.514,0,0,1,2.481,5.625c.168.564.336,1.127.524,1.671,2.748-6.13,7.286-12.061,14.256-17.677a6.432,6.432,0,0,0-.306-2.135c-.88-2.442-1.849-4.834-2.837-7.237a19.405,19.405,0,0,1-2.521,5.9c-1.414,2.106-4.459,1.819-7.682,1.513a20.63,20.63,0,0,0-2.976-.2l-3.163.03.969-3.015c.643-1.987.267-4.864-.118-7.652-.593-4.35-1.206-8.838,1.443-12.15C213.838,130.8,216.527,129.6,220.383,129.264ZM180.442,244.055l-1.424-2.828c-.267-.544-.573-1.078-.86-1.6a19.158,19.158,0,0,1-2.185-5.032c-.405-1.908,1.147-3.173,2.511-4.281a12.371,12.371,0,0,0,.969-.84l2.145-2.116,5.556,10Zm8.028-84.212-6.723-6.693,2.857-1.424c.544-.277,1.088-.564,1.631-.87a18.823,18.823,0,0,1,5.012-2.155c1.908-.376,3.154,1.117,4.261,2.472.3.356.583.712.85.979l2.175,2.155Z" transform="translate(1224.349 616.821)"/><path class="b" d="M162.711,95.684c.277-1.127.613-2.254,1-3.371h-.1A23.544,23.544,0,0,0,162.711,95.684Z" transform="translate(1274.418 705.753)"/><path class="b" d="M166.99,93.15c-1.246,7.365-2.867,19.259-4.834,35.6l-.01.148c-.02,2.155-.02,4.33-.02,6.446l2.046,7.731-1.9.722c.455,14.958,1.987,21.038,2.966,23.441.87-2.224,1.839-4.5,2.818-6.812,4-9.372,8.136-19.051,5.942-26.07C169.679,120.585,165.28,106.536,166.99,93.15Z" transform="translate(1269.22 709.621)"/><path class="b" d="M68.85,83.43c2.3-.662,4.686.613,6.772,1.73a21.125,21.125,0,0,0,2.234,1.1l2.323.91-2.046,4.172A44.807,44.807,0,0,1,75.8,95.827c-6.8,11.023-17.123,10.578-26.248,10.163l-1.414-.059c2.056,1.888,4.063,3.559,6.229,4.291a18,18,0,0,0,5.171.514c4.419.049,10.915.119,12.042,8.463,1.523-.573,3.539-2.254,6.93-7.128,2.669-5.892,3.836-8.206,5.4-8.522l8.3-13.742-3.085,9.639c2.669-2.106,4.864-3.005,6.673-2.63a4.02,4.02,0,0,1,3,3c.781,2.877,1.068,8.3-1.5,10.677a122.8,122.8,0,0,1-12.585,9.748L82.236,122A47.781,47.781,0,0,0,81,128.146c15.729-2.739,31.478-6.238,39.565-22.047a13.676,13.676,0,0,1-6.051-.583,20.666,20.666,0,0,1-6.209-4.36c-.722-.653-1.443-1.3-2.185-1.9l-3.134-2.481,3.727-1.443c.761-.287,1.513-.613,2.264-.949a25.751,25.751,0,0,1,5.912-2.027,32.9,32.9,0,0,1,6.673-.218l.356.02v-.494l.86.188c.554-1.345,1.2-2.748,1.859-4.162,1.137-2.412,3.5-7.454,2.887-8.522-4.063-5.971-5.18-9.59-3.747-12.091,1.641-2.857,5.438-2.57,9.135-2.3,1.532.109,4.726.336,5.289-.208,1.137-3.549,3.49-6.555,5.774-9.451,2.155-2.739,4.182-5.309,5.052-8.117,1.236-3.945,2.57-6.733,5.052-7.553,2.57-.84,4.894.84,7.82,2.986l1.374,1.008c7.85,5.625,16.372,10.667,24.627,15.541,2.63,1.562,5.26,3.114,7.87,4.7.336-3.885-2.056-8.008-4.558-12.328-4.824-8.3-10.816-18.646,4.32-28.769.475-.9-.227-5.724-.643-8.6-.158-1.028-.307-2.056-.435-3.045-.623.346-1.256.682-1.888,1.038-3.628,2-7.4,4.073-11.29,5.784-3.609,1.572-7.385,2.926-11.033,4.231-7.009,2.5-13.614,4.864-19.259,8.73-6.189,4.241-11.379,9.807-16.866,15.69-2.9,3.1-5.8,6.219-8.858,9.125a12.435,12.435,0,0,1-7.6,2.57l-1.068-.129-.91-1.038c-1.631-2.541-3.174-3.955-4.449-4.1-1.789-.208-3.925,1.938-6.05,4-3.381,3.282-7.949,7.731-13.762,4.825-.89.8-2.4,2.521-3.668,3.955-4.3,4.884-9.659,10.964-14.83,12.042-2.165.455-4.34.781-6.476,1.088-7.84,1.167-14.612,2.165-19.19,9.3A15.418,15.418,0,0,0,45.923,90.8c.88-.306,1.77-.613,2.659-.919C55.177,87.622,61.988,85.279,68.85,83.43Zm34.256-8.651,6.723,6.7L106.981,82.9c-.554.277-1.1.573-1.641.87a18.845,18.845,0,0,1-5.012,2.165,3.4,3.4,0,0,1-.623.059c-1.552,0-2.65-1.345-3.638-2.541a12.9,12.9,0,0,0-.84-.979l-2.165-2.145Z" transform="translate(317.567 43.971)"/><path class="b" d="M127.687,28.517c-2.462.7-4.746,2.857-7.168,5.141-.573.544-1.157,1.087-1.74,1.621l6.574,6.555c9.748-1.1,16.767,3.391,24.271,8.858.919.682,4.914-.87,7.553-1.9,4.043-1.592,8.68-3.371,12.477-2.62,27.662,5.438,28.591,6.812,46.644,39.783l.919-.91.544,2.946,23.085,7.662V88.29l1.3-.623c2.531-1.206,5.438-.662,8-.168,2.234.415,4.36.811,5.487.01,1.078-.771,1.552-2.778,1.76-4.33-.287-1.958-8.512-31.854-9.985-35.917-3.193-2.818-6.327-5.744-9.461-8.68-7.316-6.831-14.869-13.9-23.184-19.367-4.874-3.223-10.193-1-16.332,1.552-7.227,3-15.324,6.357-23.322.208-8.285,15.4-20.386,12.14-31.1,9.254C138.107,28.636,132.531,27.123,127.687,28.517ZM235.992,52.561c.346-.287.7-.573.969-.84l2.145-2.126L244.652,59.6l-6.7,6.673-1.424-2.808c-.267-.544-.563-1.078-.86-1.6a19.34,19.34,0,0,1-2.185-5.032C233.075,54.924,234.628,53.668,235.992,52.561Zm-10.9,20.494c.554-.168,1.226-.415,1.9-.662,2.65-.979,4.745-1.78,6.09-.04a17.17,17.17,0,0,1,2.472,5.586c.2.652.4,1.3.613,1.918l.366,1.028a51.789,51.789,0,0,1,5.536,4.6l.336.326-3.154,3.3a45.121,45.121,0,0,0-8.433-6.515,20.652,20.652,0,0,1-2.293-1.374l-4.8-2.877H225.3c-.5-.573-.939-1.137-1.374-1.681l-2.066-2.65Z" transform="translate(908.935 103.323)"/><path class="b" d="M46.211,105.15a153.744,153.744,0,0,1,14.77-11.073l3.164-2.037c6.525-4.251,13.287-8.651,20.514-9.155,13.416-.929,30.183-3.757,40.771-17.568,8.225-10.717,18.211-10.48,27.87-10.282,1.819.04,3.638.079,5.477.04l16.55-24.756-6.387-6.367c-1.157.87-2.294,1.77-3.44,2.669a73.855,73.855,0,0,1-12.348,8.443c-1.938.969-3.964,1.76-5.991,2.541-3.935,1.513-7.652,2.946-10.49,5.764l-.148,1.839-1.661-.4a30.178,30.178,0,0,1-16.649,4.656c-2.027-.129-2.63-1.977-3.312-5.3-.168-.771-.326-1.532-.475-2.126l-.613-2.353,2.383-.465c1.1-.217,2.185-.475,3.292-.722a48.08,48.08,0,0,1,8.838-1.443,6.5,6.5,0,0,1,3.707,1.532l.336.237c.168-6.97-1.157-11.715-3.974-14.128s-7.365-2.837-13.94-1.285c-3.974.939-7.711,3.144-11.656,5.487-1.849,1.1-3.707,2.195-5.6,3.154L94.13,33.641l-.247-3.44c-.287-4.053-1.76-6.762-4.142-7.622a4.994,4.994,0,0,0-1.72-.3,7.5,7.5,0,0,0-5.25,2.422c-5.6,5.823-10.578,12.575-15.4,19.091-6.288,8.512-12.793,17.311-20.811,24.33C30.373,82.282,32.726,94.66,41.94,108.61,43.374,107.463,44.787,106.306,46.211,105.15ZM70.423,57.922c.306-.544.6-1.068.83-1.522,2.244-4.5,4.538-8.987,6.831-13.455l3.905-7.652L84.2,37.517A22.311,22.311,0,0,1,85.7,39.2a7.99,7.99,0,0,0,2.274,2.165c11.439,4.834,16.1,6.792,16.837,10.806.741,3.905-2.788,7.326-10.509,14.81-1.819,1.77-3.717,3.609-5.863,3.609a3.745,3.745,0,0,1-1.394-.267c-1.9-.722-3.1-2.739-3.856-6.772-2.837,3.539-5.368,5.21-7.889,5.289-3.164.217-5.438-2.768-6.317-4C67.615,62.925,68.979,60.493,70.423,57.922Z" transform="translate(226.764 144.823)"/><path class="b" d="M130.343,37.256c2.462-1.157,4.439-.761,5.546.138l1.463,1.206-.761,1.977a28.851,28.851,0,0,1-3.233,4.508l-2.6,3.292-1.374-1.364c-.741,2.343-1.345,4.825-.821,5.615,5.062,7.593,26.505,16.342,43.292,17.677,6.96.534,12.081-.336,14.009-2.422,3.1-3.361,4.024-9.076,4.993-15.136.247-1.572.514-3.183.811-4.765a10.263,10.263,0,0,1-6.634-1.018c-3.747-2.126-4.765-6.565-5.675-10.489-1.068-4.577-1.8-6.772-3.974-7.039-6.822-.87-14.612.564-19.328,3.539-4.024,2.541-6.841,4.123-9.481,3.035-2.62-1.1-3.569-4.459-4.449-8.413-.85-3.806-3.668-8.087-8.631-13.09-3.144-3.174-5.991-4.558-8.156-4.034-2.363.643-4.37,3.836-5.665,8.977a12.756,12.756,0,0,0-.089,3.826,16.183,16.183,0,0,1-.168,5.151,19.394,19.394,0,0,1-2.857,5.912c-.435.692-.87,1.394-1.266,2.106l-1.869,3.411a71.8,71.8,0,0,0,11.666-.791C126.892,37.612,128.583,36.238,130.343,37.256Z" transform="translate(868.867 38.933)"/><path class="b" d="M109.052,25.51c.672.524,1.374,1.117,2.106,1.73,2.017,1.7,5.388,4.419,6.772,4.251a75.419,75.419,0,0,1,14.632-1.354c10.915,0,21.582,2,32.012,3.955,10.41,1.957,21.058,3.955,32.052,4.024l-1.7-3.529c-.534-1.088-1.018-2.224-1.483-3.361a27.349,27.349,0,0,0-3.47-6.574,26.894,26.894,0,0,0-5.635-4.765q-.593-.415-1.157-.83L176,27.932l-3.876-9.7-1.147.059a25.816,25.816,0,0,1-6.634-.237c-2.5-.514-4.993-2.037-7.395-3.5-2.738-1.661-5.853-3.539-7.4-2.768-.939.465-2.659,2.432-3.529,10.381-.336,3.055-2.63,5.279-5.991,5.813-4.706.761-11.191-2.037-14.256-8.868-1.176-2.6-3.282-4.894-5.507-7.316-.386-.415-.761-.83-1.137-1.236-.148.257-.307.5-.475.761-1.839,3-3.737,6.1-6.7,6.456-7.267.88-7.919,2.195-7.949,2.254C104.01,20.033,103.882,21.467,109.052,25.51Z" transform="translate(791.46 40.674)"/><path class="b" d="M163.7,51.12c-1.2-.217-2.966,1.2-4.913,2.669l-1.859,1.384c-9.155,6.584-6.189,10.747-1.7,17.034a28.675,28.675,0,0,1,4.488,8.038l.554-.2v2.343c12.408,13.455,18.349,30.608,18.24,52.24h.01v.682c-.01.633.03,1.226.02,1.869,1.75,2.462,3.579,4.884,5.418,7.306,4.429,5.863,9.026,11.933,12.289,18.626C203.5,178.031,210.865,187.73,225.18,190c3.638.573,8.562.109,10.48-1.681,1.6-1.473,2.333-6.663,1.315-9.264a154.019,154.019,0,0,0-6.624-13.979c-3.391-6.594-6.9-13.416-8.9-20.663-6.515-23.658-20.939-43.055-34.889-61.81-6.772-9.125-13.782-18.547-19.842-28.384C165.575,52.366,164.508,51.268,163.7,51.12Zm20.633,61.968c.544-.277,1.087-.573,1.621-.87a19.043,19.043,0,0,1,5.042-2.165c1.918-.445,3.144,1.117,4.241,2.472.3.356.583.712.85.979l2.264,2.244-2.847,1.424c-.544.267-1.068.564-1.6.86a19.194,19.194,0,0,1-5.062,2.175,3.325,3.325,0,0,1-.613.069c-1.552,0-2.65-1.345-3.638-2.551-.287-.346-.573-.7-.85-.979l-2.254-2.244Z" transform="translate(1169.882 365.488)"/><path class="b" d="M219.567,124.787c-1.671-3.836-4.2-9.639-5.5-9.965l-.138-.02c-1.028,0-3.876,2.2-6.634,4.34l-2.066,1.582c-13.574,10.391-13.8,24.34-9.877,33.129,5.4,12.071-1.285,20.643-7.178,28.206-5.8,7.444-10.816,13.88-5.269,23.055l.554.92-.366,1.176a9.359,9.359,0,0,1-4.439,4.231l-2.066.781a46.231,46.231,0,0,1-11.27,3.174c-6.96.732-12.348,3.8-15.176,8.651-2.432,4.152-2.689,9.283-.781,14.6a21.331,21.331,0,0,0,4.053-1.177c.178-.91.326-1.859.474-2.788.672-4.34,1.3-8.433,4.568-9.333,2.669-.732,5.606,1.177,9.867,6.357,3.332,4.044,5.606,2.857,10.42-.257,4.686-3.055,11.112-7.187,18.814-.445l.237.2c.158-1.186.188-3.035.208-4.409.049-3.668.118-7.484,1.562-9.956,3.342-5.714,6.278-10.3,9.224-14.464,7.543-10.618,7.83-22.907,8.136-35.917.287-12.269.583-24.943,7.375-36.313l-.069-.069C222.6,128.762,220.585,127.12,219.567,124.787Z" transform="translate(1144.61 883.169)"/><path class="b" d="M229.005,169.355a8.477,8.477,0,0,0-2.818-.227c-.741,6.555-2.709,10.964-6,13.574-4.983,3.974-11.705,2.9-18.191,1.859-4.32-.682-8.4-1.345-11.527-.465-5.576,1.532-11.409.929-17.034.356-9.007-.949-17.519-1.839-24.538,5.952l-1.977,2.185-1.631-2.462c-.7-1.078-1.364-2.215-2.017-3.351-1.453-2.511-2.818-4.884-4.686-6.446-.662-.554-2.837-.484-4.39-.425-.227,0-.465.01-.712.02.04.573.059,1.147.1,1.72.208,3.352.415,6.832-.534,10.134-1.078,3.757-4.637,9.629-8.848,10.282-4.2.672-11.557-2.4-13.04-6.317-3.371-8.759-5.764-17.974-8.067-26.9l-1.493-5.734c-1.938-7.306-5.793-6.782-11.626-5.981a30.316,30.316,0,0,1-6.861.386c-.356,1.058-.751,2.165-1.167,3.272-.9,2.462-2.412,6.584-1.72,7.632,2.363,3.539,4.548,7.395,6.654,11.122,9.1,16.075,17.736,31.241,41.552,25.5l23.658-1.7c23.945-1.681,48.71-3.421,73.041-5.467,6.426-.544,12.1-2.758,12.645-3.935C239.524,187.813,240.711,176.454,229.005,169.355Z" transform="translate(593.88 1229.012)"/><path class="b" d="M166.3,69.838c-2.62,1.74-4.469,4.983-6.436,8.413-.158.3-.316.583-.484.87a12.8,12.8,0,0,1,5.457.613,20.686,20.686,0,0,1,6.209,4.35c.722.662,1.443,1.315,2.185,1.908l3.144,2.481-3.737,1.443c-.761.3-1.512.623-2.264.949a24.974,24.974,0,0,1-5.912,2.017,30.957,30.957,0,0,1-6.683.227l-.346-.01v.475c13.772,5.971,15.255,10.252,10.845,27.8-.119.484-.257,1.018-.336,1.4,13.08,11.458,7.553,22.462,2.679,32.18a79.323,79.323,0,0,0-3.777,8.295c-2.373,6.564-1.691,15.423,7.316,20.564,2.313,1.325,7.069,4.034,8.878,4.439a22.876,22.876,0,0,0,6.09-11.557c1.562-9.066-.751-17.034-7.731-26.674-3.539-4.874-3.124-9.1-2.145-11.775,2.135-5.873,9.254-10.727,19.545-13.327,2.442-.613,4.963-1.246,5.4-1.7a17.565,17.565,0,0,0-.346-3.183l-.168-1.176c-1.671-11.607-7.79-20.93-14.256-30.786-4.212-6.426-8.562-13.06-11.547-20.366C175.578,67.466,168.885,68.108,166.3,69.838Z" transform="translate(1227.463 500.483)"/><path class="b" d="M183.415,112.944c-2.59-1.888-5.19-3.786-7.751-5.734-.494.2-1.018.4-1.532.593-.613.247-1.453.573-2.056.83,1.384,22.155-4.271,39.635-17.271,53.307l.267.158c1.839,1.137,3.579,2.2,5.131,2.323,2.037.208,4.291-1.285,6.752-2.8,3.292-2.017,7.009-4.34,11.142-3.262,2.857.722,5.349,2.936,7.632,6.742a10.732,10.732,0,0,0,5.477-.732c4.617-2.847,14.77-31.043,12.615-35.087C197.691,123.4,190.435,118.085,183.415,112.944Z" transform="translate(1204.153 824.973)"/><path class="b" d="M78.286,177.94h-.01c-1.928-.83-3.9-1.562-5.813-2.274-6.693-2.462-13.02-4.785-15.215-10.539-1.572-4.123-.732-9.175,2.669-15.858a39.8,39.8,0,0,0-11.152-8.918c-1.621-.741-7.128.9-8.621,2.926-1.691,2.294-.267,4.924,2.2,9.016,2.155,3.6,4.617,7.672,3.44,12-.751,2.808-2.887,5.21-6.515,7.346a7.565,7.565,0,0,0,.3,2.066c.188.593.366,1.226.544,1.878.425,1.542,1.078,3.9,1.849,4.37C53.688,187.283,65.839,194.5,78.7,202.132l10.015,5.951.02-.148a59.614,59.614,0,0,1,1.147-6.871C92.858,188.944,85.493,181.035,78.286,177.94Z" transform="translate(265.34 1082.275)"/><path class="b" d="M173.343,134.182c-2.007-1.641-4.063-3.322-5.853-4.953l-.455.514c-.781.87-2.234,2.491-2.274,3.1,2.659,21.809.909,29.718-15.8,39.99-5.4,3.322-5.3,6.614-5.151,11.191a32.505,32.505,0,0,1-.069,4.587l9.6,7.731-9.758,3.875v4.222l6.99-2.709-4.123,4.123a6.023,6.023,0,0,0,2.669-.277c21.918-11.162,27.385-32.892,32.674-53.91.593-2.363,1.2-4.726,1.8-7.059C183.892,142.823,177.031,137.2,173.343,134.182Z" transform="translate(1104.457 1003.369)"/><path class="b" d="M178.632,156.75c-14.84,9.511-30.885,9.224-46.446,8.957a177.255,177.255,0,0,0-18.636.306c-4.281.366-9.224,4.963-12.833,8.334a14.549,14.549,0,0,0,.356,4.894c9.293,2.719,18.725,5.012,29.6,7.652l8.453,2.056,7.7-4.014c11.439-5.971,24.38-12.724,36.866-19.723a11.606,11.606,0,0,0-.88-5.566A9.788,9.788,0,0,0,178.632,156.75Z" transform="translate(764.345 1229.605)"/><path class="b" d="M127.573,172.481l-3.44-2.541c-9.155-6.782-18.626-13.811-28.137-20.4-.593-.4-2.521-.178-3.945-.02a17.779,17.779,0,0,0,1.829,4.123,23.4,23.4,0,0,0,3.767,4.034c.662.633,1.335,1.246,1.967,1.888l2.422,2.442L98.844,163.3c-1.127.445-2.432,1.117-3.727,1.789-4.113,2.1-7.336,3.777-9.511,1.948-4.666-3.856-8.621-8.562-12.437-13.109-1.176-1.394-2.343-2.778-3.539-4.152H68.245v-.049l-.425-.02a39.45,39.45,0,0,0-5.754.109c-3.866.485-7.711,1.137-11.557,1.8l-1.641.277c.306.534.6,1.078.91,1.621,1.6,2.926,3.263,5.952,5.2,6.7,15.116,5.813,30.786,11.043,45.942,16.1q6.718,2.254,13.436,4.5a10.478,10.478,0,0,1,3.183-6.179C120.347,172.185,124.123,172.244,127.573,172.481Z" transform="translate(343.035 1163.592)"/><path class="b" d="M126.459,156.772l-.257.03c-4.479.455-15.907,1.631-18.745,2.887-.682,7.346-1.878,12.131-5.467,13.317-3.164,1.038-6.743-1.107-12.368-7.464-.7-.8-1.4-1.651-2.106-2.531-1.938-2.392-3.935-4.854-6.011-5.784-3.421,3.114-10.035,22.838-9.708,28.414a7.406,7.406,0,0,0,2.709-.87c2.086-2,5-4.439,7.86-4.439a4.49,4.49,0,0,1,1.71.326c3.312,1.305,3.974,5.764,4.172,9.5.2,3.559,2.175,5.882,2.907,6.12a10.8,10.8,0,0,0,.544-2.264c1.542-12.328,7.781-13.327,13.821-14.276a34.422,34.422,0,0,0,5.477-1.2c5.368-1.8,10.193-6.12,14.859-10.312,1.631-1.453,3.233-2.9,4.864-4.241-.91-1.483-1.681-2.857-2.363-4.053S126.934,157.424,126.459,156.772Z" transform="translate(530.329 1229.801)"/><path class="b" d="M134.4,175.463l-.208,2.175c-.277,2.847-3.213,3.915-5.556,4.775a13.476,13.476,0,0,0-2.64,1.167,27.637,27.637,0,0,0,2.956,2.7,7.712,7.712,0,0,0,6.021,1.048c16.224-6.06,25.161-18.537,28.058-39.18a16.355,16.355,0,0,0-6.05-1.523C136.9,146.555,135.89,159.9,134.4,175.463Z" transform="translate(973.61 1139.621)"/><path class="b" d="M157.287,153.21c-.475.494-1.028,1.107-1.463,1.631C146.194,166.5,133,172.034,120.232,177.392c-3.005,1.256-6,2.5-8.967,3.846a11.343,11.343,0,0,0-.83,5.467,5.3,5.3,0,0,0,.643,1.829c4.1-.791,8.166-1.463,12.16-2.126,9.9-1.621,19.249-3.154,27.87-6.456,10.242-3.925,10.6-15.354,9.105-24.251C160.065,155.108,158.285,153.882,157.287,153.21Z" transform="translate(845.465 1198.148)"/><path class="b" d="M111.777,167.028c-10.687-4.281-22.234-7.168-33.4-9.956-3.5-.89-7-1.76-10.48-2.669-2.462-.662-4.212-.623-5.161-.03l.02.059h-.237l-.119.03c-.949.83-1.226,3.084-.781,6.357.188,1.4.583,4.33,1.058,4.795.751.306,4.518-1.018,5.754-1.444a12.632,12.632,0,0,1,4.063-.623c10.806,0,26.377,10.964,35.186,19.367,1.8,1.71,5.625,2.827,10.242,2.976.119-.178,1.256-1.651,2.165-2.827.672-.87,1.424-1.839,2.284-2.857-.87-1.256-1.72-2.62-2.571-4C117.392,172.307,114.9,168.273,111.777,167.028Z" transform="translate(445.716 1204.429)"/><path class="b" d="M114.305,172.671c.237-.02.475-.04.712-.069-.079-1.028-.119-2.007-.158-2.907a15.97,15.97,0,0,0-.455-3.944c-.949-.613-2.086-1.434-3.223-2.244-5.665-4.043-11.528-8.226-17.627-9.481-6.792-1.4-14.217-1.078-21.394-.751-2.333.1-4.656.208-6.97.257,1.473,5.9,5.25,5.477,11,4.815,4.093-.465,8.72-1,12.289,1.72,6.565,4.993,14.138,8.8,21.454,12.477C110.855,173.017,112.536,172.839,114.305,172.671Z" transform="translate(476.803 1196.195)"/><path class="b" d="M133.206,151.295a137.043,137.043,0,0,0-9.857,13.287c.682.89,2.126,2.432,3.322,3.717,1.018,1.077,2.135,2.274,3.262,3.539l14.582-13.94-9.214-9.234C134.61,149.545,133.908,150.415,133.206,151.295Z" transform="translate(952.881 1157.759)"/><path class="b" d="M125.592,152.161c-1.1,0-3.183,2.155-4.568,3.569l-.3.3c2.3,3.134,9.016,11.1,12.111,14.395,2.808-3.411,5.744-7.079,9.787-12.081l2.5-3.124c-2.046-.376-3.925-.751-5.655-1.088C133.748,153,129.616,152.191,125.592,152.161Z" transform="translate(931.291 1188.826)"/><path class="b" d="M148.657,141.827a88.086,88.086,0,0,1-6.713,8.057,45.1,45.1,0,0,1-6.5,5.161c-.465.336-.939.662-1.4,1l.583,1.473h-.939c.02,1.345.01,2.7-.089,4.034-.247,3.095-.455,6,.939,7.6.9,1.018,2.571,1.661,4.983,1.918l16.332-16.293-6.772-13.495C148.943,141.461,148.805,141.649,148.657,141.827Z" transform="translate(1014.135 1092.16)"/><path class="b" d="M158.6,142.506a10.154,10.154,0,0,0-3.312-1.186,210.05,210.05,0,0,0-19.061,14.839,34.4,34.4,0,0,0,2.65,5.161,5.589,5.589,0,0,0,.929.356c5.971-4.024,11.824-8.176,16.856-11.765l2.521-1.8c-.208-1.612-.316-2.917-.405-3.935C158.723,143.554,158.673,142.921,158.6,142.506Z" transform="translate(1039.107 1092.488)"/><path class="b" d="M121.206,21.512l6.336-9.674L110.8,9.675l4.141,11.837Z" transform="translate(850.549 32.793)"/><path class="b" d="M44.684,157.678a4.979,4.979,0,0,0,5.339,1.226c2.224-.732,3.737-2.659,4.3-5.428a10.8,10.8,0,0,1-6.762-3.292c-2.669-3.045-2.353-7.247-2.076-10.954.069-.9.138-1.789.168-2.64-3.391,1.681-5.467,3.8-6.2,6.308C38.041,147.722,41.521,153.6,44.684,157.678Z" transform="translate(264.726 1050.456)"/><path class="b" d="M189.632,145.479l-.346,1.394-1.4.3c-4.133.88-8.285,1.72-12.427,2.561-12.842,2.62-26.13,5.319-38.863,8.947-.554,1.256-.85,5.279-1.038,7.751-.079.959-.158,1.9-.237,2.808,3.371-.89,7.01-2.1,10.539-3.272,11.409-3.8,22.195-7.365,28.581-2.936,5.6,3.9,9.679,5.438,12.121,4.676,2.481-.781,3.8-4.409,5.2-8.235a44.987,44.987,0,0,1,2.788-6.555l.376-.494,13.742-13.712c-1.572-.129-3.154-.4-4.706-.653C196.74,136.818,191.945,136.018,189.632,145.479Z" transform="translate(1030.976 1056.97)"/><path class="b" d="M19.289,117.436c-.85,5.783-.148,9.857,2.116,12.111s6.357,2.986,12.16,2.126c.85-5.784.148-9.857-2.106-12.111S25.1,116.6,19.289,117.436Z" transform="translate(108.871 907.874)"/><path class="b" d="M154.685,68.642a37.252,37.252,0,0,0,3.569,8.265l.83,1.572,6.06-2.521L156.514,65.8A11.151,11.151,0,0,0,154.685,68.642Z" transform="translate(1203.096 488.654)"/><path class="b" d="M46.707,157.97c1.612,1.394,4.528,1.186,7.642.949,1.335-.1,2.689-.2,4.053-.178V146.749l-13.544,6.743C45.145,155.637,45.768,157.14,46.707,157.97Z" transform="translate(311.58 1140.733)"/><path class="b" d="M97.013,159.3c2.383,1.414,4.647,2.669,6.92,3.005,2.017.3,4.37-.455,6.871-1.285l-5.7-4.439Z" transform="translate(737.968 1228.077)"/><path class="b" d="M138.887,25.4,127.241,37.019c4.291.227,7.375-.564,9.224-2.422S139.134,29.653,138.887,25.4Z" transform="translate(985.213 172.548)"/><path class="b" d="M132.409,144.193a16.524,16.524,0,0,0-3.094,1.315l-.4.188c.287.534.583,1.068.87,1.6,1.562,2.887,3.025,5.625,5.111,7.029.732.02,3.233-1.2,4.835-1.928.386-.168.781-.346,1.167-.524-.425-.425-.84-.85-1.236-1.256A42.39,42.39,0,0,0,132.409,144.193Z" transform="translate(998.917 1118.019)"/><path class="b" d="M133.065,145.331c-1.859,1.859-2.669,4.953-2.422,9.194l11.646-11.616c-.494-.03-.979-.05-1.443-.05C137.316,142.859,134.706,143.689,133.065,145.331Z" transform="translate(1012.674 1106.165)"/><path class="b" d="M12.76,106.113c.168.089.346.188.524.287.979.534,2.818,1.542,3.371,1.394a11.711,11.711,0,0,0,4.192-2.8l-6.466-2.679Z" transform="translate(53.955 787.493)"/><path class="b" d="M64.719,153.1v-4.3c-1.414-.039-2.719-.089-4.053-.188-3.114-.247-6.031-.455-7.632.959a6.134,6.134,0,0,0-1.7,3.53H64.719Z" transform="translate(364.52 1155.697)"/><path class="b" d="M158.381,92.049a7.029,7.029,0,0,0,1.572,2.432L163,88.6l-2.264-3.4A22.682,22.682,0,0,0,158.381,92.049Z" transform="translate(1235.94 647.334)"/><path class="b" d="M58.466,152.239c-.237.02-.475.04-.7.05v4.637h4.212l-.119.1a17.15,17.15,0,0,0,2.165-.178,18.164,18.164,0,0,0,3.875-1.285,15.556,15.556,0,0,0-4.38-3.114A12.618,12.618,0,0,0,58.466,152.239Z" transform="translate(417.174 1188.263)"/><path class="b" d="M58.855,156.618l4.449-3.57H56.152Z" transform="translate(404.057 1196.706)"/><path class="b" d="M66.971,155.163a57.864,57.864,0,0,0-7.968.01c-.01.534-.02,1.1-.02,1.592,2.373.366,4.864.544,7.662.742l.465.04-.04-.682C67.04,156.24,67.011,155.657,66.971,155.163Z" transform="translate(427.19 1214.326)"/><path class="b" d="M69.8,161.27c-.148.554.85,2.373,1.394,3.342l.287.534,3.816-1.631-2.7-6.436A11.712,11.712,0,0,0,69.8,161.27Z" transform="translate(515.585 1232.52)"/><path class="b" d="M158.144,69.308h-1.312l1.312,1.312Z" transform="translate(1222.175 517.628)"/><path class="b" d="M134.471,145.354c.633.494,1.256.979,1.878,1.4l.069-.079-1.473-1.8Z" transform="translate(1023.467 1124.115)"/><path class="b" d="M74.608,156.251l1.3,1.651a15.5,15.5,0,0,0-.722-1.859Z" transform="translate(555.184 1223.323)"/><path class="b" d="M100.363,10.414H99.4l.321.794Z" transform="translate(758.02 39.362)"/><path class="b" d="M102.955,8.031l-.643.794h.954Z" transform="translate(781.851 18.186)"/><path class="b" d="M97.117,17.876c-7.494.692-12.714,5.793-18.25,11.182C72.154,35.6,65.254,42.4,54.072,41.109v4.133h1.1l-.02.04H55.3c11.844.148,22.165.326,30.173-10.865,2.719-3.786,8.394-4.834,13.89-5.843,1.582-.287,3.193-.593,4.7-.949-.593-5.507-1.1-9.679-1.74-10.381-.188.02-1.364.138-2.3.277C99.184,17.629,98.235,17.767,97.117,17.876Z" transform="translate(386.092 100.044)"/><path class="b" d="M75.989,74.164c4.241-7.187,12.2-7.138,19.15-7.1,9.61-.04,15.709-.435,17.706-10.687,1.176-6.09,22.64-5.586,22.857-5.546,11.725.623,21.355,2.481,29.442,5.685,1.226.435,5.813-2.007,8.3-3.312,5.566-2.926,10.8-5.675,14.1-2.818,2.748,2.4,2.57,7.514-.7,17.351l.148.02a14.041,14.041,0,0,0,3.777.01c.643-.969,1.5-2.264,2.353-3.539,3.094-4.627,6.3-9.412,11.537-10.143,3.767-.494,7.988,1.236,12.823,5.378,3.846,3.282,3.836,3.272,15.769-7.217l2.254-2c2.739-2.462,5.576-5.012,8.275-4.132,18.843,6.011,37.163,3.45,56.57.741l6.762-.919c7.968-1.068,13.881-1.6,18.191-1.987,10.875-.969,11.765-1.048,14.919-6.041,6.416-10.163,13.9-16.293,24.271-19.891a61.42,61.42,0,0,0,1.068-6.812c.208-1.611.425-3.322.712-5.062-5.082.079-9.837.1-14.355.109-10.885.03-20.267.059-29.56,1.068-13.218,1.424-26.624,3.292-39.585,5.091-14.306,1.987-29.1,4.044-43.708,5.536-.277.02-26.713,2.1-28.858-5.151-1.167-3.964-2.719-6.357-4.617-7.128-1.76-.7-4.2-.148-7.613,1.78-13.258,7.524-27.543,8.324-41.375,9.105-8.285.455-16.846.939-24.914,2.907l-1.018.247-.86-.613c-9.382-6.743-15.1-2.1-23.648,6.041-6.673,6.347-14.147,13.465-24.38,9.293.128.91.257,1.819.4,2.729.87,5.952,1.78,12.1,1.532,18.221-.119,2.877-2.57,4.993-4.953,7.049a20.265,20.265,0,0,0-3.421,3.411c-1.483,2.185-4.439,2.037-7.049,1.908a23.706,23.706,0,0,0-2.373-.04,16.584,16.584,0,0,0,2.017,3.421C68.832,72.394,73.6,73.788,75.989,74.164ZM219.7,32.533c.059-.6.109-1.206.138-1.809a19.073,19.073,0,0,1,.929-5.428l.01-.02c.682-1.8,2.659-2.017,4.4-2.2.455-.049.909-.1,1.285-.178l2.986-.633L228.6,33.7l-9.254,1.977Z" transform="translate(474.132 -5.379)"/><path class="b" d="M8.758,166.353C19,165.048,21.947,172.078,24.142,177.2c2.254,5.279,3.431,7.573,8.512,6.031,6.406-1.928,9.926-1.859,11.715.217,2.224,2.57.465,6.317-1.394,10.3-.405.85-.811,1.72-1.167,2.57a20.067,20.067,0,0,0,2.719,3.233c4.528-3.332,7.178-7.751,7.484-12.566.356-5.6-2.412-11.162-7.79-15.64a46.475,46.475,0,0,1-7.652-9.016l-1.216-1.7a9.356,9.356,0,0,1-1.325-5.991l.267-1.038,1.058-.593c9.708-4.528,9.135-12.664,8.463-22.076-.682-9.57-1.453-20.406,9.758-27.425C61.73,98.4,69.3,86.7,63.816,70.5l-.83-2.481c-1.147-3.47-2.343-7.049-3.213-7.355-1.236-.494-6.584,2.956-10.124,5.22-2.135,1.374-4.736,1.6-6.822,1.789l-.089.01c-.692,13.228-7.5,23.915-14.1,34.266-7,10.974-13.6,21.335-13.258,34.355.129,5.1,0,10.539-.4,17.153-.178,2.867-2.254,6.06-4.261,9.155a42.9,42.9,0,0,0-2.274,3.767l.3-.03Z" transform="translate(15.673 442.74)"/></g></g></svg>