<svg xmlns="http://www.w3.org/2000/svg" width="1472.782" height="1447.655" viewBox="0 0 1472.782 1447.655"><defs><style>.a{mix-blend-mode:multiply;isolation:isolate;}.b{fill:none;stroke:#000;}</style></defs><g class="a" transform="translate(-5.666 -4.892)"><g transform="translate(6.012 5.379)"><path class="b" d="M125.007,147.382l.43-7.55-5.219,1.726,2.8,5.815Z" transform="translate(936.726 1104.492)"/><path class="b" d="M123.026,185.614c-23.507-19.7-47.551-39.869-75.121-54.4,2.462,2.4,4.961,4.859,7.432,7.358,5.9,5.979,11.883,12.374,16.668,17.519l6.719,7.172,24.534,16.585,6.811,6.848,25.321,13.355L109.7,202.088l-2.018,1.99h.018l-1.425,1.435L124.488,218.4l16.353-18C134.807,195.48,128.856,190.5,123.026,185.614Z" transform="translate(339.806 1033.359)"/><path class="b" d="M1175.473,562.507c-7.182-56.482-36.806-105.31-65.44-152.527-6.08-10-11.55-19.037-16.927-28.218-32.8-56.158-73.612-109.058-113.074-160.218-15.8-20.471-33.5-43.4-50-65.773l-9.958,1.4,6.367-4.294c-3.831-2.832-7.691-5.627-11.559-8.422-11.911-8.579-24.21-17.454-35.427-27.375-13.253-11.716-26.746-22.646-46.1-27.635-29.448-7.589-60.5-16.242-88.087-30.994-48.486-25.941-102.08-32.327-153.906-38.5l-1.055-.12c-11.615-1.379-23.637-2.813-35.427-4.461-9.662-1.333-21.425,1.249-28.727,6.275a108.358,108.358,0,0,1-28.033,13.79C485.5,48.055,464.774,54.885,446.4,41.975c-6.478-.185-12.984-.565-19.324-1.148a14.648,14.648,0,0,1-4.553-1.379c-.694-.305-1.453-.62-2.323-.935L410.1,34.83l15.881-4.7c-4.4-.694-9.366-1.055-14.225-1.407l-1.953-.148-2.415,13.3-3.35-.435c-19.639-2.573-28.81,2.3-37.8,20.036-9.06,17.825-26.5,35.658-47.847,48.939-18.13,11.291-38.333,19.713-57.851,27.847l-.481.2c-7.913,3.3-16.094,6.719-24.007,10.273L195,190l6.2.407,11.9-11.763.074,13.725,5.127,7.1-6.265,4.118-6.895,7.034v.657l25.293-18.769a27.73,27.73,0,0,1-1.694-2.841c-1.527-2.971,1.083-4.655,3.193-6l.953-.611,7.024-7.135.2-9.736,21.536.083.3,7.922,12.966-.074,19.768-9.56-.065,8.653,26.441-6.506L321.048,164l-39.906-.074,41.23-13.864,13.151-9.468,5.821,13.567-14.586,1.212.176,3.156,8.635,1.694a278,278,0,0,1,35.242-22.97c7.589-4.266,15.548-8.366,24.3-12.549l1.5-7.82,6.451,4.109c8.329-3.785,16.64-7.321,24.738-10.495,4.035-1.518,8.051-3,12.1-4.424l-.2-2.286,10.9-1.249c12.29-4.146,25.006-7.885,37.787-11.124h-7.191l-.75-12.725,33.308-2.027-.287,8.773h1.9c12.984-2.628,25.636-4.637,38.416-6.1A469.325,469.325,0,0,1,689.72,82.353c12.735,2.3,25.691,5.257,38.592,8.838l-.981-.962,77.157,24.738-11.939.139c3.952,1.869,7.848,3.785,11.633,5.71l1.518-2.86,3.952,2.092-1.481,2.823c5.053,2.638,10.1,5.4,15.011,8.218a439.515,439.515,0,0,1,49.642,35.186h.028l-.083-9.088,33.623,14.872h-6.969l11.4,11.328,13.984,6.784,11.245.083v8.116l2,.009-.037-12.337,17.593,18.167-12.772.259-6.487,19.092L930.6,202.989l-7.033-6.756-7.219.148.065.065-2.5.074L927.354,219.8l3.369,3.5c4.729,5.442,10.624,12.142,17.223,19.629l6.432,7.293-.018-.176,25.821,26.672-2.425.268c17.066,19.8,29.578,35.048,38.194,46.57,1.055,1.4,2.008,2.721,2.962,4.035l73.27,90.687,27.2,73.936-41.008-58.231c-1.666-2.027-3.461-4.229-5.3-6.534l-4.415,1.342v-6.9c-27.635-35.085-63.21-85.458-67.18-91.1-16.2-18.343-38.5-40.86-54.779-57.305l-.324-.315c-13.391-13.53-26.052-26.311-34.122-35.27l-23.165-24.46a112.571,112.571,0,0,0-8.209-8.1c-1.249-1.148-2.471-2.3-3.7-3.471-1.425-1.286-2.888-2.675-4.35-4.072-2.554-2.425-5.118-4.859-7.792-6.987a400.218,400.218,0,0,0-53.927-38.759c-17.112-3.794-30.152-10.162-41.017-20.009l-.407-.361-.787.111c-30.633,4.405-54.418-9.736-76.166-24.673l-1.823-.4c-1.175-.259-2.369-.527-3.572-.759a443.8,443.8,0,0,0-67.976-7.348l6.4,2.138,22.692,2.628-5.368,12.549-18.1-9.246H602.624l1.5-8.338h-.5c-5.423,0-10.569.083-15.677.241l-2.665.4L577.3,99c-7.108.361-13.41.787-19.194,1.286a564.555,564.555,0,0,0-123.56,25.154c-44.885,14.289-80.711,31.651-109.5,53.067l-1.055.8-3.48-4.137q-7.413,5.525-14.854,11.022l-.463.342c-14.983,11.106-30.485,22.6-45.487,34.159-20.175,15.539-40.341,33.039-46.209,60.831l1.185,1.1-.028.037,3.415,3.267,5.886-6.756c5.581-6.33,11.346-12.883,16.9-19.426,23.3-27.477,50.309-53.909,89.771-61.137l6.96-1.277-9.81,19.768,9.162,7.654-16.122,4.924.074-7.441c-14.317,5.516-26.607,11.513-32.864,24.775l19.324-.167-52.863,52.78-16.15,24.081c2.406,15.391-8.274,22.285-16.9,26.135l-3.693,14,3.933-5.173q14.979-19.713,29.976-39.416c3.285-4.322,6.534-8.709,9.754-13.1,20.027-27.181,40.721-55.3,76.268-67.449,25.164-38.268,65.958-54.39,102.561-65.116,19.639-5.747,40.258-8.653,60.2-11.467,14.012-1.981,28.5-4.026,42.461-7.034,30.485-6.562,60.748-3.239,90.012-.019,7.533.833,15.326,1.694,22.979,2.369a127.005,127.005,0,0,1,13.059,1.823l-13.716-14.41,7.034-.833c.194-.028.416-.065.639-.111a8.379,8.379,0,0,1,4.34-.028c1.86.6,2.49,1.943,3.6,4.387.583,1.268,1.444,3.137,2.832,5.914l3.461,6.932.453.1c1.786.426,176.923,43.969,267.823,202.771l1.749,3.091,11.559,18.482c19.657,31.355,39.99,63.793,57.805,97.286,20.832,39.175,21.129,82.626,21.425,124.643l.009,1.536c.046,7.145.1,14.3.259,21.406.139,6-.232,11.966-.592,17.741-.361,6.006-.731,12.216-.518,18.278.25,7.728,1.018,15.659,1.758,23.331,1.3,13.567,2.665,27.468,1.425,41.156-6.663,74.13-23.8,142.523-50.919,203.271-20.018,44.858-54.1,84.6-107.235,125.041l-4.59,7.635c-.046.046-2,1.8-5.71,4.831,2.989-1.888,5.969-3.757,8.968-5.636l41.258-25.95,7.506-7.644,8.977-6.571.2-.555c7.95-22.276,23.748-40.61,48.273-56.028l8.015-5.044-2.73,9.07c-8.181,27.005-29.189,43.136-48.226,56.13l-.805.555-6.663,8.773-7.737,8.237c-10.476,20.388-28.5,32.262-45.9,43.738-4.137,2.721-8.366,5.507-12.531,8.431-11.9,8.385-23.85,17.51-34.4,25.571-2.286,1.74-4.554,3.47-6.83,5.2l11.568-.074-3.147,5.414c-9.986,16.279-25.265,24.294-48.032,25.182-.694,3.748-2.23,6.385-4.674,8.042-4.035,2.767-9.209,1.8-13.8.555l-12.457,9.773-6.8-13.281,18.269-3.332,13.549-6.654.037-3.23-26.579.278,3.165-5.4c.435-.713.8-1.453,1.185-2.193,1.435-2.749,2.86-5.507,5.562-7.219q6.983-4.415,13.956-8.848-14.187,6.9-28.56,12.716l-1.018.4c-12.623,5.072-25.386,9.523-37.926,13.253-5.479,7.829-13.993,6.672-20.925,5.645-3.619.842-7.552,1.749-11.541,2.582-14.743,5.007-32.021,7.506-45.07,6.423-8.237.731-15.8,1.148-22.869,1.259a56.064,56.064,0,0,1-28.384-.963,325.278,325.278,0,0,1-81.636-15.89l-3.637-1.2.342-.8a333.426,333.426,0,0,1-87.383-34.187c-90.16-50.521-161.477-114.861-211.961-191.258-11.818-17.889-20.518-38.037-28.93-57.537-6.33-14.687-12.79-29.689-20.518-43.655-25.3-45.654-26.728-93.815-24.793-134.9,3.11-66.31,19.972-128.669,50.105-185.354a25.148,25.148,0,0,1,1.925-2.952,10.23,10.23,0,0,0,1.731-3.017c5.257-27.792,10.31-55.343,15.9-85.875l1-5.442c-9.051,13.891-12.6,29.948-16.325,46.829-2.064,9.347-4.192,19-7.358,28.227-1.527,4.414-2.813,9.023-4.072,13.484-4.979,17.677-10.115,35.927-28.977,46.884l-.028.167c-.518,2.638-.981,5.284-1.453,7.931a158.364,158.364,0,0,1-4.822,21.508C95.2,692.24,103.145,795.384,158.146,888.616c2.9,4.9,4.581,10.365,6.219,15.641l.167.537c.685,2.24,1.37,4.47,2.156,6.645l11.948,22.387-1.546,1,3.156,1.833c21.156,12.281,34.594,28.31,41.073,48.994l.1.324.574.574,61.257,60.97-21.184-.638-.185,9.292-32.512-13.891,22.831-1.046-1.129-1.268c-4.5-4.979-9.6-10.624-13.66-16.7-3.915-5.867-6.9-12.309-9.792-18.537l-.768-1.647c-.583-1.249-1.166-2.49-1.758-3.73l-3.322-6.95-5.331-2.462c-21.554-9.986-35.483-26.58-41.4-49.328l-1-3.813-1.157.75-15.27-19.731c-1.277-1.176-2.924-2.49-4.368-3.646-3.933-3.165-7.931-6.386-10.023-10.9-3.6-7.755-7.321-15.5-11.05-23.239C120.785,856.391,109,831.95,101.369,806.555c-14.16-47.125-15.585-99.831-4.479-165.863l.546-3.286c5.673-33.891,11.541-68.929,36.565-96.61l.4-.454.13-.444c3.332-12.05,6.6-24.793,9.218-35.038,13.225-51.651,26.913-105.023,60.406-150.371,2.277-3.091,5.4-5.247,8.4-7.33l.444-.305c.648-.463,1.3-.926,1.943-1.4l.305-8.264-18.981,12.225L180.3,373.988,140.34,477.771l-.176,1.629c-3.656,36.019-16.788,69.836-40.147,103.394l.213,1.046c.435,2.156,1,4.868-.046,7.357C77.121,646.512,80.925,705.484,84.617,762.521l.5,7.885c.99,15.529,5.877,31.3,10.615,46.551l.213.676c2.119,6.876,4.331,13.984,6.154,21.045l10.254,34.557L92.789,847.063h-.055a8.382,8.382,0,0,1-6.839-3.387l-1.906-2.462.74-.75c-29.143-90.113-31.3-165.845-6.793-238.244,2.045-6.08,6.571-10.939,10.93-15.641,1.7-1.823,3.239-3.471,4.655-5.192V566.459l-8.283,8.163,7.681-17.177q3-6.719,5.923-13.466l1.046-2.378c5.488-12.549,11.087-25.349,17.168-37.713a179.277,179.277,0,0,1,12.1-19.953l.342-.509c1.388-2.092,2.795-4.2,4.165-6.312l.555-.861.463-29.754-.6-.2.259-3.674,7.422-21.48-.148-.13.379-2.369,8.32-22.979.5-2.138,8.8-16.492,14.854-7.219c-1.1-11.985,4.47-20.286,16.566-24.692l.361-12.2-1.222-.657L191.6,329,202.93,310.7l-7.1-.111-1.342,1.342c-21.924,22.008-42.627,42.794-45.978,74.454l1.416.935-2.3,3.017C134.1,407.99,126.44,429.767,123.552,458.8l1.24.379-1.5,3.859-4.359,7.774c-3.628,6.488-7.376,13.188-11.4,19.731a49.4,49.4,0,0,0-3.887,9.06c-3.082,8.681-6.839,19.278-20.444,20.249.25,1.073.528,2.165.8,3.248l.139.6c1.62,6.46,3.276,13.086,1.3,19.046-9.384,28.338-19.907,56.852-30.078,84.431L53.91,631.1Q49.01,644.444,44,658.136l-4.887,13.4-1.953-14.132c-6.765-48.671,13.225-88.781,32.549-127.576,2.147-4.3,4.285-8.626,6.4-12.929l.731-1.684,2.462-8.755c17.519-61.785,35.612-125.587,73.881-180.523,4.516-6.478,8.681-13.614,12.475-20.333-30.957,29.467-47.375,68.365-62.7,108.975-6.515,17.26-12.559,35.1-18.4,52.363l-.278.8c-10.56,31.272-21.48,63.6-35.686,93.973-24.9,53.3-22.545,108.29-17.991,160.042a68.913,68.913,0,0,0,2.1,10.634,68.091,68.091,0,0,1,2.4,13.225C39.519,831.5,76.732,910.087,152.214,992.936l13.586,14.947c7.191,7.94,14.872,16.409,22.785,25.006l18.241,3.609c.1.019.231.028.342.037a5.374,5.374,0,0,1,4.276,1.906,8.366,8.366,0,0,1,1.157,2.3l3.619,9.782-27.181-17.13c7.561,8.209,15.317,16.529,23.063,24.59,2.3,2.4,6.136,3.831,10.18,5.34l.509.194.407.148-.046-1.342.056.037-.13-6.053,34.474,14.928-21.175.037,19.639,14.826v-8.459l8.153,7.931.018-3.545,5.1,8.505,5.229,5.1h-2.434a9.707,9.707,0,0,1,.463,1.546,3.733,3.733,0,0,1-.083,2.036H273.6l-1.888,1.666c44.562,43.47,100.932,74.741,182.559,101.312,4.452,1.444,8.413,3.906,12.226,6.284,1.212.759,2.425,1.508,3.656,2.23l.5.3H493.76l-5.5,15.872-18.574-9.671-1.018.092c-31.031,2.638-57.787-9.051-83.737-20.4-9.4-4.118-18.954-8.3-28.477-11.716-5.9-2.119-12.364-3.961-17.556-5.432-.944-.268-1.879-.537-2.823-.814l.065,13.78-.861-1.129v.046l-4.1,4.109-5.007-5.034,2.036-2.027.028-4.942-22.656-13.179,15.169-.49q-6.538-5.053-12.938-10.291l-9.051,19.805a2.03,2.03,0,0,0-.139.4c-.1.3-.222.648-.379,1.018l25.58,12.485.009-.009.944.389,5.414,2.776-.176.194,12.3,6.747,2.73,1.842c22.952,15.677,44.673,30.513,72.511,30.513.6,0,1.2-.009,1.832-.019l.481-1.342,3.591,1.2c3,1.555,5.766,3.063,8.542,4.591a209.557,209.557,0,0,0,20.842,10.439c16.52,6.756,33.363,13.114,49.661,19.268q9.592,3.637,19.074,7.237l21.619-1.11c17.917-.907,36.075-1.842,54.224-2.739,10.865-.537,21.888-.6,32.549-.666,23.535-.148,47.81-.3,70.29-5.5,41.434-9.588,82.238-25.423,121.718-40.73l10.754-4.165c10-3.878,19.185-11.069,28.07-18.028,2.619-2.045,5.284-4.137,8-6.154l-5.59-3.082c.065,3.369-.278,6.265-2.749,7.737-25.552,15.326-48.43,22.554-71.993,22.73l-.564.009-19.287,10.8-5.229-14.095,22.711-2.98c13.031-14.8,30.467-19.574,47.338-24.2,8.264-2.258,16.807-4.581,24.581-8.135l.981-.481,15.474-8.274,5.59-5.127-3.378,1.111c-13.068,4.313-26.126,8.616-39.157,13.021-9.375,3.165-18.731,6.441-28.079,9.727l-17.575,6.349-57.731,22.906-3-13.3,20.971-1.259.093-8.7,42.516-7.256,31.8-25.95.685.231,9.8-5.025-5.636-3.4,1.943-1.2-2.027-.009,15.307-7.922v.269l27.227-13.512,2.684-10.662,8.088,8.931,11.967-6a12.8,12.8,0,0,1-.879-3.147c-.018-.111-.028-.231-.037-.352l-2.277-.028,10.125-10.773v.4l7.839-7.959.389,12.5,11.291-.324,6.164-12.4-8.635-7.228,11.087-4.026,20.592-20.944v7.571l3.295-3.286.416.019,16.381-15.946,23.063-12.448-4.294,9.542c-10.911,24.266-28.07,53.566-64.209,64.866l-.287.2-19.222,26.08,7.765-.352c5.34-6.747,8.949-10.911,13.947-11.485,5.969-.666,11.43,3.8,20.6,11.143,1.462-.481,2.971-.907,4.479-1.324,4.109-1.138,7.969-2.221,10.365-4.4,27.209-24.636,56.685-52.113,90.095-84.024,1.721-1.638,2.7-4.627,3.748-7.8l.065-.194-6.006-.157-.157-15.7-2.86.851-21.776,14.474,14.733-22.258,27.681-34.853-5.506,1.675,22.082-39.508-.972-.231.768-3.285,2.786-1.083,3.211-5.738-.713,6.543,1.721,1.638-.926,3.591-1.4-.342-1.092,9.014c-1.129,10-2.517,22.415-17.047,26.839l-2.453.75-11.883,37.815,4.905,11.494c2.6-2.5,5.322-4.933,7.959-7.3l.389-.342c8.551-7.645,17.38-15.548,21.638-24.9,26.034-57.4,49.032-109.271,67.013-162.911C1193.548,753,1186.606,650.14,1175.473,562.507ZM395.114,99.289l7.071.629-.342,4.1-7.071-.555ZM374.17,122.769l-13.132,12.7.574-13.318-9.264-5.266,10.43-6.747,13.04-12.05-.037,11.457,26.644.268Zm58.4-24.9-.639-11.032,27.431-2.323,1.777,13.355ZM428.412,64.9l-.185-9.088,3.591-.056h32.7L467.93,64.9Zm54.659-5.719-1.351-11.7,24.4-2.86,1.36,11.855Zm40.036-8.607-4.979-12.151,6.839-.324a30.518,30.518,0,0,1,5.386-.037c2.286.231,3.4,2.175,3.989,3.211.176.3.259.444.333.555L537.6,45.76ZM654.885,71.5l20.342-2.369c1.379-.167,2.749-.361,4.137-.565,8.866-1.3,19.9-2.906,27.329,8.625l4.738,7.348ZM773.8,90.96c-1.1.046-2.24.157-3.369.278-1.518.148-3.091.305-4.7.305-7.117,0-11.485-3.4-13.336-10.375l-1.842-6.839,39.832,15.992Zm65.551,48.078-2.582-2,4.267-5.673,2.721,2.1Zm3.693-15.742-1.407-7.654c-17.5,2.786-29.735-7.117-39.814-16.714l-5.127-4.9,7-1.166c18.362-3.082,31.355,6.543,41.656,16.362l.157.139,12.05,5.525Zm67.976,44.673a5.307,5.307,0,0,1-3.591-2.1,6.8,6.8,0,0,1-.657-1.351l-3.98-10.421,11.6,7.635,21.591,14.789Zm122.19,148.687-.759,14.252-9.893-11.374-.028.037-1.1-1.092-5.414-6.608h1.462l-5.84-11.18L998.9,288l18.158-.426-.1,9.653,10.476,4.609.074-6.228,6.932,11.92-.074.074a29.112,29.112,0,0,1,1.777,3.693C1037.106,314.092,1035.069,315.535,1033.209,316.655Zm32.651,60.026-.046.028.046.074-.139.083.546.546h-1.453l-.777.491-.065-.093-1.231.676-1-1.62-1.129-1.129.315-.194-.574-.935h2.11l4.646-2.786,1.666,2.915-2.925,1.944ZM366.618,199.759l6.663-20.129a5.3,5.3,0,0,1,2.3-3.813,8.379,8.379,0,0,1,2.055-.851l10.606-3.147ZM528.8,145.905l-.046-1.425-8.4,4.257c-13.392,6.765-26.228,11.828-35.788-.7l-27.857-.342v2.434l21.388,1.12-3.952,13.9-21.415-9.153-19.953-1.074-.842-10.078,18.944-2.767.1-3.98-3.508-2.6,3.489-5.756,1.527.6a5.382,5.382,0,0,1,3.017,2.193l.8,1.934,29.745,7.607,42.646-.046-.185-6.811h85.051l.287,10.689Zm229.351-5.3,36.242,16.325-40.314-2.9Zm-91.03-19.268,4.294-13.031L704.3,124.268Zm75.843,15.02-5.46,12.1-28.764-17.732ZM742.009,174l-11.735,4.683-9.708-21.147,13.447-6.127,5.9,16.658L751.3,170.44a5.646,5.646,0,0,1,4.155,1.7,9.057,9.057,0,0,1,1.194,1.943l5,10.513-20.1-11.929Zm72.659-3.313-21.5-7.422,22.35-3.285Zm63.4,93.584-18.028-16.7,19.713-.5ZM38.64,690.5a19.557,19.557,0,0,0-1.2,1.573l-7.469,10.884,3.508-45.913,5.9,22.785a37.53,37.53,0,0,1,1.3,5.831c.222,2.036-.925,3.461-1.934,4.711Zm.759,43.081,9.829-2.138-1.546,19.2L39.4,750.36Zm7.755,39.592,9.542-.111v33.65l-9.542.056ZM82.47,881.12l-11.8-29.7c-5.969-1.444-10.18-4.359-12.54-8.653-3.026-5.562-2.758-13.141.814-23.155l3.378-9.44,12.725,36,8.135.99Zm50.3,40.61-.657-4.868h.333a3.062,3.062,0,0,1,1.212-1.694l1.6-1.268,1.916.787a3.024,3.024,0,0,1,1.592,1.222l.305-.1.75,4.933Zm317.3,308.1a9.091,9.091,0,0,0-.888.472,7.254,7.254,0,0,1-3.6,1.249,4.227,4.227,0,0,1-1.684-.352,7.371,7.371,0,0,1-3.3-3.378c-.185-.305-.305-.509-.435-.694l-3.711-5.109,6.256-.537c.222-.018.435-.055.639-.083a10.144,10.144,0,0,1,3.9-.064,6.348,6.348,0,0,1,3.295,2.156,5.091,5.091,0,0,0,.435.444l4.109,3.637Zm22.11,10.43-11.43-3.239,5.664-4.285c.268-.194.528-.417.768-.629a11.9,11.9,0,0,1,3.98-2.536c2.49-.75,4.248.953,5.312,1.971.241.24.463.463.666.629l4.313,3.406Zm294.587-4.193-16.381,2.971c-.722.12-1.323.259-1.832.37a14.788,14.788,0,0,1-3.054.435c-.241,0-.481-.018-.75-.037-2.582-.268-3.341-2.6-3.72-3.711l1.129-1.074h0l-1.286.564-2.9-6.58Zm-46.218-67.384-33.845,16.7-4.674-12.892Zm-405.33-64.811c-.49.018-.962.028-1.444.028-15.1,0-25.432-7.774-32.429-24.451-4.886-.361-11.032-1.444-14.65-5.9-2.564-3.174-3.461-7.533-2.647-12.966l1.046-7,19.972,19.944c15.909,2.036,27.116,10.6,33.3,25.432l1.971,4.738Zm21.064-7.626-22.322-17.2-7.209-4.822.833-.1-2.841-2.184-23.387-18.917,4.229-5.581,25.4,18.13,6.117,7.441c12.725-1.111,21.36,4.905,26.024,17.862l3.637,10.134-14.641-9.8Zm56.6,56.5-8.264-7.58,3.221-2.582c.185-.157.379-.37.592-.573,1.074-1.064,2.573-2.545,4.8-2.545h.093c2.341.139,3.7,1.87,4.6,3.017.25.315.426.537.611.731l2.721,2.8Zm32.743,16.548-23.22-14.974,28.866,1.509Zm21.2-15.409-13.3-10.041-4.47.463a66.576,66.576,0,0,1-7.1.4c-14.123,0-23.174-5.969-27.662-18.26l-1.536-4.22,4.452-.518c14.891-1.8,26.515,4.017,34.511,17.232l2.341,3.859,92.26,28.245h37.232l-2.545,16.446L526.078,1177.1l-3.008.148C494.584,1178.493,469.013,1170.663,446.829,1153.885Zm60.285,90.354c-.722,1.259-1.8,3.1-4.072,3.146a11.553,11.553,0,0,1-3.332-.564l-5.766-1.434,2.878-4.22c.638-1.147,1.712-3.026,4.081-3.184a12.215,12.215,0,0,1,3.4.592l5.821,1.481Zm-4.211-12.883-.046-10.393h28.107l.093,10.393Zm72.381,25.164H530.316l.028-10.689h50.411Zm26.765-16.945H554.786l5.423-10.911h45.348l.046,10.875Zm-12.781-48.134-.009-10.8h81.793l.055,10.8Zm58.092,37.269h36.815l.241,10.421h-39.24Zm11.522,26.792,4.47-10.828h28.662l.648,10.828Zm24.2-37.186,38.49,1.916-4.461,14.28Zm25.219,37.324-4.979-12.744,21.795-7.922,4.544,11.828Zm38.574-75.01c-.185.157-.389.352-.574.537a6.369,6.369,0,0,1-4.359,2.249l-.407-.019c-2.064-.13-3.341-1.712-4.183-2.767-.231-.287-.361-.454-.5-.592l-2.813-2.841,3.165-2.453a6.475,6.475,0,0,0,.527-.5,6.589,6.589,0,0,1,4.479-2.239h.065a6.17,6.17,0,0,1,4.378,2.73c.259.305.389.481.527.62l2.85,2.786Zm115.555-56.167,3.119-9.69c3.887-12.059,12.485-17.871,25.608-17.223l10.68.555Zm122.19-22.184c-.305,6.7-2.138,11.384-5.59,14.345a15.183,15.183,0,0,1-10.152,3.323,23.772,23.772,0,0,1-2.869-.167l-7.524-.824,26.552-25.562Zm193.415-460.691-12.938,2.332-.231-1.407-8.274-48.967,10.7-1.934Zm-27.394-87.42h.018a5.545,5.545,0,0,1,3.212-3.961,4.85,4.85,0,0,0,.583-.361l3.924-2.887,4.776,14.419-12.244,5.109-.278-6.9A30.2,30.2,0,0,1,1150.643,554.169Zm.037,92.769a8.225,8.225,0,0,1,1.055-3.554,5.215,5.215,0,0,1,3.989-2.193l3.582-.907,3.443,9.773-13.1,2.869ZM1110.4,627.716l10.125-.25v39.971l-10.125.167Zm-38.13-126.781.019-.009a5.316,5.316,0,0,0,.5-.407l3-2.86,5.516,8.07-6.9,7.8-2.573-3.73a5.4,5.4,0,0,0-.4-.481,5.834,5.834,0,0,1-1.832-4.433A6.008,6.008,0,0,1,1072.274,500.936Zm-24.09-59.027c19.4,3.017,18.51,17.5,17.852,28.07-.093,1.481-.176,2.943-.2,4.387l-.481,13.8-24.007-47.31ZM1019.809,396.8l21.027,14.965-24.284-8.736a5.592,5.592,0,0,1-3.739-2.175,6.1,6.1,0,0,1-.694-1.407l-4.322-10.958Zm-75.732-78.989-.453,26.959-14.456-33.03,8.385-.185L934.174,291.7l13.327-1.684,4.359,28.56Zm107.66,515.229-8.153,8.153.3-.666-9.116,8.866.583-9.171q1.416-22.517,2.9-45.024l.12-1.814c2.221-34.261,4.516-69.7,6.469-104.523.6-10.874,1.4-21.934,2.156-32.632l1.435-.352h0l-1.407-.1c2.221-31.364,4.507-63.793,2.582-95.305-1.842-30.328-13.873-59.452-23.637-78.545-13.021-25.488-28.847-50.179-44.145-74.056-7.089-11.069-15.095-23.553-22.582-35.844-2.11-3.452-3.026-7.358-3.905-11.133-.222-.935-.435-1.86-.676-2.767l-2.73-10.689,8.449,7.089c2.582,2.166,5.275,4.257,8,6.34,7.339,5.664,14.826,11.457,20.157,18.944,13.7,19.25,26.145,39.814,38.185,59.693l7.145,11.79c31.725,52.123,43,110.27,35.483,183-4.59,44.377-6.728,89.725-8.783,133.583-.565,11.92-1.111,23.674-1.712,35.39,11.6-36.741,13.577-75.278,15.345-109.595.814-15.862,1.444-31.6,2.128-49.069,1.481-37.963,3.017-77.2,7.173-116.36l2.7-25.256,4.322,25.025c.907,5.229,2.138,10.541,3.313,15.687,2.656,11.568,5.386,23.5,4.905,35.344-2.767,67.874-7.348,135.971-11.772,201.827l-.111,1.74c-.333,4.988-2.1,9.68-3.8,14.206-1.564,4.118-3.017,7.959-3.387,11.781-.537,5.433.4,11.041,1.379,16.964.074.491.157.972.241,1.462L1093,816.476l7.126-48.523-.019-68.781,6.922,21.351c7.737,23.868,8.542,26.357-.139,45.746l-1.675,3.711.611,7.246c.176,2.055.444,4.109.722,6.173l.111.935c1.555,11.568,3.156,23.544-7.5,34.122l-.352.352.01.25c.62,14.863-.74,33.659-16.714,47.588l.092.861c.083.851.195,1.7.315,2.554l.111.787c1,6.941,2.341,16.39-9.431,20.4l-1.453,15.594-11.7-5.118,8.033-14.983,7.792-21.527.231-24.247-17.8,16.362c7.265,12.077,6.691,25.8-1.74,41.943-6.386,12.263-14.391,23.729-22.128,34.826l-1.833,2.638q-2.415,3.47-4.8,6.95l-15.89,23.313,39.851-109.7Zm51.1,109.881-11.855-8.727,13.3-6.386Zm3.341-13.271-4.433-16.186,12.7,1.6Zm18.537-52.817V842.259l15.548,5.4Zm20.527-47.745h-9.542V804.139h9.542Zm10.041-94.167-.009.046c-1.2,8.061-2.351,15.687-.528,22.489.814,3,.056,5.923-1.212,10.763-.731,2.86-1.647,6.4-2.628,11.208l-5.164,25.4-4.507-63.09c-.925,5.747-1.823,11.476-2.693,17.121l-.2,1.286c-4.007,25.848-8.154,52.585-14.974,78.3-16.335,61.655-44.256,121.931-82.987,179.153-2.777,4.081-7.034,6.765-11.161,9.366-1.3.805-2.5,1.555-3.637,2.342l-10.736,7.274,5.525-11.717q7.774-16.506,15.511-33.021l2.471-5.275c12.522-26.728,26.709-57.019,40.943-86.671,27.005-56.25,41.063-119.664,42.951-193.887,1.2-47.246,2.73-102.246,5.738-157.164l1.444-26.311,7.709,35.594c6.256,28.31,12.161,55.047,7.978,85.375-1.037,7.505-1.481,15.4-1.916,23.035-.463,8.181-.935,16.4-2.008,24.442C1160.1,702.966,1157.436,720.671,1155.289,734.923Zm14.252,38.389-10.911.426V700.708l10.911-.463Z" transform="translate(173.073 74.196)"/><path class="b" d="M120.558,32l10.457,7.028-.082-7.037Z" transform="translate(939.536 214.27)"/><path class="b" d="M53.779,139.109l.064.046,2.363.591-.018-.829Z" transform="translate(388.295 1096.932)"/><path class="b" d="M174.235,209.78l-5.062-5.118-17.168-1.185-8.3-14.919-11.735.12c-1.647,2.952-3.693,4.461-6.1,4.507-4.109-.018-6.543-4.044-8.218-7.543l-.185-.4-6.441-7.894,1.583-.787-12.836-6.349.731-.972-5.951-6.071-12.105-5.618a6.614,6.614,0,0,1-4.97,2.943c-.259,0-.537-.009-.805-.028l-.056,2.767-2.86-3.831c-2.045-1.361-3.591-3.757-4.849-5.951L62.521,147.1h-.842l-.028-.851-7.293-7.283h-.824l-.056-.879-6.645-6.46-7.385-2.675c32.345,40.3,89.493,80.775,130.1,91.816l4.8-4.831Z" transform="translate(270.004 1014.654)"/><path class="b" d="M119.572,138.762l1.83-1.88-1.83.008Z" transform="translate(931.397 1080.14)"/><path class="b" d="M143.656,117.275l-1.454-.3,1.42.351Z" transform="translate(1118.207 915.81)"/><path class="b" d="M122.2,135.131l.025,2.072,2.03-2.055Z" transform="translate(953.058 1065.684)"/><path class="b" d="M16.539,492.035c5.8,14.252,8.514,29.245,11.133,43.766,4.387,24.294,8.551,47.329,26.228,65.7q-1.444-13.285-2.906-26.469c-2.721-24.571-5.525-49.994-7.876-74.926-2.573-27.348,1.906-50.318,13.688-70.243l.8-1.342-.5-3c-1.3-7.718-2.906-17.325,8.061-22.544l4.433-2.1-8.644,27.487-.167,2.721c-3.063,49.041.037,100.451,9.2,152.8,2.795,15.955,4.544,32.317,6.247,48.143l1.24,11.457c.213,1.943-1.111,3.406-2.943,5.442-.861.944-1.888,2.073-2.971,3.5l-2.48,3.239-2.962-9.218c-1.259-3.933-2.332-7.284-3.471-10.606a6.8,6.8,0,0,0-.74-1.462c-.287.12-.62.241-1,.389.407,4.072.768,8.2,1.138,12.364.944,10.763,1.916,21.906,3.841,32.753.657,3.674,1.157,7.6,1.657,11.587,1.61,12.633,3.267,25.691,10.162,32.364,18.232,17.649,30.356,38.851,42.081,59.36,3.2,5.608,6.414,11.208,9.745,16.77,1.12,1.869,4.276,3.091,7.32,4.276.278.1.565.213.842.324v-.167l.037.009.639-14.382,12.623,5.358q-4.012-8.94-8.052-17.871c-8.237-18.241-16.751-37.111-24.7-55.88-2.554-6.025-5.257-12.022-7.959-18.028-8.163-18.176-16.612-36.963-20.9-56.435C84.21,623.61,81.3,599.205,78.5,575.615c-1.712-14.428-3.489-29.347-5.766-43.9-8.848-56.593-2.3-105.439,20.036-149.325a938,938,0,0,0,40.378-91.372c7.83-20.546,14.28-42.035,20.527-62.821,2.517-8.4,5.044-16.8,7.654-25.154l-7.876-1.629,13.484-25.58.046,14.817,10.884-21.786-.222-.194,17.121-23.646-.713-.352,2.453-2.147,38.935-31.735,14.243-35.409,5.34,22.952,28.31-34.178-.278-.111.111-.12c-1.851-.981-3.591-2.4-3.6-4.479-.009-2.712,2.915-4.294,5.2-5.257l-.037-2.49-.093.093V48.66l-17.093-.5,6.062-13.475c-24.9,6.4-38.74,25.395-49.032,43.377-1.286,2.249-2.554,4.544-3.822,6.839-5.238,9.5-10.662,19.333-18.149,27.1-43.923,45.561-69.633,102.718-94.5,157.988-11.633,25.876-23.664,52.632-37.426,77.879-4.812,8.848-9.394,18.047-13.808,26.941-10.236,20.573-20.8,41.813-35.316,60.656.87,3.443,1.981,6.959,3.054,10.375C29.736,462.124,35.039,478.959,16.539,492.035ZM132.464,772.222l3.332,6.96-3.822,1.907-1.962-3.656-1.425-3.424ZM108.2,734.787c14.474,2.36,17.093,13.521,17.741,24.136l.157,2.573-2.564-.315c-14.132-1.786-15.955-12.8-17.556-22.526l-.722-4.34ZM79.416,660.629,102.9,722.108l-4.646-2c-17.131-7.339-20.564-21.064-23.886-34.344-1.573-6.284-3.063-12.226-5.942-17.565l-1.074-2ZM141.57,228.3c.278-.592.546-1.194.8-1.8l1.286-3.137,5.858,6.478-4.961,11.374-2.2-2.832c-.213-.259-.49-.546-.759-.824-1-1.018-2.249-2.3-1.916-3.98A24.22,24.22,0,0,1,141.57,228.3ZM134.139,250.5a7.082,7.082,0,0,0,.611-.5l1.8-1.74,1.444,2.036a5.86,5.86,0,0,0,.509.6,3.8,3.8,0,0,1-.416,6.4c-.213.185-.426.37-.6.555l-1.786,1.934-1.527-2.147c-.176-.25-.4-.49-.6-.731a4.556,4.556,0,0,1-1.546-3.378A4.62,4.62,0,0,1,134.139,250.5Zm-10.754,26.755,2.1.491h0l1.99.787-.463,1.185-1.99-.777h0l-1.99-.777Z" transform="translate(80.888 236.53)"/><path class="b" d="M111.831,27.575h.009l.493-.94Z" transform="translate(867.496 170.081)"/><path class="b" d="M122.808,138.7l-6.766-.058.025,3.25.025-.009v.292Z" transform="translate(902.256 1094.632)"/><path class="b" d="M124.593,137.837l-6.792-.076.042,3.233.05-.025v.326Z" transform="translate(916.786 1087.397)"/><path class="b" d="M137.576,48.977l.016-1.942-1.929,1.946Z" transform="translate(1064.231 338.475)"/><path class="b" d="M123.366,138.959l-1.729,1.763h1.738Z" transform="translate(948.446 1097.285)"/><path class="b" d="M64.3,30.615l4.841-.046.067-4.862-4.925.009Z" transform="translate(474.977 162.417)"/><path class="b" d="M45.861,37.088l.029,2,1.967-1.98Z" transform="translate(322.931 256.362)"/><path class="b" d="M50.249,33.582l.021,2.072L52.291,33.6Z" transform="translate(359.151 227.429)"/><path class="b" d="M53.184,131.638l2.03,2.03.008-2.038Z" transform="translate(383.383 1036.781)"/><path class="b" d="M124.5,33.582h-2l2,2.022Z" transform="translate(955.502 227.429)"/><path class="b" d="M46.742,34.468l0,4.908,4.858,0,.013-4.912Z" transform="translate(330.169 234.672)"/><path class="b" d="M47.725,45.231h0l.042,3.642L49.943,45Z" transform="translate(338.284 321.657)"/><path class="b" d="M64.795,40.319c-9.264,7.515-16,17.538-20.342,30.3Z" transform="translate(311.31 283.037)"/><path class="b" d="M61.155,32.721l-6.458.046-.058,2.552.08-.05-.038.818Z" transform="translate(395.39 220.317)"/><path class="b" d="M51.125,37.589l12.961-.146.133-4.661-13.1-.071Z" transform="translate(366.312 220.231)"/><path class="b" d="M65.493,33.59l-8.814.076-4.34,8.742Z" transform="translate(376.412 227.492)"/><path class="b" d="M126.571,131.631l.008,2,2.005-2Z" transform="translate(989.174 1036.796)"/><path class="b" d="M46.174,37.628l1.954-.113.017-1.863Z" transform="translate(325.517 244.511)"/><path class="b" d="M77.52,82.752l3.508-.685L105.515,40.93C78.76,55.4,60.546,78.7,48.654,113.57L59.7,107.8C60.111,96.875,62.758,85.612,77.52,82.752Z" transform="translate(345.988 288.081)"/><path class="b" d="M125.7,132.523l.008,1.93,1.955-1.946Z" transform="translate(981.969 1044.023)"/><path class="b" d="M126.7,64.55V52.115l-8.507-.046Z" transform="translate(919.991 380.034)"/><path class="b" d="M834.786,816.365c.666-.592,1.323-1.185,1.981-1.768l.389-.342c5.414-4.822,10.486-9.329,13.049-14.835,31.873-68.374,60.332-135.915,58.527-210.369-1.546-63.516-5.025-128.474-10.365-193.082-1.592-19.176-10.319-38.787-18.648-55.427-10.162-20.3-21.471-40.489-32.419-60.008l-.444-.8c-7.672-13.669-15.6-27.81-23.081-41.9a63.851,63.851,0,0,1-3.609-8.376c-4.4-6.256-86.939-121.69-220.3-175.488a58.038,58.038,0,0,1-11.652-2.786C533.414,31,474.2,26.806,407.106,38.356c-69,11.874-119.025,31.346-162.2,63.136-2.638,1.943-5.867,2.378-9,2.8-.907.12-1.8.241-2.675.407-4.961,5.2-10,10.347-15.039,15.492-11.226,11.457-22.831,23.3-33.493,35.834-47.865,56.185-73.621,110.335-81.062,170.417-2.175,17.6-8.107,37.213-17.658,58.3A517.887,517.887,0,0,0,42.016,550.856C33.261,645.541,76.841,722.1,120.635,784.5,196.459,892.569,300.862,964.7,439.8,1005c54.214,11.735,162.532,18.694,278.558-66.292l-1.3-1.555,8.8-4.063c6.219-4.84,12.984-10.347,19.916-16.27l2.508-4.988-.231-.416.018-.037-.065-.12a13.3,13.3,0,0,1-1.629-4.081,3.756,3.756,0,0,1-.046-.962l-1.453-.037,2.86-2.8c.176-.194.389-.389.583-.583l21.628-21.452.009,10.791a48.288,48.288,0,0,0,4.785-1.925c6.8-6.765,12.966-13.2,18.852-19.648l1.12-1.222c.527-1.157,1.018-2.36,1.471-3.637l-8.894.083.953-1.471,22.378-34.205-.018,5.09,23.785-36.862Zm8.885-22.73-2.027-2.878a3.407,3.407,0,0,0-.352-.435c-.9-1.027-2.082-2.369-1.86-4.276a5.383,5.383,0,0,1,2.536-3.619l.222-.176a2.886,2.886,0,0,0,.361-.287l2.6-2.434,5.386,7.719Zm13.382-21.453-4.877,5.1L850,774.358c-.12-.157-.25-.3-.379-.444-.972-1.037-2.249-2.4-2.082-4.359.139-1.925,1.545-3.036,2.573-3.85.287-.231.454-.361.592-.5l2.508-2.462,5.488,7.367Zm7.543-15.067-8.079-.2V741.124l8.875.194Zm9.079-23.775-11.772-4.9,13.863-21.129Zm32.78-166.03,1.564,23.646-10.745.463V567.57ZM889.12,500.945h8.986v32.216l-8.986.083ZM886.242,624.1l5.59,7.959c7.2,10.236,14.983,25.21-.546,37.158l.2,1.647c.093.852.222,1.694.361,2.545l.074.527c1.055,6.83,2.508,16.2-9.44,20.185l-5.932,1.98,9.689-27.94Zm-2.045,5.655-3.693,12.79-3.535-2.536c-.49-.361-1.027-.694-1.555-1.027l-.379-.241c-2.055-1.3-4.165-2.628-5.572-4.8-1.555-2.425.343-4.831,2.36-7.385.555-.685,1.083-1.351,1.481-1.934l1.981-2.952ZM866.039,388.87l.777.527-.768-.537c.157-.231.324-.472.463-.713l3.582-6.219,3.4,11.587-5.9,10.338L865.511,397c-.056-.167-.13-.352-.194-.537l-.1-.3a7.653,7.653,0,0,1-.74-3.776A7.408,7.408,0,0,1,866.039,388.87ZM855.877,599.4l10,.065V625.1l-10-.046Zm2.212,46.459L854.137,656.2l-3.85-6.451a26.468,26.468,0,0,1-2.064-3.813c-1.064-2.406,1.055-3.869,2.323-4.748l3.582-2.739Zm-17.473-259.1h7.7v19.518h-7.7ZM822.357,251.41l3.887,13.817L814,263.089Zm-5.9,50.549L814.8,315.184,804.4,307.169Zm-13.975-.389-3.545-14.428,11.207,1.712Zm-9.116-29.8.028-.018a6.013,6.013,0,0,0,.546-.407l2.462-2.267,5.608,7.367-6.839,6.238L793.139,280a4.047,4.047,0,0,0-.333-.37c-.944-1-2.166-2.3-2-4.192A5.287,5.287,0,0,1,793.361,271.77ZM642.315,113.107l.065.231.074.231,1.194,3.1-9.791,3.008-3.211-12.068,4.831.944c.305.056.629.1.972.148a11.14,11.14,0,0,1,3.545.944A4.84,4.84,0,0,1,642.315,113.107ZM627.979,86.814a23.434,23.434,0,0,1,1.869-4.905l.231-.481c.194-.416.389-.824.555-1.24l3.211-7.358,3.1,9.171a24.88,24.88,0,0,1,1.49,5.312c.287,2.193-1.4,3.563-2.517,4.461-.278.222-.5.407-.676.574l-2.388,2.434-2.175-2.647a6.253,6.253,0,0,0-.6-.62C629.016,90.461,627.5,88.952,627.979,86.814Zm-84.19-40.971.777,6.682-16.344,1.166-.315-7.848Zm-82.848,5.9.139,9.708h-40.5l-.074-9.708ZM351.994,65.8,362.47,79.614l-16.039-3.905ZM340.407,78.133l-7.82,11.059-5.812-12.235Zm-25.08-4.387-.629,13.8-2.832.379-22.239.009h-4.155Zm15.141,91.409.694,1.471-13.6-1.175,7.783-10.958,3.8,7.95,2.425-3.757c15.964-24.747,33.5-31.707,58.749-23.211l7.95,2.665-67.819,27.005Zm-2.036,15.881c33.585-18.389,63.7-28.236,100.7-32.91,1.3-.176,2.665-.4,4.063-.629,11.281-1.86,18.722-1.721,22.258.435,12.92,7.774,26.45,6.154,40.767,4.433,3.433-.417,6.978-.842,10.5-1.12a22.744,22.744,0,0,1,7.441.963,24.768,24.768,0,0,0,6.469.972c9.07-.315,18.426,1.925,23.849,5.747,9.81,6.95,20.416,9.93,31.633,13.086,7.8,2.2,15.872,4.47,23.72,8.191,32.789,15.566,66.653,31.633,89.484,63.247,3.869,5.34,7.922,10.735,11.855,15.955l.333.454c21.406,28.44,43.544,57.861,48.911,96.027a51.937,51.937,0,0,0,4.109,14.632C772.4,408.823,777.23,442,769.753,474.93l-.352,1.481-8.524,3.9,8.959,8.625v1.3a59.4,59.4,0,0,1-.361,6.747c-.37,3.9-.778,8.227.611,10.264,17.029,24.784,10.495,54.871,4.183,83.968-1.6,7.385-3.119,14.363-4.229,21.184-1.157,7.172-2.073,13.771-2.952,20.166-4.137,30.05-7.126,51.762-29.893,81.941-8.413,11.152-21.314,23.461-33.8,35.372-9.718,9.282-18.889,18.037-25.719,25.969l-3.942,4.618a38.788,38.788,0,0,0-2.989,4.119c-1.657,2.545-3.1,4.748-6.358,6.154C628.6,806.2,599.734,818.4,567.879,831.506a51.081,51.081,0,0,1-18,3.6v.028l-2.036-.056-12.79-.444c-79.045-2.7-160.792-5.5-231.97-56.324-7.931-5.673-16.085-14.012-23.961-22.072-2.138-2.184-4.248-4.35-6.358-6.46-58.064-58.1-86.726-114.12-95.833-187.316-3.683-29.606-1.027-54.677,2.036-83.709V475.4c.416-3.933.657-7.82.888-11.568.944-15.122,1.758-28.245,13.058-31.892-.342-.592-.7-1.194-1.055-1.8-2.3-3.868-.093-7.894,1.86-11.448a20.97,20.97,0,0,0,2.2-4.859c19.009-81.321,34.03-145.549,94.084-199.1a26.909,26.909,0,0,0,2.85-3.156c1.823-2.221,3.674-4.47,6.367-5.8,5.692-2.795,10.421-7.746,14.983-12.531C318.547,188.7,323.045,183.989,328.431,181.037Zm-23.859-30.448-14.317,1.981-2.36,8.746L276.2,152l10.837-4.146,11.67-9.782Zm-32.512-39.407c.139-.12.287-.25.426-.389,1.074-1.018,2.573-2.3,4.387-2.129,1.971.176,3.11,1.786,3.785,2.749l.139.194a5.042,5.042,0,0,0,.333.416l2.193,2.471-2.628,2.018a5.767,5.767,0,0,0-.509.463c-.907.861-2.166,2.064-3.924,2.064-.12,0-.25-.009-.361-.019-1.98-.194-3.073-1.731-3.785-2.749l-.176-.231a3.343,3.343,0,0,0-.305-.389l-2.175-2.462ZM192,161.065c.056-.157.1-.333.148-.518a4.939,4.939,0,0,1,2.332-3.489,7.422,7.422,0,0,1,2.2-.666l8.5-1.49-19.75,22.905ZM180.161,383.012q.819-8.163,1.638-16.307l.75-7.5c2.119-21.221,4.294-43.164,6.858-64.8,1.12-9.421,3.091-18.963,4.822-27.385.6-3,1.212-5.988,1.8-8.986l-4.377-.518,1.055.666-2.341,3.72-.13-.083a2.235,2.235,0,0,1-1.768.731l-2.092-.083-.833-1.573a2.391,2.391,0,0,1-.231-2.277l-.083-.056,2.258-3.665.093.065,6.978-13-1.9.018,4.007-3.952,4.794-8.931v4.192l8.107-7.987.037,7.358,3.9-3.85h.629l14.734-12.392c11.809-9.93,25.2-21.184,38.509-32.234l1.259-1.055c9.662-8.061,20.62-17.167,36.186-11.291l4.525,1.712-3.47,3.378c-4.266,4.146-8.551,8.264-12.836,12.4-9.662,9.282-19.564,18.815-29.041,28.412-44.728,45.228-60.794,103.024-69.79,148.326-1.037,5.192-3.665,10.06-5.988,14.345-.759,1.416-1.527,2.85-2.258,4.285l-7.515,15.048ZM172.5,408.444l6.386-3.591-1.916,7.071c-1.453,5.377-3.11,10.8-4.7,16.048l-.194.62c-3.905,12.818-7.95,26.061-9.44,39.268-10.1,89.6,6.562,165.688,50.938,232.6,64.941,97.915,156.488,152.74,272.117,162.958,104.1,9.19,191.268-34.076,252.081-125,31.9-47.68,50.984-100.331,56.7-156.488.139-1.416.417-2.86.676-4.257l.055-.315a24.1,24.1,0,0,0,.694-6.774c-1.823-16.242-3.359-32.817-4.831-48.837l-.074-.768c-6.08-66.153-12.373-134.555-40.258-197.57-4-9-9.153-17.612-14.141-25.941-2.443-4.091-4.97-8.32-7.339-12.54L725.895,279c-3.5-6.145-7.071-12.429-10.208-18.843-1.481-3.045-2.4-6.321-3.794-11.281l-.213-.777c-.777-2.786-1.731-6.164-3.026-10.43l-2.008-6.626a11.831,11.831,0,0,1-6.515,2.36h-.352c-5.766,0-10.014-4.664-13.762-8.773l-.426-.472c-.472-.518-.925-1.027-1.4-1.509-33.3-34.789-76.657-55.029-118.562-71.724-13.521-5.4-28.847-7.533-43.664-9.6l-.416-.056c-4.526-.639-9.023-1.259-13.484-1.99-11.124-1.8-22.026-2.952-34.631-4.294-5.96-.629-12.188-1.3-18.87-2.082l-4.924-.574,2.721-4.155c8.237-12.633,16.575-18.2,24.988-20.018H424.662L435.2,131.08l-35.075,7.043-.185-.916-5.081-24.673H370.383l-57.962,33.854.018-5.377c.046-13.66,2.749-22.582,8.524-28.088,4.933-4.72,11.985-6.793,21.823-6.46q8.079.347,16.14.629l10.652.407.842-.583c2.471-1.666,4.9-3.378,7.321-5.081l.426-.305c7.533-5.312,15.326-10.81,23.785-14.937,7.071-3.443,18.26-5.229,25.08-1.8,18.074,9.107,34.5,4.452,51.891-.49,31.188-8.82,59.4,4.211,82.885,18.13l9.653,5.719H492.2c3,.5,6.016,1.231,9.051,2.045,13.6,3.683,27.672,6.765,41.267,9.745l.352.074q8.066,1.763,16.131,3.572a15.1,15.1,0,0,0,2.434.259c2.082.1,4.4.213,6.377,1.4,14.632,8.8,30.3,16.612,45.45,24.173,34.391,17.14,69.947,34.872,96.777,65.662,1.656,1.906,1.749,4.553,1.814,6.682l.009.259a19.781,19.781,0,0,0,.139,2.008l.2,1.323-.842,1.046a25.446,25.446,0,0,1-3.656,3.813l5.673,4.054c25.515,18.195,37.047,32.336,44.034,54.038,6.1,18.963,14.687,37.5,23,55.427l.1.222c8.228,17.751,16.723,36.1,22.869,54.982,14.678,44.95,19.786,92.279,15.2,140.672-.241,2.693-1.453,5.488-2.628,8.19a30.813,30.813,0,0,0-1.8,4.868c21.36,27.616,11.152,52.28,1.268,76.129-3.757,9.051-7.57,18.269-9.477,27.366-.555,2.628.305,5.988,1.721,11.55.416,1.657.889,3.489,1.37,5.525,1.286-2.388,2.462-4.544,3.554-6.525,3.767-6.839,6.238-11.328,7.561-16.094,10.208-36.38,19.278-75.352,8.561-116.674-4.979-19.167-7.321-38.6-6.765-56.186,1.74-54.251-16.659-102.422-34.89-142.375-2.758-6.053-5.47-12.142-8.181-18.241l-.546-1.24c-19.1-43.016-38.851-87.5-76.694-119.007-16.714-13.928-34.983-26.681-52.659-39.018-6.3-4.387-12.466-8.7-18.583-13.058-5.83-4.155-12.087-7.978-18.139-11.67l-1.194-.74q-2.54-1.555-5.062-3.119l-3.026-1.657-15.576-6.83-13.808-3.452,4.248-9.569,10.458,7.987.99-.213c3.832-.851,9.06-2.008,13.1.583,2.277,1.462,3.878,3.952,4.748,7.422l.694.046c36.788,2.564,63.377,14.493,83.663,37.528,6.71,7.635,15.863,13.651,24.692,19.472,3.082,2.027,6.525,4.294,9.829,6.626l.287-.435L729,189.32l15.354,15.335.916.537,3.332,3.248.037-7.959,16.187,17.038v-5.294l8.089,16.483v-.518l6.46,13.771H779.3l7.487,16.2-7.432.176c4.452,10.31,9.135,20.7,13.66,30.763,12.1,26.894,24.59,54.686,34.039,83.052,7.376,22.184,10.448,46.07,13.419,69.17.925,7.191,1.842,14.224,2.878,21.332,3.517,23.914,6.571,49.6,9.893,83.283,4.035,40.675-4.877,80.127-13.484,118.294l-.527,2.323c-.342,1.564-.7,3.119-1.046,4.674l10.439-4.849-1.342,13.475-9.486-6.895q-1.249,5.608-2.462,11.217l.231.4-.546,1.777-.546.963,2.536-.639.62,2.638h-.25a2.935,2.935,0,0,1-.907,1.814l-1.268,1.24-1.712-.5a2.881,2.881,0,0,1-1.259-.7c-1.037,1.768-2.082,3.517-3.119,5.275l-1.074,1.8c-5.109,8.579-10.9,18.306-15.89,28.107C767.356,814.31,699.87,871.8,605.851,902.129c-24.488,7.885-50.04,11.716-78.138,11.716-28.477,0-56.139-3.748-85.421-7.719-3.5-.472-5.682-3.489-7.607-6.145-.37-.528-.75-1.046-1.12-1.536l-.139.019c-22.656,3.859-44.691-.472-69.346-13.6-13.66-7.256-28.255-13.447-42.359-19.435l-3.258-1.379L339.9,884.4l10.069,6.127-1.018,2.027,22.868,2.092-4.988,12.152L347.69,895.049l-.019.056-.4.768-12.013-4.812c-35.9-8.931-65.283-30.661-89.706-66.412l-2.434-3.554-.7.694-8.07-7.913,4.081-4.424,3.239,2.49,5.09,5.553-2.258,2.24,13.216.4c-1.573-1.8-3.147-3.572-4.729-5.359L251.7,813.32c-8.551-9.68-17.269-19.537-25.312-29.708l-1.212-1.518h.028c-5.136-6.682-9.69-13.863-14.113-20.832-1.638-2.6-3.239-5.127-4.868-7.617l-11.661-17.917,16.251,13.9q4.026,3.443,8.015,6.95c7.746,6.756,15.752,13.734,24.136,19.972,4.35,3.239,8.977,6.21,13.558,8.986l-4.627-5.053c-13.484-14.724-27.431-29.958-40.628-45.552-39.712-46.885-61.331-94.556-66.1-145.707-.861-9.292-2.943-18.7-5.025-27.829-1.037,11.3.185,22.258,1.7,32.512,2.332,15.594,5.053,31.411,7.691,46.709L155.96,678.3l-9.32-18.917c-2.36-4.8-5.062-9.662-7.681-14.373-7.089-12.707-14.3-25.645-16.316-39.407-3.924-26.857-4.914-54.52-5.867-81.266-.389-11.1-.787-22.433-1.379-33.539l-.093-1.555-1.444.352-.787-3.174,6.006-1.416.305,1.314,14.706-9.773v42.979l.981-5.136c1.259-6.682,2.536-13.5,3.98-20.175.453-2.073.879-4.155,1.3-6.238l.065-.278A208.846,208.846,0,0,1,146.53,463.2a125.2,125.2,0,0,0,3.73-15.465C153.156,432.9,156.173,417.578,172.5,408.444ZM817.6,749.86l-11.855-1.1,7.163-13.151ZM670.375,894.29,668.932,906l-12.457-7.45Zm-17.408,19.444h-26.3l22.572-12.216Zm-77.6,5.646,50.5-2.286-3.952,5.219c-4.516,5.96-9.634,8.746-16.122,8.746-5.5,0-12.151-2.091-20.37-6.4Zm1.509,18.01H498.95l-.065-10.115h74.093Zm-104.4-8.459-5.59-.629a10.863,10.863,0,0,1-3-.546,4.314,4.314,0,0,1-2.471-2.934l-1.582-3.313,3.517-1.268c.324-.074.518-.129.7-.185a6.443,6.443,0,0,1,4.118-.222c2,.713,2.425,2.712,2.675,3.906a5.524,5.524,0,0,0,.139.583Zm-31.318-8.348H417.915l-.241-9.921,23.035-1.055Zm-40.786-17.056-.518,9.412-19.231-.944.49-9.569ZM155.516,715.461l-8.949-5.3c-10.948-6.478-16.122-16.816-15.354-30.716l.611-11.679Zm-13.9-274.088,2.082,12.79-25.414,2.989-2.489-13.743Zm-.963-7.3,6.83-24.192,3.369,18.8Zm2.388-169.214,3.147.444c.953.074,3.063.222,3.841,2.286a11.688,11.688,0,0,1,.564,3.2l.509,4.812-10.967-1.749Zm-7.45,164.882L128.15,437.4l-1.425-5.183c-.148-.546-.324-1.092-.5-1.647a23.7,23.7,0,0,1-1.157-5.109c-.157-2.064,1.333-3.387,2.314-4.267a5.985,5.985,0,0,0,.639-.583l3.711-4.118ZM116.007,289.382,129.63,256.7l-3.378,37.186-10.634-3.582ZM109.5,315.637h8.764v16.908l-8.764-.019ZM81.284,576.13l3.933-2.665,7.376,12.883-6.488.444c-.981.093-2.008.194-3.045.194A14.147,14.147,0,0,1,81,586.838c-1.629-.25-2.962-1.656-3.776-3.98a3.7,3.7,0,0,1,.528-3.961A17.184,17.184,0,0,1,81.284,576.13Zm-2.018-75.981-1.675-6.9q-.069-.292-.167-.583a8.469,8.469,0,0,1-.583-3.9,7.1,7.1,0,0,1,1.657-3.332c.194-.241.352-.444.481-.638l3.813-5.914,1.74,6.83c.046.157.1.333.167.5l.083.278a7.537,7.537,0,0,1,.546,3.72,7.184,7.184,0,0,1-1.666,3.341c-.213.259-.37.472-.518.676Zm6.339,115.73,9.347.028v18.269H85.606Zm9.033,38.7c.13-.167.25-.361.4-.574l.259-.379c.944-1.425,2.378-3.656,4.859-2.943a29.37,29.37,0,0,1,5.164,2.193l5.118,2.471-2.416,3.017c-.148.185-.3.416-.453.657l-.213.3c-.962,1.425-2.055,3.045-3.943,3.045a3.3,3.3,0,0,1-.953-.139,29.591,29.591,0,0,1-5.164-2.2l-4.988-2.443Zm-3.35-89.253c-14.53-7.172-9-18.695-4.97-27.135,1.573-3.286,3.063-6.4,3.554-9.125l.157-.851,5.942.537v10.671l14.437-56.935V601.785Zm2.869-142.643,10.736,7.931L92.4,435.412Zm-16.122,1.027,1.231-4.479,3.424,1.814a.878.878,0,0,0,.25.12c1.129.472,3.1,1.286,3.2,3.5a8.77,8.77,0,0,1-.555,3.165l-1.212,4.442-3.905-2.008c-.925-.379-2.924-1.185-2.989-3.424A9.007,9.007,0,0,1,78.035,423.714Zm-6.117,31.679.12-.083a2.414,2.414,0,0,1,.1-2.193l.713-1.629,1.758-.2a2.38,2.38,0,0,1,2.249.657l.083-.037,1.657,2.184,13.484-7.459v18.648l-22.128-6.414,3.221-1.777Zm-2.184,64.4,7.246-.407,1.333,16.39-8.579.3ZM61,478.456l8.144-.046v17.038l-4.711-1.638c-.925-.25-3.248-.87-3.35-3.3-.111-2.378-.1-4.8-.093-7.145Zm5.9,80.211,1.074.416.777-1.055L78.979,565.5l-5.849-2.341-2.517,2.554c-5.025,5.127-8.339,7.32-11.078,7.32a5.007,5.007,0,0,1-1.879-.379c-3.646-1.527-3.563-6.2-3.48-10.717.028-1.592.083-4.757-.3-5.414L46.532,543.97Zm-17.963,79.8,8.5-44.339-2.712,2,3.924-8.329,1.647-8.616L61.6,582.3l5.238,1.86-.194,1.175a4.835,4.835,0,0,1-1.3,2.98l-.916.666,18.454,43.849-12.827,5.6-5.062-12.966-5.479,15.113ZM60.858,652.8h8.588v15.89H60.858ZM67.133,684l7.552-12.957,3.878,14.5Zm32.021,43.553-.592-15.317-7.6-1.055v-.815l-.148-14.78-7.876.083L82.709,669.5l-8.681-13.715,11.9-5.136,1.777,18.389,9.023,25.385,7.681,16.918,8.811,16.917ZM112.777,686.6,99.441,679.08l15.391-3.906Zm2.2-44.191.925.176-.916-.176.1-.518c.259-1.333.518-2.591.639-3.831l.093-.787c-4.785-1.934-7.82-4.785-9-8.487-2.129-6.617,2.23-14.123,6.265-19.916l4.8-6.886,3.156,33.419,9.051,28.662-5.581-1.694C111.759,658.489,113.7,648.817,114.98,642.413ZM365.672,971.6l-14.946-9.014-23.155-12.207,28.079-.675-.305,8.708h14.243Zm19.379,5.655a9.425,9.425,0,0,1-3.248-.722,4.608,4.608,0,0,1-2.323-3.341l-1.1-2.943,2.925-1.472c.389-.12.583-.194.787-.268,1.6-.565,3.72-1.333,5.377.342a6.9,6.9,0,0,1,1.657,3.776l.065.324a3.977,3.977,0,0,0,.111.5l1.259,4.553ZM431.7,988.346l.213-9.588-.111-.018-.333-.065-2.656-.472.074-.176a2.472,2.472,0,0,1-1.3-1.61l-.629-1.666,1.166-1.36a2.5,2.5,0,0,1,1.8-1.064v-.139l4.035.694-.167.907,20.777,4.84Zm61.766,15.733a15.592,15.592,0,0,0-.861,1.323l-.148.25c-1.175,1.962-2.5,4.193-5.053,4.47-.213.018-.417.037-.639.037-2.008,0-3.739-1.055-5.756-2.277-.963-.583-1.99-1.212-3.2-1.833l-9.421-4.84,29.3-2.684ZM812.583,796.162c-7.478,11.041-15.492,21.934-23.951,32.549l7.746-9.4-5.59,16.168a2.487,2.487,0,0,0-.1.417,5.284,5.284,0,0,1-2.2,3.785,8.422,8.422,0,0,1-2.555.916l-8.542,1.749c-.546.639-1.074,1.268-1.611,1.9l2.888-.046-13.771,31.873.194-19.787c-6.737,7.385-13.262,14.132-19.824,20.5l12.253.25-17.075,15.715.093-11.457c-2.166,2.036-4.405,4.091-6.8,6.229a390.969,390.969,0,0,1-101.312,67.226,337.629,337.629,0,0,1-58.36,19.536,322.892,322.892,0,0,1-61.35,7.21,336.637,336.637,0,0,1-43.053-3.193l-4.387,12.29c-.037.12-.056.259-.083.4a4.848,4.848,0,0,1-2.147,3.443,7.772,7.772,0,0,1-2.332.777l-8.616,1.61,16-18.75q-8.607-1.249-16.844-2.98c-3.267-.546-6.543-1.434-9.727-2.286-1.823-.49-3.508-.935-5.2-1.342-1.268-.352-2.462-.657-3.656-.953l-.6-.157a99.886,99.886,0,0,1-10.717-3.128l-28.421-9.681c-46.181-17.751-79.6-34.372-108.392-53.927a471.2,471.2,0,0,1-91.7-78.406c-4.535-4.729-8.681-9.939-12.67-14.983l-.6-.759c-1.971-2.48-3.952-4.951-5.96-7.367l-4.229-5.71c-4.516-6.108-9.2-12.429-13.373-18.981a291.606,291.606,0,0,1-23.377-41.184l-9.579-9.107,6.969,3.2c-.851-1.99-1.666-3.989-2.434-5.942l-.333-.833,5.534-2.489.4.805c2.175,4.285,4.572,8.709,7.145,13.142a4.894,4.894,0,0,1,3.258,2.425,7.052,7.052,0,0,1,.546,2.156l.268,2.24c5.877,9.5,12.522,19.139,20.333,29.458,4.405,6.034,9.3,11.837,14.049,17.445l4.489,5.34c2.369,2.462,4.831,5.192,7,7.6,4.22,4.646,8.459,9.338,13,13.5A497.921,497.921,0,0,0,295,887.219c29.356,18.287,63.821,34.418,105.384,49.3l27.783,9.088a81.579,81.579,0,0,0,9.31,2.684l.6.148c1.3.306,2.6.62,3.906.972,1.61.38,3.322.824,5.035,1.277,2.712.713,5.784,1.527,8.709,1.99a296.978,296.978,0,0,0,56.815,5.553,301.786,301.786,0,0,0,56.546-6.265,335.142,335.142,0,0,0,54.362-17.7c33.188-14.224,65.977-34.9,97.462-61.461,28.449-23.942,55.3-52.558,79.822-85.051,26.746-35.39,45.468-68.726,57.231-101.932l.305-.842,5.794,1.731-.2.87c-4.285,17.778-11.208,36.232-21.166,56.408a468.928,468.928,0,0,1-30.115,52.16Z" transform="translate(281.856 214.478)"/><path class="b" d="M124.05,134.545l12.27-16.267-12.234,5.879Z" transform="translate(968.359 926.566)"/><path class="b" d="M95.922,118.69c-.611,0,.611.018,0,0Z" transform="translate(734.72 929.969)"/><path class="b" d="M61.713,54.589l-3.575.033.021,6.763Z" transform="translate(424.271 400.83)"/><path class="b" d="M119.852,126.4l-2.047-.025.034,2.047Z" transform="translate(916.815 993.437)"/><path class="b" d="M81.441,130.737,66.362,115.625l5.033,14.8Z" transform="translate(492.167 904.671)"/><path class="b" d="M97.279,249.388c22.85,11.356,46.8,21.527,69.966,31.374,9.19,3.906,18.371,7.8,27.514,11.791l.9.389,1.009.046c4.979.213,9.958.361,14.946.5,11.892.333,24.173.685,36.186,2.11,55.538,6.571,111.825-5.96,172.064-38.389,41.452-22.35,78.961-56.815,111.473-102.459,10.393-14.595,20.351-30.689,23.84-49.939a84.465,84.465,0,0,0-7.765,10.384l-1.647,2.434c-31.207,45.728-66.579,97.545-125.642,128.752-107.013,56.528-210.888,55.963-317.595-1.684-10.264-5.544-21.212-10.31-31.809-14.928l-.879-.37.259.2C78.64,236.932,87.469,244.511,97.279,249.388Z" transform="translate(520.865 815.401)"/><path class="b" d="M98.251,145.578,77.3,118.046l-11.966-.417C72.153,128.725,81.953,140.97,98.251,145.578Z" transform="translate(483.661 921.211)"/><path class="b" d="M123.213,61.3l.009-6.687-3.517-.025Z" transform="translate(932.485 400.856)"/><path class="b" d="M120.757,125.513l-2.08-.008.017,2.072Z" transform="translate(924.013 986.224)"/><path class="b" d="M90.423,211.393c7.552-20.509,15.363-41.72,24.4-62.007,9.412-21.092,21.286-41.452,32.752-61.146,5.756-9.875,11.707-20.092,17.269-30.254a79.922,79.922,0,0,0,4.887-11.874c.1-.278.194-.565.287-.842-23,15.428-35.066,39.036-43.081,58.24-12.836,30.763-25.608,62.155-37.954,92.52-14.558,35.788-29.606,72.788-44.867,109C25.149,350.047,19.966,389.6,27.8,429.527c4.6,23.451,6.737,47.745,8.8,71.252.851,9.671,1.7,19.352,2.721,29,5.627,53.418,25.339,102.8,60.147,150.51q-.9-2.416-1.8-4.859c-6.284-16.992-12.781-34.585-21.517-50.512-16.39-29.884-25.617-60.045-28.208-92.214a673.726,673.726,0,0,0-9.134-67.4C26.843,399.828,34.191,340.4,61.27,283.653,72.422,260.276,81.575,235.427,90.423,211.393Z" transform="translate(144.816 323.906)"/><path class="b" d="M41.045,46.048l-.384,7.742,6.863-10.931L41.051,46.04v.006Z" transform="translate(280.012 304.005)"/><path class="b" d="M40.7,43.211l0,0V43.2l-.005,0Z" transform="translate(280.354 306.843)"/><path class="b" d="M88.5,170.191C73.489,154.958,57.645,140,42.328,125.555c-1.74-1.656-3.489-3.3-5.238-4.961,12.124,20.453,30.235,35.992,47.838,51.086q4.262,3.665,8.505,7.339l-.019-.056.426.389C92.424,175.79,90.841,172.57,88.5,170.191Z" transform="translate(250.531 945.694)"/><path class="b" d="M152.53,138.8l.113-.067-21.933.109-7.619,14.126.359,3.141L152.569,138.8Z" transform="translate(960.45 1095.422)"/><path class="b" d="M126.311,138.8l.112-.066h-.038l-.113.067Z" transform="translate(986.708 1095.422)"/><path class="b" d="M54.255,149.808,48.036,130.78l-6.571-6.487-11.106-5.423C34.274,131.816,40.373,143.885,54.255,149.808Z" transform="translate(194.968 931.447)"/><path class="b" d="M48.747,133.869l-4.828-4.809-.81-.807-7.986-3.943,12.033,18.914Z" transform="translate(234.288 976.359)"/><path class="b" d="M36.322,132.988l5.856,5.831,9.879-.61L36.348,123.381Z" transform="translate(244.194 968.691)"/><path class="b" d="M119.782,141.363l-.125,9.424,9.6-4.745-4.736-4.661Z" transform="translate(932.098 1117.127)"/><path class="b" d="M121.422,142.585l2.406-1.211-2.373.008Z" transform="translate(946.665 1117.217)"/><path class="b" d="M31.94,118.725l0,1.754.844.008-.008-.017h.013Z" transform="translate(207.977 930.258)"/><path class="b" d="M132.765,143.126h.894l-.292-.743Z" transform="translate(1040.305 1125.547)"/><path class="b" d="M546.689,274.535a43.83,43.83,0,0,0-3.915,6.321c-1.721,3.646-3.841,7.339-5.886,10.911-5.849,10.217-11.383,19.87-8.662,28.745,1.888,6.154,7.654,11.513,17.64,16.4,2.665,1.314,3.471,6.4,3.5,6.6.3,1.9.037,3.156-.805,3.952-9.523,9.107-5.664,16.77-1.212,25.645,2.73,5.433,5.562,11.069,5.007,17.131-.167,1.823-.268,3.73-.38,5.682-.453,8.126-.916,16.52-5.451,21.85-4.849,5.719-5.062,11.485-5.275,17.6a43.91,43.91,0,0,1-1.138,9.986c-12.272,45.209-26.052,84.126-70.614,102.515l-2.462,2.378-.176-1.286-5.386,2.212,4.877-5.886-1.4-9.977-.176.148c-17.1,13.891-33.262,27.042-57.629,16.335l-3.165-1.379,2.656-2.221c2.508-2.064,4.887-4.155,7.228-6.2A161.726,161.726,0,0,1,428.84,529.92c70.447-48.06,93.936-112.954,73.918-204.215-5.979-27.3-3.887-56.658-1.869-85.06.879-12.318,1.777-25.062,2.008-37.417a7.975,7.975,0,0,1,1.157-3.72l-.018-.009.074-.1.037-.083c-15.5-2.517-21.573-15.964-26.959-27.931l-.1-.241C455.355,122.86,420.566,91.393,373.691,77.6c-5.562-1.629-11.124-3.322-16.7-5.025-49.67-15.1-101.043-30.735-154.2-5.155-14.271,6.876-23.553,11.911-32.1,23.8-6.895,9.579-16.529,17.2-25.858,24.571-5.488,4.35-11.171,8.848-16.2,13.669-25.95,24.914-41.378,51.567-47.162,81.479-1.518,7.866-4.359,15.511-7.117,22.915-2.8,7.561-5.7,15.372-7.1,23.22-9.671,54.52-5.238,101.58,13.558,143.846,2.129,4.794,4.2,9.6,6.275,14.391,10.726,24.849,20.86,48.319,38.324,69.966,38.166,47.282,85.19,73.566,148.011,82.747,43.266,6.321,83-4.646,119.951-16.455l1.277-.407.916.972c4.553,4.775,5.247,11.115,5.858,16.7.861,7.9,1.49,13.651,11.133,14.632l7.959-3.97-3.5,4.35,2.924.241-5.692,3.23c-5.322,6.571-10.467,9.468-15.807,9.07-6.349-.565-12.346-5.84-19.453-17.353v23.748l-58.268,11.828-2.962-9.69,18.889-8.69-.657-3.711-41.591,2.98.9,20.4-40.2-27.8c-.416,1.684-.759,3.378-1.1,5.044-1.12,5.507-2.082,10.263-5.4,12.031-16.325,8.653-26.681-2.008-34.659-13.577l-.842-1.212,7.866-11.439c-3.406-1.416-6.784-2.86-10.18-4.294-10.661-4.526-21.7-9.208-32.734-13.225-6.062-2.221-12.42-3.646-20.462-5.46-4.128-.925-8.653-1.944-13.753-3.221l-.611-.148L75.633,481.425l.018.083-.268-.3c.083.537.167,1.064.25,1.6,1.259,8.153,2.453,15.863,6.293,21.795,34.548,53.455,77.832,87.494,132.343,104.069,50.79,15.437,100.738,28.431,152.99,18.01a16.832,16.832,0,0,1,9.8,1.472l.056-.037.037.028c5.7-2.934,10.837-5.608,15.6-8.079,9.828-5.109,18.065-9.394,26.385-13.475,84.616-41.517,132.6-111.214,142.652-207.149,2.989-28.56-1.148-58.462-5.155-87.392-1.7-12.281-3.452-24.969-4.655-37.417a25.336,25.336,0,0,0-2.591-1.018c-.537-.194-1.092-.4-1.638-.6C547.4,273.527,547.05,274.026,546.689,274.535Zm-359,235.237a4.27,4.27,0,0,1-2.795-.935l-.5-.62-2.971-3.36-6.006-5.534,11.393-4.748-.99,9.866,3.063,1.249Zm-1.907-19.028-1.694-.861c-20.61-10.421-31.827-27-44.339-47.588-1.953-3.2-3.943-6.358-5.932-9.514-8.542-13.53-17.38-27.524-21.323-43.914-2.989-12.411-5.321-25.173-7.58-37.51-.962-5.238-1.916-10.476-2.925-15.7l-.62-.481.009-.046-9.245-7.524,7.922,1.3a5.876,5.876,0,0,0,.731.056,5.846,5.846,0,0,1,2.341.472l15.159-40.129L80.815,258.932l28.9-28.532-14.7-12.957,13.151-33.567L141.4,194.537a44.949,44.949,0,0,1-.093-9.921c.333-5.359.648-10.4-2.138-13.484-2.11-2.332-5.96-3.572-11.781-3.794l-2.3-.092.259-2.286c2.647-23.248,18.7-34.233,32.873-43.914l2.878-1.981C183.3,103.721,208.364,89.82,237.72,76.6c14.16-6.386,32.669-3.961,39.953-2.61,15.4,2.832,30.781,7.394,47.069,12.216,7.339,2.175,14.984,4.433,23.1,6.7L357,95.447l-9.357,1.62c-71.012,12.327-77.369,13.438-99.063,3.221l8.19,12.559-46.413,13.623-64.589,71.41-7.9,45.209-1.027.463c-2.943,1.351-5.507,1.546-7.6.574-3.563-1.666-4.748-5.96-5.9-10.125-.814-2.915-1.731-6.247-3.23-6.719-.6-.167-2.415-.241-6.747,3.239l-.426,2.184c-2.129,10.819,5.562,15.067,13.688,19.574,1.786.981,3.545,1.962,5.173,3l1.092.676-.093,1.277c-9.051,126.679-2.314,139.5,61.785,217.662l1.009,1.222ZM93.865,289.611l8.431-1.277,3.646,19.472-9.394,1.509ZM304.8,138.972l-7.339,2.3-2.36-8.959,3.1.333c.278.037.574.046.87.055a7.422,7.422,0,0,1,3.137.62,3.785,3.785,0,0,1,1.768,2.962,5.541,5.541,0,0,0,.148.62Zm65.69,380.046q-4.6,1.541-9.181,3.091c-3.35,1.148-7.052-1.555-11-4.424-1.175-.851-2.341-1.694-3.461-2.406-33.8,18.9-70.817,18.565-102.94,15.391l11.291,23.3-32.345-20.027,16.64-6.164c-.435-12.448-6.414-19.333-18.269-21.064-10.319-1.509-14.909-7.015-14.03-16.825l-7.432-2.406,7.663-8.1,2.749,7.422c.3-.046.592-.083.879-.139,2.212-.342,4.7-.731,6.636.472,38.3,23.489,80.785,24.812,128.178,24.072l.861-.009c1.712-1.138,3.406-2.314,5.1-3.48,4.137-2.851,8.422-5.8,12.892-8.348,5.71-3.239,11.661-6.284,17.408-9.227,10.6-5.442,21.554-11.05,31.226-17.982,43.756-31.337,51.669-76.222,50.087-133.972-.222-8.052-1.638-16.288-3.008-24.257q-.43-2.5-.851-4.979a135.063,135.063,0,0,0-27.866,59.517,7.243,7.243,0,0,0,1.046-.3,6.692,6.692,0,0,0,.759-.944,7.538,7.538,0,0,1,1.99-2.092,44.094,44.094,0,0,1,4.84-2.591l4.794-2.416.157,3.3c2.749,58.9-22.415,91.927-72.742,95.666l-.046.861-.666-.611c-13.688,17.519-32.429,17.6-50.559,17.649-8.2.018-16.659.037-24.3,1.777-8.672,1.962-18.537-2.721-28.088-7.256-.7-.342-1.425-.685-2.156-1.018L256.1,466.553l-.055.018v-.037l-23.812-8.866-1.823-1.212,1.555-1.564,6.932-9.782-11.883-2.758.065,7.83-2.508-.407c-32.114-5.34-49.291-32.836-56.667-48.754-23.572-50.855-43.756-105.485-9.9-164.929l1.2-2.11,1.943,1.472c16.177,12.253,10.606,29.254,6.913,40.5l-.361,1.1c-10.615,32.558-3.517,62.923,4.007,95.046l.491,2.092c.361,1.555,1.647,3.1,3.128,4.7a77.859,77.859,0,0,0-.7-8.542c-1.1-9.255-2.341-19.7,7.552-27.718l-.046-.093.861-.592c-.685-4.34-1.481-8.681-2.286-13.021-2.008-10.93-4.091-22.23-4.276-33.474-.055-3.276-1.055-7.015-2.1-10.976-2.008-7.543-4.081-15.344-.231-21.961,2.48-4.248,7.071-7.33,14.021-9.375-.009-.176-.018-.352-.037-.546-.3-4.581-.907-14.095,3.461-21.3l2.527-4.174,12.151,42.266,2.573-34.733,8.977.231-.028,19.361c-.019,12.744-.046,25.488.055,38.222.324,42.017,13.364,54.233,58.073,74.436,34.159,15.418,63.932-2.018,82.885-19.361,12.79-11.7,27.264-27.866,27.579-50.161-4.535,3.406-7.58,8.672-10.782,14.2-5.923,10.245-12.624,21.869-30.615,26.172l-4.683,1.12,39.018-71.419.379,1L369.868,222.5,345.593,208l4.627-1.4c8.514-2.591,14.511-2.453,18.315.435,3.285,2.471,4.794,6.691,4.766,13.253l11.735,5.081.009-.046.028.019,1.055-11.587c-.167-.315-.342-.629-.518-.944a20.454,20.454,0,0,1-2.092-4.609c-.426-1.546.666-2.6,1.86-3.5-9.134-12.549-22.618-16.251-36.871-20.166-8.588-2.369-17.473-4.8-25.3-9.366-20.527,18.824-41.767,11.846-60.535,5.682-3.5-1.157-6.932-2.286-10.3-3.23l-46.357,21.915,12.512-25.821-39.185,37.185-1.444-1.925c-5.534-7.441-7.6-14-6.321-20.046,1.231-5.831,5.673-10.939,13.2-15.187,8.607-4.859,17.26-9.625,25.913-14.391l11.744-6.478,14.641-7.052-1.425,2.314,4.683-3.267c6.432-4.5,13.216-8.413,18.815-6.682,3.082.944,5.5,3.415,7.348,7.524l.065-.028.555,1.453,44.321,6.515,11.356-49.568,37.223,8.5-3.961-13.1,2.443-.37c26.533-4.063,44.765,11.207,61.155,27.172,50.216,48.9,72,106.42,64.728,170.953-.241,2.175-.509,4.368-.777,6.552-2.443,19.953-4.757,38.787,8.811,55.908,2.545,3.221,4.711,8.894,3.72,13.068-1.768,7.413-3.267,15.169-4.729,22.656-3.905,20.1-7.941,40.9-17.547,58.481-10.273,18.769-32.4,32-51.938,43.673C405.99,507.1,387.943,513.159,370.489,519.018ZM280.273,239.4l-19.157,2.878.935-3.211c5.016-17.2,6.025-17.815,26.931-17.019l3.471.13-8.505,15.354,15.335,15.307-16.325,10.254c-1.712,1.555-3.359,3.258-4.988,4.951-3.887,4-7.9,8.135-12.873,10.578-7.607,3.73-15.872,6.376-24.618,9.181-3.961,1.277-8.107,2.6-12.448,4.109l-2.841.981V241.672l5.942-1.509.916,2.064,5.312,24.9c6.941,2.147,12.651-1.536,18.722-5.433,7.006-4.516,14.872-9.579,24.284-3.665ZM340.2,255.711c3.693,2.582,6.053,6.95,7.2,13.382h14.715l-3.387,10.18-13.975-7.265-46.57-14.326,12.364-2.314C323.363,252.944,333.488,251.01,340.2,255.711Zm-26.182-33.659,10.032.99-5.914,8.718Zm11.115-22.711,7.246-1.555L335.7,203.2l-3.841.74a10.606,10.606,0,0,1-2.406.352l-.315-.009c-1.546-.083-2.147-1.434-2.5-2.24ZM339.624,347.62l-2.434.509c-.925.185-1.823.426-2.712.657a24.607,24.607,0,0,1-6.182,1.073,9.118,9.118,0,0,1-1.222-.074c-2.166-.231-2.841-2.619-3.619-5.4-.231-.8-.453-1.61-.694-2.258l-.768-2.008,13.031-4.859Zm-83.367-19.713c-9.736.565-21.9,1.222-23.22-21.786l-.3-5.192,24.932,22.452L285.6,280.866l1.638,3.378c5.7,11.652.925,21.971-3.295,31.068-4.359,9.4-8.126,17.538-1.638,26.441l.009.009,17.575-4.035-2.786,19.528-15.789-12.087-.777-.019c-1.62-.046-3.35.037-5.062.092-6.46.259-13.132.481-16.881-4-2.415-2.878-3.128-7.265-2.184-13.345Z" transform="translate(458.506 394.503)"/><path class="b" d="M92.534,100.546l.111.592-4.544-4.3L74.9,89.81c3.174,13.058,9.662,21.527,20.12,26.274l-.685-13.364Z" transform="translate(562.675 691.572)"/><path class="b" d="M90.376,113.575c-5.9-8.2-10.236-17.593-14.336-26.8l5.932,32.382,2.693,2.638-.009-.139,3.137,3.2.5.361c1.684,1.194,3.406,2.341,5.127,3.5a113.788,113.788,0,0,1,10.884,7.95c45.348,39.055,91.483,43.368,140.728,13.031a108,108,0,0,0-15.89,4.035C178.416,171.7,120.065,154.832,90.376,113.575Z" transform="translate(572.053 666.503)"/><path class="b" d="M81.176,72.081l2.423-2.3L80.374,76.23,107.5,65.248l-21.353-1.2Z" transform="translate(607.828 478.889)"/><path class="b" d="M123.117,91.885l-3.242-15.546-23.1,11.236.033.084,6.725,18.02Z" transform="translate(743.232 580.371)"/><path class="b" d="M156.614,112.958l-8.533,8.163-2.73-8.431-18,2.508,14.928,18.065-1.092,1.351c-29.8,37.306-51.308,83.607-65.746,141.542-1.971,7.9-6.71,15.067-11.282,21.989-1.546,2.332-3.128,4.729-4.59,7.126.148,1.055.333,2.1.528,3.156a31.219,31.219,0,0,1,.759,8.718c-6.617,65.19-1.536,117.507,15.964,164.642,1.231,3.332,2.249,6.876,3.23,10.319,3.674,12.855,7.163,25.043,22,28.431l-1.564-5.321c-2.018-6.932-4.044-13.864-6.21-20.749q-6.483-20.643-13.021-41.248-8.482-26.765-16.89-53.566a17.938,17.938,0,0,1-.518-9.125c5.183-21.823,8.024-44.58,10.773-66.606,4.516-36.158,9.19-73.538,24.3-107.91,10.763-24.47,24.3-48.846,50.263-61.414,5.867-2.841,10.393-6.469,10.541-8.44,1.842-24.034,18.1-35.048,33.835-45.7,7.376-5,15.011-10.162,20.8-16.575,4.378-4.84,11.05-7.4,14.632-8.5,34.659-10.56,68.42-4.35,94.222,2.471l13.993-17.473,1.629,2.378C363.578,98.7,395.933,106.332,440.4,86.619,383.855,61.6,330.168,49.165,276.417,48.591l-4.3-.046.731-.944L271,47.61,151.182,110.792Z" transform="translate(423.669 343.148)"/><path class="b" d="M117.083,71.262c18.38,19.564,33.863,41.757,48.828,63.219,9.477,13.586,19.287,27.644,29.689,40.841,7.7,9.754,7.265,20.9-1.212,32.336,8.163,4.5,7.755,12.355,7.394,19.379-.2,3.989-.4,7.755.861,10.81,5.719,13.743,10.227,24.59,26.348,26.792-5.858-43.581-15.65-93.676-42.405-137.775-22.471-37.037-51.234-62.053-85.6-74.445l.472.583C106.459,59.119,111.623,65.44,117.083,71.262Z" transform="translate(778 382.919)"/><path class="b" d="M202.421,142.679c-14.317-33.484-41.3-60.072-74.056-72.974-7.829-3.082-16.224-4.6-25.117-6.21-3.359-.611-6.738-1.222-10.125-1.925-.62,19.009,5.59,28.551,20.5,31.735,19.731,4.22,35.631,16.936,47.282,37.8,10.458,18.759,19.657,38.583,28.569,57.74,3.461,7.469,6.941,14.919,10.495,22.341l1.388-1.148-.722,2.564c.167.352.324.7.49,1.046l4.9,10.2-2.9-2.693,3.739,10.356C216.608,203.622,215.081,172.313,202.421,142.679ZM185.466,152.3l-2.684-13.919,7.469.639Z" transform="translate(712.717 458.467)"/><path class="b" d="M90.723,107.507l.148-.2,1.758.065c4.452,1.471,9.051,3.433,13.5,5.331,10.486,4.489,21.314,9.107,29.837,6.96,4.757-1.212,10.115-1.49,15.789-1.777,15.964-.824,31.068-1.592,34.067-22.193-3.5.416-7,.87-10.5,1.314-29.467,3.785-59.915,7.709-88-8.005-3.369,4.674-6.969,10.578-5.553,14C82.653,105.129,85.661,106.637,90.723,107.507Z" transform="translate(616.693 684.869)"/><path class="b" d="M101.009,159.819l3.147,6.4c1.175-.259,3.156-.814,5.09-1.342,1.434-.407,3.063-.851,4.84-1.333-27.561-21.9-29.921-50.994-28.569-83.94-11.189,12.92-9.569,23.257-6.71,30.994C85.026,127.4,93.151,143.873,101.009,159.819Z" transform="translate(577.588 607.283)"/><path class="b" d="M93.657,128.9c.361.028.731.065,1.1.083,4.775.379,9.69.74,12.013-1.129,14.595-11.818,23.461-26.432,26.45-43.534Z" transform="translate(717.476 646.27)"/><path class="b" d="M98.5,114.575c-1.888,2.508-2.138,6.589-2.4,10.921l-.009.176c17-10.134,25.164-21.869,25.858-37.26q-1.832,1.916-3.674,3.831C111.461,99.342,104.428,106.69,98.5,114.575Z" transform="translate(737.552 680.032)"/><path class="b" d="M104.157,95.857l4.8-16.936C103.166,84.094,102.389,86.834,104.157,95.857Z" transform="translate(797.238 601.686)"/><path class="b" d="M99.342,115.277,111,96.331,100.98,91.753Z" transform="translate(764.408 707.608)"/><path class="b" d="M91.793,66.524l.719-.05-.076-.275Z" transform="translate(702.086 496.661)"/><path class="b" d="M85.628,66.457h0Z" transform="translate(651.2 498.798)"/><path class="b" d="M88.727,66.6l.009-.163-2.164-.1Z" transform="translate(658.988 497.838)"/><path class="b" d="M83.732,98.824l1.812-.434L83.815,97.7Z" transform="translate(635.547 756.742)"/><path class="b" d="M100.177,84.737l0,0,0,0Z" transform="translate(771.293 649.661)"/><path class="b" d="M133.782,142.776l-.315.213c.037.389-.028.777-.019,1.166h.879Z" transform="translate(1045.94 1128.792)"/><path class="b" d="M69.827,152.159a20.219,20.219,0,0,0-6.21,1.74l4.35,3.35,4.285-3.137A8.981,8.981,0,0,0,69.827,152.159Z" transform="translate(469.504 1206.246)"/><path class="b" d="M30.293,132.563l1.527,3.554,6.053-2.517a11.005,11.005,0,0,0-3.924-2.61,10.493,10.493,0,0,0-3.165,1.3C30.626,132.387,30.46,132.48,30.293,132.563Z" transform="translate(194.423 1031.465)"/><path class="b" d="M157.019,70.344a12.824,12.824,0,0,0-.685-1.721c-.166.055-.342.12-.518.185Z" transform="translate(1230.582 516.679)"/><path class="b" d="M154.779,60.2a13.477,13.477,0,0,0-1.731.676c.055.167.129.352.185.528Z" transform="translate(1207.733 447.166)"/><path class="b" d="M151.388,55.875l1.536-1.194a12.12,12.12,0,0,0-1.721.676C151.258,55.523,151.332,55.7,151.388,55.875Z" transform="translate(1192.503 401.591)"/><path class="b" d="M154.859,113.588l-.743.292.743.6Z" transform="translate(1216.549 887.854)"/><path class="b" d="M143.785,136.559v-.885l-.743.292Z" transform="translate(1125.137 1070.162)"/><path class="b" d="M46,143.354l1.212,1.546a14.5,14.5,0,0,0-.685-1.74Z" transform="translate(324.089 1131.962)"/><path class="b" d="M46.8,144.394c.583.472,1.157.926,1.749,1.324l.065-.074-1.379-1.684Z" transform="translate(330.725 1138.558)"/><path class="b" d="M48.572,145.9l-.083-.065L46.8,147.2l.444.444C47.72,147.048,48.164,146.475,48.572,145.9Z" transform="translate(330.717 1154.052)"/><path class="b" d="M54.957,147.675l-1.694,1.37.444.444c.472-.583.925-1.157,1.323-1.74Z" transform="translate(384.035 1169.232)"/><path class="b" d="M46.8,149c.583.463,1.157.916,1.749,1.314l.065-.074L47.24,148.56Z" transform="translate(330.725 1176.538)"/><path class="b" d="M60.765,153.476l1.212,1.546a12.381,12.381,0,0,0-.676-1.74Z" transform="translate(445.962 1215.517)"/><path class="b" d="M45.968,19.725l-.743.3.743.6Z" transform="translate(317.678 113.041)"/><path class="b" d="M31.307,123.306l-1.228-1.22v1.22Z" transform="translate(192.657 958.007)"/><path class="b" d="M39.307,132.209v1.22h1.224Z" transform="translate(268.835 1041.564)"/><rect class="b" width="1.016" height="0.032" transform="translate(444.787 135.999)"/><path class="b" d="M281.213,600.429c-1.916,9.625-4.84,14.669-9.144,15.835-6.256,1.731-12.4-5.386-18.371-12.244a150.111,150.111,0,0,1-10.569-14.3c-5.275-7.755-10.254-15.094-17-20.286-5.377-4.118-8.848-9.792-12.207-15.27-4.822-7.876-9.384-15.317-19.139-17.575l-2.869-.657,1.518-2.526a24.226,24.226,0,0,0,1.1-2.193c.953-2.045,2.027-4.359,4.109-5.442a13.878,13.878,0,0,1,4.627-1.083,11.284,11.284,0,0,0,2.813-.546,20.308,20.308,0,0,0-2.055-3.35q-23.405-31.429-47.1-62.636l-15.909-21.082c-1.055,1.175-2.166,2.48-3.267,3.785-5.46,6.46-8.736,10.041-11.929,8.922-5.525-1.953-9.07-5.183-10.532-9.634-2.045-6.229.185-14.289,6.626-23.97-1.823-17.325-21.98-72.464-32.9-86.328-.7-.879-1.416-1.749-2.119-2.6-4.646-5.664-9.449-11.494-7.913-20.916.009-.657-1.666-2.554-2.573-3.572l-.019-.019a13.609,13.609,0,0,0-1.3,3.637c-.9,5.757-1.583,11.541-2.277,17.334l-1.546,12.642-3.184-4.868c-1.444-2.193-3.045-4.34-4.646-6.488-3.619-4.849-7.348-9.856-9.329-15.557-2.887-8.255-4.229-16.973-5.525-25.4-1.925-12.54-3.915-25.506-11.069-36.908-3.508-5.59,4.155-18.065,5.729-20.508,3.406-5.294,6.636-7.6,9.708-6.821,3.036.787,4.72,4.35,5.155,10.883.065.963,1,2.249,1.925,3.489a12.463,12.463,0,0,0,1.953-2.48c-1.166-4.22-2.7-8.838-4.192-13.3-1.37-4.118-2.786-8.376-3.943-12.67-.833-3.091,1.277-6.413,3.322-9.616,1.407-2.221,3.332-5.238,2.721-6.386-.25-.463-1.684-1.971-9.69-2.082l-3.508-.046,1.657-3.091c.361-.694.685-1.444,1-2.2.861-2,1.749-4.081,3.508-5.516a22.016,22.016,0,0,1,4.7-2.841,19.48,19.48,0,0,1-6.08-2.73c-1.906-1.407-2-4.1-2.082-6.7a22.594,22.594,0,0,0-.185-2.721c-.426-2.573-.916-5.136-1.416-7.709a131.086,131.086,0,0,1-2.5-16.927,107.655,107.655,0,0,1,.287-13.049c.453-7.274.879-14.141-1.111-20.194-2.082-6.321-7.034-11.754-12.272-17.5-1.721-1.888-3.489-3.831-5.146-5.8-1.7,1.943-3.461,3.859-5.22,5.775-5.423,5.9-11.022,12.022-14.826,18.843-2.045,3.656-.537,10.227.8,16.029L8.429,124a39.449,39.449,0,0,0,2.943,7.793c1.61,3.48,3.267,7.089,3.545,10.967.167,2.443.157,4.951.148,7.441-.046,11.022-.093,19.731,14.882,21.249l2.11.213-.194,2.11c-.315,3.461,1.86,7.071,4.155,10.911,4.461,7.422,10.014,16.668-4.183,26.57-3.258,2.286-5.377,9.764-5.8,20.536-.213,5.349-.981,10.819-1.721,16.1-2.48,17.677-4.822,34.381,11.476,48.735,2.758,2.434,3.073,6.719,3.378,10.874.231,3.184.481,6.487,1.786,8.487,1.49,2.258,4.7,4.248,7.8,6.173,4.211,2.6,8.19,5.053,8.329,8.709.5,13.873,6.515,19.1,18.963,24.96,8.227,3.887,13.6,7.311,14.928,12.411,1.407,5.4-1.869,11.263-9.273,21.573l-.491.694c-1.823,2.527-6.663,9.246-5.867,11.041,2.3,5.173,4.424,10.495,6.534,15.816,8.052,20.258,16.372,41.211,36.316,54.02a16.69,16.69,0,0,0,2.462-1.222,16.527,16.527,0,0,1,5.312-2.175c14.669-2.036,29.069,6.423,33.965,15.372,2.962,5.4,2.61,10.726-1.009,15-11.356,13.41-6.053,23.562-.453,34.326,3.23,6.182,6.562,12.568,6.617,19.6a24.844,24.844,0,0,0,7.959,3.5c5.923-5.821,11.17-6.164,14.53-5.386,6.275,1.434,10.338,7.367,11.92,12.013,4.553,13.484,15.668,20.869,27.44,28.69,13.151,8.746,26.746,17.788,30.1,35.927a4.153,4.153,0,0,0,.74.342c14.743-10.041,28.791-5.9,39.74-.546.342-.546.713-1.1,1.083-1.666,1.009-1.527,2.684-4.072,2.434-4.923-2.656-8.746-5.9-15.391-9.912-20.3C289.9,599.18,283.489,599.726,281.213,600.429ZM20.692,112.492c.509-.259,1.018-.537,1.527-.824A17.866,17.866,0,0,1,26.9,109.65c1.74-.379,2.962,1.055,4,2.323.268.333.537.657.787.916l2.11,2.092-2.656,1.333c-.5.25-1,.528-1.49.805a17.908,17.908,0,0,1-4.729,2.036,2.7,2.7,0,0,1-.592.065c-1.453,0-2.49-1.259-3.406-2.388-.268-.333-.537-.657-.787-.916l-2.119-2.1Zm6.821,41.656-9.4-5.173,2.027-2.018c.25-.259.518-.583.787-.916,1.046-1.277,2.24-2.665,4-2.323a17.866,17.866,0,0,1,4.683,2.018c.518.287,1.018.565,1.527.824l2.675,1.323ZM173.534,511.13a12.064,12.064,0,0,0-.916.805l-2.008,2.008-5.2-9.384,6.275-6.265,1.333,2.656c.25.509.537,1.009.814,1.518a17.784,17.784,0,0,1,2.027,4.674C176.255,508.909,174.811,510.093,173.534,511.13Z" transform="translate(-6.012 615.62)"/><path class="b" d="M134.548,31.958a20.751,20.751,0,0,0-1.175-1.888,15.432,15.432,0,0,0-1.657,3.332c-.537,1.36.805,5.812,1.731,7.867,7.663-.4,11.8,5.877,15.344,11.4,4.9,7.635,8.376,12.105,17.427,8.44,5.331-2.156,15.918,14.928,16.02,15.1,5.488,9.523,8.949,18.028,10.569,26.015.231,1.138,4.526,3.535,6.83,4.822,5.127,2.869,9.977,5.571,9.4,9.616-.472,3.387-4.572,5.867-13.965,8.32l.065.13a13,13,0,0,0,1.916,2.962c1.083.009,2.536.028,3.98.037,5.21.065,10.606.139,13.845,3.878,2.351,2.7,3.11,6.9,2.332,12.818-.611,4.674-.611,4.674,13.7,8.672l2.712.75c3.332.9,6.784,1.823,7.487,4.4,4.9,17.852,16.279,30.948,28.32,44.811l4.146,4.794c4.9,5.71,8.329,10.069,10.837,13.253,6.321,8.042,6.728,8.681,12.355,8.635.287-.009.565-.009.842-.009,10.847,0,19.259,2.758,27.163,8.9a63.5,63.5,0,0,0,5.9-2.647c1.36-.666,2.823-1.361,4.331-2.027-2.656-3.942-5.1-7.663-7.413-11.207-5.581-8.514-10.393-15.872-15.927-22.656-7.848-9.616-16.131-19.157-24.146-28.384-8.885-10.236-18.065-20.814-26.709-31.549-.157-.194-15.289-19.879-10.689-25.265,2.508-2.952,3.6-5.4,3.23-7.274-.342-1.768-2.017-3.369-5.284-5.053-12.661-6.562-20.592-17.371-28.245-27.82-4.6-6.265-9.347-12.744-15-18.065l-.722-.676.037-.99c.509-10.8-6.062-12.92-16.807-15.483-8.385-1.99-17.769-4.229-19.75-14.382-.629.565-1.277,1.129-1.907,1.694-4.229,3.73-8.607,7.58-13.54,10.523-2.314,1.37-5.238.528-8.052-.3a19.823,19.823,0,0,0-4.424-.944C137.177,36.456,135.779,34.059,134.548,31.958ZM239.479,132.77c.518-.25,1.027-.537,1.536-.814a17.928,17.928,0,0,1,4.692-2.018c1.786-.416,2.943,1.046,3.98,2.314a10.3,10.3,0,0,0,.787.916l2.036,2.018-9.421,5.192L236.8,134.1Z" transform="translate(1030.634 160.999)"/><path class="b" d="M34.357,240.865c3.276,2.369,5.229,4.174,5.571,6.312.305,1.962-.768,3.424-2.008,5.109-.444.6-.953,1.286-1.471,2.1-1.573,2.452-1.925,5.9-2.3,9.551-.065.6-.12,1.194-.185,1.786.99-.25,2.018-.472,3.017-.7,3.285-.759,8.255-1.888,8.82-3.341,5.553-14.188,8.32-26.135,8.459-36.538.167-12.059,4.368-17.436,16.02-20.342.528-1.472.676-6.293.065-10.6H66.054l2.434-1.934a19.106,19.106,0,0,1-3.841-3.933l-1.934-2.489,3.017-.879c.518-.157,1.148-.389,1.777-.62,2.48-.925,4.452-1.657,5.692-.037a11.114,11.114,0,0,1,1.444,2.61A91.3,91.3,0,0,0,84.721,174.99l.259.185.528-1.259,2.989-4.183c6.562-9.255,13.318-18.8,24.016-24.729-2.915-2.323-4.415-4.757-4.553-7.4-.259-4.812,4.1-8.746,8.394-11.957,3.693-2.767,7.422-5.488,11.143-8.218l4.424-3.239a41.9,41.9,0,0,0,.361-6.589c.019-7.459.028-15.178,13.207-22.693,16.455-9.394,31.586-29.1,29.2-52.391l-36.649,2.48c.574,2.23,1.194,4.47,1.8,6.71,1.86,6.747,3.776,13.725,4.461,20.8.6,6.265-.139,9.5-2.471,10.837-2.906,1.684-6.321-.814-9.625-3.221a23.43,23.43,0,0,0-4.091-2.591c0,.167-.046.472-.083.925-.629,9.523-7.246,14.354-13.1,18.611-5.062,3.7-9.856,7.191-10.958,13.364-.629,3.471-6.7,5.414-10.263,6.265-8.9,2.11-13.993,3.322-15.085,5.173-.907,1.536.056,5.007,1.666,10.754l.352,1.286c.065.231,5.34,22.952.167,24.47-9.181,2.721-13.854,7.728-15.641,16.751l-.814,4.128-2.85-3.082c-.592-.639-1.268-1.24-1.944-1.851-1.786-1.6-3.628-3.258-4.4-5.571a66.2,66.2,0,0,1-2.24-10.523,54.966,54.966,0,0,0-5.571,9.588c-5.479,13.41-11.689,28.606-22.248,42.322-6.08,7.9-8.533,14.243-7.709,19.953C18.346,226.631,23.584,233.045,34.357,240.865Zm9.329-43.8,2.008,2c.259.25.592.518.925.787,1.277,1.037,2.721,2.221,2.332,3.989a17.866,17.866,0,0,1-2.045,4.72c-.278.49-.555.99-.805,1.5l-1.323,2.628L38.5,206.437Z" transform="translate(86.734 218.601)"/><path class="b" d="M26.815,51.709c-.037-.25-.046-.509-.093-.759a18.3,18.3,0,0,1-1.768-1.175l-2.434,1.934Z" transform="translate(130.267 361.094)"/><path class="b" d="M161.365,102.117l.1.426,2.721-1.027c-.019-1.277-.046-2.6-.055-3.989C163.142,99.11,162.226,100.646,161.365,102.117Z" transform="translate(1276.388 755.274)"/><path class="b" d="M216.338,126.282c7.737-.694,8.644-5.192,9.791-10.9.74-3.665,1.564-7.746,4.637-10.439L213.7,82.581,208.8,101.359a72.138,72.138,0,0,0-1.36,7.57c-.305,2.092-.611,4.22-1.036,6.21l1.518-1.5a12.088,12.088,0,0,0,.8-.916c1.036-1.268,2.175-2.684,3.97-2.323h.019a18.081,18.081,0,0,1,4.692,2.027c.5.287,1.009.555,1.518.814l2.665,1.323L215.3,120.84l-9.051-4.988c-.888,3.859-2.249,7.191-4.933,8.94-5.229,3.387-12.087,3.887-18.722,4.368a84.028,84.028,0,0,0-9.606,1.055c-.583.111-1.583,1.3-2.342,2.193,3.887,2.7,6.145,5.59,6.895,8.792,1.24,5.275-1.879,10.1-4.9,14.752-2.776,4.294-5.414,8.348-4.526,12.309,1.86,8.394,4.988,22.424-7.311,33.169-1.666,1.462-1.157,2.952,1.472,7.311,2.98,4.942,7.5,12.42-2.536,19.5-1.583,1.12-2.443,2.2-2.629,3.295-.342,2.027,1.555,4.664,3.563,7.459,3.776,5.275,8.94,12.5,1.731,21-3.433,4.044-4.637,7.876-3.563,11.374,1.453,4.748,7.08,8.81,15.418,11.143l1.175.333.713,1.49c.472,1.712-.833,3.063-2.628,4.942-1.046,1.092-3.822,3.989-3.471,4.988.028.056.592,1.434,6.6,2.11,8.894.9,15.511-2.267,18.6-9.153.194-1.074-2.712-4.914-4.266-6.978a54.155,54.155,0,0,1-4.044-5.84l-1.138-1.944c-1.8-3.036-3.665-6.182-3.915-9.634-.694-9.653-.389-19.185,10.328-38.019a47.256,47.256,0,0,1-1.7-11.42c.037-2.573,1.962-4.627,3.813-6.608a24.779,24.779,0,0,0,1.888-2.156l2.665-3.582,1.129,4.368c1.786-33.169.935-37.4-.019-38.62l-1.962-2.48,3.036-.888c.518-.148,1.148-.389,1.777-.62,2.48-.944,4.461-1.666,5.71-.028a16.4,16.4,0,0,1,2.323,5.266c.157.528.315,1.055.49,1.564,2.573-5.738,6.821-11.291,13.345-16.548a6.019,6.019,0,0,0-.287-2c-.824-2.286-1.73-4.526-2.656-6.775a18.164,18.164,0,0,1-2.36,5.525c-1.323,1.971-4.174,1.7-7.191,1.416a19.317,19.317,0,0,0-2.786-.185l-2.961.028.907-2.823c.6-1.86.25-4.553-.111-7.163-.555-4.072-1.129-8.274,1.351-11.374C210.211,127.716,212.729,126.6,216.338,126.282ZM178.949,233.739l-1.333-2.647c-.25-.509-.537-1.009-.805-1.5a17.938,17.938,0,0,1-2.045-4.711c-.38-1.786,1.074-2.971,2.351-4.007a11.561,11.561,0,0,0,.907-.787l2.008-1.981,5.2,9.366Zm7.515-78.832-6.293-6.266,2.674-1.333c.509-.259,1.018-.528,1.527-.814a17.623,17.623,0,0,1,4.692-2.018c1.786-.352,2.952,1.046,3.989,2.314.278.333.546.666.8.916l2.036,2.018Z" transform="translate(1240.989 631.899)"/><path class="b" d="M162.711,95.469c.259-1.055.574-2.11.935-3.156h-.092A22.041,22.041,0,0,0,162.711,95.469Z" transform="translate(1287.499 712.234)"/><path class="b" d="M166.679,93.15c-1.166,6.895-2.684,18.028-4.526,33.326l-.009.139c-.018,2.018-.018,4.054-.018,6.034l1.916,7.237-1.777.676c.426,14,1.86,19.694,2.776,21.943.815-2.082,1.721-4.211,2.638-6.376,3.748-8.773,7.617-17.834,5.562-24.4C169.2,118.832,165.078,105.681,166.679,93.15Z" transform="translate(1282.67 719.143)"/><path class="b" d="M67.385,78.8c2.156-.62,4.387.574,6.339,1.62a19.773,19.773,0,0,0,2.092,1.027l2.175.851L76.075,86.2a41.943,41.943,0,0,1-2.184,4.2c-6.367,10.319-16.029,9.9-24.571,9.514L48,99.862a17.721,17.721,0,0,0,5.831,4.017,16.854,16.854,0,0,0,4.84.481c4.137.046,10.217.111,11.272,7.922,1.425-.537,3.313-2.11,6.488-6.673,2.5-5.516,3.591-7.681,5.053-7.978l7.774-12.864-2.887,9.023c2.5-1.971,4.553-2.813,6.247-2.462a3.763,3.763,0,0,1,2.8,2.8c.731,2.693,1,7.774-1.407,10a114.95,114.95,0,0,1-11.781,9.125L79.916,114.9a44.723,44.723,0,0,0-1.157,5.756c14.724-2.564,29.467-5.84,37.037-20.638a12.8,12.8,0,0,1-5.664-.546,19.345,19.345,0,0,1-5.812-4.081c-.676-.611-1.351-1.222-2.045-1.777l-2.934-2.323,3.489-1.351c.713-.268,1.416-.574,2.119-.888a24.105,24.105,0,0,1,5.534-1.9,30.793,30.793,0,0,1,6.247-.2l.333.019v-.463l.805.176c.518-1.259,1.12-2.573,1.74-3.9,1.064-2.258,3.276-6.978,2.7-7.978-3.8-5.59-4.849-8.977-3.508-11.319,1.536-2.675,5.09-2.406,8.551-2.156,1.435.1,4.424.315,4.951-.194,1.064-3.322,3.267-6.136,5.4-8.848,2.018-2.564,3.915-4.97,4.729-7.6,1.157-3.693,2.406-6.3,4.729-7.071,2.406-.787,4.581.787,7.32,2.795l1.286.944c7.348,5.266,15.326,9.986,23.054,14.548,2.462,1.462,4.924,2.915,7.367,4.4.315-3.637-1.925-7.5-4.267-11.541-4.516-7.774-10.125-17.454,4.044-26.931.444-.842-.213-5.358-.6-8.052-.148-.962-.287-1.925-.407-2.85-.583.324-1.175.639-1.768.972-3.4,1.869-6.923,3.813-10.569,5.414-3.378,1.472-6.913,2.739-10.328,3.961-6.562,2.341-12.744,4.553-18.028,8.172-5.793,3.97-10.652,9.181-15.789,14.687-2.712,2.906-5.433,5.821-8.292,8.542a11.64,11.64,0,0,1-7.117,2.406l-1-.12L111.224,54c-1.527-2.378-2.971-3.7-4.165-3.841-1.675-.194-3.674,1.814-5.664,3.748-3.165,3.073-7.441,7.237-12.883,4.516-.833.75-2.249,2.36-3.434,3.7C81.054,66.693,76.038,72.384,71.2,73.393c-2.027.426-4.063.731-6.062,1.018C57.8,75.5,51.457,76.438,47.172,83.12a14.432,14.432,0,0,0-1.249,2.573c.824-.287,1.657-.574,2.49-.861C54.585,82.722,60.962,80.529,67.385,78.8Zm32.068-8.1,6.293,6.275L103.08,78.3c-.518.259-1.027.537-1.536.814a17.642,17.642,0,0,1-4.692,2.027,3.182,3.182,0,0,1-.583.056c-1.453,0-2.48-1.259-3.406-2.378-.268-.333-.537-.666-.787-.916L90.05,75.892Z" transform="translate(323.445 40.463)"/><path class="b" d="M127.118,27.82c-2.3.657-4.442,2.675-6.71,4.812-.537.509-1.083,1.018-1.629,1.518l6.154,6.136c9.125-1.027,15.7,3.174,22.72,8.292.861.639,4.6-.814,7.071-1.777,3.785-1.49,8.126-3.156,11.68-2.453,25.895,5.09,26.765,6.377,43.664,37.241l.861-.851.509,2.758,21.61,7.172V83.774l1.221-.583c2.369-1.129,5.09-.62,7.487-.157,2.092.389,4.081.759,5.136.009,1.009-.722,1.453-2.6,1.647-4.054-.268-1.832-7.968-29.819-9.347-33.622-2.989-2.638-5.923-5.377-8.857-8.126-6.848-6.4-13.919-13.012-21.7-18.13-4.563-3.017-9.542-.935-15.289,1.453-6.765,2.8-14.345,5.951-21.832.194-7.755,14.419-19.083,11.365-29.115,8.662C136.872,27.931,131.652,26.515,127.118,27.82ZM228.5,50.328c.324-.268.657-.537.907-.787l2.008-1.99,5.192,9.366-6.275,6.247L229,60.536c-.25-.509-.527-1.009-.805-1.5a18.107,18.107,0,0,1-2.045-4.711C225.773,52.54,227.226,51.364,228.5,50.328ZM218.3,69.513c.518-.157,1.148-.389,1.777-.62,2.48-.916,4.442-1.666,5.7-.037a16.074,16.074,0,0,1,2.314,5.229c.185.611.37,1.212.574,1.8l.342.963a48.472,48.472,0,0,1,5.183,4.3l.315.305-2.952,3.091a42.242,42.242,0,0,0-7.894-6.1,19.333,19.333,0,0,1-2.147-1.286l-4.5-2.693h1.49c-.472-.537-.879-1.064-1.286-1.573l-1.934-2.48Z" transform="translate(924.852 95.596)"/><path class="b" d="M45.476,99.855A143.921,143.921,0,0,1,59.3,89.49l2.961-1.906c6.108-3.98,12.438-8.1,19.2-8.57,12.559-.87,28.255-3.517,38.167-16.446,7.7-10.032,17.047-9.81,26.089-9.625,1.7.037,3.406.074,5.127.037l15.492-23.174-5.979-5.96c-1.083.814-2.147,1.657-3.221,2.5a69.135,69.135,0,0,1-11.559,7.9c-1.814.907-3.711,1.647-5.608,2.378-3.683,1.416-7.163,2.758-9.819,5.4l-.139,1.721-1.555-.37a28.25,28.25,0,0,1-15.585,4.359c-1.9-.12-2.462-1.851-3.1-4.961-.157-.722-.305-1.434-.444-1.99l-.574-2.2,2.23-.435c1.027-.2,2.045-.444,3.082-.676a45.009,45.009,0,0,1,8.274-1.351,6.087,6.087,0,0,1,3.471,1.434l.315.222c.157-6.525-1.083-10.967-3.72-13.225s-6.895-2.656-13.049-1.2c-3.72.879-7.219,2.943-10.911,5.136-1.731,1.027-3.471,2.055-5.238,2.952l-2.878,1.481L90.1,29.7c-.268-3.794-1.647-6.33-3.878-7.135a4.675,4.675,0,0,0-1.61-.278A7.021,7.021,0,0,0,79.7,24.549C74.462,30,69.8,36.321,65.281,42.42,59.395,50.389,53.305,58.625,45.8,65.2c-15.15,13.253-12.947,24.84-4.322,37.9C42.82,102.021,44.143,100.938,45.476,99.855Zm22.665-44.21c.287-.509.565-1,.777-1.425,2.1-4.211,4.248-8.413,6.4-12.6l3.656-7.163,2.073,2.082a20.882,20.882,0,0,1,1.4,1.573,7.479,7.479,0,0,0,2.129,2.027c10.708,4.526,15.067,6.358,15.761,10.115.694,3.656-2.61,6.858-9.838,13.864C88.788,65.779,87.011,67.5,85,67.5a3.506,3.506,0,0,1-1.3-.25c-1.777-.676-2.906-2.564-3.609-6.34-2.656,3.313-5.025,4.877-7.385,4.951-2.962.2-5.09-2.591-5.914-3.748C65.512,60.328,66.79,58.052,68.141,55.645Z" transform="translate(230.845 134.146)"/><path class="b" d="M129.262,35.538c2.3-1.083,4.155-.713,5.192.13l1.37,1.129-.713,1.851a27,27,0,0,1-3.026,4.22l-2.434,3.082-1.286-1.277c-.694,2.193-1.259,4.516-.768,5.257,4.738,7.108,24.812,15.3,40.526,16.547,6.515.5,11.309-.315,13.114-2.267,2.906-3.147,3.767-8.5,4.674-14.169.231-1.472.481-2.98.759-4.461a9.608,9.608,0,0,1-6.21-.953c-3.507-1.99-4.461-6.145-5.312-9.819-1-4.285-1.684-6.339-3.72-6.589-6.386-.814-13.678.528-18.093,3.313-3.767,2.378-6.4,3.859-8.875,2.841-2.452-1.027-3.341-4.174-4.165-7.876-.8-3.563-3.433-7.57-8.079-12.253-2.943-2.971-5.608-4.266-7.635-3.776-2.212.6-4.091,3.591-5.3,8.4a11.941,11.941,0,0,0-.083,3.582,15.149,15.149,0,0,1-.157,4.822,18.155,18.155,0,0,1-2.675,5.534c-.407.648-.815,1.3-1.185,1.971l-1.749,3.193a67.208,67.208,0,0,0,10.921-.74C126.032,35.872,127.614,34.585,129.262,35.538Z" transform="translate(880.673 35.783)"/><path class="b" d="M108.73,24.555c.629.491,1.286,1.046,1.971,1.62,1.888,1.592,5.044,4.137,6.34,3.98a70.6,70.6,0,0,1,13.7-1.268c10.217,0,20.2,1.869,29.967,3.7,9.745,1.832,19.713,3.7,30,3.767l-1.592-3.3c-.5-1.018-.953-2.082-1.388-3.147a25.6,25.6,0,0,0-3.248-6.154,25.177,25.177,0,0,0-5.275-4.461q-.555-.389-1.083-.777L171.4,26.823l-3.628-9.079L166.7,17.8a24.167,24.167,0,0,1-6.21-.222c-2.341-.481-4.674-1.906-6.923-3.276-2.564-1.555-5.479-3.313-6.923-2.591-.879.435-2.489,2.277-3.3,9.717-.315,2.86-2.462,4.942-5.608,5.442-4.405.713-10.476-1.906-13.345-8.3-1.1-2.434-3.073-4.581-5.155-6.848-.361-.389-.713-.777-1.064-1.157-.139.241-.287.472-.444.713-1.721,2.8-3.5,5.71-6.275,6.043-6.8.824-7.413,2.055-7.441,2.11C104.01,19.428,103.89,20.77,108.73,24.555Z" transform="translate(802.937 37.401)"/><path class="b" d="M162.882,51.119c-1.12-.2-2.776,1.12-4.6,2.5l-1.74,1.3c-8.57,6.164-5.794,10.06-1.592,15.946a26.844,26.844,0,0,1,4.2,7.524l.518-.185v2.193c11.615,12.6,17.177,28.653,17.075,48.9h.009v.639c-.009.592.028,1.148.019,1.749,1.638,2.3,3.35,4.572,5.071,6.839,4.146,5.488,8.45,11.17,11.5,17.436,6.793,13.965,13.688,23.044,27.088,25.173,3.406.537,8.015.1,9.81-1.573,1.5-1.379,2.184-6.238,1.231-8.672a144.186,144.186,0,0,0-6.2-13.086c-3.174-6.173-6.46-12.559-8.329-19.342-6.1-22.147-19.6-40.3-32.66-57.861-6.339-8.542-12.9-17.362-18.574-26.57C164.641,52.285,163.641,51.257,162.882,51.119ZM182.2,109.127c.509-.259,1.018-.537,1.518-.814a17.826,17.826,0,0,1,4.72-2.027c1.8-.416,2.943,1.046,3.97,2.314.278.333.546.666.8.916l2.119,2.1-2.665,1.333c-.509.25-1,.528-1.5.805a17.968,17.968,0,0,1-4.739,2.036,3.114,3.114,0,0,1-.574.065c-1.453,0-2.48-1.259-3.406-2.388-.268-.324-.537-.657-.8-.916l-2.11-2.1Z" transform="translate(1190.393 372.013)"/><path class="b" d="M215,124.149c-1.564-3.591-3.933-9.023-5.146-9.329l-.13-.018c-.962,0-3.628,2.064-6.21,4.063l-1.934,1.481c-12.707,9.727-12.92,22.785-9.246,31.012,5.053,11.3-1.2,19.324-6.719,26.4-5.432,6.969-10.125,12.994-4.933,21.582l.518.861-.342,1.1a8.761,8.761,0,0,1-4.155,3.961l-1.934.731a43.275,43.275,0,0,1-10.55,2.971c-6.515.685-11.559,3.554-14.206,8.1-2.277,3.887-2.517,8.69-.731,13.669a19.968,19.968,0,0,0,3.794-1.1c.166-.851.305-1.74.444-2.61.629-4.063,1.222-7.894,4.276-8.736,2.5-.685,5.247,1.1,9.236,5.951,3.119,3.785,5.247,2.675,9.755-.241,4.387-2.86,10.4-6.728,17.612-.416l.222.185c.148-1.111.176-2.841.194-4.128.046-3.434.111-7.006,1.462-9.319,3.128-5.349,5.877-9.643,8.635-13.54,7.061-9.94,7.33-21.443,7.617-33.622.268-11.485.546-23.35,6.9-33.993l-.065-.065A13.879,13.879,0,0,1,215,124.149Z" transform="translate(1166.918 897.874)"/><path class="b" d="M219.488,168.546a7.936,7.936,0,0,0-2.638-.213c-.694,6.136-2.536,10.263-5.618,12.707-4.664,3.72-10.958,2.712-17.029,1.74-4.044-.639-7.867-1.259-10.791-.435-5.22,1.434-10.68.87-15.946.333-8.431-.888-16.4-1.721-22.97,5.571l-1.851,2.045-1.527-2.3c-.657-1.009-1.277-2.073-1.888-3.137-1.36-2.351-2.638-4.572-4.387-6.034-.62-.518-2.656-.453-4.109-.4-.213,0-.435.009-.666.018.037.537.055,1.074.092,1.61.194,3.137.389,6.4-.5,9.486-1.009,3.517-4.34,9.014-8.283,9.625-3.933.629-10.819-2.249-12.207-5.914a229.991,229.991,0,0,1-7.552-25.182l-1.4-5.368c-1.814-6.839-5.423-6.349-10.884-5.6a28.382,28.382,0,0,1-6.423.361c-.333.99-.7,2.027-1.092,3.063-.842,2.3-2.258,6.164-1.61,7.145,2.212,3.313,4.257,6.922,6.228,10.411,8.514,15.048,16.6,29.245,38.9,23.868l22.147-1.592c22.415-1.573,45.6-3.2,68.374-5.118,6.016-.509,11.328-2.582,11.837-3.683C229.335,185.824,230.446,175.191,219.488,168.546Z" transform="translate(605.148 1243.593)"/><path class="b" d="M165.729,69.7c-2.452,1.629-4.183,4.664-6.025,7.876-.148.278-.3.546-.454.814a11.979,11.979,0,0,1,5.109.574,19.365,19.365,0,0,1,5.812,4.072c.676.62,1.351,1.231,2.045,1.786l2.943,2.323-3.5,1.351c-.712.278-1.416.583-2.119.888a23.378,23.378,0,0,1-5.534,1.888,28.98,28.98,0,0,1-6.256.213l-.324-.009v.444c12.892,5.59,14.28,9.6,10.152,26.024-.111.453-.241.953-.315,1.314,12.244,10.726,7.07,21.027,2.508,30.124a74.251,74.251,0,0,0-3.535,7.765c-2.221,6.145-1.583,14.437,6.849,19.25,2.166,1.24,6.617,3.776,8.311,4.155a21.415,21.415,0,0,0,5.7-10.819c1.462-8.487-.7-15.946-7.237-24.969-3.313-4.563-2.924-8.514-2.008-11.022,2-5.5,8.662-10.041,18.3-12.475,2.286-.574,4.646-1.166,5.053-1.592a16.44,16.44,0,0,0-.324-2.98l-.157-1.1c-1.564-10.865-7.293-19.592-13.345-28.819-3.942-6.016-8.015-12.225-10.81-19.065C174.419,67.478,168.153,68.08,165.729,69.7Z" transform="translate(1243.881 508.745)"/><path class="b" d="M181.587,112.578c-2.425-1.768-4.859-3.545-7.256-5.368-.463.185-.953.37-1.434.555-.574.231-1.361.537-1.925.777,1.3,20.74-4,37.1-16.168,49.9l.25.148c1.721,1.064,3.35,2.064,4.8,2.175,1.906.194,4.017-1.2,6.321-2.619,3.082-1.888,6.562-4.063,10.43-3.054,2.675.676,5.007,2.749,7.145,6.312a10.046,10.046,0,0,0,5.127-.685c4.322-2.665,13.827-29.06,11.809-32.845C194.951,122.369,188.158,117.39,181.587,112.578Z" transform="translate(1222.229 835.205)"/><path class="b" d="M75.793,175.527h-.009c-1.8-.777-3.646-1.462-5.442-2.128-6.266-2.3-12.189-4.479-14.243-9.866-1.471-3.859-.685-8.588,2.5-14.845a37.253,37.253,0,0,0-10.439-8.348c-1.518-.694-6.673.842-8.07,2.74-1.583,2.147-.25,4.609,2.064,8.44,2.018,3.369,4.322,7.182,3.221,11.235-.7,2.629-2.7,4.877-6.1,6.876a7.081,7.081,0,0,0,.278,1.934c.176.555.342,1.147.509,1.758.4,1.444,1.009,3.646,1.731,4.091,10.976,6.858,22.35,13.614,34.391,20.758l9.375,5.571.019-.139a55.813,55.813,0,0,1,1.074-6.432C89.435,185.828,82.54,178.424,75.793,175.527Z" transform="translate(268.559 1107.286)"/><path class="b" d="M171.442,133.866c-1.879-1.536-3.8-3.109-5.479-4.637l-.426.481c-.731.814-2.092,2.332-2.128,2.906,2.489,20.416.851,27.82-14.789,37.435-5.053,3.11-4.96,6.191-4.822,10.476a30.423,30.423,0,0,1-.065,4.294l8.986,7.237-9.134,3.628v3.952l6.543-2.536-3.859,3.859a5.637,5.637,0,0,0,2.5-.259c20.518-10.449,25.635-30.79,30.587-50.466.555-2.212,1.12-4.424,1.684-6.608C181.317,141.954,174.894,136.688,171.442,133.866Z" transform="translate(1129.619 1016.965)"/><path class="b" d="M173.648,156.75c-13.891,8.9-28.912,8.635-43.479,8.385a165.95,165.95,0,0,0-17.445.287c-4.007.342-8.635,4.646-12.013,7.8a13.62,13.62,0,0,0,.333,4.581c8.7,2.545,17.528,4.692,27.709,7.163l7.913,1.925,7.209-3.757c10.708-5.59,22.822-11.911,34.511-18.463a10.864,10.864,0,0,0-.824-5.21A9.163,9.163,0,0,0,173.648,156.75Z" transform="translate(774.974 1244.144)"/><path class="b" d="M122.545,171l-3.221-2.378c-8.57-6.349-17.436-12.929-26.339-19.093-.555-.37-2.36-.167-3.693-.018A16.641,16.641,0,0,0,91,153.372a21.9,21.9,0,0,0,3.526,3.776c.62.592,1.249,1.166,1.842,1.768L98.64,161.2l-2.989,1.2c-1.055.416-2.277,1.046-3.489,1.675-3.85,1.962-6.867,3.535-8.9,1.823a93.405,93.405,0,0,1-11.642-12.272c-1.1-1.305-2.193-2.6-3.313-3.887h-1.3V149.7l-.4-.018a36.936,36.936,0,0,0-5.386.1c-3.619.454-7.219,1.064-10.819,1.684l-1.536.259c.287.5.565,1.009.851,1.518,1.5,2.74,3.054,5.571,4.868,6.275,14.15,5.442,28.819,10.337,43.007,15.067q6.289,2.11,12.577,4.211a9.808,9.808,0,0,1,2.98-5.784C115.78,170.724,119.315,170.78,122.545,171Z" transform="translate(347.755 1182.823)"/><path class="b" d="M122.966,156.772l-.241.028c-4.192.426-14.891,1.527-17.547,2.7-.639,6.876-1.758,11.356-5.118,12.466-2.961.972-6.312-1.037-11.578-6.987-.657-.75-1.314-1.546-1.971-2.369-1.814-2.24-3.683-4.544-5.627-5.414-3.2,2.915-9.394,21.379-9.088,26.6a6.933,6.933,0,0,0,2.536-.814c1.953-1.87,4.683-4.155,7.358-4.155a4.2,4.2,0,0,1,1.6.305c3.1,1.222,3.72,5.4,3.905,8.894.185,3.332,2.036,5.507,2.721,5.729a10.114,10.114,0,0,0,.509-2.119c1.444-11.541,7.283-12.475,12.938-13.364a32.226,32.226,0,0,0,5.127-1.12c5.025-1.684,9.542-5.729,13.91-9.653,1.527-1.36,3.026-2.712,4.553-3.97-.852-1.388-1.573-2.675-2.212-3.794S123.41,157.383,122.966,156.772Z" transform="translate(536.936 1244.326)"/><path class="b" d="M133.861,173.62l-.194,2.036c-.259,2.665-3.008,3.665-5.2,4.47a12.609,12.609,0,0,0-2.471,1.092,25.872,25.872,0,0,0,2.767,2.526,7.219,7.219,0,0,0,5.636.981c15.187-5.673,23.553-17.353,26.265-36.677A15.31,15.31,0,0,0,155,146.624C136.2,146.56,135.258,159.053,133.861,173.62Z" transform="translate(984.41 1160.556)"/><path class="b" d="M154.29,153.21c-.444.463-.962,1.037-1.37,1.527-9.014,10.911-21.369,16.094-33.317,21.11-2.813,1.175-5.618,2.341-8.394,3.6a10.617,10.617,0,0,0-.777,5.118,4.957,4.957,0,0,0,.6,1.712c3.841-.74,7.644-1.37,11.383-1.99,9.264-1.518,18.019-2.952,26.089-6.043,9.588-3.674,9.921-14.373,8.524-22.7C156.89,154.987,155.224,153.839,154.29,153.21Z" transform="translate(855.524 1214.922)"/><path class="b" d="M108.559,166.19c-10-4.007-20.814-6.71-31.263-9.32-3.276-.833-6.552-1.647-9.81-2.5-2.3-.62-3.942-.583-4.831-.028l.019.055h-.222l-.111.028c-.888.777-1.148,2.887-.731,5.951.176,1.314.546,4.053.99,4.488.7.287,4.229-.953,5.386-1.351a11.825,11.825,0,0,1,3.8-.583c10.115,0,24.692,10.263,32.938,18.13,1.684,1.6,5.266,2.647,9.588,2.786.111-.167,1.175-1.546,2.027-2.647.629-.815,1.333-1.721,2.138-2.675-.814-1.175-1.61-2.452-2.406-3.748C113.816,171.132,111.484,167.356,108.559,166.19Z" transform="translate(451.336 1220.757)"/><path class="b" d="M111.167,171.413c.222-.018.444-.037.666-.065-.074-.963-.111-1.879-.148-2.721a14.952,14.952,0,0,0-.426-3.693c-.888-.574-1.953-1.342-3.017-2.1-5.3-3.785-10.791-7.7-16.5-8.875-6.358-1.314-13.308-1.009-20.027-.7-2.184.093-4.359.194-6.525.241,1.379,5.525,4.914,5.127,10.3,4.507,3.832-.435,8.163-.935,11.5,1.61,6.145,4.674,13.234,8.237,20.083,11.68C107.938,171.737,109.511,171.571,111.167,171.413Z" transform="translate(482.489 1213.109)"/><path class="b" d="M132.576,151.127a128.281,128.281,0,0,0-9.227,12.438c.639.833,1.99,2.277,3.11,3.48.953,1.009,2,2.129,3.054,3.313l13.651-13.049-8.625-8.644C133.89,149.489,133.233,150.3,132.576,151.127Z" transform="translate(962.576 1177.405)"/><path class="b" d="M125.281,152.161c-1.027,0-2.98,2.018-4.276,3.341l-.278.278c2.156,2.934,8.44,10.393,11.337,13.475,2.628-3.193,5.377-6.626,9.162-11.309l2.341-2.924c-1.916-.352-3.674-.7-5.294-1.018C132.917,152.948,129.048,152.189,125.281,152.161Z" transform="translate(940.94 1206.263)"/><path class="b" d="M147.683,141.792a82.44,82.44,0,0,1-6.284,7.543,42.219,42.219,0,0,1-6.08,4.831c-.435.315-.879.62-1.314.935l.546,1.379h-.879c.019,1.259.009,2.527-.083,3.776-.231,2.9-.426,5.618.879,7.117.842.953,2.406,1.555,4.664,1.8l15.289-15.252-6.339-12.633C147.952,141.449,147.822,141.625,147.683,141.792Z" transform="translate(1045.717 1116.468)"/><path class="b" d="M157.174,142.431a9.505,9.505,0,0,0-3.1-1.111,196.6,196.6,0,0,0-17.843,13.891,32.205,32.205,0,0,0,2.48,4.831,5.234,5.234,0,0,0,.87.333c5.59-3.767,11.069-7.654,15.779-11.013l2.36-1.684c-.194-1.509-.3-2.73-.379-3.684C157.285,143.412,157.239,142.819,157.174,142.431Z" transform="translate(1068.913 1116.773)"/><path class="b" d="M120.542,20.756l5.931-9.056L110.8,9.675l3.876,11.081Z" transform="translate(858.994 30.08)"/><path class="b" d="M44.329,156.331a4.661,4.661,0,0,0,5,1.148c2.082-.685,3.5-2.49,4.026-5.081a10.106,10.106,0,0,1-6.33-3.082c-2.5-2.85-2.2-6.784-1.944-10.254.065-.842.13-1.675.157-2.471-3.174,1.573-5.118,3.554-5.8,5.9C38.11,147.011,41.368,152.518,44.329,156.331Z" transform="translate(267.372 1077.729)"/><path class="b" d="M186.162,144.958l-.324,1.305-1.314.278c-3.868.824-7.755,1.61-11.633,2.4-12.022,2.453-24.46,4.979-36.38,8.375-.518,1.175-.8,4.942-.972,7.256-.074.9-.148,1.777-.222,2.628,3.156-.833,6.562-1.962,9.866-3.063,10.68-3.554,20.777-6.895,26.755-2.749,5.238,3.646,9.06,5.09,11.346,4.377,2.323-.731,3.554-4.128,4.868-7.709a42.118,42.118,0,0,1,2.61-6.136l.352-.463,12.864-12.836c-1.471-.12-2.952-.37-4.405-.611C192.816,136.851,188.327,136.1,186.162,144.958Z" transform="translate(1061.36 1083.78)"/><path class="b" d="M19.266,117.414c-.8,5.414-.139,9.227,1.98,11.337s5.951,2.795,11.383,1.99c.8-5.414.139-9.227-1.971-11.337S24.708,116.627,19.266,117.414Z" transform="translate(100.705 916.798)"/><path class="b" d="M154.685,68.461a34.869,34.869,0,0,0,3.341,7.737l.777,1.472,5.673-2.36L156.4,65.8A10.438,10.438,0,0,0,154.685,68.461Z" transform="translate(1221.246 493.417)"/><path class="b" d="M46.589,157.253c1.509,1.3,4.239,1.111,7.154.888,1.249-.092,2.517-.185,3.794-.166V146.749l-12.679,6.312A6.685,6.685,0,0,0,46.589,157.253Z" transform="translate(314.653 1161.588)"/><path class="b" d="M97.013,159.123a18.9,18.9,0,0,0,6.478,2.813c1.888.278,4.091-.426,6.432-1.2l-5.34-4.155Z" transform="translate(745.179 1242.724)"/><path class="b" d="M138.143,25.4l-10.9,10.874c4.017.213,6.9-.528,8.635-2.267S138.375,29.382,138.143,25.4Z" transform="translate(994.703 159.901)"/><path class="b" d="M132.186,144.193a15.47,15.47,0,0,0-2.9,1.231l-.37.176c.268.5.546,1,.814,1.5,1.462,2.7,2.832,5.266,4.785,6.58.685.019,3.026-1.12,4.526-1.8.361-.157.731-.324,1.092-.49-.4-.4-.787-.8-1.157-1.175A39.684,39.684,0,0,0,132.186,144.193Z" transform="translate(1008.555 1140.489)"/><path class="b" d="M132.907,145.173c-1.74,1.74-2.5,4.637-2.267,8.607l10.9-10.874c-.463-.028-.916-.046-1.351-.046C136.887,142.859,134.444,143.636,132.907,145.173Z" transform="translate(1022.428 1129.478)"/><path class="b" d="M12.76,105.871c.157.083.324.176.49.268.916.5,2.638,1.444,3.156,1.3a10.963,10.963,0,0,0,3.924-2.619l-6.053-2.508Z" transform="translate(49.693 794.814)"/><path class="b" d="M63.864,152.8v-4.026c-1.323-.037-2.545-.083-3.794-.176-2.915-.231-5.645-.426-7.145.9a5.743,5.743,0,0,0-1.592,3.3H63.864Z" transform="translate(368.103 1175.489)"/><path class="b" d="M158.381,91.612a6.58,6.58,0,0,0,1.471,2.277l2.851-5.507L160.584,85.2A21.233,21.233,0,0,0,158.381,91.612Z" transform="translate(1251.756 653.501)"/><path class="b" d="M58.421,152.23c-.222.018-.444.037-.657.046v4.34h3.942l-.111.092a16.037,16.037,0,0,0,2.027-.166,17,17,0,0,0,3.628-1.2,14.564,14.564,0,0,0-4.1-2.915A11.814,11.814,0,0,0,58.421,152.23Z" transform="translate(421.189 1205.74)"/><path class="b" d="M58.682,156.39l4.165-3.342h-6.7Z" transform="translate(407.879 1213.583)"/><path class="b" d="M66.461,155.154a54.153,54.153,0,0,0-7.459.009c-.009.5-.018,1.027-.018,1.49,2.221.342,4.553.509,7.172.694l.435.037-.037-.639C66.526,156.163,66.5,155.617,66.461,155.154Z" transform="translate(431.252 1229.951)"/><path class="b" d="M69.8,161c-.139.518.8,2.221,1.3,3.128l.268.5,3.572-1.527-2.526-6.025A10.963,10.963,0,0,0,69.8,161Z" transform="translate(520.399 1246.852)"/><path class="b" d="M158.06,69.308h-1.228l1.228,1.228Z" transform="translate(1238.969 522.334)"/><path class="b" d="M134.471,145.323c.592.463,1.175.916,1.758,1.314l.065-.074-1.379-1.684Z" transform="translate(1054.385 1146.152)"/><path class="b" d="M74.608,156.237l1.212,1.546a14.512,14.512,0,0,0-.676-1.74Z" transform="translate(560.232 1238.308)"/><path class="b" d="M100.3,10.414h-.9l.3.743Z" transform="translate(764.878 36.182)"/><path class="b" d="M102.914,8.031l-.6.743h.893Z" transform="translate(788.923 16.511)"/><path class="b" d="M94.367,17.835c-7.015.648-11.9,5.423-17.084,10.467C71,34.429,64.539,40.8,54.072,39.584v3.868H55.1l-.018.037h.139c11.087.139,20.749.305,28.245-10.171,2.545-3.545,7.857-4.526,13-5.47,1.481-.268,2.989-.555,4.4-.888-.555-5.155-1.027-9.06-1.629-9.717-.176.019-1.277.13-2.156.259C96.3,17.6,95.413,17.733,94.367,17.835Z" transform="translate(390.713 92.551)"/><path class="b" d="M75.346,69.769c3.97-6.728,11.42-6.682,17.926-6.645,9-.037,14.706-.407,16.575-10,1.1-5.7,21.193-5.229,21.4-5.192,10.976.583,19.99,2.323,27.561,5.321,1.148.407,5.442-1.879,7.774-3.1,5.21-2.739,10.106-5.312,13.2-2.638,2.573,2.249,2.406,7.034-.657,16.242l.139.019a13.144,13.144,0,0,0,3.535.009c.6-.907,1.407-2.119,2.2-3.313,2.9-4.331,5.9-8.811,10.8-9.5,3.526-.463,7.478,1.157,12,5.035,3.6,3.073,3.591,3.063,14.761-6.756l2.11-1.869c2.564-2.3,5.22-4.692,7.746-3.868,17.639,5.627,34.789,3.23,52.956.694l6.33-.861c7.459-1,12.994-1.5,17.029-1.86,10.18-.907,11.013-.981,13.965-5.655,6.006-9.514,13.012-15.252,22.72-18.621a57.5,57.5,0,0,0,1-6.377c.194-1.509.4-3.11.666-4.738-4.757.074-9.208.093-13.438.1-10.19.028-18.972.056-27.672,1-12.374,1.333-24.923,3.082-37.056,4.766-13.392,1.86-27.237,3.785-40.915,5.183-.259.019-25.006,1.962-27.015-4.822-1.092-3.711-2.545-5.951-4.322-6.673-1.647-.657-3.933-.139-7.126,1.666-12.411,7.043-25.784,7.792-38.731,8.524-7.755.426-15.77.879-23.322,2.721l-.953.231-.805-.574c-8.783-6.312-14.132-1.962-22.137,5.655-6.247,5.942-13.244,12.6-22.822,8.7.12.851.241,1.7.37,2.554.814,5.571,1.666,11.328,1.434,17.056-.111,2.693-2.406,4.674-4.637,6.6a18.97,18.97,0,0,0-3.2,3.193c-1.388,2.045-4.155,1.906-6.6,1.786a22.191,22.191,0,0,0-2.221-.037,15.521,15.521,0,0,0,1.888,3.2C68.645,68.113,73.106,69.418,75.346,69.769ZM209.872,30.8c.055-.565.1-1.129.13-1.694a17.856,17.856,0,0,1,.87-5.081l.009-.019c.639-1.684,2.49-1.888,4.118-2.064.426-.046.851-.093,1.2-.167L219,21.182l-.8,10.708-8.662,1.851Z" transform="translate(488.473 -5.379)"/><path class="b" d="M8.739,159.6c9.588-1.222,12.346,5.358,14.4,10.152,2.11,4.942,3.211,7.089,7.968,5.645,6-1.8,9.292-1.74,10.967.2,2.082,2.406.435,5.914-1.3,9.643-.379.8-.759,1.61-1.092,2.406a18.786,18.786,0,0,0,2.545,3.026c4.239-3.119,6.719-7.256,7.006-11.763.333-5.238-2.258-10.449-7.293-14.641a43.5,43.5,0,0,1-7.163-8.44l-1.138-1.592a8.758,8.758,0,0,1-1.24-5.608l.25-.972.99-.555c9.088-4.239,8.551-11.855,7.922-20.666-.639-8.959-1.36-19.1,9.134-25.673,7.635-4.775,14.724-15.733,9.588-30.892L59.5,67.55c-1.074-3.248-2.193-6.6-3.008-6.886-1.157-.463-6.164,2.767-9.477,4.887-2,1.286-4.433,1.5-6.386,1.675l-.083.009c-.648,12.383-7.024,22.387-13.2,32.077-6.552,10.273-12.735,19.972-12.411,32.16.12,4.775,0,9.866-.37,16.057-.167,2.684-2.11,5.673-3.989,8.57a40.162,40.162,0,0,0-2.129,3.526l.278-.028Z" transform="translate(14.132 450.618)"/></g></g></svg>