<svg xmlns="http://www.w3.org/2000/svg" width="71.254" height="70.041" viewBox="0 0 71.254 70.041"><defs><style>.a{fill:#fff;}</style></defs><g transform="translate(-6.012 -5.379)"><g transform="translate(6.012 5.379)"><path class="a" d="M120.467,140.226l.022-.394-.272.09.146.3Z" transform="translate(-69.06 -80.341)"/><path class="a" d="M51.821,134.051a22.806,22.806,0,0,0-3.916-2.836c.128.125.259.253.387.384.308.312.619.645.869.913l.35.374,1.279.865.355.357,1.32.7-1.339.106-.105.1h0l-.074.075.949.672.852-.938C52.435,134.565,52.125,134.306,51.821,134.051Z" transform="translate(-29.231 -75.881)"/><path class="a" d="M82.115,41.228c-.34-2.7-1.745-5.041-3.1-7.3-.288-.479-.548-.911-.8-1.351a73.786,73.786,0,0,0-5.36-7.67c-.749-.98-1.588-2.077-2.37-3.149l-.472.067.3-.206c-.182-.136-.365-.269-.548-.4-.565-.411-1.148-.836-1.679-1.31A5.192,5.192,0,0,0,65.9,18.582,18.628,18.628,0,0,1,61.721,17.1a19.915,19.915,0,0,0-7.3-1.843l-.05-.006c-.551-.066-1.12-.135-1.679-.214a2.077,2.077,0,0,0-1.362.3,5.116,5.116,0,0,1-1.329.66,1.865,1.865,0,0,1-2.451.313c-.307-.009-.615-.027-.916-.055a.689.689,0,0,1-.216-.066c-.033-.015-.069-.03-.11-.045l-.479-.176.753-.225c-.208-.033-.444-.051-.674-.067l-.093-.007L45.7,16.3l-.159-.021a1.462,1.462,0,0,0-1.792.959,6.307,6.307,0,0,1-2.268,2.343,18.855,18.855,0,0,1-2.742,1.333l-.023.01c-.375.158-.763.322-1.138.492L35.637,23.4l.294.019.564-.563,0,.657.243.34-.3.2-.327.337v.031l1.2-.9a1.329,1.329,0,0,1-.08-.136c-.072-.142.051-.223.151-.287l.045-.029.333-.342.01-.466,1.021,0,.014.379.615,0,.937-.458,0,.414,1.253-.311v-.13l-1.892,0,1.954-.664.623-.453.276.649-.691.058.008.151.409.081a13.166,13.166,0,0,1,1.671-1.1c.36-.2.737-.4,1.152-.6l.071-.374.306.2c.395-.181.789-.35,1.173-.5.191-.073.382-.144.573-.212l-.01-.109.517-.06c.583-.2,1.185-.377,1.791-.533H49.2l-.036-.609,1.579-.1-.014.42h.09c.616-.126,1.215-.222,1.821-.292a22.033,22.033,0,0,1,6.444.144c.6.11,1.218.252,1.829.423l-.047-.046L64.529,19.8l-.566.007c.187.089.372.181.551.273l.072-.137.187.1-.07.135c.24.126.479.258.712.393a20.837,20.837,0,0,1,2.353,1.684h0l0-.435,1.594.712h-.33l.54.542.663.325.533,0V23.8h.095l0-.591.834.87-.605.012L70.779,25l-.272-.985-.333-.323-.342.007,0,0-.118,0,.637,1.115.16.167c.224.26.5.581.816.94l.3.349v-.008l1.224,1.277-.115.013c.809.948,1.4,1.678,1.811,2.229.05.067.1.13.14.193l3.473,4.341,1.289,3.539-1.944-2.788c-.079-.1-.164-.2-.251-.313l-.209.064V34.5c-1.31-1.68-3-4.091-3.185-4.361-.768-.878-1.825-1.956-2.6-2.743l-.015-.015c-.635-.648-1.235-1.26-1.618-1.688l-1.1-1.171a5.363,5.363,0,0,0-.389-.388c-.059-.055-.117-.11-.175-.166s-.137-.128-.206-.195c-.121-.116-.243-.233-.369-.334a18.977,18.977,0,0,0-2.556-1.855,4.072,4.072,0,0,1-1.944-.958l-.019-.017-.037.005a4.945,4.945,0,0,1-3.611-1.181l-.086-.019c-.056-.012-.112-.025-.169-.036a20.84,20.84,0,0,0-3.222-.352l.3.1,1.076.126-.254.6-.858-.443H54.96l.071-.4h-.024c-.257,0-.5,0-.743.012l-.126.019h-.378c-.337.017-.636.038-.91.062a26.533,26.533,0,0,0-5.857,1.2,17.384,17.384,0,0,0-5.191,2.54l-.05.038-.165-.2-.7.528-.022.016c-.71.532-1.445,1.082-2.156,1.635a5.114,5.114,0,0,0-2.19,2.912l.056.053v0l.162.156.279-.323c.265-.3.538-.617.8-.93a7.443,7.443,0,0,1,4.255-2.927l.33-.061-.465.946.434.366L41.6,25.3l0-.356a2.524,2.524,0,0,0-1.558,1.186l.916-.008-2.506,2.527L37.691,29.8a1.128,1.128,0,0,1-.8,1.251l-.175.67.186-.248,1.421-1.887c.156-.207.31-.417.462-.627A7.82,7.82,0,0,1,42.4,25.728a8.181,8.181,0,0,1,4.862-3.117,20.043,20.043,0,0,1,2.854-.549c.664-.095,1.351-.193,2.013-.337a13.046,13.046,0,0,1,4.267,0c.357.04.726.081,1.089.113a5.965,5.965,0,0,1,.619.087l-.65-.69.333-.04.03-.005a.393.393,0,0,1,.206,0c.088.029.118.093.171.21.028.061.068.15.134.283l.164.332.021,0c.085.02,8.387,2.1,12.7,9.707l.083.148.548.885c.932,1.5,1.9,3.054,2.74,4.657A12.613,12.613,0,0,1,75.6,43.382v.074c0,.342,0,.684.012,1.025.007.287-.011.573-.028.849s-.035.585-.025.875c.012.37.048.75.083,1.117a10.749,10.749,0,0,1,.068,1.97,30.771,30.771,0,0,1-2.414,9.731,15.569,15.569,0,0,1-5.083,5.986l-.218.366s-.095.086-.271.231l.425-.27L70.1,64.093l.356-.366.426-.315.01-.027A5.247,5.247,0,0,1,73.182,60.7l.38-.241-.129.434a5.167,5.167,0,0,1-2.286,2.687l-.038.027-.316.42-.367.394a5.778,5.778,0,0,1-2.176,2.094c-.2.13-.4.264-.594.4-.564.4-1.131.838-1.631,1.224l-.324.249.548,0-.149.259a2.536,2.536,0,0,1-2.277,1.206.56.56,0,0,1-.222.385.777.777,0,0,1-.654.027l-.59.468-.322-.636.866-.16.642-.319,0-.155-1.26.013.15-.259c.021-.034.038-.07.056-.105a.823.823,0,0,1,.264-.346l.662-.424q-.673.33-1.354.609l-.048.019c-.6.243-1.2.456-1.8.634a.9.9,0,0,1-.992.27c-.172.04-.358.084-.547.124a5.647,5.647,0,0,1-2.136.307c-.39.035-.749.055-1.084.06a2.633,2.633,0,0,1-1.346-.046,15.286,15.286,0,0,1-3.87-.761l-.172-.058.016-.038a15.714,15.714,0,0,1-4.142-1.637A28.607,28.607,0,0,1,35.9,58.677a17.676,17.676,0,0,1-1.371-2.754c-.3-.7-.606-1.421-.973-2.09a11.867,11.867,0,0,1-1.175-6.458A20.984,20.984,0,0,1,34.751,38.5a1.2,1.2,0,0,1,.091-.141.491.491,0,0,0,.082-.144c.249-1.33.489-2.649.754-4.111l.047-.261a6.627,6.627,0,0,0-.774,2.242,12.5,12.5,0,0,1-.349,1.351c-.072.211-.133.432-.193.645a3.3,3.3,0,0,1-1.374,2.244v.008c-.025.126-.047.253-.069.38a7.645,7.645,0,0,1-.229,1.03c-1.832,5.694-1.455,10.632,1.152,15.1a3.483,3.483,0,0,1,.295.749l.008.026c.032.107.065.214.1.318L34.861,59l-.073.048.15.088a4.054,4.054,0,0,1,1.947,2.345l0,.016.027.027,2.9,2.919-1-.031-.009.445L37.266,64.2l1.082-.05-.054-.061a7.178,7.178,0,0,1-.648-.8,6.544,6.544,0,0,1-.464-.887l-.036-.079-.083-.179-.157-.333-.253-.118a3.451,3.451,0,0,1-1.962-2.361l-.047-.183-.055.036-.724-.945c-.061-.056-.139-.119-.207-.175a1.556,1.556,0,0,1-.475-.522c-.171-.371-.347-.742-.524-1.112a24.606,24.606,0,0,1-1.46-3.517,17.333,17.333,0,0,1-.212-7.94l.026-.157a8.621,8.621,0,0,1,1.733-4.625l.019-.022.006-.021c.158-.577.313-1.187.437-1.677a20.108,20.108,0,0,1,2.863-7.2,1.6,1.6,0,0,1,.4-.351l.021-.015.092-.067.014-.4-.9.585L34.94,32.2l-1.894,4.968-.008.078a10.416,10.416,0,0,1-1.9,4.95l.01.05a.6.6,0,0,1,0,.352c-1.093,2.648-.913,5.471-.738,8.2l.024.377a9.9,9.9,0,0,0,.5,2.228l.01.032c.1.329.205.669.292,1.007l.486,1.654-.927-1.253h0a.4.4,0,0,1-.324-.162l-.09-.118.035-.036c-1.381-4.314-1.484-7.939-.322-11.405a2.187,2.187,0,0,1,.518-.749c.081-.087.154-.166.221-.249v-.715l-.393.391.364-.822q.142-.322.281-.645l.05-.114c.26-.6.526-1.213.814-1.805a8.6,8.6,0,0,1,.573-.955l.016-.024c.066-.1.132-.2.2-.3l.026-.041.022-1.424-.029-.01.012-.176.352-1.028-.007-.006.018-.113.394-1.1.024-.1.417-.789.7-.346a1.065,1.065,0,0,1,.785-1.182l.017-.584-.058-.031.068-.156.537-.876-.336-.005-.064.064c-1.039,1.054-2.021,2.049-2.179,3.564l.067.045-.109.144a6.218,6.218,0,0,0-1.141,3.278l.059.018-.071.185-.207.372c-.172.311-.35.631-.54.945a2.377,2.377,0,0,0-.184.434c-.146.416-.324.923-.969.969.012.051.025.1.038.156l.007.029a1.685,1.685,0,0,1,.062.912C30,41.639,29.5,43,29.018,44.324l-.069.188q-.232.639-.47,1.294l-.232.642-.093-.677c-.321-2.33.627-4.25,1.543-6.107.1-.206.2-.413.3-.619l.035-.081.117-.419a28.2,28.2,0,0,1,3.5-8.642c.214-.31.412-.652.591-.973a13.4,13.4,0,0,0-2.972,5.217c-.309.826-.6,1.68-.872,2.507l-.013.038a43.556,43.556,0,0,1-1.692,4.5,14.609,14.609,0,0,0-.853,7.661,3.328,3.328,0,0,0,.1.509,3.289,3.289,0,0,1,.114.633c.209,4.111,1.973,7.874,5.551,11.84l.644.716c.341.38.705.785,1.08,1.2l.865.173.016,0a.254.254,0,0,1,.2.091.4.4,0,0,1,.055.11l.172.468-1.288-.82c.358.393.726.791,1.093,1.177a1.312,1.312,0,0,0,.483.256l.024.009.019.007,0-.064,0,0-.006-.29,1.634.715-1,0,.931.71v-.4l.387.38V66.1l.242.407.248.244h-.115a.468.468,0,0,1,.022.074.18.18,0,0,1,0,.1h.054l-.09.08a21.108,21.108,0,0,0,8.654,4.85,2.658,2.658,0,0,1,.58.3c.057.036.115.072.173.107l.024.014h1.1l-.261.76-.88-.463-.048,0A8,8,0,0,1,44.64,71.6c-.446-.2-.9-.4-1.35-.561-.28-.1-.586-.19-.832-.26l-.134-.039,0,.66-.041-.054v0l-.194.2-.237-.241.1-.1v-.237l-1.074-.631.719-.023q-.31-.242-.613-.493l-.429.948a.1.1,0,0,0-.007.019c0,.014-.011.031-.018.049l1.213.6h0l.045.019.257.133-.008.009.583.323.129.088a6.1,6.1,0,0,0,3.437,1.461h.087L46.3,73.4l.17.058c.142.074.273.147.4.22a9.9,9.9,0,0,0,.988.5c.783.323,1.582.628,2.354.922l.9.346,1.025-.053,2.57-.131c.515-.026,1.038-.029,1.543-.032a15.239,15.239,0,0,0,3.332-.263,42.834,42.834,0,0,0,5.77-1.95l.51-.2a5.52,5.52,0,0,0,1.331-.863c.124-.1.251-.2.379-.295l-.265-.148c0,.161-.013.3-.13.37a6.555,6.555,0,0,1-3.413,1.088h-.027l-.914.517-.248-.675,1.077-.143A4.214,4.214,0,0,1,65.9,71.513a7.612,7.612,0,0,0,1.165-.389l.046-.023.734-.4.265-.245-.16.053c-.619.206-1.238.412-1.856.623-.444.152-.888.308-1.331.466l-.833.3L61.194,73l-.142-.637.994-.06,0-.416,2.015-.347L65.573,70.3l.032.011.465-.241-.267-.163.092-.058h-.1l.726-.379v.013l1.291-.647.127-.51.383.428.567-.287a.617.617,0,0,1-.042-.151c0-.005,0-.011,0-.017h-.108l.48-.516V67.8l.372-.381.018.6L70.147,68l.292-.594-.409-.346.526-.193.976-1v.362l.156-.157h.02l.777-.763,1.093-.6-.2.457a5.112,5.112,0,0,1-3.044,3.105l-.014.01-.911,1.248.368-.017c.253-.323.424-.522.661-.55.283-.032.542.182.977.533.069-.023.141-.043.212-.063a1.235,1.235,0,0,0,.491-.21c1.29-1.179,2.687-2.495,4.271-4.022a.945.945,0,0,0,.178-.373l0-.009-.285-.008-.007-.751-.136.041-1.032.693.7-1.066,1.312-1.668-.261.08L77.9,60.252l-.046-.011.036-.157.132-.052.152-.275-.034.313.082.078-.044.172-.066-.016-.052.432c-.054.479-.119,1.073-.808,1.285l-.116.036-.563,1.81.232.55c.123-.12.252-.236.377-.35l.018-.016a4.007,4.007,0,0,0,1.026-1.192,82.753,82.753,0,0,0,3.177-7.8C82.971,50.347,82.642,45.424,82.115,41.228ZM45.123,19.054l.335.03-.016.2-.335-.027Zm-.993,1.124-.623.608.027-.638L43.1,19.9l.494-.323L44.208,19l0,.548,1.263.013ZM46.9,18.986l-.03-.528,1.3-.111.084.639Zm-.2-1.579-.009-.435.17,0h1.55l.162.438Zm2.591-.274-.064-.56,1.157-.137L50.45,17Zm1.9-.412-.236-.582.324-.016a1.432,1.432,0,0,1,.255,0,.258.258,0,0,1,.189.154l.016.027.139.188Zm6.247,1,.964-.113c.065-.008.13-.017.2-.027a1.127,1.127,0,0,1,1.3.413l.225.352Zm5.637.932c-.052,0-.106.008-.16.013-.072.007-.147.015-.223.015a.6.6,0,0,1-.632-.5l-.087-.327,1.888.766Zm3.107,2.3-.122-.1.2-.272.129.1Zm.175-.754-.067-.366a2.177,2.177,0,0,1-1.887-.8l-.243-.234.332-.056a2.234,2.234,0,0,1,1.975.783l.007.007.571.264Zm3.222,2.139a.251.251,0,0,1-.17-.1.327.327,0,0,1-.031-.065l-.189-.5.55.366,1.024.708Zm5.792,7.118-.036.682-.469-.544v0l-.052-.052-.257-.316h.069l-.277-.535-.6-.607.861-.02,0,.462.5.221,0-.3.329.571,0,0a1.4,1.4,0,0,1,.084.177C75.556,29.336,75.459,29.406,75.371,29.459Zm1.548,2.874h0l0,0-.007,0,.026.026h-.069l-.037.023,0,0-.058.032-.047-.078-.054-.054.015-.009-.027-.045h.1l.22-.133.079.14-.139.093Zm-33.146-8.47.316-.964a.254.254,0,0,1,.109-.183.4.4,0,0,1,.1-.041l.5-.151Zm7.688-2.578,0-.068-.4.2c-.635.324-1.243.566-1.7-.034l-1.321-.016v.117l1.014.054-.187.665-1.015-.438-.946-.051-.04-.482.9-.132,0-.191-.166-.124.165-.276.072.029a.255.255,0,0,1,.143.1l.038.093,1.41.364,2.022,0-.009-.326h4.032l.014.512Zm10.872-.254,1.718.782-1.911-.139Zm-4.315-.922.2-.624,1.559.764Zm3.6.719-.259.579-1.364-.849Zm-.045,1.8-.556.224-.46-1.012.637-.293.28.8.54.113a.266.266,0,0,1,.2.082.434.434,0,0,1,.057.093l.237.5-.953-.571Zm3.444-.159-1.019-.355,1.059-.157Zm3.006,4.48-.855-.8.934-.024Zm-39.792,20.4a.935.935,0,0,0-.057.075l-.354.521.166-2.2.279,1.091a1.812,1.812,0,0,1,.062.279.3.3,0,0,1-.092.226Zm.036,2.062.466-.1-.073.919-.393-.014Zm.368,1.9.452-.005v1.611l-.452,0ZM30.3,56.481l-.559-1.422a.87.87,0,0,1-.594-.414,1.373,1.373,0,0,1,.039-1.108l.16-.452.6,1.723.386.047Zm2.384,1.944-.031-.233h.016a.147.147,0,0,1,.057-.081l.076-.061.091.038a.144.144,0,0,1,.075.058l.014,0,.036.236ZM47.728,73.174a.427.427,0,0,0-.042.023.342.342,0,0,1-.171.06.2.2,0,0,1-.08-.017.351.351,0,0,1-.157-.162c-.009-.015-.014-.024-.021-.033l-.176-.245.3-.026.03,0a.477.477,0,0,1,.185,0,.3.3,0,0,1,.156.1.243.243,0,0,0,.021.021l.195.174Zm1.048.5-.542-.155.268-.205c.013-.009.025-.02.036-.03a.564.564,0,0,1,.189-.121.252.252,0,0,1,.252.094c.011.012.022.022.032.03l.2.163Zm13.964-.2-.777.142c-.034.006-.063.012-.087.018a.7.7,0,0,1-.145.021l-.036,0c-.122-.013-.158-.124-.176-.178l.054-.051h0l-.061.027-.137-.315ZM60.55,70.247l-1.6.8-.222-.617Zm-19.214-3.1h-.068a1.591,1.591,0,0,1-1.537-1.171.956.956,0,0,1-.694-.282.778.778,0,0,1-.125-.621l.05-.335.947.955a1.871,1.871,0,0,1,1.578,1.217l.093.227Zm1-.365-1.058-.823-.342-.231.039,0-.135-.1L39.73,64.71l.2-.267,1.2.868.29.356a1.118,1.118,0,0,1,1.234.855l.172.485-.694-.469Zm2.683,2.7-.392-.363L44.778,69c.009-.008.018-.018.028-.027a.326.326,0,0,1,.228-.122h0a.3.3,0,0,1,.218.144c.012.015.02.026.029.035l.129.134Zm1.552.792-1.1-.717,1.368.072Zm1.005-.738-.63-.481-.212.022a3.124,3.124,0,0,1-.336.019,1.253,1.253,0,0,1-1.311-.874l-.073-.2L45.223,68a1.566,1.566,0,0,1,1.636.825l.111.185,4.373,1.352h1.765l-.121.787-1.656-.5-.143.007A5.4,5.4,0,0,1,47.574,69.538Zm2.858,4.325a.236.236,0,0,1-.193.151.543.543,0,0,1-.158-.027l-.273-.069.136-.2a.244.244,0,0,1,.193-.152.574.574,0,0,1,.161.028l.276.071Zm-.2-.617,0-.5h1.332l0,.5Zm3.431,1.2H51.532V73.94h2.39Zm1.269-.811h-2.24l.257-.522H55.1l0,.521Zm-.606-2.3v-.517H58.2l0,.517ZM57.08,73.12h1.745l.011.5h-1.86Zm.546,1.283.212-.518H59.2l.031.518Zm1.147-1.78,1.825.092-.211.684Zm1.2,1.787-.236-.61,1.033-.379.215.566ZM61.8,70.819l-.027.026a.3.3,0,0,1-.207.108h-.019a.286.286,0,0,1-.2-.132c-.011-.014-.017-.022-.024-.028l-.133-.136.15-.117.025-.024a.311.311,0,0,1,.212-.107h0a.292.292,0,0,1,.208.131c.012.015.018.023.025.03l.135.133Zm5.478-2.689.148-.464a1.1,1.1,0,0,1,1.214-.824l.506.027Zm5.792-1.062a.914.914,0,0,1-.265.687.715.715,0,0,1-.481.159,1.112,1.112,0,0,1-.136-.008l-.357-.039,1.259-1.224Zm9.169-22.054-.613.112-.011-.067-.392-2.344.507-.093Zm-1.3-4.185h0a.265.265,0,0,1,.152-.19l.028-.017.186-.138.226.69-.58.245-.013-.331A1.46,1.46,0,0,1,80.938,40.829Zm0,4.441a.4.4,0,0,1,.05-.17.246.246,0,0,1,.189-.1l.17-.043.163.468-.621.137Zm-1.909-.92.48-.012v1.913l-.48.008Zm-1.807-6.069h0l.024-.019.142-.137.261.386-.327.373-.122-.179a.258.258,0,0,0-.019-.023.281.281,0,0,1-.087-.212A.288.288,0,0,1,77.223,38.281Zm-1.142-2.826c.92.144.877.838.846,1.344,0,.071-.008.141-.01.21l-.023.661L75.756,35.4ZM74.736,33.3l1,.716-1.151-.418a.265.265,0,0,1-.177-.1.293.293,0,0,1-.033-.067l-.2-.525Zm-3.59-3.781-.021,1.291-.685-1.581.4-.009-.16-.951.632-.081.207,1.367Zm5.1,24.665-.386.39.014-.032-.432.424.028-.439q.067-1.078.137-2.155l.006-.087c.105-1.64.214-3.337.307-5,.029-.521.066-1.05.1-1.562l.068-.017h0l-.067,0a35.346,35.346,0,0,0,.122-4.562,10.029,10.029,0,0,0-1.12-3.76c-.617-1.22-1.367-2.4-2.093-3.545-.336-.53-.716-1.128-1.07-1.716a1.774,1.774,0,0,1-.185-.533c-.011-.045-.021-.089-.032-.132l-.129-.512.4.339c.122.1.25.2.379.3a4.514,4.514,0,0,1,.956.907c.649.922,1.239,1.906,1.81,2.858l.339.564a13.522,13.522,0,0,1,1.682,8.761c-.218,2.124-.319,4.3-.416,6.395-.027.571-.053,1.133-.081,1.694a21.059,21.059,0,0,0,.727-5.246c.039-.759.068-1.513.1-2.349.07-1.817.143-3.7.34-5.57l.128-1.209.2,1.2c.043.25.1.5.157.751a6.547,6.547,0,0,1,.233,1.692c-.131,3.249-.348,6.509-.558,9.662l-.005.083a2.423,2.423,0,0,1-.18.68,2.273,2.273,0,0,0-.161.564,3.18,3.18,0,0,0,.065.812c0,.023.007.047.011.07l.556-.505.338-2.323V47.771l.328,1.022c.367,1.143.4,1.262-.007,2.19l-.079.178.029.347c.008.1.021.2.034.3l.005.045a1.725,1.725,0,0,1-.355,1.633l-.017.017v.012a2.691,2.691,0,0,1-.792,2.278l0,.041c0,.041.009.082.015.122l.005.038c.047.332.111.785-.447.976l-.069.747-.555-.245.381-.717.369-1.031.011-1.161-.844.783a1.957,1.957,0,0,1-.082,2.008,15.422,15.422,0,0,1-1.049,1.667l-.087.126-.228.333-.753,1.116L76.25,55.34Zm2.423,5.26-.562-.418.63-.306Zm.158-.635-.21-.775.6.077Zm.879-2.528V54.621l.737.258Zm.973-2.286H80.23V52.8h.452Zm.476-4.508v0a2.743,2.743,0,0,0-.025,1.077,1.011,1.011,0,0,1-.057.515c-.035.137-.078.306-.125.537l-.245,1.216-.214-3.02c-.044.275-.086.549-.128.82l-.01.062a36.728,36.728,0,0,1-.71,3.749,28.357,28.357,0,0,1-3.934,8.576,1.7,1.7,0,0,1-.529.448c-.062.039-.118.074-.172.112l-.509.348.262-.561q.368-.79.735-1.581l.117-.253c.594-1.279,1.266-2.73,1.941-4.149A22.545,22.545,0,0,0,79.592,48.1c.057-2.262.129-4.895.272-7.524l.068-1.26.365,1.7a11.287,11.287,0,0,1,.378,4.087c-.049.359-.07.737-.091,1.1-.022.392-.044.785-.1,1.17A1.828,1.828,0,0,1,81.158,49.482Zm.676,1.838-.517.02v-3.5l.517-.022Z" transform="translate(-17.24 -10.369)"/><path class="a" d="M120.558,31.989l.545.366,0-.367Z" transform="translate(-69.262 -19.151)"/><path class="a" d="M53.779,138.926l0,0,.123.031v-.043Z" transform="translate(-32.379 -79.867)"/><path class="a" d="M46.475,133.163l-.264-.267-.895-.062-.433-.778-.612.006a.382.382,0,0,1-.318.235c-.214,0-.341-.211-.428-.393l-.01-.021-.336-.412.083-.041-.669-.331.038-.051-.31-.316-.631-.293a.345.345,0,0,1-.259.153h-.042l0,.144-.149-.2a.912.912,0,0,1-.253-.31l-.333-.331h-.044v-.044l-.38-.38h-.043l0-.046-.346-.337-.385-.139a15.613,15.613,0,0,0,6.782,4.786l.25-.252Z" transform="translate(-24.583 -74.708)"/><path class="a" d="M119.572,136.98l.1-.1h-.1Z" transform="translate(-68.695 -78.814)"/><path class="a" d="M142.278,116.99l-.076-.016.074.018Z" transform="translate(-81.966 -66.974)"/><path class="a" d="M122.2,135.131v.108l.106-.107Z" transform="translate(-70.144 -77.908)"/><path class="a" d="M16.539,58.527a11.274,11.274,0,0,1,.58,2.281,6.123,6.123,0,0,0,1.367,3.425q-.075-.693-.151-1.38c-.142-1.281-.288-2.606-.411-3.906a5.878,5.878,0,0,1,.714-3.662l.041-.07-.026-.156c-.068-.4-.151-.9.42-1.175l.231-.11-.451,1.433-.009.142a34.02,34.02,0,0,0,.48,7.965c.146.832.237,1.685.326,2.51l.065.6c.011.1-.058.178-.153.284-.045.049-.1.108-.155.182l-.129.169-.154-.481c-.066-.205-.122-.38-.181-.553a.354.354,0,0,0-.039-.076l-.052.02c.021.212.04.427.059.645.049.561.1,1.142.2,1.707.034.192.06.4.086.6a2.972,2.972,0,0,0,.53,1.687A13.28,13.28,0,0,1,21.921,73.7c.167.292.334.584.508.874a.8.8,0,0,0,.382.223l.044.017V74.81h0l.033-.75.658.279q-.209-.466-.42-.932c-.429-.951-.873-1.935-1.288-2.913-.133-.314-.274-.627-.415-.94a15.44,15.44,0,0,1-1.089-2.942c-.27-1.228-.421-2.5-.567-3.73-.089-.752-.182-1.53-.3-2.289a12.4,12.4,0,0,1,1.044-7.784,48.9,48.9,0,0,0,2.1-4.763c.408-1.071.744-2.191,1.07-3.275.131-.438.263-.876.4-1.311l-.411-.085.7-1.333,0,.772.567-1.136-.012-.01.893-1.233-.037-.018.128-.112,2.03-1.654.742-1.846.278,1.2,1.476-1.782-.014-.006.006-.006a.29.29,0,0,1-.188-.234c0-.141.152-.224.271-.274l0-.13,0,0v-.163l-.891-.026.316-.7a4.23,4.23,0,0,0-2.556,2.261c-.067.117-.133.237-.2.357a6.543,6.543,0,0,1-.946,1.413c-2.29,2.375-3.63,5.355-4.926,8.236-.606,1.349-1.234,2.744-1.951,4.06-.251.461-.49.941-.72,1.4A18.76,18.76,0,0,1,16.8,55.577c.045.179.1.363.159.541C17.227,56.967,17.5,57.845,16.539,58.527Zm6.043,14.606.174.363-.2.1-.1-.191-.074-.179Zm-1.265-1.951c.755.123.891.7.925,1.258l.008.134-.134-.016c-.737-.093-.832-.667-.915-1.174l-.038-.226Zm-1.5-3.866,1.224,3.2-.242-.1a2.2,2.2,0,0,1-1.245-1.79,3.9,3.9,0,0,0-.31-.916l-.056-.1Zm3.24-22.537c.014-.031.028-.062.041-.094l.067-.164.305.338-.259.593L23.1,45.3c-.011-.014-.026-.028-.04-.043a.242.242,0,0,1-.1-.207A1.263,1.263,0,0,1,23.057,44.778Zm-.387,1.157a.369.369,0,0,0,.032-.026l.094-.091.075.106a.305.305,0,0,0,.027.031.2.2,0,0,1-.022.333c-.011.01-.022.019-.031.029l-.093.1-.08-.112c-.009-.013-.021-.026-.031-.038a.238.238,0,0,1-.081-.176A.241.241,0,0,1,22.669,45.935Zm-.561,1.395.11.026h0l.1.041-.024.062-.1-.041h0l-.1-.041Z" transform="translate(-11.46 -22.701)"/><path class="a" d="M111.831,26.684h0l.026-.049Z" transform="translate(-64.419 -16.38)"/><path class="a" d="M116.394,138.641l-.353,0v.169h0v.015Z" transform="translate(-66.759 -79.723)"/><path class="a" d="M118.156,137.765l-.354,0,0,.169h0v.017Z" transform="translate(-67.731 -79.269)"/><path class="a" d="M135.763,47.136v-.1l-.1.1Z" transform="translate(-78.582 -28.373)"/><path class="a" d="M121.727,138.959l-.09.092h.091Z" transform="translate(-69.835 -79.889)"/><path class="a" d="M64.281,25.963l.252,0,0-.253H64.28Z" transform="translate(-38.179 -15.9)"/><path class="a" d="M45.861,37.088l0,.1.1-.1Z" transform="translate(-28.008 -22.882)"/><path class="a" d="M50.249,33.582v.108l.105-.107Z" transform="translate(-30.43 -19.976)"/><path class="a" d="M53.184,131.63l.106.106v-.106Z" transform="translate(-32.05 -76.096)"/><path class="a" d="M122.6,33.582h-.1l.1.105Z" transform="translate(-70.307 -19.976)"/><path class="a" d="M46.738,34.46v.256h.253V34.46Z" transform="translate(-28.495 -20.43)"/><path class="a" d="M47.721,45.01h0l0,.19.114-.2Z" transform="translate(-29.035 -27.25)"/><path class="a" d="M45.513,40.319a3.365,3.365,0,0,0-1.06,1.58Z" transform="translate(-27.248 -24.69)"/><path class="a" d="M54.978,32.721l-.337,0,0,.133,0,0,0,.043Z" transform="translate(-32.858 -19.53)"/><path class="a" d="M51.116,32.965l.676-.008.007-.243-.683,0Z" transform="translate(-30.921 -19.525)"/><path class="a" d="M53.025,33.59l-.459,0-.226.456Z" transform="translate(-31.596 -19.98)"/><path class="a" d="M126.571,131.631v.1l.1-.1Z" transform="translate(-72.559 -76.097)"/><path class="a" d="M46.174,35.755l.1-.006v-.1Z" transform="translate(-28.181 -21.047)"/><path class="a" d="M50.159,43.11l.183-.036,1.277-2.144a6.309,6.309,0,0,0-2.964,3.787l.576-.3C49.251,43.846,49.389,43.259,50.159,43.11Z" transform="translate(-29.607 -25.066)"/><path class="a" d="M125.7,132.508v.1l.1-.1Z" transform="translate(-72.077 -76.55)"/><path class="a" d="M118.634,52.72v-.648l-.443,0Z" transform="translate(-67.95 -31.163)"/><path class="a" d="M82.271,72.9l.1-.092.02-.018a2.635,2.635,0,0,0,.68-.773c1.662-3.564,3.145-7.085,3.051-10.967-.081-3.311-.262-6.7-.54-10.065a8.33,8.33,0,0,0-.972-2.889c-.53-1.058-1.119-2.111-1.69-3.128l-.023-.041c-.4-.713-.813-1.45-1.2-2.184a3.329,3.329,0,0,1-.188-.437,28.612,28.612,0,0,0-11.484-9.148,3.025,3.025,0,0,1-.607-.145,17.9,17.9,0,0,0-9.441-.669,19.025,19.025,0,0,0-8.455,3.291.983.983,0,0,1-.469.146c-.047.006-.094.013-.139.021-.259.271-.522.539-.784.808-.585.6-1.19,1.215-1.746,1.868a16.535,16.535,0,0,0-4.226,8.884,10.667,10.667,0,0,1-.921,3.039,27,27,0,0,0-2.292,8.659c-.456,4.936,1.815,8.927,4.1,12.18,3.953,5.634,9.4,9.394,16.638,11.495A17.876,17.876,0,0,0,76.2,79.28l-.068-.081.459-.212c.324-.252.677-.539,1.038-.848l.131-.26-.012-.022v0l0-.006a.694.694,0,0,1-.085-.213.2.2,0,0,1,0-.05l-.076,0,.149-.146.03-.03,1.127-1.118v.563a2.524,2.524,0,0,0,.249-.1c.355-.353.676-.688.983-1.024l.058-.064c.027-.06.053-.123.077-.19l-.464,0,.05-.077,1.167-1.783v.265l1.24-1.922Zm.463-1.185-.106-.15a.18.18,0,0,0-.018-.023.287.287,0,0,1-.1-.223.281.281,0,0,1,.132-.189l.012-.009a.15.15,0,0,0,.019-.015l.136-.127.281.4Zm.7-1.118-.254.266-.113-.152-.02-.023a.3.3,0,0,1-.109-.227.287.287,0,0,1,.134-.2c.015-.012.024-.019.031-.026l.131-.128.286.384Zm.393-.785L83.4,69.8v-.823l.463.01Zm.473-1.239-.614-.255.723-1.1Zm1.709-8.655.082,1.233-.56.024V59.932Zm-.9-3.46h.468v1.679l-.468,0Zm-.15,6.42.291.415c.375.534.781,1.314-.028,1.937l.011.086c0,.044.012.088.019.133l0,.028c.055.356.131.844-.492,1.052l-.309.1.505-1.457Zm-.107.295-.192.667-.184-.132c-.026-.019-.054-.036-.081-.054l-.02-.013a.88.88,0,0,1-.29-.25c-.081-.126.018-.252.123-.385.029-.036.056-.07.077-.1l.1-.154ZM83.9,50.617l.041.027-.04-.028c.008-.012.017-.025.024-.037l.187-.324.177.6-.308.539-.108-.357-.01-.028L83.857,51a.4.4,0,0,1-.039-.2A.386.386,0,0,1,83.9,50.617Zm-.53,10.975.522,0v1.336l-.522,0Zm.115,2.422-.206.539-.2-.336a1.382,1.382,0,0,1-.108-.2c-.055-.125.055-.2.121-.247l.187-.143Zm-.911-13.507h.4v1.017h-.4Zm-.952-7.056.2.72-.638-.111Zm-.308,2.635-.086.689-.542-.418Zm-.728-.02-.185-.752.584.089Zm-.475-1.553h0a.316.316,0,0,0,.028-.021l.128-.118.292.384-.357.325-.106-.14-.017-.019a.283.283,0,0,1-.1-.219A.276.276,0,0,1,80.111,44.512Zm-7.874-8.271,0,.012,0,.012.062.162-.51.157-.167-.629.252.049.051.008a.581.581,0,0,1,.185.049A.252.252,0,0,1,72.237,36.241ZM71.49,34.87a1.22,1.22,0,0,1,.1-.256l.012-.025c.01-.022.02-.043.029-.065l.167-.384.162.478a1.3,1.3,0,0,1,.078.277.262.262,0,0,1-.131.233l-.035.03-.124.127-.113-.138a.327.327,0,0,0-.031-.032A.266.266,0,0,1,71.49,34.87ZM67.1,32.735l.041.348-.852.061-.016-.409Zm-4.319.308.007.506H60.678l0-.506Zm-5.679.732.546.72-.836-.2Zm-.6.643-.408.577-.3-.638Zm-1.307-.229-.033.719-.148.02H53.635Zm.789,4.765.036.077-.709-.061.406-.571.2.414.126-.2a2.353,2.353,0,0,1,3.063-1.21l.414.139L55.98,38.954Zm-.106.828a13.971,13.971,0,0,1,5.25-1.716c.068-.009.139-.021.212-.033a1.975,1.975,0,0,1,1.16.023,3.14,3.14,0,0,0,2.125.231c.179-.022.364-.044.548-.058a1.186,1.186,0,0,1,.388.05,1.291,1.291,0,0,0,.337.051,2.18,2.18,0,0,1,1.243.3,5.075,5.075,0,0,0,1.649.682,7.72,7.72,0,0,1,1.237.427,11.251,11.251,0,0,1,4.665,3.3c.2.278.413.56.618.832l.017.024a10.97,10.97,0,0,1,2.55,5.006,2.708,2.708,0,0,0,.214.763,8.166,8.166,0,0,1,.794,5.443l-.018.077-.444.2.467.45V55.9a3.1,3.1,0,0,1-.019.352.987.987,0,0,0,.032.535c.888,1.292.547,2.86.218,4.377-.083.385-.163.749-.22,1.1-.06.374-.108.718-.154,1.051a7.721,7.721,0,0,1-1.558,4.272,17.165,17.165,0,0,1-1.762,1.844c-.507.484-.985.94-1.341,1.354l-.206.241a2.022,2.022,0,0,0-.156.215.723.723,0,0,1-.331.321c-1.866.806-3.37,1.442-5.031,2.125a2.663,2.663,0,0,1-.938.188h0l-.106,0-.667-.023c-4.121-.141-8.382-.287-12.093-2.936A10.284,10.284,0,0,1,53.3,69.767c-.111-.114-.221-.227-.331-.337a15.725,15.725,0,0,1-5-9.765,18.092,18.092,0,0,1,.106-4.364v-.175c.022-.205.034-.408.046-.6.049-.788.092-1.472.681-1.663l-.055-.094c-.12-.2,0-.412.1-.6a1.093,1.093,0,0,0,.115-.253c.991-4.239,1.774-7.587,4.9-10.379a1.4,1.4,0,0,0,.149-.165,1.05,1.05,0,0,1,.332-.3,2.967,2.967,0,0,0,.781-.653A3.24,3.24,0,0,1,55.875,39.782Zm-1.244-1.587-.746.1-.123.456-.61-.486.565-.216.608-.51Zm-1.695-2.054.022-.02a.309.309,0,0,1,.229-.111.284.284,0,0,1,.2.143l.007.01a.261.261,0,0,0,.017.022l.114.129-.137.105a.3.3,0,0,0-.027.024.305.305,0,0,1-.2.108h-.019a.281.281,0,0,1-.2-.143l-.009-.012a.175.175,0,0,0-.016-.02l-.113-.128Zm-4.174,2.6c0-.008.005-.017.008-.027a.258.258,0,0,1,.122-.182.387.387,0,0,1,.115-.035l.443-.078-1.03,1.194Zm-.617,11.57q.043-.426.085-.85l.039-.391c.11-1.106.224-2.25.357-3.378.058-.491.161-.989.251-1.428.031-.156.063-.312.094-.468l-.228-.027.055.035L48.677,44l-.007,0a.117.117,0,0,1-.092.038l-.109,0-.043-.082a.125.125,0,0,1-.012-.119l0,0,.118-.191,0,0,.364-.678h-.1l.209-.206.25-.466v.219l.423-.416,0,.384.2-.2h.033l.768-.646c.616-.518,1.314-1.1,2.007-1.68l.066-.055a1.8,1.8,0,0,1,1.886-.589l.236.089-.181.176c-.222.216-.446.431-.669.646-.5.484-1.02.981-1.514,1.481a14.678,14.678,0,0,0-3.638,7.732,2.747,2.747,0,0,1-.312.748c-.04.074-.08.149-.118.223l-.392.784Zm-.4,1.326.333-.187-.1.369c-.076.28-.162.563-.245.837l-.01.032a11.642,11.642,0,0,0-.492,2.047A17.517,17.517,0,0,0,49.887,66.86a18.25,18.25,0,0,0,14.185,8.495c5.427.479,9.971-1.776,13.141-6.516a17.772,17.772,0,0,0,2.956-8.158c.007-.074.022-.149.035-.222l0-.016a1.257,1.257,0,0,0,.036-.353c-.1-.847-.175-1.711-.252-2.546l0-.04c-.317-3.449-.645-7.014-2.1-10.3a12.777,12.777,0,0,0-.737-1.352c-.127-.213-.259-.434-.383-.654l-.175-.309c-.182-.32-.369-.648-.532-.982a3.531,3.531,0,0,1-.2-.588l-.011-.041c-.041-.145-.09-.321-.158-.544l-.1-.345a.617.617,0,0,1-.34.123h-.018a1.061,1.061,0,0,1-.717-.457l-.022-.025c-.025-.027-.048-.054-.073-.079a16.929,16.929,0,0,0-6.181-3.739,9.866,9.866,0,0,0-2.276-.5l-.022,0c-.236-.033-.47-.066-.7-.1-.58-.094-1.148-.154-1.805-.224-.311-.033-.635-.068-.984-.109l-.257-.03.142-.217a2.12,2.12,0,0,1,1.3-1.044H60.891l.55,1.2-1.828.367L59.6,37.5l-.265-1.286H58.061L55.04,37.976V37.7a1.941,1.941,0,0,1,.444-1.464,1.489,1.489,0,0,1,1.138-.337q.421.018.841.033l.555.021.044-.03c.129-.087.255-.176.382-.265l.022-.016a9.18,9.18,0,0,1,1.24-.779,1.672,1.672,0,0,1,1.307-.094,3.467,3.467,0,0,0,2.705-.026,5.473,5.473,0,0,1,4.321.945l.5.3H64.412c.156.026.314.064.472.107.709.192,1.443.353,2.151.508l.018,0q.42.092.841.186a.786.786,0,0,0,.127.014.7.7,0,0,1,.332.073c.763.459,1.58.866,2.369,1.26a15.443,15.443,0,0,1,5.045,3.423.538.538,0,0,1,.095.348v.014a1.035,1.035,0,0,0,.007.1l.011.069-.044.055a1.328,1.328,0,0,1-.191.2l.3.211a5.21,5.21,0,0,1,2.3,2.817,25.665,25.665,0,0,0,1.2,2.889l.005.012a26.173,26.173,0,0,1,1.192,2.866,18.005,18.005,0,0,1,.792,7.333,1.457,1.457,0,0,1-.137.427,1.608,1.608,0,0,0-.094.254c1.113,1.44.581,2.725.066,3.969a8.277,8.277,0,0,0-.494,1.427,1.512,1.512,0,0,0,.09.6c.022.086.046.182.071.288.067-.124.128-.237.185-.34a4.082,4.082,0,0,0,.394-.839,11.4,11.4,0,0,0,.446-6.082A10.531,10.531,0,0,1,81.6,55.25a16.564,16.564,0,0,0-1.819-7.422c-.144-.316-.285-.633-.426-.951l-.028-.065c-1-2.242-2.025-4.562-4-6.2-.871-.726-1.824-1.391-2.745-2.034-.329-.229-.65-.454-.969-.681s-.63-.416-.946-.608l-.062-.039-.264-.163L70.186,37l-.812-.356-.72-.18.221-.5.545.416.052-.011a.9.9,0,0,1,.683.03.614.614,0,0,1,.247.387l.036,0A5.978,5.978,0,0,1,74.8,38.745a6.3,6.3,0,0,0,1.287,1.015c.161.106.34.224.512.345l.015-.023.141.131.8.8.048.028.174.169,0-.415.844.888v-.276l.422.859V42.24l.337.718h0l.39.845-.387.009c.232.537.476,1.079.712,1.6a46.585,46.585,0,0,1,1.774,4.329,19.218,19.218,0,0,1,.7,3.606c.048.375.1.742.15,1.112.183,1.247.343,2.585.516,4.342a19.3,19.3,0,0,1-.7,6.167l-.027.121c-.018.082-.037.163-.055.244l.544-.253-.07.7-.495-.359q-.065.292-.128.585l.012.021-.028.093-.028.05.132-.033.032.137h-.013a.153.153,0,0,1-.047.095l-.066.065-.089-.026a.15.15,0,0,1-.066-.037l-.163.275-.056.094c-.266.447-.568.954-.828,1.465a17.584,17.584,0,0,1-10.755,9.163,13.092,13.092,0,0,1-4.073.611,32.965,32.965,0,0,1-4.453-.4.645.645,0,0,1-.4-.32c-.019-.027-.039-.055-.058-.08h-.007a5.471,5.471,0,0,1-3.615-.709c-.712-.378-1.473-.7-2.208-1.013l-.17-.072,1.117,1.061.525.319-.053.106,1.192.109-.26.633-1-.612v0l-.021.04-.626-.251a7.889,7.889,0,0,1-4.676-3.462l-.127-.185-.037.036-.421-.412.213-.231.169.13.265.289-.118.117.689.021-.247-.279-.067-.076c-.446-.5-.9-1.018-1.319-1.549l-.063-.079h0c-.268-.348-.505-.723-.736-1.086-.085-.136-.169-.267-.254-.4L48.9,68.7l.847.725q.21.179.418.362c.4.352.821.716,1.258,1.041.227.169.468.324.707.468l-.241-.263c-.7-.768-1.43-1.562-2.118-2.375a13.542,13.542,0,0,1-3.446-7.6,11.294,11.294,0,0,0-.262-1.451,7.091,7.091,0,0,0,.089,1.695c.122.813.263,1.637.4,2.435l.335,1.965-.486-.986c-.123-.25-.264-.5-.4-.749a6.259,6.259,0,0,1-.851-2.054,39.064,39.064,0,0,1-.306-4.236c-.02-.578-.041-1.169-.072-1.748l0-.081-.075.018-.041-.165.313-.074.016.069.767-.509v2.24l.051-.268c.066-.348.132-.7.207-1.052.024-.108.046-.217.068-.325l0-.014a10.887,10.887,0,0,1,.318-1.278,6.528,6.528,0,0,0,.194-.806A2.583,2.583,0,0,1,47.746,51.637Zm33.629,17.8-.618-.057.373-.686ZM73.7,76.964l-.075.61-.649-.388Zm-.907,1.014H71.421l1.177-.637Zm-4.045.294,2.633-.119-.206.272a1,1,0,0,1-.84.456,2.4,2.4,0,0,1-1.062-.333Zm.079.939H64.764l0-.527h3.862Zm-5.442-.441-.291-.033a.566.566,0,0,1-.156-.028.225.225,0,0,1-.129-.153l-.082-.173.183-.066.037-.01a.336.336,0,0,1,.215-.012.242.242,0,0,1,.139.2.287.287,0,0,0,.007.03Zm-1.633-.435H60.539l-.013-.517,1.2-.055Zm-2.126-.889-.027.491-1-.049.026-.5Zm-12.764-9.8-.467-.276a1.619,1.619,0,0,1-.8-1.6l.032-.609Zm-.725-14.288.109.667-1.325.156-.13-.716Zm-.05-.381.356-1.261.176.98Zm.124-8.821.164.023a.207.207,0,0,1,.2.119.609.609,0,0,1,.029.167l.027.251-.572-.091Zm-.388,8.6-.388.4-.074-.27c-.008-.028-.017-.057-.026-.086a1.235,1.235,0,0,1-.06-.266.275.275,0,0,1,.121-.222.311.311,0,0,0,.033-.03l.193-.215ZM44.8,45.43l.71-1.7-.176,1.938-.554-.187ZM44.462,46.8h.457v.881h-.457ZM42.991,60.378l.205-.139.385.672-.338.023c-.051,0-.1.01-.159.01a.737.737,0,0,1-.108-.008c-.085-.013-.154-.086-.2-.207a.193.193,0,0,1,.028-.206A.9.9,0,0,1,42.991,60.378Zm-.105-3.961-.087-.36q0-.015-.009-.03a.442.442,0,0,1-.03-.2.37.37,0,0,1,.086-.174c.01-.013.018-.023.025-.033l.2-.308.091.356c0,.008.005.017.009.026l0,.014a.393.393,0,0,1,.028.194.374.374,0,0,1-.087.174l-.027.035Zm.33,6.033H43.7V63.4h-.487Zm.471,2.018c.007-.009.013-.019.021-.03l.014-.02c.049-.074.124-.191.253-.153a1.531,1.531,0,0,1,.269.114l.267.129-.126.157c-.008.01-.015.022-.024.034l-.011.015c-.05.074-.107.159-.206.159a.173.173,0,0,1-.05-.007,1.543,1.543,0,0,1-.269-.115l-.26-.127Zm-.175-4.653c-.757-.374-.469-.975-.259-1.415a2.062,2.062,0,0,0,.185-.476l.008-.044.31.028v.556l.753-2.968v6.219Zm.15-7.436.56.413-.651.25Zm-.84.054.064-.233.179.095a.046.046,0,0,0,.013.006c.059.025.162.067.167.182a.457.457,0,0,1-.029.165l-.063.232-.2-.1a.207.207,0,0,1-.156-.179A.47.47,0,0,1,42.821,52.433ZM42.5,54.084l.006,0a.126.126,0,0,1,.005-.114l.037-.085.092-.011a.124.124,0,0,1,.117.034l0,0,.086.114.7-.389V54.6L42.4,54.265l.168-.093Zm-.114,3.357.378-.021.069.854-.447.015Zm-.455-2.155.425,0v.888l-.246-.085c-.048-.013-.169-.045-.175-.172s-.005-.25,0-.372Zm.307,4.181.056.022.041-.055.534.389-.3-.122-.131.133c-.262.267-.435.382-.577.382a.261.261,0,0,1-.1-.02c-.19-.08-.186-.323-.181-.559a1.1,1.1,0,0,0-.015-.282l-.383-.654Zm-.936,4.16.443-2.311-.141.1.2-.434.086-.449.069.163.273.1-.01.061a.252.252,0,0,1-.068.155l-.048.035.962,2.286-.669.292-.264-.676-.286.788Zm.622.747h.448V65.2h-.448ZM42.253,66l.394-.675.2.756Zm1.669,2.27-.031-.8-.4-.055v-.042l-.008-.77-.411,0-.012-1.364-.453-.715.62-.268.093.959.47,1.323.4.882.459.882Zm.71-2.135-.7-.392.8-.2Zm.115-2.3.048.009-.048-.009.005-.027c.014-.069.027-.135.033-.2l0-.041a.738.738,0,0,1-.469-.442,1.294,1.294,0,0,1,.327-1.038l.25-.359.165,1.742.472,1.494-.291-.088C44.579,64.672,44.681,64.167,44.747,63.834ZM57.816,80.994l-.779-.47-1.207-.636,1.464-.035-.016.454h.742Zm1.01.295a.491.491,0,0,1-.169-.038.24.24,0,0,1-.121-.174l-.057-.153.152-.077.041-.014c.083-.029.194-.069.28.018a.36.36,0,0,1,.086.2l0,.017a.209.209,0,0,0,.006.026l.066.237Zm2.432.578.011-.5h-.006l-.017,0-.138-.025,0-.009a.129.129,0,0,1-.068-.084l-.033-.087.061-.071a.13.13,0,0,1,.094-.055v-.007l.21.036-.009.047,1.083.252Zm3.22.82a.812.812,0,0,0-.045.069l-.008.013c-.061.1-.13.219-.263.233l-.033,0a.6.6,0,0,1-.3-.119c-.05-.03-.1-.063-.167-.1l-.491-.252L64.7,82.4ZM81.113,71.849c-.39.576-.808,1.143-1.249,1.7l.4-.49-.291.843a.129.129,0,0,0-.005.022.275.275,0,0,1-.115.2.439.439,0,0,1-.133.048l-.445.091-.084.1.151,0-.718,1.662.01-1.031c-.351.385-.691.737-1.033,1.069l.639.013-.89.819,0-.6c-.113.106-.23.213-.355.325a20.382,20.382,0,0,1-5.281,3.5,17.6,17.6,0,0,1-3.042,1.018,16.834,16.834,0,0,1-3.2.376,17.547,17.547,0,0,1-2.244-.166l-.229.641c0,.006,0,.014,0,.021a.253.253,0,0,1-.112.179.4.4,0,0,1-.122.041l-.449.084.834-.977q-.449-.065-.878-.155c-.17-.028-.341-.075-.507-.119-.1-.026-.183-.049-.271-.07-.066-.018-.128-.034-.191-.05l-.031-.008a5.212,5.212,0,0,1-.559-.163l-1.482-.5a27.072,27.072,0,0,1-5.65-2.811,24.564,24.564,0,0,1-4.78-4.087c-.236-.247-.453-.518-.66-.781l-.031-.04c-.1-.129-.206-.258-.311-.384l-.22-.3c-.235-.318-.48-.648-.7-.99a15.2,15.2,0,0,1-1.219-2.147l-.5-.475.363.167c-.044-.1-.087-.208-.127-.31l-.017-.043.289-.13.021.042c.113.223.238.454.372.685a.255.255,0,0,1,.17.126.368.368,0,0,1,.028.112l.014.117c.306.5.653,1,1.06,1.536.23.315.485.617.732.909l.234.278c.124.128.252.271.365.4.22.242.441.487.678.7A25.957,25.957,0,0,0,54.132,76.6a28.458,28.458,0,0,0,5.494,2.57l1.448.474a4.255,4.255,0,0,0,.485.14l.031.008c.068.016.136.032.2.051.084.02.173.043.262.067.141.037.3.08.454.1a15.482,15.482,0,0,0,2.962.289,15.732,15.732,0,0,0,2.948-.327,17.471,17.471,0,0,0,2.834-.922,20.427,20.427,0,0,0,5.081-3.2A27.2,27.2,0,0,0,80.5,71.41,19.844,19.844,0,0,0,83.479,66.1l.016-.044.3.09-.011.045a14.118,14.118,0,0,1-1.1,2.941,24.447,24.447,0,0,1-1.57,2.719Z" transform="translate(-26.983 -22.003)"/><path class="a" d="M124.05,119.126l.64-.848-.638.306Z" transform="translate(-71.196 -67.737)"/><path class="a" d="M95.755,118.69Z" transform="translate(-55.54 -67.92)"/><path class="a" d="M58.324,54.589l-.186,0v.353Z" transform="translate(-34.786 -32.548)"/><path class="a" d="M117.912,126.38h-.107l0,.107Z" transform="translate(-67.72 -72.17)"/><path class="a" d="M67.148,116.413l-.786-.788.262.772Z" transform="translate(-39.343 -66.269)"/><path class="a" d="M71.269,112.348c1.191.592,2.44,1.122,3.647,1.635.479.2.958.407,1.434.615l.047.02.053,0c.26.011.519.019.779.026.62.017,1.26.036,1.886.11a14.9,14.9,0,0,0,8.97-2,17.362,17.362,0,0,0,5.811-5.341,6.54,6.54,0,0,0,1.243-2.6,4.4,4.4,0,0,0-.4.541l-.086.127c-1.627,2.384-3.471,5.085-6.55,6.712a16.467,16.467,0,0,1-16.556-.088c-.535-.289-1.106-.537-1.658-.778l-.046-.019.014.011A7.223,7.223,0,0,0,71.269,112.348Z" transform="translate(-42.32 -60.784)"/><path class="a" d="M67.048,119.086l-1.092-1.435-.624-.022A3.026,3.026,0,0,0,67.048,119.086Z" transform="translate(-38.8 -67.41)"/><path class="a" d="M119.887,54.942v-.349H119.7Z" transform="translate(-68.772 -32.55)"/><path class="a" d="M118.786,125.505h-.108v.108Z" transform="translate(-68.202 -71.687)"/><path class="a" d="M27.731,53.93c.394-1.069.8-2.175,1.272-3.232a33.861,33.861,0,0,1,1.707-3.188c.3-.515.61-1.047.9-1.577a4.166,4.166,0,0,0,.255-.619c.005-.014.01-.029.015-.044a6.5,6.5,0,0,0-2.246,3.036c-.669,1.6-1.335,3.24-1.979,4.823-.759,1.866-1.543,3.794-2.339,5.682a10.8,10.8,0,0,0-.851,6.49,35.517,35.517,0,0,1,.459,3.714c.044.5.089,1.009.142,1.512A15.9,15.9,0,0,0,28.2,78.374q-.047-.126-.094-.253a19.62,19.62,0,0,0-1.122-2.633,11.788,11.788,0,0,1-1.47-4.807,35.121,35.121,0,0,0-.476-3.514A15,15,0,0,1,26.212,57.7C26.793,56.478,27.27,55.183,27.731,53.93Z" transform="translate(-15.468 -28.47)"/><path class="a" d="M40.681,43.025l-.02.4.358-.57-.337.166h0Z" transform="translate(-25.142 -26.076)"/><path class="a" d="M40.7,43.2h0Z" transform="translate(-25.159 -26.256)"/><path class="a" d="M39.77,123.18c-.783-.794-1.608-1.574-2.407-2.327l-.273-.259a11.184,11.184,0,0,0,2.494,2.663l.443.383v0l.022.02A1.411,1.411,0,0,0,39.77,123.18Z" transform="translate(-23.208 -69.139)"/><path class="a" d="M124.626,138.737l.006,0-1.143.006-.4.736.019.164,1.518-.9Z" transform="translate(-70.715 -79.772)"/><path class="a" d="M126.274,138.737l.006,0h0l-.006,0Z" transform="translate(-72.389 -79.772)"/><path class="a" d="M31.6,120.482l-.324-.992-.343-.338-.579-.283A2.3,2.3,0,0,0,31.6,120.482Z" transform="translate(-18.613 -68.104)"/><path class="a" d="M35.833,124.808l-.252-.251-.042-.042-.416-.206.627.986Z" transform="translate(-21.078 -71.076)"/><path class="a" d="M36.322,123.882l.305.3.515-.032-.819-.773Z" transform="translate(-22.753 -70.553)"/><path class="a" d="M119.663,141.363l-.007.491.5-.247-.247-.243Z" transform="translate(-68.763 -81.133)"/><path class="a" d="M121.422,141.437l.125-.063h-.124Z" transform="translate(-69.717 -81.139)"/><path class="a" d="M31.935,118.725v.091h.044Z" transform="translate(-19.428 -67.944)"/><path class="a" d="M132.765,142.422h.047l-.015-.039Z" transform="translate(-75.975 -81.661)"/><path class="a" d="M87.537,65.328a2.285,2.285,0,0,0-.2.33c-.09.19-.2.383-.307.569a2.063,2.063,0,0,0-.452,1.5,1.592,1.592,0,0,0,.92.855c.139.068.181.333.182.344a.22.22,0,0,1-.042.206c-.5.475-.3.874-.063,1.337a1.694,1.694,0,0,1,.261.893c-.009.1-.014.194-.02.3a1.94,1.94,0,0,1-.284,1.139,1.331,1.331,0,0,0-.275.918,2.29,2.29,0,0,1-.059.521c-.64,2.357-1.358,4.385-3.681,5.344l-.128.124-.009-.067-.281.115.254-.307-.073-.52-.009.008c-.892.724-1.734,1.41-3,.852L80.1,79.71l.138-.116c.131-.108.255-.217.377-.323a8.432,8.432,0,0,1,.781-.63c3.672-2.505,4.9-5.888,3.853-10.646a15.764,15.764,0,0,1-.1-4.434c.046-.642.093-1.306.1-1.951a.416.416,0,0,1,.06-.194h0l0-.005,0,0c-.808-.131-1.125-.832-1.405-1.456l-.005-.013a8.369,8.369,0,0,0-5.39-4.876c-.29-.085-.58-.173-.871-.262-2.589-.787-5.267-1.6-8.039-.269a3.8,3.8,0,0,0-1.674,1.241,6.773,6.773,0,0,1-1.348,1.281c-.286.227-.582.461-.844.713a7.9,7.9,0,0,0-2.459,4.247,7.582,7.582,0,0,1-.371,1.195,7.183,7.183,0,0,0-.37,1.21,12.56,12.56,0,0,0,.707,7.5c.111.25.219.5.327.75a14.922,14.922,0,0,0,2,3.647,11.474,11.474,0,0,0,7.716,4.314,13.712,13.712,0,0,0,6.253-.858l.067-.021.048.051a1.4,1.4,0,0,1,.305.871c.045.412.078.712.58.763l.415-.207-.182.227.152.013-.3.168a1,1,0,0,1-.824.473c-.331-.029-.644-.3-1.014-.9V82.44l-3.037.617-.154-.505.985-.453-.034-.193-2.168.155.047,1.063-2.1-1.449c-.022.088-.04.176-.057.263-.058.287-.109.535-.282.627-.851.451-1.391-.1-1.807-.708l-.044-.063.41-.6c-.178-.074-.354-.149-.531-.224-.556-.236-1.131-.48-1.706-.689A8.6,8.6,0,0,0,67.252,80c-.215-.048-.451-.1-.717-.168l-.032-.008-3.523-3.711v0l-.014-.015.013.083a2.912,2.912,0,0,0,.328,1.136,12.31,12.31,0,0,0,6.9,5.425c2.648.8,5.251,1.482,7.975.939a.877.877,0,0,1,.511.077l0,0h0l.813-.421c.512-.266.942-.49,1.375-.7a12.814,12.814,0,0,0,7.436-10.8,19.2,19.2,0,0,0-.269-4.556c-.089-.64-.18-1.3-.243-1.951a1.323,1.323,0,0,0-.135-.053l-.085-.031ZM68.822,77.591a.223.223,0,0,1-.146-.049l-.026-.032-.155-.175-.313-.289.594-.247-.052.514.16.065Zm-.1-.992-.088-.045a5.84,5.84,0,0,1-2.311-2.481c-.1-.167-.206-.331-.309-.5A7.74,7.74,0,0,1,64.9,71.288c-.156-.647-.277-1.312-.4-1.955-.05-.273-.1-.546-.152-.818l-.032-.025v0l-.482-.392.413.068a.3.3,0,0,0,.038,0,.3.3,0,0,1,.122.025L65.2,66.1l-1.953-1.583,1.507-1.487-.766-.675.686-1.75,1.732.556a2.343,2.343,0,0,1,0-.517.968.968,0,0,0-.111-.7.853.853,0,0,0-.614-.2l-.12,0,.014-.119a3.175,3.175,0,0,1,1.714-2.289l.15-.1A25.051,25.051,0,0,1,71.43,55.01a3.831,3.831,0,0,1,2.083-.136,24.139,24.139,0,0,1,2.454.637c.383.113.781.231,1.2.349l.477.132-.488.084c-3.7.643-4.033.7-5.164.168l.427.655L70,57.609l-3.367,3.723-.412,2.357-.054.024a.466.466,0,0,1-.4.03c-.186-.087-.247-.311-.307-.528-.042-.152-.09-.326-.168-.35-.031-.009-.126-.013-.352.169l-.022.114c-.111.564.29.785.714,1.02.093.051.185.1.27.156l.057.035,0,.067c-.472,6.6-.121,7.272,3.221,11.347l.053.064ZM63.931,66.114l.44-.067.19,1.015-.49.079Zm11-7.853-.383.12-.123-.467.162.017c.014,0,.03,0,.045,0a.387.387,0,0,1,.164.032.2.2,0,0,1,.092.154.288.288,0,0,0,.008.032Zm3.424,19.812-.479.161c-.175.06-.368-.081-.574-.231-.061-.044-.122-.088-.18-.125a8.923,8.923,0,0,1-5.366.8l.589,1.215-1.686-1.044.867-.321a1.016,1.016,0,0,0-.952-1.1.735.735,0,0,1-.731-.877l-.387-.125.4-.422.143.387.046-.007a.508.508,0,0,1,.346.025c2,1.224,4.211,1.293,6.682,1.255h.045c.089-.059.178-.121.266-.181.216-.149.439-.3.672-.435.3-.169.608-.328.907-.481a12.887,12.887,0,0,0,1.628-.937C82.867,74,83.279,71.657,83.2,68.647a9.044,9.044,0,0,0-.157-1.264c-.015-.087-.03-.173-.044-.26a7.041,7.041,0,0,0-1.453,3.1.378.378,0,0,0,.055-.015.348.348,0,0,0,.04-.049.393.393,0,0,1,.1-.109,2.3,2.3,0,0,1,.252-.135l.25-.126.008.172c.143,3.07-1.168,4.792-3.792,4.987l0,.045-.035-.032a2.949,2.949,0,0,1-2.636.92,5.888,5.888,0,0,0-1.267.093,2.459,2.459,0,0,1-1.464-.378l-.112-.053-.554-.206h0v0l-1.241-.462-.1-.063.081-.082.361-.51-.619-.144,0,.408-.131-.021a4.206,4.206,0,0,1-2.954-2.542c-1.229-2.651-2.281-5.5-.516-8.6l.063-.11.1.077A1.693,1.693,0,0,1,67.8,65.4l-.019.057a8.846,8.846,0,0,0,.209,4.955l.026.109a.615.615,0,0,0,.163.245,4.06,4.06,0,0,0-.037-.445,1.416,1.416,0,0,1,.394-1.445l0,0,.045-.031c-.036-.226-.077-.453-.119-.679a10.725,10.725,0,0,1-.223-1.745,2.571,2.571,0,0,0-.11-.572,1.489,1.489,0,0,1-.012-1.145,1.175,1.175,0,0,1,.731-.489c0-.009,0-.018,0-.028a1.949,1.949,0,0,1,.18-1.11l.132-.218.633,2.2.134-1.811.468.012v1.009c0,.664,0,1.329,0,1.993.017,2.19.7,2.827,3.027,3.88a3.893,3.893,0,0,0,4.321-1.009,3.7,3.7,0,0,0,1.438-2.615,2.376,2.376,0,0,0-.562.74,2.382,2.382,0,0,1-1.6,1.364l-.244.058,2.034-3.723.02.052-.51-2.4-1.265-.756.241-.073a1.065,1.065,0,0,1,.955.023.8.8,0,0,1,.248.691l.612.265v0h0l.055-.6-.027-.049a1.066,1.066,0,0,1-.109-.24c-.022-.081.035-.136.1-.182a3.157,3.157,0,0,0-1.922-1.051,5.474,5.474,0,0,1-1.319-.488c-1.07.981-2.177.618-3.156.3-.182-.06-.361-.119-.537-.168l-2.417,1.142.652-1.346-2.043,1.938-.075-.1a1.306,1.306,0,0,1-.33-1.045,1.259,1.259,0,0,1,.688-.792c.449-.253.9-.5,1.351-.75l.612-.338.763-.368-.074.121.244-.17c.335-.234.689-.439.981-.348a.646.646,0,0,1,.383.392h0l.029.076,2.31.34.592-2.584,1.94.443L77.6,56.2l.127-.019A3.689,3.689,0,0,1,80.914,57.6a10.366,10.366,0,0,1,3.374,8.912c-.013.113-.027.228-.041.342a3.583,3.583,0,0,0,.459,2.914.912.912,0,0,1,.194.681c-.092.386-.17.791-.247,1.181a10.535,10.535,0,0,1-.915,3.049,7.128,7.128,0,0,1-2.707,2.277A13.655,13.655,0,0,1,78.351,78.073ZM73.648,63.5l-1,.15.049-.167c.261-.9.314-.929,1.4-.887l.181.007-.443.8.8.8-.851.535c-.089.081-.175.17-.26.258a2.573,2.573,0,0,1-.671.551,9.49,9.49,0,0,1-1.283.479c-.206.067-.423.136-.649.214l-.148.051v-2.67l.31-.079.048.108.277,1.3a1.15,1.15,0,0,0,.976-.283c.365-.235.775-.5,1.266-.191Zm3.124.851a1.016,1.016,0,0,1,.375.7h.767l-.177.531L77.01,65.2l-2.428-.747.645-.121C75.895,64.2,76.422,64.1,76.772,64.347Zm-1.365-1.755.523.052-.308.454Zm.579-1.184.378-.081.173.282-.2.039a.553.553,0,0,1-.125.018H76.2c-.081,0-.112-.075-.13-.117Zm.756,7.73-.127.027c-.048.01-.1.022-.141.034a1.283,1.283,0,0,1-.322.056.475.475,0,0,1-.064,0c-.113-.012-.148-.137-.189-.281-.012-.041-.024-.084-.036-.118l-.04-.1.679-.253ZM72.4,68.11c-.508.029-1.141.064-1.21-1.136l-.015-.271,1.3,1.17,1.456-2.216.085.176a1.771,1.771,0,0,1-.172,1.62c-.227.49-.424.914-.085,1.378h0l.916-.21-.145,1.018-.823-.63h-.041c-.084,0-.175,0-.264,0-.337.014-.685.025-.88-.208a.851.851,0,0,1-.114-.7Z" transform="translate(-38.068 -33.221)"/><path class="a" d="M75.823,90.37l.006.031-.237-.224L74.9,89.81a1.858,1.858,0,0,0,1.049,1.37l-.036-.7Z" transform="translate(-44.069 -52.034)"/><path class="a" d="M76.787,88.17a7.817,7.817,0,0,1-.747-1.4l.309,1.688.14.137v-.007l.164.167.026.019c.088.062.178.122.267.182a5.932,5.932,0,0,1,.567.414c2.364,2.036,4.769,2.261,7.336.679a5.629,5.629,0,0,0-.828.21A6.391,6.391,0,0,1,76.787,88.17Z" transform="translate(-44.975 -50.474)"/><path class="a" d="M80.416,64.464l.126-.12-.168.336,1.414-.572-1.113-.063Z" transform="translate(-47.103 -37.776)"/><path class="a" d="M98.15,77.149l-.169-.81-1.2.586,0,0,.351.939Z" transform="translate(-56.166 -44.595)"/><path class="a" d="M63.2,51.008l-.445.426-.142-.44-.938.131.778.942-.057.07a18.866,18.866,0,0,0-3.427,7.379,3.87,3.87,0,0,1-.588,1.146c-.081.122-.163.247-.239.371.008.055.017.11.027.165a1.627,1.627,0,0,1,.04.454,18.627,18.627,0,0,0,.832,8.583c.064.174.117.358.168.538.192.67.373,1.305,1.147,1.482l-.082-.277c-.105-.361-.211-.723-.324-1.082q-.338-1.076-.679-2.15-.442-1.4-.88-2.792a.935.935,0,0,1-.027-.476,32.506,32.506,0,0,0,.562-3.472,19.919,19.919,0,0,1,1.267-5.625,5.86,5.86,0,0,1,2.62-3.2c.306-.148.542-.337.55-.44a3.122,3.122,0,0,1,1.764-2.382,5.893,5.893,0,0,0,1.085-.864,1.756,1.756,0,0,1,.763-.443,8.9,8.9,0,0,1,4.912.129l.729-.911.085.124c1.29,1.873,2.976,2.271,5.294,1.244a21.442,21.442,0,0,0-8.548-1.982l-.224,0,.038-.049h-.1L62.919,50.9Z" transform="translate(-35.37 -29.388)"/><path class="a" d="M101.828,53.4a28.742,28.742,0,0,1,2.545,3.3c.494.708,1.005,1.441,1.548,2.129a1.285,1.285,0,0,1-.063,1.686c.426.234.4.644.385,1.01a1.344,1.344,0,0,0,.045.563c.3.716.533,1.282,1.374,1.4a18.391,18.391,0,0,0-2.211-7.182,8.71,8.71,0,0,0-4.462-3.881l.025.03C101.274,52.768,101.543,53.1,101.828,53.4Z" transform="translate(-58.745 -31.621)"/><path class="a" d="M98.78,65.8A7.075,7.075,0,0,0,94.92,62a6.922,6.922,0,0,0-1.309-.324c-.175-.032-.351-.064-.528-.1-.032.991.291,1.488,1.069,1.654a3.7,3.7,0,0,1,2.465,1.97c.545.978,1.025,2.011,1.489,3.01.18.389.362.778.547,1.165l.072-.06-.038.134.026.055.255.532-.151-.14.195.54A6.381,6.381,0,0,0,98.78,65.8Zm-.884.5-.14-.726.389.033Z" transform="translate(-54.334 -36.651)"/><path class="a" d="M81.931,89.963l.008-.011.092,0c.232.077.472.179.7.278a2.752,2.752,0,0,0,1.555.363,4.3,4.3,0,0,1,.823-.093c.832-.043,1.62-.083,1.776-1.157-.182.022-.365.045-.548.069A7.133,7.133,0,0,1,81.754,89c-.176.244-.363.551-.289.73C81.511,89.839,81.667,89.918,81.931,89.963Z" transform="translate(-47.846 -51.595)"/><path class="a" d="M77.977,83.781l.164.333c.061-.014.165-.042.265-.07l.252-.069c-1.437-1.141-1.56-2.658-1.489-4.376a1.465,1.465,0,0,0-.35,1.616A27.454,27.454,0,0,0,77.977,83.781Z" transform="translate(-45.097 -46.507)"/><path class="a" d="M93.657,86.646l.057,0a1.03,1.03,0,0,0,.626-.059,3.683,3.683,0,0,0,1.379-2.269Z" transform="translate(-54.47 -49.038)"/><path class="a" d="M96.214,89.776a1.106,1.106,0,0,0-.125.569v.009a2.328,2.328,0,0,0,1.348-1.942l-.192.2A13.122,13.122,0,0,0,96.214,89.776Z" transform="translate(-55.784 -51.284)"/><path class="a" d="M103.363,79.8l.25-.883C103.312,79.191,103.271,79.333,103.363,79.8Z" transform="translate(-59.733 -46)"/><path class="a" d="M99.342,92.979l.608-.988-.523-.239Z" transform="translate(-57.55 -53.101)"/><path class="a" d="M91.793,66.215l.037,0,0-.014Z" transform="translate(-53.359 -38.948)"/><path class="a" d="M85.628,66.457h0Z" transform="translate(-49.955 -39.091)"/><path class="a" d="M86.684,66.354v-.008l-.113-.005Z" transform="translate(-50.48 -39.027)"/><path class="a" d="M83.732,97.763l.094-.023-.09-.036Z" transform="translate(-48.912 -56.34)"/><path class="a" d="M100.177,84.733h0Z" transform="translate(-57.985 -49.178)"/><path class="a" d="M133.465,142.776l-.016.011c0,.02,0,.04,0,.061h.046Z" transform="translate(-77.435 -81.865)"/><path class="a" d="M63.941,152.159a1.054,1.054,0,0,0-.324.091l.227.175.223-.164A.468.468,0,0,0,63.941,152.159Z" transform="translate(-37.818 -86.721)"/><path class="a" d="M30.293,131.068l.08.185.316-.131a.574.574,0,0,0-.2-.136.547.547,0,0,0-.165.068Z" transform="translate(-18.579 -75.763)"/><path class="a" d="M155.879,68.713a.67.67,0,0,0-.036-.09l-.027.01Z" transform="translate(-89.012 -40.289)"/><path class="a" d="M153.138,60.2a.7.7,0,0,0-.09.035l.01.028Z" transform="translate(-87.579 -35.64)"/><path class="a" d="M151.213,54.743l.08-.062a.631.631,0,0,0-.09.035C151.206,54.725,151.21,54.734,151.213,54.743Z" transform="translate(-86.624 -32.592)"/><path class="a" d="M154.155,113.588l-.039.015.039.031Z" transform="translate(-88.132 -65.106)"/><path class="a" d="M143.081,135.72v-.046l-.039.015Z" transform="translate(-82.401 -78.189)"/><path class="a" d="M46,143.17l.063.081a.754.754,0,0,0-.036-.091Z" transform="translate(-28.085 -82.063)"/><path class="a" d="M46.805,143.982c.03.025.06.048.091.069l0,0-.072-.088Z" transform="translate(-28.529 -82.477)"/><path class="a" d="M46.9,145.839l0,0-.088.071.023.023C46.852,145.9,46.875,145.869,46.9,145.839Z" transform="translate(-28.528 -83.448)"/><path class="a" d="M53.351,147.675l-.088.071.023.023c.025-.03.048-.06.069-.091Z" transform="translate(-32.094 -84.4)"/><path class="a" d="M46.805,148.583c.03.024.06.048.091.068l0,0-.072-.088Z" transform="translate(-28.529 -84.858)"/><path class="a" d="M60.765,153.292l.063.081a.645.645,0,0,0-.035-.091Z" transform="translate(-36.234 -87.302)"/><path class="a" d="M45.263,19.725l-.039.015.039.031Z" transform="translate(-27.655 -12.804)"/><path class="a" d="M30.143,122.15l-.064-.064v.064Z" transform="translate(-18.468 -69.798)"/><path class="a" d="M39.307,132.209v.064h.064Z" transform="translate(-24.39 -76.396)"/><rect class="a" width="0.053" height="0.002" transform="translate(21.533 7.09)"/><path class="a" d="M20.358,107.707c-.1.5-.252.765-.477.825-.326.09-.646-.281-.958-.638a7.824,7.824,0,0,1-.551-.745,4.411,4.411,0,0,0-.886-1.058,2.762,2.762,0,0,1-.636-.8,1.643,1.643,0,0,0-1-.916l-.15-.034.079-.132a1.263,1.263,0,0,0,.057-.114.56.56,0,0,1,.214-.284.723.723,0,0,1,.241-.056.588.588,0,0,0,.147-.028,1.06,1.06,0,0,0-.107-.175q-1.22-1.638-2.455-3.265l-.829-1.1c-.055.061-.113.129-.17.2-.285.337-.455.523-.622.465a.814.814,0,0,1-.549-.5,1.513,1.513,0,0,1,.345-1.25,15.332,15.332,0,0,0-1.715-4.5l-.11-.136a1.289,1.289,0,0,1-.412-1.09c0-.034-.087-.133-.134-.186h0a.709.709,0,0,0-.068.19c-.047.3-.082.6-.119.9l-.081.659-.166-.254c-.075-.114-.159-.226-.242-.338a3.121,3.121,0,0,1-.486-.811,7.389,7.389,0,0,1-.288-1.324,4.887,4.887,0,0,0-.577-1.924c-.183-.291.217-.942.3-1.069.178-.276.346-.4.506-.356s.246.227.269.567a.445.445,0,0,0,.1.182.65.65,0,0,0,.1-.129c-.061-.22-.141-.461-.219-.693-.071-.215-.145-.437-.206-.66a.693.693,0,0,1,.173-.5c.073-.116.174-.273.142-.333-.013-.024-.088-.1-.505-.109l-.183,0,.086-.161c.019-.036.036-.075.052-.115a.71.71,0,0,1,.183-.288,1.147,1.147,0,0,1,.245-.148,1.016,1.016,0,0,1-.317-.142c-.1-.073-.1-.214-.109-.349a1.178,1.178,0,0,0-.01-.142c-.022-.134-.048-.268-.074-.4a6.833,6.833,0,0,1-.13-.882,5.612,5.612,0,0,1,.015-.68,2.855,2.855,0,0,0-.058-1.053,2.747,2.747,0,0,0-.64-.912c-.09-.1-.182-.2-.268-.3-.089.1-.18.2-.272.3a5.448,5.448,0,0,0-.773.982,1.387,1.387,0,0,0,.041.836l.032.143a2.057,2.057,0,0,0,.153.406,1.674,1.674,0,0,1,.185.572c.009.127.008.258.008.388,0,.575,0,1.029.776,1.108l.11.011-.01.11a1.044,1.044,0,0,0,.217.569c.233.387.522.869-.218,1.385-.17.119-.28.509-.3,1.071-.011.279-.051.564-.09.839a2.473,2.473,0,0,0,.6,2.541.815.815,0,0,1,.176.567,1.016,1.016,0,0,0,.093.442,1.368,1.368,0,0,0,.407.322c.22.136.427.263.434.454.026.723.34,1,.989,1.3.429.2.709.381.778.647.073.282-.1.587-.483,1.125l-.026.036c-.1.132-.347.482-.306.576.12.27.231.547.341.825a5.386,5.386,0,0,0,1.893,2.816.869.869,0,0,0,.128-.064.862.862,0,0,1,.277-.113,1.846,1.846,0,0,1,1.771.8.656.656,0,0,1-.053.782c-.592.7-.316,1.228-.024,1.789A2.3,2.3,0,0,1,14.3,105.2a1.3,1.3,0,0,0,.415.182.8.8,0,0,1,.757-.281.943.943,0,0,1,.621.626,3.088,3.088,0,0,0,1.43,1.5,2.95,2.95,0,0,1,1.569,1.873.217.217,0,0,0,.039.018,1.931,1.931,0,0,1,2.072-.028l.056-.087c.053-.08.14-.212.127-.257a3.057,3.057,0,0,0-.517-1.058A1.227,1.227,0,0,0,20.358,107.707ZM6.777,82.271l.08-.043a.931.931,0,0,1,.244-.105c.091-.02.154.055.208.121.014.017.028.034.041.048l.11.109-.138.069c-.026.013-.052.028-.078.042A.933.933,0,0,1,7,82.618a.14.14,0,0,1-.031,0c-.076,0-.13-.066-.178-.124-.014-.017-.028-.034-.041-.048l-.11-.11Zm.356,2.171-.49-.27.106-.105c.013-.014.027-.03.041-.048.055-.067.117-.139.208-.121A.932.932,0,0,1,7.242,84l.08.043.139.069Zm7.612,18.609a.627.627,0,0,0-.048.042l-.1.1-.271-.489.327-.327.069.138c.013.027.028.053.042.079a.927.927,0,0,1,.106.244C14.887,102.936,14.811,103,14.745,103.052Z" transform="translate(-6.012 -49.69)"/><path class="a" d="M131.748,25.87a1.08,1.08,0,0,0-.061-.1.805.805,0,0,0-.086.174.887.887,0,0,0,.09.41c.4-.021.615.306.8.594.256.4.437.631.908.44.278-.112.83.778.835.787a4.56,4.56,0,0,1,.551,1.356c.012.059.236.184.356.251.267.15.52.29.49.5-.025.177-.238.306-.728.434l0,.007a.677.677,0,0,0,.1.154l.207,0a.921.921,0,0,1,.722.2.827.827,0,0,1,.122.668c-.032.244-.032.244.714.452l.141.039c.174.047.354.1.39.229a6.056,6.056,0,0,0,1.476,2.336l.216.25c.256.3.434.525.565.691.33.419.351.453.644.45h.044a2.167,2.167,0,0,1,1.416.464,3.313,3.313,0,0,0,.307-.138c.071-.035.147-.071.226-.106-.138-.206-.266-.4-.386-.584a13.9,13.9,0,0,0-.83-1.181c-.409-.5-.841-1-1.259-1.48-.463-.534-.942-1.085-1.392-1.645-.008-.01-.8-1.036-.557-1.317a.5.5,0,0,0,.168-.379c-.018-.092-.105-.176-.275-.263a4.407,4.407,0,0,1-1.472-1.45,6.787,6.787,0,0,0-.782-.942l-.038-.035,0-.052c.027-.563-.316-.673-.876-.807-.437-.1-.926-.22-1.03-.75l-.1.088a4.864,4.864,0,0,1-.706.549.539.539,0,0,1-.42-.015,1.033,1.033,0,0,0-.231-.049C131.885,26.1,131.812,25.979,131.748,25.87Zm5.47,5.255c.027-.013.054-.028.08-.042a.934.934,0,0,1,.245-.105c.093-.022.153.055.207.121a.542.542,0,0,0,.041.048l.106.105-.491.271-.328-.327Z" transform="translate(-76.475 -15.811)"/><path class="a" d="M18.139,43.374c.171.124.273.218.29.329a.355.355,0,0,1-.1.266c-.023.031-.05.067-.077.11a1.166,1.166,0,0,0-.12.5c0,.031-.006.062-.01.093l.157-.037c.171-.04.43-.1.46-.174a5.52,5.52,0,0,0,.441-1.9.937.937,0,0,1,.835-1.06,1.633,1.633,0,0,0,0-.552h-.224l.127-.1a1,1,0,0,1-.2-.205l-.1-.13.157-.046c.027-.008.06-.02.093-.032.129-.048.232-.086.3,0a.579.579,0,0,1,.075.136,4.76,4.76,0,0,0,.525-.622l.014.01.028-.066.156-.218a3.96,3.96,0,0,1,1.252-1.289.538.538,0,0,1-.237-.386c-.014-.251.214-.456.438-.623.192-.144.387-.286.581-.428l.231-.169a2.184,2.184,0,0,0,.019-.344,1.136,1.136,0,0,1,.688-1.183,2.915,2.915,0,0,0,1.522-2.731l-1.91.129c.03.116.062.233.094.35a6.47,6.47,0,0,1,.233,1.084c.031.327-.007.5-.129.565-.151.088-.33-.042-.5-.168a1.222,1.222,0,0,0-.213-.135c0,.009,0,.025,0,.048a1.3,1.3,0,0,1-.683.97,1.165,1.165,0,0,0-.571.7c-.033.181-.349.282-.535.327-.464.11-.729.173-.786.27-.047.08,0,.261.087.561l.018.067c0,.012.278,1.2.009,1.276a1.035,1.035,0,0,0-.815.873l-.042.215-.149-.161c-.031-.033-.066-.065-.1-.1a.718.718,0,0,1-.229-.29,3.451,3.451,0,0,1-.117-.549,2.865,2.865,0,0,0-.29.5,9.148,9.148,0,0,1-1.16,2.206,1.43,1.43,0,0,0-.4,1.04C17.3,42.632,17.578,42.967,18.139,43.374Zm.486-2.283.1.1c.014.013.031.027.048.041.067.054.142.116.122.208a.931.931,0,0,1-.107.246c-.014.026-.029.052-.042.078l-.069.137-.327-.326Z" transform="translate(-11.827 -20.535)"/><path class="a" d="M22.745,49.876c0-.013,0-.027,0-.04a.954.954,0,0,1-.092-.061l-.127.1Z" transform="translate(-14.556 -29.885)"/><path class="a" d="M161.365,97.766l.005.022.142-.054c0-.067,0-.136,0-.208C161.458,97.61,161.41,97.69,161.365,97.766Z" transform="translate(-91.884 -56.25)"/><path class="a" d="M160.166,84.859c.4-.036.451-.271.51-.568a.922.922,0,0,1,.242-.544l-.89-1.166-.256.979a3.765,3.765,0,0,0-.071.395c-.016.109-.032.22-.054.324l.079-.078a.63.63,0,0,0,.041-.048c.054-.066.113-.14.207-.121h0a.943.943,0,0,1,.245.106l.079.042.139.069-.327.327-.472-.26a.721.721,0,0,1-.257.466,2.069,2.069,0,0,1-.976.228,4.381,4.381,0,0,0-.5.055c-.03.006-.083.068-.122.114a.8.8,0,0,1,.359.458,1.031,1.031,0,0,1-.255.769.924.924,0,0,0-.236.642,1.617,1.617,0,0,1-.381,1.729c-.087.076-.06.154.077.381.155.258.391.647-.132,1.017a.291.291,0,0,0-.137.172c-.018.106.081.243.186.389.2.275.466.652.09,1.095a.63.63,0,0,0-.186.593,1.083,1.083,0,0,0,.8.581l.061.017.037.078c.025.089-.043.16-.137.258-.055.057-.2.208-.181.26,0,0,.031.075.344.11a.873.873,0,0,0,.97-.477c.01-.056-.141-.256-.222-.364a2.82,2.82,0,0,1-.211-.3l-.059-.1a1.192,1.192,0,0,1-.2-.5A3.068,3.068,0,0,1,158.909,90a2.463,2.463,0,0,1-.089-.6.559.559,0,0,1,.2-.344,1.289,1.289,0,0,0,.1-.112l.139-.187.059.228c.093-1.729.049-1.95,0-2.013l-.1-.129.158-.046c.027-.008.06-.02.093-.032.129-.049.233-.087.3,0a.855.855,0,0,1,.121.275c.008.027.016.055.026.082a2.345,2.345,0,0,1,.7-.863.314.314,0,0,0-.015-.1c-.043-.119-.09-.236-.138-.353a.947.947,0,0,1-.123.288c-.069.1-.218.089-.375.074a1.006,1.006,0,0,0-.145-.01h-.154L159.7,86a.941.941,0,0,0-.006-.373.758.758,0,0,1,.07-.593A.545.545,0,0,1,160.166,84.859Zm-1.949,5.6-.069-.138c-.013-.027-.028-.053-.042-.078A.935.935,0,0,1,158,90c-.02-.093.056-.155.123-.209a.6.6,0,0,0,.047-.041l.1-.1.271.488Zm.392-4.109-.328-.327.139-.069.08-.042a.918.918,0,0,1,.245-.105c.093-.018.154.055.208.121.014.017.028.035.041.048l.106.105Z" transform="translate(-89.664 -48.451)"/><path class="a" d="M162.711,92.478c.014-.055.03-.11.049-.165h0A1.149,1.149,0,0,0,162.711,92.478Z" transform="translate(-92.58 -53.368)"/><path class="a" d="M162.363,93.15c-.061.359-.14.94-.236,1.737v.007c0,.105,0,.211,0,.315l.1.377-.093.035a3.688,3.688,0,0,0,.145,1.144c.042-.109.09-.219.138-.332a2.136,2.136,0,0,0,.29-1.272A4.884,4.884,0,0,1,162.363,93.15Z" transform="translate(-92.278 -53.975)"/><path class="a" d="M47.042,14.471a.463.463,0,0,1,.33.084,1.031,1.031,0,0,0,.109.054l.113.044-.1.2a2.189,2.189,0,0,1-.114.219,1.223,1.223,0,0,1-1.281.5l-.069,0a.924.924,0,0,0,.3.209.879.879,0,0,0,.252.025c.216,0,.533.006.588.413.074-.028.173-.11.338-.348.13-.288.187-.4.263-.416l.405-.671-.151.47a.426.426,0,0,1,.326-.128.2.2,0,0,1,.146.146.589.589,0,0,1-.073.521,5.993,5.993,0,0,1-.614.476l-.121.086a2.33,2.33,0,0,0-.06.3,2.343,2.343,0,0,0,1.931-1.076.667.667,0,0,1-.3-.028,1.009,1.009,0,0,1-.3-.213c-.035-.032-.07-.064-.107-.093l-.153-.121.182-.07c.037-.014.074-.03.11-.046a1.257,1.257,0,0,1,.289-.1,1.605,1.605,0,0,1,.326-.011h.017v-.024l.042.009c.027-.066.058-.134.091-.2.055-.118.171-.364.141-.416-.2-.291-.253-.468-.183-.59.08-.139.265-.125.446-.112a.655.655,0,0,0,.258-.01,1.525,1.525,0,0,1,.282-.461,1.326,1.326,0,0,0,.247-.4c.06-.192.125-.329.247-.369s.239.041.382.146l.067.049c.383.275.8.521,1.2.758.128.076.257.152.384.229a1.136,1.136,0,0,0-.222-.6c-.235-.405-.528-.91.211-1.4a1.591,1.591,0,0,0-.031-.42c-.008-.05-.015-.1-.021-.149l-.092.051c-.177.1-.361.2-.551.282s-.36.143-.538.206a4.041,4.041,0,0,0-.94.426,5.152,5.152,0,0,0-.823.766c-.141.151-.283.3-.432.445a.607.607,0,0,1-.371.125l-.052-.006-.044-.051c-.08-.124-.155-.193-.217-.2-.087-.01-.192.095-.3.2-.165.16-.388.377-.672.235-.043.039-.117.123-.179.193a1.719,1.719,0,0,1-.724.588c-.106.022-.212.038-.316.053a1.151,1.151,0,0,0-.936.454.752.752,0,0,0-.065.134l.13-.045C46.375,14.675,46.707,14.561,47.042,14.471Zm1.672-.422.328.327-.139.069-.08.042a.92.92,0,0,1-.245.106l-.03,0c-.076,0-.129-.066-.178-.124-.014-.017-.028-.035-.041-.048l-.106-.1Z" transform="translate(-28.185 -8.254)"/><path class="a" d="M119.214,18.144a.974.974,0,0,0-.35.251l-.085.079.321.32a1.629,1.629,0,0,1,1.184.432c.045.033.24-.042.369-.093a1.2,1.2,0,0,1,.609-.128c1.35.265,1.4.332,2.276,1.941l.045-.044.027.144,1.127.374v-.359l.064-.03a.628.628,0,0,1,.39-.008c.109.02.213.04.268,0a.332.332,0,0,0,.086-.211c-.014-.1-.415-1.554-.487-1.753-.156-.137-.309-.28-.462-.424a8.814,8.814,0,0,0-1.131-.945c-.238-.157-.5-.049-.8.076a1.05,1.05,0,0,1-1.138.01c-.4.752-.995.592-1.518.452A1.553,1.553,0,0,0,119.214,18.144Zm5.285,1.173c.017-.014.034-.028.047-.041l.1-.1.271.488-.327.326-.069-.137c-.013-.027-.027-.053-.042-.078a.944.944,0,0,1-.107-.246C124.357,19.433,124.432,19.371,124.5,19.317Zm-.532,1c.027-.008.06-.02.093-.032.129-.048.232-.087.3,0a.838.838,0,0,1,.121.273c.01.032.019.063.03.094l.018.05a2.526,2.526,0,0,1,.27.224l.016.016-.154.161a2.2,2.2,0,0,0-.412-.318,1.008,1.008,0,0,1-.112-.067l-.234-.14h.078c-.025-.028-.046-.055-.067-.082l-.1-.129Z" transform="translate(-68.627 -11.71)"/><path class="a" d="M35.267,26.326a7.5,7.5,0,0,1,.721-.54l.154-.1a2.246,2.246,0,0,1,1-.447,2.59,2.59,0,0,0,1.99-.857,1.431,1.431,0,0,1,1.36-.5c.089,0,.178,0,.267,0l.808-1.208-.312-.311c-.056.042-.112.086-.168.13a3.6,3.6,0,0,1-.6.412c-.095.047-.193.086-.292.124a1.408,1.408,0,0,0-.512.281l-.007.09-.081-.019a1.473,1.473,0,0,1-.812.227c-.1-.006-.128-.1-.162-.259-.008-.038-.016-.075-.023-.1l-.03-.115.116-.023c.054-.011.107-.023.161-.035a2.346,2.346,0,0,1,.431-.07.317.317,0,0,1,.181.075l.016.012a.864.864,0,0,0-.194-.689.759.759,0,0,0-.68-.063,2.114,2.114,0,0,0-.569.268c-.09.054-.181.107-.273.154l-.15.077-.012-.168c-.014-.2-.086-.33-.2-.372a.244.244,0,0,0-.084-.014.366.366,0,0,0-.256.118,9.469,9.469,0,0,0-.752.932,7.317,7.317,0,0,1-1.016,1.187,1.3,1.3,0,0,0-.225,1.976Zm1.182-2.3c.015-.027.029-.052.041-.074.11-.22.221-.439.333-.657l.191-.373.108.109a1.089,1.089,0,0,1,.073.082.39.39,0,0,0,.111.106c.558.236.785.331.822.527s-.136.357-.513.723c-.089.086-.181.176-.286.176a.183.183,0,0,1-.068-.013c-.093-.035-.151-.134-.188-.33a.554.554,0,0,1-.385.258.389.389,0,0,1-.308-.2C36.311,24.265,36.378,24.147,36.448,24.021Z" transform="translate(-21.946 -14.127)"/><path class="a" d="M114.252,11.678a.252.252,0,0,1,.271.007l.071.059-.037.1a1.409,1.409,0,0,1-.158.22l-.127.161-.067-.067c-.036.114-.066.235-.04.274a3.511,3.511,0,0,0,2.113.863.937.937,0,0,0,.684-.118,1.453,1.453,0,0,0,.244-.739c.012-.077.025-.155.04-.233a.5.5,0,0,1-.324-.05.721.721,0,0,1-.277-.512c-.052-.223-.088-.33-.194-.344a1.543,1.543,0,0,0-.943.173c-.2.124-.334.2-.463.148s-.174-.218-.217-.411a1.432,1.432,0,0,0-.421-.639c-.153-.155-.292-.222-.4-.2s-.213.187-.276.438a.623.623,0,0,0,0,.187.79.79,0,0,1-.008.251.947.947,0,0,1-.139.289c-.021.034-.042.068-.062.1l-.091.166a3.5,3.5,0,0,0,.569-.039C114.084,11.7,114.167,11.629,114.252,11.678Z" transform="translate(-65.492 -7.96)"/><path class="a" d="M104.256,11.291c.033.026.067.055.1.084.1.083.263.216.33.207a3.68,3.68,0,0,1,.714-.066,8.471,8.471,0,0,1,1.562.193,8.739,8.739,0,0,0,1.564.2l-.083-.172c-.026-.053-.05-.109-.072-.164a1.334,1.334,0,0,0-.169-.321,1.312,1.312,0,0,0-.275-.233l-.056-.041-.35.433-.189-.473-.056,0a1.26,1.26,0,0,1-.324-.012,1.217,1.217,0,0,1-.361-.171c-.134-.081-.286-.173-.361-.135-.046.023-.13.119-.172.507a.325.325,0,0,1-.292.284.687.687,0,0,1-.7-.433,1.451,1.451,0,0,0-.269-.357l-.055-.06-.023.037c-.09.146-.182.3-.327.315-.355.043-.386.107-.388.11S104,11.094,104.256,11.291Z" transform="translate(-60.312 -8.062)"/><path class="a" d="M151.57,51.1c-.058-.011-.145.058-.24.13l-.091.068c-.447.321-.3.524-.083.831a1.4,1.4,0,0,1,.219.392l.027-.01v.114a3.557,3.557,0,0,1,.89,2.549h0v.033c0,.031,0,.06,0,.091.085.12.175.238.264.357a5.672,5.672,0,0,1,.6.909c.354.728.714,1.2,1.412,1.312a.721.721,0,0,0,.511-.082.541.541,0,0,0,.064-.452,7.527,7.527,0,0,0-.323-.682,5.365,5.365,0,0,1-.434-1.008,9.3,9.3,0,0,0-1.7-3.016c-.33-.445-.673-.905-.968-1.385C151.661,51.16,151.609,51.106,151.57,51.1Zm1.007,3.024.079-.042a.93.93,0,0,1,.246-.106c.094-.022.153.055.207.121.014.017.028.035.041.048l.11.11-.139.069c-.027.013-.052.028-.078.042a.937.937,0,0,1-.247.106.162.162,0,0,1-.03,0c-.076,0-.129-.066-.178-.124-.014-.017-.028-.034-.041-.048l-.11-.11Z" transform="translate(-86.492 -30.769)"/><path class="a" d="M151.591,115.289c-.082-.187-.205-.47-.268-.486h-.007a1.152,1.152,0,0,0-.324.212l-.1.077a1.322,1.322,0,0,0-.482,1.617,1.252,1.252,0,0,1-.35,1.376c-.283.363-.528.677-.257,1.125l.027.045-.018.057a.457.457,0,0,1-.217.206l-.1.038a2.256,2.256,0,0,1-.55.155.93.93,0,0,0-.741.422.83.83,0,0,0-.038.713,1.041,1.041,0,0,0,.2-.057c.009-.044.016-.091.023-.136.033-.212.064-.412.223-.455.13-.036.274.057.481.31.163.2.274.139.509-.013a.669.669,0,0,1,.918-.022l.012.01a2.148,2.148,0,0,0,.01-.215,1.066,1.066,0,0,1,.076-.486c.163-.279.306-.5.45-.706a2.977,2.977,0,0,0,.4-1.753,3.468,3.468,0,0,1,.36-1.772l0,0A.723.723,0,0,1,151.591,115.289Z" transform="translate(-85.02 -66.102)"/><path class="a" d="M87.318,157.3a.414.414,0,0,0-.137-.011.934.934,0,0,1-.293.662,1.1,1.1,0,0,1-.888.091,1.436,1.436,0,0,0-.563-.023,2.261,2.261,0,0,1-.831.017,1.239,1.239,0,0,0-1.2.29l-.1.107-.08-.12c-.034-.053-.067-.108-.1-.164a1.161,1.161,0,0,0-.229-.315.452.452,0,0,0-.214-.021h-.035c0,.028,0,.056,0,.084a1.458,1.458,0,0,1-.026.495c-.053.183-.226.47-.432.5a.691.691,0,0,1-.636-.308,11.99,11.99,0,0,1-.394-1.313L81.1,157c-.095-.357-.283-.331-.567-.292a1.48,1.48,0,0,1-.335.019c-.017.052-.037.106-.057.16-.044.12-.118.321-.084.372.115.173.222.361.325.543.444.784.866,1.525,2.028,1.244l1.154-.083c1.168-.082,2.377-.167,3.564-.267a1.124,1.124,0,0,0,.617-.192A.993.993,0,0,0,87.318,157.3Z" transform="translate(-47.162 -89.062)"/><path class="a" d="M157.86,67.768a1.19,1.19,0,0,0-.314.411l-.024.042a.625.625,0,0,1,.266.03,1.01,1.01,0,0,1,.3.212c.035.032.07.064.107.093l.153.121-.182.07c-.037.014-.074.03-.11.046a1.219,1.219,0,0,1-.288.1,1.511,1.511,0,0,1-.326.011h-.017v.023c.672.291.744.5.529,1.357-.006.024-.013.05-.016.069.638.559.369,1.1.131,1.57a3.875,3.875,0,0,0-.184.4.791.791,0,0,0,.357,1,2.68,2.68,0,0,0,.433.217,1.116,1.116,0,0,0,.3-.564,1.624,1.624,0,0,0-.377-1.3.6.6,0,0,1-.1-.575,1.287,1.287,0,0,1,.954-.65,1.08,1.08,0,0,0,.263-.083.859.859,0,0,0-.017-.155l-.008-.057a3.727,3.727,0,0,0-.7-1.5,5.954,5.954,0,0,1-.564-.994A1.207,1.207,0,0,0,157.86,67.768Z" transform="translate(-89.846 -39.937)"/><path class="a" d="M156.2,107.49c-.126-.092-.253-.185-.378-.28l-.075.029-.1.041a3.276,3.276,0,0,1-.843,2.6l.013.008a.64.64,0,0,0,.25.113.616.616,0,0,0,.33-.137.713.713,0,0,1,.544-.159.643.643,0,0,1,.372.329.524.524,0,0,0,.267-.036,3.4,3.4,0,0,0,.616-1.712A9.8,9.8,0,0,0,156.2,107.49Z" transform="translate(-88.488 -61.72)"/><path class="a" d="M41.178,142.014h0c-.094-.041-.19-.076-.284-.111-.327-.12-.635-.234-.742-.514a.959.959,0,0,1,.13-.774,1.942,1.942,0,0,0-.544-.435.529.529,0,0,0-.421.143c-.083.112-.013.24.108.44a.776.776,0,0,1,.168.586.621.621,0,0,1-.318.358.369.369,0,0,0,.014.1c.009.029.018.06.027.092.021.075.053.19.09.213.572.357,1.165.71,1.793,1.082l.489.29v-.007a2.91,2.91,0,0,1,.056-.335A.942.942,0,0,0,41.178,142.014Z" transform="translate(-24.409 -80.516)"/><path class="a" d="M145.037,129.471c-.1-.08-.2-.162-.286-.242l-.022.025a.536.536,0,0,0-.111.152c.13,1.064.044,1.45-.771,1.952a.493.493,0,0,0-.251.546,1.585,1.585,0,0,1,0,.224l.468.377-.476.189v.206l.341-.132-.2.2a.294.294,0,0,0,.13-.014,3.521,3.521,0,0,0,1.594-2.631c.029-.115.058-.231.088-.344C145.552,129.892,145.217,129.618,145.037,129.471Z" transform="translate(-82.682 -73.959)"/><path class="a" d="M104.429,156.75a3.826,3.826,0,0,1-2.267.437,8.655,8.655,0,0,0-.909.015,1.342,1.342,0,0,0-.626.407.71.71,0,0,0,.017.239c.454.133.914.245,1.444.373l.412.1.376-.2c.558-.291,1.19-.621,1.8-.962a.566.566,0,0,0-.043-.272A.478.478,0,0,0,104.429,156.75Z" transform="translate(-58.413 -89.097)"/><path class="a" d="M52.709,150.452l-.168-.124c-.447-.331-.909-.674-1.373-1a.448.448,0,0,0-.193,0,.868.868,0,0,0,.089.2,1.141,1.141,0,0,0,.184.2c.032.031.065.061.1.092l.118.119-.156.063c-.055.022-.119.055-.182.087-.2.1-.358.184-.464.1a4.871,4.871,0,0,1-.607-.64c-.057-.068-.114-.136-.173-.2h-.068v0h-.021a1.923,1.923,0,0,0-.281.005c-.189.024-.376.055-.564.088l-.08.013.044.079c.078.143.159.29.254.327.738.284,1.5.539,2.242.785l.656.22a.511.511,0,0,1,.155-.3A.647.647,0,0,1,52.709,150.452Z" transform="translate(-29.743 -85.252)"/><path class="a" d="M74.454,156.772h-.013a5.61,5.61,0,0,0-.915.141c-.033.358-.092.592-.267.65-.154.051-.329-.054-.6-.364-.034-.039-.069-.081-.1-.124a.988.988,0,0,0-.293-.282,3.415,3.415,0,0,0-.474,1.387.362.362,0,0,0,.132-.042.645.645,0,0,1,.384-.217.219.219,0,0,1,.083.016c.162.064.194.281.2.464a.375.375,0,0,0,.142.3.527.527,0,0,0,.027-.11c.075-.6.38-.65.674-.7a1.677,1.677,0,0,0,.267-.058,2.269,2.269,0,0,0,.725-.5c.08-.071.158-.141.237-.207-.044-.072-.082-.139-.115-.2S74.477,156.8,74.454,156.772Z" transform="translate(-42.403 -89.108)"/><path class="a" d="M126.4,148.031l-.01.106c-.014.139-.157.191-.271.233a.658.658,0,0,0-.129.057,1.35,1.35,0,0,0,.144.132.376.376,0,0,0,.294.051A2.125,2.125,0,0,0,127.8,146.7a.8.8,0,0,0-.3-.074C126.526,146.621,126.477,147.272,126.4,148.031Z" transform="translate(-72.334 -83.856)"/><path class="a" d="M112.669,153.21c-.023.024-.05.054-.071.08a4.19,4.19,0,0,1-1.737,1.1c-.147.061-.293.122-.438.188a.554.554,0,0,0-.041.267.258.258,0,0,0,.031.089c.2-.039.4-.071.593-.1a6.929,6.929,0,0,0,1.36-.315c.5-.192.517-.749.444-1.183C112.805,153.3,112.718,153.243,112.669,153.21Z" transform="translate(-63.736 -87.265)"/><path class="a" d="M63.874,154.557a12.625,12.625,0,0,0-1.63-.486c-.171-.043-.342-.086-.511-.13a.343.343,0,0,0-.252,0v0h-.017c-.046.041-.06.151-.038.31a.8.8,0,0,0,.052.234.966.966,0,0,0,.281-.07.616.616,0,0,1,.2-.03,3.223,3.223,0,0,1,1.717.945.811.811,0,0,0,.5.145c.006-.009.061-.081.106-.138s.069-.09.111-.139c-.042-.061-.084-.128-.125-.2A1.072,1.072,0,0,0,63.874,154.557Z" transform="translate(-36.668 -87.631)"/><path class="a" d="M67.587,153.951l.035,0c0-.05-.006-.1-.008-.142a.78.78,0,0,0-.022-.193c-.046-.03-.1-.07-.157-.11a2.47,2.47,0,0,0-.86-.463A4.292,4.292,0,0,0,65.53,153c-.114,0-.227.01-.34.013.072.288.256.267.537.235a.806.806,0,0,1,.6.084,6.629,6.629,0,0,0,1.047.609A.463.463,0,0,0,67.587,153.951Z" transform="translate(-38.741 -87.151)"/><path class="a" d="M123.83,148.793a6.685,6.685,0,0,0-.481.648c.033.043.1.119.162.181s.1.111.159.173l.712-.68-.45-.451Z" transform="translate(-70.83 -84.913)"/><path class="a" d="M120.965,152.161c-.054,0-.155.105-.223.174l-.014.014c.112.153.44.542.591.7.137-.166.28-.345.478-.59l.122-.152-.276-.053A3.744,3.744,0,0,0,120.965,152.161Z" transform="translate(-69.39 -86.722)"/><path class="a" d="M134.164,141.31a4.3,4.3,0,0,1-.328.393,2.2,2.2,0,0,1-.317.252l-.068.049.028.072h-.046c0,.066,0,.132,0,.2a.536.536,0,0,0,.046.371.372.372,0,0,0,.243.094l.8-.8-.33-.659Z" transform="translate(-77.421 -81.092)"/><path class="a" d="M137.323,141.378a.5.5,0,0,0-.162-.058,10.249,10.249,0,0,0-.93.724,1.679,1.679,0,0,0,.129.252.274.274,0,0,0,.045.017c.291-.2.577-.4.823-.574l.123-.088c-.01-.079-.015-.142-.02-.192C137.329,141.429,137.326,141.4,137.323,141.378Z" transform="translate(-78.876 -81.111)"/><path class="a" d="M111.309,10.253l.309-.472-.817-.106.2.578Z" transform="translate(-63.888 -7.603)"/><path class="a" d="M39.4,137.619a.243.243,0,0,0,.261.06.326.326,0,0,0,.21-.265.527.527,0,0,1-.33-.161.7.7,0,0,1-.1-.535c0-.044.007-.087.008-.129a.53.53,0,0,0-.3.308A.916.916,0,0,0,39.4,137.619Z" transform="translate(-24.302 -78.663)"/><path class="a" d="M137.967,137.721l-.017.068-.068.014c-.2.043-.4.084-.606.125-.627.128-1.275.26-1.9.437a1.881,1.881,0,0,0-.051.378c0,.047-.008.093-.012.137.165-.043.342-.1.514-.16.557-.185,1.083-.359,1.395-.143.273.19.472.265.591.228s.185-.215.254-.4a2.195,2.195,0,0,1,.136-.32l.018-.024.671-.669c-.077-.006-.154-.019-.23-.032C138.313,137.3,138.079,137.259,137.967,137.721Z" transform="translate(-78.402 -79.043)"/><path class="a" d="M18.957,117.111a.523.523,0,0,0,.7.695.685.685,0,0,0-.1-.591A.692.692,0,0,0,18.957,117.111Z" transform="translate(-12.703 -67.077)"/><path class="a" d="M154.685,65.943a1.818,1.818,0,0,0,.174.4l.041.077.3-.123-.421-.5A.544.544,0,0,0,154.685,65.943Z" transform="translate(-88.426 -38.748)"/><path class="a" d="M44.948,147.3a.543.543,0,0,0,.373.046c.065,0,.131-.01.2-.009v-.585l-.661.329A.348.348,0,0,0,44.948,147.3Z" transform="translate(-27.464 -83.921)"/><path class="a" d="M97.013,156.711a.985.985,0,0,0,.338.147.785.785,0,0,0,.335-.063l-.278-.217Z" transform="translate(-56.267 -89.008)"/><path class="a" d="M127.809,25.4l-.568.567a.461.461,0,0,0,.568-.567Z" transform="translate(-72.954 -15.742)"/><path class="a" d="M129.089,144.193a.807.807,0,0,0-.151.064l-.019.009.042.078a.954.954,0,0,0,.249.343,1.148,1.148,0,0,0,.236-.094l.057-.026-.06-.061A2.071,2.071,0,0,0,129.089,144.193Z" transform="translate(-73.882 -82.598)"/><path class="a" d="M130.72,142.98a.57.57,0,0,0-.118.449l.568-.567-.07,0A.52.52,0,0,0,130.72,142.98Z" transform="translate(-74.809 -81.908)"/><path class="a" d="M12.76,102.5l.026.014a.459.459,0,0,0,.165.068.572.572,0,0,0,.2-.137l-.316-.131Z" transform="translate(-9.504 -58.895)"/><path class="a" d="M51.986,148.661v-.21c-.069,0-.133,0-.2-.009a.533.533,0,0,0-.372.047.3.3,0,0,0-.083.172h.653Z" transform="translate(-31.04 -84.793)"/><path class="a" d="M158.381,85.532a.343.343,0,0,0,.077.119l.149-.287-.11-.166A1.106,1.106,0,0,0,158.381,85.532Z" transform="translate(-90.339 -49.451)"/><path class="a" d="M57.8,152.1l-.034,0v.226h.206l-.006,0a.835.835,0,0,0,.106-.009.886.886,0,0,0,.189-.063.759.759,0,0,0-.214-.152A.615.615,0,0,0,57.8,152.1Z" transform="translate(-34.587 -86.689)"/><path class="a" d="M56.283,153.222l.217-.174h-.349Z" transform="translate(-33.694 -87.181)"/><path class="a" d="M59.373,155.037a2.826,2.826,0,0,0-.389,0c0,.026,0,.054,0,.078.116.018.237.027.374.036l.023,0,0-.033C59.376,155.09,59.375,155.061,59.373,155.037Z" transform="translate(-35.258 -88.207)"/><path class="a" d="M69.783,157.283a.442.442,0,0,0,.068.163l.014.026.186-.08-.132-.314A.572.572,0,0,0,69.783,157.283Z" transform="translate(-41.217 -89.267)"/><path class="a" d="M156.9,69.308h-.064l.064.064Z" transform="translate(-89.538 -40.666)"/><path class="a" d="M134.471,144.9c.031.024.061.048.092.068l0,0-.072-.088Z" transform="translate(-77.965 -82.953)"/><path class="a" d="M74.608,156.053l.063.081a.759.759,0,0,0-.035-.091Z" transform="translate(-43.875 -88.731)"/><path class="a" d="M99.446,10.414H99.4l.016.039Z" transform="translate(-57.558 -7.985)"/><path class="a" d="M102.344,8.031l-.031.039h.047Z" transform="translate(-59.166 -6.752)"/><path class="a" d="M56.173,17.274a1.527,1.527,0,0,0-.891.546,1.455,1.455,0,0,1-1.21.588v.2h.054v0h.007c.578.007,1.082.016,1.472-.53a1.043,1.043,0,0,1,.678-.285c.077-.014.156-.029.229-.046a1.9,1.9,0,0,0-.085-.507c-.009,0-.067.007-.112.014S56.227,17.269,56.173,17.274Z" transform="translate(-32.592 -11.519)"/><path class="a" d="M66.407,8.736c.207-.351.6-.348.935-.346.469,0,.767-.021.864-.522.057-.3,1.1-.273,1.115-.271a4.54,4.54,0,0,1,1.437.277c.06.021.284-.1.405-.162.272-.143.527-.277.688-.137.134.117.125.367-.034.847h.007a.685.685,0,0,0,.184,0l.115-.173c.151-.226.307-.459.563-.495a.833.833,0,0,1,.626.262c.188.16.187.16.77-.352l.11-.1c.134-.12.272-.245.4-.2a6.046,6.046,0,0,0,2.761.036l.33-.045c.389-.052.677-.078.888-.1.531-.047.574-.051.728-.295A2.18,2.18,0,0,1,80.485,6a3,3,0,0,0,.052-.332c.01-.079.021-.162.035-.247-.248,0-.48,0-.7.005a13.732,13.732,0,0,0-1.443.052c-.645.069-1.3.161-1.932.248-.7.1-1.42.2-2.133.27-.014,0-1.3.1-1.408-.251-.057-.193-.133-.31-.225-.348a.456.456,0,0,0-.371.087,4.412,4.412,0,0,1-2.019.444,6.713,6.713,0,0,0-1.216.142l-.05.012-.042-.03c-.458-.329-.737-.1-1.154.295-.326.31-.69.657-1.19.454.006.044.013.089.019.133a4.834,4.834,0,0,1,.075.889c-.006.14-.125.244-.242.344a.989.989,0,0,0-.167.166c-.072.107-.217.1-.344.093a1.157,1.157,0,0,0-.116,0,.809.809,0,0,0,.1.167A.892.892,0,0,0,66.407,8.736ZM73.419,6.7c0-.029.005-.059.007-.088a.931.931,0,0,1,.045-.265h0c.033-.088.13-.1.215-.108.022,0,.044,0,.063-.009L73.9,6.2l-.041.558-.452.1Z" transform="translate(-39.561 -5.379)"/><path class="a" d="M8.467,65.78c.5-.064.644.279.751.529s.167.37.415.294c.313-.094.484-.091.572.011.109.125.023.308-.068.5-.02.041-.04.084-.057.125a.98.98,0,0,0,.133.158.832.832,0,0,0,.365-.613.93.93,0,0,0-.38-.763,2.268,2.268,0,0,1-.373-.44L9.765,65.5a.457.457,0,0,1-.065-.292l.013-.051.052-.029c.474-.221.446-.618.413-1.077a1.252,1.252,0,0,1,.476-1.338,1.321,1.321,0,0,0,.5-1.61l-.041-.121c-.056-.169-.114-.344-.157-.359-.06-.024-.321.144-.494.255a.722.722,0,0,1-.333.087h0a3.468,3.468,0,0,1-.688,1.672,2.975,2.975,0,0,0-.647,1.677c.006.249,0,.514-.019.837a1.071,1.071,0,0,1-.208.447,2.093,2.093,0,0,0-.111.184h.015Z" transform="translate(-7.275 -36.057)"/></g></g></svg>