<svg xmlns="http://www.w3.org/2000/svg" xmlns:xlink="http://www.w3.org/1999/xlink" width="508" height="579" viewBox="0 0 508 579"><defs><style>.a,.d{fill:#fff;}.a{stroke:#707070;}.b{clip-path:url(#a);}.c{clip-path:url(#b);}.d{stroke:#fff;stroke-width:2px;}</style><clipPath id="a"><rect class="a" width="508" height="579" transform="translate(1472 2504)"/></clipPath><clipPath id="b"><rect class="a" width="654" height="918"/></clipPath></defs><g class="b" transform="translate(-1472 -2504)"><g class="c" transform="translate(1488 2205.158)"><g transform="translate(20.411 -347.17)"><path class="d" d="M4909.938,1996.254l17.771-15.5c10.746-10.821,26.82-26.749,42.881-50.522,3.9-5.993,7.835-12.427,12.061-19.106,3.821-6.914,7.757-14.2,11.734-21.841,7.313-15.61,14.861-32.722,20.667-51.806,12.271-37.893,19.973-82.789,19.707-131.858-.16-6.129-.106-12.33-.44-18.577q-.657-9.363-1.326-18.909a296.369,296.369,0,0,0-5.659-38.466c-5.382-25.825-17.56-50.78-34.967-72.707-17.223-22.122-38.772-41.589-61.581-60.317a327.631,327.631,0,0,0-36.052-26.216,175.146,175.146,0,0,0-41.075-18.674c-14.554-4.556-29.706-7.648-45.021-10.653-15.333-3.007-30.754-6.021-46.333-8.593-31.1-5.139-63.087-8.38-94.975-5.168-31.89,3.2-62.787,13.871-92.917,26.146a824.086,824.086,0,0,0-88.3,42.371c-14.279,7.916-28.249,16.38-40.984,26.382a168.952,168.952,0,0,0-17.968,16.187c-2.728,2.919-5.457,5.985-7.855,9.053-2.474,3.261-5,6.508-7.084,9.849-2.278,3.242-4.173,6.819-6.212,10.269-1.788,3.595-3.763,7.1-5.3,10.819a179.616,179.616,0,0,0-8.348,22.6c-2.339,7.694-4.092,15.552-5.677,23.426-1.422,7.91-2.678,15.845-3.524,23.828-1.8,15.944-2.505,31.991-2.817,47.938-.268,15.933.077,31.821,1.105,47.552a473.237,473.237,0,0,0,14.8,91.957c8.037,29.5,18.6,58.023,34.04,83.047,7.62,12.55,16.845,23.839,26.009,35.04,4.58,5.6,9.13,11.205,13.462,16.943,4.334,5.756,8.36,11.626,12.277,17.525,7.816,11.763,15.227,23.5,23.765,34.064A117.029,117.029,0,0,0,4535.24,2049a182.12,182.12,0,0,0,34.867,16.8c6.006,2.2,11.916,4.56,17.841,6.566l17.794,5.1,4.4,1.242,4.465.9,8.859,1.793,8.761,1.777c2.923.47,5.862.738,8.767,1.114l8.675,1.045c2.879.29,5.721.837,8.587.843l16.944.685a71.813,71.813,0,0,0,8.313-.05l8.2-.309,8.1-.3c2.677-.109,5.314-.552,7.944-.808l15.536-1.772,14.91-2.811,7.279-1.378,7.049-1.854,13.743-3.609c4.45-1.356,8.756-2.9,13.015-4.3l6.319-2.119,3.112-1.044,3.012-1.226,11.738-4.777,5.683-2.313c1.861-.789,3.64-1.711,5.431-2.546l10.454-5,5.036-2.408c1.646-.818,3.212-1.738,4.788-2.584,25.449-13.213,43.748-26.49,56.368-35.192l18.742-14.248Zm1.283,1.543-18.769,14.361c-12.642,8.779-30.977,22.168-56.521,35.535-1.582.857-3.154,1.786-4.805,2.614q-2.5,1.2-5.059,2.438l-10.5,5.058c-1.8.845-3.586,1.778-5.458,2.578l-5.709,2.346-11.8,4.844-3.028,1.243-3.129,1.062-6.355,2.153c-4.287,1.422-8.621,2.989-13.1,4.368l-13.837,3.683q-3.521.935-7.1,1.888l-7.333,1.414-15.027,2.881-15.669,1.839c-2.652.267-5.312.72-8.015.839l-8.168.334-8.281.338a73.3,73.3,0,0,1-8.393.076l-17.111-.639c-2.9,0-5.769-.54-8.677-.822l-8.766-1.028c-2.936-.372-5.9-.634-8.859-1.1l-8.856-1.763-8.954-1.785-4.514-.9-4.465-1.244-18.077-5.129c-5.967-2-11.857-4.334-17.878-6.518l-4.514-1.67-2.321-.862-2.242-.943q-4.486-1.909-8.949-4a166.839,166.839,0,0,1-17.494-9.514,120.468,120.468,0,0,1-30.337-27.292c-8.737-10.742-16.24-22.557-24.062-34.246-3.9-5.836-7.927-11.666-12.206-17.314-4.3-5.653-8.837-11.2-13.43-16.79-9.182-11.152-18.6-22.591-26.409-35.362-15.792-25.433-26.543-54.235-34.752-83.984a477.331,477.331,0,0,1-15.224-92.732q-1.627-23.792-1.264-47.928c.263-16.057.917-32.2,2.693-48.368.832-8.085,2.082-16.15,3.5-24.2,1.588-8.021,3.351-16.037,5.717-23.92a184.393,184.393,0,0,1,8.5-23.226c1.569-3.829,3.592-7.462,5.429-11.176,2.1-3.586,4.024-7.245,6.435-10.709,2.247-3.6,4.743-6.812,7.2-10.078,2.63-3.387,5.345-6.438,8.193-9.513a173.972,173.972,0,0,1,18.464-16.743c13.038-10.3,27.215-18.94,41.593-26.973a789.934,789.934,0,0,1,88.973-42.474c30.31-12.23,61.727-23.008,94.346-26.174,32.552-3.168,64.934.25,96.192,5.517,15.658,2.637,31.12,5.711,46.438,8.769s30.621,6.225,45.434,10.915a179.4,179.4,0,0,1,41.93,19.226,331.658,331.658,0,0,1,36.411,26.651c22.838,18.88,44.539,38.588,61.954,61.1a194.265,194.265,0,0,1,22.294,35.615,171.643,171.643,0,0,1,13.083,38.582,299.451,299.451,0,0,1,5.6,38.894q.645,9.617,1.273,19.049c.315,6.293.244,12.538.381,18.711.108,49.411-7.793,94.571-20.268,132.679-5.91,19.191-13.564,36.4-20.979,52.089-4.03,7.687-8.016,15.007-11.888,21.956-4.276,6.715-8.258,13.18-12.209,19.2-16.246,23.88-32.488,39.883-43.412,50.8l-17.828,15.449Z" transform="translate(-4110.2 -1157.595)"/><path class="d" d="M5015.263,2025.422l5.3-4.973c3.464-3.311,8.584-8.254,14.981-14.97a322.846,322.846,0,0,0,47.784-64.294,324.165,324.165,0,0,0,39.126-117.631,343.581,343.581,0,0,0,2.716-37.151q.219-9.6.065-19.487-.385-9.883-.784-20.032c-.97-27.111-2.671-55.524-4.23-85.26-1.675-29.662-3.505-60.669-10.21-91.914a249.2,249.2,0,0,0-14.427-46.317,181.66,181.66,0,0,0-25.265-42.9,150.671,150.671,0,0,0-38.164-33.768c-14.622-9.3-30.818-16.4-47.538-22.482-16.752-6.054-34.126-11-51.7-15.928s-35.353-9.837-53.33-14.526-36.164-9.167-54.578-13.214c-18.407-4-37.078-7.776-55.854-11.108-18.788-3.234-37.83-5.715-57.021-6.027a281.8,281.8,0,0,0-57.473,5.4c-38.1,7.5-74.833,21.966-110.714,38.174-17.955,8.133-35.787,16.732-53.613,25.348-17.774,8.658-35.378,17.661-51.77,28.484-16.424,10.815-31.286,23.67-43.266,39.2-12.024,15.415-21.417,32.787-29.315,50.729-7.865,17.961-14.448,36.583-20.521,55.172a467.547,467.547,0,0,0-14.566,56.608c-3.421,19.08-5.587,38.361-5.169,57.542a217.908,217.908,0,0,0,8.159,56.426c5.109,18.307,11.956,36.073,17.527,54.226,5.833,18.138,8.868,36.853,12.9,54.874a209.019,209.019,0,0,0,7.522,26.446,130.146,130.146,0,0,0,5.336,12.534c2.011,3.993,4.139,7.991,6.537,11.814,9.419,15.421,21.391,28.982,33.61,41.956q37.39,38.526,73.056,75.272c11.944,12.169,23.353,24.544,35.84,35.216a146.184,146.184,0,0,0,19.713,14.311,167.587,167.587,0,0,0,21.514,10.607c14.74,6.02,29.762,10.994,44.376,15.97,14.657,4.905,29.156,9.333,43.506,13.108,28.678,7.539,56.865,12.3,83.9,12.709,26.934.316,52.312-5.3,74.93-13.385,22.689-8.081,43.081-17.966,62-26.846,18.889-8.95,35.891-17.855,50.942-26.445a500.816,500.816,0,0,0,66.572-44.961q5.436-4.343,9.454-7.823c2.7-2.279,4.959-4.223,6.726-5.841Zm1.362,1.472-5.428,4.886c-1.775,1.63-4.034,3.588-6.745,5.886q-4.017,3.5-9.479,7.884a502.648,502.648,0,0,1-66.738,45.327c-15.079,8.659-32.125,17.642-51.028,26.66-18.917,8.937-39.31,18.895-62.176,27.11-22.809,8.217-48.453,13.988-75.886,13.733-27.25-.337-55.735-5.078-84.584-12.584-14.44-3.758-29.018-8.168-43.731-13.05-14.7-4.964-29.656-9.867-44.638-15.937a170.567,170.567,0,0,1-21.993-10.78,149.581,149.581,0,0,1-20.183-14.57c-12.744-10.841-24.208-23.225-36.169-35.343q-35.722-36.617-73.287-75.12c-12.32-13.02-24.507-26.725-34.209-42.509-2.466-3.913-4.661-8-6.785-12.195a134.05,134.05,0,0,1-5.5-12.829,213.368,213.368,0,0,1-7.742-26.929c-4.131-18.244-7.164-36.667-12.963-54.533-5.556-17.95-12.465-35.726-17.7-54.292a222.63,222.63,0,0,1-8.471-57.529c-.475-19.542,1.678-39.128,5.095-58.468a472.7,472.7,0,0,1,14.565-57.235c6.091-18.8,12.619-37.431,20.559-55.7,7.961-18.208,17.49-35.982,29.828-51.887,3.059-3.982,6.415-7.891,9.739-11.486,3.47-3.737,7.057-7.216,10.792-10.607a206.024,206.024,0,0,1,23.861-18.359c16.691-11.133,34.544-20.173,52.409-28.809,17.883-8.584,35.745-17.139,53.811-25.265,36.088-16.18,73.2-30.7,111.895-38.217a286.542,286.542,0,0,1,58.477-5.336c19.535.37,38.8,2.942,57.708,6.247,18.905,3.409,37.526,7.224,56.021,11.3,18.47,4.113,36.7,8.66,54.7,13.4s35.781,9.71,53.361,14.689,35.029,9.995,51.939,16.157c16.873,6.187,33.3,13.437,48.208,22.97a154.339,154.339,0,0,1,38.977,34.679,185.261,185.261,0,0,1,25.642,43.791,252.583,252.583,0,0,1,14.5,46.977c6.688,31.594,8.43,62.752,10.03,92.444,1.478,29.7,3.107,58.224,4,85.327q.371,10.177.731,20.093.123,9.927-.12,19.59a346.512,346.512,0,0,1-2.836,37.422,324.74,324.74,0,0,1-88.021,183.024c-6.448,6.736-11.6,11.687-15.094,15Z" transform="translate(-4137.986 -1154.656)"/><path class="d" d="M5206.237,1723.065l.964-2.114c.624-1.405,1.658-3.484,2.729-6.277a142.937,142.937,0,0,0,7.717-25.427,147.065,147.065,0,0,0-2.289-69.438,220.853,220.853,0,0,0-10.679-28.983c-8.949-19.927-19.6-41.8-32.448-64.8-12.913-22.972-28.079-47.217-46.938-71.1-19-23.684-41.646-47.262-69.722-66.595a262.893,262.893,0,0,0-45.632-25.389c-16.414-7.064-33.862-12.818-51.724-18.62-17.847-5.818-36.224-11.73-54.259-19.519-18.076-7.727-35.832-16.75-54.566-24.157a211.1,211.1,0,0,0-28.863-9.321,183.4,183.4,0,0,0-30.432-4.532c-20.709-1.416-41.894-.213-63.366,1.127-42.828,2.9-86.815,8.246-130.616,18.882a541.925,541.925,0,0,0-65.191,20.053c-21.531,8.047-42.231,18.47-62.978,29.474-10.381,5.474-20.808,11.022-31.42,16.359-10.63,5.339-21.466,10.274-32.231,15.368-21.511,10.176-43.073,20.753-62.629,34.6-4.88,3.416-9.689,7.119-14.168,10.922l-6.819,6.024c-2.271,2.011-4.266,4.187-6.417,6.271a208.111,208.111,0,0,0-23.08,27.742c-13.926,19.794-24.738,41.854-33.054,64.856a364.024,364.024,0,0,0-10.6,35.226c-2.9,11.993-5.274,23.97-7.181,36.283a703.214,703.214,0,0,0-6.853,74.046c-1.142,24.878-1.5,49.865-2.114,74.905q-.437,18.775-1.235,37.589c-.542,12.527-1.219,25.027-1.59,37.507-.748,24.925-.3,49.962,4.547,74.235a186.2,186.2,0,0,0,10.733,35.365c4.708,11.441,10.318,22.539,16,33.631,11.394,22.2,22.737,44.347,35.009,65.851,6.159,10.736,12.513,21.334,19.251,31.648,3.331,5.174,6.882,10.18,10.37,15.307,3.473,5.116,6.981,10.19,10.646,15.1,3.658,4.928,7.14,9.975,10.933,14.793l11.314,14.475c7.847,9.375,15.581,18.824,23.964,27.641l6.17,6.711c2.1,2.194,4.3,4.286,6.438,6.431l6.461,6.393c2.132,2.151,4.3,4.265,6.592,6.23l13.517,12.045,14.136,11.209a331.99,331.99,0,0,0,61.134,36.826,291.769,291.769,0,0,0,67.164,20.662l17.245,2.631c5.768.606,11.562.875,17.321,1.329l8.6.588,8.7.116c5.8.037,11.476-.1,17.22-.324,22.943-.945,45.6-3.666,68.04-6.386s44.706-5.455,66.887-6.512c5.535-.352,11.078-.378,16.592-.528,5.517.05,11.043.006,16.5.232,10.979.424,21.772,1.281,32.479,1.668a166.95,166.95,0,0,0,62.158-7.918c9.947-3,19.723-6.465,29.44-9.851,9.7-3.407,19.273-6.9,28.658-10.62a325.318,325.318,0,0,0,99.308-59.882c28.161-24.631,51.229-52.5,70.158-80.851a554.38,554.38,0,0,0,46.061-85.2,823.568,823.568,0,0,0,29.885-79.941c4.032-12.558,7.688-24.7,10.979-36.328s6.188-22.79,8.461-33.478c2.412-10.663,3.981-20.885,5.287-30.517a244.673,244.673,0,0,0,1.7-27.218,172.738,172.738,0,0,0-4.967-42.563,146.286,146.286,0,0,0-9.226-24.912c-2.741-5.363-4.155-8.131-4.155-8.131l-.021-.042A1.011,1.011,0,0,1,5206.237,1723.065Zm2.027.395c.518,1,1.862,3.6,4.008,7.761a148.632,148.632,0,0,1,9.469,25.259,175.159,175.159,0,0,1,5.21,43.111,246.657,246.657,0,0,1-1.611,27.5c-1.276,9.718-2.82,20.03-5.2,30.765-2.247,10.766-5.1,21.989-8.369,33.676q-4.882,17.532-10.857,36.459a826.941,826.941,0,0,1-29.673,80.352,557.754,557.754,0,0,1-46,85.913,406.473,406.473,0,0,1-70.64,81.726,329.3,329.3,0,0,1-100.347,60.706c-9.449,3.755-19.065,7.282-28.791,10.715-9.726,3.4-19.522,6.888-29.6,9.947a171.01,171.01,0,0,1-63.478,8.177c-10.814-.378-21.642-1.221-32.466-1.624-5.44-.217-10.865-.164-16.326-.207-5.457.156-10.935.188-16.425.546-21.971,1.076-44.136,3.841-66.572,6.578s-45.2,5.52-68.381,6.508c-5.78.233-11.67.381-17.459.353l-8.7-.105-8.8-.583c-5.846-.452-11.724-.718-17.579-1.326l-17.516-2.646a296.375,296.375,0,0,1-68.273-20.9,336.706,336.706,0,0,1-62.091-37.28q-7.155-5.66-14.333-11.336l-13.691-12.167c-2.327-1.987-4.518-4.12-6.675-6.29l-6.539-6.451c-2.166-2.166-4.392-4.276-6.514-6.491l-6.239-6.766c-8.477-8.893-16.289-18.408-24.214-27.851l-11.418-14.566c-3.827-4.848-7.354-9.943-11.052-14.911-3.719-4.97-7.238-10.045-10.712-15.148-3.467-5.083-7.08-10.163-10.458-15.393-6.817-10.4-13.234-21.074-19.447-31.87-12.381-21.623-23.783-43.818-35.21-66-5.709-11.1-11.4-22.316-16.23-34a191.423,191.423,0,0,1-11.073-36.309c-5.006-24.893-5.465-50.331-4.751-75.42.807-25.141,2.371-50.059,2.849-75.075.646-25,1.044-50.03,2.226-75.015,2.319-49.858,8.052-100.178,25.138-147,8.477-23.34,19.5-45.778,33.751-65.969a212.69,212.69,0,0,1,23.679-28.368c2.213-2.144,4.35-4.439,6.624-6.449l6.829-6.014c4.765-4.036,9.571-7.714,14.593-11.225,19.989-14.1,41.813-24.748,63.389-34.92,10.807-5.093,21.614-10,32.155-15.272s20.955-10.8,31.359-16.272c20.75-10.972,41.771-21.519,63.513-29.607a546.258,546.258,0,0,1,65.759-20.125c44.146-10.651,88.342-15.953,131.393-18.805,21.481-1.31,42.828-2.5,63.9-1.034a187.473,187.473,0,0,1,31.085,4.677,215.234,215.234,0,0,1,29.392,9.534c18.952,7.527,36.749,16.6,54.613,24.269,17.87,7.749,36.068,13.634,53.93,19.483,17.861,5.832,35.4,11.639,52.035,18.823a263.7,263.7,0,0,1,46.214,25.832c28.373,19.715,51.134,43.633,70.184,67.581,18.9,24.146,34.046,48.585,46.917,71.708,12.83,23.2,23.367,45.064,32.293,65.165a223.3,223.3,0,0,1,10.681,29.376,149.417,149.417,0,0,1,2.032,70.519,145.015,145.015,0,0,1-7.944,25.784c-1.12,2.868-2.146,4.91-2.779,6.319C5208.68,1722.561,5208.425,1723.111,5208.264,1723.46Z" transform="translate(-4124.632 -1186.217)"/><path class="d" d="M5141.827,2253.573s2.534-2.758,7.45-8.105c4.812-5.414,11.888-13.537,20.544-24.6s18.913-25.034,30.22-41.986c11.379-16.9,23.795-36.773,37.659-59.058,13.8-22.3,29.3-46.938,43.128-75.351a388.522,388.522,0,0,0,18.627-45.567c5.447-16.156,10.2-33.192,14.387-50.963,4.227-17.765,7.936-36.255,11.586-55.325,3.576-19.081,7.654-38.663,9.916-58.99,2.22-20.263,2.546-41.549-2.674-62.343-2.432-10.423-7.235-20.227-10.471-30.882-3.322-10.694-3.723-22.1-3.878-33.308a526.444,526.444,0,0,0-5.445-68.466,511.4,511.4,0,0,0-42.324-138.341,515.3,515.3,0,0,0-37.525-66.1,460.656,460.656,0,0,0-48.58-61.122c-4.675-4.637-9.149-9.5-14.023-13.992q-7.379-6.675-14.8-13.39l-15.588-12.651c-5.264-4.16-10.811-7.987-16.225-12.013-44.107-31.234-94.244-55.436-146.9-74.838-26.357-9.694-53.4-18.182-80.855-25.94-27.426-7.806-55.375-14.662-84.074-17.972-57.328-7.272-116.29-2.254-174.187,8.262-29,5.274-57.874,11.946-86.638,19.37-28.737,7.523-57.6,15.112-86.012,24.123-28.391,9.047-56.292,19.989-82.3,34.655-26.052,14.581-50.4,32.144-73.378,51.278a801.1,801.1,0,0,0-65.347,61.476c-10.333,10.808-20.174,22.055-29.721,33.522q-14.164,17.333-26.833,35.75a414.292,414.292,0,0,0-22.958,38.2c-1.833,3.23-3.3,6.641-4.974,9.951-1.623,3.333-3.293,6.644-4.69,10.077l-4.391,10.2-3.881,10.4a263.024,263.024,0,0,0-11.657,42.662,247.389,247.389,0,0,0-2.492,43.941c.575,29.408,4.006,58.776,3.626,88.132q.2,43.9.395,87.324.1,21.706.195,43.277a327.116,327.116,0,0,0,2.1,42.754c3.3,28.268,10.763,55.71,19.913,82.211,9.119,26.552,20.057,52.192,30.779,77.662,10.7,25.468,18.369,52.116,33.707,74.314,32.625,43.019,66.325,84.019,101.283,121.823,17.491,18.9,35.286,37.052,53.488,54.221,4.571,4.27,9.074,8.579,13.7,12.721,4.624,4.124,9.037,8.564,14.045,11.906,10.056,6.851,21.546,11.257,32.967,15.1,11.465,3.814,23.1,7,34.366,10.985,11.243,3.882,22.551,7.232,33.858,10.149a470.523,470.523,0,0,0,67.571,12.224c44.7,4.7,87.927,3.029,128.854,1.363q30.729-1.336,59.848-2.6c19.41-.843,38.244-1.62,56.5-2.655a811.975,811.975,0,0,0,101.541-11.9,516.878,516.878,0,0,0,83.7-22.639,425.158,425.158,0,0,0,63.09-29.988l12.376-7.911,5.82-3.721c1.9-1.213,3.612-2.616,5.365-3.869q5.2-3.844,9.925-7.335,2.361-1.744,4.6-3.4l4.12-3.515,14.127-12.048q5.722-5.628,9.612-9.449Zm.924.865-7.863,7.747q-3.888,3.831-9.639,9.495-6.123,5.235-14.166,12.11l-4.133,3.532-4.614,3.418-9.955,7.375c-1.76,1.26-3.475,2.67-5.383,3.89l-5.839,3.742-12.415,7.955a426.557,426.557,0,0,1-63.287,30.166,518.455,518.455,0,0,1-83.923,22.8A813.7,813.7,0,0,1,4819.8,2378.7c-18.249,1.055-37.114,1.855-56.509,2.718l-59.847,2.669c-40.938,1.708-84.232,3.442-129.137-1.232a472.449,472.449,0,0,1-67.858-12.2c-11.359-2.917-22.726-6.272-34.021-10.157-11.219-3.959-22.8-7.113-34.361-10.943-11.506-3.865-23.135-8.281-33.524-15.336-5.267-3.529-9.624-7.93-14.27-12.061-4.636-4.147-9.154-8.459-13.739-12.732-18.256-17.185-36.106-35.349-53.647-54.268s-34.755-38.619-51.648-59c-16.878-20.414-33.634-41.245-49.971-62.967-15.658-22.644-23.361-49.44-34.035-74.734-10.736-25.426-21.735-51.124-30.918-77.772-9.216-26.6-16.764-54.217-20.127-82.738a329.8,329.8,0,0,1-2.166-43.058q-.122-21.567-.242-43.277-.244-43.412-.489-87.323c.351-29.227-3.1-58.45-3.723-88.09a249.974,249.974,0,0,1,2.5-44.548A266.019,266.019,0,0,1,4143.8,1548.5l3.911-10.506,4.42-10.308c1.41-3.467,3.089-6.81,4.723-10.176,1.681-3.341,3.167-6.785,5.011-10.043a417.211,417.211,0,0,1,23.1-38.532q12.706-18.558,26.969-36.01c9.588-11.544,19.47-22.86,29.836-33.728a804.277,804.277,0,0,1,65.562-61.81c23.065-19.283,47.609-36.94,73.9-51.612,26.264-14.771,54.425-25.772,82.94-34.822,28.566-9.023,57.426-16.574,86.217-24.078,28.818-7.4,57.766-14.06,86.873-19.32,58.11-10.482,117.345-15.479,175.1-8.088,28.848,3.359,56.981,10.3,84.443,18.146,27.5,7.8,54.6,16.344,81.024,26.1,52.784,19.518,103.1,43.868,147.4,75.314,5.439,4.053,11.011,7.907,16.3,12.095l15.662,12.739q7.456,6.764,14.871,13.485c4.9,4.53,9.422,9.448,14.128,14.131a463.012,463.012,0,0,1,48.727,61.451,517.766,517.766,0,0,1,37.614,66.434,513.538,513.538,0,0,1,42.345,138.969,528.226,528.226,0,0,1,5.389,68.738c.144,11.218.535,22.356,3.763,32.794,3.142,10.424,7.985,20.357,10.457,30.969,5.275,21.119,4.9,42.621,2.648,63-2.3,20.451-6.406,40.04-10,59.12-3.674,19.074-7.405,37.586-11.662,55.383-4.22,17.805-9,34.886-14.487,51.093a389.8,389.8,0,0,1-18.753,45.728c-13.914,28.5-29.46,53.151-43.29,75.444-13.89,22.269-26.336,42.142-37.752,59.054-11.341,16.961-21.646,30.948-30.324,42.031s-15.794,19.213-20.638,24.651Z" transform="translate(-4129.473 -1195.952)"/></g></g></g></svg>