<svg xmlns="http://www.w3.org/2000/svg" width="291.707" height="286.75" viewBox="0 0 291.707 286.75"><defs><style>.a{fill:#161616;font-size:20px;font-family:LexendExa-Regular, Lexend Exa;}.b{stroke:#000;}</style></defs><g transform="translate(-1431.758 -3888.637)"><text class="a" transform="translate(1453.354 4025.404)"><tspan x="93.7" y="20">Grief</tspan></text><g transform="translate(1432.244 3888.637)"><path d="M238.8,186.685c-.379,1.9-.958,2.9-1.809,3.132-1.238.343-2.454-1.066-3.635-2.423a29.685,29.685,0,0,1-2.091-2.829,16.7,16.7,0,0,0-3.364-4.012,10.533,10.533,0,0,1-2.416-3.022c-.954-1.56-1.857-3.033-3.787-3.479l-.568-.13.3-.5c.079-.134.148-.286.218-.436a2.113,2.113,0,0,1,.813-1.075,2.749,2.749,0,0,1,.916-.216,2.333,2.333,0,0,0,.557-.106,3.862,3.862,0,0,0-.407-.663q-4.631-6.219-9.319-12.4l-3.148-4.172c-.209.233-.427.491-.646.749-1.081,1.278-1.729,1.987-2.361,1.765a3.081,3.081,0,0,1-2.082-1.906c-.406-1.232.035-2.827,1.309-4.743-.361-3.428-4.349-14.339-6.51-17.082-.139-.174-.28-.346-.419-.515-.917-1.119-1.868-2.274-1.566-4.139,0-.13-.33-.505-.509-.707l0,0a2.739,2.739,0,0,0-.258.72c-.178,1.139-.313,2.284-.448,3.43l-.306,2.5-.632-.965c-.286-.434-.6-.859-.919-1.284a11.849,11.849,0,0,1-1.846-3.078,28.059,28.059,0,0,1-1.093-5.027,18.551,18.551,0,0,0-2.19-7.3c-.694-1.106.822-3.575,1.134-4.058.674-1.048,1.313-1.5,1.921-1.348s.934.859,1.02,2.152a1.69,1.69,0,0,0,.381.69,2.416,2.416,0,0,0,.386-.491c-.231-.835-.535-1.749-.828-2.632-.273-.815-.553-1.657-.782-2.505a2.631,2.631,0,0,1,.657-1.9c.278-.438.659-1.037.539-1.264-.049-.09-.333-.39-1.917-.412l-.694-.009.328-.612c.071-.137.135-.286.2-.434a2.691,2.691,0,0,1,.694-1.093,4.433,4.433,0,0,1,.93-.562,3.851,3.851,0,0,1-1.2-.54c-.377-.278-.4-.809-.412-1.326a4.088,4.088,0,0,0-.037-.537c-.084-.509-.181-1.018-.28-1.527a25.882,25.882,0,0,1-.494-3.349,21.271,21.271,0,0,1,.057-2.582,10.8,10.8,0,0,0-.22-4,10.447,10.447,0,0,0-2.428-3.463c-.341-.374-.69-.756-1.018-1.146-.337.383-.685.764-1.031,1.141a20.558,20.558,0,0,0-2.936,3.73c-.4.721-.106,2.023.158,3.17l.123.542a7.749,7.749,0,0,0,.582,1.542,6.378,6.378,0,0,1,.7,2.17c.033.483.031.98.029,1.472-.009,2.181-.017,3.9,2.947,4.2l.415.044-.038.416a3.958,3.958,0,0,0,.822,2.159c.883,1.469,1.981,3.3-.828,5.258-.645.452-1.064,1.934-1.148,4.063-.042,1.058-.194,2.141-.34,3.186-.491,3.5-.954,6.8,2.271,9.645a3.085,3.085,0,0,1,.668,2.15,3.85,3.85,0,0,0,.353,1.679,5.167,5.167,0,0,0,1.544,1.222c.833.514,1.621,1,1.648,1.725.1,2.743,1.289,3.778,3.752,4.939,1.63.767,2.692,1.447,2.954,2.454.278,1.069-.37,2.229-1.835,4.271l-.1.136c-.361.5-1.319,1.829-1.161,2.185.456,1.026.875,2.077,1.293,3.13,1.593,4.01,3.24,8.156,7.186,10.689a3.474,3.474,0,0,0,.487-.24,3.231,3.231,0,0,1,1.051-.432,7.012,7.012,0,0,1,6.721,3.042,2.489,2.489,0,0,1-.2,2.969c-2.245,2.654-1.2,4.662-.088,6.792a8.751,8.751,0,0,1,1.308,3.88,4.953,4.953,0,0,0,1.575.69,3.054,3.054,0,0,1,2.875-1.064,3.571,3.571,0,0,1,2.359,2.377c.9,2.666,3.1,4.128,5.43,5.675,2.6,1.731,5.292,3.52,5.955,7.111a.969.969,0,0,0,.146.066c2.917-1.985,5.7-1.167,7.863-.108.068-.108.141-.218.214-.33.2-.3.531-.806.482-.974a11.6,11.6,0,0,0-1.961-4.018A4.633,4.633,0,0,0,238.8,186.685Zm-51.55-96.552c.1-.051.2-.106.3-.161a3.536,3.536,0,0,1,.926-.4c.344-.073.586.209.791.46.053.066.106.13.156.181l.418.414-.525.266c-.1.049-.2.1-.3.158a3.482,3.482,0,0,1-.936.4.54.54,0,0,1-.117.015c-.288,0-.491-.251-.674-.472-.053-.068-.106-.132-.156-.183l-.417-.414Zm1.35,8.244-1.861-1.026.4-.4c.05-.051.1-.115.156-.181.207-.253.445-.527.791-.46a3.544,3.544,0,0,1,.927.4c.1.055.2.11.3.161l.529.264ZM217.5,169.013a2.4,2.4,0,0,0-.181.159l-.4.4-1.029-1.857,1.243-1.238.262.524c.049.1.106.2.161.3a3.493,3.493,0,0,1,.4.927C218.036,168.574,217.751,168.808,217.5,169.013Z" transform="translate(-184.35 53.942)"/><path d="M310.516,30.021a4.04,4.04,0,0,0-.232-.374,3.057,3.057,0,0,0-.328.659,3.372,3.372,0,0,0,.343,1.557c1.517-.079,2.335,1.163,3.036,2.256.971,1.511,1.657,2.4,3.448,1.672,1.055-.429,3.15,2.952,3.169,2.989a17.231,17.231,0,0,1,2.092,5.146c.046.225.9.7,1.352.954,1.014.568,1.974,1.1,1.86,1.9-.094.67-.9,1.159-2.764,1.644l.013.026a2.647,2.647,0,0,0,.379.588c.214,0,.5,0,.787.007a3.494,3.494,0,0,1,2.74.766,3.14,3.14,0,0,1,.462,2.536c-.121.925-.121.925,2.71,1.718l.537.147c.66.178,1.343.361,1.482.87.969,3.534,3.221,6.124,5.6,8.867l.82.949c.971,1.13,1.648,1.992,2.144,2.622,1.251,1.591,1.332,1.72,2.445,1.709.057,0,.111,0,.166,0a8.233,8.233,0,0,1,5.375,1.762,12.3,12.3,0,0,0,1.167-.524c.269-.13.558-.269.859-.4-.528-.78-1.011-1.516-1.469-2.218a52.746,52.746,0,0,0-3.15-4.481c-1.554-1.9-3.193-3.793-4.779-5.618-1.758-2.024-3.575-4.119-5.285-6.243-.031-.038-3.025-3.934-2.115-5a1.906,1.906,0,0,0,.639-1.438c-.068-.35-.4-.668-1.044-1-2.507-1.3-4.076-3.437-5.591-5.5a25.782,25.782,0,0,0-2.968-3.575l-.143-.134.007-.194c.1-2.139-1.2-2.558-3.326-3.066-1.659-.394-3.516-.837-3.908-2.844-.125.11-.253.222-.377.333a18.445,18.445,0,0,1-2.679,2.082,2.052,2.052,0,0,1-1.593-.057,3.722,3.722,0,0,0-.875-.187C311.036,30.911,310.76,30.439,310.516,30.021Zm20.763,19.95c.1-.051.2-.108.3-.163a3.539,3.539,0,0,1,.928-.4c.354-.084.583.205.787.456.053.066.107.132.156.181l.4.4-1.864,1.027-1.243-1.242Z" transform="translate(-79.958 8.16)"/><path d="M198.97,76.956c.648.471,1.037.826,1.1,1.249a1.353,1.353,0,0,1-.4,1.013c-.088.119-.187.255-.291.416a4.442,4.442,0,0,0-.454,1.89c-.013.117-.024.236-.036.353.2-.049.4-.1.6-.141.65-.148,1.634-.374,1.745-.661a20.938,20.938,0,0,0,1.674-7.228c.033-2.388.864-3.452,3.17-4.025a6.16,6.16,0,0,0,.013-2.1h-.85l.482-.383a3.784,3.784,0,0,1-.76-.778l-.383-.493.6-.174c.1-.029.227-.077.352-.123.491-.183.881-.328,1.126-.007a2.236,2.236,0,0,1,.285.516,17.9,17.9,0,0,0,1.994-2.36l.052.037.1-.249.592-.828a15.031,15.031,0,0,1,4.752-4.893,2.042,2.042,0,0,1-.9-1.463c-.051-.954.811-1.732,1.661-2.368.731-.546,1.469-1.086,2.2-1.624l.875-.643a8.053,8.053,0,0,0,.071-1.3c0-1.476.006-3,2.613-4.49,3.256-1.857,6.252-5.756,5.777-10.365l-7.252.489c.113.443.236.886.357,1.328a24.575,24.575,0,0,1,.883,4.115c.119,1.24-.028,1.881-.489,2.144-.575.333-1.251-.161-1.9-.637a4.509,4.509,0,0,0-.81-.511c0,.031-.009.092-.016.181-.125,1.884-1.434,2.84-2.589,3.683-1,.732-1.952,1.423-2.17,2.644-.123.687-1.326,1.071-2.031,1.24-1.762.419-2.769.657-2.985,1.024-.18.3.011.991.329,2.13l.07.255c.013.044,1.057,4.54.033,4.84a3.931,3.931,0,0,0-3.095,3.315l-.161.817-.564-.61c-.117-.126-.251-.245-.385-.364a2.743,2.743,0,0,1-.87-1.1,12.869,12.869,0,0,1-.441-2.082,10.775,10.775,0,0,0-1.1,1.9,34.693,34.693,0,0,1-4.4,8.374c-1.2,1.564-1.689,2.818-1.524,3.948C195.8,74.141,196.839,75.408,198.97,76.956Zm1.846-8.667.4.4a2.306,2.306,0,0,0,.183.156c.253.207.538.44.461.789a3.477,3.477,0,0,1-.4.934c-.053.1-.11.2-.159.3l-.262.522-1.241-1.236Z" transform="translate(-175.01 13.961)"/><path d="M201.709,53.374c-.008-.049-.009-.1-.018-.15a3.826,3.826,0,0,1-.35-.232l-.482.383Z" transform="translate(-170.627 28.309)"/><path d="M339.7,101.651l.02.086.538-.205c0-.251-.009-.515-.011-.789C340.055,101.058,339.873,101.36,339.7,101.651Z" transform="translate(-55.21 68.004)"/><path d="M347.141,94.444c1.531-.135,1.711-1.027,1.937-2.155A3.5,3.5,0,0,1,350,90.221L346.619,85.8l-.971,3.716a14.339,14.339,0,0,0-.269,1.5c-.061.416-.121.835-.206,1.231l.3-.3c.049-.049.1-.115.157-.181.205-.251.43-.531.786-.458h0a3.569,3.569,0,0,1,.928.4c.1.057.2.112.3.163l.528.26-1.241,1.242-1.791-.987a2.736,2.736,0,0,1-.976,1.769,7.808,7.808,0,0,1-3.7.864,17.026,17.026,0,0,0-1.9.209c-.115.024-.313.258-.463.434a3.041,3.041,0,0,1,1.364,1.74,3.916,3.916,0,0,1-.969,2.919,3.516,3.516,0,0,0-.9,2.438c.368,1.659.987,4.435-1.446,6.561-.33.289-.229.584.291,1.447.59.978,1.484,2.458-.5,3.86a1.1,1.1,0,0,0-.522.65c-.068.4.308.923.705,1.476.747,1.044,1.769,2.474.342,4.157a2.389,2.389,0,0,0-.705,2.249c.288.939,1.4,1.743,3.051,2.2l.232.066.141.295c.093.339-.165.606-.52.978-.207.216-.756.789-.687.987.005.013.118.286,1.306.418a3.314,3.314,0,0,0,3.681-1.811c.04-.212-.536-.971-.844-1.379a10.936,10.936,0,0,1-.8-1.157l-.225-.385a4.522,4.522,0,0,1-.774-1.906c-.138-1.91-.077-3.8,2.044-7.521a9.379,9.379,0,0,1-.337-2.262,2.123,2.123,0,0,1,.756-1.306c.132-.143.266-.286.374-.428l.526-.707.223.863c.353-6.563.185-7.4,0-7.64l-.388-.491.6-.177c.1-.029.227-.077.352-.123.491-.187.883-.328,1.13,0a3.213,3.213,0,0,1,.46,1.04c.031.1.063.209.1.309a8.885,8.885,0,0,1,2.641-3.273,1.2,1.2,0,0,0-.057-.4c-.163-.45-.342-.9-.526-1.34a3.609,3.609,0,0,1-.467,1.1c-.262.39-.825.335-1.423.278a4.118,4.118,0,0,0-.549-.037l-.588.005.18-.558a3.579,3.579,0,0,0-.022-1.418,2.882,2.882,0,0,1,.268-2.251A2.069,2.069,0,0,1,347.141,94.444Zm-7.4,21.265-.264-.526c-.049-.1-.1-.2-.159-.3a3.535,3.535,0,0,1-.4-.932c-.075-.352.212-.588.465-.791.064-.053.13-.106.181-.156l.4-.394,1.029,1.855Zm1.487-15.6-1.243-1.24.527-.262c.1-.051.2-.106.3-.163a3.549,3.549,0,0,1,.928-.4c.354-.07.586.207.789.458.055.066.108.132.158.181l.4.4Z" transform="translate(-58.775 55.58)"/><path d="M341.049,96.155c.051-.211.113-.419.185-.626h-.018A4.308,4.308,0,0,0,341.049,96.155Z" transform="translate(-54.091 63.67)"/><path d="M341.365,96.366c-.23,1.364-.531,3.567-.9,6.594l0,.027c0,.4,0,.8,0,1.194l.379,1.434-.352.132a14,14,0,0,0,.549,4.342c.162-.412.341-.833.522-1.262.742-1.734,1.507-3.529,1.1-4.829C341.863,101.448,341.048,98.846,341.365,96.366Z" transform="translate(-54.577 64.366)"/><path d="M228.508,27.578a1.767,1.767,0,0,1,1.254.322,3.906,3.906,0,0,0,.414.2l.43.17-.379.773a8.394,8.394,0,0,1-.432.83c-1.26,2.042-3.172,1.959-4.862,1.883l-.262-.011a3.48,3.48,0,0,0,1.154.795,3.336,3.336,0,0,0,.958.1c.819.009,2.022.022,2.23,1.569.282-.106.656-.419,1.284-1.322.494-1.091.71-1.518,1-1.579l1.538-2.545-.571,1.785a1.623,1.623,0,0,1,1.236-.487.744.744,0,0,1,.555.555,2.236,2.236,0,0,1-.278,1.978,22.924,22.924,0,0,1-2.33,1.806l-.459.326a8.73,8.73,0,0,0-.229,1.141c2.913-.507,5.83-1.157,7.329-4.086a2.559,2.559,0,0,1-1.121-.106,3.893,3.893,0,0,1-1.15-.808c-.134-.123-.268-.244-.4-.353l-.581-.46.69-.266c.141-.055.28-.115.419-.178a4.772,4.772,0,0,1,1.1-.375,6.091,6.091,0,0,1,1.236-.04l.066,0V29.1l.159.035c.1-.247.222-.509.344-.771.21-.447.648-1.379.535-1.579-.753-1.106-.96-1.776-.694-2.238.3-.531,1.007-.478,1.692-.429a2.488,2.488,0,0,0,.98-.038,5.776,5.776,0,0,1,1.071-1.751,5.038,5.038,0,0,0,.934-1.5c.229-.731.476-1.247.936-1.4.476-.156.906.156,1.448.555l.255.185c1.454,1.042,3.033,1.976,4.562,2.881.487.288.974.575,1.459.868a4.327,4.327,0,0,0-.846-2.284c-.894-1.538-2-3.452.8-5.329a6.05,6.05,0,0,0-.119-1.593c-.029-.19-.057-.381-.081-.564l-.35.192c-.672.372-1.37.754-2.091,1.071-.668.293-1.368.542-2.044.784a15.34,15.34,0,0,0-3.567,1.617A19.619,19.619,0,0,0,240.6,20.72c-.537.575-1.075,1.152-1.641,1.69a2.3,2.3,0,0,1-1.408.476l-.2-.024-.168-.192c-.3-.469-.588-.731-.824-.758-.332-.04-.727.357-1.121.74-.626.608-1.472,1.432-2.549.894-.165.15-.445.467-.679.733-.8.9-1.789,2.031-2.745,2.23-.4.084-.806.145-1.2.2-1.452.214-2.706.4-3.554,1.721a2.963,2.963,0,0,0-.247.509c.163-.057.328-.114.494-.168C225.975,28.354,227.237,27.92,228.508,27.578Zm6.345-1.6,1.246,1.24-.528.264c-.1.049-.2.1-.3.161a3.546,3.546,0,0,1-.928.4.631.631,0,0,1-.115.011c-.288,0-.491-.247-.674-.471-.053-.064-.106-.132-.156-.181l-.4-.4Z" transform="translate(-151.174 -3.979)"/><path d="M298.767,22.848a3.678,3.678,0,0,0-1.326.952c-.108.1-.216.2-.324.3l1.218,1.214c1.806-.2,3.106.628,4.5,1.641.17.128.911-.159,1.4-.352a4.583,4.583,0,0,1,2.311-.485c5.124,1.007,5.3,1.262,8.642,7.371l.168-.17.1.546,4.276,1.421V33.919l.242-.115a2.4,2.4,0,0,1,1.481-.031c.414.079.808.15,1.016,0a1.259,1.259,0,0,0,.326-.8c-.053-.363-1.577-5.9-1.85-6.651-.592-.524-1.172-1.066-1.753-1.61a33.586,33.586,0,0,0-4.292-3.587c-.9-.6-1.89-.185-3.027.288-1.339.555-2.838,1.177-4.32.04-1.535,2.851-3.776,2.247-5.761,1.712A5.933,5.933,0,0,0,298.767,22.848ZM318.829,27.3c.064-.053.13-.106.179-.156l.4-.392,1.029,1.851-1.243,1.236-.263-.52c-.049-.1-.105-.2-.157-.3a3.507,3.507,0,0,1-.407-.932C318.289,27.739,318.576,27.506,318.829,27.3Zm-2.02,3.8c.1-.029.227-.077.352-.123.491-.181.879-.33,1.128-.007A3.18,3.18,0,0,1,318.746,32c.037.121.073.24.113.355l.068.19a9.782,9.782,0,0,1,1.025.852l.062.06-.584.612a8.447,8.447,0,0,0-1.562-1.2,3.849,3.849,0,0,1-.423-.255l-.892-.533h.3c-.1-.108-.176-.212-.255-.313l-.385-.491Z" transform="translate(-90.61 1.573)"/><path d="M215.174,40.848A28.821,28.821,0,0,1,217.91,38.8l.586-.377a8.524,8.524,0,0,1,3.8-1.7c2.487-.172,5.591-.7,7.552-3.254,1.523-1.985,3.373-1.939,5.162-1.9.337.007.674.015,1.014.009l3.066-4.586-1.183-1.181c-.214.163-.425.328-.637.494a13.676,13.676,0,0,1-2.288,1.564c-.359.179-.734.326-1.11.471a5.362,5.362,0,0,0-1.943,1.068l-.027.342-.307-.073a5.583,5.583,0,0,1-3.084.861c-.375-.024-.487-.366-.614-.982-.031-.143-.058-.284-.088-.394l-.114-.436.441-.086c.2-.04.406-.086.61-.134a8.9,8.9,0,0,1,1.639-.267,1.2,1.2,0,0,1,.685.284l.062.044a3.284,3.284,0,0,0-.736-2.617,2.879,2.879,0,0,0-2.582-.238,8.141,8.141,0,0,0-2.159,1.016c-.342.2-.687.407-1.035.586l-.569.291-.048-.637c-.053-.751-.326-1.253-.767-1.412a.924.924,0,0,0-.318-.055,1.39,1.39,0,0,0-.973.449,35.767,35.767,0,0,0-2.853,3.538,27.84,27.84,0,0,1-3.855,4.5c-3,2.622-2.562,4.915-.855,7.5C214.649,41.276,214.911,41.062,215.174,40.848Zm4.485-8.748c.057-.1.112-.2.154-.282.416-.833.841-1.663,1.265-2.492l.724-1.417.41.412a4.092,4.092,0,0,1,.277.311,1.515,1.515,0,0,0,.421.4c2.119.894,2.981,1.258,3.121,2,.135.723-.518,1.357-1.949,2.743-.337.328-.688.668-1.086.668a.7.7,0,0,1-.258-.049c-.352-.134-.575-.507-.714-1.253a2.1,2.1,0,0,1-1.461.978,1.478,1.478,0,0,1-1.17-.742C219.139,33.026,219.392,32.576,219.659,32.1Z" transform="translate(-160.499 5.455)"/><path d="M294.9,18.564a.955.955,0,0,1,1.027.024l.271.223-.141.366a5.358,5.358,0,0,1-.6.837l-.481.608-.255-.253c-.137.434-.249.894-.15,1.04.936,1.406,4.908,3.029,8.017,3.274a3.563,3.563,0,0,0,2.6-.449,5.527,5.527,0,0,0,.923-2.8c.046-.293.095-.59.15-.885a1.9,1.9,0,0,1-1.229-.187,2.742,2.742,0,0,1-1.051-1.943c-.2-.85-.333-1.256-.736-1.306a5.858,5.858,0,0,0-3.58.656c-.746.472-1.267.764-1.756.562s-.661-.826-.824-1.558a5.439,5.439,0,0,0-1.6-2.425c-.583-.588-1.11-.844-1.511-.745-.438.119-.809.709-1.049,1.661a2.43,2.43,0,0,0-.017.709,2.985,2.985,0,0,1-.032.954,3.578,3.578,0,0,1-.529,1.1c-.081.13-.161.258-.234.39l-.346.634a13.524,13.524,0,0,0,2.162-.148C294.259,18.63,294.572,18.374,294.9,18.564Z" transform="translate(-95.059 -4.45)"/><path d="M283.282,16.549c.124.1.254.205.39.319.374.315,1,.819,1.255.787a13.97,13.97,0,0,1,2.71-.251,32.036,32.036,0,0,1,5.931.734,33.469,33.469,0,0,0,5.935.745l-.315-.654c-.1-.2-.187-.414-.275-.624a5.012,5.012,0,0,0-.643-1.216,4.93,4.93,0,0,0-1.044-.885c-.073-.051-.145-.1-.214-.152L295.683,17l-.718-1.8-.213.011a4.783,4.783,0,0,1-1.229-.044,4.568,4.568,0,0,1-1.37-.648c-.506-.308-1.083-.654-1.37-.513-.174.086-.493.45-.654,1.925a1.233,1.233,0,0,1-1.11,1.077,2.612,2.612,0,0,1-2.641-1.644,5.453,5.453,0,0,0-1.02-1.355c-.072-.077-.141-.152-.211-.229-.028.048-.057.1-.088.141-.34.557-.692,1.13-1.241,1.2-1.347.163-1.467.407-1.472.418S282.326,15.8,283.282,16.549Z" transform="translate(-102.887 -4.287)"/><path d="M331.647,54.318c-.222-.04-.549.222-.91.5l-.344.255c-1.7,1.22-1.146,1.991-.315,3.155a5.312,5.312,0,0,1,.831,1.489l.1-.035v.432a13.5,13.5,0,0,1,3.379,9.678l0,0v.126c0,.117.005.227,0,.346.324.458.663.9,1,1.353a21.592,21.592,0,0,1,2.278,3.452c1.343,2.762,2.707,4.558,5.358,4.979a2.737,2.737,0,0,0,1.943-.31,2.065,2.065,0,0,0,.242-1.718,28.5,28.5,0,0,0-1.227-2.589,20.366,20.366,0,0,1-1.648-3.827c-1.207-4.382-3.879-7.975-6.462-11.449-1.255-1.688-2.553-3.435-3.675-5.258C331.995,54.55,331.8,54.345,331.647,54.318ZM335.469,65.8c.1-.051.2-.106.3-.161a3.523,3.523,0,0,1,.934-.4c.355-.081.582.209.787.458a2.346,2.346,0,0,0,.156.181l.421.416-.529.264c-.1.049-.2.1-.3.159a3.493,3.493,0,0,1-.938.4.491.491,0,0,1-.113.013c-.287,0-.491-.249-.674-.471a2.32,2.32,0,0,0-.158-.183l-.415-.416Z" transform="translate(-63.87 29.409)"/><path d="M339.679,119.868c-.309-.711-.778-1.784-1.018-1.846l-.026,0a4.341,4.341,0,0,0-1.227.8l-.385.295a5.017,5.017,0,0,0-1.83,6.135c1,2.236-.238,3.824-1.33,5.226-1.075,1.377-2,2.569-.976,4.269l.1.17-.07.218a1.733,1.733,0,0,1-.822.784l-.383.145a8.485,8.485,0,0,1-2.088.588,3.534,3.534,0,0,0-2.811,1.6,3.157,3.157,0,0,0-.145,2.7,3.822,3.822,0,0,0,.751-.218c.033-.169.06-.343.088-.517.124-.8.242-1.56.846-1.727.494-.137,1.038.218,1.827,1.176.617.749,1.039.529,1.93-.048.868-.566,2.058-1.331,3.485-.083l.044.039a7.805,7.805,0,0,0,.038-.817,4.052,4.052,0,0,1,.289-1.846c.619-1.057,1.164-1.908,1.709-2.679,1.4-1.967,1.451-4.243,1.509-6.653.051-2.273.106-4.62,1.365-6.726l-.013-.011A2.773,2.773,0,0,1,339.679,119.868Z" transform="translate(-66.234 82.364)"/><path d="M285.979,162.246a1.62,1.62,0,0,0-.522-.042,3.544,3.544,0,0,1-1.112,2.514c-.923.736-2.168.538-3.37.344a5.485,5.485,0,0,0-2.136-.086,8.582,8.582,0,0,1-3.155.066c-1.668-.176-3.245-.341-4.545,1.1l-.367.4-.3-.456c-.13-.2-.253-.41-.374-.621a4.435,4.435,0,0,0-.866-1.194,1.708,1.708,0,0,0-.815-.077l-.132,0c.007.106.013.212.018.319a5.528,5.528,0,0,1-.1,1.877c-.2.7-.859,1.784-1.639,1.9a2.619,2.619,0,0,1-2.416-1.17,45.477,45.477,0,0,1-1.494-4.983l-.276-1.062c-.359-1.352-1.073-1.256-2.154-1.108a5.5,5.5,0,0,1-1.271.071c-.066.2-.139.4-.216.606-.167.456-.447,1.22-.319,1.414.438.655.842,1.37,1.232,2.062,1.685,2.976,3.285,5.785,7.7,4.723l4.382-.317c4.435-.311,9.023-.634,13.529-1.013a4.276,4.276,0,0,0,2.344-.729A3.774,3.774,0,0,0,285.979,162.246Z" transform="translate(-122.805 117.179)"/><path d="M337.408,71.281a4.533,4.533,0,0,0-1.192,1.558c-.029.055-.059.108-.09.161a2.4,2.4,0,0,1,1.011.114,3.8,3.8,0,0,1,1.15.808c.134.121.268.242.407.352l.58.462-.692.266c-.141.055-.28.115-.42.178a4.7,4.7,0,0,1-1.095.374,5.847,5.847,0,0,1-1.238.04l-.064,0v.088c2.551,1.106,2.826,1.9,2.011,5.15-.024.092-.049.189-.064.262,2.423,2.122,1.4,4.161.5,5.961a14.5,14.5,0,0,0-.7,1.535,3,3,0,0,0,1.355,3.811,10.131,10.131,0,0,0,1.645.82,4.235,4.235,0,0,0,1.128-2.141,6.165,6.165,0,0,0-1.432-4.941,2.26,2.26,0,0,1-.4-2.181c.4-1.088,1.714-1.987,3.62-2.469a4.209,4.209,0,0,0,1-.313,3.379,3.379,0,0,0-.063-.591l-.033-.218a14.157,14.157,0,0,0-2.641-5.7,22.541,22.541,0,0,1-2.139-3.772A4.58,4.58,0,0,0,337.408,71.281Z" transform="translate(-58.484 43.178)"/><path d="M338.442,111.488c-.48-.35-.962-.7-1.436-1.062l-.284.112c-.114.044-.27.1-.381.152.256,4.1-.791,7.342-3.2,9.874l.049.029a2.431,2.431,0,0,0,.951.43,2.335,2.335,0,0,0,1.251-.518,2.707,2.707,0,0,1,2.064-.6,2.439,2.439,0,0,1,1.414,1.251,2.006,2.006,0,0,0,1.015-.135c.855-.528,2.736-5.752,2.337-6.5A37.263,37.263,0,0,0,338.442,111.488Z" transform="translate(-60.664 76.053)"/><path d="M224.838,150.382h0c-.357-.154-.721-.288-1.077-.421-1.24-.456-2.412-.886-2.818-1.952a3.641,3.641,0,0,1,.494-2.937,7.351,7.351,0,0,0-2.064-1.65,2,2,0,0,0-1.6.542c-.313.425-.049.91.408,1.668a2.949,2.949,0,0,1,.639,2.223,2.362,2.362,0,0,1-1.209,1.361,1.467,1.467,0,0,0,.055.383c.035.11.068.227.1.348.079.288.2.722.342.811,2.172,1.357,4.422,2.692,6.805,4.106l1.855,1.1.006-.027a11.124,11.124,0,0,1,.211-1.273A3.576,3.576,0,0,0,224.838,150.382Z" transform="translate(-156.701 103.453)"/><path d="M327.435,133.363c-.372-.306-.753-.615-1.084-.917l-.085.093a2.073,2.073,0,0,0-.421.575c.493,4.04.169,5.5-2.926,7.408a1.872,1.872,0,0,0-.954,2.073,6.034,6.034,0,0,1-.012.85l1.778,1.432-1.808.718v.782l1.295-.5-.764.762a1.116,1.116,0,0,0,.495-.051c4.06-2.068,5.073-6.091,6.052-9.984.11-.438.222-.877.334-1.308C329.389,134.962,328.118,133.922,327.435,133.363Z" transform="translate(-69.99 94.358)"/><path d="M293.41,159.966c-2.749,1.762-5.721,1.709-8.6,1.659a33.343,33.343,0,0,0-3.452.057,5.111,5.111,0,0,0-2.377,1.544,2.652,2.652,0,0,0,.068.907c1.72.5,3.466.928,5.481,1.417l1.566.383,1.427-.745c2.119-1.106,4.518-2.357,6.829-3.653a2.148,2.148,0,0,0-.163-1.031A1.813,1.813,0,0,0,293.41,159.966Z" transform="translate(-105.704 117.235)"/><path d="M241.785,156.827l-.636-.471c-1.7-1.256-3.452-2.556-5.214-3.778a1.7,1.7,0,0,0-.731,0,3.36,3.36,0,0,0,.339.765,4.478,4.478,0,0,0,.7.747c.123.115.247.229.365.348l.449.452-.592.238c-.209.084-.45.207-.69.331-.762.388-1.357.7-1.762.363a18.708,18.708,0,0,1-2.3-2.428c-.218-.26-.434-.516-.655-.771H230.8v-.009l-.079,0a7.051,7.051,0,0,0-1.066.018c-.716.09-1.428.211-2.141.333l-.3.051c.057.1.112.2.168.3.3.542.6,1.1.963,1.242,2.8,1.079,5.7,2.047,8.51,2.981l2.488.833a1.959,1.959,0,0,1,.59-1.145A2.464,2.464,0,0,1,241.785,156.827Z" transform="translate(-148.725 111.059)"/><path d="M260.251,159.988l-.048.005a21.08,21.08,0,0,0-3.472.537c-.127,1.359-.348,2.245-1.013,2.465-.586.192-1.249-.205-2.291-1.381-.13-.148-.26-.308-.39-.471a3.747,3.747,0,0,0-1.113-1.071,12.965,12.965,0,0,0-1.8,5.265,1.4,1.4,0,0,0,.5-.163,2.446,2.446,0,0,1,1.456-.822.846.846,0,0,1,.319.061c.611.242.734,1.068.773,1.76a1.429,1.429,0,0,0,.537,1.135,1.953,1.953,0,0,0,.1-.421c.286-2.282,1.441-2.466,2.56-2.644a6.368,6.368,0,0,0,1.014-.222,8.581,8.581,0,0,0,2.753-1.91c.3-.269.6-.537.9-.786-.168-.275-.311-.529-.438-.751S260.339,160.109,260.251,159.988Z" transform="translate(-129.674 117.253)"/><path d="M305.888,155.182l-.038.4c-.051.527-.6.727-1.029.884a2.5,2.5,0,0,0-.489.218,5.512,5.512,0,0,0,.548.5,1.441,1.441,0,0,0,1.117.2c3-1.124,4.659-3.435,5.2-7.259a3.075,3.075,0,0,0-1.119-.282C306.354,149.827,306.165,152.3,305.888,155.182Z" transform="translate(-84.613 108.817)"/><path d="M297.409,156.427c-.09.09-.192.2-.273.3-1.783,2.161-4.228,3.185-6.593,4.177-.557.233-1.111.464-1.659.712a2.07,2.07,0,0,0-.156,1.013,1,1,0,0,0,.119.339c.76-.146,1.513-.271,2.253-.394a26.312,26.312,0,0,0,5.162-1.2c1.9-.725,1.963-2.844,1.687-4.492C297.922,156.777,297.592,156.55,297.409,156.427Z" transform="translate(-97.592 114.293)"/><path d="M249.084,159.561a48.006,48.006,0,0,0-6.188-1.844c-.648-.163-1.3-.326-1.941-.494a1.312,1.312,0,0,0-.956-.005l0,.011h-.044l-.022.005c-.175.154-.227.573-.145,1.178a3.082,3.082,0,0,0,.2.89,3.727,3.727,0,0,0,1.066-.269,2.342,2.342,0,0,1,.753-.115c2,0,4.886,2.033,6.517,3.587a3.087,3.087,0,0,0,1.9.553c.022-.035.232-.306.4-.526.126-.161.263-.34.423-.527-.161-.234-.319-.487-.476-.744A4.08,4.08,0,0,0,249.084,159.561Z" transform="translate(-138.295 114.88)"/><path d="M252.626,159.853c.044,0,.088-.009.132-.015-.015-.189-.022-.372-.029-.538a3.086,3.086,0,0,0-.082-.731c-.178-.113-.388-.264-.6-.414a9.381,9.381,0,0,0-3.265-1.758,16.393,16.393,0,0,0-3.963-.139c-.432.018-.862.039-1.291.048.273,1.093.972,1.016,2.038.892a3.068,3.068,0,0,1,2.276.319,25.011,25.011,0,0,0,3.974,2.311A1.746,1.746,0,0,0,252.626,159.853Z" transform="translate(-135.157 114.11)"/><path d="M303.513,152.367a25.856,25.856,0,0,0-1.826,2.461c.127.165.393.452.615.69.189.2.4.421.6.654l2.7-2.582-1.707-1.709C303.773,152.043,303.643,152.206,303.513,152.367Z" transform="translate(-86.811 110.515)"/><path d="M299.967,155.378c-.2,0-.59.4-.846.661l-.055.055c.427.579,1.67,2.055,2.244,2.665.52-.632,1.064-1.309,1.813-2.238l.463-.579c-.379-.07-.727-.137-1.048-.2A14.028,14.028,0,0,0,299.967,155.378Z" transform="translate(-88.99 113.421)"/><path d="M314.581,144.6a16.61,16.61,0,0,1-1.243,1.491,8.521,8.521,0,0,1-1.2.958c-.086.061-.174.121-.26.183l.108.275h-.174c0,.249,0,.5-.017.747a2.039,2.039,0,0,0,.174,1.408,1.405,1.405,0,0,0,.923.354L315.914,147l-1.254-2.5C314.634,144.533,314.609,144.568,314.581,144.6Z" transform="translate(-78.439 104.378)"/><path d="M318.713,144.756a1.932,1.932,0,0,0-.613-.22,38.946,38.946,0,0,0-3.529,2.749,6.245,6.245,0,0,0,.489.958,1.426,1.426,0,0,0,.172.064c1.106-.743,2.19-1.514,3.122-2.179l.467-.331c-.038-.3-.058-.542-.075-.729C318.734,144.95,318.725,144.833,318.713,144.756Z" transform="translate(-76.102 104.408)"/><path d="M291.067,15.084l1.174-1.792-3.1-.4.767,2.193Z" transform="translate(-97.242 -5.024)"/><path d="M218.5,143.713a.925.925,0,0,0,.989.225,1.239,1.239,0,0,0,.8-1,2,2,0,0,1-1.253-.612,2.648,2.648,0,0,1-.385-2.029c.013-.167.026-.329.031-.487a2.006,2.006,0,0,0-1.148,1.166C217.266,141.867,217.911,142.957,218.5,143.713Z" transform="translate(-156.82 100.477)"/><path d="M323.715,142.051l-.064.258-.26.053c-.765.163-1.535.32-2.3.474-2.379.485-4.84.985-7.2,1.657a7.135,7.135,0,0,0-.193,1.435c-.013.178-.029.354-.044.522.625-.166,1.3-.388,1.952-.608,2.113-.7,4.111-1.364,5.294-.544,1.036.721,1.793,1.007,2.245.866s.7-.817.963-1.525a8.256,8.256,0,0,1,.516-1.212l.069-.093,2.546-2.538c-.292-.025-.583-.075-.872-.123C325.032,140.446,324.143,140.3,323.715,142.051Z" transform="translate(-76.864 101.086)"/><path d="M197.342,120.373a1.985,1.985,0,0,0,2.644,2.637,2.6,2.6,0,0,0-.39-2.243A2.633,2.633,0,0,0,197.342,120.373Z" transform="translate(-173.604 84.27)"/><path d="M333.024,69.547a6.828,6.828,0,0,0,.659,1.531l.154.293,1.123-.469-1.6-1.881A2,2,0,0,0,333.024,69.547Z" transform="translate(-60.762 41.635)"/><path d="M223.539,152.044a2.063,2.063,0,0,0,1.416.178c.247-.018.5-.037.751-.035v-2.221l-2.509,1.251A1.324,1.324,0,0,0,223.539,152.044Z" transform="translate(-152.059 108.921)"/><path d="M275.351,160.3a3.737,3.737,0,0,0,1.282.555,2.981,2.981,0,0,0,1.273-.238l-1.057-.822Z" transform="translate(-108.704 117.092)"/><path d="M307.736,28.618l-2.158,2.154a2.18,2.18,0,0,0,1.709-.45A2.16,2.16,0,0,0,307.736,28.618Z" transform="translate(-83.576 8.049)"/><path d="M307.9,147.409a3.073,3.073,0,0,0-.573.245l-.073.033c.053.1.108.2.161.3a3.611,3.611,0,0,0,.947,1.3,4.364,4.364,0,0,0,.9-.357l.216-.1c-.079-.077-.154-.157-.229-.233A7.841,7.841,0,0,0,307.9,147.409Z" transform="translate(-82.181 106.796)"/><path d="M309.394,146.534a2.16,2.16,0,0,0-.449,1.7l2.157-2.152c-.091,0-.181-.007-.267-.007A1.976,1.976,0,0,0,309.394,146.534Z" transform="translate(-80.784 105.688)"/><path d="M191.1,106.236l.1.053a1.74,1.74,0,0,0,.625.258,2.17,2.17,0,0,0,.777-.518l-1.2-.495Z" transform="translate(-178.741 71.987)"/><path d="M232.151,152.513v-.8c-.262-.007-.5-.015-.751-.033a2.024,2.024,0,0,0-1.414.176,1.144,1.144,0,0,0-.315.654h2.48Z" transform="translate(-146.676 110.321)"/><path d="M336.719,89.683a1.331,1.331,0,0,0,.291.45l.564-1.088-.42-.632A4.209,4.209,0,0,0,336.719,89.683Z" transform="translate(-57.69 57.755)"/><path d="M236.232,155.339c-.044.006-.088.007-.13.009v.859h.78l-.022.018a3.51,3.51,0,0,0,.4-.031,3.37,3.37,0,0,0,.718-.24,2.831,2.831,0,0,0-.811-.575A2.332,2.332,0,0,0,236.232,155.339Z" transform="translate(-141.33 113.368)"/><path d="M234.99,156.925l.824-.661H234.49Z" transform="translate(-142.671 114.157)"/><path d="M238.8,158.273a10.164,10.164,0,0,0-1.478,0c0,.1,0,.2,0,.293.44.068.9.1,1.419.137l.088.007-.007-.126C238.814,158.471,238.808,158.362,238.8,158.273Z" transform="translate(-140.317 115.805)"/><path d="M248.123,161.07a1.678,1.678,0,0,0,.258.619l.053.1.707-.3-.5-1.192A2.169,2.169,0,0,0,248.123,161.07Z" transform="translate(-131.34 117.507)"/><path d="M335.413,72.524h-.243l.243.243Z" transform="translate(-58.978 44.547)"/><path d="M312.809,148.183c.117.092.233.181.348.26l.013-.015-.273-.333Z" transform="translate(-77.566 107.367)"/><path d="M252.946,159.3l.24.306a2.883,2.883,0,0,0-.133-.344Z" transform="translate(-127.329 116.647)"/><path d="M277.916,13.631h-.178l.059.147Z" transform="translate(-106.72 -4.41)"/><path d="M280.77,11.248l-.119.147h.177Z" transform="translate(-104.299 -6.391)"/><path d="M240.383,20.576C239,20.7,238.028,21.649,237,22.647c-1.242,1.212-2.522,2.472-4.593,2.232v.765h.2l0,.007h.027c2.194.027,4.106.06,5.589-2.013a3.961,3.961,0,0,1,2.573-1.082c.293-.053.592-.108.87-.174a7.269,7.269,0,0,0-.322-1.925c-.035.005-.253.027-.427.051C240.766,20.532,240.59,20.556,240.383,20.576Z" transform="translate(-144.4 1.266)"/><path d="M246.119,21.337c.785-1.331,2.26-1.32,3.547-1.315,1.78-.005,2.912-.081,3.28-1.98.218-1.128,4.194-1.035,4.234-1.027a17.232,17.232,0,0,1,5.453,1.053c.227.081,1.077-.37,1.538-.613,1.031-.542,2-1.051,2.611-.52.509.443.476,1.39-.13,3.212l.027,0a2.525,2.525,0,0,0,.7,0c.119-.179.279-.419.436-.654.573-.859,1.166-1.745,2.137-1.881a3.161,3.161,0,0,1,2.375,1c.712.608.71.606,2.921-1.337l.418-.368c.507-.456,1.034-.93,1.533-.767,3.492,1.113,6.884.641,10.478.139l1.253-.172c1.476-.2,2.571-.295,3.37-.368,2.014-.179,2.181-.194,2.763-1.117a8.274,8.274,0,0,1,4.5-3.685,11.046,11.046,0,0,0,.2-1.264c.039-.3.079-.615.132-.938-.941.015-1.822.018-2.659.02a52.619,52.619,0,0,0-5.475.2c-2.448.264-4.932.61-7.333.943-2.65.37-5.389.751-8.1,1.026-.05.005-4.948.39-5.346-.954-.216-.734-.5-1.178-.855-1.32a1.732,1.732,0,0,0-1.41.33c-2.456,1.394-5.1,1.544-7.664,1.687a25.646,25.646,0,0,0-4.615.538l-.189.046-.159-.114c-1.738-1.249-2.8-.388-4.38,1.119-1.236,1.176-2.619,2.494-4.516,1.723.023.168.047.335.073.5a18.5,18.5,0,0,1,.286,3.375c-.024.533-.478.927-.919,1.306a3.907,3.907,0,0,0-.634.632c-.275.4-.822.377-1.306.353a4.388,4.388,0,0,0-.44-.007,3.046,3.046,0,0,0,.374.634A3.385,3.385,0,0,0,246.119,21.337Zm26.619-7.711c.011-.112.02-.222.026-.333a3.529,3.529,0,0,1,.172-1.007l0,0c.128-.333.493-.374.815-.41.084-.009.169-.016.238-.031l.553-.119-.157,2.121-1.714.366Z" transform="translate(-134.555 -8.595)"/><path d="M186.847,83.421c1.9-.242,2.443,1.06,2.849,2.009.419.978.635,1.4,1.577,1.117,1.187-.357,1.839-.344,2.17.04.412.476.086,1.17-.258,1.908-.075.159-.15.319-.216.476a3.8,3.8,0,0,0,.5.6,3.165,3.165,0,0,0,1.386-2.328,3.533,3.533,0,0,0-1.443-2.9A8.616,8.616,0,0,1,192,82.676l-.225-.315a1.729,1.729,0,0,1-.245-1.108l.049-.194.2-.11c1.8-.839,1.692-2.344,1.568-4.089-.125-1.771-.269-3.78,1.808-5.08a5.012,5.012,0,0,0,1.9-6.113l-.154-.46c-.212-.641-.432-1.306-.593-1.363-.231-.092-1.222.548-1.877.967a2.743,2.743,0,0,1-1.263.333l-.016,0c-.128,2.448-1.39,4.43-2.611,6.347-1.3,2.033-2.52,3.952-2.456,6.364.024.943,0,1.952-.073,3.175a4.078,4.078,0,0,1-.789,1.7,7.72,7.72,0,0,0-.421.7l.057-.006Z" transform="translate(-182.322 37.325)"/></g><g transform="translate(1432.244 4090.612)"><path class="b" d="M200.384,114.113c-.112.56-.282.854-.533.922-.365.1-.723-.314-1.07-.713a8.744,8.744,0,0,1-.616-.833,4.917,4.917,0,0,0-.991-1.181,3.1,3.1,0,0,1-.711-.89,1.835,1.835,0,0,0-1.115-1.025l-.167-.038.088-.147c.023-.039.044-.084.064-.128a.622.622,0,0,1,.239-.317.81.81,0,0,1,.27-.064.687.687,0,0,0,.164-.031,1.138,1.138,0,0,0-.12-.2q-1.364-1.831-2.744-3.65l-.927-1.228c-.062.069-.126.145-.19.221-.318.376-.509.585-.7.52a.907.907,0,0,1-.613-.561,1.689,1.689,0,0,1,.386-1.4,17.136,17.136,0,0,0-1.917-5.03l-.124-.152a1.443,1.443,0,0,1-.461-1.219c0-.038-.1-.149-.15-.208h0a.807.807,0,0,0-.076.212c-.052.335-.092.672-.132,1.01l-.09.737-.186-.284c-.084-.128-.177-.253-.271-.378a3.49,3.49,0,0,1-.544-.906,8.263,8.263,0,0,1-.322-1.48,5.462,5.462,0,0,0-.645-2.15c-.2-.326.242-1.053.334-1.195.2-.308.387-.443.566-.4s.275.253.3.634a.5.5,0,0,0,.112.2.711.711,0,0,0,.114-.145c-.068-.246-.157-.515-.244-.775-.08-.24-.163-.488-.23-.738a.775.775,0,0,1,.194-.561c.082-.129.194-.305.159-.372-.015-.026-.1-.115-.565-.121l-.2,0,.1-.18c.021-.04.04-.084.058-.128a.792.792,0,0,1,.2-.322,1.306,1.306,0,0,1,.274-.166A1.134,1.134,0,0,1,187,89.1c-.111-.082-.116-.238-.121-.39a1.207,1.207,0,0,0-.011-.158c-.025-.15-.053-.3-.083-.45a7.622,7.622,0,0,1-.146-.986,6.264,6.264,0,0,1,.017-.76,3.18,3.18,0,0,0-.065-1.177,3.077,3.077,0,0,0-.715-1.02c-.1-.11-.2-.223-.3-.338-.1.113-.2.225-.3.336a6.054,6.054,0,0,0-.864,1.1,1.552,1.552,0,0,0,.046.933l.036.16a2.28,2.28,0,0,0,.172.454,1.879,1.879,0,0,1,.206.639c.01.142.009.288.009.434,0,.642,0,1.15.868,1.238l.122.013-.011.122a1.165,1.165,0,0,0,.242.636c.26.432.583.971-.244,1.548-.19.133-.313.569-.338,1.2-.012.312-.057.63-.1.938-.145,1.03-.281,2,.669,2.84a.908.908,0,0,1,.2.633,1.133,1.133,0,0,0,.1.494,1.521,1.521,0,0,0,.455.36c.245.151.477.294.485.508.03.808.38,1.112,1.1,1.454.48.226.793.426.87.723.082.315-.109.656-.54,1.257l-.029.04c-.106.147-.388.539-.342.643.134.3.258.611.381.922a6.016,6.016,0,0,0,2.116,3.147,1.022,1.022,0,0,0,.143-.071.951.951,0,0,1,.31-.127,2.065,2.065,0,0,1,1.979.9.733.733,0,0,1-.059.874c-.661.781-.353,1.373-.026,2a2.577,2.577,0,0,1,.385,1.143,1.459,1.459,0,0,0,.464.2.9.9,0,0,1,.846-.313,1.052,1.052,0,0,1,.695.7,3.452,3.452,0,0,0,1.6,1.671,3.3,3.3,0,0,1,1.754,2.094.286.286,0,0,0,.043.019,2.159,2.159,0,0,1,2.315-.032l.063-.1c.059-.089.156-.237.142-.287a3.416,3.416,0,0,0-.578-1.183A1.364,1.364,0,0,0,200.384,114.113Zm-15.179-28.43.089-.047a1.041,1.041,0,0,1,.273-.118c.1-.022.173.061.233.135.016.019.031.038.046.053l.123.122-.155.078-.087.046a1.025,1.025,0,0,1-.275.119.159.159,0,0,1-.035,0c-.085,0-.145-.074-.2-.139-.016-.02-.031-.039-.046-.054l-.123-.122Zm.4,2.428-.548-.3.118-.118c.015-.015.03-.034.046-.053.061-.074.131-.155.233-.135a1.043,1.043,0,0,1,.273.118l.089.047.156.078Zm8.508,20.8a.706.706,0,0,0-.053.047l-.117.117-.3-.547.366-.365.077.154c.015.03.031.059.047.088a1.029,1.029,0,0,1,.118.273C194.269,108.78,194.185,108.849,194.11,108.909Z" transform="translate(-184.35 -43.261)"/><path class="b" d="M310.1,29.126a1.181,1.181,0,0,0-.068-.11.9.9,0,0,0-.1.194.993.993,0,0,0,.1.458c.447-.023.688.342.894.664.286.445.488.705,1.015.492.311-.126.927.869.933.88a5.074,5.074,0,0,1,.616,1.515c.014.066.264.206.4.281.3.167.581.325.548.561-.028.2-.266.341-.814.484l0,.008a.781.781,0,0,0,.112.173l.232,0a1.029,1.029,0,0,1,.807.225.925.925,0,0,1,.136.747c-.036.272-.036.272.8.506l.158.043c.194.052.4.106.436.256a6.764,6.764,0,0,0,1.65,2.611l.242.279c.286.333.485.587.631.772.368.469.392.506.72.5h.049a2.424,2.424,0,0,1,1.583.519,3.621,3.621,0,0,0,.344-.154c.079-.038.164-.079.253-.118-.155-.23-.3-.446-.433-.653a15.534,15.534,0,0,0-.927-1.319c-.458-.56-.94-1.117-1.407-1.654-.518-.6-1.053-1.213-1.556-1.838-.009-.011-.891-1.158-.623-1.472a.561.561,0,0,0,.188-.423c-.02-.1-.117-.2-.307-.295a4.923,4.923,0,0,1-1.646-1.621,7.592,7.592,0,0,0-.874-1.053l-.042-.039,0-.057c.03-.63-.353-.753-.979-.9-.489-.116-1.035-.246-1.151-.837l-.111.1a5.43,5.43,0,0,1-.789.613.6.6,0,0,1-.469-.017,1.1,1.1,0,0,0-.258-.055C310.257,29.388,310.176,29.249,310.1,29.126ZM316.218,35c.03-.015.06-.032.09-.048a1.041,1.041,0,0,1,.273-.117c.1-.025.172.06.232.134.016.019.031.039.046.053l.119.118-.549.3-.366-.366Z" transform="translate(-242.216 -17.883)"/><path class="b" d="M196.582,47.869c.191.139.305.243.325.368a.4.4,0,0,1-.117.3c-.026.035-.055.075-.086.122a1.308,1.308,0,0,0-.134.556c0,.035-.007.07-.011.1l.176-.042c.191-.044.481-.11.514-.195a6.165,6.165,0,0,0,.493-2.128,1.046,1.046,0,0,1,.933-1.185,1.814,1.814,0,0,0,0-.618h-.25l.142-.113a1.114,1.114,0,0,1-.224-.229l-.113-.145.176-.051c.03-.009.067-.023.1-.036.145-.054.259-.1.332,0a.658.658,0,0,1,.084.152,5.271,5.271,0,0,0,.587-.7l.015.011.031-.073.174-.244a4.425,4.425,0,0,1,1.4-1.441.6.6,0,0,1-.265-.431c-.015-.281.239-.51.489-.7.215-.161.432-.32.649-.478l.258-.189a2.373,2.373,0,0,0,.021-.384,1.27,1.27,0,0,1,.77-1.322,3.256,3.256,0,0,0,1.7-3.052l-2.135.144c.033.13.069.261.105.391a7.237,7.237,0,0,1,.26,1.212c.035.365-.008.554-.144.631-.169.1-.368-.047-.561-.188a1.328,1.328,0,0,0-.238-.15c0,.009,0,.027,0,.053a1.456,1.456,0,0,1-.762,1.084,1.3,1.3,0,0,0-.639.779c-.036.2-.39.315-.6.365-.519.123-.815.194-.879.3-.053.09,0,.292.1.627l.021.075c0,.013.311,1.337.01,1.425a1.157,1.157,0,0,0-.911.976l-.047.24-.166-.18c-.035-.037-.074-.072-.113-.107a.808.808,0,0,1-.256-.325,3.788,3.788,0,0,1-.13-.613,3.172,3.172,0,0,0-.325.559,10.216,10.216,0,0,1-1.3,2.466,1.6,1.6,0,0,0-.449,1.163C195.65,47.04,195.955,47.413,196.582,47.869Zm.544-2.552.117.116a.681.681,0,0,0,.054.046c.074.061.158.129.136.232a1.024,1.024,0,0,1-.119.275c-.016.029-.032.058-.047.087l-.077.154-.366-.364Z" transform="translate(-189.527 -21.099)"/><path class="b" d="M201.109,53.1c0-.015,0-.03-.005-.044a1.125,1.125,0,0,1-.1-.068l-.142.113Z" transform="translate(-191.957 -29.052)"/><path class="b" d="M339.7,101.01l.006.025.158-.06c0-.074,0-.152,0-.232C339.806,100.836,339.753,100.925,339.7,101.01Z" transform="translate(-255.935 -51.056)"/><path class="b" d="M338.867,88.343c.451-.04.5-.3.57-.635a1.032,1.032,0,0,1,.27-.609l-.994-1.3-.286,1.094a4.221,4.221,0,0,0-.079.441c-.018.122-.036.246-.061.362l.089-.088c.014-.015.031-.034.046-.053.061-.074.127-.156.231-.135h0a1.051,1.051,0,0,1,.273.118l.089.048.155.077-.366.366-.527-.291a.806.806,0,0,1-.287.521,2.3,2.3,0,0,1-1.091.255,5.017,5.017,0,0,0-.56.061c-.034.007-.092.076-.136.128a.9.9,0,0,1,.4.512,1.153,1.153,0,0,1-.285.859,1.035,1.035,0,0,0-.264.718,1.807,1.807,0,0,1-.426,1.932c-.1.085-.067.172.086.426.174.288.437.724-.147,1.137a.323.323,0,0,0-.154.191c-.02.118.091.272.208.435.22.307.521.729.1,1.224a.7.7,0,0,0-.208.662,1.211,1.211,0,0,0,.9.649l.068.019.042.087c.028.1-.048.178-.153.288-.061.064-.223.232-.2.291,0,0,.035.084.384.123a.976.976,0,0,0,1.084-.533c.012-.063-.158-.286-.249-.406a3.221,3.221,0,0,1-.236-.341l-.066-.113a1.332,1.332,0,0,1-.228-.561,3.425,3.425,0,0,1,.6-2.215,2.76,2.76,0,0,1-.1-.666.625.625,0,0,1,.223-.384c.039-.042.078-.084.11-.126l.155-.208.066.254c.1-1.933.054-2.179,0-2.25l-.114-.145.177-.052c.03-.009.067-.023.1-.036.145-.055.26-.1.333,0a.946.946,0,0,1,.135.306c.009.031.018.061.029.091a2.616,2.616,0,0,1,.778-.964.355.355,0,0,0-.017-.117c-.048-.133-.1-.264-.155-.395a1.063,1.063,0,0,1-.138.322c-.077.115-.243.1-.419.082a1.213,1.213,0,0,0-.162-.011l-.173,0,.053-.164a1.054,1.054,0,0,0-.007-.417.849.849,0,0,1,.079-.663A.609.609,0,0,1,338.867,88.343ZM336.689,94.6l-.078-.155c-.015-.03-.031-.059-.047-.087a1.041,1.041,0,0,1-.119-.274c-.022-.1.063-.173.137-.233.019-.016.038-.031.053-.046l.117-.116.3.546Zm.438-4.594-.366-.365.155-.077.089-.048a1.044,1.044,0,0,1,.273-.118c.1-.021.173.061.232.135.016.019.032.039.046.053l.119.118Z" transform="translate(-253.959 -44.169)"/><path class="b" d="M341.049,95.713c.015-.062.033-.123.054-.184H341.1A1.273,1.273,0,0,0,341.049,95.713Z" transform="translate(-256.555 -48.653)"/><path class="b" d="M340.729,96.366c-.068.4-.156,1.05-.264,1.942v.008c0,.118,0,.236,0,.352l.112.422-.1.039a4.122,4.122,0,0,0,.162,1.278c.048-.121.1-.245.154-.372a2.388,2.388,0,0,0,.324-1.422A5.456,5.456,0,0,1,340.729,96.366Z" transform="translate(-256.285 -49.039)"/><path class="b" d="M225.511,18.1a.52.52,0,0,1,.369.095,1.15,1.15,0,0,0,.122.059l.127.05-.112.228a2.473,2.473,0,0,1-.127.244,1.367,1.367,0,0,1-1.432.554l-.077,0a1.025,1.025,0,0,0,.34.234.982.982,0,0,0,.282.028c.241,0,.6.006.657.462.083-.031.193-.123.378-.389.146-.321.209-.447.294-.465l.453-.75-.168.526a.478.478,0,0,1,.364-.143.219.219,0,0,1,.163.163.658.658,0,0,1-.082.582,6.752,6.752,0,0,1-.686.532l-.135.1a2.569,2.569,0,0,0-.067.336,2.619,2.619,0,0,0,2.158-1.2.754.754,0,0,1-.33-.031,1.146,1.146,0,0,1-.339-.238c-.039-.036-.079-.072-.119-.1l-.171-.135.2-.078c.042-.016.083-.034.124-.052a1.405,1.405,0,0,1,.322-.111,1.793,1.793,0,0,1,.364-.012h.019v-.027l.047.01c.03-.073.065-.15.1-.227.062-.132.191-.406.157-.465-.222-.326-.283-.523-.2-.659.089-.156.3-.141.5-.126a.733.733,0,0,0,.288-.011,1.7,1.7,0,0,1,.315-.515,1.484,1.484,0,0,0,.275-.443c.067-.215.14-.367.276-.412s.267.046.426.163l.075.054c.428.307.893.582,1.343.848.143.085.287.169.43.256a1.274,1.274,0,0,0-.249-.672c-.263-.453-.59-1.016.236-1.569a1.782,1.782,0,0,0-.035-.469c-.009-.056-.017-.112-.024-.166l-.1.057c-.2.109-.4.222-.616.315-.2.086-.4.16-.6.231a4.517,4.517,0,0,0-1.05.476,5.776,5.776,0,0,0-.92.856c-.158.169-.317.339-.483.5a.678.678,0,0,1-.415.14l-.058-.007-.05-.057c-.089-.138-.173-.215-.243-.223-.1-.012-.214.105-.33.218-.184.179-.434.422-.751.263-.048.044-.131.138-.2.216a1.923,1.923,0,0,1-.808.657c-.119.025-.237.043-.354.06a1.284,1.284,0,0,0-1.047.507.871.871,0,0,0-.073.15l.146-.05C224.766,18.332,225.137,18.2,225.511,18.1Zm1.868-.471.367.365-.155.078c-.03.015-.059.031-.089.047a1.044,1.044,0,0,1-.273.118.186.186,0,0,1-.034,0c-.085,0-.145-.073-.2-.139-.016-.019-.031-.039-.046-.053l-.118-.117Z" transform="translate(-202.741 -11.154)"/><path class="b" d="M297.6,21.423a1.083,1.083,0,0,0-.39.28c-.032.03-.064.06-.1.088l.359.357a1.821,1.821,0,0,1,1.324.483c.05.038.268-.047.412-.1a1.35,1.35,0,0,1,.68-.143c1.509.3,1.56.372,2.545,2.17l.05-.05.03.161,1.259.418v-.4l.071-.034a.705.705,0,0,1,.436-.009c.122.023.238.044.3,0a.37.37,0,0,0,.1-.236c-.016-.107-.464-1.737-.545-1.958-.174-.154-.345-.314-.516-.474a9.891,9.891,0,0,0-1.264-1.056c-.266-.175-.557-.054-.891.085a1.175,1.175,0,0,1-1.272.012c-.452.84-1.112.662-1.7.5A1.747,1.747,0,0,0,297.6,21.423Zm5.907,1.311c.019-.016.038-.031.053-.046l.117-.115.3.545-.366.364-.078-.153c-.015-.029-.031-.058-.046-.087a1.034,1.034,0,0,1-.12-.274C303.351,22.863,303.436,22.795,303.51,22.734Zm-.595,1.118c.03-.009.067-.023.1-.036.145-.053.259-.1.332,0a.935.935,0,0,1,.135.3c.011.036.022.071.033.1l.02.056a2.877,2.877,0,0,1,.3.251l.018.018-.172.18a2.487,2.487,0,0,0-.46-.355,1.135,1.135,0,0,1-.124-.075l-.263-.157h.087c-.028-.032-.052-.063-.075-.092l-.113-.145Z" transform="translate(-236.311 -14.232)"/><path class="b" d="M213.671,30.018a8.488,8.488,0,0,1,.806-.6l.173-.111a2.51,2.51,0,0,1,1.119-.5,2.894,2.894,0,0,0,2.224-.958,1.6,1.6,0,0,1,1.52-.561c.1,0,.2,0,.3,0l.9-1.35-.348-.348-.188.146a4.027,4.027,0,0,1-.674.46c-.106.053-.216.1-.327.139a1.579,1.579,0,0,0-.572.314l-.008.1-.091-.022a1.644,1.644,0,0,1-.908.253c-.111-.007-.143-.108-.181-.289-.009-.042-.017-.084-.026-.116l-.033-.128.13-.025c.06-.012.12-.025.18-.039a2.621,2.621,0,0,1,.483-.079.354.354,0,0,1,.2.084l.018.013a.967.967,0,0,0-.217-.771.848.848,0,0,0-.76-.07,2.4,2.4,0,0,0-.636.3c-.1.06-.2.12-.3.173l-.168.086-.014-.188c-.016-.221-.1-.369-.226-.416a.272.272,0,0,0-.094-.016.409.409,0,0,0-.286.132,10.53,10.53,0,0,0-.84,1.042A8.2,8.2,0,0,1,213.69,28a1.453,1.453,0,0,0-.252,2.208Zm1.321-2.576c.017-.029.033-.058.045-.083.122-.245.248-.49.373-.734l.213-.417.121.121a1.209,1.209,0,0,1,.081.092.446.446,0,0,0,.124.119c.624.263.878.37.919.589s-.153.4-.574.808a.528.528,0,0,1-.32.2.2.2,0,0,1-.076-.015c-.1-.039-.169-.149-.21-.369a.618.618,0,0,1-.43.288.435.435,0,0,1-.345-.218C214.838,27.715,214.913,27.582,214.991,27.442Z" transform="translate(-197.572 -16.384)"/><path class="b" d="M292.688,15.05a.281.281,0,0,1,.3.007l.08.066-.042.108a1.578,1.578,0,0,1-.176.246l-.142.179-.075-.074c-.04.128-.073.263-.044.306a3.917,3.917,0,0,0,2.361.964,1.049,1.049,0,0,0,.765-.132,1.627,1.627,0,0,0,.272-.825c.013-.086.028-.174.044-.26a.56.56,0,0,1-.362-.055.807.807,0,0,1-.309-.572c-.058-.25-.1-.37-.217-.384a1.725,1.725,0,0,0-1.054.193c-.22.139-.373.225-.517.166s-.195-.243-.243-.459a1.6,1.6,0,0,0-.471-.714c-.172-.173-.327-.249-.445-.219s-.238.209-.309.489a.716.716,0,0,0,0,.209.88.88,0,0,1-.009.281,1.054,1.054,0,0,1-.156.322c-.024.038-.048.076-.069.115l-.1.187a3.983,3.983,0,0,0,.636-.044C292.5,15.069,292.592,14.993,292.688,15.05Z" transform="translate(-233.845 -10.894)"/><path class="b" d="M282.623,14.594c.037.028.075.06.115.094.11.093.294.241.369.232a4.113,4.113,0,0,1,.8-.074,9.432,9.432,0,0,1,1.746.216,9.855,9.855,0,0,0,1.748.219l-.093-.193c-.029-.06-.055-.122-.081-.184a1.475,1.475,0,0,0-.189-.358,1.452,1.452,0,0,0-.307-.26l-.063-.045-.391.484-.211-.529-.063,0a1.408,1.408,0,0,1-.362-.013,1.345,1.345,0,0,1-.4-.191c-.149-.091-.319-.193-.4-.151-.051.025-.145.133-.193.567a.363.363,0,0,1-.327.317.769.769,0,0,1-.778-.484,1.606,1.606,0,0,0-.3-.4l-.062-.067c-.008.014-.017.028-.026.042-.1.164-.2.333-.365.352-.4.048-.432.12-.434.123S282.342,14.373,282.623,14.594Z" transform="translate(-229.506 -10.984)"/><path class="b" d="M329.981,54.315c-.065-.012-.162.065-.268.146l-.1.075c-.5.359-.338.586-.093.929a1.565,1.565,0,0,1,.245.438l.03-.01v.127a3.976,3.976,0,0,1,.995,2.85h0v.037c0,.035,0,.067,0,.1.1.135.2.266.3.4a6.354,6.354,0,0,1,.671,1.016c.4.813.8,1.342,1.578,1.466a.806.806,0,0,0,.572-.091.608.608,0,0,0,.071-.506,8.4,8.4,0,0,0-.361-.762,5.992,5.992,0,0,1-.485-1.127,10.4,10.4,0,0,0-1.9-3.371c-.369-.5-.752-1.012-1.082-1.548C330.083,54.383,330.025,54.323,329.981,54.315Zm1.125,3.38c.03-.015.059-.031.089-.047a1.038,1.038,0,0,1,.275-.118c.1-.024.171.061.232.135a.692.692,0,0,0,.046.053l.124.122-.156.078c-.029.015-.058.031-.087.047a1.029,1.029,0,0,1-.276.119.145.145,0,0,1-.033,0c-.085,0-.144-.073-.2-.139a.678.678,0,0,0-.046-.054l-.122-.122Z" transform="translate(-251.134 -29.662)"/><path class="b" d="M330.339,118.563c-.091-.209-.229-.525-.3-.544h-.008a1.278,1.278,0,0,0-.361.237l-.113.087a1.477,1.477,0,0,0-.539,1.806,1.4,1.4,0,0,1-.391,1.539c-.316.406-.59.757-.287,1.257l.031.05-.021.064a.51.51,0,0,1-.242.231l-.113.043a2.5,2.5,0,0,1-.615.173,1.041,1.041,0,0,0-.828.472.93.93,0,0,0-.043.8,1.125,1.125,0,0,0,.221-.064c.01-.05.018-.1.026-.152.037-.237.071-.459.249-.508.146-.04.306.064.538.346.182.221.306.156.568-.014a.748.748,0,0,1,1.026-.024l.013.011a2.306,2.306,0,0,0,.011-.24,1.193,1.193,0,0,1,.085-.544c.182-.311.343-.562.5-.789a3.331,3.331,0,0,0,.444-1.959,3.87,3.87,0,0,1,.4-1.981l0,0A.817.817,0,0,1,330.339,118.563Z" transform="translate(-249.824 -59.016)"/><path class="b" d="M266.511,160.59a.477.477,0,0,0-.154-.012,1.044,1.044,0,0,1-.327.74,1.232,1.232,0,0,1-.992.1,1.615,1.615,0,0,0-.629-.025,2.527,2.527,0,0,1-.929.019,1.385,1.385,0,0,0-1.338.325l-.108.119-.089-.134c-.038-.059-.074-.121-.11-.183a1.305,1.305,0,0,0-.255-.352.5.5,0,0,0-.24-.023H261.3c0,.031,0,.063.005.094a1.627,1.627,0,0,1-.029.553c-.059.2-.253.525-.483.561a.771.771,0,0,1-.711-.345,13.384,13.384,0,0,1-.44-1.467l-.081-.313c-.106-.4-.316-.37-.634-.326a1.62,1.62,0,0,1-.374.021c-.02.058-.041.118-.064.178-.049.134-.132.359-.094.416.129.193.248.4.363.607.5.876.967,1.7,2.266,1.391l1.29-.093c1.306-.092,2.657-.187,3.984-.3a1.259,1.259,0,0,0,.69-.215A1.111,1.111,0,0,0,266.511,160.59Z" transform="translate(-218.465 -78.314)"/><path class="b" d="M336.249,71a1.334,1.334,0,0,0-.351.459l-.026.047a.705.705,0,0,1,.3.033,1.119,1.119,0,0,1,.339.238c.039.036.079.071.12.1l.171.136-.2.078c-.042.016-.083.034-.124.052a1.384,1.384,0,0,1-.322.11,1.722,1.722,0,0,1-.365.012h-.019v.026c.751.326.832.559.592,1.516-.007.027-.015.056-.019.077.713.625.412,1.225.146,1.755a4.273,4.273,0,0,0-.206.452.885.885,0,0,0,.4,1.122,2.983,2.983,0,0,0,.484.242,1.247,1.247,0,0,0,.332-.63,1.815,1.815,0,0,0-.422-1.455.665.665,0,0,1-.117-.642A1.438,1.438,0,0,1,338.021,74a1.24,1.24,0,0,0,.294-.092.994.994,0,0,0-.018-.174l-.01-.064a4.169,4.169,0,0,0-.778-1.679,6.637,6.637,0,0,1-.63-1.111A1.349,1.349,0,0,0,336.249,71Z" transform="translate(-254.12 -37.294)"/><path class="b" d="M334.7,110.739c-.141-.1-.283-.206-.423-.313l-.083.033-.112.045a3.662,3.662,0,0,1-.942,2.907l.014.009a.716.716,0,0,0,.28.127.688.688,0,0,0,.368-.153.8.8,0,0,1,.608-.178.718.718,0,0,1,.416.368.591.591,0,0,0,.3-.04,3.8,3.8,0,0,0,.688-1.914A10.967,10.967,0,0,0,334.7,110.739Z" transform="translate(-252.912 -55.518)"/><path class="b" d="M219.74,145.447h0c-.105-.045-.212-.085-.317-.124-.365-.134-.71-.261-.83-.575a1.072,1.072,0,0,1,.146-.865,2.165,2.165,0,0,0-.608-.486.59.59,0,0,0-.471.16c-.092.125-.015.268.12.491a.868.868,0,0,1,.188.655.7.7,0,0,1-.356.4.433.433,0,0,0,.016.113c.01.032.02.067.03.1.023.085.059.212.1.239.64.4,1.3.793,2,1.209l.546.325,0-.008a3.277,3.277,0,0,1,.062-.375A1.053,1.053,0,0,0,219.74,145.447Z" transform="translate(-199.677 -70.706)"/><path class="b" d="M323.546,132.716c-.109-.09-.222-.181-.319-.27l-.025.028a.61.61,0,0,0-.124.169c.145,1.189.05,1.621-.862,2.181a.551.551,0,0,0-.281.61,1.78,1.78,0,0,1,0,.25l.524.422-.532.211v.23l.381-.147-.225.224a.328.328,0,0,0,.146-.015c1.2-.609,1.494-1.793,1.782-2.94.032-.129.065-.258.1-.385C324.121,133.187,323.747,132.881,323.546,132.716Z" transform="translate(-247.742 -65.664)"/><path class="b" d="M283.215,159.966a4.276,4.276,0,0,1-2.533.489,9.814,9.814,0,0,0-1.016.017,1.5,1.5,0,0,0-.7.455.782.782,0,0,0,.02.267c.506.148,1.021.273,1.614.417l.461.113.42-.219c.624-.326,1.33-.694,2.011-1.076a.633.633,0,0,0-.048-.3A.534.534,0,0,0,283.215,159.966Z" transform="translate(-227.945 -78.345)"/><path class="b" d="M231.5,153.8l-.187-.139c-.5-.37-1.016-.753-1.535-1.112a.5.5,0,0,0-.215,0,.989.989,0,0,0,.1.225,1.319,1.319,0,0,0,.205.22c.036.034.073.067.107.1l.132.133-.174.07c-.061.025-.133.061-.2.1-.224.114-.4.206-.519.107a5.507,5.507,0,0,1-.678-.715c-.064-.077-.128-.152-.193-.227h-.076v0h-.023a2.076,2.076,0,0,0-.314.005c-.211.026-.421.062-.63.1l-.09.015.05.088c.087.16.178.325.284.366.824.318,1.679.6,2.506.878l.733.245a.577.577,0,0,1,.174-.337A.725.725,0,0,1,231.5,153.8Z" transform="translate(-204.098 -74.922)"/><path class="b" d="M253.106,159.988l-.014,0a6.208,6.208,0,0,0-1.022.158c-.037.4-.1.661-.3.726-.172.057-.368-.06-.675-.407-.038-.044-.077-.091-.115-.139a1.1,1.1,0,0,0-.328-.315,3.817,3.817,0,0,0-.529,1.55.413.413,0,0,0,.148-.048.72.72,0,0,1,.429-.242.249.249,0,0,1,.094.018c.18.071.216.314.228.518a.421.421,0,0,0,.158.334.574.574,0,0,0,.03-.124c.084-.672.424-.726.754-.779a1.875,1.875,0,0,0,.3-.065,2.527,2.527,0,0,0,.81-.562c.089-.079.176-.158.265-.231-.05-.081-.092-.156-.129-.221S253.132,160.024,253.106,159.988Z" transform="translate(-214.658 -78.355)"/><path class="b" d="M304.79,151.413l-.011.119c-.015.155-.175.214-.3.26a.735.735,0,0,0-.144.064,1.619,1.619,0,0,0,.161.147.424.424,0,0,0,.329.058,2.377,2.377,0,0,0,1.53-2.137.906.906,0,0,0-.329-.083C304.927,149.836,304.872,150.564,304.79,151.413Z" transform="translate(-239.636 -73.679)"/><path class="b" d="M291.277,156.427c-.026.026-.057.06-.08.088a4.676,4.676,0,0,1-1.941,1.23c-.164.068-.327.136-.488.21a.609.609,0,0,0-.046.3.294.294,0,0,0,.035.1c.224-.043.445-.08.663-.116a7.747,7.747,0,0,0,1.52-.352c.559-.214.578-.837.5-1.323C291.428,156.53,291.331,156.463,291.277,156.427Z" transform="translate(-232.442 -76.714)"/><path class="b" d="M242.5,157.848a14.132,14.132,0,0,0-1.822-.543c-.191-.048-.382-.1-.571-.146a.386.386,0,0,0-.281,0v0h-.013l-.007,0c-.052.045-.067.169-.043.347a.908.908,0,0,0,.058.262,1.1,1.1,0,0,0,.314-.079.69.69,0,0,1,.222-.034,3.605,3.605,0,0,1,1.919,1.056.909.909,0,0,0,.559.163c.006-.01.068-.09.118-.155.037-.047.078-.1.125-.155-.047-.069-.094-.143-.14-.219A1.2,1.2,0,0,0,242.5,157.848Z" transform="translate(-209.88 -77.04)"/><path class="b" d="M246.207,157.28l.039,0c0-.056-.006-.109-.009-.159a.908.908,0,0,0-.024-.215c-.052-.033-.114-.078-.176-.122a2.762,2.762,0,0,0-.962-.518,4.828,4.828,0,0,0-1.167-.041c-.127.005-.254.011-.38.014.08.322.286.3.6.263a.9.9,0,0,1,.67.094,7.364,7.364,0,0,0,1.17.681A.515.515,0,0,0,246.207,157.28Z" transform="translate(-211.619 -76.613)"/><path class="b" d="M302.225,152.025a7.614,7.614,0,0,0-.538.725c.037.049.116.133.181.2s.117.124.178.192l.8-.76-.5-.5Z" transform="translate(-238.417 -74.62)"/><path class="b" d="M299.331,155.378c-.06,0-.174.117-.249.195l-.016.016c.126.17.492.6.661.785.153-.186.313-.386.534-.659l.136-.17-.308-.059A4.129,4.129,0,0,0,299.331,155.378Z" transform="translate(-237.21 -76.231)"/><path class="b" d="M312.59,144.53a4.889,4.889,0,0,1-.366.439,2.509,2.509,0,0,1-.354.282l-.077.054.032.081h-.051c0,.073,0,.147,0,.22a.6.6,0,0,0,.051.415.414.414,0,0,0,.272.1l.891-.889-.369-.736Z" transform="translate(-243.058 -71.218)"/><path class="b" d="M315.79,144.6a.568.568,0,0,0-.181-.065,11.472,11.472,0,0,0-1.039.809,1.84,1.84,0,0,0,.144.282.42.42,0,0,0,.051.019c.326-.219.645-.446.919-.642l.138-.1c-.011-.088-.017-.16-.022-.215C315.8,144.658,315.793,144.623,315.79,144.6Z" transform="translate(-244.354 -71.235)"/><path class="b" d="M289.706,13.537l.346-.528-.913-.118.226.646Z" transform="translate(-232.635 -10.575)"/><path class="b" d="M217.771,140.957a.272.272,0,0,0,.291.066.365.365,0,0,0,.235-.3.59.59,0,0,1-.369-.18.78.78,0,0,1-.113-.6c0-.049.008-.1.009-.143a.591.591,0,0,0-.338.343A1.026,1.026,0,0,0,217.771,140.957Z" transform="translate(-199.61 -69.056)"/><path class="b" d="M316.617,140.984l-.019.076-.077.016c-.225.048-.452.094-.678.14-.7.143-1.425.29-2.12.488a2.1,2.1,0,0,0-.057.423c0,.052-.008.1-.013.154.184-.049.382-.114.575-.179.622-.206,1.211-.4,1.559-.16.305.212.528.3.661.255s.207-.24.284-.449a2.428,2.428,0,0,1,.152-.357l.02-.027.75-.747c-.086-.007-.172-.022-.257-.036C317,140.512,316.743,140.468,316.617,140.984Z" transform="translate(-243.932 -69.393)"/><path class="b" d="M197.3,120.329a.584.584,0,1,0,.664.116A.775.775,0,0,0,197.3,120.329Z" transform="translate(-190.307 -60.072)"/><path class="b" d="M333.024,69.176a2.011,2.011,0,0,0,.194.451l.045.086.331-.138-.471-.554A.59.59,0,0,0,333.024,69.176Z" transform="translate(-252.857 -36.439)"/><path class="b" d="M223.3,150.577a.607.607,0,0,0,.417.052c.073-.005.147-.011.221-.01v-.654l-.739.368A.39.39,0,0,0,223.3,150.577Z" transform="translate(-202.25 -73.737)"/><path class="b" d="M275.351,159.943a1.1,1.1,0,0,0,.377.163.878.878,0,0,0,.375-.07l-.311-.242Z" transform="translate(-226.282 -78.266)"/><path class="b" d="M306.214,28.618l-.635.634a.516.516,0,0,0,.635-.634Z" transform="translate(-240.211 -17.822)"/><path class="b" d="M307.447,147.409a.906.906,0,0,0-.169.072l-.022.01.047.087a1.063,1.063,0,0,0,.279.383,1.284,1.284,0,0,0,.264-.105l.064-.029-.067-.068A2.309,2.309,0,0,0,307.447,147.409Z" transform="translate(-240.984 -72.559)"/><path class="b" d="M309.072,146.211a.636.636,0,0,0-.132.5l.635-.634-.079,0A.582.582,0,0,0,309.072,146.211Z" transform="translate(-241.758 -71.945)"/><path class="b" d="M191.1,105.741l.029.016a.512.512,0,0,0,.184.076.639.639,0,0,0,.229-.153l-.352-.146Z" transform="translate(-187.459 -53.263)"/><path class="b" d="M230.4,151.9v-.235c-.077,0-.148,0-.221-.01a.6.6,0,0,0-.416.052.337.337,0,0,0-.093.193h.73Z" transform="translate(-205.233 -74.513)"/><path class="b" d="M336.719,88.788a.392.392,0,0,0,.086.133l.166-.32-.124-.186A1.239,1.239,0,0,0,336.719,88.788Z" transform="translate(-254.56 -45.375)"/><path class="b" d="M236.14,155.322l-.038,0v.253h.23l-.006.005a1.033,1.033,0,0,0,.118-.009.993.993,0,0,0,.211-.071.835.835,0,0,0-.239-.169A.687.687,0,0,0,236.14,155.322Z" transform="translate(-208.197 -76.201)"/><path class="b" d="M234.637,156.459l.243-.195h-.39Z" transform="translate(-207.454 -76.639)"/><path class="b" d="M237.757,158.255a2.993,2.993,0,0,0-.435,0c0,.029,0,.059,0,.086.129.02.265.03.418.04l.026,0,0-.037C237.761,158.313,237.759,158.281,237.757,158.255Z" transform="translate(-208.758 -77.553)"/><path class="b" d="M248.121,160.523a.5.5,0,0,0,.076.182l.016.029.208-.089-.147-.351A.639.639,0,0,0,248.121,160.523Z" transform="translate(-213.735 -78.496)"/><path class="b" d="M335.242,72.524h-.072l.072.072Z" transform="translate(-253.846 -38.053)"/><path class="b" d="M312.809,148.121c.035.027.069.053.1.077l0,0-.08-.1Z" transform="translate(-243.542 -72.875)"/><path class="b" d="M252.946,159.27l.071.09a.849.849,0,0,0-.039-.1Z" transform="translate(-215.958 -78.019)"/><path class="b" d="M277.79,13.631h-.053l.018.043Z" transform="translate(-227.382 -10.916)"/><path class="b" d="M280.685,11.248l-.035.043h.052Z" transform="translate(-228.724 -9.818)"/><path class="b" d="M234.758,20.494a1.707,1.707,0,0,0-1,.61,1.626,1.626,0,0,1-1.352.657v.225h.06v0h.008c.646.008,1.209.018,1.646-.593a1.166,1.166,0,0,1,.758-.319c.086-.016.174-.032.256-.051a2.14,2.14,0,0,0-.095-.567l-.126.015C234.87,20.481,234.819,20.488,234.758,20.494Z" transform="translate(-206.496 -14.062)"/><path class="b" d="M244.8,12.347c.231-.392.665-.389,1.044-.387.524,0,.857-.024.966-.583.064-.332,1.235-.3,1.247-.3a5.074,5.074,0,0,1,1.606.31c.067.024.317-.109.453-.181.3-.16.589-.31.769-.153.15.13.14.409-.038.946h.008a.743.743,0,0,0,.206,0l.128-.192c.169-.253.343-.514.629-.554a.931.931,0,0,1,.7.293c.21.179.209.178.86-.394l.123-.108c.149-.134.3-.274.451-.226a6.757,6.757,0,0,0,3.085.041l.369-.051c.435-.058.757-.087.992-.108.593-.053.642-.057.814-.329a2.436,2.436,0,0,1,1.324-1.085,3.259,3.259,0,0,0,.058-.372c.011-.087.023-.181.039-.276-.277,0-.537.005-.783.006a15.494,15.494,0,0,0-1.612.058c-.721.078-1.452.18-2.159.278-.78.109-1.587.221-2.384.3-.015,0-1.457.115-1.574-.281-.064-.216-.148-.347-.252-.389a.51.51,0,0,0-.415.1,4.925,4.925,0,0,1-2.257.5,7.551,7.551,0,0,0-1.359.159l-.056.013-.047-.033c-.512-.368-.823-.114-1.29.329-.364.346-.771.734-1.33.507.007.05.014.1.021.148a5.445,5.445,0,0,1,.084.994c-.007.157-.141.273-.271.384a1.151,1.151,0,0,0-.187.186c-.081.119-.242.111-.384.1a1.291,1.291,0,0,0-.129,0,.9.9,0,0,0,.11.187A1,1,0,0,0,244.8,12.347Zm7.838-2.271c0-.033.006-.065.008-.1a1.04,1.04,0,0,1,.051-.3h0c.038-.1.145-.11.24-.121.025,0,.05,0,.07-.009l.163-.035-.046.624-.5.108Z" transform="translate(-211.953 -8.595)"/><path class="b" d="M186.807,69.6c.559-.071.719.312.839.592s.187.413.464.329c.349-.105.541-.1.639.012.121.14.025.345-.076.562-.022.047-.044.094-.064.14a1.119,1.119,0,0,0,.148.177.932.932,0,0,0,.408-.685,1.04,1.04,0,0,0-.425-.854,2.538,2.538,0,0,1-.417-.492l-.066-.093a.509.509,0,0,1-.072-.326l.015-.057.058-.032c.53-.247.5-.69.462-1.2a1.4,1.4,0,0,1,.532-1.5,1.476,1.476,0,0,0,.559-1.8l-.045-.135c-.062-.189-.127-.384-.175-.4-.068-.027-.36.161-.553.285a.808.808,0,0,1-.372.1h0a3.878,3.878,0,0,1-.769,1.869,3.325,3.325,0,0,0-.723,1.874c.007.278,0,.575-.022.935a1.2,1.2,0,0,1-.232.5,2.272,2.272,0,0,0-.124.2l.017,0Z" transform="translate(-185.474 -34.05)"/></g></g></svg>