<svg xmlns="http://www.w3.org/2000/svg" width="424.499" height="487.256" viewBox="0 0 424.499 487.256"><defs><style>.a{fill:#161616;font-size:20px;font-family:LexendExa-Regular, Lexend Exa;}.b{stroke:#000;}</style></defs><g transform="translate(-1391.342 -4437.681)"><g transform="translate(1.769 -317.703)"><text class="a" transform="translate(1440 5078.267)"><tspan x="47.24" y="20">Chronic pain </tspan></text><g transform="translate(1390.034 4914.388)"><path class="b" d="M246.7,201.594c-.434,2.179-1.1,3.321-2.072,3.585-1.417.392-2.81-1.22-4.162-2.774a34,34,0,0,1-2.395-3.239,19.118,19.118,0,0,0-3.852-4.594,12.061,12.061,0,0,1-2.766-3.46c-1.092-1.786-2.126-3.472-4.336-3.984l-.65-.149.344-.57c.09-.153.17-.327.25-.5a2.419,2.419,0,0,1,.931-1.231,3.147,3.147,0,0,1,1.048-.247,2.671,2.671,0,0,0,.638-.122,4.421,4.421,0,0,0-.466-.759q-5.3-7.121-10.67-14.193l-3.6-4.776c-.239.266-.488.562-.74.858-1.237,1.464-1.979,2.275-2.7,2.021a3.528,3.528,0,0,1-2.384-2.183c-.465-1.411.04-3.237,1.5-5.43-.413-3.925-4.98-16.417-7.454-19.558-.159-.2-.321-.4-.48-.589-1.05-1.281-2.139-2.6-1.793-4.739,0-.149-.377-.579-.583-.809l0,0a3.136,3.136,0,0,0-.3.824c-.2,1.3-.358,2.615-.513,3.927l-.35,2.866-.723-1.105c-.327-.5-.69-.983-1.052-1.47a13.565,13.565,0,0,1-2.114-3.525,32.125,32.125,0,0,1-1.252-5.755c-.436-2.841-.887-5.779-2.508-8.362-.795-1.266.941-4.093,1.3-4.646.772-1.2,1.5-1.721,2.2-1.543s1.07.983,1.168,2.464a1.935,1.935,0,0,0,.436.79,2.767,2.767,0,0,0,.443-.562c-.264-.956-.612-2-.948-3.013-.313-.933-.633-1.9-.9-2.868a3.013,3.013,0,0,1,.753-2.181c.319-.5.755-1.187.617-1.447-.057-.1-.382-.447-2.2-.472l-.795-.011.375-.7c.082-.157.155-.327.226-.5a3.081,3.081,0,0,1,.795-1.252,5.076,5.076,0,0,1,1.065-.644,4.41,4.41,0,0,1-1.377-.619c-.432-.319-.453-.927-.472-1.518a4.691,4.691,0,0,0-.042-.614c-.1-.583-.208-1.166-.321-1.749a29.631,29.631,0,0,1-.566-3.835,24.354,24.354,0,0,1,.065-2.956,12.365,12.365,0,0,0-.252-4.575,11.961,11.961,0,0,0-2.78-3.965c-.39-.428-.791-.866-1.166-1.313-.386.438-.784.874-1.18,1.306a23.539,23.539,0,0,0-3.361,4.271c-.461.826-.122,2.317.18,3.629l.14.621a8.873,8.873,0,0,0,.667,1.765,7.3,7.3,0,0,1,.8,2.485c.038.553.036,1.122.034,1.686-.01,2.5-.019,4.47,3.374,4.814l.476.05-.044.476a4.531,4.531,0,0,0,.941,2.472c1.011,1.682,2.269,3.776-.948,6.02-.738.518-1.218,2.214-1.315,4.652-.048,1.212-.222,2.451-.39,3.648-.562,4-1.093,7.789,2.6,11.043a3.532,3.532,0,0,1,.765,2.462,4.408,4.408,0,0,0,.4,1.923,5.916,5.916,0,0,0,1.768,1.4c.954.589,1.856,1.145,1.887,1.975.115,3.141,1.476,4.326,4.3,5.655,1.866.879,3.082,1.656,3.382,2.81.319,1.224-.423,2.552-2.1,4.889l-.111.155c-.413.572-1.51,2.095-1.329,2.5.522,1.174,1,2.378,1.48,3.583,1.824,4.592,3.709,9.339,8.227,12.239a3.977,3.977,0,0,0,.558-.275,3.7,3.7,0,0,1,1.2-.495,8.029,8.029,0,0,1,7.7,3.483,2.85,2.85,0,0,1-.229,3.4c-2.571,3.038-1.371,5.338-.1,7.777a10.02,10.02,0,0,1,1.5,4.443,5.671,5.671,0,0,0,1.8.79,3.5,3.5,0,0,1,3.292-1.218,4.089,4.089,0,0,1,2.7,2.722c1.032,3.053,3.55,4.726,6.217,6.5,2.98,1.981,6.059,4.03,6.819,8.141a1.112,1.112,0,0,0,.168.076c3.34-2.273,6.523-1.336,9-.124.078-.124.161-.249.246-.377.228-.346.608-.923.551-1.115a13.284,13.284,0,0,0-2.246-4.6A5.3,5.3,0,0,0,246.7,201.594ZM187.675,91.047c.115-.059.231-.122.346-.185a4.049,4.049,0,0,1,1.061-.459c.394-.084.671.239.906.526.061.076.122.149.178.208l.478.474-.6.3c-.113.057-.227.117-.338.18a3.988,3.988,0,0,1-1.071.461.618.618,0,0,1-.134.017c-.329,0-.562-.287-.772-.541-.061-.077-.122-.151-.178-.21l-.478-.474Zm1.545,9.439-2.13-1.174.459-.457c.057-.059.117-.132.178-.208.237-.289.509-.6.906-.526a4.058,4.058,0,0,1,1.061.459c.117.063.231.126.346.185l.606.3ZM222.3,181.36a2.748,2.748,0,0,0-.208.182l-.455.455-1.179-2.126,1.424-1.417.3.6c.057.115.122.229.185.344a4,4,0,0,1,.459,1.061C222.919,180.857,222.592,181.126,222.3,181.36Z" transform="translate(-184.35 73.91)"/><path class="b" d="M310.6,30.2a4.641,4.641,0,0,0-.266-.428,3.5,3.5,0,0,0-.376.755,3.86,3.86,0,0,0,.392,1.782c1.736-.09,2.673,1.331,3.477,2.583,1.111,1.73,1.9,2.742,3.948,1.914,1.208-.491,3.606,3.38,3.629,3.422a19.727,19.727,0,0,1,2.395,5.892c.053.258,1.025.8,1.548,1.092,1.161.65,2.26,1.262,2.13,2.181-.107.767-1.036,1.327-3.164,1.883l.015.029a3.032,3.032,0,0,0,.434.673c.245,0,.574,0,.9.008,1.181.015,2.4.029,3.137.876a3.6,3.6,0,0,1,.529,2.9c-.139,1.059-.139,1.059,3.1,1.967l.614.168c.755.2,1.537.413,1.7,1,1.109,4.047,3.688,7.011,6.416,10.152l.939,1.086c1.112,1.294,1.887,2.281,2.455,3,1.432,1.822,1.524,1.969,2.8,1.956.065,0,.128,0,.19,0a9.426,9.426,0,0,1,6.154,2.017,14.09,14.09,0,0,0,1.336-.6c.308-.149.639-.308.984-.459-.6-.893-1.157-1.736-1.682-2.539a60.412,60.412,0,0,0-3.606-5.131c-1.78-2.178-3.656-4.342-5.472-6.433-2.013-2.317-4.093-4.715-6.051-7.148-.036-.044-3.464-4.5-2.422-5.724a2.183,2.183,0,0,0,.732-1.646c-.078-.4-.457-.765-1.195-1.147-2.87-1.487-4.667-3.936-6.4-6.3a29.519,29.519,0,0,0-3.4-4.093l-.164-.153.009-.222c.115-2.449-1.373-2.929-3.808-3.51-1.9-.451-4.025-.958-4.474-3.256-.143.126-.29.254-.432.382a21.113,21.113,0,0,1-3.068,2.384,2.35,2.35,0,0,1-1.824-.065,4.262,4.262,0,0,0-1-.214C311.2,31.224,310.88,30.683,310.6,30.2Zm23.773,22.841c.118-.059.233-.124.348-.187a4.051,4.051,0,0,1,1.063-.455c.4-.1.667.235.9.522.061.075.122.151.178.208l.461.457-2.135,1.176-1.424-1.422Z" transform="translate(-46.625 13.51)"/><path class="b" d="M199.461,82.931c.742.539,1.187.946,1.262,1.43a1.549,1.549,0,0,1-.455,1.159c-.1.136-.214.291-.333.476a5.085,5.085,0,0,0-.52,2.164c-.015.134-.027.27-.042.4.224-.057.457-.109.683-.161.744-.17,1.87-.428,2-.757a23.972,23.972,0,0,0,1.917-8.276c.038-2.734.99-3.952,3.629-4.609a7.055,7.055,0,0,0,.015-2.4h-.973l.552-.438a4.333,4.333,0,0,1-.87-.891l-.438-.564.684-.2c.117-.034.26-.088.4-.14.562-.21,1.009-.375,1.29-.008a2.561,2.561,0,0,1,.327.591,20.5,20.5,0,0,0,2.283-2.7l.059.042.119-.285.677-.948c1.486-2.1,3.017-4.258,5.441-5.6a2.339,2.339,0,0,1-1.032-1.675c-.059-1.092.929-1.983,1.9-2.711.837-.625,1.681-1.243,2.524-1.86l1-.736a9.218,9.218,0,0,0,.082-1.493c0-1.69.007-3.436,2.992-5.141,3.728-2.126,7.158-6.59,6.615-11.867l-8.3.56c.13.507.27,1.015.409,1.52a28.142,28.142,0,0,1,1.011,4.711c.136,1.419-.031,2.153-.56,2.455-.659.382-1.432-.185-2.181-.73a5.164,5.164,0,0,0-.927-.585c0,.036-.01.1-.019.208-.143,2.158-1.642,3.252-2.965,4.216-1.149.839-2.235,1.629-2.485,3.028-.141.786-1.518,1.227-2.326,1.419-2.017.48-3.17.753-3.417,1.172-.206.348.013,1.134.377,2.438l.08.291c.015.05,1.21,5.2.038,5.542a4.5,4.5,0,0,0-3.543,3.8l-.185.935-.646-.7c-.134-.145-.287-.281-.441-.417a3.14,3.14,0,0,1-1-1.264,14.733,14.733,0,0,1-.505-2.384,12.335,12.335,0,0,0-1.264,2.172,39.724,39.724,0,0,1-5.04,9.588c-1.378,1.791-1.933,3.227-1.744,4.521C195.836,79.708,197.02,81.159,199.461,82.931Zm2.114-9.924.455.453a2.655,2.655,0,0,0,.21.178c.289.237.616.5.528.9a3.983,3.983,0,0,1-.463,1.069c-.061.113-.126.226-.182.34l-.3.6L200.4,75.133Z" transform="translate(-172.028 21.163)"/><path class="b" d="M201.832,53.429c-.009-.057-.011-.115-.021-.172a4.38,4.38,0,0,1-.4-.266l-.552.438Z" transform="translate(-166.245 40.093)"/><path class="b" d="M339.7,101.783l.023.1.616-.235c0-.287-.01-.589-.012-.9C340.106,101.1,339.9,101.45,339.7,101.783Z" transform="translate(-13.974 92.463)"/><path class="b" d="M348.84,95.7c1.753-.155,1.958-1.176,2.218-2.468a4.012,4.012,0,0,1,1.051-2.367L348.243,85.8l-1.111,4.254a16.408,16.408,0,0,0-.308,1.715c-.069.476-.138.956-.235,1.409l.345-.342c.056-.057.119-.132.18-.208.235-.287.492-.608.9-.524h0a4.086,4.086,0,0,1,1.063.457c.114.065.229.128.344.187l.6.3-1.421,1.422-2.051-1.13a3.133,3.133,0,0,1-1.117,2.025,8.94,8.94,0,0,1-4.242.99,19.491,19.491,0,0,0-2.176.239c-.132.027-.359.3-.53.5a3.481,3.481,0,0,1,1.562,1.992c.281,1.2-.426,2.287-1.109,3.342-.629.973-1.227,1.893-1.026,2.791.422,1.9,1.13,5.078-1.656,7.512-.377.331-.262.669.333,1.656.675,1.12,1.7,2.814-.573,4.42a1.257,1.257,0,0,0-.6.744c-.078.459.352,1.057.807,1.69.856,1.2,2.026,2.833.392,4.76a2.736,2.736,0,0,0-.807,2.575c.33,1.076,1.6,2,3.494,2.524l.266.076.161.337c.107.388-.188.694-.6,1.12-.237.247-.866.9-.786,1.13.006.015.135.327,1.495.478,2.015.2,3.514-.514,4.214-2.074.046-.243-.614-1.111-.967-1.579a12.532,12.532,0,0,1-.916-1.325l-.257-.44a5.179,5.179,0,0,1-.887-2.183c-.158-2.187-.089-4.346,2.34-8.611a10.741,10.741,0,0,1-.386-2.589,2.432,2.432,0,0,1,.866-1.495c.151-.164.3-.327.428-.491l.6-.809.256.988c.4-7.515.212-8.473,0-8.748l-.445-.562.688-.2c.117-.034.26-.088.4-.141.562-.214,1.011-.375,1.294,0a3.676,3.676,0,0,1,.526,1.191c.036.12.072.239.111.354a10.172,10.172,0,0,1,3.023-3.747,1.381,1.381,0,0,0-.065-.455c-.187-.516-.392-1.025-.6-1.535a4.134,4.134,0,0,1-.535,1.254c-.3.447-.945.384-1.629.319a4.719,4.719,0,0,0-.629-.042l-.673.006.206-.639a4.1,4.1,0,0,0-.026-1.623,3.3,3.3,0,0,1,.306-2.577A2.369,2.369,0,0,1,348.84,95.7Zm-8.47,24.347-.3-.6c-.057-.115-.119-.228-.182-.34a4.049,4.049,0,0,1-.464-1.067c-.086-.4.243-.673.533-.906.074-.061.149-.122.207-.178l.453-.451,1.178,2.124Zm1.7-17.862-1.424-1.419.6-.3c.115-.059.231-.122.346-.187a4.066,4.066,0,0,1,1.063-.457c.4-.08.671.237.9.524.063.076.124.151.18.208l.461.459Z" transform="translate(-18.678 76.072)"/><path class="b" d="M341.049,96.246c.059-.241.13-.48.212-.717h-.021A4.937,4.937,0,0,0,341.049,96.246Z" transform="translate(-12.499 86.745)"/><path class="b" d="M341.5,96.366c-.264,1.562-.608,4.084-1.025,7.55l0,.031c0,.457,0,.918,0,1.367l.434,1.642-.4.151a16.023,16.023,0,0,0,.629,4.971c.185-.472.39-.954.6-1.445.849-1.986,1.725-4.04,1.261-5.529C342.066,102.184,341.133,99.2,341.5,96.366Z" transform="translate(-13.14 87.663)"/><path class="b" d="M229.123,29.524a2.023,2.023,0,0,1,1.436.369,4.47,4.47,0,0,0,.474.231l.493.2-.434.885a9.6,9.6,0,0,1-.495.95c-1.443,2.338-3.632,2.243-5.567,2.155l-.3-.013a3.983,3.983,0,0,0,1.321.91,3.819,3.819,0,0,0,1.1.109c.937.01,2.315.025,2.554,1.8.323-.122.751-.48,1.47-1.514.566-1.25.813-1.738,1.145-1.807l1.761-2.914-.654,2.044a1.858,1.858,0,0,1,1.415-.558.853.853,0,0,1,.636.635,2.56,2.56,0,0,1-.319,2.264,26.242,26.242,0,0,1-2.667,2.067l-.526.373a10,10,0,0,0-.262,1.306c3.336-.581,6.676-1.325,8.391-4.678a2.93,2.93,0,0,1-1.283-.122,4.457,4.457,0,0,1-1.317-.925c-.153-.14-.306-.279-.463-.4l-.665-.526.79-.3c.162-.063.321-.132.48-.2a5.464,5.464,0,0,1,1.254-.43,6.974,6.974,0,0,1,1.415-.046l.075,0v-.1l.183.04c.117-.283.254-.583.394-.883.241-.512.742-1.579.612-1.807-.862-1.266-1.1-2.034-.795-2.562.348-.608,1.153-.547,1.937-.491a2.849,2.849,0,0,0,1.122-.044,6.613,6.613,0,0,1,1.227-2,5.766,5.766,0,0,0,1.069-1.721c.262-.837.545-1.428,1.072-1.6.545-.178,1.037.178,1.658.635l.292.212c1.665,1.193,3.472,2.262,5.223,3.3.558.329,1.115.658,1.671.994a4.955,4.955,0,0,0-.969-2.615c-1.023-1.761-2.294-3.952.916-6.1a6.926,6.926,0,0,0-.136-1.824c-.033-.218-.065-.436-.092-.646l-.4.22c-.769.426-1.568.864-2.394,1.227-.765.335-1.566.621-2.34.9a17.563,17.563,0,0,0-4.084,1.851,22.462,22.462,0,0,0-3.577,3.327c-.615.658-1.231,1.319-1.879,1.935a2.637,2.637,0,0,1-1.612.545l-.227-.027-.193-.22c-.346-.537-.673-.837-.943-.868-.38-.046-.833.409-1.283.847-.717.7-1.686,1.64-2.919,1.023-.189.172-.509.535-.778.839-.912,1.036-2.048,2.325-3.143,2.554-.461.1-.923.166-1.376.233-1.663.245-3.1.457-4.07,1.971a3.393,3.393,0,0,0-.283.583c.187-.065.375-.13.566-.193C226.223,30.413,227.668,29.916,229.123,29.524Zm7.265-1.832,1.426,1.419-.6.3c-.117.057-.231.119-.348.184a4.059,4.059,0,0,1-1.063.457.723.723,0,0,1-.132.013c-.329,0-.562-.283-.772-.539-.061-.073-.122-.151-.178-.208l-.459-.455Z" transform="translate(-140.58 -2.505)"/><path class="b" d="M299.006,23.14a4.21,4.21,0,0,0-1.518,1.09c-.124.115-.247.233-.371.344l1.394,1.39c2.068-.233,3.556.719,5.148,1.879.195.147,1.042-.182,1.6-.4a5.248,5.248,0,0,1,2.646-.556c5.867,1.153,6.064,1.445,9.895,8.439l.193-.195.115.625,4.9,1.627V35.817l.277-.132a2.742,2.742,0,0,1,1.7-.036c.474.09.925.172,1.164,0a1.441,1.441,0,0,0,.374-.918c-.061-.415-1.806-6.753-2.118-7.615-.677-.6-1.342-1.22-2.007-1.843a38.445,38.445,0,0,0-4.914-4.107c-1.036-.681-2.164-.212-3.466.329-1.533.635-3.25,1.348-4.946.046-1.757,3.265-4.323,2.573-6.6,1.96A6.793,6.793,0,0,0,299.006,23.14Zm22.969,5.1c.073-.061.149-.122.205-.178l.455-.449,1.178,2.12-1.424,1.415-.3-.6c-.057-.113-.12-.226-.18-.34a4.014,4.014,0,0,1-.466-1.067C321.357,28.741,321.687,28.474,321.976,28.239Zm-2.313,4.346c.118-.034.26-.088.4-.14.562-.208,1.007-.377,1.292-.008a3.642,3.642,0,0,1,.524,1.185c.042.138.084.275.13.407l.078.218a11.2,11.2,0,0,1,1.174.975l.071.069-.669.7a9.669,9.669,0,0,0-1.789-1.38,4.415,4.415,0,0,1-.484-.291l-1.021-.61h.339c-.109-.124-.2-.243-.292-.359l-.44-.562Z" transform="translate(-60.679 4.82)"/><path class="b" d="M215.483,43.073a33,33,0,0,1,3.132-2.348l.671-.432a9.759,9.759,0,0,1,4.351-1.942c2.847-.2,6.4-.8,8.647-3.726,1.744-2.273,3.862-2.22,5.911-2.181.386.008.771.017,1.161.01l3.51-5.25-1.355-1.352c-.245.187-.486.375-.729.566a15.657,15.657,0,0,1-2.619,1.791c-.411.205-.841.373-1.27.539a6.139,6.139,0,0,0-2.225,1.222l-.031.392-.352-.084a6.392,6.392,0,0,1-3.531.985c-.43-.027-.558-.419-.7-1.124-.035-.164-.067-.325-.1-.451l-.13-.5.505-.1c.233-.046.465-.1.7-.153a10.193,10.193,0,0,1,1.877-.306,1.378,1.378,0,0,1,.784.325l.071.05c.036-1.478-.245-2.482-.843-3s-1.562-.6-2.956-.273a9.321,9.321,0,0,0-2.472,1.164c-.392.233-.786.465-1.185.671l-.652.333-.055-.73c-.061-.86-.373-1.434-.879-1.617a1.058,1.058,0,0,0-.365-.063,1.591,1.591,0,0,0-1.114.514,40.956,40.956,0,0,0-3.266,4.051,31.879,31.879,0,0,1-4.414,5.158c-3.432,3-2.933,5.628-.979,8.586C214.882,43.563,215.181,43.318,215.483,43.073Zm5.135-10.016c.065-.113.128-.224.176-.323.476-.954.962-1.9,1.449-2.854l.828-1.623.47.472a4.7,4.7,0,0,1,.317.356,1.734,1.734,0,0,0,.482.461c2.426,1.023,3.414,1.44,3.573,2.29.155.828-.593,1.554-2.231,3.141-.386.375-.788.765-1.243.765a.8.8,0,0,1-.3-.057c-.4-.153-.658-.581-.818-1.434a2.4,2.4,0,0,1-1.673,1.12,1.692,1.692,0,0,1-1.34-.849C220.023,34.118,220.312,33.6,220.618,33.057Z" transform="translate(-152.883 9.942)"/><path class="b" d="M295.353,19.286a1.093,1.093,0,0,1,1.176.027l.31.256-.161.419a6.14,6.14,0,0,1-.686.958l-.551.7-.292-.289c-.157.5-.285,1.023-.172,1.191,1.071,1.61,5.62,3.468,9.179,3.749,1.476.113,2.564-.071,2.973-.514a6.328,6.328,0,0,0,1.057-3.208c.052-.335.109-.675.172-1.013a2.177,2.177,0,0,1-1.407-.214,3.14,3.14,0,0,1-1.2-2.225c-.227-.973-.382-1.438-.843-1.495a6.707,6.707,0,0,0-4.1.751c-.854.541-1.451.874-2.01.644s-.757-.946-.944-1.784a6.228,6.228,0,0,0-1.831-2.776c-.667-.673-1.271-.967-1.73-.853-.5.136-.927.811-1.2,1.9a2.784,2.784,0,0,0-.019.811,3.42,3.42,0,0,1-.036,1.092,4.1,4.1,0,0,1-.606,1.254c-.092.149-.185.3-.268.447l-.4.725a15.485,15.485,0,0,0,2.475-.17C294.621,19.362,294.979,19.068,295.353,19.286Z" transform="translate(-66.548 -3.126)"/><path class="b" d="M283.417,16.95c.142.109.291.235.447.365.428.361,1.143.937,1.436.9a16,16,0,0,1,3.1-.287,36.679,36.679,0,0,1,6.791.841,38.32,38.32,0,0,0,6.8.853l-.361-.749c-.113-.233-.214-.474-.314-.715a5.74,5.74,0,0,0-.736-1.392,5.647,5.647,0,0,0-1.195-1.013c-.084-.059-.166-.115-.246-.174l-1.522,1.881-.822-2.057-.243.013a5.476,5.476,0,0,1-1.407-.05,5.229,5.229,0,0,1-1.568-.742c-.579-.352-1.24-.749-1.568-.587-.2.1-.564.516-.749,2.2a1.412,1.412,0,0,1-1.271,1.233,2.991,2.991,0,0,1-3.023-1.883A6.244,6.244,0,0,0,285.8,14.04c-.082-.088-.161-.174-.241-.262-.031.055-.065.109-.1.161-.39.637-.792,1.294-1.421,1.369-1.542.187-1.68.465-1.686.478S282.323,16.091,283.417,16.95Z" transform="translate(-76.876 -2.912)"/><path class="b" d="M331.989,54.318c-.254-.046-.629.254-1.042.568l-.394.291c-1.942,1.4-1.312,2.279-.36,3.613a6.083,6.083,0,0,1,.952,1.7l.117-.04v.495c2.631,2.854,3.892,6.491,3.868,11.081l0,0v.145c0,.134.006.26,0,.4.371.524.759,1.036,1.149,1.549a24.714,24.714,0,0,1,2.608,3.952c1.537,3.162,3.1,5.219,6.135,5.7a3.134,3.134,0,0,0,2.225-.354,2.365,2.365,0,0,0,.277-1.967,32.648,32.648,0,0,0-1.405-2.965,23.311,23.311,0,0,1-1.887-4.382c-1.382-5.017-4.441-9.131-7.4-13.109-1.436-1.933-2.923-3.933-4.208-6.02C332.388,54.585,332.161,54.35,331.989,54.318Zm4.376,13.142c.118-.059.231-.122.344-.185a4.032,4.032,0,0,1,1.069-.459c.407-.092.667.239.9.524a2.668,2.668,0,0,0,.178.208l.482.476-.606.3c-.113.057-.227.12-.34.182a4,4,0,0,1-1.074.461.561.561,0,0,1-.13.015c-.329,0-.562-.285-.772-.539a2.662,2.662,0,0,0-.18-.21l-.476-.476Z" transform="translate(-25.399 41.544)"/><path class="b" d="M341.6,120.136c-.354-.814-.891-2.042-1.166-2.114l-.03,0a4.969,4.969,0,0,0-1.4.921l-.44.337a5.744,5.744,0,0,0-2.095,7.024c1.144,2.56-.273,4.378-1.522,5.984-1.23,1.577-2.294,2.942-1.118,4.888l.12.195-.08.25a1.984,1.984,0,0,1-.942.9l-.438.166a9.712,9.712,0,0,1-2.39.673,4.047,4.047,0,0,0-3.218,1.835,3.615,3.615,0,0,0-.166,3.1,4.375,4.375,0,0,0,.86-.249c.038-.193.069-.392.1-.591.142-.92.277-1.786.969-1.977.566-.157,1.188.249,2.092,1.346.707.857,1.189.606,2.21-.055.994-.648,2.356-1.524,3.99-.094l.05.044a8.924,8.924,0,0,0,.044-.935,4.64,4.64,0,0,1,.331-2.114c.709-1.21,1.332-2.185,1.956-3.068,1.6-2.252,1.661-4.858,1.728-7.617.059-2.6.122-5.29,1.562-7.7l-.015-.012A3.175,3.175,0,0,1,341.6,120.136Z" transform="translate(-28.518 111.408)"/><path class="b" d="M289.978,162.587a1.855,1.855,0,0,0-.6-.048,4.057,4.057,0,0,1-1.273,2.879c-1.057.843-2.483.616-3.858.394a6.281,6.281,0,0,0-2.445-.1,9.826,9.826,0,0,1-3.612.076c-1.91-.2-3.715-.39-5.2,1.262l-.42.463-.346-.522c-.149-.228-.289-.47-.428-.711a5.076,5.076,0,0,0-.991-1.367,1.956,1.956,0,0,0-.933-.088l-.151,0c.008.121.015.243.021.365a6.326,6.326,0,0,1-.114,2.149c-.228.8-.983,2.042-1.876,2.181a3,3,0,0,1-2.766-1.34,52.056,52.056,0,0,1-1.711-5.705l-.316-1.216c-.411-1.548-1.229-1.438-2.466-1.269a6.3,6.3,0,0,1-1.455.082c-.076.224-.159.459-.247.694-.191.522-.512,1.4-.365,1.619.5.75.964,1.568,1.411,2.361,1.929,3.407,3.761,6.624,8.812,5.407l5.018-.363c5.078-.357,10.33-.725,15.49-1.159a4.9,4.9,0,0,0,2.684-.835A4.321,4.321,0,0,0,289.978,162.587Z" transform="translate(-103.154 157.34)"/><path class="b" d="M337.646,71.339a5.189,5.189,0,0,0-1.365,1.784c-.034.063-.067.124-.1.184a2.743,2.743,0,0,1,1.157.13,4.351,4.351,0,0,1,1.317.925c.153.138.306.277.466.4l.665.528-.793.3c-.162.063-.321.132-.48.2a5.384,5.384,0,0,1-1.254.428,6.7,6.7,0,0,1-1.417.046l-.073,0v.1c2.921,1.267,3.235,2.174,2.3,5.9-.027.1-.057.216-.074.3,2.774,2.43,1.6,4.764.568,6.825a16.611,16.611,0,0,0-.8,1.757,3.44,3.44,0,0,0,1.552,4.363,11.6,11.6,0,0,0,1.883.939A4.849,4.849,0,0,0,342.487,94c.331-1.923-.159-3.613-1.639-5.657a2.588,2.588,0,0,1-.455-2.5c.453-1.245,1.962-2.275,4.145-2.826a4.817,4.817,0,0,0,1.145-.359,3.871,3.871,0,0,0-.072-.677l-.037-.249c-.354-2.462-1.652-4.437-3.024-6.529a25.813,25.813,0,0,1-2.449-4.319A5.244,5.244,0,0,0,337.646,71.339Z" transform="translate(-18.293 59.71)"/><path class="b" d="M339.21,111.642c-.549-.4-1.1-.8-1.644-1.216-.1.042-.216.086-.325.128-.13.05-.309.12-.436.174.293,4.7-.906,8.406-3.663,11.305l.056.033a2.783,2.783,0,0,0,1.088.493,2.674,2.674,0,0,0,1.432-.593,3.1,3.1,0,0,1,2.363-.692,2.793,2.793,0,0,1,1.619,1.432,2.3,2.3,0,0,0,1.162-.155c.979-.6,3.133-6.586,2.675-7.443A42.663,42.663,0,0,0,339.21,111.642Z" transform="translate(-21.17 103.082)"/><path class="b" d="M225.886,151.4h0c-.409-.176-.826-.329-1.233-.482-1.42-.522-2.762-1.015-3.227-2.235a4.169,4.169,0,0,1,.566-3.363,8.415,8.415,0,0,0-2.363-1.889,2.294,2.294,0,0,0-1.831.621c-.358.487-.056,1.042.468,1.91A3.377,3.377,0,0,1,219,148.5a2.7,2.7,0,0,1-1.384,1.558,1.68,1.68,0,0,0,.063.438c.04.126.077.26.115.4.09.329.228.826.392.929,2.487,1.553,5.063,3.082,7.792,4.7l2.124,1.262.006-.031a12.737,12.737,0,0,1,.241-1.457A4.094,4.094,0,0,0,225.886,151.4Z" transform="translate(-147.872 139.231)"/><path class="b" d="M328.234,133.5c-.426-.35-.862-.7-1.241-1.05l-.1.107a2.374,2.374,0,0,0-.482.658c.564,4.625.193,6.3-3.35,8.481a2.144,2.144,0,0,0-1.092,2.373,6.908,6.908,0,0,1-.014.973l2.036,1.64-2.07.822v.9l1.483-.572-.874.872a1.278,1.278,0,0,0,.566-.059c4.648-2.367,5.808-6.974,6.929-11.431.126-.5.254-1,.382-1.5C330.471,135.327,329.016,134.136,328.234,133.5Z" transform="translate(-33.474 127.232)"/><path class="b" d="M295.5,159.966c-3.147,2.017-6.55,1.956-9.85,1.9a38.179,38.179,0,0,0-3.952.065c-.908.078-1.956,1.055-2.721,1.768a3.037,3.037,0,0,0,.078,1.038c1.969.577,3.969,1.063,6.275,1.623l1.793.438,1.633-.853c2.426-1.266,5.173-2.7,7.819-4.183a2.459,2.459,0,0,0-.187-1.18A2.076,2.076,0,0,0,295.5,159.966Z" transform="translate(-80.591 157.413)"/><path class="b" d="M243.9,157.449l-.728-.539c-1.944-1.438-3.952-2.927-5.969-4.326a1.945,1.945,0,0,0-.836,0,3.845,3.845,0,0,0,.388.876,5.126,5.126,0,0,0,.8.855c.141.132.283.262.417.4l.514.518-.677.273c-.239.1-.516.237-.79.379-.872.444-1.554.8-2.017.415a21.423,21.423,0,0,1-2.638-2.78c-.249-.3-.5-.591-.75-.883h-.294v-.01l-.09,0a8.074,8.074,0,0,0-1.22.021c-.82.1-1.635.241-2.451.381l-.348.059c.065.113.128.229.193.344.34.621.692,1.262,1.1,1.422,3.206,1.235,6.529,2.344,9.743,3.414l2.849.954a2.243,2.243,0,0,1,.675-1.311A2.821,2.821,0,0,1,243.9,157.449Z" transform="translate(-137.35 149.266)"/><path class="b" d="M261.719,159.988l-.055.006a24.134,24.134,0,0,0-3.975.614c-.145,1.556-.4,2.57-1.16,2.822-.671.22-1.43-.235-2.623-1.581-.149-.17-.3-.352-.446-.539a4.289,4.289,0,0,0-1.275-1.227c-.725.66-2.128,4.843-2.059,6.028a1.608,1.608,0,0,0,.575-.186,2.8,2.8,0,0,1,1.667-.942.969.969,0,0,1,.365.069c.7.277.841,1.222.885,2.015a1.636,1.636,0,0,0,.614,1.3,2.24,2.24,0,0,0,.115-.482c.327-2.612,1.65-2.824,2.931-3.028a7.291,7.291,0,0,0,1.162-.254,9.825,9.825,0,0,0,3.151-2.186c.346-.308.686-.614,1.031-.9-.193-.314-.356-.606-.5-.86S261.82,160.127,261.719,159.988Z" transform="translate(-112.216 157.437)"/><path class="b" d="M306.114,155.956l-.044.461c-.059.6-.681.832-1.178,1.013a2.857,2.857,0,0,0-.56.249,6.309,6.309,0,0,0,.627.57,1.649,1.649,0,0,0,1.279.224c3.439-1.287,5.334-3.933,5.949-8.311a3.521,3.521,0,0,0-1.281-.323C306.647,149.825,306.431,152.656,306.114,155.956Z" transform="translate(-52.766 146.308)"/><path class="b" d="M298.669,156.427c-.1.1-.22.233-.312.344-2.042,2.474-4.841,3.646-7.548,4.783-.638.266-1.272.531-1.9.816a2.37,2.37,0,0,0-.179,1.159,1.143,1.143,0,0,0,.136.388c.87-.168,1.732-.311,2.579-.451a30.127,30.127,0,0,0,5.911-1.369c2.172-.83,2.247-3.256,1.931-5.143C299.256,156.828,298.878,156.568,298.669,156.427Z" transform="translate(-69.889 153.532)"/><path class="b" d="M250.437,159.913a54.965,54.965,0,0,0-7.085-2.112c-.742-.186-1.485-.373-2.222-.566a1.5,1.5,0,0,0-1.095-.006l0,.013h-.05l-.025.006c-.2.176-.26.656-.166,1.348a3.529,3.529,0,0,0,.225,1.019,4.265,4.265,0,0,0,1.22-.308,2.683,2.683,0,0,1,.862-.132c2.292,0,5.594,2.327,7.462,4.107a3.535,3.535,0,0,0,2.172.633c.025-.04.266-.35.459-.6.144-.184.3-.39.484-.6-.185-.268-.365-.558-.545-.851A4.672,4.672,0,0,0,250.437,159.913Z" transform="translate(-123.589 154.306)"/><path class="b" d="M253.944,160.382c.05,0,.1-.01.151-.017-.017-.216-.025-.426-.034-.616a3.532,3.532,0,0,0-.094-.837c-.2-.13-.445-.3-.686-.474a10.741,10.741,0,0,0-3.739-2.013,18.772,18.772,0,0,0-4.537-.159c-.495.021-.987.044-1.478.055.312,1.252,1.113,1.164,2.333,1.021a3.513,3.513,0,0,1,2.606.365,28.64,28.64,0,0,0,4.55,2.646A2,2,0,0,0,253.944,160.382Z" transform="translate(-119.45 153.29)"/><path class="b" d="M303.777,152.438a29.6,29.6,0,0,0-2.09,2.818c.145.189.451.518.7.79.216.228.453.482.692.749l3.092-2.956-1.954-1.956C304.075,152.067,303.926,152.253,303.777,152.438Z" transform="translate(-55.667 148.547)"/><path class="b" d="M300.1,155.378c-.233,0-.675.455-.969.757l-.063.063c.489.663,1.912,2.353,2.569,3.051.6-.724,1.218-1.5,2.076-2.562l.53-.663c-.434-.08-.832-.157-1.2-.231A16.064,16.064,0,0,0,300.1,155.378Z" transform="translate(-58.541 152.381)"/><path class="b" d="M314.99,144.615a19.005,19.005,0,0,1-1.424,1.707,9.758,9.758,0,0,1-1.378,1.1c-.1.069-.2.138-.3.21l.124.314h-.2c0,.285,0,.573-.019.856a2.335,2.335,0,0,0,.2,1.612,1.609,1.609,0,0,0,1.057.4l3.464-3.455-1.436-2.86C315.051,144.538,315.022,144.578,314.99,144.615Z" transform="translate(-44.621 140.451)"/><path class="b" d="M319.313,144.788a2.211,2.211,0,0,0-.7-.252,44.6,44.6,0,0,0-4.041,3.147,7.148,7.148,0,0,0,.56,1.1,1.628,1.628,0,0,0,.2.073c1.266-.851,2.507-1.734,3.574-2.5l.535-.379c-.044-.344-.067-.621-.086-.834C319.338,145.01,319.327,144.876,319.313,144.788Z" transform="translate(-41.538 140.491)"/><path class="b" d="M291.346,15.4l1.344-2.052-3.551-.459.878,2.51Z" transform="translate(-69.428 -3.884)"/><path class="b" d="M218.646,144.279a1.059,1.059,0,0,0,1.132.258,1.419,1.419,0,0,0,.912-1.149,2.293,2.293,0,0,1-1.434-.7,3.032,3.032,0,0,1-.44-2.323c.015-.191.03-.377.036-.558a2.3,2.3,0,0,0-1.314,1.336C217.237,142.166,217.975,143.413,218.646,144.279Z" transform="translate(-148.03 135.304)"/><path class="b" d="M325.174,142.271l-.074.3-.3.061c-.876.186-1.757.367-2.635.543-2.724.556-5.542,1.128-8.242,1.9a8.163,8.163,0,0,0-.221,1.643c-.015.2-.033.4-.05.6.715-.191,1.487-.444,2.235-.7,2.42-.8,4.707-1.562,6.062-.623,1.187.826,2.053,1.153,2.57.992s.806-.935,1.1-1.747a9.449,9.449,0,0,1,.591-1.388l.079-.107,2.915-2.906c-.334-.029-.667-.086-1-.14C326.681,140.432,325.664,140.262,325.174,142.271Z" transform="translate(-42.543 136.107)"/><path class="b" d="M197.352,120.382a2.273,2.273,0,0,0,3.028,3.019,2.978,2.978,0,0,0-.447-2.568A3.014,3.014,0,0,0,197.352,120.382Z" transform="translate(-170.173 113.923)"/><path class="b" d="M333.024,69.623a7.817,7.817,0,0,0,.755,1.753l.176.336,1.285-.537-1.831-2.153A2.292,2.292,0,0,0,333.024,69.623Z" transform="translate(-21.3 57.673)"/><path class="b" d="M223.588,152.345a2.362,2.362,0,0,0,1.621.2c.283-.021.57-.042.859-.04v-2.543L223.2,151.4A1.516,1.516,0,0,0,223.588,152.345Z" transform="translate(-141.748 146.445)"/><path class="b" d="M275.351,160.373a4.279,4.279,0,0,0,1.468.635,3.412,3.412,0,0,0,1.457-.272l-1.21-.941Z" transform="translate(-84.549 157.224)"/><path class="b" d="M308.049,28.618l-2.47,2.466a2.5,2.5,0,0,0,1.956-.516A2.474,2.474,0,0,0,308.049,28.618Z" transform="translate(-51.398 13.363)"/><path class="b" d="M308,147.409a3.517,3.517,0,0,0-.656.281l-.084.038c.061.113.123.226.185.34a4.134,4.134,0,0,0,1.084,1.491,5,5,0,0,0,1.026-.409c.081-.036.166-.073.247-.111-.09-.088-.176-.18-.262-.266A8.981,8.981,0,0,0,308,147.409Z" transform="translate(-49.558 143.642)"/><path class="b" d="M309.461,146.6a2.472,2.472,0,0,0-.514,1.948l2.47-2.464c-.1,0-.207-.008-.306-.008A2.262,2.262,0,0,0,309.461,146.6Z" transform="translate(-47.715 142.18)"/><path class="b" d="M191.1,106.337l.111.061a1.991,1.991,0,0,0,.715.3,2.485,2.485,0,0,0,.889-.593l-1.369-.566Z" transform="translate(-176.95 97.717)"/><path class="b" d="M232.51,152.638v-.912c-.3-.008-.577-.017-.86-.038a2.318,2.318,0,0,0-1.619.2,1.31,1.31,0,0,0-.361.749h2.839Z" transform="translate(-134.647 148.292)"/><path class="b" d="M336.719,89.867a1.522,1.522,0,0,0,.334.516l.646-1.245-.48-.723A4.817,4.817,0,0,0,336.719,89.867Z" transform="translate(-17.247 78.942)"/><path class="b" d="M236.251,155.343c-.05.006-.1.008-.149.011v.983H237l-.025.021a4.018,4.018,0,0,0,.459-.036,3.86,3.86,0,0,0,.822-.275,3.242,3.242,0,0,0-.929-.658A2.671,2.671,0,0,0,236.251,155.343Z" transform="translate(-127.594 152.311)"/><path class="b" d="M235.063,157.021l.943-.757H234.49Z" transform="translate(-129.362 153.353)"/><path class="b" d="M239.017,158.277a11.635,11.635,0,0,0-1.692,0c0,.111,0,.231,0,.335.5.078,1.032.115,1.625.157l.1.008-.008-.145C239.03,158.5,239.024,158.379,239.017,158.277Z" transform="translate(-126.257 155.527)"/><path class="b" d="M248.124,161.183a1.921,1.921,0,0,0,.3.709l.061.113.809-.346-.572-1.365A2.482,2.482,0,0,0,248.124,161.183Z" transform="translate(-114.413 157.773)"/><path class="b" d="M335.449,72.524h-.279l.279.278Z" transform="translate(-18.946 61.515)"/><path class="b" d="M312.809,148.2c.134.1.266.208.4.3l.015-.017-.312-.382Z" transform="translate(-43.469 144.394)"/><path class="b" d="M252.946,159.3l.275.35a3.308,3.308,0,0,0-.153-.394Z" transform="translate(-109.121 156.638)"/><path class="b" d="M277.942,13.631h-.2l.068.168Z" transform="translate(-81.932 -3.073)"/><path class="b" d="M280.787,11.248l-.137.168h.2Z" transform="translate(-78.738 -5.687)"/><path class="b" d="M241.539,20.593c-1.59.147-2.7,1.229-3.871,2.371-1.422,1.388-2.887,2.831-5.258,2.556V26.4h.233l0,.008h.031c2.512.031,4.7.069,6.4-2.3.577-.8,1.78-1.025,2.946-1.239.335-.061.677-.124,1-.2a8.32,8.32,0,0,0-.369-2.2c-.04.006-.289.031-.488.059C241.977,20.543,241.776,20.57,241.539,20.593Z" transform="translate(-131.643 4.415)"/><path class="b" d="M246.389,23.183c.9-1.524,2.588-1.512,4.061-1.505,2.038-.006,3.334-.092,3.755-2.267.249-1.292,4.8-1.185,4.848-1.176a19.729,19.729,0,0,1,6.244,1.206c.26.092,1.233-.424,1.761-.7,1.18-.621,2.289-1.2,2.99-.6.583.507.545,1.591-.149,3.678l.031,0a2.891,2.891,0,0,0,.8,0c.137-.205.319-.48.5-.749.656-.983,1.336-2,2.447-2.153a3.62,3.62,0,0,1,2.719,1.141c.816.7.813.694,3.344-1.531l.478-.421c.581-.522,1.184-1.065,1.755-.879,4,1.275,7.882.734,12,.159l1.434-.2c1.69-.226,2.944-.338,3.858-.421,2.306-.205,2.5-.222,3.164-1.279a9.474,9.474,0,0,1,5.148-4.219,12.668,12.668,0,0,0,.226-1.447c.044-.34.09-.7.151-1.074-1.078.017-2.086.021-3.044.023a60.245,60.245,0,0,0-6.269.226c-2.8.3-5.647.7-8.4,1.08-3.034.424-6.17.86-9.269,1.174-.057.006-5.665.447-6.12-1.092-.247-.841-.576-1.348-.979-1.512a1.983,1.983,0,0,0-1.614.377c-2.812,1.6-5.842,1.768-8.775,1.931a29.362,29.362,0,0,0-5.284.616l-.216.052-.182-.13c-1.99-1.43-3.2-.444-5.015,1.281-1.415,1.346-3,2.856-5.17,1.973.027.193.054.384.083.577a21.177,21.177,0,0,1,.327,3.864c-.028.61-.547,1.061-1.053,1.495a4.473,4.473,0,0,0-.726.723c-.314.463-.941.432-1.495.4a5.024,5.024,0,0,0-.5-.008,3.488,3.488,0,0,0,.428.725A3.876,3.876,0,0,0,246.389,23.183Zm30.478-8.829c.013-.128.023-.254.029-.382a4.043,4.043,0,0,1,.2-1.153l0,0c.147-.382.564-.428.933-.47.1-.01.193-.019.272-.036l.633-.136-.18,2.428-1.962.419Z" transform="translate(-118.655 -8.595)"/><path class="b" d="M186.855,86.26c2.172-.277,2.8,1.214,3.262,2.3.48,1.12.728,1.606,1.805,1.279,1.359-.409,2.105-.394,2.484.046.472.545.1,1.34-.3,2.185-.086.183-.172.365-.247.545a4.352,4.352,0,0,0,.577.688,3.624,3.624,0,0,0,1.587-2.665,4.045,4.045,0,0,0-1.652-3.319,9.865,9.865,0,0,1-1.623-1.912l-.258-.361a1.98,1.98,0,0,1-.281-1.269l.057-.222.224-.126c2.059-.96,1.937-2.684,1.8-4.682-.143-2.028-.308-4.328,2.069-5.816a5.738,5.738,0,0,0,2.172-7l-.176-.526c-.243-.734-.495-1.495-.679-1.56-.264-.1-1.4.627-2.149,1.107a3.141,3.141,0,0,1-1.447.382l-.019,0c-.147,2.8-1.591,5.072-2.99,7.267-1.485,2.327-2.885,4.525-2.812,7.286.027,1.08,0,2.235-.084,3.636a4.67,4.67,0,0,1-.9,1.944,8.848,8.848,0,0,0-.482.8l.065-.006Z" transform="translate(-181.675 51.987)"/></g></g><g transform="translate(1.769 -317.703)"><text class="a" transform="translate(1564.619 4859.654)"><tspan x="93.84" y="20">PTSD</tspan></text><g transform="translate(1564.381 4755.88)"><path class="b" d="M230.912,171.776c-.324,1.627-.819,2.48-1.547,2.678-1.059.293-2.1-.911-3.108-2.072a25.383,25.383,0,0,1-1.788-2.419,14.279,14.279,0,0,0-2.876-3.431,9.006,9.006,0,0,1-2.065-2.584c-.816-1.334-1.588-2.593-3.238-2.975l-.485-.111.257-.426c.067-.114.127-.244.186-.373a1.807,1.807,0,0,1,.7-.919,2.35,2.35,0,0,1,.783-.185,2,2,0,0,0,.476-.091,3.3,3.3,0,0,0-.348-.567q-3.96-5.318-7.969-10.6l-2.692-3.567c-.179.2-.365.42-.553.641-.924,1.093-1.478,1.7-2.018,1.509a2.635,2.635,0,0,1-1.78-1.63c-.348-1.054.03-2.418,1.12-4.056-.308-2.931-3.719-12.26-5.566-14.606-.119-.149-.24-.3-.359-.44a4.192,4.192,0,0,1-1.339-3.539c0-.111-.282-.432-.435-.6l0,0a2.341,2.341,0,0,0-.221.615c-.152.974-.268,1.953-.383,2.933l-.262,2.14-.54-.825c-.244-.371-.515-.734-.786-1.1a10.132,10.132,0,0,1-1.579-2.632,23.993,23.993,0,0,1-.935-4.3A15.862,15.862,0,0,0,189.68,112c-.593-.946.7-3.057.969-3.47.576-.9,1.123-1.286,1.643-1.152s.8.734.872,1.84a1.445,1.445,0,0,0,.326.59,2.067,2.067,0,0,0,.33-.42c-.2-.714-.457-1.5-.708-2.25-.233-.7-.473-1.417-.669-2.142a2.25,2.25,0,0,1,.562-1.628c.238-.374.564-.886.46-1.08-.042-.077-.285-.334-1.639-.352l-.593-.008.28-.523c.061-.118.116-.244.169-.371a2.3,2.3,0,0,1,.593-.935,3.79,3.79,0,0,1,.8-.481,3.293,3.293,0,0,1-1.029-.462c-.323-.238-.338-.692-.352-1.134a3.5,3.5,0,0,0-.031-.459c-.072-.435-.155-.871-.24-1.306A22.132,22.132,0,0,1,191,93.392a18.191,18.191,0,0,1,.049-2.208,9.235,9.235,0,0,0-.188-3.417,8.933,8.933,0,0,0-2.076-2.961c-.291-.32-.59-.647-.871-.98-.288.327-.586.653-.882.976a17.579,17.579,0,0,0-2.51,3.19,4.505,4.505,0,0,0,.135,2.71l.1.464a6.626,6.626,0,0,0,.5,1.318,5.454,5.454,0,0,1,.6,1.856c.028.413.027.838.025,1.259-.008,1.865-.014,3.338,2.52,3.6l.355.038-.033.355a3.384,3.384,0,0,0,.7,1.846c.755,1.256,1.694,2.82-.708,4.5-.551.387-.91,1.653-.982,3.475-.036.9-.166,1.831-.291,2.725-.42,2.991-.816,5.817,1.941,8.247a2.638,2.638,0,0,1,.572,1.838,3.292,3.292,0,0,0,.3,1.436,4.418,4.418,0,0,0,1.32,1.045c.713.44,1.386.855,1.409,1.475.086,2.346,1.1,3.23,3.208,4.223,1.394.656,2.3,1.237,2.526,2.1.238.914-.316,1.906-1.569,3.652l-.083.116c-.309.427-1.128,1.564-.993,1.868.39.877.748,1.776,1.105,2.676,1.362,3.429,2.77,6.974,6.144,9.14a2.969,2.969,0,0,0,.417-.205,2.763,2.763,0,0,1,.9-.37,6,6,0,0,1,5.747,2.6,2.129,2.129,0,0,1-.171,2.538c-1.92,2.269-1.024,3.987-.075,5.808a7.483,7.483,0,0,1,1.118,3.318,4.235,4.235,0,0,0,1.347.59,2.612,2.612,0,0,1,2.458-.91,3.054,3.054,0,0,1,2.017,2.033c.77,2.28,2.651,3.529,4.643,4.853,2.225,1.48,4.525,3.009,5.092,6.08a.828.828,0,0,0,.125.056c2.495-1.7,4.871-1,6.724-.092.058-.092.121-.186.183-.282.171-.258.454-.689.412-.833a9.922,9.922,0,0,0-1.677-3.436A3.961,3.961,0,0,0,230.912,171.776ZM186.833,89.219c.086-.044.172-.091.258-.138a3.024,3.024,0,0,1,.792-.343c.295-.063.5.178.677.393.045.056.091.111.133.155l.357.354-.449.227c-.085.042-.169.088-.252.135a2.978,2.978,0,0,1-.8.344.462.462,0,0,1-.1.012c-.246,0-.42-.214-.576-.4-.045-.058-.091-.113-.133-.157l-.357-.354Zm1.154,7.049-1.591-.877.343-.341c.042-.044.088-.1.133-.155.177-.216.38-.451.676-.393a3.03,3.03,0,0,1,.792.343c.088.047.172.094.258.138l.453.226Zm24.706,60.4a2.051,2.051,0,0,0-.155.136l-.34.34-.88-1.588,1.063-1.059.224.448c.042.086.091.171.138.257a2.987,2.987,0,0,1,.343.792C213.154,156.29,212.909,156.49,212.693,156.666Z" transform="translate(-184.35 33.973)"/><path class="b" d="M310.432,29.837a3.452,3.452,0,0,0-.2-.319,2.616,2.616,0,0,0-.281.564,2.883,2.883,0,0,0,.293,1.331c1.3-.067,2,.994,2.6,1.929.83,1.292,1.417,2.048,2.949,1.43.9-.366,2.693,2.524,2.71,2.555a14.733,14.733,0,0,1,1.788,4.4c.039.193.766.6,1.156.816.867.485,1.688.943,1.591,1.628-.08.573-.774.991-2.363,1.406l.011.022a2.264,2.264,0,0,0,.324.5c.183,0,.429,0,.673.006a2.987,2.987,0,0,1,2.343.655,2.685,2.685,0,0,1,.395,2.169c-.1.791-.1.791,2.317,1.469l.459.125c.564.152,1.148.308,1.267.744.828,3.022,2.754,5.236,4.791,7.582l.7.811c.83.966,1.409,1.7,1.834,2.242,1.07,1.361,1.139,1.47,2.091,1.461.049,0,.1,0,.142,0a7.039,7.039,0,0,1,4.6,1.506,10.515,10.515,0,0,0,1-.448c.23-.111.478-.23.735-.343-.451-.667-.864-1.3-1.256-1.9a45.106,45.106,0,0,0-2.693-3.832c-1.329-1.627-2.731-3.243-4.087-4.8-1.5-1.73-3.057-3.522-4.519-5.338-.027-.033-2.587-3.363-1.809-4.275a1.63,1.63,0,0,0,.546-1.229c-.058-.3-.341-.571-.892-.856a14.3,14.3,0,0,1-4.78-4.707,22.048,22.048,0,0,0-2.538-3.057l-.122-.114.006-.166c.086-1.829-1.026-2.187-2.844-2.621-1.419-.337-3.006-.716-3.341-2.432-.107.094-.216.189-.323.285a15.77,15.77,0,0,1-2.291,1.78,1.755,1.755,0,0,1-1.362-.049,3.183,3.183,0,0,0-.748-.16C310.876,30.6,310.64,30.194,310.432,29.837ZM328.185,46.9c.088-.044.174-.092.26-.139a3.026,3.026,0,0,1,.794-.34c.3-.072.5.175.673.39.045.056.091.113.133.155l.345.341-1.594.878-1.063-1.062Z" transform="translate(-113.291 2.81)"/><path class="b" d="M198.48,70.98c.554.4.886.706.943,1.068a1.157,1.157,0,0,1-.34.866c-.075.1-.16.218-.249.355a3.8,3.8,0,0,0-.388,1.616c-.011.1-.02.2-.031.3.167-.042.341-.081.51-.121.556-.127,1.4-.319,1.492-.565a17.9,17.9,0,0,0,1.431-6.18c.028-2.042.739-2.952,2.71-3.442a5.268,5.268,0,0,0,.011-1.794h-.727l.412-.327a3.235,3.235,0,0,1-.65-.665l-.327-.421.51-.149c.088-.025.194-.066.3-.1.42-.157.753-.28.963-.006a1.912,1.912,0,0,1,.244.442A15.311,15.311,0,0,0,207,59.835l.044.031.089-.213.506-.708a12.852,12.852,0,0,1,4.063-4.184,1.746,1.746,0,0,1-.77-1.251c-.044-.816.694-1.481,1.42-2.025.625-.467,1.256-.929,1.885-1.389l.748-.55a6.884,6.884,0,0,0,.061-1.115c0-1.262,0-2.566,2.235-3.839,2.784-1.588,5.346-4.921,4.94-8.863l-6.2.418c.1.379.2.758.305,1.135a21.013,21.013,0,0,1,.755,3.518c.1,1.06-.024,1.608-.418,1.834-.492.285-1.07-.138-1.629-.545a3.857,3.857,0,0,0-.692-.437c0,.027-.008.078-.014.155-.106,1.611-1.226,2.429-2.214,3.149a3.779,3.779,0,0,0-1.855,2.261c-.1.587-1.134.916-1.737,1.06-1.506.359-2.368.562-2.552.875-.154.26.009.847.282,1.821l.06.218c.011.038.9,3.882.028,4.139a3.361,3.361,0,0,0-2.646,2.834l-.138.7-.482-.521c-.1-.108-.215-.21-.329-.312a2.345,2.345,0,0,1-.744-.944,11,11,0,0,1-.377-1.78,9.214,9.214,0,0,0-.944,1.622,29.665,29.665,0,0,1-3.764,7.161c-1.029,1.337-1.444,2.41-1.3,3.376C195.772,68.574,196.657,69.657,198.48,70.98Zm1.578-7.411.34.338a1.976,1.976,0,0,0,.156.133c.216.177.46.376.395.675a2.973,2.973,0,0,1-.346.8c-.045.085-.094.169-.136.254l-.224.446-1.061-1.057Z" transform="translate(-177.993 6.758)"/><path class="b" d="M201.586,53.318c-.006-.042-.008-.086-.016-.128a3.272,3.272,0,0,1-.3-.2l-.412.327Z" transform="translate(-175.009 16.525)"/><path class="b" d="M339.7,101.52l.017.074.46-.175c0-.215-.008-.44-.009-.675C340,101.012,339.849,101.271,339.7,101.52Z" transform="translate(-96.445 43.545)"/><path class="b" d="M345.441,93.191c1.309-.116,1.463-.878,1.657-1.843a3,3,0,0,1,.785-1.768L344.995,85.8l-.83,3.177a12.261,12.261,0,0,0-.23,1.281c-.052.356-.1.714-.176,1.052l.258-.255c.042-.042.089-.1.134-.155.176-.214.368-.454.672-.391h0a3.052,3.052,0,0,1,.793.341c.085.049.171.1.257.139l.451.222-1.062,1.062-1.532-.844a2.34,2.34,0,0,1-.835,1.513,6.676,6.676,0,0,1-3.168.739,14.558,14.558,0,0,0-1.625.179c-.1.02-.268.221-.4.371a2.6,2.6,0,0,1,1.166,1.488,3.348,3.348,0,0,1-.828,2.5,3.006,3.006,0,0,0-.766,2.084c.315,1.419.844,3.792-1.237,5.61-.282.247-.2.5.249,1.237.5.836,1.269,2.1-.428,3.3a.938.938,0,0,0-.446.556c-.058.343.263.789.6,1.262.639.893,1.513,2.116.293,3.555a2.043,2.043,0,0,0-.6,1.923c.246.8,1.2,1.491,2.609,1.885l.2.056.121.252c.08.29-.141.518-.445.836-.177.185-.647.675-.587.844,0,.011.1.244,1.116.357a2.834,2.834,0,0,0,3.147-1.549c.035-.182-.458-.83-.722-1.179a9.35,9.35,0,0,1-.684-.99l-.192-.329a3.867,3.867,0,0,1-.662-1.63c-.118-1.633-.066-3.246,1.747-6.431a8.02,8.02,0,0,1-.288-1.934,1.816,1.816,0,0,1,.647-1.116c.113-.122.227-.244.32-.366l.45-.6.191.738c.3-5.612.158-6.328,0-6.533l-.332-.42.514-.152c.087-.025.194-.066.3-.105.42-.16.755-.28.966,0a2.748,2.748,0,0,1,.393.889c.027.089.054.179.083.265a7.6,7.6,0,0,1,2.258-2.8,1.03,1.03,0,0,0-.048-.34c-.14-.385-.293-.766-.45-1.146a3.086,3.086,0,0,1-.4.936c-.224.334-.706.287-1.216.238a3.522,3.522,0,0,0-.47-.031l-.5,0,.154-.477a3.06,3.06,0,0,0-.019-1.212,2.464,2.464,0,0,1,.229-1.924A1.769,1.769,0,0,1,345.441,93.191Zm-6.326,18.183-.226-.449c-.042-.086-.089-.171-.136-.254a3.022,3.022,0,0,1-.346-.8c-.064-.3.182-.5.4-.677.055-.045.111-.091.155-.133l.338-.337.88,1.586Zm1.271-13.339-1.063-1.06.451-.224c.086-.044.173-.091.258-.139a3.035,3.035,0,0,1,.794-.341c.3-.06.5.177.675.391.047.056.092.113.135.155l.344.343Z" transform="translate(-98.872 35.088)"/><path class="b" d="M341.049,96.065c.044-.18.1-.359.158-.536h-.016A3.685,3.685,0,0,0,341.049,96.065Z" transform="translate(-95.684 40.595)"/><path class="b" d="M341.235,96.366c-.2,1.167-.454,3.05-.766,5.639l0,.023c0,.341,0,.686,0,1.021l.324,1.226-.3.113a11.968,11.968,0,0,0,.47,3.713c.138-.352.291-.713.446-1.079.634-1.483,1.289-3.017.942-4.129C341.661,100.711,340.964,98.486,341.235,96.366Z" transform="translate(-96.015 41.069)"/><path class="b" d="M227.892,25.631a1.511,1.511,0,0,1,1.072.276,3.34,3.34,0,0,0,.354.172l.368.146-.324.661a7.175,7.175,0,0,1-.369.709c-1.077,1.746-2.712,1.675-4.157,1.61l-.224-.009a2.975,2.975,0,0,0,.987.68,2.852,2.852,0,0,0,.819.081c.7.008,1.729.019,1.907,1.342.241-.091.561-.359,1.1-1.131.423-.933.607-1.3.855-1.35l1.315-2.177-.489,1.527a1.388,1.388,0,0,1,1.057-.417.637.637,0,0,1,.475.474,1.912,1.912,0,0,1-.238,1.691,19.6,19.6,0,0,1-1.992,1.544l-.393.279a7.464,7.464,0,0,0-.2.976c2.491-.434,4.985-.99,6.266-3.493a2.188,2.188,0,0,1-.958-.091,3.329,3.329,0,0,1-.983-.691c-.114-.1-.229-.208-.346-.3l-.5-.393.59-.227c.121-.047.24-.1.359-.152a4.08,4.08,0,0,1,.936-.321,5.208,5.208,0,0,1,1.057-.034l.056,0v-.078l.136.03c.088-.211.189-.435.294-.659.18-.382.554-1.179.457-1.35-.644-.946-.82-1.519-.594-1.913.26-.454.861-.409,1.447-.366a2.127,2.127,0,0,0,.838-.033,4.939,4.939,0,0,1,.916-1.5,4.308,4.308,0,0,0,.8-1.286c.2-.625.407-1.066.8-1.2s.775.133,1.238.474l.218.158c1.243.891,2.593,1.69,3.9,2.463.416.246.833.492,1.248.742a3.7,3.7,0,0,0-.723-1.953c-.764-1.315-1.713-2.952.684-4.557a5.174,5.174,0,0,0-.1-1.362c-.025-.163-.049-.326-.069-.482l-.3.164c-.575.318-1.171.645-1.788.916-.571.251-1.17.463-1.748.67a13.116,13.116,0,0,0-3.05,1.383,16.775,16.775,0,0,0-2.671,2.485c-.459.492-.919.985-1.4,1.445a1.969,1.969,0,0,1-1.2.407l-.169-.02-.144-.164c-.259-.4-.5-.625-.7-.648-.284-.034-.622.305-.958.633-.535.52-1.259,1.224-2.18.764-.141.128-.38.4-.581.626a5.584,5.584,0,0,1-2.347,1.907c-.344.072-.689.124-1.027.174-1.242.183-2.314.341-3.039,1.472a2.534,2.534,0,0,0-.212.435c.139-.049.28-.1.423-.144C225.727,26.3,226.806,25.924,227.892,25.631Zm5.426-1.369,1.065,1.06-.451.225c-.087.042-.172.089-.26.138a3.032,3.032,0,0,1-.794.341.54.54,0,0,1-.1.009c-.246,0-.42-.211-.576-.4-.045-.055-.091-.113-.133-.155l-.343-.34Z" transform="translate(-161.767 -5.453)"/><path class="b" d="M298.528,22.555a3.145,3.145,0,0,0-1.134.814c-.092.086-.184.174-.277.257l1.041,1.038a5.287,5.287,0,0,1,3.844,1.4c.146.11.779-.136,1.2-.3a3.919,3.919,0,0,1,1.976-.415c4.381.861,4.529,1.079,7.389,6.3l.144-.146.086.467,3.656,1.215V32.022l.207-.1a2.048,2.048,0,0,1,1.267-.027c.354.067.691.128.869,0a1.076,1.076,0,0,0,.279-.686c-.046-.31-1.348-5.044-1.582-5.687-.506-.448-1-.911-1.5-1.376a28.717,28.717,0,0,0-3.67-3.067c-.774-.509-1.616-.158-2.588.246-1.145.474-2.427,1.007-3.694.034-1.312,2.438-3.229,1.921-4.926,1.464A5.073,5.073,0,0,0,298.528,22.555Zm17.154,3.808c.055-.045.111-.091.153-.133l.34-.335.88,1.583-1.063,1.057-.225-.445c-.042-.085-.09-.169-.135-.254a3,3,0,0,1-.348-.8C315.22,26.737,315.466,26.538,315.682,26.363Zm-1.727,3.246c.088-.025.194-.066.3-.1.42-.155.752-.282.965-.006a2.72,2.72,0,0,1,.391.885c.031.1.063.205.1.3l.058.163a8.362,8.362,0,0,1,.877.728l.053.052-.5.523a7.222,7.222,0,0,0-1.336-1.03,3.291,3.291,0,0,1-.361-.218l-.763-.456h.253c-.081-.092-.15-.182-.218-.268l-.329-.42Z" transform="translate(-120.542 -1.674)"/><path class="b" d="M214.866,38.623a24.644,24.644,0,0,1,2.339-1.754l.5-.323a7.288,7.288,0,0,1,3.249-1.45c2.126-.147,4.78-.6,6.458-2.783,1.3-1.7,2.884-1.658,4.414-1.628.288.006.576.013.867.008l2.621-3.921-1.012-1.01c-.183.139-.363.28-.545.423a11.7,11.7,0,0,1-1.956,1.337c-.307.153-.628.279-.949.4a4.585,4.585,0,0,0-1.662.913l-.023.293-.263-.063a4.774,4.774,0,0,1-2.637.736c-.321-.02-.417-.313-.525-.839-.026-.122-.05-.243-.075-.337l-.1-.373.378-.074c.174-.034.348-.074.521-.114a7.613,7.613,0,0,1,1.4-.229,1.029,1.029,0,0,1,.586.243l.053.038a2.808,2.808,0,0,0-.629-2.238,2.461,2.461,0,0,0-2.208-.2,6.961,6.961,0,0,0-1.846.869c-.293.174-.587.348-.885.5l-.487.249-.041-.545c-.045-.642-.279-1.071-.656-1.207a.79.79,0,0,0-.272-.047,1.188,1.188,0,0,0-.832.384,30.583,30.583,0,0,0-2.439,3.025,23.8,23.8,0,0,1-3.3,3.852c-2.563,2.242-2.191,4.2-.731,6.412C214.416,38.989,214.64,38.806,214.866,38.623Zm3.835-7.48c.048-.085.1-.168.131-.241.356-.712.719-1.422,1.082-2.131l.619-1.212.351.352a3.5,3.5,0,0,1,.236.266,1.3,1.3,0,0,0,.36.344c1.812.764,2.549,1.076,2.669,1.71.116.619-.443,1.16-1.666,2.346-.288.28-.589.572-.929.572a.6.6,0,0,1-.221-.042c-.3-.114-.492-.434-.611-1.071a1.794,1.794,0,0,1-1.249.836,1.264,1.264,0,0,1-1-.634C218.256,31.935,218.472,31.55,218.7,31.143Z" transform="translate(-168.115 0.969)"/><path class="b" d="M294.444,17.842a.816.816,0,0,1,.878.02l.232.191-.121.313a4.582,4.582,0,0,1-.512.716l-.412.52-.218-.216c-.117.371-.213.764-.128.889.8,1.2,4.2,2.59,6.855,2.8a3.047,3.047,0,0,0,2.221-.384,4.726,4.726,0,0,0,.789-2.4c.039-.251.081-.5.128-.756a1.625,1.625,0,0,1-1.051-.16,2.345,2.345,0,0,1-.9-1.661c-.169-.727-.285-1.074-.63-1.116a5.009,5.009,0,0,0-3.061.561c-.638.4-1.084.653-1.5.481s-.566-.706-.7-1.333a4.651,4.651,0,0,0-1.367-2.073c-.5-.5-.949-.722-1.292-.637-.374.1-.692.606-.9,1.42a2.077,2.077,0,0,0-.014.606,2.553,2.553,0,0,1-.027.816,3.06,3.06,0,0,1-.452.936c-.069.111-.138.221-.2.334l-.3.542a11.564,11.564,0,0,0,1.848-.127C293.9,17.9,294.166,17.679,294.444,17.842Z" transform="translate(-123.57 -5.774)"/><path class="b" d="M283.147,16.147c.106.081.218.175.333.272.32.269.854.7,1.073.673a11.945,11.945,0,0,1,2.317-.215,27.393,27.393,0,0,1,5.072.628,28.618,28.618,0,0,0,5.075.637l-.27-.559c-.085-.174-.16-.354-.235-.534a4.285,4.285,0,0,0-.55-1.04,4.216,4.216,0,0,0-.892-.756c-.063-.044-.124-.086-.183-.13l-1.137,1.4-.614-1.536-.182.009a4.09,4.09,0,0,1-1.051-.038,3.906,3.906,0,0,1-1.171-.554c-.432-.263-.926-.559-1.171-.438-.149.074-.421.385-.559,1.646a1.055,1.055,0,0,1-.949.921,2.233,2.233,0,0,1-2.258-1.406,4.663,4.663,0,0,0-.872-1.159l-.18-.2c-.024.041-.049.081-.075.121-.291.476-.592.966-1.061,1.023-1.151.139-1.254.348-1.259.357S282.329,15.505,283.147,16.147Z" transform="translate(-128.899 -5.663)"/><path class="b" d="M331.3,54.317c-.189-.034-.47.189-.778.424l-.294.218c-1.45,1.043-.98,1.7-.269,2.7a4.542,4.542,0,0,1,.711,1.273l.088-.03v.37a11.547,11.547,0,0,1,2.889,8.275l0,0v.108c0,.1,0,.194,0,.3.277.391.567.774.858,1.157a18.463,18.463,0,0,1,1.948,2.952c1.148,2.361,2.315,3.9,4.582,4.258a2.34,2.34,0,0,0,1.661-.265,1.766,1.766,0,0,0,.207-1.469,24.368,24.368,0,0,0-1.049-2.214,17.412,17.412,0,0,1-1.409-3.273c-1.032-3.747-3.317-6.819-5.526-9.79-1.073-1.444-2.183-2.937-3.143-4.5C331.6,54.516,331.433,54.341,331.3,54.317Zm3.268,9.815c.088-.044.172-.091.257-.138a3.013,3.013,0,0,1,.8-.343c.3-.069.5.179.673.392a2,2,0,0,0,.133.155l.36.355-.452.225c-.085.042-.169.089-.254.136a2.987,2.987,0,0,1-.8.344.42.42,0,0,1-.1.011c-.246,0-.42-.213-.576-.4a1.986,1.986,0,0,0-.135-.157l-.355-.355Z" transform="translate(-102.34 17.274)"/><path class="b" d="M337.76,119.6c-.265-.608-.665-1.525-.871-1.578l-.022,0a3.711,3.711,0,0,0-1.049.687l-.329.252a4.29,4.29,0,0,0-1.564,5.246c.855,1.912-.2,3.269-1.137,4.469-.919,1.178-1.713,2.2-.835,3.65l.089.146-.06.186a1.482,1.482,0,0,1-.7.67l-.327.124a7.255,7.255,0,0,1-1.785.5,3.022,3.022,0,0,0-2.4,1.37,2.7,2.7,0,0,0-.124,2.313,3.267,3.267,0,0,0,.642-.186c.028-.144.052-.293.075-.442.106-.687.207-1.334.724-1.477.423-.118.888.186,1.562,1.005.528.64.888.452,1.651-.041.742-.484,1.76-1.138,2.98-.071l.038.033a6.679,6.679,0,0,0,.033-.7,3.464,3.464,0,0,1,.247-1.578c.529-.9.995-1.632,1.461-2.291,1.195-1.682,1.24-3.628,1.29-5.689a11.236,11.236,0,0,1,1.167-5.751l-.011-.009A2.371,2.371,0,0,1,337.76,119.6Z" transform="translate(-103.949 53.32)"/><path class="b" d="M281.979,161.906a1.385,1.385,0,0,0-.446-.036,3.03,3.03,0,0,1-.951,2.15,3.577,3.577,0,0,1-2.881.294,4.69,4.69,0,0,0-1.826-.074,7.338,7.338,0,0,1-2.7.056c-1.427-.15-2.775-.291-3.886.943l-.314.346-.258-.39c-.111-.171-.216-.351-.32-.531a3.792,3.792,0,0,0-.74-1.021,1.46,1.46,0,0,0-.7-.066h-.113c.006.091.011.182.016.272a4.726,4.726,0,0,1-.085,1.6c-.17.6-.734,1.525-1.4,1.629a2.24,2.24,0,0,1-2.066-1,38.88,38.88,0,0,1-1.278-4.261l-.236-.908c-.307-1.156-.918-1.074-1.842-.948a4.7,4.7,0,0,1-1.087.061c-.057.168-.119.343-.184.518-.143.39-.382,1.043-.273,1.209.374.56.72,1.171,1.054,1.763,1.44,2.545,2.809,4.947,6.581,4.038l3.747-.271c3.792-.266,7.715-.542,11.568-.866a3.656,3.656,0,0,0,2-.623A3.227,3.227,0,0,0,281.979,161.906Z" transform="translate(-142.457 77.018)"/><path class="b" d="M337.17,71.223a3.876,3.876,0,0,0-1.019,1.333c-.025.047-.05.092-.077.138a2.048,2.048,0,0,1,.864.1,3.248,3.248,0,0,1,.983.691c.114.1.229.207.348.3l.5.395-.592.227c-.121.047-.24.1-.359.152a4.021,4.021,0,0,1-.936.319,5,5,0,0,1-1.059.035l-.055,0v.075c2.181.946,2.416,1.624,1.719,4.4-.02.078-.042.161-.055.224,2.072,1.815,1.2,3.558.424,5.1a12.4,12.4,0,0,0-.6,1.312,2.569,2.569,0,0,0,1.159,3.258,8.662,8.662,0,0,0,1.406.7,3.621,3.621,0,0,0,.964-1.83,5.271,5.271,0,0,0-1.224-4.225,1.933,1.933,0,0,1-.34-1.865c.338-.93,1.466-1.7,3.1-2.111a3.6,3.6,0,0,0,.855-.268,2.892,2.892,0,0,0-.054-.506l-.028-.186a12.1,12.1,0,0,0-2.258-4.876A19.273,19.273,0,0,1,339,70.886,3.917,3.917,0,0,0,337.17,71.223Z" transform="translate(-98.674 26.646)"/><path class="b" d="M337.674,111.334c-.41-.3-.822-.6-1.228-.908l-.243.1c-.1.038-.23.089-.326.13a10.634,10.634,0,0,1-2.735,8.443l.042.025a2.079,2.079,0,0,0,.813.368,2,2,0,0,0,1.069-.443,2.315,2.315,0,0,1,1.765-.517,2.086,2.086,0,0,1,1.209,1.07,1.716,1.716,0,0,0,.867-.116c.731-.451,2.339-4.918,2-5.559A31.862,31.862,0,0,0,337.674,111.334Z" transform="translate(-100.158 49.024)"/><path class="b" d="M223.791,149.368h0c-.305-.132-.617-.246-.921-.36-1.06-.39-2.062-.758-2.41-1.669a3.114,3.114,0,0,1,.423-2.512,6.285,6.285,0,0,0-1.764-1.411,1.713,1.713,0,0,0-1.367.463c-.268.363-.042.778.349,1.426a2.522,2.522,0,0,1,.546,1.9,2.02,2.02,0,0,1-1.033,1.163,1.255,1.255,0,0,0,.047.327c.03.094.058.194.086.3.067.246.171.617.293.694,1.857,1.16,3.781,2.3,5.819,3.511l1.586.943,0-.023a9.509,9.509,0,0,1,.18-1.088A3.058,3.058,0,0,0,223.791,149.368Z" transform="translate(-165.529 67.675)"/><path class="b" d="M326.636,133.23c-.318-.261-.644-.526-.927-.784l-.072.08a1.773,1.773,0,0,0-.36.492c.421,3.454.144,4.707-2.5,6.334a1.6,1.6,0,0,0-.816,1.772,5.16,5.16,0,0,1-.011.727l1.52,1.225-1.546.614v.669l1.107-.427-.653.651a.954.954,0,0,0,.423-.044c3.472-1.768,4.337-5.208,5.175-8.537.094-.374.19-.75.285-1.118C328.307,134.6,327.22,133.708,326.636,133.23Z" transform="translate(-106.506 61.484)"/><path class="b" d="M291.316,159.966c-2.35,1.506-4.892,1.461-7.356,1.419a28.51,28.51,0,0,0-2.952.049,4.37,4.37,0,0,0-2.032,1.32,2.268,2.268,0,0,0,.058.775c1.47.431,2.964.794,4.686,1.212l1.339.327,1.22-.637c1.812-.946,3.863-2.015,5.839-3.124a1.837,1.837,0,0,0-.14-.882A1.55,1.55,0,0,0,291.316,159.966Z" transform="translate(-130.816 77.056)"/><path class="b" d="M239.672,156.206l-.544-.4c-1.451-1.074-2.952-2.186-4.458-3.23a1.453,1.453,0,0,0-.625,0,2.872,2.872,0,0,0,.29.654,3.828,3.828,0,0,0,.6.639c.1.1.211.2.312.3l.384.387-.506.2c-.178.072-.385.177-.59.283-.651.332-1.16.6-1.506.31a16,16,0,0,1-1.97-2.076c-.186-.222-.371-.441-.56-.659h-.219V152.6l-.067,0a6.028,6.028,0,0,0-.911.016c-.612.077-1.221.18-1.83.285l-.26.044c.049.085.1.171.144.257.254.464.517.943.824,1.062,2.394.922,4.876,1.751,7.276,2.549l2.128.712a1.675,1.675,0,0,1,.5-.979A2.107,2.107,0,0,1,239.672,156.206Z" transform="translate(-160.101 72.853)"/><path class="b" d="M258.783,159.988l-.041,0a18.025,18.025,0,0,0-2.969.459c-.108,1.162-.3,1.92-.866,2.108-.5.164-1.068-.175-1.959-1.181-.111-.127-.222-.263-.333-.4a3.2,3.2,0,0,0-.952-.916,11.085,11.085,0,0,0-1.538,4.5,1.2,1.2,0,0,0,.429-.139,2.091,2.091,0,0,1,1.245-.7.724.724,0,0,1,.273.052c.523.207.628.913.661,1.5a1.222,1.222,0,0,0,.459.971,1.671,1.671,0,0,0,.086-.36c.244-1.951,1.232-2.109,2.189-2.261a5.445,5.445,0,0,0,.867-.19,7.337,7.337,0,0,0,2.354-1.633c.258-.23.512-.459.77-.672-.144-.235-.266-.452-.374-.642S258.858,160.092,258.783,159.988Z" transform="translate(-147.133 77.069)"/><path class="b" d="M305.663,154.408l-.033.344c-.044.451-.509.622-.88.756a2.134,2.134,0,0,0-.418.186,4.716,4.716,0,0,0,.468.426,1.232,1.232,0,0,0,.955.168c2.568-.961,3.984-2.938,4.443-6.207a2.629,2.629,0,0,0-.957-.241C306.061,149.829,305.9,151.943,305.663,154.408Z" transform="translate(-116.46 71.326)"/><path class="b" d="M296.149,156.427c-.077.077-.164.174-.233.257-1.525,1.848-3.615,2.723-5.637,3.572-.476.2-.95.4-1.419.609a1.77,1.77,0,0,0-.133.866.852.852,0,0,0,.1.29c.65-.125,1.294-.232,1.926-.337a22.5,22.5,0,0,0,4.414-1.022c1.622-.62,1.678-2.432,1.442-3.841C296.588,156.726,296.306,156.532,296.149,156.427Z" transform="translate(-125.294 75.054)"/><path class="b" d="M247.732,159.209a41.048,41.048,0,0,0-5.291-1.577c-.554-.139-1.109-.279-1.66-.423a1.122,1.122,0,0,0-.817,0l0,.009h-.037l-.019,0c-.15.132-.194.49-.124,1.007a2.636,2.636,0,0,0,.168.761,3.186,3.186,0,0,0,.911-.23,2,2,0,0,1,.644-.1c1.711,0,4.178,1.738,5.573,3.067a2.64,2.64,0,0,0,1.622.473c.019-.03.2-.261.343-.449.108-.138.225-.291.362-.451-.138-.2-.273-.416-.407-.636A3.489,3.489,0,0,0,247.732,159.209Z" transform="translate(-153.001 75.453)"/><path class="b" d="M251.307,159.325c.037,0,.075-.008.113-.012-.013-.161-.019-.318-.025-.46a2.638,2.638,0,0,0-.07-.625c-.152-.1-.332-.225-.512-.354a8.021,8.021,0,0,0-2.792-1.5,14.017,14.017,0,0,0-3.388-.119c-.37.016-.737.033-1.1.041.233.935.831.869,1.743.763a2.624,2.624,0,0,1,1.946.272,21.385,21.385,0,0,0,3.4,1.976A1.493,1.493,0,0,0,251.307,159.325Z" transform="translate(-150.865 74.929)"/><path class="b" d="M303.248,152.3a22.111,22.111,0,0,0-1.561,2.1c.108.141.336.387.526.59.162.171.338.36.517.559l2.309-2.208-1.459-1.461C303.471,152.02,303.359,152.159,303.248,152.3Z" transform="translate(-117.956 72.482)"/><path class="b" d="M299.837,155.378c-.174,0-.5.34-.723.565l-.047.047c.365.495,1.428,1.757,1.918,2.278.445-.54.91-1.12,1.55-1.913l.4-.495c-.324-.059-.621-.117-.9-.172A11.994,11.994,0,0,0,299.837,155.378Z" transform="translate(-119.439 74.46)"/><path class="b" d="M314.172,144.586a14.2,14.2,0,0,1-1.063,1.275,7.288,7.288,0,0,1-1.029.819c-.074.052-.149.1-.222.157l.092.235H311.8c0,.213,0,.428-.014.639a1.743,1.743,0,0,0,.149,1.2,1.2,1.2,0,0,0,.789.3l2.587-2.58-1.073-2.136C314.218,144.528,314.2,144.558,314.172,144.586Z" transform="translate(-112.257 68.305)"/><path class="b" d="M318.112,144.724a1.652,1.652,0,0,0-.524-.188,33.3,33.3,0,0,0-3.018,2.35,5.34,5.34,0,0,0,.418.819,1.22,1.22,0,0,0,.147.055c.946-.636,1.873-1.295,2.669-1.863l.4-.283c-.033-.257-.05-.464-.064-.623C318.131,144.89,318.123,144.79,318.112,144.724Z" transform="translate(-110.667 68.325)"/><path class="b" d="M290.787,14.766l1-1.532-2.652-.343.656,1.875Z" transform="translate(-125.057 -6.165)"/><path class="b" d="M218.348,143.147a.791.791,0,0,0,.846.193,1.06,1.06,0,0,0,.681-.858,1.712,1.712,0,0,1-1.071-.523,2.265,2.265,0,0,1-.329-1.735c.011-.142.022-.282.027-.416a1.716,1.716,0,0,0-.982,1A2.979,2.979,0,0,0,218.348,143.147Z" transform="translate(-165.611 65.649)"/><path class="b" d="M322.257,141.832l-.055.221-.223.045c-.654.139-1.312.274-1.968.406-2.034.415-4.139.842-6.155,1.417a6.1,6.1,0,0,0-.165,1.227c-.011.152-.025.3-.038.446.534-.142,1.11-.332,1.669-.52,1.807-.6,3.515-1.167,4.527-.465.886.617,1.533.861,1.92.741s.6-.7.824-1.3a7.058,7.058,0,0,1,.441-1.037l.059-.08,2.177-2.17c-.249-.022-.5-.064-.745-.1C323.383,140.459,322.623,140.332,322.257,141.832Z" transform="translate(-111.185 66.064)"/><path class="b" d="M197.333,120.364a1.7,1.7,0,0,0,2.261,2.255,2.224,2.224,0,0,0-.334-1.918A2.251,2.251,0,0,0,197.333,120.364Z" transform="translate(-177.035 54.618)"/><path class="b" d="M333.024,69.47a5.839,5.839,0,0,0,.564,1.309l.132.251.96-.4-1.367-1.608A1.71,1.71,0,0,0,333.024,69.47Z" transform="translate(-100.225 25.596)"/><path class="b" d="M223.489,151.742a1.764,1.764,0,0,0,1.21.152c.211-.016.426-.031.642-.03v-1.9l-2.145,1.07A1.132,1.132,0,0,0,223.489,151.742Z" transform="translate(-162.37 71.397)"/><path class="b" d="M275.351,160.226a3.2,3.2,0,0,0,1.1.474,2.549,2.549,0,0,0,1.088-.2l-.9-.7Z" transform="translate(-132.858 76.959)"/><path class="b" d="M307.424,28.618l-1.845,1.841a1.864,1.864,0,0,0,1.461-.385A1.847,1.847,0,0,0,307.424,28.618Z" transform="translate(-115.754 2.734)"/><path class="b" d="M307.81,147.409a2.628,2.628,0,0,0-.49.21l-.062.028.138.254a3.087,3.087,0,0,0,.809,1.113,3.732,3.732,0,0,0,.766-.306l.185-.083c-.067-.066-.132-.135-.2-.2A6.706,6.706,0,0,0,307.81,147.409Z" transform="translate(-114.805 69.951)"/><path class="b" d="M309.328,146.467a1.847,1.847,0,0,0-.384,1.455l1.844-1.84c-.078,0-.155-.006-.229-.006A1.689,1.689,0,0,0,309.328,146.467Z" transform="translate(-113.854 69.197)"/><path class="b" d="M191.1,106.134l.083.045a1.488,1.488,0,0,0,.534.221,1.856,1.856,0,0,0,.664-.443l-1.023-.423Z" transform="translate(-180.532 46.256)"/><path class="b" d="M231.791,152.388v-.681c-.224-.006-.431-.012-.642-.028a1.731,1.731,0,0,0-1.209.15.978.978,0,0,0-.269.559h2.12Z" transform="translate(-158.706 72.35)"/><path class="b" d="M336.719,89.5a1.138,1.138,0,0,0,.249.385l.482-.93-.359-.54A3.6,3.6,0,0,0,336.719,89.5Z" transform="translate(-98.134 36.569)"/><path class="b" d="M236.213,155.336c-.038,0-.076.006-.111.008v.734h.667l-.019.016a3,3,0,0,0,.343-.027,2.882,2.882,0,0,0,.614-.205,2.421,2.421,0,0,0-.694-.492A1.994,1.994,0,0,0,236.213,155.336Z" transform="translate(-155.067 74.424)"/><path class="b" d="M234.918,156.83l.7-.565H234.49Z" transform="translate(-155.979 74.961)"/><path class="b" d="M238.588,158.269a8.692,8.692,0,0,0-1.264,0c0,.083,0,.172,0,.25.376.058.771.086,1.213.117l.075.006-.006-.108C238.6,158.438,238.593,158.346,238.588,158.269Z" transform="translate(-154.377 76.083)"/><path class="b" d="M248.123,160.958a1.435,1.435,0,0,0,.221.529l.045.084.6-.258-.427-1.019A1.854,1.854,0,0,0,248.123,160.958Z" transform="translate(-148.266 77.242)"/><path class="b" d="M335.378,72.524h-.208l.208.208Z" transform="translate(-99.01 27.578)"/><path class="b" d="M312.809,148.17c.1.078.2.155.3.223l.011-.013-.233-.285Z" transform="translate(-111.663 70.339)"/><path class="b" d="M252.946,159.292l.205.262a2.461,2.461,0,0,0-.114-.295Z" transform="translate(-145.536 76.656)"/><path class="b" d="M277.89,13.631h-.153l.051.126Z" transform="translate(-131.508 -5.746)"/><path class="b" d="M280.752,11.248l-.1.126h.151Z" transform="translate(-129.86 -7.095)"/><path class="b" d="M239.228,20.559a4.957,4.957,0,0,0-2.891,1.771c-1.062,1.037-2.156,2.114-3.927,1.909v.655h.174l0,.006h.023c1.876.023,3.511.052,4.779-1.721a3.386,3.386,0,0,1,2.2-.925c.25-.045.506-.092.744-.149a6.215,6.215,0,0,0-.276-1.646c-.03,0-.216.023-.365.044C239.555,20.522,239.4,20.542,239.228,20.559Z" transform="translate(-157.156 -1.883)"/><path class="b" d="M245.849,19.49c.672-1.138,1.932-1.129,3.033-1.124,1.522,0,2.49-.069,2.8-1.693.186-.965,3.586-.885,3.62-.878a14.734,14.734,0,0,1,4.663.9c.194.069.921-.316,1.315-.525.882-.463,1.71-.9,2.233-.445.435.379.407,1.188-.111,2.746l.023,0a2.159,2.159,0,0,0,.6,0c.1-.153.238-.359.373-.559.49-.734,1-1.492,1.827-1.608a2.7,2.7,0,0,1,2.031.852c.609.52.607.518,2.5-1.143l.357-.315c.434-.39.885-.8,1.311-.656,2.986.952,5.886.548,8.96.119l1.071-.147c1.262-.169,2.2-.252,2.881-.315,1.722-.153,1.865-.166,2.363-.955a7.075,7.075,0,0,1,3.844-3.15,9.452,9.452,0,0,0,.169-1.08c.033-.254.067-.526.113-.8-.805.013-1.558.016-2.274.017a44.991,44.991,0,0,0-4.682.169c-2.094.225-4.217.521-6.27.806-2.266.316-4.608.642-6.922.877-.042,0-4.231.334-4.571-.816-.185-.628-.43-1.007-.731-1.129a1.481,1.481,0,0,0-1.206.282,14.3,14.3,0,0,1-6.553,1.442,21.928,21.928,0,0,0-3.946.46l-.161.039-.136-.1c-1.486-1.068-2.391-.332-3.745.957-1.057,1.005-2.239,2.133-3.861,1.473.02.144.041.287.062.431a15.818,15.818,0,0,1,.244,2.886c-.021.456-.409.792-.786,1.116a3.342,3.342,0,0,0-.542.54c-.235.346-.7.323-1.116.3a3.752,3.752,0,0,0-.376-.006,2.606,2.606,0,0,0,.319.542A2.894,2.894,0,0,0,245.849,19.49ZM268.61,12.9c.009-.1.017-.189.022-.285a3.018,3.018,0,0,1,.147-.861v0c.11-.285.421-.319.7-.351.072-.008.144-.014.2-.027l.473-.1-.135,1.813-1.466.313Z" transform="translate(-150.455 -8.595)"/><path class="b" d="M186.839,80.583c1.622-.207,2.089.907,2.436,1.718.358.836.543,1.2,1.348.955,1.015-.305,1.572-.294,1.855.034.352.407.074,1-.221,1.632-.064.136-.129.272-.185.407a3.249,3.249,0,0,0,.431.514,2.706,2.706,0,0,0,1.185-1.99,3.021,3.021,0,0,0-1.234-2.479,7.367,7.367,0,0,1-1.212-1.428l-.192-.269a1.479,1.479,0,0,1-.21-.947l.042-.166.168-.094c1.538-.717,1.447-2,1.341-3.5-.107-1.514-.23-3.232,1.546-4.344a4.285,4.285,0,0,0,1.622-5.227l-.132-.393c-.181-.548-.37-1.116-.507-1.165-.2-.078-1.045.468-1.605.827a2.346,2.346,0,0,1-1.08.285l-.014,0a11.262,11.262,0,0,1-2.233,5.427c-1.109,1.738-2.155,3.379-2.1,5.441.02.806,0,1.669-.063,2.715a3.487,3.487,0,0,1-.675,1.452,6.6,6.6,0,0,0-.36.6l.049,0Z" transform="translate(-182.97 22.662)"/></g></g></g></svg>