<svg xmlns="http://www.w3.org/2000/svg" width="335.327" height="329.334" viewBox="0 0 335.327 329.334"><defs><style>.a{fill:#161616;font-size:20px;font-family:LexendExa-Regular, Lexend Exa;}.b{stroke:#000;stroke-width:2px;}</style></defs><g transform="translate(-200.546 -4588.183)"><text class="a" transform="translate(243.505 4741.909)"><tspan x="87.04" y="20">Stress</tspan></text><g transform="translate(201.5 4589.178)"><path class="b" d="M246.619,201.445c-.434,2.176-1.1,3.317-2.069,3.581-1.416.392-2.806-1.219-4.157-2.77A33.95,33.95,0,0,1,238,199.02a19.1,19.1,0,0,0-3.847-4.588,12.044,12.044,0,0,1-2.762-3.455c-1.091-1.784-2.123-3.468-4.33-3.979l-.649-.149.343-.57c.09-.153.17-.327.249-.5a2.417,2.417,0,0,1,.93-1.229,3.143,3.143,0,0,1,1.047-.247,2.668,2.668,0,0,0,.637-.122,4.416,4.416,0,0,0-.465-.758q-5.3-7.112-10.657-14.175l-3.6-4.77c-.239.266-.488.561-.739.857-1.236,1.462-1.977,2.272-2.7,2.019a3.523,3.523,0,0,1-2.381-2.18c-.465-1.409.04-3.233,1.5-5.424-.412-3.92-4.973-16.4-7.444-19.533-.159-.2-.32-.4-.48-.588-1.049-1.28-2.136-2.6-1.79-4.733,0-.149-.377-.578-.582-.808l0,0a3.132,3.132,0,0,0-.3.823c-.2,1.3-.358,2.611-.513,3.922l-.35,2.863-.722-1.1c-.327-.5-.689-.982-1.051-1.468a13.549,13.549,0,0,1-2.111-3.52,32.086,32.086,0,0,1-1.25-5.748c-.436-2.838-.886-5.771-2.5-8.351-.794-1.265.94-4.088,1.3-4.64.771-1.2,1.5-1.719,2.2-1.541s1.068.982,1.166,2.461a1.932,1.932,0,0,0,.435.789,2.763,2.763,0,0,0,.442-.561c-.264-.955-.611-2-.946-3.009-.312-.932-.632-1.9-.894-2.865a3.009,3.009,0,0,1,.752-2.178c.318-.5.754-1.185.616-1.445-.057-.1-.381-.446-2.193-.471l-.794-.011.375-.7c.082-.157.155-.327.226-.5a3.077,3.077,0,0,1,.794-1.25,5.07,5.07,0,0,1,1.064-.643,4.4,4.4,0,0,1-1.376-.618c-.432-.318-.452-.926-.471-1.516a4.68,4.68,0,0,0-.042-.614c-.1-.582-.207-1.164-.321-1.746a29.6,29.6,0,0,1-.565-3.83,24.326,24.326,0,0,1,.065-2.953,12.35,12.35,0,0,0-.251-4.569,11.946,11.946,0,0,0-2.777-3.96c-.39-.427-.79-.865-1.164-1.311-.385.438-.783.873-1.179,1.3a23.509,23.509,0,0,0-3.357,4.266c-.461.825-.122,2.314.18,3.625l.14.62a8.861,8.861,0,0,0,.666,1.763,7.294,7.294,0,0,1,.8,2.481c.038.553.036,1.12.034,1.684-.01,2.494-.019,4.464,3.369,4.808l.475.05-.044.475a4.526,4.526,0,0,0,.94,2.469c1.009,1.679,2.266,3.771-.946,6.012-.737.517-1.217,2.211-1.313,4.647-.048,1.21-.222,2.448-.389,3.644-.561,4-1.091,7.779,2.6,11.029a3.528,3.528,0,0,1,.764,2.458,4.4,4.4,0,0,0,.4,1.92,5.908,5.908,0,0,0,1.765,1.4c.953.588,1.853,1.143,1.885,1.972.115,3.137,1.474,4.32,4.291,5.648,1.864.877,3.078,1.654,3.378,2.806.318,1.223-.423,2.548-2.1,4.883l-.111.155c-.413.572-1.508,2.092-1.328,2.5.521,1.173,1,2.375,1.478,3.579,1.822,4.586,3.7,9.327,8.217,12.223a3.97,3.97,0,0,0,.557-.274,3.7,3.7,0,0,1,1.2-.494,8.019,8.019,0,0,1,7.685,3.478,2.847,2.847,0,0,1-.228,3.395c-2.567,3.034-1.369,5.331-.1,7.767a10.007,10.007,0,0,1,1.5,4.437,5.664,5.664,0,0,0,1.8.789,3.493,3.493,0,0,1,3.287-1.217,4.084,4.084,0,0,1,2.7,2.718c1.03,3.049,3.545,4.72,6.209,6.489,2.976,1.979,6.052,4.025,6.81,8.131a1.107,1.107,0,0,0,.167.076c3.336-2.27,6.515-1.334,8.992-.124.078-.123.161-.249.245-.377.228-.346.607-.921.551-1.114a13.269,13.269,0,0,0-2.243-4.594A5.3,5.3,0,0,0,246.619,201.445ZM187.671,91.038c.115-.059.23-.121.346-.184a4.043,4.043,0,0,1,1.059-.459c.394-.084.67.239.9.525.061.076.121.149.178.207l.477.473-.6.3c-.113.057-.226.117-.337.18a3.982,3.982,0,0,1-1.07.461.618.618,0,0,1-.134.017c-.329,0-.561-.287-.771-.54-.061-.077-.121-.151-.178-.209l-.477-.473Zm1.543,9.427-2.128-1.173.459-.456c.057-.059.117-.132.178-.207.237-.289.509-.6.9-.526a4.052,4.052,0,0,1,1.059.459c.117.063.23.126.346.184l.605.3Zm33.04,80.772a2.745,2.745,0,0,0-.207.182l-.454.454-1.177-2.123,1.422-1.416.3.6c.056.115.121.228.184.343a4,4,0,0,1,.459,1.06C222.87,180.735,222.543,181,222.254,181.237Z" transform="translate(-184.35 73.711)"/><path class="b" d="M310.6,30.2a4.617,4.617,0,0,0-.266-.427,3.5,3.5,0,0,0-.375.754,3.856,3.856,0,0,0,.392,1.78c1.734-.09,2.67,1.33,3.472,2.58,1.11,1.728,1.9,2.739,3.943,1.912,1.206-.49,3.6,3.376,3.624,3.417a19.7,19.7,0,0,1,2.392,5.884c.053.258,1.024.8,1.546,1.091,1.16.649,2.257,1.261,2.127,2.178-.107.766-1.035,1.326-3.16,1.88l.015.029a3.027,3.027,0,0,0,.434.672c.245,0,.574,0,.9.008,1.179.015,2.4.029,3.133.875a3.591,3.591,0,0,1,.528,2.9c-.139,1.057-.139,1.057,3.1,1.964l.614.168c.754.2,1.535.412,1.694.995,1.108,4.042,3.683,7,6.408,10.139l.938,1.085c1.11,1.292,1.885,2.278,2.452,3,1.43,1.82,1.523,1.966,2.8,1.954.065,0,.127,0,.19,0a9.414,9.414,0,0,1,6.146,2.014,14.064,14.064,0,0,0,1.334-.6c.307-.149.639-.308.982-.459-.6-.892-1.156-1.734-1.68-2.536a60.33,60.33,0,0,0-3.6-5.124c-1.778-2.176-3.652-4.337-5.465-6.425-2.011-2.314-4.088-4.71-6.043-7.139-.036-.044-3.459-4.5-2.419-5.717a2.18,2.18,0,0,0,.731-1.644c-.077-.4-.456-.764-1.193-1.145-2.867-1.485-4.661-3.931-6.393-6.295a29.486,29.486,0,0,0-3.394-4.088l-.163-.153.009-.222c.115-2.446-1.372-2.925-3.8-3.505-1.9-.45-4.02-.957-4.469-3.252-.143.126-.289.253-.431.381a21.09,21.09,0,0,1-3.064,2.381,2.347,2.347,0,0,1-1.822-.065,4.256,4.256,0,0,0-1-.214C311.2,31.221,310.879,30.681,310.6,30.2Zm23.743,22.813c.117-.059.232-.124.348-.186a4.047,4.047,0,0,1,1.061-.454c.4-.1.667.235.9.521.061.075.122.151.178.207l.461.457-2.132,1.175-1.422-1.42Z" transform="translate(-46.957 13.457)"/><path class="b" d="M199.456,82.871c.741.538,1.185.944,1.261,1.428a1.547,1.547,0,0,1-.454,1.158c-.1.136-.213.291-.333.475a5.079,5.079,0,0,0-.519,2.161c-.015.134-.027.27-.042.4.224-.057.456-.109.682-.161.743-.17,1.868-.427,2-.756a23.942,23.942,0,0,0,1.914-8.265c.038-2.731.988-3.947,3.625-4.6a7.045,7.045,0,0,0,.015-2.4h-.972l.551-.438a4.326,4.326,0,0,1-.869-.89l-.438-.563.683-.2c.117-.034.26-.088.4-.14.561-.209,1.007-.375,1.288-.008a2.556,2.556,0,0,1,.326.591,20.473,20.473,0,0,0,2.28-2.7l.059.042.119-.285.677-.946c1.484-2.094,3.013-4.253,5.434-5.6a2.336,2.336,0,0,1-1.03-1.673c-.059-1.091.928-1.981,1.9-2.708.835-.624,1.679-1.242,2.521-1.857l1-.735a9.206,9.206,0,0,0,.082-1.491c0-1.688.006-3.432,2.988-5.135,3.723-2.123,7.149-6.582,6.607-11.852l-8.292.559c.13.507.27,1.014.408,1.518a28.1,28.1,0,0,1,1.009,4.705c.136,1.418-.031,2.151-.559,2.452-.658.381-1.43-.184-2.178-.729a5.158,5.158,0,0,0-.926-.584c0,.036-.01.1-.019.207-.142,2.155-1.64,3.248-2.961,4.211-1.148.838-2.232,1.627-2.481,3.024-.14.785-1.516,1.225-2.323,1.418-2.014.48-3.166.752-3.413,1.171-.205.348.013,1.133.377,2.435l.08.291c.015.05,1.208,5.191.038,5.535a4.5,4.5,0,0,0-3.539,3.79l-.184.934-.645-.7c-.134-.144-.287-.281-.44-.417a3.136,3.136,0,0,1-.994-1.263,14.715,14.715,0,0,1-.5-2.381,12.322,12.322,0,0,0-1.263,2.169,39.673,39.673,0,0,1-5.034,9.576c-1.376,1.788-1.931,3.223-1.742,4.515C195.835,79.653,197.018,81.1,199.456,82.871Zm2.111-9.911.454.452a2.644,2.644,0,0,0,.209.178c.289.237.615.5.528.9a3.977,3.977,0,0,1-.463,1.068c-.061.113-.126.226-.182.339l-.3.6-1.42-1.413Z" transform="translate(-172.058 21.091)"/><path class="b" d="M201.831,53.429c-.009-.057-.011-.115-.021-.172a4.374,4.374,0,0,1-.4-.266l-.551.438Z" transform="translate(-166.289 39.976)"/><path class="b" d="M339.7,101.782l.023.1.615-.234c0-.287-.01-.589-.012-.9C340.105,101.1,339.9,101.449,339.7,101.782Z" transform="translate(-14.386 92.219)"/><path class="b" d="M348.823,95.685c1.751-.155,1.956-1.175,2.215-2.465a4.007,4.007,0,0,1,1.049-2.364L348.227,85.8l-1.11,4.249a16.394,16.394,0,0,0-.308,1.713c-.069.475-.138.955-.235,1.407l.344-.341c.056-.056.119-.132.18-.207.235-.287.492-.607.9-.524h0a4.081,4.081,0,0,1,1.061.457c.113.065.229.128.344.186l.6.3-1.42,1.42-2.048-1.129a3.129,3.129,0,0,1-1.116,2.023,8.928,8.928,0,0,1-4.236.988,19.468,19.468,0,0,0-2.173.239c-.132.027-.358.3-.529.5a3.477,3.477,0,0,1,1.56,1.989c.281,1.194-.425,2.285-1.108,3.338-.628.972-1.225,1.891-1.024,2.787.421,1.9,1.129,5.072-1.654,7.5-.377.331-.262.668.333,1.654.674,1.118,1.7,2.81-.572,4.414a1.255,1.255,0,0,0-.6.743c-.077.459.352,1.056.806,1.688.855,1.194,2.023,2.829.391,4.754a2.732,2.732,0,0,0-.806,2.572c.329,1.074,1.6,1.994,3.489,2.521l.266.075.161.337c.107.387-.188.693-.595,1.118-.237.247-.865.9-.785,1.129.006.015.134.327,1.493.478,2.012.2,3.51-.513,4.209-2.071.046-.243-.613-1.11-.965-1.577a12.5,12.5,0,0,1-.915-1.323l-.257-.44a5.171,5.171,0,0,1-.886-2.18c-.157-2.184-.088-4.341,2.337-8.6a10.725,10.725,0,0,1-.385-2.586,2.428,2.428,0,0,1,.865-1.493c.151-.163.3-.327.427-.49l.6-.808.255.986c.4-7.505.212-8.462,0-8.736l-.444-.561.687-.2c.117-.034.259-.088.4-.14.561-.214,1.01-.375,1.292,0a3.674,3.674,0,0,1,.525,1.189c.036.119.072.239.111.354a10.159,10.159,0,0,1,3.019-3.742,1.377,1.377,0,0,0-.065-.454c-.187-.515-.392-1.024-.6-1.533a4.127,4.127,0,0,1-.534,1.252c-.3.446-.944.383-1.627.318a4.709,4.709,0,0,0-.628-.042l-.672.006.205-.639a4.092,4.092,0,0,0-.026-1.621,3.3,3.3,0,0,1,.306-2.574A2.366,2.366,0,0,1,348.823,95.685ZM340.364,120l-.3-.6c-.056-.115-.119-.228-.182-.339a4.042,4.042,0,0,1-.463-1.066c-.086-.4.243-.672.532-.9.074-.061.149-.121.207-.178l.453-.45,1.177,2.121Zm1.7-17.839-1.422-1.418.6-.3c.115-.059.231-.121.346-.186a4.058,4.058,0,0,1,1.062-.456c.4-.08.67.237.9.523.063.076.124.151.18.207l.46.459Z" transform="translate(-19.077 75.867)"/><path class="b" d="M341.049,96.245c.059-.241.13-.48.211-.716h-.021A4.926,4.926,0,0,0,341.049,96.245Z" transform="translate(-12.913 86.515)"/><path class="b" d="M341.494,96.366c-.263,1.56-.608,4.079-1.024,7.541l0,.031c0,.457,0,.917,0,1.365l.434,1.64-.4.151a16.006,16.006,0,0,0,.628,4.965c.185-.471.39-.953.6-1.443.848-1.983,1.723-4.035,1.259-5.522C342.064,102.177,341.132,99.2,341.494,96.366Z" transform="translate(-13.553 87.43)"/><path class="b" d="M229.117,29.5a2.021,2.021,0,0,1,1.434.369,4.463,4.463,0,0,0,.473.23l.492.195-.434.884a9.6,9.6,0,0,1-.494.949c-1.441,2.335-3.627,2.241-5.56,2.153l-.3-.013a3.979,3.979,0,0,0,1.32.909,3.814,3.814,0,0,0,1.1.109c.936.01,2.312.025,2.55,1.795.323-.121.75-.48,1.468-1.512.565-1.248.812-1.736,1.143-1.805l1.759-2.911-.653,2.042a1.856,1.856,0,0,1,1.413-.557.851.851,0,0,1,.635.634,2.557,2.557,0,0,1-.318,2.262,26.214,26.214,0,0,1-2.664,2.065l-.525.373a9.974,9.974,0,0,0-.262,1.3c3.331-.58,6.667-1.323,8.38-4.672a2.926,2.926,0,0,1-1.282-.121,4.452,4.452,0,0,1-1.315-.923c-.153-.14-.306-.279-.463-.4l-.664-.526.789-.3c.161-.063.321-.132.48-.2a5.457,5.457,0,0,1,1.252-.429,6.965,6.965,0,0,1,1.413-.046l.075,0v-.1l.182.04c.117-.283.253-.582.394-.882.241-.511.741-1.577.611-1.805-.861-1.265-1.1-2.031-.794-2.559.348-.607,1.152-.547,1.935-.49a2.845,2.845,0,0,0,1.12-.044,6.6,6.6,0,0,1,1.225-2,5.761,5.761,0,0,0,1.068-1.719c.262-.836.544-1.426,1.07-1.6.544-.178,1.036.178,1.656.634l.291.212c1.663,1.192,3.468,2.259,5.216,3.294.557.329,1.114.658,1.669.993a4.948,4.948,0,0,0-.967-2.611c-1.022-1.759-2.291-3.947.915-6.094a6.919,6.919,0,0,0-.136-1.822c-.033-.218-.065-.436-.092-.645l-.4.22c-.768.425-1.566.863-2.391,1.225-.764.335-1.564.62-2.337.9a17.541,17.541,0,0,0-4.079,1.849,22.433,22.433,0,0,0-3.572,3.323c-.614.658-1.229,1.317-1.877,1.933a2.633,2.633,0,0,1-1.61.544l-.226-.027-.193-.22c-.346-.536-.672-.836-.942-.867-.379-.046-.832.408-1.282.846-.716.7-1.684,1.638-2.915,1.022-.188.172-.508.534-.777.838-.911,1.034-2.046,2.322-3.139,2.551-.461.1-.921.165-1.374.232-1.661.245-3.095.457-4.064,1.968a3.388,3.388,0,0,0-.283.582c.186-.065.375-.13.565-.193C226.221,30.393,227.664,29.9,229.117,29.5Zm7.256-1.83,1.424,1.418-.6.3c-.117.057-.23.119-.347.184a4.055,4.055,0,0,1-1.062.457.722.722,0,0,1-.132.013c-.329,0-.561-.283-.771-.538-.061-.073-.121-.151-.178-.207l-.458-.454Z" transform="translate(-140.686 -2.52)"/><path class="b" d="M299,23.137a4.206,4.206,0,0,0-1.516,1.089c-.123.115-.247.232-.371.343l1.392,1.388c2.065-.232,3.552.718,5.141,1.876.195.147,1.041-.182,1.6-.4a5.241,5.241,0,0,1,2.643-.555c5.859,1.152,6.057,1.443,9.882,8.429l.193-.195.115.624,4.89,1.625V35.8l.277-.132a2.739,2.739,0,0,1,1.694-.036c.473.09.924.172,1.162,0a1.439,1.439,0,0,0,.373-.917c-.061-.415-1.8-6.745-2.115-7.606-.677-.6-1.34-1.219-2-1.841a38.406,38.406,0,0,0-4.908-4.1c-1.035-.681-2.161-.211-3.462.329-1.531.634-3.245,1.346-4.94.046-1.755,3.26-4.318,2.569-6.588,1.958A6.784,6.784,0,0,0,299,23.137Zm22.941,5.093c.073-.061.149-.121.205-.178l.455-.448,1.177,2.117-1.422,1.413-.3-.595c-.056-.113-.12-.226-.18-.339a4.009,4.009,0,0,1-.465-1.066C321.327,28.731,321.656,28.465,321.944,28.23Zm-2.31,4.341c.117-.034.259-.088.4-.14.562-.207,1.005-.377,1.29-.008a3.637,3.637,0,0,1,.523,1.183c.042.138.084.274.13.406l.078.218a11.182,11.182,0,0,1,1.172.974l.071.069-.668.7a9.658,9.658,0,0,0-1.786-1.378,4.4,4.4,0,0,1-.483-.291l-1.02-.609h.339c-.109-.124-.2-.243-.291-.358l-.44-.561Z" transform="translate(-60.977 4.788)"/><path class="b" d="M215.48,43.05a32.959,32.959,0,0,1,3.128-2.345l.67-.431a9.747,9.747,0,0,1,4.345-1.939c2.844-.2,6.393-.8,8.636-3.721,1.742-2.27,3.857-2.218,5.9-2.178.385.008.77.017,1.16.01l3.506-5.244-1.353-1.351c-.245.186-.486.375-.728.565a15.638,15.638,0,0,1-2.616,1.788c-.41.205-.84.373-1.269.538a6.131,6.131,0,0,0-2.222,1.221l-.031.392-.352-.084a6.384,6.384,0,0,1-3.526.984c-.429-.027-.557-.419-.7-1.122-.035-.163-.067-.325-.1-.45l-.13-.5.5-.1c.232-.046.465-.1.7-.153a10.18,10.18,0,0,1,1.874-.306,1.377,1.377,0,0,1,.783.325l.071.05c.036-1.476-.245-2.479-.842-2.992s-1.56-.6-2.953-.272a9.309,9.309,0,0,0-2.469,1.162c-.391.232-.785.465-1.183.67l-.651.333-.054-.729c-.061-.859-.373-1.432-.878-1.615a1.057,1.057,0,0,0-.364-.063,1.589,1.589,0,0,0-1.112.513,40.9,40.9,0,0,0-3.262,4.046,31.835,31.835,0,0,1-4.408,5.151c-3.428,3-2.929,5.62-.978,8.575C214.879,43.54,215.179,43.3,215.48,43.05Zm5.128-10c.065-.113.128-.224.176-.322.476-.953.961-1.9,1.447-2.85l.827-1.621.469.471a4.681,4.681,0,0,1,.316.356,1.733,1.733,0,0,0,.481.461c2.423,1.022,3.409,1.439,3.569,2.287.155.827-.593,1.552-2.228,3.137-.385.375-.787.764-1.242.764a.8.8,0,0,1-.3-.057c-.4-.153-.657-.58-.817-1.432a2.4,2.4,0,0,1-1.671,1.118,1.69,1.69,0,0,1-1.338-.848C220.014,34.107,220.3,33.592,220.609,33.047Z" transform="translate(-152.959 9.897)"/><path class="b" d="M295.348,19.279a1.092,1.092,0,0,1,1.175.027l.31.255-.161.419a6.129,6.129,0,0,1-.685.957l-.55.7-.291-.289c-.157.5-.284,1.022-.172,1.189,1.07,1.608,5.612,3.464,9.168,3.744,1.475.113,2.561-.071,2.97-.513a6.321,6.321,0,0,0,1.055-3.2c.052-.335.108-.674.172-1.011a2.174,2.174,0,0,1-1.405-.214,3.136,3.136,0,0,1-1.2-2.222c-.226-.972-.381-1.437-.842-1.493a6.7,6.7,0,0,0-4.094.75c-.853.54-1.449.873-2.008.643s-.756-.944-.943-1.782a6.22,6.22,0,0,0-1.828-2.773c-.666-.672-1.269-.965-1.727-.852-.5.136-.925.81-1.2,1.9a2.778,2.778,0,0,0-.019.81,3.415,3.415,0,0,1-.036,1.091,4.092,4.092,0,0,1-.6,1.252c-.092.149-.184.3-.268.446l-.4.725a15.465,15.465,0,0,0,2.472-.17C294.617,19.355,294.975,19.061,295.348,19.279Z" transform="translate(-66.832 -3.139)"/><path class="b" d="M283.416,16.946c.142.109.291.235.446.364.427.36,1.141.936,1.435.9a15.974,15.974,0,0,1,3.1-.287,36.633,36.633,0,0,1,6.783.84,38.272,38.272,0,0,0,6.787.852l-.36-.748c-.113-.232-.214-.473-.314-.714a5.73,5.73,0,0,0-.735-1.39,5.637,5.637,0,0,0-1.193-1.011c-.084-.059-.166-.115-.245-.174l-1.52,1.878-.821-2.054-.243.013a5.469,5.469,0,0,1-1.405-.05,5.223,5.223,0,0,1-1.566-.741c-.578-.352-1.238-.748-1.566-.586-.2.1-.563.515-.748,2.2a1.41,1.41,0,0,1-1.269,1.231,2.987,2.987,0,0,1-3.02-1.88,6.236,6.236,0,0,0-1.166-1.55c-.082-.088-.161-.174-.241-.262-.031.054-.065.109-.1.161-.389.637-.791,1.292-1.419,1.367-1.54.186-1.678.465-1.684.477S282.323,16.088,283.416,16.946Z" transform="translate(-77.135 -2.926)"/><path class="b" d="M331.986,54.318c-.253-.046-.628.253-1.041.567l-.394.291c-1.94,1.395-1.311,2.276-.36,3.608a6.074,6.074,0,0,1,.951,1.7l.117-.04v.494c2.628,2.85,3.887,6.483,3.864,11.067l0,0v.144c0,.134.006.26,0,.4.371.524.758,1.034,1.148,1.547a24.691,24.691,0,0,1,2.6,3.947c1.535,3.158,3.1,5.212,6.127,5.694a3.13,3.13,0,0,0,2.222-.354,2.362,2.362,0,0,0,.276-1.964,32.59,32.59,0,0,0-1.4-2.961,23.284,23.284,0,0,1-1.884-4.377c-1.38-5.011-4.435-9.12-7.39-13.092-1.435-1.931-2.919-3.928-4.2-6.012C332.384,54.584,332.158,54.35,331.986,54.318Zm4.37,13.126c.118-.059.23-.121.344-.184a4.029,4.029,0,0,1,1.068-.459c.406-.092.666.239.9.524a2.68,2.68,0,0,0,.178.207l.482.475-.605.3c-.113.057-.227.119-.339.182a4,4,0,0,1-1.072.461.562.562,0,0,1-.13.015c-.329,0-.561-.285-.771-.538a2.657,2.657,0,0,0-.18-.209l-.475-.475Z" transform="translate(-25.783 41.423)"/><path class="b" d="M341.578,120.133c-.354-.813-.89-2.04-1.164-2.111l-.03,0a4.964,4.964,0,0,0-1.4.919l-.44.337a5.737,5.737,0,0,0-2.092,7.015c1.143,2.557-.272,4.372-1.52,5.976-1.229,1.575-2.291,2.938-1.116,4.881l.12.195-.08.249a1.982,1.982,0,0,1-.94.9l-.438.166a9.7,9.7,0,0,1-2.387.672,4.041,4.041,0,0,0-3.214,1.832,3.61,3.61,0,0,0-.165,3.093,4.37,4.37,0,0,0,.859-.249c.038-.193.069-.392.1-.591.142-.919.276-1.784.968-1.975.565-.157,1.187.249,2.09,1.344.706.856,1.188.6,2.207-.054.993-.647,2.353-1.523,3.985-.094l.05.044a8.926,8.926,0,0,0,.044-.934,4.633,4.633,0,0,1,.331-2.111c.708-1.208,1.331-2.182,1.954-3.064,1.6-2.249,1.659-4.852,1.726-7.608.059-2.6.122-5.283,1.56-7.691l-.015-.012A3.171,3.171,0,0,1,341.578,120.133Z" transform="translate(-28.894 111.119)"/><path class="b" d="M289.938,162.583a1.852,1.852,0,0,0-.6-.048,4.052,4.052,0,0,1-1.271,2.875c-1.056.842-2.48.616-3.853.394a6.272,6.272,0,0,0-2.442-.1,9.813,9.813,0,0,1-3.608.076c-1.908-.2-3.711-.39-5.2,1.26l-.42.463-.345-.521c-.149-.228-.289-.469-.427-.71a5.071,5.071,0,0,0-.99-1.366,1.953,1.953,0,0,0-.932-.088l-.151,0c.008.121.015.243.021.364a6.32,6.32,0,0,1-.114,2.146c-.228.8-.982,2.04-1.874,2.178a3,3,0,0,1-2.762-1.338,52,52,0,0,1-1.709-5.7l-.316-1.214c-.411-1.546-1.227-1.437-2.463-1.267a6.29,6.29,0,0,1-1.453.082c-.076.224-.159.459-.247.693-.191.521-.511,1.395-.365,1.617.5.75.963,1.566,1.409,2.358,1.926,3.4,3.757,6.615,8.8,5.4l5.011-.362c5.072-.356,10.317-.724,15.471-1.158a4.89,4.89,0,0,0,2.681-.833A4.316,4.316,0,0,0,289.938,162.583Z" transform="translate(-103.35 156.939)"/><path class="b" d="M337.643,71.339a5.184,5.184,0,0,0-1.363,1.782c-.034.063-.067.124-.1.184a2.739,2.739,0,0,1,1.156.13,4.344,4.344,0,0,1,1.315.923c.153.138.306.276.465.4l.664.528-.792.3c-.161.063-.321.132-.48.2a5.378,5.378,0,0,1-1.252.427,6.686,6.686,0,0,1-1.416.046l-.073,0v.1c2.917,1.265,3.231,2.172,2.3,5.889-.027.1-.056.216-.074.3,2.77,2.427,1.6,4.758.567,6.816a16.583,16.583,0,0,0-.8,1.755,3.435,3.435,0,0,0,1.55,4.358,11.585,11.585,0,0,0,1.881.938,4.842,4.842,0,0,0,1.29-2.448c.331-1.92-.159-3.608-1.637-5.65a2.584,2.584,0,0,1-.454-2.494c.452-1.244,1.96-2.272,4.14-2.823a4.814,4.814,0,0,0,1.143-.358,3.867,3.867,0,0,0-.072-.676l-.037-.249c-.354-2.458-1.65-4.431-3.02-6.521a25.776,25.776,0,0,1-2.446-4.314A5.238,5.238,0,0,0,337.643,71.339Z" transform="translate(-18.694 59.545)"/><path class="b" d="M339.2,111.64c-.549-.4-1.1-.8-1.642-1.214-.1.042-.215.086-.324.128-.13.05-.308.12-.436.174.293,4.693-.9,8.395-3.658,11.291l.056.033a2.78,2.78,0,0,0,1.087.492,2.671,2.671,0,0,0,1.43-.593,3.1,3.1,0,0,1,2.36-.691,2.789,2.789,0,0,1,1.617,1.43,2.294,2.294,0,0,0,1.16-.155c.978-.6,3.129-6.578,2.672-7.434A42.609,42.609,0,0,0,339.2,111.64Z" transform="translate(-21.564 102.813)"/><path class="b" d="M225.875,151.386h0c-.408-.176-.825-.329-1.231-.482-1.418-.522-2.758-1.014-3.223-2.232a4.164,4.164,0,0,1,.565-3.359,8.4,8.4,0,0,0-2.36-1.887,2.291,2.291,0,0,0-1.828.62c-.358.486-.056,1.041.467,1.908a3.372,3.372,0,0,1,.731,2.542,2.7,2.7,0,0,1-1.382,1.556,1.679,1.679,0,0,0,.063.438c.04.126.077.26.115.4.09.329.228.825.391.928,2.484,1.552,5.057,3.078,7.782,4.695l2.121,1.26.006-.031a12.727,12.727,0,0,1,.241-1.455A4.089,4.089,0,0,0,225.875,151.386Z" transform="translate(-147.96 138.875)"/><path class="b" d="M328.226,133.5c-.425-.35-.861-.7-1.239-1.049l-.1.107a2.37,2.37,0,0,0-.482.658c.564,4.619.193,6.295-3.346,8.47a2.141,2.141,0,0,0-1.091,2.37,6.9,6.9,0,0,1-.014.972l2.033,1.638-2.067.821v.894l1.481-.571-.873.871a1.276,1.276,0,0,0,.566-.058c4.643-2.364,5.8-6.965,6.921-11.417.126-.5.254-1,.382-1.5C330.461,135.323,329.007,134.134,328.226,133.5Z" transform="translate(-33.838 126.904)"/><path class="b" d="M295.484,159.966c-3.143,2.014-6.542,1.954-9.838,1.9a38.125,38.125,0,0,0-3.947.065c-.907.078-1.954,1.053-2.718,1.765a3.033,3.033,0,0,0,.077,1.037c1.967.576,3.964,1.062,6.267,1.621l1.791.438,1.631-.852c2.423-1.265,5.166-2.7,7.809-4.178a2.456,2.456,0,0,0-.187-1.179A2.073,2.073,0,0,0,295.484,159.966Z" transform="translate(-80.842 157.012)"/><path class="b" d="M243.877,157.443l-.727-.538c-1.941-1.437-3.947-2.923-5.962-4.32a1.943,1.943,0,0,0-.835,0,3.841,3.841,0,0,0,.387.875,5.119,5.119,0,0,0,.8.854c.14.132.283.262.417.4l.513.517-.676.272c-.239.1-.515.237-.789.379-.871.444-1.552.8-2.015.415a21.394,21.394,0,0,1-2.634-2.777c-.249-.3-.5-.59-.749-.881h-.293v-.01l-.09,0a8.06,8.06,0,0,0-1.219.021c-.819.1-1.633.241-2.448.381l-.348.059c.065.113.128.228.193.344.339.62.691,1.261,1.1,1.42,3.2,1.234,6.521,2.341,9.731,3.409l2.846.953a2.24,2.24,0,0,1,.674-1.309A2.817,2.817,0,0,1,243.877,157.443Z" transform="translate(-137.464 148.885)"/><path class="b" d="M261.7,159.988l-.054.006a24.107,24.107,0,0,0-3.97.614c-.145,1.554-.4,2.567-1.158,2.819-.67.22-1.428-.234-2.62-1.579-.149-.17-.3-.352-.446-.538a4.284,4.284,0,0,0-1.273-1.225c-.724.66-2.125,4.837-2.056,6.02a1.606,1.606,0,0,0,.574-.186,2.8,2.8,0,0,1,1.665-.941.968.968,0,0,1,.364.069c.7.276.84,1.221.884,2.012a1.634,1.634,0,0,0,.614,1.3,2.236,2.236,0,0,0,.115-.482c.327-2.609,1.648-2.82,2.927-3.024a7.282,7.282,0,0,0,1.16-.254,9.813,9.813,0,0,0,3.147-2.184c.345-.308.685-.614,1.03-.9-.192-.314-.356-.605-.5-.858S261.8,160.126,261.7,159.988Z" transform="translate(-112.39 157.036)"/><path class="b" d="M306.112,155.948l-.044.461c-.059.6-.68.831-1.177,1.011a2.855,2.855,0,0,0-.559.249,6.3,6.3,0,0,0,.626.569,1.647,1.647,0,0,0,1.277.224c3.435-1.286,5.327-3.928,5.941-8.3a3.516,3.516,0,0,0-1.28-.322C306.644,149.825,306.428,152.652,306.112,155.948Z" transform="translate(-53.084 145.934)"/><path class="b" d="M298.656,156.427c-.1.1-.22.232-.312.343-2.039,2.471-4.835,3.642-7.539,4.776-.637.266-1.271.53-1.9.815a2.367,2.367,0,0,0-.178,1.158,1.14,1.14,0,0,0,.136.388c.869-.167,1.73-.31,2.576-.45a30.086,30.086,0,0,0,5.9-1.367c2.169-.829,2.245-3.252,1.929-5.137C299.243,156.827,298.866,156.567,298.656,156.427Z" transform="translate(-70.165 153.14)"/><path class="b" d="M250.423,159.909a54.9,54.9,0,0,0-7.076-2.109c-.741-.186-1.483-.373-2.219-.565a1.5,1.5,0,0,0-1.093-.006l0,.013h-.05l-.025.006c-.2.176-.259.655-.165,1.346a3.524,3.524,0,0,0,.224,1.018,4.261,4.261,0,0,0,1.219-.308,2.678,2.678,0,0,1,.861-.132c2.289,0,5.587,2.324,7.453,4.1a3.531,3.531,0,0,0,2.17.632c.025-.04.266-.35.459-.6.144-.184.3-.389.484-.6-.184-.268-.365-.557-.544-.85A4.666,4.666,0,0,0,250.423,159.909Z" transform="translate(-123.735 153.913)"/><path class="b" d="M253.931,160.376c.05,0,.1-.01.151-.017-.017-.216-.025-.425-.034-.616a3.529,3.529,0,0,0-.094-.836c-.2-.13-.444-.3-.685-.473a10.727,10.727,0,0,0-3.734-2.01,18.746,18.746,0,0,0-4.531-.159c-.494.021-.986.044-1.476.055.312,1.25,1.112,1.162,2.331,1.02a3.509,3.509,0,0,1,2.6.364,28.6,28.6,0,0,0,4.544,2.643A2,2,0,0,0,253.931,160.376Z" transform="translate(-119.607 152.899)"/><path class="b" d="M303.775,152.437a29.567,29.567,0,0,0-2.088,2.814c.145.188.45.517.7.789.216.228.453.482.691.748l3.089-2.952-1.952-1.954C304.072,152.066,303.923,152.253,303.775,152.437Z" transform="translate(-55.977 148.168)"/><path class="b" d="M300.1,155.378c-.233,0-.675.454-.968.756l-.063.063c.488.662,1.91,2.35,2.565,3.047.595-.723,1.217-1.5,2.073-2.559l.53-.662c-.434-.08-.831-.157-1.2-.23A16.038,16.038,0,0,0,300.1,155.378Z" transform="translate(-58.845 151.993)"/><path class="b" d="M314.986,144.615a18.994,18.994,0,0,1-1.422,1.7,9.745,9.745,0,0,1-1.376,1.095c-.1.069-.2.138-.3.209l.123.314h-.2c0,.285,0,.572-.019.855a2.332,2.332,0,0,0,.2,1.61,1.607,1.607,0,0,0,1.055.4l3.46-3.451-1.434-2.856C315.047,144.538,315.018,144.578,314.986,144.615Z" transform="translate(-44.958 140.091)"/><path class="b" d="M319.307,144.787a2.21,2.21,0,0,0-.7-.251,44.53,44.53,0,0,0-4.036,3.143,7.14,7.14,0,0,0,.559,1.1,1.633,1.633,0,0,0,.2.073c1.265-.85,2.5-1.732,3.57-2.492l.534-.379c-.044-.344-.067-.62-.086-.833C319.332,145.009,319.321,144.875,319.307,144.787Z" transform="translate(-41.883 140.131)"/><path class="b" d="M291.343,15.4l1.342-2.049-3.546-.458.877,2.507Z" transform="translate(-69.706 -3.896)"/><path class="b" d="M218.644,144.273a1.058,1.058,0,0,0,1.131.258,1.417,1.417,0,0,0,.911-1.147,2.29,2.29,0,0,1-1.433-.7,3.029,3.029,0,0,1-.44-2.32c.015-.19.03-.377.036-.557a2.294,2.294,0,0,0-1.313,1.334C217.237,142.163,217.975,143.409,218.644,144.273Z" transform="translate(-148.117 134.957)"/><path class="b" d="M325.159,142.269l-.074.3-.3.061c-.875.186-1.755.366-2.632.542-2.72.555-5.535,1.126-8.232,1.9a8.161,8.161,0,0,0-.22,1.641c-.015.2-.033.4-.05.6.715-.19,1.485-.444,2.232-.7,2.417-.8,4.7-1.56,6.054-.622,1.185.825,2.05,1.152,2.567.99s.8-.934,1.1-1.744a9.44,9.44,0,0,1,.59-1.386l.079-.107,2.911-2.9c-.333-.029-.666-.086-1-.14C326.664,140.432,325.649,140.262,325.159,142.269Z" transform="translate(-42.885 135.758)"/><path class="b" d="M197.352,120.382a2.27,2.27,0,0,0,3.024,3.015,2.975,2.975,0,0,0-.446-2.565A3.011,3.011,0,0,0,197.352,120.382Z" transform="translate(-170.207 113.627)"/><path class="b" d="M333.024,69.622a7.809,7.809,0,0,0,.754,1.751l.176.335,1.284-.536-1.828-2.151A2.289,2.289,0,0,0,333.024,69.622Z" transform="translate(-21.693 57.513)"/><path class="b" d="M223.588,152.342a2.359,2.359,0,0,0,1.619.2c.283-.021.569-.042.858-.04v-2.54L223.2,151.4A1.514,1.514,0,0,0,223.588,152.342Z" transform="translate(-141.851 146.07)"/><path class="b" d="M275.351,160.372a4.273,4.273,0,0,0,1.466.634,3.409,3.409,0,0,0,1.456-.272l-1.208-.94Z" transform="translate(-84.79 156.824)"/><path class="b" d="M308.046,28.618l-2.467,2.463a2.493,2.493,0,0,0,1.954-.515A2.47,2.47,0,0,0,308.046,28.618Z" transform="translate(-51.719 13.31)"/><path class="b" d="M308,147.409a3.513,3.513,0,0,0-.656.281l-.084.038c.061.113.123.226.184.339a4.129,4.129,0,0,0,1.082,1.489,4.989,4.989,0,0,0,1.024-.409c.081-.036.165-.073.247-.111-.09-.088-.176-.18-.262-.266A8.968,8.968,0,0,0,308,147.409Z" transform="translate(-49.884 143.274)"/><path class="b" d="M309.46,146.6a2.469,2.469,0,0,0-.513,1.945l2.467-2.461c-.1,0-.207-.008-.306-.008A2.259,2.259,0,0,0,309.46,146.6Z" transform="translate(-48.045 141.816)"/><path class="b" d="M191.1,106.336l.111.061a1.989,1.989,0,0,0,.714.3,2.482,2.482,0,0,0,.888-.593l-1.367-.565Z" transform="translate(-176.968 97.461)"/><path class="b" d="M232.507,152.637v-.911c-.3-.008-.576-.017-.859-.037a2.315,2.315,0,0,0-1.617.2,1.308,1.308,0,0,0-.36.748h2.836Z" transform="translate(-134.767 147.914)"/><path class="b" d="M336.719,89.865a1.521,1.521,0,0,0,.333.515l.645-1.244-.48-.723A4.812,4.812,0,0,0,336.719,89.865Z" transform="translate(-17.65 78.73)"/><path class="b" d="M236.251,155.343c-.05.006-.1.008-.149.011v.982h.892l-.025.021a4.015,4.015,0,0,0,.459-.036,3.854,3.854,0,0,0,.821-.274,3.238,3.238,0,0,0-.928-.658A2.667,2.667,0,0,0,236.251,155.343Z" transform="translate(-127.731 151.923)"/><path class="b" d="M235.062,157.02l.942-.756H234.49Z" transform="translate(-129.495 152.962)"/><path class="b" d="M239.015,158.277a11.624,11.624,0,0,0-1.69,0c0,.111,0,.23,0,.335.5.078,1.03.115,1.623.157l.1.008-.008-.144C239.028,158.5,239.021,158.379,239.015,158.277Z" transform="translate(-126.397 155.131)"/><path class="b" d="M248.124,161.182a1.92,1.92,0,0,0,.3.708l.061.113.808-.345-.572-1.363A2.48,2.48,0,0,0,248.124,161.182Z" transform="translate(-114.582 157.371)"/><path class="b" d="M335.448,72.524h-.278l.278.278Z" transform="translate(-19.345 61.346)"/><path class="b" d="M312.809,148.2c.134.1.266.207.4.3l.014-.017-.312-.381Z" transform="translate(-43.809 144.025)"/><path class="b" d="M252.946,159.3l.274.35a3.291,3.291,0,0,0-.153-.394Z" transform="translate(-109.303 156.239)"/><path class="b" d="M277.942,13.631h-.2l.068.168Z" transform="translate(-82.18 -3.087)"/><path class="b" d="M280.787,11.248l-.136.168h.2Z" transform="translate(-78.993 -5.694)"/><path class="b" d="M241.527,20.593c-1.587.147-2.693,1.227-3.866,2.368-1.42,1.386-2.884,2.827-5.252,2.553v.875h.232l0,.008h.031c2.509.031,4.7.069,6.391-2.3.576-.8,1.778-1.024,2.942-1.238.335-.061.676-.124.995-.2a8.313,8.313,0,0,0-.369-2.2c-.04.006-.289.031-.488.059C241.965,20.543,241.764,20.57,241.527,20.593Z" transform="translate(-131.77 4.384)"/><path class="b" d="M246.387,23.165c.9-1.522,2.584-1.51,4.056-1.5,2.035-.006,3.329-.092,3.75-2.264.249-1.29,4.8-1.183,4.842-1.175a19.7,19.7,0,0,1,6.236,1.2c.26.092,1.232-.423,1.759-.7,1.179-.62,2.286-1.2,2.986-.595.582.507.544,1.589-.149,3.673l.031,0a2.887,2.887,0,0,0,.8,0c.136-.205.319-.48.5-.748.655-.982,1.334-2,2.444-2.151a3.615,3.615,0,0,1,2.716,1.139c.815.7.812.693,3.34-1.529l.478-.421c.58-.521,1.183-1.064,1.753-.877,3.993,1.273,7.872.733,11.982.159l1.432-.2c1.688-.226,2.94-.337,3.853-.421,2.3-.205,2.494-.222,3.16-1.277a9.462,9.462,0,0,1,5.141-4.213,12.637,12.637,0,0,0,.226-1.445c.044-.339.09-.7.151-1.072-1.077.017-2.084.021-3.041.023a60.168,60.168,0,0,0-6.261.226c-2.8.3-5.639.7-8.385,1.078-3.03.423-6.163.859-9.258,1.173-.057.006-5.658.446-6.113-1.091-.247-.84-.576-1.346-.978-1.51a1.981,1.981,0,0,0-1.612.377c-2.808,1.594-5.834,1.765-8.764,1.929a29.326,29.326,0,0,0-5.277.616l-.216.052-.182-.13c-1.987-1.428-3.2-.444-5.009,1.279-1.414,1.344-2.995,2.852-5.164,1.97.027.193.054.383.083.576a21.151,21.151,0,0,1,.327,3.859c-.027.609-.547,1.06-1.051,1.493a4.469,4.469,0,0,0-.725.722c-.314.463-.94.431-1.493.4a5.017,5.017,0,0,0-.5-.008,3.484,3.484,0,0,0,.427.725A3.871,3.871,0,0,0,246.387,23.165Zm30.439-8.818c.013-.128.023-.253.029-.381a4.036,4.036,0,0,1,.2-1.152l0,0c.147-.381.563-.427.932-.469.1-.01.193-.019.272-.036l.632-.136-.18,2.425-1.96.419Z" transform="translate(-118.813 -8.595)"/><path class="b" d="M186.855,86.232c2.169-.276,2.793,1.213,3.258,2.3.479,1.118.727,1.6,1.8,1.277,1.357-.408,2.1-.394,2.481.046.471.545.1,1.338-.3,2.182-.086.182-.172.364-.247.544a4.346,4.346,0,0,0,.576.687,3.619,3.619,0,0,0,1.585-2.662,4.04,4.04,0,0,0-1.65-3.315,9.853,9.853,0,0,1-1.621-1.91l-.257-.36a1.977,1.977,0,0,1-.281-1.267l.057-.222.224-.126c2.057-.959,1.935-2.68,1.793-4.676-.143-2.025-.308-4.322,2.067-5.809a5.731,5.731,0,0,0,2.169-6.99l-.176-.526c-.243-.733-.494-1.493-.678-1.558-.264-.1-1.4.626-2.147,1.106a3.137,3.137,0,0,1-1.445.381l-.019,0c-.147,2.8-1.589,5.066-2.986,7.258-1.483,2.324-2.881,4.519-2.808,7.277.027,1.078,0,2.232-.084,3.631a4.664,4.664,0,0,1-.9,1.941,8.834,8.834,0,0,0-.482.8l.065-.006Z" transform="translate(-181.681 51.841)"/></g></g></svg>