<svg xmlns="http://www.w3.org/2000/svg" width="736.288" height="691.305" viewBox="0 0 736.288 691.305"><defs><style>.a,.b{font-size:14px;}.a,.d{font-family:Usual-Regular, Usual;}.b,.c{fill:#161616;font-family:Usual-Medium, Usual;font-weight:500;letter-spacing:0.1em;}.c,.d{font-size:12px;}.e{fill:#dfcf00;stroke:#dfcf00;}</style></defs><g transform="translate(-1045.212 -2793.998)"><g transform="translate(1045.212 2793.998)"><text class="a" transform="translate(346.501 45.89)"><tspan x="0" y="14">Body</tspan></text><text class="b" transform="translate(316.302 23.744)"><tspan x="5.85" y="14">ANNAMAYA</tspan></text><g transform="translate(0 0)"><path d="M4459.207,1786.44s-4.035-3.424-11.6-9.845c-7.013-6.872-17.5-16.987-27.982-32.084-2.548-3.805-5.113-7.891-7.871-12.133-2.493-4.391-5.062-9.015-7.656-13.87a241.158,241.158,0,0,1-13.487-32.9,262.1,262.1,0,0,1-12.86-83.736c.105-3.892.069-7.83.287-11.8q.428-5.946.865-12.008a183.438,183.438,0,0,1,3.692-24.427c3.512-16.4,11.46-32.248,22.819-46.172,11.238-14.049,25.3-26.411,40.186-38.3a213.559,213.559,0,0,1,23.526-16.648,115.834,115.834,0,0,1,26.8-11.859,282.821,282.821,0,0,1,29.378-6.765c10.006-1.91,20.069-3.824,30.236-5.457,20.292-3.264,41.169-5.322,61.977-3.282s40.972,8.808,60.635,16.6a544.361,544.361,0,0,1,57.624,26.907,200.683,200.683,0,0,1,26.746,16.754,109.259,109.259,0,0,1,11.725,10.28c1.78,1.854,3.561,3.8,5.126,5.749,1.615,2.071,3.266,4.133,4.623,6.255,1.486,2.058,2.723,4.331,4.054,6.521,1.167,2.283,2.456,4.509,3.456,6.87a112,112,0,0,1,5.447,14.351c1.527,4.886,2.671,9.876,3.706,14.877.927,5.023,1.747,10.062,2.3,15.132,1.179,10.125,1.635,20.316,1.838,30.443.175,10.118-.05,20.208-.721,30.2a293.163,293.163,0,0,1-9.656,58.4c-5.245,18.732-12.14,36.847-22.214,52.739-4.973,7.97-10.993,15.138-16.972,22.252-2.989,3.558-5.958,7.116-8.786,10.759s-5.455,7.383-8.011,11.129c-5.1,7.47-9.937,14.927-15.509,21.632a75.684,75.684,0,0,1-19.213,16.934,120.306,120.306,0,0,1-22.752,10.672c-3.919,1.4-7.776,2.9-11.642,4.17l-11.612,3.24-2.87.789-2.914.575-5.781,1.138-5.717,1.129c-1.908.3-3.826.468-5.721.707l-5.661.664c-1.88.184-3.734.532-5.6.536l-11.057.434a48.121,48.121,0,0,1-5.424-.032l-5.353-.2-5.282-.193c-1.748-.07-3.468-.35-5.185-.513l-10.139-1.126-9.729-1.785-4.75-.875-4.6-1.177-8.968-2.292c-2.9-.861-5.714-1.841-8.494-2.729l-4.124-1.345-2.031-.663-1.965-.778-7.66-3.034-3.708-1.469c-1.215-.5-2.375-1.087-3.544-1.617l-6.822-3.173-3.286-1.53c-1.074-.519-2.1-1.1-3.125-1.641-16.607-8.391-28.548-16.823-36.783-22.348-7.976-5.9-12.231-9.048-12.231-9.048Zm-.837.98,12.248,9.12c8.25,5.575,20.214,14.078,36.883,22.566,1.033.544,2.059,1.134,3.135,1.66l3.3,1.548,6.851,3.212c1.174.537,2.34,1.13,3.561,1.638l3.726,1.49,7.7,3.076,1.976.789,2.042.675,4.147,1.367c2.8.9,5.626,1.9,8.548,2.773l9.029,2.339,4.633,1.2,4.786.9,9.807,1.83,10.226,1.168c1.73.169,3.465.457,5.229.533l5.331.212,5.4.215a49.121,49.121,0,0,0,5.477.048l11.167-.406c1.89,0,3.764-.343,5.662-.522l5.721-.653c1.916-.236,3.852-.4,5.781-.7l5.779-1.119,5.843-1.134,2.946-.572,2.914-.79,11.8-3.257c3.894-1.272,7.738-2.752,11.667-4.139l2.946-1.061,1.515-.547,1.463-.6q2.927-1.212,5.839-2.541a109.716,109.716,0,0,0,11.416-6.042,77.932,77.932,0,0,0,19.8-17.332c5.7-6.822,10.6-14.324,15.7-21.747,2.544-3.706,5.172-7.409,7.965-11s5.766-7.115,8.764-10.663c5.991-7.082,12.136-14.346,17.233-22.456,10.3-16.151,17.321-34.442,22.678-53.334a295.625,295.625,0,0,0,9.934-58.889q1.063-15.109.826-30.436c-.172-10.2-.6-20.448-1.758-30.716-.542-5.134-1.358-10.256-2.285-15.368-1.037-5.093-2.187-10.184-3.732-15.19a115,115,0,0,0-5.545-14.75c-1.024-2.432-2.344-4.739-3.543-7.1-1.371-2.277-2.626-4.6-4.2-6.8-1.466-2.289-3.095-4.326-4.7-6.4-1.715-2.15-3.488-4.089-5.346-6.041a112.516,112.516,0,0,0-12.049-10.632,203.929,203.929,0,0,0-27.142-17.129,521.887,521.887,0,0,0-58.061-26.973c-19.778-7.767-40.28-14.611-61.566-16.622-21.243-2.012-42.375.159-62.772,3.5-10.218,1.675-20.308,3.627-30.3,5.569a285.246,285.246,0,0,0-29.648,6.931,118.6,118.6,0,0,0-27.362,12.21,216.085,216.085,0,0,0-23.76,16.925c-14.9,11.99-29.065,24.5-40.429,38.8a122.955,122.955,0,0,0-14.549,22.617,107.007,107.007,0,0,0-8.537,24.5,185.494,185.494,0,0,0-3.651,24.7q-.42,6.107-.831,12.1c-.206,4-.159,7.962-.249,11.882a263.9,263.9,0,0,0,13.226,84.257,243.047,243.047,0,0,0,13.69,33.079c2.63,4.882,5.23,9.53,7.757,13.943,2.791,4.264,5.389,8.37,7.968,12.194,10.6,15.165,21.2,25.327,28.329,32.257l11.634,9.811Z" transform="translate(-4219.171 -1164.893)"/><path d="M4394.74,1790.2l-3.462-3.218c-2.26-2.143-5.6-5.342-9.776-9.688a209.042,209.042,0,0,1-31.182-41.608,208.568,208.568,0,0,1-25.533-76.125,220.433,220.433,0,0,1-1.772-24.042q-.144-6.213-.042-12.611.25-6.4.511-12.964c.633-17.545,1.743-35.932,2.761-55.176,1.093-19.2,2.287-39.262,6.663-59.482a160.29,160.29,0,0,1,9.415-29.974,117.356,117.356,0,0,1,16.487-27.763,98.053,98.053,0,0,1,24.9-21.853c9.542-6.018,20.11-10.615,31.021-14.549,10.933-3.918,22.27-7.118,33.741-10.308s23.07-6.366,34.8-9.4,23.6-5.932,35.616-8.552c12.012-2.592,24.2-5.033,36.448-7.188a244.927,244.927,0,0,1,37.21-3.9,185.393,185.393,0,0,1,37.5,3.5c24.866,4.855,48.833,14.215,72.249,24.7,11.717,5.263,23.353,10.828,34.986,16.4,11.6,5.6,23.087,11.43,33.782,18.434a114.913,114.913,0,0,1,28.234,25.367c7.847,9.976,13.977,21.218,19.131,32.83,5.131,11.623,9.428,23.675,13.391,35.7a300.361,300.361,0,0,1,9.505,36.633,186.8,186.8,0,0,1,3.374,37.238,139.965,139.965,0,0,1-5.324,36.516c-3.334,11.847-7.8,23.345-11.438,35.092-3.807,11.738-5.788,23.85-8.422,35.512a134.344,134.344,0,0,1-4.908,17.115,83.961,83.961,0,0,1-3.482,8.111c-1.312,2.584-2.7,5.172-4.266,7.645-6.147,9.98-13.958,18.756-21.933,27.152q-24.4,24.932-47.674,48.713c-7.794,7.875-15.239,15.884-23.388,22.79a95.334,95.334,0,0,1-12.864,9.261,109.7,109.7,0,0,1-14.04,6.865c-9.618,3.9-19.421,7.115-28.958,10.335-9.564,3.174-19.027,6.04-28.39,8.483-18.715,4.878-37.109,7.963-54.75,8.225-17.576.2-34.137-3.427-48.9-8.662-14.806-5.229-28.113-11.626-40.458-17.373-12.327-5.792-23.421-11.555-33.244-17.114a326.966,326.966,0,0,1-43.443-29.1q-3.547-2.811-6.168-5.063c-1.765-1.474-3.237-2.732-4.39-3.779Zm-.889.953,3.542,3.162c1.158,1.055,2.632,2.322,4.4,3.809q2.621,2.268,6.185,5.1a328.152,328.152,0,0,0,43.551,29.333c9.84,5.6,20.964,11.417,33.3,17.253,12.343,5.784,25.652,12.228,40.573,17.544,14.885,5.318,31.619,9.052,49.521,8.888,17.783-.219,36.372-3.286,55.2-8.144,9.422-2.432,18.935-5.286,28.537-8.446,9.589-3.212,19.353-6.385,29.129-10.313a111.739,111.739,0,0,0,14.353-6.976,97.582,97.582,0,0,0,13.17-9.429c8.315-7.016,15.8-15.03,23.6-22.872q23.311-23.7,47.824-48.614c8.039-8.426,15.992-17.295,22.324-27.51,1.609-2.532,3.042-5.175,4.428-7.892a86.5,86.5,0,0,0,3.587-8.3,137.369,137.369,0,0,0,5.052-17.427c2.7-11.807,4.675-23.729,8.459-35.291,3.626-11.617,8.135-23.12,11.552-35.135a143.012,143.012,0,0,0,5.528-37.23,189.788,189.788,0,0,0-3.324-37.837,303.786,303.786,0,0,0-9.505-37.04c-3.975-12.164-8.234-24.224-13.416-36.049-5.2-11.783-11.415-23.286-19.464-33.579-2-2.577-4.186-5.106-6.356-7.433-2.264-2.418-4.6-4.67-7.042-6.864a134.342,134.342,0,0,0-15.571-11.881c-10.893-7.2-22.542-13.055-34.2-18.644-11.669-5.555-23.327-11.091-35.115-16.35-23.551-10.471-47.768-19.869-73.02-24.732a188.533,188.533,0,0,0-38.16-3.453,247.8,247.8,0,0,0-37.658,4.043c-12.337,2.206-24.489,4.675-36.559,7.312-12.052,2.662-23.945,5.6-35.694,8.672s-23.35,6.284-34.822,9.506-22.859,6.468-33.894,10.456c-11.011,4-21.734,8.7-31.459,14.865a100.44,100.44,0,0,0-25.435,22.443,119.67,119.67,0,0,0-16.733,28.339,162.585,162.585,0,0,0-9.46,30.4c-4.364,20.446-5.5,40.61-6.544,59.825-.964,19.22-2.028,37.68-2.612,55.22q-.242,6.586-.478,13-.08,6.424.078,12.677a222.09,222.09,0,0,0,1.851,24.218,210.254,210.254,0,0,0,25.934,76.639,210.552,210.552,0,0,0,31.506,41.8c4.207,4.359,7.57,7.563,9.85,9.709C4392.665,1790.055,4393.852,1791.151,4393.852,1791.151Z" transform="translate(-4206.892 -1195.304)"/><path d="M4235.393,1553.342l-.579-1.3c-.374-.864-.994-2.143-1.637-3.862a89.542,89.542,0,0,1-4.63-15.642,92.662,92.662,0,0,1,1.374-42.715,138.028,138.028,0,0,1,6.406-17.829c5.37-12.258,11.762-25.713,19.469-39.859a334.752,334.752,0,0,1,28.161-43.738c11.4-14.57,24.986-29.074,41.831-40.966a156.62,156.62,0,0,1,27.377-15.618c9.848-4.345,20.316-7.885,31.033-11.454s21.733-7.216,32.554-12.007c10.846-4.753,21.5-10.3,32.738-14.86a124.422,124.422,0,0,1,17.317-5.733,107.47,107.47,0,0,1,18.257-2.788c12.425-.871,25.135-.131,38.018.693,25.695,1.785,52.085,5.073,78.365,11.615a319.3,319.3,0,0,1,39.112,12.336c12.918,4.95,25.337,11.362,37.785,18.131,6.229,3.368,12.485,6.781,18.851,10.063s12.879,6.32,19.338,9.454c12.907,6.26,25.842,12.766,37.575,21.283,2.929,2.1,5.813,4.379,8.5,6.719l4.091,3.706c1.362,1.237,2.56,2.576,3.85,3.858a127.282,127.282,0,0,1,13.847,17.066,170.692,170.692,0,0,1,19.833,39.9c2.448,7.1,4.613,14.319,6.359,21.669,1.739,7.378,3.165,14.745,4.309,22.32a442.924,442.924,0,0,1,4.111,45.55c.686,15.3.9,30.674,1.269,46.078q.264,11.549.741,23.123c.326,7.707.731,15.4.955,23.073.448,15.333.182,30.734-2.729,45.666a116.735,116.735,0,0,1-6.439,21.755c-2.825,7.038-6.191,13.865-9.6,20.688-6.835,13.657-13.641,27.28-21,40.509-3.7,6.6-7.508,13.124-11.551,19.468-2,3.183-4.127,6.262-6.221,9.416s-4.188,6.268-6.388,9.289-4.283,6.136-6.559,9.1l-6.788,8.9c-4.709,5.767-9.348,11.58-14.378,17l-3.7,4.129c-1.258,1.35-2.578,2.636-3.863,3.956l-3.876,3.933c-1.279,1.323-2.578,2.623-3.955,3.833q-4.062,3.71-8.11,7.409l-8.481,6.9a198.259,198.259,0,0,1-36.678,22.653,171.856,171.856,0,0,1-40.3,12.71l-10.346,1.619c-3.46.373-6.937.538-10.392.818l-5.162.361-5.222.071c-3.478.023-6.886-.063-10.332-.2-13.765-.581-27.36-2.255-40.821-3.929s-26.822-3.355-40.13-4.006c-3.321-.216-6.646-.232-9.955-.325-3.31.031-6.625,0-9.9.143-6.587.261-13.062.788-19.487,1.026a97.864,97.864,0,0,1-37.292-4.871c-5.968-1.848-11.833-3.977-17.664-6.06s-11.563-4.248-17.194-6.533a194.335,194.335,0,0,1-59.581-36.837,248.876,248.876,0,0,1-42.092-49.736,343.907,343.907,0,0,1-27.635-52.415,514.8,514.8,0,0,1-17.93-49.176c-2.419-7.725-4.613-15.192-6.586-22.347s-3.713-14.02-5.077-20.594c-1.447-6.56-2.389-12.848-3.173-18.773a154.331,154.331,0,0,1-1.021-16.743,108.79,108.79,0,0,1,2.979-26.183,91.437,91.437,0,0,1,5.536-15.325l2.493-5,.013-.026A.635.635,0,0,0,4235.393,1553.342Zm-1.216.243c-.311.615-1.117,2.218-2.4,4.775a92.8,92.8,0,0,0-5.682,15.538,110.287,110.287,0,0,0-3.125,26.52,155.593,155.593,0,0,0,.966,16.919c.766,5.978,1.692,12.322,3.12,18.926,1.348,6.623,3.058,13.526,5.021,20.716s4.118,14.667,6.515,22.428a517.023,517.023,0,0,0,17.8,49.429,346.045,346.045,0,0,0,27.6,52.85,248.436,248.436,0,0,0,42.382,50.275,196.731,196.731,0,0,0,60.206,37.344c5.669,2.31,11.438,4.48,17.273,6.591,5.835,2.092,11.712,4.237,17.759,6.119a100.226,100.226,0,0,0,38.085,5.03c6.488-.233,12.984-.751,19.479-1,3.264-.134,6.519-.1,9.8-.127,3.273.1,6.561.116,9.854.336,13.182.662,26.481,2.363,39.941,4.047s27.121,3.4,41.027,4c3.467.143,7,.234,10.475.217l5.222-.064,5.281-.359c3.506-.278,7.034-.442,10.546-.816l10.509-1.628a174.607,174.607,0,0,0,40.962-12.858,201.065,201.065,0,0,0,37.252-22.933q4.293-3.482,8.6-6.974l8.214-7.484c1.4-1.223,2.711-2.535,4.005-3.869l3.923-3.969c1.3-1.332,2.635-2.63,3.909-3.993l3.742-4.162c5.086-5.47,9.773-11.324,14.528-17.133l6.851-8.96c2.294-2.983,4.412-6.117,6.63-9.173s4.342-6.179,6.427-9.318,4.247-6.252,6.274-9.469c4.089-6.4,7.939-12.964,11.667-19.6,7.428-13.3,14.269-26.955,21.125-40.6,3.425-6.83,6.842-13.727,9.738-20.913a119.887,119.887,0,0,0,6.643-22.336c3-15.313,3.28-30.962,2.851-46.395-.485-15.466-1.422-30.794-1.71-46.182-.387-15.381-.626-30.776-1.335-46.146-1.391-30.67-4.831-61.625-15.082-90.429a173.751,173.751,0,0,0-20.249-40.582,130.151,130.151,0,0,0-14.208-17.451c-1.328-1.319-2.61-2.731-3.974-3.968l-4.1-3.7c-2.859-2.483-5.743-4.745-8.756-6.9-11.992-8.675-25.086-15.224-38.031-21.482-6.483-3.133-12.967-6.15-19.292-9.4s-12.572-6.647-18.814-10.01c-12.449-6.75-25.061-13.237-38.106-18.213a321.677,321.677,0,0,0-39.453-12.38c-26.486-6.552-53-9.814-78.832-11.568-12.888-.806-25.695-1.54-38.337-.636a109.911,109.911,0,0,0-18.649,2.877,126.889,126.889,0,0,0-17.634,5.865c-11.371,4.63-22.049,10.214-32.766,14.929-10.721,4.766-21.64,8.387-32.356,11.985s-21.24,7.16-31.219,11.579a157.14,157.14,0,0,0-27.727,15.891c-17.022,12.128-30.678,26.841-42.108,41.572a336.562,336.562,0,0,0-28.148,44.112c-7.7,14.272-14.02,27.721-19.375,40.087a139.751,139.751,0,0,0-6.408,18.071,94.194,94.194,0,0,0-1.219,43.38,90.867,90.867,0,0,0,4.767,15.861c.671,1.765,1.288,3.02,1.667,3.888C4233.928,1553.031,4234.08,1553.37,4234.177,1553.584Z" transform="translate(-4153.205 -1203.217)"/><path d="M4249.344,1801.19l-4.536-4.638c-2.93-3.1-7.238-7.747-12.509-14.076s-11.516-14.327-18.4-24.027c-6.928-9.671-14.488-21.044-22.931-33.8-8.4-12.763-17.838-26.861-26.26-43.121a214.971,214.971,0,0,1-11.342-26.076c-3.317-9.246-6.209-18.995-8.761-29.164-2.573-10.166-4.832-20.747-7.054-31.66-2.178-10.919-4.661-22.125-6.038-33.758-1.352-11.6-1.55-23.777,1.629-35.677,1.48-5.965,4.4-11.575,6.376-17.673,2.022-6.12,2.267-12.647,2.361-19.061a283.494,283.494,0,0,1,3.315-39.181,276.291,276.291,0,0,1,9.674-39.773,281.187,281.187,0,0,1,16.1-39.395,290.739,290.739,0,0,1,22.848-37.829,266.982,266.982,0,0,1,29.581-34.978c2.846-2.654,5.57-5.434,8.539-8.007q4.493-3.82,9.012-7.663l9.491-7.24c3.206-2.381,6.583-4.571,9.88-6.874,26.857-17.874,57.385-31.724,89.444-42.827,16.049-5.547,32.515-10.4,49.232-14.845,16.7-4.467,33.718-8.39,51.192-10.284,34.907-4.161,70.809-1.29,106.062,4.728,17.661,3.018,35.239,6.836,52.754,11.085,17.5,4.305,35.068,8.648,52.371,13.8,17.288,5.177,34.277,11.439,50.114,19.832a297.843,297.843,0,0,1,44.679,29.345,476.892,476.892,0,0,1,39.79,35.181c6.292,6.185,12.284,12.621,18.1,19.183q8.624,9.919,16.339,20.458a234.451,234.451,0,0,1,13.979,21.862c1.116,1.848,2.012,3.8,3.029,5.695.988,1.907,2.006,3.8,2.856,5.767l2.673,5.839,2.363,5.95a143.39,143.39,0,0,1,7.1,24.414,133.135,133.135,0,0,1,1.517,25.146c-.35,16.829-2.44,33.636-2.208,50.435q-.122,25.12-.241,49.972-.06,12.422-.119,24.766a175.993,175.993,0,0,1-1.279,24.466c-2.011,16.177-6.554,31.881-12.125,47.047-5.552,15.195-12.212,29.867-18.741,44.443-6.514,14.574-11.185,29.824-20.524,42.528-19.865,24.618-40.385,48.081-61.67,69.715-10.65,10.818-21.486,21.2-32.569,31.029-2.783,2.444-5.525,4.909-8.34,7.28a80.309,80.309,0,0,1-8.552,6.813c-6.123,3.921-13.119,6.442-20.073,8.642-6.981,2.183-14.067,4-20.925,6.286-6.846,2.221-13.732,4.138-20.617,5.808a303.07,303.07,0,0,1-41.143,7c-27.22,2.692-53.539,1.733-78.458.78l-36.44-1.49c-11.82-.482-23.287-.927-34.4-1.519a524.88,524.88,0,0,1-61.827-6.809,330.838,330.838,0,0,1-50.967-12.956,266.5,266.5,0,0,1-38.415-17.161l-7.536-4.527-3.544-2.129c-1.158-.695-2.2-1.5-3.268-2.214l-6.042-4.2-2.8-1.945-2.508-2.011-8.6-6.895q-3.483-3.22-5.853-5.407Zm-.562.495,4.788,4.433,5.869,5.433,8.625,6.93,2.517,2.021,2.81,1.956,6.061,4.221c1.072.721,2.116,1.528,3.278,2.226l3.555,2.142,7.56,4.552a267.39,267.39,0,0,0,38.535,17.263,331.741,331.741,0,0,0,51.1,13.047,525.838,525.838,0,0,0,61.947,6.885c11.111.6,22.6,1.062,34.407,1.555l36.441,1.527c24.928.978,51.288,1.969,78.631-.705a304.381,304.381,0,0,0,41.319-6.982c6.916-1.669,13.837-3.589,20.715-5.812,6.831-2.265,13.885-4.07,20.922-6.262,7.005-2.212,14.086-4.738,20.413-8.776a81.509,81.509,0,0,0,8.689-6.9c2.823-2.373,5.574-4.841,8.365-7.286,11.117-9.835,21.985-20.229,32.666-31.055s21.162-22.1,31.449-33.763c10.276-11.682,20.479-23.6,30.426-36.034,9.535-12.958,14.225-28.293,20.724-42.767,6.536-14.55,13.234-29.256,18.826-44.506,5.612-15.224,10.207-31.026,12.255-47.348a177.375,177.375,0,0,0,1.32-24.641q.073-12.342.147-24.766.147-24.843.3-49.972c-.214-16.725,1.889-33.449,2.266-50.411a134.669,134.669,0,0,0-1.519-25.494,145.1,145.1,0,0,0-7.147-24.69l-2.381-6.012-2.691-5.9c-.859-1.984-1.882-3.9-2.876-5.823-1.024-1.912-1.929-3.883-3.052-5.748a236.079,236.079,0,0,0-14.062-22.051q-7.737-10.62-16.422-20.608c-5.839-6.606-11.855-13.082-18.168-19.3a478.554,478.554,0,0,0-39.92-35.372,294.652,294.652,0,0,0-45-29.536c-15.992-8.453-33.14-14.749-50.5-19.927-17.394-5.163-34.966-9.484-52.5-13.779-17.547-4.237-35.174-8.046-52.9-11.056-35.383-6-71.451-8.858-106.618-4.628-17.566,1.922-34.7,5.892-51.417,10.384-16.745,4.466-33.245,9.353-49.335,14.934-32.14,11.169-62.776,25.1-89.751,43.1-3.312,2.319-6.7,4.525-9.925,6.921q-4.78,3.656-9.536,7.29-4.54,3.871-9.055,7.717c-2.983,2.592-5.737,5.406-8.6,8.087a268.343,268.343,0,0,0-29.67,35.166,292.038,292.038,0,0,0-22.9,38.018,282.315,282.315,0,0,0-16.117,39.579,277.226,277.226,0,0,0-9.666,39.948,284.4,284.4,0,0,0-3.281,39.336c-.087,6.419-.326,12.793-2.292,18.767-1.913,5.965-4.862,11.649-6.367,17.722-3.212,12.085-2.986,24.391-1.613,36.051,1.4,11.7,3.9,22.913,6.092,33.832,2.236,10.915,4.509,21.509,7.1,31.693,2.569,10.189,5.481,19.964,8.821,29.239a215.876,215.876,0,0,0,11.418,26.169c8.473,16.309,17.939,30.416,26.36,43.173,8.457,12.744,16.036,24.116,22.987,33.795,6.905,9.707,13.179,17.711,18.463,24.053s9.618,10.995,12.567,14.107Z" transform="translate(-4129.473 -1195.952)"/><path d="M62.862,252.622l-8.735-6.812a151.458,151.458,0,0,1-21.076-22.2c-1.918-2.633-3.851-5.46-5.928-8.4-1.878-3.038-3.813-6.238-5.767-9.6A159.629,159.629,0,0,1,11.2,182.852a167.921,167.921,0,0,1-9.686-57.941c.079-2.693.052-5.418.216-8.163q.323-4.114.651-8.309a117.416,117.416,0,0,1,2.782-16.9c2.645-11.348,8.631-22.313,17.187-31.949,8.465-9.721,19.057-18.275,30.268-26.5a161.656,161.656,0,0,1,17.72-11.52,91.308,91.308,0,0,1,20.188-8.206c7.153-2,14.6-3.361,22.129-4.681S127.768,6.032,135.426,4.9c15.284-2.258,31.008-3.682,46.681-2.271s30.86,6.095,45.67,11.489a427.7,427.7,0,0,1,43.4,18.618,153.733,153.733,0,0,1,20.144,11.593,80.638,80.638,0,0,1,8.832,7.113c1.341,1.283,2.682,2.63,3.861,3.978,1.216,1.433,2.46,2.86,3.482,4.328,1.12,1.424,2.051,3,3.053,4.512.879,1.58,1.85,3.12,2.6,4.754a73.793,73.793,0,0,1,4.1,9.93,100.232,100.232,0,0,1,2.79,10.294c.7,3.476,1.316,6.963,1.732,10.47a202.986,202.986,0,0,1,1.385,21.065c.131,7-.038,13.983-.543,20.895a187.808,187.808,0,0,1-7.273,40.407c-3.95,12.962-9.143,25.5-16.731,36.492a138.94,138.94,0,0,1-12.783,15.4c-2.251,2.462-4.488,4.924-6.617,7.445s-4.109,5.109-6.034,7.7c-3.842,5.169-7.484,10.328-11.681,14.968A55.8,55.8,0,0,1,247.03,275.8a94.461,94.461,0,0,1-17.137,7.384c-2.952.967-5.857,2-8.769,2.885l-8.746,2.242-2.162.546-2.195.4-4.354.788-4.306.781c-1.436.207-2.881.324-4.309.489l-4.264.459c-1.415.127-2.812.368-4.221.37l-8.328.3a39.457,39.457,0,0,1-4.086-.022l-4.032-.136-3.979-.134c-1.316-.048-2.612-.243-3.9-.355l-7.636-.779-7.328-1.235-3.577-.605-3.465-.815-6.755-1.586c-2.187-.6-4.3-1.274-6.4-1.888l-3.106-.931-1.53-.459-1.48-.539-5.769-2.1-2.794-1.016c-.914-.347-1.789-.752-2.669-1.119l-5.138-2.2-2.475-1.058c-.809-.359-1.579-.764-2.353-1.136a244.462,244.462,0,0,1-27.705-15.464l-9.212-6.261Zm-.631.678,9.225,6.311a245.136,245.136,0,0,0,27.78,15.614c.778.376,1.551.785,2.362,1.149l2.487,1.071,5.16,2.223c.884.371,1.763.781,2.683,1.133l2.806,1.031,5.8,2.129,1.489.546,1.538.467,3.124.946c2.107.625,4.237,1.313,6.438,1.919l6.8,1.618,3.49.83,3.6.621,7.387,1.266,7.7.808c1.3.117,2.611.317,3.94.369l4.014.147,4.07.149a40.291,40.291,0,0,0,4.125.034l8.41-.281c1.423,0,2.835-.237,4.265-.361l4.309-.451c1.442-.163,2.9-.278,4.354-.483l4.353-.775,4.4-.784,2.219-.4,2.195-.547,8.885-2.254c2.933-.88,5.828-1.9,8.787-2.864l2.219-.734,1.141-.379,1.1-.414q2.2-.839,4.4-1.758a85.52,85.52,0,0,0,8.6-4.181A57.511,57.511,0,0,0,262.8,265.024c4.294-4.72,7.982-9.912,11.827-15.048,1.917-2.564,3.9-5.126,6-7.608s4.343-4.923,6.6-7.378a140.619,140.619,0,0,0,12.981-15.539c7.761-11.176,13.046-23.832,17.081-36.9a189.48,189.48,0,0,0,7.483-40.748q.8-10.455.621-21.06a204.508,204.508,0,0,0-1.324-21.254c-.409-3.553-1.023-7.1-1.722-10.634a102.47,102.47,0,0,0-2.81-10.511,75.723,75.723,0,0,0-4.177-10.206c-.771-1.683-1.765-3.279-2.669-4.911-1.032-1.576-1.978-3.183-3.163-4.706-1.1-1.584-2.331-2.994-3.539-4.429-1.293-1.488-2.628-2.829-4.027-4.18a82.889,82.889,0,0,0-9.075-7.357A156.169,156.169,0,0,0,272.446,30.7a410.223,410.223,0,0,0-43.731-18.664c-14.9-5.374-30.339-10.11-46.372-11.5-16-1.392-31.915.11-47.28,2.424-7.7,1.159-15.3,2.51-22.825,3.853s-15.05,2.736-22.331,4.8A93.451,93.451,0,0,0,69.3,20.058,163.536,163.536,0,0,0,51.4,31.769c-11.225,8.3-21.891,16.956-30.451,26.85A84.568,84.568,0,0,0,9.994,74.268a70.1,70.1,0,0,0-6.43,16.953A118.535,118.535,0,0,0,.814,108.312Q.5,112.538.188,116.683c-.155,2.765-.12,5.51-.187,8.222a169.087,169.087,0,0,0,9.962,58.3,160.867,160.867,0,0,0,10.311,22.889c1.981,3.378,3.94,6.594,5.843,9.648,2.1,2.951,4.059,5.792,6,8.437A152.5,152.5,0,0,0,53.455,246.5l8.763,6.788Z" transform="matrix(0.07, 0.998, -0.998, 0.07, 506.509, 345.672)"/></g><text class="c" transform="translate(373.611 543.333)"><tspan x="-29.208" y="0">PURUSA</tspan></text><text class="d" transform="translate(371.934 562.922)"><tspan x="-43.302" y="0">Consciousness</tspan></text><text class="a" transform="translate(306.235 129.441)"><tspan x="13.147" y="14">Breath/Energy</tspan></text><text class="b" transform="translate(300.196 107.295)"><tspan x="16.16" y="14">PRANAMARA</tspan></text><text class="a" transform="translate(306.235 218.538)"><tspan x="15.009" y="14">Mind/Intellect</tspan></text><text class="b" transform="translate(300.196 196.392)"><tspan x="20.927" y="14">MANOMAYA</tspan></text><text class="a" transform="translate(288.115 314.566)"><tspan x="11.937" y="14">Personality/Behavior</tspan></text><text class="b" transform="translate(300.196 292.419)"><tspan x="10.098" y="14">VIJNANAMAYA</tspan></text><text class="a" transform="translate(306.235 420.314)"><tspan x="30.269" y="14">Emotions</tspan></text><text class="b" transform="translate(300.196 398.167)"><tspan x="10.49" y="14">ANANDAMAYA</tspan></text></g><path class="e" d="M4408.467,1564.487l-4.547-3.86a83.1,83.1,0,0,1-10.97-12.579c-1-1.492-2-3.094-3.086-4.757-.978-1.721-1.984-3.535-3-5.438a94.586,94.586,0,0,1-5.288-12.9,102.75,102.75,0,0,1-5.042-32.829c.041-1.526.027-3.07.112-4.625q.168-2.331.339-4.708a72.174,72.174,0,0,1,1.448-9.577,43.211,43.211,0,0,1,8.946-18.1,99.1,99.1,0,0,1,15.755-15.017,83.776,83.776,0,0,1,9.224-6.527,45.4,45.4,0,0,1,10.509-4.65,110.858,110.858,0,0,1,11.518-2.652c3.922-.749,7.868-1.5,11.854-2.139,7.956-1.28,16.141-2.087,24.3-1.287s16.063,3.453,23.772,6.51A213.278,213.278,0,0,1,4516.9,1439.9a78.632,78.632,0,0,1,10.486,6.568,42.88,42.88,0,0,1,4.6,4.03c.7.727,1.4,1.49,2.01,2.254.633.812,1.28,1.62,1.813,2.452.583.807,1.067,1.7,1.589,2.557.457.9.963,1.768,1.355,2.694a43.93,43.93,0,0,1,2.135,5.626c.6,1.916,1.048,3.872,1.453,5.833.363,1.969.685,3.945.9,5.933.462,3.969.642,7.965.721,11.935s-.02,7.923-.282,11.839a114.922,114.922,0,0,1-3.786,22.895,66.269,66.269,0,0,1-15.363,29.4c-1.172,1.4-2.336,2.79-3.444,4.218s-2.138,2.895-3.141,4.363c-2,2.929-3.9,5.852-6.081,8.481a29.667,29.667,0,0,1-7.532,6.639,47.188,47.188,0,0,1-8.92,4.184c-1.537.548-3.049,1.135-4.564,1.635l-4.553,1.27-1.125.309-1.142.225-2.267.446-2.241.443c-.748.117-1.5.183-2.243.277l-2.219.26c-.737.072-1.464.208-2.2.21l-4.335.17a18.8,18.8,0,0,1-2.126-.012l-2.1-.077-2.071-.076c-.686-.027-1.36-.137-2.033-.2l-3.975-.441-3.814-.7-1.862-.343-1.8-.462-3.516-.9c-1.139-.338-2.24-.722-3.33-1.07l-1.616-.528-.8-.26-.771-.305-3-1.189-1.454-.576c-.477-.2-.931-.426-1.39-.634l-2.675-1.244-1.288-.6c-.421-.2-.822-.433-1.225-.643a124.786,124.786,0,0,1-14.421-8.762l-4.8-3.547Zm-.329.384,4.8,3.576a125.176,125.176,0,0,0,14.46,8.847c.405.213.807.445,1.229.651l1.294.607,2.686,1.259c.46.21.918.443,1.4.642l1.46.584,3.019,1.206.775.31.8.265,1.626.536c1.1.354,2.206.744,3.351,1.087l3.541.917,1.816.47,1.876.352,3.845.717,4.009.458c.678.066,1.358.179,2.05.209l2.09.083,2.119.084a19.281,19.281,0,0,0,2.147.019l4.378-.159c.741,0,1.476-.134,2.22-.2l2.243-.256c.751-.093,1.51-.158,2.267-.274l2.266-.439,2.291-.444,1.155-.224,1.143-.31,4.625-1.277c1.527-.5,3.034-1.079,4.574-1.623l1.155-.416.594-.215.574-.235q1.147-.476,2.289-1a43.018,43.018,0,0,0,4.476-2.369,30.543,30.543,0,0,0,7.762-6.795c2.235-2.675,4.155-5.616,6.156-8.526,1-1.453,2.028-2.9,3.123-4.311s2.261-2.789,3.437-4.18a67.216,67.216,0,0,0,15.648-29.714,115.886,115.886,0,0,0,3.894-23.088q.417-5.924.324-11.933c-.067-4-.234-8.017-.689-12.042-.212-2.013-.533-4.021-.9-6.025-.406-2-.857-3.993-1.462-5.955a45.125,45.125,0,0,0-2.174-5.783c-.4-.953-.919-1.858-1.389-2.783-.537-.893-1.03-1.8-1.646-2.666-.575-.9-1.213-1.7-1.842-2.509-.672-.843-1.367-1.6-2.1-2.368a44.073,44.073,0,0,0-4.724-4.169,79.994,79.994,0,0,0-10.641-6.716,204.684,204.684,0,0,0-22.763-10.575c-7.754-3.045-15.792-5.728-24.138-6.517-8.329-.789-16.613.063-24.61,1.374-4.006.656-7.962,1.422-11.881,2.183a111.893,111.893,0,0,0-11.624,2.717,46.5,46.5,0,0,0-10.728,4.787,84.72,84.72,0,0,0-9.315,6.635,99.96,99.96,0,0,0-15.851,15.213,48.166,48.166,0,0,0-5.7,8.867,41.942,41.942,0,0,0-3.347,9.606,72.7,72.7,0,0,0-1.432,9.684q-.166,2.394-.326,4.743c-.08,1.567-.062,3.122-.1,4.659a103.447,103.447,0,0,0,5.186,33.033,95.249,95.249,0,0,0,5.367,12.969c1.031,1.914,2.05,3.736,3.042,5.466,1.094,1.672,2.112,3.282,3.124,4.781a83.587,83.587,0,0,0,11.107,12.647l4.561,3.846Z" transform="translate(-3050.086 1838.513)"/></g></svg>